<svg xmlns="http://www.w3.org/2000/svg" viewBox="0 0 32 32"><path d="M31 16v6.8l1 .8V12.8h-8.3L31 16Z" fill="#66b4ff"/><path d="M12 22.2V16l7.3-3.2H6.3L3.2 25.6v-16H32c0-1.8-1.4-3.2-3.2-3.2H16l-3.2-3.2H3.2A3.2 3.2 0 0 0 0 6.4v19.2c0 1.8 1.4 3.2 3.2 3.2H14c-1.3-2-2-4.2-2-6.6Z" fill="#66b4ff"/><path d="M28 22h1v-4.7L21.5 14 14 17.3v4.9c0 4.5 3.2 8.8 7.5 9.8.6-.1 1-.3 1.6-.6A6 6 0 0 1 28 22Z" fill="#66b4ff"/><path d="M28 24a4 4 0 1 0 0 8 4 4 0 0 0 0-8Zm0 1.4c.6 0 1.1.5 1.1 1.1s-.5 1.1-1.1 1.1-1.1-.5-1.1-1.1.5-1.1 1.1-1.1Zm0 5.4c-1 0-1.7-.5-2.2-1.2 0-.7 1.5-1.1 2.2-1.1s2.2.4 2.2 1c-.5.8-1.3 1.2-2.2 1.2Z" fill="#66b4ff"/></svg>