<svg xmlns="http://www.w3.org/2000/svg" viewBox="0 0 32 32"><path d="M3.9 28.8c.9-3.2 2.8-6 5.5-8l-1.3-2.1a2.5 2.5 0 0 1 4.3-2.5l1.4 2.4c3-1 6.6-1 9.7 0l1.4-2.4a2.4 2.4 0 0 1 3.3-.9c1.2.7 1.6 2.2.9 3.4l-1.3 2.1c1.7 1.3 3.1 2.9 4.2 4.7v-16c0-1.7-1.4-3.1-3.2-3.1H16l-3.2-3.2H3.2A3.2 3.2 0 0 0 0 6.4v19.2c0 1.8 1.4 3.2 3.2 3.2h.7Z" fill="#66ffb4"/><path d="m25.1 21.5 2.3-3.8c.1-.2 0-.5-.2-.6a.4.4 0 0 0-.6.1l-2.3 4a13.8 13.8 0 0 0-11.4 0l-2.2-4a.4.4 0 0 0-.6-.1c-.3.1-.3.4-.2.6l2.2 3.8c-3.8 2-6.4 6-6.8 10.5H32c-.4-4.5-3-8.4-6.8-10.5Zm-12.6 6.7a1.1 1.1 0 1 1 0-2.2 1.1 1.1 0 0 1 0 2.2Zm12.3 0a1.1 1.1 0 1 1 0-2.2 1.1 1.1 0 0 1 0 2.2Z" fill="#66ffb4"/></svg>