<svg xmlns="http://www.w3.org/2000/svg" viewBox="0 0 32 32"><path d="m16.1 28-5-5 5-5 2-1.9 4.9-5 5 5 4 4V9.7c0-1.8-1.4-3.2-3.2-3.2H16l-3.2-3.2H3.2A3.2 3.2 0 0 0 0 6.4v19.2c0 1.8 1.4 3.2 3.2 3.2H17l-.9-.9ZM29.9 28l-.8.8a3.2 3.2 0 0 0 2.9-3L29.9 28Z" fill="#ff6"/><path fill="#ff6" d="m23 18.9 1.6 1.6 2.5-2.4L23 14l-4.1 4.1 2.5 2.4 1.6-1.6zM21 23l2-2 2.1 2-2 2zM18.9 23l1.6-1.6-2.4-2.5L14 23l4.1 4.1 2.4-2.5-1.6-1.6zM27.9 18.9l-2.4 2.5 1.6 1.6-1.6 1.6 2.4 2.5L32 23l-4.1-4.1zM23 27.1l-1.6-1.6-2.5 2.4L23 32l4.1-4.1-2.5-2.4-1.6 1.6z"/></svg>