<svg xmlns="http://www.w3.org/2000/svg" viewBox="0 0 32 32"><path fill="#66b4ff" d="m28.4 15 3.6.8v-3h-4.9l1.3 2.2zM32 19.9v.1-.3.2z"/><path d="m13.2 26-2.7-3 2.7-3-.4-4.1 4-1 1.3-2.1H6.4L3.2 25.6v-16H32c0-1.8-1.4-3.2-3.2-3.2H16l-3.2-3.2H3.2A3.2 3.2 0 0 0 0 6.4v19.2c0 1.8 1.4 3.2 3.2 3.2h9.7l.3-2.7Z" fill="#66b4ff"/><path d="m32 23-2-2.4.2-3.2-3-.6-1.7-2.8-3 1.3-2.8-1.3-1.7 2.7-3 .7.2 3.2-2 2.4 2 2.4-.2 3.2 3 .7 1.7 2.7 2.9-1.3 2.9 1.3 1.6-2.7 3.1-.8-.3-3.1L32 23Zm-11 4-3.3-3.2 1.2-1.3 2 2 5-5 1.3 1.3L21 27Z" fill="#66b4ff"/></svg>