<svg xmlns="http://www.w3.org/2000/svg" viewBox="0 0 32 32"><path d="M32 16.7v-3.9h-5a11 11 0 0 1 5 3.9Z" fill="#e2e2e4"/><path d="m12.4 26-.1-.3v-.6c0-.9.5-1.7 1.2-2.1a2.4 2.4 0 0 1-1.3-2.1v-.4l.1-.2a11 11 0 0 1 6.6-7.5H6.4L3.2 25.6v-16H32c0-1.7-1.4-3.2-3.2-3.2H16l-3.2-3.2H3.2A3.2 3.2 0 0 0 0 6.4v19.2c0 1.8 1.4 3.2 3.2 3.2h10.4a11 11 0 0 1-1.2-2.9Z" fill="#e2e2e4"/><path d="M20.8 23a2.1 2.1 0 1 1 4.3 0 2.1 2.1 0 0 1-4.3 0Zm2.2-9a9 9 0 0 0-8.8 6.8c0 .3.2.5.5.5h3.6c.2 0 .3-.1.4-.3a4.7 4.7 0 1 1 0 4c0-.2-.2-.3-.4-.3h-3.6c-.3 0-.5.2-.5.4v.1A9 9 0 1 0 23 14Z" fill="#e2e2e4"/></svg>