<svg xmlns="http://www.w3.org/2000/svg" viewBox="0 0 32 32"><path d="M28.4 19c1.4.4 2.6 1.2 3.6 2.3v-8.5h-9.5c2.7 1.1 4.9 3.4 5.9 6.2ZM14.5 12.8H6.4l-1.9 7.5c1.2-1.8 3-3 5.3-3.6 1.1-1.7 2.8-3.1 4.7-3.9Z" fill="#66b4ff"/><path d="M3 25.3c0-.7 0-1.3.2-1.9V9.6H32c0-1.8-1.4-3.2-3.2-3.2H16l-3.2-3.2H3.2A3.2 3.2 0 0 0 0 6.4v19.2c0 1.8 1.4 3.2 3.2 3.2h.6c-.5-1-.8-2.3-.8-3.5Z" fill="#66b4ff"/><path d="M26.8 20.8A8.4 8.4 0 0 0 11 18.5a6.7 6.7 0 0 0 .8 13.5h14.6a5.6 5.6 0 0 0 .4-11.2Z" fill="#66b4ff"/></svg>