<svg xmlns="http://www.w3.org/2000/svg" viewBox="0 0 32 32"><path d="M12 27.7V15.1a4 4 0 0 1 4-3.1h14.9l1.1.5V9.6c0-1.8-1.4-3.2-3.2-3.2H16l-3.2-3.2H3.2A3.2 3.2 0 0 0 0 6.4v19.2c0 1.8 1.4 3.2 3.2 3.2H12v-1Z" fill="#66b4ff"/><path fill="#66b4ff" d="M14 23.4h2.4v2.4H14zM14 26.5h2.4v2.4H14zM14 30c0 1.1.9 2 2 2h.4v-2.4H14v.4ZM14 20.3h2.4v2.4H14zM23.4 29.6h2.4V32h-2.4zM27 17.1h-8c-1 0-1.9 1-1.9 2v7.8c0 1.1.9 2 2 2h7.8c1 0 2-.9 2-2v-7.8c0-1-1-2-2-2Zm-.5 2.4v7h-7v-7h7ZM20.3 29.6h2.4V32h-2.4zM17.1 29.6h2.4V32h-2.4zM29.6 20.3H32v2.4h-2.4zM29.6 17.1H32v2.4h-2.4zM30 14h-.4v2.4H32V16c0-1.1-.9-2-2-2ZM29.6 23.4H32v2.4h-2.4zM20.3 14h2.4v2.4h-2.4zM23.4 14h2.4v2.4h-2.4zM26.5 14h2.4v2.4h-2.4zM26.5 29.6h2.4V32h-2.4zM29.6 32h.4c1.1 0 2-.9 2-2v-.4h-2.4V32ZM29.6 26.5H32v2.4h-2.4zM17.1 14h2.4v2.4h-2.4zM14 16v.4h2.4V14H16c-1.1 0-2 .9-2 2ZM14 17.1h2.4v2.4H14z"/></svg>