<svg xmlns="http://www.w3.org/2000/svg" viewBox="0 0 32 32"><path d="M32 14v-1.2h-1.6a7 7 0 0 1 1.6 1.1ZM11 23.1l2.1-6a3.4 3.4 0 0 1 3.3-2.3h5.4c.6-.8 1.4-1.5 2.3-2H6.4L3.2 25.6v-16H32c0-1.8-1.4-3.2-3.2-3.2H16l-3.2-3.2H3.2A3.2 3.2 0 0 0 0 6.4v19.2c0 1.8 1.4 3.2 3.2 3.2H11v-5.7Z" fill="#f66"/><path d="M27.3 14a4.7 4.7 0 1 0 0 9.5 4.7 4.7 0 0 0 0-9.5Zm.4 5.7h-1v-3.8h1v3.8Zm0 1v.9h-1v-1h1Zm-.5 4.7v.4c0 .8-.6 1.5-1.4 1.5s-1.4-.7-1.4-1.5c0-.3.2-.7.4-1a6.7 6.7 0 0 1-3.5-3.2h-5.6l1-2.9h4c0-.6 0-1.3.2-1.9h-4.5c-.7 0-1.2.4-1.4 1l-2 5.7V31c0 .6.5 1 1 1h1c.5 0 .9-.4.9-1v-.9h11.4v1c0 .5.4.9 1 .9h.9c.5 0 1-.4 1-1v-6.3c-1 .5-2.1.7-3 .7Zm-9.9 1.9c-.8 0-1.4-.7-1.4-1.5s.6-1.4 1.4-1.4 1.4.6 1.4 1.4-.6 1.5-1.4 1.5Z" fill="#f66"/></svg>