<svg xmlns="http://www.w3.org/2000/svg" viewBox="0 0 32 32"><path d="M32 16.7v-3.9h-4.9a11 11 0 0 1 4.9 3.9Z" fill="#66ffb4"/><path d="M12 23a11 11 0 0 1 6.9-10.2H6.4L3.2 25.6v-16H32c0-1.8-1.4-3.2-3.2-3.2H16l-3.2-3.2H3.2A3.2 3.2 0 0 0 0 6.4v19.2c0 1.8 1.4 3.2 3.2 3.2h10.5A11 11 0 0 1 12 23Z" fill="#66ffb4"/><path d="M31 18.9A9 9 0 0 0 20 14.5l-1 .4a9.1 9.1 0 0 0-5 9.7l.3 1.2a9 9 0 0 0 9 6.2 2 2 0 0 0 1.7-1.2l4.3-10.6a7 7 0 0 1-3.5 9.2l1 1.8a9 9 0 0 0 4-12.3Zm-3.5.9L26 23.3l-1.4-3.5h-2.3l.4.8c-3.2-3-7.9 1.7-4.8 4.8 1.7 1.8 5 .9 5.7-1.5l-2-.7c-.2 1.6-2.6 1.5-2.6-.2s2.3-1.8 2.7-.2l1.6-.6L25 26 23.3 30a7 7 0 0 1-7.3-7c-.1-7.1 10-9.7 13.2-3.2h-1.8Z" fill="#66ffb4"/></svg>