<svg xmlns="http://www.w3.org/2000/svg" viewBox="0 0 32 32"><path d="M29.1 12.8c1.1.4 2.1.9 2.9 1.5v-1.5h-2.9ZM14 28v-3h.5c-.3-.6-.5-1.3-.5-2v-3h.5c-.3-.6-.5-1.3-.5-2 0-2.3 2-4.2 4.9-5.2H6.4L3.2 25.6v-16H32c0-1.8-1.4-3.2-3.2-3.2H16l-3.2-3.2H3.2A3.2 3.2 0 0 0 0 6.4v19.2c0 1.8 1.4 3.2 3.2 3.2h10.9L14 28Z" fill="#ff6"/><path d="M24 14c-4.4 0-8 1.8-8 4s3.6 4 8 4 8-1.8 8-4-3.6-4-8-4m-8 6v3c0 2.2 3.6 4 8 4s8-1.8 8-4v-3c0 2.2-3.6 4-8 4s-8-1.8-8-4m0 5v3c0 2.2 3.6 4 8 4s8-1.8 8-4v-3c0 2.2-3.6 4-8 4s-8-1.8-8-4Z" fill="#ff6" fill-rule="evenodd"/></svg>