<svg xmlns="http://www.w3.org/2000/svg" viewBox="0 0 32 32"><path d="M14 28v-3h.5c-.3-.6-.5-1.3-.5-2v-3h.5c-.3-.6-.5-1.3-.5-2 0-3.4 4.3-6 10-6 3.4 0 6.2.9 8 2.3V9.6c0-1.8-1.4-3.2-3.2-3.2H16l-3.2-3.2H3.2A3.2 3.2 0 0 0 0 6.4v19.2c0 1.8 1.4 3.2 3.2 3.2h10.9L14 28Z" fill="#ff6"/><path d="M24 14c-4.4 0-8 1.8-8 4s3.6 4 8 4 8-1.8 8-4-3.6-4-8-4m-8 6v3c0 2.2 3.6 4 8 4s8-1.8 8-4v-3c0 2.2-3.6 4-8 4s-8-1.8-8-4m0 5v3c0 2.2 3.6 4 8 4s8-1.8 8-4v-3c0 2.2-3.6 4-8 4s-8-1.8-8-4Z" fill="#ff6" fill-rule="evenodd"/></svg>