<svg xmlns="http://www.w3.org/2000/svg" viewBox="0 0 32 32"><path d="M26 12.8h-4l1.3 1.2h1.4l1.3-1.2Z" fill="#f66"/><path d="M14 17h3.8l-1.6-1.6 2.6-2.6H6.4L3.2 25.6v-16H32c0-1.8-1.4-3.2-3.2-3.2H16l-3.2-3.2H3.2A3.2 3.2 0 0 0 0 6.4v19.2c0 1.8 1.4 3.2 3.2 3.2H14V17ZM29.2 12.8l2.6 2.6-1.6 1.6H32v-4.2h-2.8z" fill="#f66"/><path d="M32 19h-2.8a6 6 0 0 0-1.8-2l1.6-1.6-1.4-1.4-2.2 2.2a6 6 0 0 0-2.8 0L20.4 14 19 15.4l1.6 1.6a6 6 0 0 0-1.8 2H16v2h2v2h-2v2h2v2h-2v2h2.8a6 6 0 0 0 10.4 0H32v-2h-2v-2h2v-2h-2v-2h2v-2Zm-6 8h-4v-2h4v2Zm0-4h-4v-2h4v2Z" fill="#f66"/></svg>