<svg xmlns="http://www.w3.org/2000/svg" viewBox="0 0 32 32"><path fill="#66f" d="m29.6 28 .6.5c.7-.4 1.3-1 1.6-1.9l-2.3 1.5ZM18 12.8l3.4 2.2 3.5-2.2H18zM30.4 20.8l1.6 1v-2l-1.6 1z"/><path fill="#66f" d="m12.4 28.6.8-.5-6.1-4 5.3-3.4L7 17.4l7.2-4.6H6.4L3.2 25.6v-16H32c0-1.8-1.4-3.2-3.2-3.2H16l-3.2-3.2H3.2A3.2 3.2 0 0 0 0 6.4v19.2c0 1.8 1.4 3.2 3.2 3.2h9.5l-.3-.2Z"/><path fill="#66f" d="M32 12.8h-3.5L32 15v-2.2zM21.4 17.4l-5.3 3.4 5.3 3.3-5.3 3.4-5.3-3.4 5.3-3.4-5.3-3.3 5.3-3.4 5.3 3.4Zm-5.3 11.2 5.3-3.4 5.3 3.4-5.3 3.4-5.3-3.4Zm5.3-4.5 5.3-3.4-5.3-3.3 5.3-3.4 5.3 3.4-5.3 3.4L32 24l-5.3 3.4-5.3-3.4Z"/></svg>