<svg xmlns="http://www.w3.org/2000/svg" viewBox="0 0 32 32"><path d="M28.6 12.8v1.1c0 .5 0 .9.2 1.4.1 1.6.6 2.7 1.4 3.5l.6.8 1.2 1.5v-8.3h-3.4Z" fill="#b466ff"/><path d="m18.3 25.3.4-2.4c.4-1.8 1.1-3.3 1.5-4.1l3.8-5.7.7-.3H6.4L3.2 25.6v-16H32c0-1.8-1.4-3.2-3.2-3.2H16l-3.2-3.2H3.2A3.2 3.2 0 0 0 0 6.4v19.2c0 1.8 1.4 3.2 3.2 3.2h15.7a9 9 0 0 1-.6-3.5Z" fill="#b466ff"/><path d="M28.7 20.2a7.8 7.8 0 0 1-2-4.7V14c-.9.3-1.5.9-2.1 1.5-1 1.2-1.9 2.7-2.6 4.2-1.4 2.8-2.5 6.2-1 9.1 1.7 3.8 7.4 4.4 10 .8 2.4-3.7.2-6.4-2.3-9.4Z" fill="#b466ff" fill-rule="evenodd"/></svg>