<svg xmlns="http://www.w3.org/2000/svg" viewBox="0 0 32 32"><path d="M27.9 14.6c2.2 1 3.7 3 4.1 5.6v-7.4h-5.2c.5.5 1 1 1.1 1.8Z" fill="#ff6"/><path d="m15.2 27.5 1.9-1.9v-3.8c0-3.3 1.6-6 4.2-7.2.2-.7.6-1.4 1.1-1.8h-16L3.2 25.6v-16H32c0-1.8-1.4-3.2-3.2-3.2H16l-3.2-3.2H3.2A3.2 3.2 0 0 0 0 6.4v19.2c0 1.8 1.4 3.2 3.2 3.2h12v-1.3Z" fill="#ff6"/><path d="M24.6 32c1 0 1.9-.8 1.9-1.9h-3.7c0 1 .8 1.9 1.8 1.9Zm5.6-5.5v-4.7c0-2.8-1.5-5.2-4.2-5.8v-.6c0-.8-.6-1.4-1.4-1.4s-1.4.6-1.4 1.4v.6c-2.6.6-4.1 3-4.1 5.8v4.7l-1.9 1.8v1H32v-1l-1.8-1.8Z" fill="#ff6"/></svg>