<svg xmlns="http://www.w3.org/2000/svg" viewBox="0 0 32 32"><path fill="#66b4ff" d="m20.2 28.8-.8-.8-.8.8h1.6zM28.6 13.7V19h.6l2.7 7.2.1-.5V12.8h-9.4v1h6Z"/><path d="m10.5 27.8 4.6-4.5-1.6-2.8-.1-.4H10v-6.4h6v-.9H6.5L3.2 25.6v-16H32c0-1.8-1.4-3.2-3.2-3.2H16l-3.2-3.2H3.2A3.2 3.2 0 0 0 0 6.4v19.2c0 1.8 1.4 3.2 3.2 3.2h8.3l-1-1Z" fill="#66b4ff"/><path d="M23.1 25.6 21 23.5c1.4-1.6 2.4-3.4 3-5.4h2.7v-2.4h-6.1V14h-2.4v1.7h-6v2.4h9.5c-.6 1.4-1.3 2.7-2.3 3.8a13 13 0 0 1-1.7-2.5l-.1-.2H15l.3.5c.6 1.3 1.4 2.6 2.4 3.8l-4.4 4.3 1.7 1.7 4.3-4.3 2.8 2.8 1-2.4ZM27.9 21h-2.2l-4.2 11H24l1-2.6h3.7l1 2.6H32l-4.2-11Zm-.2 6h-1.9l1-2.5.9 2.5Z" fill="#66b4ff"/></svg>