<svg xmlns="http://www.w3.org/2000/svg" viewBox="0 0 32 32"><path fill="#f66" d="m32 21.9-.3.3.3-.3zM29.7 28.7c1-.3 1.9-1.2 2.2-2.2l-2.2 2.2ZM13 25.2a3.2 3.2 0 0 1 0-4.5l6.7-6.7 1-1a3.2 3.2 0 0 1 4.5 0l6.8 6.7V9.6c0-1.8-1.5-3.2-3.2-3.2H16l-3.2-3.2H3.2A3.2 3.2 0 0 0 0 6.4v19.2c0 1.8 1.4 3.2 3.2 3.2h13.3L13 25.2Z"/><path d="m31.7 22.2-7.9-7.9c-.5-.4-1.2-.4-1.6 0L20.5 16l2.1 2c.5-.1 1 0 1.4.4.4.4.5 1 .4 1.4l2 2c.4-.2 1 0 1.4.3a1.4 1.4 0 1 1-2 2c-.4-.4-.5-1-.3-1.5l-1.8-1.9v5c.1 0 .2 0 .3.2a1.4 1.4 0 1 1-2 2 1.4 1.4 0 0 1 .5-2.3v-5l-.4-.3c-.4-.4-.5-1-.3-1.5l-2-2-5.4 5.4c-.5.4-.5 1.2 0 1.6l7.8 7.9c.5.4 1.2.4 1.7 0l7.8-7.8c.4-.5.4-1.2 0-1.7" fill="#f66"/></svg>