<svg xmlns="http://www.w3.org/2000/svg" viewBox="0 0 32 32"><path d="M32 16.7v-3.9h-4.9a11 11 0 0 1 4.9 3.9Z" fill="#66f"/><path d="M12 23a11 11 0 0 1 6.9-10.2H6.4L3.2 25.6v-16H32c0-1.8-1.4-3.2-3.2-3.2H16l-3.2-3.2H3.2A3.2 3.2 0 0 0 0 6.4v19.2c0 1.8 1.4 3.2 3.2 3.2h10.5A11 11 0 0 1 12 23Z" fill="#66f"/><path d="M23 14a9 9 0 1 0 0 18 9 9 0 0 0 0-18Zm-1.3 14.5v.8a6.4 6.4 0 0 1-5-7l3.3 3.5v.6c0 1 .7 2 1.7 2.1Zm4.7-2.5H26v-2.1c0-.7-.6-1.3-1.3-1.3H20v-.9h1.3c.7 0 1.3-.6 1.3-1.3v-1.3h1.3c1 0 2-.8 2-1.8a6.4 6.4 0 0 1 2.2 9.5c-.4-.5-1-.8-1.7-.8Z" fill="#66f"/></svg>