<svg xmlns="http://www.w3.org/2000/svg" viewBox="0 0 32 32"><path d="M19.5 22.5V26l2-1.3a7.4 7.4 0 0 1-2-2.2ZM4 28l6.3-3.9 1 1.8.5.9V12.1h7.6v3c1.3-2 3.6-3.2 6.4-3.2s4.7 1 6.2 2.9V9.6c0-1.7-1.5-3.2-3.2-3.2H16l-3.2-3.2H3.2A3.2 3.2 0 0 0 0 6.4v19.2c0 1.8 1.4 3.2 3.2 3.2h1.3l-.4-.9ZM29.5 20.2c1 .5 1.8 1 2.5 1.7v-3.3l-2.5 1.6Z" fill="#ff6"/><path d="M22.4 26.6c.7 1.3 1.7 2.2 3.5 2.2 1.5 0 2.5-.8 2.5-1.8 0-1.2-1-1.7-2.6-2.4l-1-.4c-2.6-1-4.3-2.5-4.3-5.4 0-2.7 2-4.8 5.3-4.8 2.3 0 4 .8 5.1 2.9l-2.8 1.8c-.6-1.1-1.3-1.5-2.3-1.5s-1.7.6-1.7 1.5c0 1 .6 1.5 2.2 2.2l.9.4c3 1.3 4.8 2.7 4.8 5.7 0 3.2-2.6 5-6 5s-5.5-1.6-6.6-3.7l3-1.7ZM9.6 27c.6 1 1 1.8 2.3 1.8s2-.5 2-2.3V14.2h3.6v12.4c0 3.7-2.2 5.4-5.4 5.4a5.6 5.6 0 0 1-5.5-3.3l3-1.8Z" fill="#ff6"/></svg>