<svg xmlns="http://www.w3.org/2000/svg" viewBox="0 0 32 32"><path d="M26.8 12.8a4 4 0 0 1 1.5 3h1.8c.7 0 1.3.2 1.9.5v-3.5h-5.2Z" fill="#66f"/><path d="M11 19.7c0-2.2 1.8-4 4-4h1.7c0-1.1.7-2.2 1.6-2.9H6.4L3.2 25.6v-16H32c0-1.8-1.4-3.2-3.2-3.2H16l-3.2-3.2H3.2A3.2 3.2 0 0 0 0 6.4v19.2c0 1.8 1.4 3.2 3.2 3.2H11v-9.1Z" fill="#66f"/><path d="M30.1 17.8h-3.8v-1.9c0-1-.8-1.9-1.9-1.9h-3.8c-1 0-1.9.8-1.9 1.9v1.9H15c-1 0-2 .8-2 1.9V30c0 1 .9 1.9 2 1.9H30c1 0 2-.8 2-1.9V19.7c0-1-1-2-2-2Zm-5.7 0h-3.8v-1.9h3.8v1.9Z" fill="#66f"/></svg>