<svg xmlns="http://www.w3.org/2000/svg" viewBox="0 0 32 32"><path d="M13.4 17c1.7-2.5 4.1-4.2 7-4.8 1.4-.3 3.8-.2 5.3.1 2.5.7 4.8 2.4 6.3 4.6V9.6c0-1.8-1.4-3.2-3.2-3.2H16l-3.2-3.2H3.2A3.2 3.2 0 0 0 0 6.4v19.2c0 1.8 1.4 3.2 3.2 3.2H13c-2-3.6-2-8.2.4-11.8Z" fill="#e2e2e4"/><path d="M21 14.1c-2.5.6-4.6 2-6 4A9.2 9.2 0 0 0 19.7 32h.6c.2-.1.2-.2.2-1.1v-1h-.7c-.8.1-1.5 0-1.8-.3-.2-.1-.4-.5-.6-.9a4 4 0 0 0-1.2-1.4c-.2-.2-.2-.2 0-.3.3-.3 1 0 1.4.5.8 1 1.1 1.2 1.5 1.3l1.3-.1.3-.4.2-.6.2-.3-.6-.1c-1.4-.3-2.2-.8-2.8-1.6-.5-.8-.7-1.5-.7-2.7 0-1.2.2-1.7.7-2.4.2-.2.2-.3.2-.5-.2-.3-.1-1.5 0-1.9 0-.3.2-.3.4-.3l1.7.5.6.4.5-.1c.7-.2 3-.2 3.6 0l.5.1.5-.3c.6-.4 1.4-.6 1.8-.6.3 0 .3 0 .4.4a4 4 0 0 1 0 1.7l.2.6c.8 1.1 1 3 .2 4.6-.5 1-1.6 1.8-3 2l-.6.2.2.4.3.5v3.6l.2.1h.6A9.2 9.2 0 0 0 21 14Z" fill="#e2e2e4"/></svg>