<svg xmlns="http://www.w3.org/2000/svg" viewBox="0 0 32 32"><path d="M28.8 6.4H16l-3.2-3.2H3.2A3.2 3.2 0 0 0 0 6.4v19.2c0 1.8 1.4 3.2 3.2 3.2h10.5A11 11 0 0 1 23 12c3.7 0 7 1.9 9 4.7V9.6c0-1.8-1.4-3.2-3.2-3.2Z" fill="#b466ff"/><path d="M23 14a9 9 0 1 0 0 18 9 9 0 0 0 0-18Zm4 7.5h2.6a7 7 0 0 1 0 3h-2.5a13.7 13.7 0 0 0 0-3Zm-1.3-4.7c1.2.5 2.3 1.4 3 2.5h-2c-.3-1-.6-1.8-1-2.5Zm-6.4 10 1 2.4a6.8 6.8 0 0 1-3-2.5h2Zm1-10c-.4.7-.7 1.6-1 2.5h-2c.7-1.1 1.8-2 3-2.5ZM25 23l-.1 1.5H21a12 12 0 0 1 0-3H25V23Zm-3.4-3.7c.3-1 .8-2 1.4-2.9.6.9 1 1.9 1.4 2.9h-2.8Zm2.8 7.4c-.3 1-.8 2-1.4 2.9-.6-1-1-1.9-1.4-2.9h2.8Zm4.3 0c-.7 1.1-1.8 2-3 2.5l1-2.5h2Zm-9.8-2.2h-2.5a7 7 0 0 1 0-3h2.5a13.7 13.7 0 0 0 0 3Z" fill="#b466ff"/></svg>