<svg xmlns="http://www.w3.org/2000/svg" viewBox="0 0 32 32"><path d="M2.5 26.9a9 9 0 0 1 2-6.8 10 10 0 0 1 6.3-4 8.3 8.3 0 0 1 8 2.7c1.3-1.3 3-2 5-2.5A8.7 8.7 0 0 1 32 19V9.6c0-1.8-1.4-3.2-3.2-3.2H16l-3.2-3.2H3.2A3.2 3.2 0 0 0 0 6.4v19.2c0 1.7 1.3 3 3 3.2l-.5-2Z" fill="#6ff"/><path d="M32 23.3c-.3-1.7-1.2-3-2.6-4a6.7 6.7 0 0 0-5.2-1 7.6 7.6 0 0 0-5.1 3c-.6.8-1 1.6-1.3 2.4h-5.9c-.2 0-.4.2-.4.3l-1 2c-.1.3 0 .6.4.6h3.5l-.5.6c-.8 1-1.9 1.4-3 1.3a2.9 2.9 0 0 1-2.5-3c0-1.4.6-2.6 1.8-3.4 1-.7 2.2-.8 3.3-.3l.9.7c.2.3.2.3.5.2l3-.8c.3 0 .4-.1.3-.3-.5-1-1.2-2-2.2-2.6a6.3 6.3 0 0 0-4.8-.8 8 8 0 0 0-5.1 3.1 7.2 7.2 0 0 0-1.6 5.4c.2 1.6 1 3 2.4 4 1.4 1.1 3 1.5 4.9 1.2a7.6 7.6 0 0 0 6-4.3c.2 1 .8 2 1.8 2.8 1.2 1.1 2.8 1.6 4.4 1.6l1.5-.1a8.4 8.4 0 0 0 4.4-2.4 7 7 0 0 0 2-6.1Zm-6 4.8c-1 .5-2 .6-3 .1a3 3 0 0 1-1.6-3.4 4 4 0 0 1 3.2-3.2 3 3 0 0 1 3.7 2.4v.6a4 4 0 0 1-2.3 3.5Z" fill="#6ff"/></svg>