<svg xmlns="http://www.w3.org/2000/svg" viewBox="0 0 32 32"><path d="M17 27.6 19.1 14c.1-.7.6-1.4 1.3-1.7a2.4 2.4 0 0 1 3.3 1l.7 1.4c1.2-.5 2.6 0 3.2 1.1l.4.8.2-.2c.4-.4.8-.6 1.3-.7 1-.2 2 .4 2.5 1.2V9.6c0-1.8-1.4-3.2-3.2-3.2H16l-3.2-3.2H3.2A3.2 3.2 0 0 0 0 6.4v19.2c0 1.8 1.4 3.2 3.2 3.2H16l1-1.1Z" fill="#ff6"/><path d="m27.5 20-1.7-3.2a.4.4 0 0 0-.6-.2l-.1.1-1 1.8-2.2-4.3a.4.4 0 0 0-.6-.2l-.2.4-2.2 14.1.2-.1 6.6-6.6v-.2l.1.1 1.7-1.7Z" fill="#ffb466"/><path d="M30.3 18c0-.2-.3-.4-.5-.3h-.2L18.9 28.6l6 3.3c.3.2.8.2 1.1 0l6-3.3L30.3 18Z" fill="#ff6"/></svg>