<svg xmlns="http://www.w3.org/2000/svg" viewBox="0 0 40.5 32"><path d="m17.3 23.8 1.8.4v-5.8l4.7-2v-.7a3.7 3.7 0 1 1 6 2.7l.3.5c.3.5 1 1 1.9 1V9.6c0-1.8-1.4-3.2-3.2-3.2H16l-3.2-3.2H3.2A3.2 3.2 0 0 0 0 6.4v19.2c0 1.8 1.4 3.2 3.2 3.2h13l1-5ZM30.6 25.5v2.7c.9-.6 1.4-1.5 1.4-2.6h-1.4Z" fill="#66f"/><path d="M27.4 17.4a1.7 1.7 0 0 0 0-3.4 1.7 1.7 0 0 0 0 3.4Zm-3 11.6.8-3.7L27 27v5h1.7v-6.3L26.9 24l.5-2.5c1 1.3 2.8 2.1 4.6 2.1V22c-1.6 0-3-.9-3.6-2l-.8-1.4c-.4-.5-.9-.8-1.5-.8h-.6L21 19.8v4h1.7v-3l1.5-.5L23 27l-4.1-.9-.4 1.7 5.9 1.2Z" fill="#66f"/></svg>