<svg xmlns="http://www.w3.org/2000/svg" viewBox="0 0 32 32"><path d="M12 25c0-.8.3-1.5.8-2a3 3 0 0 1-.8-2v-6a3 3 0 0 1 3-3h16c.3 0 .7 0 1 .2V9.6c0-1.8-1.4-3.2-3.2-3.2H16l-3.2-3.2H3.2A3.2 3.2 0 0 0 0 6.4v19.2c0 1.8 1.4 3.2 3.2 3.2H12V25Z" fill="#66f"/><path d="M31 24H15a1 1 0 0 0-1 1v6c0 .6.5 1 1 1h16c.6 0 1-.5 1-1v-6c0-.6-.5-1-1-1Zm-13 6c-1.1 0-2-.9-2-2s.9-2 2-2 2 .9 2 2-.9 2-2 2Zm13-16H15a1 1 0 0 0-1 1v6c0 .6.5 1 1 1h16c.6 0 1-.5 1-1v-6c0-.6-.5-1-1-1Zm-13 6c-1.1 0-2-.9-2-2s.9-2 2-2 2 .9 2 2-.9 2-2 2Z" fill="#66f"/></svg>