<svg xmlns="http://www.w3.org/2000/svg" xmlns:xlink="http://www.w3.org/1999/xlink" viewBox="0 0 32 32"><defs><linearGradient id="a" x1="-673.3" y1="-364.2" x2="-660.6" y2="-376.9" gradientTransform="matrix(1 0 0 -1 689 -346.9)" gradientUnits="userSpaceOnUse"><stop offset="0" stop-color="#9c9c9e"/><stop offset="1" stop-color="#fff"/></linearGradient><linearGradient id="b" x1="-660" y1="-376.3" x2="-672.7" y2="-363.6" xlink:href="#a"/></defs><path d="M12 23a11.1 11.1 0 0 1 11.8-11c3 .3 6.2 2 8.2 4.7V9.5c0-1.8-1.4-3.2-3.2-3.2H16l-3.2-3.2H3.2A3.2 3.2 0 0 0 0 6.4v19.2c0 1.8 1.4 3.2 3.2 3.2h10.4c-1-1.6-1.6-3.6-1.6-5.8Z" fill="#9c9c9e"/><path d="M23 27.4c4 5.4 7.9-1.5 7.9-5.7 0-5-5-7.7-8-7.7a9 9 0 0 0-9 9c0 5.8 5.1 9 9 9-.8-.1-3.8-.8-3.8-7.7 0-4.6 1.5-6.5 3.9-5.7 0 0 2.6 1 2.6 4.4S23 27.4 23 27.4Z" fill="url(#a)" fill-rule="evenodd"/><path d="M23 18.7c-2.6-1-5.9 1.2-5.9 5.6 0 7 5.3 7.7 6 7.7a9 9 0 0 0 8.9-9c0-5.8-5-9-9-9 1.1-.1 6 1.2 6 7.8 0 4.3-3.7 6.6-6 5.6 0 0-2.6-1-2.6-4.4s2.6-4.3 2.6-4.3Z" fill="url(#b)" fill-rule="evenodd"/><path d="M23 14Z"/></svg>