<svg xmlns="http://www.w3.org/2000/svg" viewBox="0 0 32 32"><path d="M27 12.8h.2c.4.2.7.4.9.7a2.2 2.2 0 0 1 1.7 1.2c.4 0 .7.2 1 .5.3.3.4.6.5 1 .3 0 .5.3.7.5v-3.9h-5Z" fill="#ffb466"/><path d="M13.5 28a2 2 0 0 1-.7-.8 2 2 0 0 1-.1-1l-.5-1a2 2 0 0 1 0-1.2l-.2-1c0-.4 0-.8.3-1a2 2 0 0 1-.1-1.2c0-.4.3-.7.5-1l.1-1c.2-.4.4-.7.7-.9a2.2 2.2 0 0 1 1.2-1.8c0-.3.2-.6.5-.9.3-.3.6-.5 1-.6.1-.3.3-.5.7-.8a2 2 0 0 1 1-.3c.2-.3.5-.5.9-.7h.1H6.4L3.2 25.6v-16H32c0-1.8-1.4-3.2-3.2-3.2H16l-3.2-3.2H3.2A3.2 3.2 0 0 0 0 6.4v19.2c0 1.8 1.4 3.2 3.2 3.2h10.5l-.2-.7Z" fill="#ffb466"/><path d="m31.9 22.8-.8-.5v-.2c1-.9 1-1-.3-1.3v-.3c.8-1 .7-1-.6-1.2V19c.5-1.2.5-1.3-.8-1.2l-.2-.1c.4-1.3.3-1.4-1-1l-.1-.2c0-1.3 0-1.3-1.2-.7l-.2-.1c-.1-1.3-.2-1.4-1.2-.5l-.2-.1c-.5-1.3-.5-1.3-1.4-.3h-.2c-.7-1.2-.7-1.2-1.4 0h-.2c-.9-1-1-1-1.3.3h-.3c-1-.8-1-.7-1.2.6H19c-1.2-.5-1.3-.5-1.2.8l-.1.2c-1.3-.4-1.4-.3-1 1l-.2.1c-1.3 0-1.3 0-.7 1.2l-.1.2c-1.3.1-1.4.2-.5 1.2l-.1.2c-1.3.5-1.3.5-.3 1.4v.2c-1.2.7-1.2.7 0 1.4v.2c-1 .9-1 1 .3 1.3v.3c-.8 1-.7 1 .6 1.2v.2c-.5 1.2-.5 1.3.8 1.2l.2.1c-.4 1.3-.3 1.4 1 1l.1.2c0 1.3 0 1.3 1.2.7l.2.1c.1 1.3.2 1.4 1.2.5l.3.1c.4 1.3.4 1.3 1.3.3h.2c.7 1.2.7 1.2 1.4 0h.2c.9 1 1 1 1.4-.3h.2c1 .8 1 .7 1.2-.6h.2c1.2.5 1.3.5 1.2-.8l.1-.2c1.3.4 1.4.3 1-1l.2-.1c1.3 0 1.3 0 .7-1.2l.1-.2c1.4-.1 1.4-.2.6-1.2v-.3c1.3-.4 1.3-.4.3-1.3v-.2c.2-.2 1.3-.5.8-1Zm-9 6.8c-1 0-1.9-.2-2.7-.6-.3-1.8-.3-1.8-2-1.5-.2-.2-.4-.3-.5-.6H23c.2.1 0-1.9 0-2h-1.5v-1.2h1.6c1.8 0 .8 3.2 2.4 3.3h2.7l-.5.5c-1.8-.3-1.8-.3-2 1.5-.8.4-1.8.6-2.8.6Zm-1.1-13c1.2 1.2 1.2 1.2 2.4 0 2 .3 3.6 1.5 4.6 3.2-.9 1.6-.9 1.6.7 2.3v1.4l-.7.1c.3 1.2-1 1.8-1.5.7-.2-.7-.6-1.3-1-1.6 2.3-1.1 1-4.2-1.2-4.2h-7c1-1 2.2-1.7 3.6-2Zm2.9 4.6c-.1 1-2.4.5-3.1.6v-1.2c.6.1 3.1-.3 3 .6Zm-7.2.4c.4-.2.3-.7 0-1h1.2v4.3h-2c-.3-.9-.4-1.9-.3-2.8l1-.5Z" fill="#ffb466"/></svg>