<svg xmlns="http://www.w3.org/2000/svg" viewBox="0 0 32 32"><path d="M16 21.8a4 4 0 0 1 2.5-3.8 6.5 6.5 0 0 1 3.4-5.2H6.4L3.2 25.6v-16H32c0-1.8-1.4-3.2-3.2-3.2H16l-3.2-3.2H3.2A3.2 3.2 0 0 0 0 6.4v19.2c0 1.8 1.4 3.2 3.2 3.2h12.9v-7Z" fill="#9c9c9e"/><path d="m31.5 18 .5.3v-5.5h-3.9c2 1 3.3 3 3.4 5.2ZM29.9 19.7h-.3v-1.2a4.5 4.5 0 0 0-9.1 0v1.2h-.3c-1.2 0-2.1 1-2.1 2V30c0 1.2.9 2.1 2 2.1H30c1.2 0 2.1-1 2.1-2.1v-8.1c0-1.2-1-2.1-2.1-2.1Zm-4.9 8a1.9 1.9 0 1 1 0-3.7 1.9 1.9 0 0 1 0 3.7Zm2-8h-4v-1.2a2 2 0 0 1 4 0v1.2Z" fill="#9c9c9e"/></svg>