<svg xmlns="http://www.w3.org/2000/svg" viewBox="0 0 32 32"><path d="M5.3 28 6.8 18a7.2 7.2 0 0 1 3.9-5.3H6.4L3.2 25.6v-16H32c0-1.8-1.4-3.2-3.2-3.2H16l-3.2-3.2H3.2A3.2 3.2 0 0 0 0 6.4v19.2c0 1.8 1.4 3.2 3.2 3.2h2.1V28ZM28.7 12.8c1.5.7 2.6 2 3.3 3.4v-3.4h-3.3Z" fill="#6f6"/><path d="m32 28.3-1.4-9.9a5.1 5.1 0 0 0-5.1-4.4H13.8a5.1 5.1 0 0 0-5 4.4l-1.5 9.9A3.3 3.3 0 0 0 13 31l2.9-2.8h7.7l2.9 2.8c.6.7 1.5 1 2.3 1 2 0 3.6-1.8 3.3-3.7Zm-13-6h-2.6V25H14v-2.5h-2.6v-2.6h2.6v-2.6h2.5v2.6H19v2.6Zm2.6-3.2c0-1 .8-1.9 2-1.9s1.8.9 1.8 2-.8 1.9-1.9 1.9-2-.9-2-2ZM26 25c-1 0-2-.8-2-1.9s1-2 2-2 2 1 2 2-1 2-2 2Z" fill="#6f6"/></svg>