<svg xmlns="http://www.w3.org/2000/svg" viewBox="0 0 32 32"><path d="M13.3 22.5a5.8 5.8 0 0 1 8.5-4.6l.3.2 2.3-2.3-.5-.4a9 9 0 0 0-13.8 7H6l5.6 5.6 5.5-5.5h-4ZM26.5 18 21 23.5h3.9a5.8 5.8 0 0 1-8.5 4.6L16 28l-2.3 2.3.6.4a9 9 0 0 0 13.8-7H32L26.5 18Z" fill="#b4ff66"/><path d="M4.5 20.5h3.9a11 11 0 0 1 6.6-7.7H6.4l-2 7.7ZM32 12.8h-8.9c.6.3 1.2.5 1.8 1l2.2 2 4.9 5v-8ZM29.8 25.5c-.3 1.2-.8 2.3-1.4 3.3h.4c1.7 0 3.2-1.4 3.2-3.2h-2.2Z" fill="#b4ff66"/><path d="m3.9 23-.7 2.6v-16H32c0-1.8-1.4-3.2-3.2-3.2H16l-3.2-3.2H3.2A3.2 3.2 0 0 0 0 6.4v19.2c0 1.8 1.4 3.2 3.2 3.2h6.5L3.9 23Z" fill="#b4ff66"/></svg>