<svg xmlns="http://www.w3.org/2000/svg" viewBox="0 0 32 32"><path d="M28.2 27.3ZM18 27.3ZM23.2 18.4ZM25.5 12.8a6.6 6.6 0 0 1 3 8.2c1.3.2 2.5.8 3.5 1.8v-10h-6.5Z" fill="#b466ff"/><path d="M10.7 27.4c0-3.2 2.4-6 5.6-6.4a6.6 6.6 0 0 1 3-8.2H6.3L3.2 25.6v-16H32c0-1.7-1.4-3.2-3.2-3.2H16l-3.2-3.2H3.2A3.2 3.2 0 0 0 0 6.4v19.2c0 1.8 1.4 3.2 3.2 3.2h7.7l-.2-1.4Z" fill="#b466ff"/><path d="M27.4 22.9a4.6 4.6 0 1 0 0 9 4.6 4.6 0 0 0 0-9Zm2.8 5c-.6 1.3-1.6 1.8-2.9 1.7-.3-.1-.7-.6-1-1.4-.2-1-.2-2.3.1-2.9.8-.5 2.1-.3 3 .4.4.2 1.2 1 .8 2.2ZM22.4 14a4.6 4.6 0 1 0 0 9.1 4.6 4.6 0 0 0 0-9.1Zm2.7 5c-.6 1.3-1.6 1.9-2.8 1.8-.4-.2-.8-.7-1-1.5-.3-1-.3-2.3 0-2.8.9-.5 2.1-.4 3 .3.4.3 1.2 1 .8 2.2ZM17.3 22.9a4.6 4.6 0 1 0 0 9 4.6 4.6 0 0 0 0-9Zm2.7 5c-.6 1.3-1.5 1.8-2.8 1.7-.4-.1-.7-.6-1-1.4-.3-1-.3-2.3 0-2.9.9-.5 2.2-.3 3 .4.4.2 1.2 1 .8 2.2Z" fill="#b466ff" fill-rule="evenodd"/></svg>