<svg xmlns="http://www.w3.org/2000/svg" viewBox="0 0 32 32"><path d="M12 27.6V22l-.8-1.3-.6-1 .6-1a15 15 0 0 1 2-2.7l1-1 1.3.6.5.3v-2.2l1-.5c1-.5 2-.8 3-1l1.5-.4.7 1.3.2.4.3-.4.7-1.3 1.4.3 3 1 1.1.6v2.2l.5-.3 1.3-.7 1 1.1.3.3V9.6c0-1.8-1.5-3.2-3.2-3.2H16l-3.2-3.2H3.2A3.2 3.2 0 0 0 0 6.4v19.2c0 1.8 1.4 3.2 3.2 3.2h8.9v-1.2Z" fill="#66b4ff"/><path d="m30.8 27-2.6.3v1.3c-.1.2-.3.4-.6.5l-3.3.2a.5.5 0 0 1-.5-.4l-.2-1.2h-2.4l-.1 1.2c0 .2-.3.4-.5.4l-3.4-.3a.5.5 0 0 1-.4-.4l-.1-1.2-2.7-.5v.7c0 3 3.8 4.4 8.4 4.4 4.7 0 8.4-1.4 8.4-4.4V27Z" fill="#66b4ff"/><path d="m30.3 17.3-1.7 1-.9-.7c-.3-.3-.6-.4-1-.6.2-.7.2-1.4.2-2.1-.8-.4-1.6-.7-2.5-.9l-1 1.8h-2l-.9-1.8c-.8.2-1.7.5-2.5.9 0 .7 0 1.4.2 2l-1 .7-.9.7-1.7-1a13 13 0 0 0-1.7 2.2l1.2 1.7v5-.1l3.1.3c.3 0 .5.2.5.5l.1 1.2 2.4.1.2-1c0-.3.2-.5.5-.5H24c.3 0 .5.2.5.4l.2 1.1 2.4-.1v-1.2c.1-.3.3-.5.5-.5l3.1-.3v.2V21.2c.5-.5.9-1 1.2-1.7a13 13 0 0 0-1.7-2.2ZM18 25.1a1.9 1.9 0 0 1 0-3.7 1.9 1.9 0 0 1 0 3.7Zm5-.3c0 .3-.3.5-.6.5s-.6-.2-.6-.5V23c0-.3.2-.5.6-.5s.6.2.6.5v1.8Zm3.7.3a1.9 1.9 0 0 1 0-3.7 1.9 1.9 0 0 1 0 3.7Z" fill="#66b4ff"/></svg>