<svg xmlns="http://www.w3.org/2000/svg" viewBox="0 0 32 32"><path d="m26.3 12.8.4.3.1.1c.5.5.8 1 1 1.8l1.2.6c1-.3 2-.1 2.9.4h.1v-3.2h-5.7Z" fill="#f6f"/><path d="m13.8 26.4.1-.9v-.1a4 4 0 0 1 1-1.7v-1.3a3.9 3.9 0 0 1-1-2.8c-.1-1.5.7-2.9 2-3.6 1-.5 2-.6 3-.4L20 15a4 4 0 0 1 1-1.8l.5-.4H6.4L3.2 25.6v-16H32c0-1.7-1.4-3.2-3.2-3.2H16l-3.2-3.2H3.2A3.2 3.2 0 0 0 0 6.4v19.2c0 1.8 1.4 3.2 3.2 3.2h11.4c-.5-.7-.8-1.6-.8-2.4Z" fill="#f6f"/><path d="M32 26a2 2 0 0 0-1-1.3s-.1 0-.2 0v-3.3c2.6-1.4.5-5.1-2-3.6l-2.9-1.6c.1-3-4.1-3-4 0L19 17.8c-2.4-1.5-4.6 2.2-2 3.6v3.3c-2.6 1.3-.4 5 2 3.5l2.9 1.6c-.1 3 4.2 3 4 0l2.9-1.6c1.5 1 3.6-.4 3.1-2.2Zm-4-6.6a2 2 0 0 0 1 2v1.8l-2.6-4.7 1.5.9Zm.2 6-.1.2h-8.4l-.1-.3 4.2-7.3h.3l4.2 7.3-.1.2Zm-7 2h5.5l-1.6.9a2 2 0 0 0-2.3 0l-1.6-1Zm-1.6-6.9c.3-.3.3-.7.3-1.1l1.6-1-2.7 4.7v-1.8c.3-.1.6-.4.8-.8Z" fill="#f6f"/></svg>