<svg xmlns="http://www.w3.org/2000/svg" viewBox="0 0 32 32"><path fill="#66b4ff" d="M11.4 23.6a5.4 5.4 0 1 1 8-7 5.4 5.4 0 1 1 8.1 7c1.6.3 3.3 1 4.5 2v-16c0-1.8-1.4-3.2-3.2-3.2H16l-3.2-3.2H3.2A3.2 3.2 0 0 0 0 6.4v19.2c0 1.8 1.4 3.2 3.2 3.2h1.7c.2-3 3.5-4.5 6.5-5.2Z"/><path fill="#66b4ff" d="M24 22.9c1.9 0 3.4-1.6 3.4-3.5S26 16 24 16a3.4 3.4 0 1 0 0 6.9Zm-9.1 0c1.9 0 3.4-1.6 3.4-3.5S16.8 16 14.9 16a3.4 3.4 0 1 0 0 6.9Zm0 2.3c-2.7 0-8 1.3-8 4V32h16v-2.9c0-2.6-5.4-4-8-4Zm9.1 0h-1.1c1.3 1 2.2 2.3 2.2 4V32H32v-2.9c0-2.6-5.3-4-8-4Z"/></svg>