<svg xmlns="http://www.w3.org/2000/svg" viewBox="0 0 32 32"><path d="M28.5 21v.1l.2.2.5 1.1c1-.3 2-.2 2.8.3v-3.8l-1.8 1-1.7 1.2ZM18.7 28.2l1.7-.7v-.2l-.1-.4c-.6-.2-1-.5-1.2-1l-.2-1.2c.1-.6.5-1.1 1.3-1.5l1.7-.6c-.5-1-.6-2.1.2-3.3.5-.8 1.3-1.4 2-2 1.3-1 1.5-1.3 1.4-2L25 12l3.5 1.7c.2.2 1 1.1 1 2.7L32 16V9.6c0-1.8-1.4-3.2-3.2-3.2H16l-3.2-3.2H3.2A3.2 3.2 0 0 0 0 6.4v19.2c0 1.8 1.4 3.2 3.2 3.2H18l.7-.6Z" fill="#66b4ff"/><path d="m29.4 18.6 1.8-1-2 .5c-.1 0-3.3.8-3.8 2.6-.3.8 0 1.6.7 2.5.2.2.2.4.2.6 0 .3-.2.5-.3.6l-.2-.4-.6-1c-.7-1-1.4-2 .5-3.4 1.4-1.1 2.2-2.2 2.2-3.3a2 2 0 0 0-.5-1.6l-.7-.7.2 1c.4 1.7-.7 2.6-1.9 3.5-.6.5-1.3 1-1.7 1.6-.9 1.4.5 2.8 2 4.3l.4.3-1.1 1h.4L26 25l.2.2V25s1.2-.7 1.4-1.6c0-.4 0-.8-.3-1.2V22c-.5-.5-.7-.8-.6-1.1.1-.6 1-1.3 2.6-2.3Z" fill="#ffb466"/><path d="m32 29.5-.5.5s-.4.5-2.3.8l-1 .2c1.7-.3 2.9-.7 3-1.2 0-.2.1-.5-.4-.8l-1.1-.3.8.8-.5.2c-1.8.6-7.3.7-9.1.1l.6-.2H23l-.8-.6c-.6-.4-2 0-2.7.5-.3.2-.5.5-.4.7 0 .4.6.6 1 .6l.6.1.7.6s.5.3 2.5.5h1.7c2.4 0 6.3-.2 6.4-1.8v-.7Z" fill="#66b4ff"/><path d="M22.6 25.9c-.7.3-1 .6-.9 1 .2.3.8.6 1.6.7-.7.2-1 .4-1 .8l.2.6c.4.3 1.5.6 2.7.6 1 0 2-.2 3-.6l.7-.3-.6-.2-.9-.5h-.2a9.3 9.3 0 0 1-3.6 0l.6-.3h.6c1.2 0 2.6-.2 3.8-.5h.2l-.8.7 1.1-.3c2.2-.6 2.7-1.5 2.8-2 .2-.6 0-1-.4-1.4a2 2 0 0 0-2-.4c-.2.1-.3.3-.3.4l-.3.3-2.3.3c-1.6.1-3.2.2-4 0h-.2a9 9 0 0 1 1.3-.4l1.8-.4-1.9-.1s-1.2-.1-2.8.6c-.4.2-.5.5-.4.7.2.4 1 .6 2.2.6Zm.5.4.5-.4h.3c1.7 0 3.4-.1 4.5-.4h.1c.3-.3.7-.4.7-.4l1.1-.5c.2 0 .3.2.4.4.2.5-.4 1.2-1.5 1.9l-.6-.2-.6-.4-.1-.1h-.2a13 13 0 0 1-4.7.2h.1Z" fill="#66b4ff"/></svg>