<svg xmlns="http://www.w3.org/2000/svg" viewBox="0 0 32 32"><path d="M30.6 15.4c.6.3 1 .8 1.4 1.4v-4h-6.9l5.5 2.6Z" fill="#66b4ff"/><path d="M12.2 27.2 12 27c-.5-.7-.7-1.7-.5-2.5l1.6-7c.2-.9.9-1.7 1.8-2.1l2.2-1 1.3-.7 1.9-.9H6.4L3.2 25.6v-16H32c0-1.8-1.4-3.2-3.2-3.2H16l-3.2-3.2H3.2A3.2 3.2 0 0 0 0 6.4v19.2c0 1.8 1.4 3.2 3.2 3.2h10.2l-1.2-1.6Z" fill="#66b4ff"/><path d="m20.5 20.4 1.2.9.1-1.5c-.4.1-.9.3-1.3.6ZM22.7 23.6l.3-.1v-.2l-.1-.2h-.3l-.2.2.1.2.2.1zM20.4 22.7l-1-.9-.3 1.4 1.4-.4ZM20.8 24.8l-1.3.2c.2.4.5.8 1 1.1l.5-1.4h-.2ZM22.7 25.6l-.7 1.3h1.4l-.7-1.4ZM23.6 19.8l.1 1.5h.1l1.1-.9c-.4-.2-.8-.5-1.3-.6ZM26 21.8l-1.1 1 1.4.4a3.5 3.5 0 0 0-.3-1.4Z" fill="#66b4ff"/><path d="m32 25-1.6-7c-.1-.3-.3-.6-.7-.8l-6.4-3a1.2 1.2 0 0 0-1.1 0l-6.5 3c-.3.2-.5.5-.6.8l-1.6 7 .1.9h.1l4.5 5.6c.2.3.6.5 1 .5h7.1c.4 0 .7-.2 1-.5l4.4-5.5c.3-.3.3-.7.3-1Zm-4.1.2h-.1c-.4 1.2-1.4 2-2.1 2.7 1.7 2-.7 3.2-1.2.6h-.1c-1 .3-2.2.3-3.3 0s-.2 0-.2 0l-.2.9-.3.3c-1.5 1-1.5-.9-.6-1.8v-.1a5.5 5.5 0 0 1-2-2.6h-.2c-2.3 1.2-3-1.4-.3-1.3v-.1c0-1.1.2-2.3.8-3.2v-.2c-2.4-1-.8-3 .8-1h.1c.8-.8 1.9-1.3 3-1.4v-.2c-.6-2.5 2-2.5 1.4 0v.2c1.2.1 2.2.6 3 1.4h.2c1.6-2.1 3.2 0 .8 1v.2c.5 1 .8 2 .7 3.1l.1.2c2.6-.1 2 2.4-.3 1.2Z" fill="#66b4ff"/><path d="M24.6 24.9 25 26l1-1.1-1.5-.3v.2Z" fill="#66b4ff"/></svg>