<svg xmlns="http://www.w3.org/2000/svg" viewBox="0 0 32 32"><path d="M26.7 12.8a4.6 4.6 0 0 1 2 4.9c1-.3 2.2-.4 3.3-.4v-4.5h-5.3Z" fill="#66f"/><path d="M14.2 17.3h2c1.2 0 2.3.1 3.4.4l-.1-1c0-1.6.8-3 2-3.9H6.4L3.2 25.6v-16H32c0-1.8-1.4-3.2-3.2-3.2H16l-3.2-3.2H3.2A3.2 3.2 0 0 0 0 6.4v19.2c0 1.8 1.4 3.2 3.2 3.2h11V17.3Z" fill="#66f"/><path d="M24.1 22.4c-2-2-4.8-3.1-7.9-3.1v9.6c3 0 5.9 1.2 8 3.1 2-2 4.8-3.1 7.8-3.1v-9.6c-3 0-5.8 1.1-7.9 3Zm0-3.1a2.6 2.6 0 1 0 0-5.3 2.6 2.6 0 0 0 0 5.3Z" fill="#66f"/></svg>