<svg xmlns="http://www.w3.org/2000/svg" viewBox="0 0 32 32"><path d="M12.3 31.4h.1"/><path d="m15 23.5-.2-2-.1-1a32 32 0 0 1 0-4.2c-.1-2.2.7-3.8 2.2-4.2.9-.2 2.4-.3 4 2l1.7 6 .2-.2h-.1l1.6-2c1-1.2 2.1-2.4 3.2-3.3l.7-.6c1-.8 2-1.5 3.3-1.3l.5.2V9.6c0-1.8-1.5-3.2-3.2-3.2H16l-3.2-3.2H3.2A3.2 3.2 0 0 0 0 6.4v19.2c0 1.8 1.4 3.2 3.2 3.2h13l-1.1-5.3ZM31.3 22.8l-.2.4-3.7 5.2.7.4h.7c1.8 0 3.2-1.4 3.2-3.2V22l-.7 1Z" fill="#f66"/><path d="M19.6 19.7v.1ZM28.6 21.1Z" fill="none"/><path d="m20.9 22-.5.7c.4-.6.4-1.2.3-1.9 0 .2-.3.6-.6.9.6-.8.4-2 0-2.7 0 .2-.3.5-.5.7L18.2 21l-1.5-.7c.2 2.4.6 4.9 1.6 7.1l1.7.8.4-.4c1.4-1.4 1.2-4 .5-5.7ZM19.8 28.1l.1.1" fill="#f66"/><path d="m19.4 15.8-.1-.4c-1.5-2.4-2.8-1.4-2.7 1v3.9l1.6.7 1.4-1.2c.7-1.3.2-2.7-.2-4ZM31.9 15.4c-.7-1.4-1.8-.5-3 .6-1.1 1-2.1 2.1-3 3.2l.6 1.9c2.7.7 4.5-1.5 5.3-3.7.4-1.3 0-2 0-2Z" fill="#ffb466"/><path d="m29.6 21-1 .1-2.2-.2-.6-1.6c-1.7 2.5-5.3 5.7-3.7 9H23c2.2 0 4-2.3 4.9-4.3l-.9.1c.8-.1 1.3-.6 1.7-1.2-.2.1-.7.3-1.1.3 1.1-.3 1.8-1.3 2.2-2.2h-.1Z" fill="#f66"/><path d="m19.7 29.6-.8.4h.9c-.3.2-.5.6-.6 1 .3-.4.6-.8.9-.9.2.7 0 1.3-.3 2h.1l.5-1 .3 1h.1c-.2-.8-.2-1.5.2-2 .4 0 .5.3.7.8 0-.3 0-.7-.3-1 1.3.3 2.4 0 3-.9-.3.3-.6.4-1.1.3 1-.3 1.5-.7 2-1.5-1 .8-3.3 1-3.4-.5-.3-.4 0-.8-.2-1.3l-.2.4c-.2.4-.2.9-.7 1.1-.8-.8-.5-.4-.3.2-.5 1-1.5 0-2.2-.3l.7 1.3c-2.2-.4.3.3.7 1Z" fill="#b466ff"/></svg>