<svg xmlns="http://www.w3.org/2000/svg" viewBox="0 0 32 32"><path d="M12 25h3.3c.2 0 .3-.1.3-.3s-.1-.3-.3-.3H12v-5.2c0-2.1 1.7-3.8 3.7-3.8h1.5a4.1 4.1 0 0 1 8.2 0h1.5c2 0 3.7 1.7 3.7 3.8v1.4c.5.1 1 .3 1.4.6V9.6c0-1.8-1.4-3.2-3.2-3.2H16l-3.2-3.2H3.2A3.2 3.2 0 0 0 0 6.4v19.2c0 1.8 1.4 3.2 3.2 3.2H12V25Z" fill="#ff66b4"/><path d="M29.9 22.6h-1.3V19c0-.9-.8-1.7-1.7-1.7h-3.5v-1.3a2.1 2.1 0 0 0-4.3 0v1.3h-3.4c-1 0-1.7.8-1.7 1.7v3.3h1.3a2.3 2.3 0 0 1 0 4.6H14v3.3c0 1 .8 1.7 1.7 1.7H19v-1.3a2.3 2.3 0 0 1 4.6 0V32h3.2c1 0 1.8-.8 1.8-1.7v-3.5h1.2a2.1 2.1 0 0 0 0-4.2Z" fill="#ff66b4"/></svg>