<svg xmlns="http://www.w3.org/2000/svg" viewBox="0 0 32 32"><path fill="#6f6" d="M32 16.1v-3.3h-5.6l5.6 3.3z"/><path d="M14 26.7v-7.4c0-1.3.7-2.5 1.8-3.1l5.8-3.4H6.4L3.2 25.6v-16H32c0-1.8-1.4-3.2-3.2-3.2H16l-3.2-3.2H3.2A3.2 3.2 0 0 0 0 6.4v19.2c0 1.8 1.4 3.2 3.2 3.2h11.5c-.5-.6-.7-1.3-.7-2.1Z" fill="#6f6"/><path d="m31.2 17.9-6.4-3.7c-.5-.3-1.1-.3-1.6 0l-6.4 3.7c-.5.3-.8.8-.8 1.4v7.4c0 .5.3 1 .8 1.4l1.7 1c.8.4 1.2.4 1.6.4 1.3 0 2.1-.9 2.1-2.3v-7.3c0-.2-.2-.5-.4-.5H21c-.3 0-.5.2-.5.5v7.3c0 .2-.1.4-.3.5h-.8l-1.7-1v-7.4l6.3-3.6 6.3 3.6v7.3L24 30.3l-1.6-1H22l-1 .4s-.3.1-.3.3c0 .3.2.4.3.5l2.2 1.3.8.2.8-.2 6.4-3.7c.5-.3.8-.9.8-1.4v-7.4c0-.6-.3-1.1-.8-1.4Z" fill="#6f6"/><path d="M26 25.3c-1.7 0-1.9-.4-2-1 0-.3-.2-.5-.4-.5h-.8c-.3 0-.5.2-.5.5 0 1 .5 2.6 3.6 2.6 2.2 0 3.5-.9 3.5-2.4 0-1.8-1.3-2.1-3.1-2.3-2-.3-2-.4-2-.6 0-.2 0-.6 1.4-.6s1.6.2 1.7 1c0 .1.3.3.5.3h.8a.5.5 0 0 0 .5-.5c-.2-1.7-1.3-2.5-3.5-2.5-2 0-3.2.9-3.2 2.3 0 1.8 1.6 2 3.1 2.2 2 .2 2 .5 2 .7 0 .2 0 .7-1.6.7Z" fill="#6f6"/></svg>