<svg xmlns="http://www.w3.org/2000/svg" viewBox="0 0 32 32"><path d="m3.3 28.8.2-.5L12 13.9c.3-.6.8-1 1.4-1.4 1.1-.7 2.6-.7 3.8 0 .6.3 1 .8 1.4 1.4l1.6 2.8a3.8 3.8 0 0 1 5.2-1.4c.6.4 1.1.8 1.4 1.4l5.3 9V9.6c0-1.8-1.5-3.2-3.2-3.2H16l-3.2-3.2H3.2A3.2 3.2 0 0 0 0 6.4v19.2c0 1.8 1.4 3.2 3.2 3.2Z" fill="#66ffb4"/><path d="M20.1 32h10a1.8 1.8 0 0 0 1.7-.9l.2-.9c0-.3 0-.6-.2-.9L25 17.7l-.6-.6a1.8 1.8 0 0 0-2.5.6l-1.7 3-3.4-5.8-.7-.7a1.8 1.8 0 0 0-2.5.7L5.3 29.3l-.3.9a1.8 1.8 0 0 0 1 1.6l.8.2h6.3c2.5 0 4.4-1 5.6-3.2l3.1-5.3 1.7-2.8 4.9 8.5h-6.6L20.2 32Zm-7-2.8H8.5l6.6-11.3 3.3 5.6-2.2 3.8c-.8 1.4-1.8 1.9-3.3 1.9Z" fill="#66ffb4"/></svg>