<svg xmlns="http://www.w3.org/2000/svg" viewBox="0 0 32 32"><path d="M13.7 27.8c-3.3-1.5-3.8-3.6-3.8-4.8s.5-3.3 3.8-4.8c-.4-3.5 1.2-5 2.2-5.6 1-.6 3.1-1.2 6 .9 3-2.1 5-1.5 6-1 1.1.7 2.7 2.2 2.3 5.7a9 9 0 0 1 1.8 1.1V9.6c0-1.7-1.4-3.2-3.2-3.2H16l-3.2-3.2H3.2A3.2 3.2 0 0 0 0 6.4v19.2c0 1.8 1.4 3.2 3.2 3.2h10.4v-1Z" fill="#6ff"/><path d="M22 21.3a1.7 1.7 0 1 0 0 3.4 1.7 1.7 0 0 0 0-3.4Z" fill="#6ff"/><path d="M32 23c0-1.4-1.5-2.7-4-3.5.6-2.6.2-4.5-1-5.2-1.3-.7-3 0-5 1.8-2-1.9-3.9-2.5-5-1.8-1.2.6-1.6 2.2-1.3 4.4l.2.8c-2.6.8-4 2-4 3.5s1.5 2.7 4 3.5l-.2.8c-.3 2.2.1 3.8 1.2 4.4 1.1.6 2.7.2 4.4-1.2l.7-.5.6.5c1.2 1 2.3 1.5 3.3 1.5.4 0 .8-.1 1-.3 1.2-.6 1.6-2.2 1.3-4.4l-.2-.8c2.6-.8 4-2 4-3.5Zm-1.5 0c0 .6-.9 1.4-3 2-.1-.6-.4-1.3-.7-2l.8-2c2 .6 3 1.4 3 2Zm-12-2.6-.3.5-.2.4-.3-.7.8-.2Zm-.3 4.7.3.5-.8-.2.3-.7.2.4Zm1.3-3.5.8-1.4h3.2a23.8 23.8 0 0 1 1.6 2.8 31.8 31.8 0 0 1-1.6 2.8h-3.2a31.1 31.1 0 0 1-1.6-2.8l.8-1.4Zm6.7-1-.3.7-.2-.5-.3-.4.8.2Zm-.8 5c0-.2.2-.3.3-.5l.2-.4.2.7-.7.2Zm1.1-6.4-2.2-.4-1.4-1.7c1.4-1.3 2.7-1.9 3.3-1.6.5.3.8 1.6.3 3.7Zm-4.6-.5h-.5l.5-.6.5.6H22Zm-2.4.1-2.2.4-.1-.8c-.3-1.5-.1-2.6.4-2.9.6-.3 2 .3 3.3 1.6-.5.5-1 1-1.4 1.7ZM16.3 21l.8 2a20 20 0 0 0-.8 2.2c-2-.7-3-1.5-3-2.1s1-1.4 3-2Zm.9 6.7.1-.8 2.2.4 1.4 1.7-.5.5c-1.2 1-2.2 1.3-2.8 1-.5-.3-.7-1.4-.4-2.8Zm5.2-.3-.5.6-.5-.6h1Zm2-.1 2.2-.4.1.8c.2 1.5 0 2.6-.5 2.9-.5.3-1.5-.1-2.7-1l-.5-.6 1.4-1.7Z" fill="#6ff"/></svg>