<svg xmlns="http://www.w3.org/2000/svg" viewBox="0 0 32 32"><path d="m29 4.8 1-.2-1 .2" fill="#c4c2c1"/><path d="m18.8 26.6.3-.5a42 42 0 0 0-4.3.9 3 3 0 0 1-3-3v-1.8C11.8 16.6 16.4 12 22 12h10V9.6c0-1.8-1.4-3.2-3.2-3.2H16l-3.2-3.2H3.2A3.2 3.2 0 0 0 0 6.4v19.2c0 1.8 1.4 3.2 3.2 3.2h15.3a4 4 0 0 1 .3-2.2Z" fill="#6ff"/><path d="M13.8 22.2V24a1 1 0 0 0 1.4 1c.7-.2 1.7-.5 2.7-.6 9-1.6 7.6-2.3 6.9-2.7-.7-.5-1.9-1.5 1.8-2.2 1.9-.4 3.9-.6 5.4-.7V14H22a8.2 8.2 0 0 0-8.2 8.2" fill="#6ff"/><path d="M31 19.9c-5.8 1.5 1.8 2.9-3.7 4.5-2.4.6-8.4 1.5-6.4 5.1 1 1.3 2.9 2.5 4.6 2.5 6-1.4 6.8-7 6.4-12.4l-1 .3Z" fill="#66f"/></svg>