<svg xmlns="http://www.w3.org/2000/svg" viewBox="0 0 32 32"><path fill="#ff66b4" d="M17 26c-2.4-2.2-2.4-4.5-2.1-5.8 1-4.5 7.1-7.9 12-8.2 2.1-.1 3.9.4 5.1 1.4V9.6c0-1.8-1.4-3.2-3.2-3.2H16l-3.2-3.2H3.2A3.2 3.2 0 0 0 0 6.4v19.2c0 1.8 1.4 3.2 3.2 3.2h12.3c.2-1 .8-2 1.5-2.8ZM31.6 22.4c-1 .8-2 1.5-3.1 2 1.2 1.1 1.7 2.7 1.4 4.2a3.2 3.2 0 0 0 2.1-3V22l-.4.4Z"/><path fill="#ff66b4" d="M31.9 16.5c-2.5-7.3-23.5 3-11.5 9.5-2.3 1-4.6 4.4-1.8 5.9 2.9.9 5.8-2.3 5.2-5 .9-.1 2.4.2 2.4 1.2-.2.6-.9.4-.8 1.2 0 .3.3.7 1 .6 1.5-.2 2.3-2.7.8-4-1-1.1-3.1-1.3-4.5-1-1-1-3.1-2-3-3.3.2-3 7.2-5.7 9.2-4.8.8.3.6.9.3 1.6-.3 1.2-4.4 3.4-6 2.1-.1-.1-.5-.6-1-.3-1 .7 0 2.3 1.4 2.6 3 1.2 9.4-2 8.3-6.3ZM21.5 28.1c-.2.6-1 1.4-1.5 1.4 0-.5 1-1.4 1.5-1.7v.3Z"/></svg>