<svg xmlns="http://www.w3.org/2000/svg" viewBox="0 0 32 32"><path d="M13.1 24.4h1.3a7 7 0 0 1-.8-.7l-.6-.6-5.8-5.8 1.4-1.4c2-2.1 5-3.1 7.9-2.9v-.2H6.4L3.2 25.6v-16H32c0-1.8-1.4-3.2-3.2-3.2H16l-3.2-3.2H3.2A3.2 3.2 0 0 0 0 6.4v19.2c0 1.8 1.4 3.2 3.2 3.2h10v-4.4Z" fill="#ff6"/><path d="M18.5 14v1.6a8 8 0 0 0-8.5 1.7l3.7 3.8H15v1.2c1 1 2.2 1.5 3.5 1.5v2.6H15v3.4c0 1.2 1 2.2 2.3 2.2h11.2c1.9 0 3.4-1.5 3.4-3.4V14H18.5Zm-1.3 7.2v-2.4h-2.5l-1.2-1.2a5.7 5.7 0 0 1 6 1.3l1.6 1.6-.2.2a3 3 0 0 1-3.6.5Zm12.6 7.4c0 .6-.6 1.1-1.2 1.1s-1-.5-1-1v-2.3h-6.8v-3c.6-.2 1.2-.6 1.7-1.1l.2-.2 3.2 3.2h1.6v-1.6l-6.8-6.8v-.7h9v12.4Z" fill="#ff6"/></svg>