<svg xmlns="http://www.w3.org/2000/svg" viewBox="0 0 32 32"><path fill="#66ffb4" d="M3.5 25.4 9 19.8l2 2.1 5.1-5.2a9 9 0 0 1 12.9 0l3 3V9.7c0-1.8-1.5-3.2-3.2-3.2H16l-3.2-3.2H3.2A3.2 3.2 0 0 0 0 6.4v19.2c0 1.8 1.4 3.2 3.2 3.2h3.7l-3.4-3.4ZM29.3 28.2l-2-2-2.6 2.6h4.1c1.8 0 3.2-1.5 3.2-3.2v-.1l-2.7 2.7Z"/><path fill="#f66" d="m9 22.7 4.4 4.5a3.3 3.3 0 0 0 4.7 0l3.5-3.6c.5-.5 1.4-.5 1.9 0l1.7 1.8-4.4 4.5a7 7 0 0 1-10 0l-4.5-4.5L9 22.7Z"/><path fill="#66ffb4" d="m27.6 18.1 4.4 4.5-2.7 2.7-4.4-4.5a3.3 3.3 0 0 0-4.7 0l-3.5 3.6c-.5.5-1.3.5-1.8 0L13 22.6l4.5-4.5a7 7 0 0 1 10 0Z"/></svg>