<svg xmlns="http://www.w3.org/2000/svg" viewBox="0 0 32 32"><path d="M12 16a4 4 0 0 1 4-4h14a4 4 0 0 1 2 .6v-3c0-1.8-1.4-3.2-3.2-3.2H16l-3.2-3.2H3.2A3.2 3.2 0 0 0 0 6.4v19.2c0 1.8 1.4 3.2 3.2 3.2H12V16Z" fill="#f6f"/><path d="M22 20h2v2h-2v-2Zm-2 2h2v2h-2v-2Zm4 0h2v2h-2v-2Zm2-2h2v2h-2v-2Zm-8 0h2v2h-2v-2Zm12-6H16a2 2 0 0 0-2 2v14c0 1.1.9 2 2 2h14a2 2 0 0 0 2-2V16a2 2 0 0 0-2-2ZM20 29h-2v-2h2v2Zm4 0h-2v-2h2v2Zm4 0h-2v-2h2v2Zm2-7h-2v2h2v2h-2v-2h-2v2h-2v-2h-2v2h-2v-2h-2v2h-2v-2h2v-2h-2v-6h14v6Z" fill="#f6f"/></svg>