<svg xmlns="http://www.w3.org/2000/svg" viewBox="0 0 32 32"><path fill="#ff66b4" d="M32 20.3v-7.5H21.6l4 10.2 4.6-4.5 1.8 1.8zM29.2 28.8A3.2 3.2 0 0 0 32 26l-2.8 2.8Z"/><path d="M16.5 28.2H10l6-15.4H6.4L3.2 25.6v-16H32c0-1.8-1.4-3.2-3.2-3.2H16l-3.2-3.2H3.2A3.2 3.2 0 0 0 0 6.4v19.2c0 1.8 1.4 3.2 3.2 3.2h14l-.7-.6Z" fill="#ff66b4"/><path d="M22 26.2h2.7L19.9 14h-2.2l-4.8 12.2h2.7l1-2.6H21l1 2.6ZM20 21h-2.4l1.2-3.2L20 21Z" fill="#ff66b4"/><path fill="#ff66b4" d="m30.2 21.3-7.1 7-3.2-3.2-1.8 1.9 5 5 8.9-8.9-1.8-1.8z"/></svg>