<svg xmlns="http://www.w3.org/2000/svg" viewBox="0 0 32 32"><path d="M32 16.7v-3.9h-4.9a11 11 0 0 1 4.9 3.9Z" fill="#9c9c9e"/><path d="M12 23a11 11 0 0 1 6.9-10.2H6.4L3.2 25.6v-16H32c0-1.8-1.4-3.2-3.2-3.2H16l-3.2-3.2H3.2A3.2 3.2 0 0 0 0 6.4v19.2c0 1.8 1.4 3.2 3.2 3.2h10.5A11 11 0 0 1 12 23Z" fill="#9c9c9e"/><path d="M23 14a9 9 0 1 0 0 18 9 9 0 0 0 0-18Zm0 16a7 7 0 1 1 0-14 7 7 0 0 1 0 14Z" fill="#9c9c9e"/><path d="M23 18a5 5 0 1 0 0 10 5 5 0 0 0 0-10Zm0 8a3 3 0 1 1 0-6 3 3 0 0 1 0 6Z" fill="#9c9c9e"/><circle cx="23" cy="23" r="1" fill="#9c9c9e"/></svg>