<svg xmlns="http://www.w3.org/2000/svg" viewBox="0 0 32 32"><path d="M8.2 27.4V15.8c.2-2 1.8-3.6 3.8-3.8h18.2c.6.1 1.3.3 1.8.7V9.6c0-1.8-1.4-3.2-3.2-3.2H16l-3.2-3.2H3.2A3.2 3.2 0 0 0 0 6.4v19.2c0 1.8 1.4 3.2 3.2 3.2h5v-1.4Z" fill="#66f"/><path fill="#66f" d="M19.7 27.4H27.4v-8.8H14.8v8.8h4.9zM10.2 17.8h2.6v2.6h-2.6zM10.2 21.7h2.6v2.6h-2.6zM10.2 16.3v.3h2.6V14h-.4c-1.2 0-2.2 1-2.2 2.3ZM17.8 29.4h2.6V32h-2.6zM10.2 25.5h2.6v2.6h-2.6zM10.2 29.7c0 1.3 1 2.3 2.2 2.3h.4v-2.6h-2.6v.3ZM29.4 25.5H32v2.6h-2.6zM17.8 14h2.6v2.6h-2.6zM14 29.4h2.6V32H14zM14 14h2.6v2.6H14zM29.4 32h.3c1.3 0 2.3-1 2.3-2.3v-.3h-2.6V32ZM29.4 21.7H32v2.6h-2.6zM21.7 29.4h2.6V32h-2.6zM25.5 29.4h2.6V32h-2.6zM21.7 14h2.6v2.6h-2.6zM29.4 17.8H32v2.6h-2.6zM29.7 14h-.3v2.6H32v-.3c0-1.3-1-2.3-2.3-2.3ZM25.5 14h2.6v2.6h-2.6z"/></svg>