<svg xmlns="http://www.w3.org/2000/svg" viewBox="0 0 32 32"><path fill="#ffb466" d="M12 23c0-6 5-11 11-11 3.7 0 7 1.7 9 4.3V9.6c0-1.8-1.4-3.2-3.2-3.2H16l-3.2-3.2H3.2A3.2 3.2 0 0 0 0 6.4v19.2c0 1.8 1.4 3.2 3.2 3.2h10.5A11 11 0 0 1 12 23Z"/><path fill="#ffb466" d="M23 14a9 9 0 0 0 0 18 2.3 2.3 0 0 0 1.7-3.8l-.1-.2c0-.3.1-.5.4-.5h1.6c3 0 5.4-2.4 5.4-5.4 0-4.5-4-8.1-9-8.1Zm5 9.9c-.8 0-1.4-.6-1.4-1.4s.6-1.3 1.3-1.3 1.4.6 1.4 1.3-.6 1.4-1.4 1.4Zm-2.8-3.6c-.7 0-1.3-.6-1.3-1.4s.6-1.3 1.4-1.3 1.3.6 1.3 1.3-.6 1.4-1.4 1.4Zm-8.5 2.2c0-.7.6-1.3 1.4-1.3s1.3.6 1.3 1.3-.6 1.4-1.3 1.4-1.4-.6-1.4-1.4Zm5.4-3.6c0 .8-.6 1.4-1.4 1.4s-1.3-.6-1.3-1.4.6-1.3 1.4-1.3 1.3.6 1.3 1.3Z"/></svg>