<svg xmlns="http://www.w3.org/2000/svg" viewBox="0 0 32 32"><path d="M20.6 26.5c-2.4.4-4.8-.3-6.5-2a7.3 7.3 0 0 1-1.5-8.4l1-2 .3-.4 2.2-1a7.4 7.4 0 0 1 8.4 1.4 7.3 7.3 0 0 1 2 6.5l5.5 5.5V9.6c0-1.8-1.4-3.2-3.2-3.2H16l-3.2-3.2H3.2A3.2 3.2 0 0 0 0 6.4v19.2c0 1.8 1.4 3.2 3.2 3.2h19.7l-2.3-2.3Z" fill="#9c9c9e"/><path d="m31.8 28.7-7.5-7.5c.7-1.9.3-4-1.2-5.6a5.4 5.4 0 0 0-6.1-1.1l3.5 3.5-2.5 2.5-3.6-3.5c-1 2-.6 4.4 1 6 1.6 1.6 3.9 2 5.8 1.3l7.4 7.4c.4.4.8.4 1.2 0l1.9-1.8c.4-.4.4-1 0-1.2Z" fill="#9c9c9e"/></svg>