<svg xmlns="http://www.w3.org/2000/svg" viewBox="0 0 32 32"><path d="m28 23.1 3.7 3.8c.2-.4.3-.8.3-1.3V21c-1 1.2-2.4 2-4 2.1ZM23.8 13.4l.3.4c.5-.5 1-.8 1.6-1H23l.8.6ZM30.2 13l.6.3 1.2 1.2v-1.7h-2.3l.5.2Z" fill="#66ffb4"/><path d="M15.1 25.5 10 20.3l6.9-6.9.8-.6H6.4L3.2 25.6v-16H32c0-1.8-1.4-3.2-3.2-3.2H16l-3.2-3.2H3.2A3.2 3.2 0 0 0 0 6.4v19.2c0 1.8 1.4 3.2 3.2 3.2h8.6l3.3-3.3ZM23.9 28.8l-1.1-1.2-1.2 1.2h2.3zM24 26.2l2.1-2.1 5.8 5.8-2 2z" fill="#66ffb4"/><path d="M27.7 21.2a3.4 3.4 0 0 0 3-5l-2.6 2.6-1.4-1.4 2.6-2.6a3.4 3.4 0 0 0-4.8 4.1l-1.8 1.8L21 19l.7-.7-1.4-1.4 2-2a3 3 0 0 0-4 0l-3.4 3.4 1.3 1.3h-2.7l-.7.7 3.4 3.5.7-.7v-2.8l1.4 1.4.7-.7 1.7 1.7-7.2 7.2 2 2 11.1-11c.4.2.7.3 1.1.3Z" fill="#66ffb4"/></svg>