<svg xmlns="http://www.w3.org/2000/svg" viewBox="0 0 32 32"><path d="M11 27.3c0-3.2 2.3-6 5.4-6.6h.1A6.7 6.7 0 0 1 23 12c3.7 0 6.7 3 6.7 6.7v2H29c1.2.3 2.3 1 3.1 1.8v-13c0-1.7-1.4-3.1-3.2-3.1H16l-3.2-3.2H3.2A3.2 3.2 0 0 0 0 6.4v19.2c0 1.8 1.4 3.2 3.2 3.2h8l-.1-1.5Z" fill="#66f"/><path d="M20.6 26.3h5.6c.3-.3.6-.5 1-.5.8 0 1.5.7 1.5 1.5s-.6 1.4-1.4 1.4c-.5 0-.8-.2-1.1-.5h-3.8a4.7 4.7 0 1 1-5.6-5.6v2a2.9 2.9 0 0 0 1 5.5c1.5 0 2.8-1.3 2.8-2.8v-1ZM23 16c1.6 0 2.8 1.3 2.8 2.8h2c0-2.6-2.2-4.7-4.8-4.7a4.7 4.7 0 0 0-3.3 8.2l-2.2 3.7c-.7 0-1.2.7-1.2 1.4 0 .8.7 1.4 1.5 1.4a1.4 1.4 0 0 0 1.3-1.9l3.2-5.3a2.8 2.8 0 0 1 .7-5.6Zm4.3 8.5c-.7 0-1.2.2-1.7.5l-2.9-4.8c-.6 0-1.1-.7-1.1-1.4s.6-1.4 1.4-1.4a1.4 1.4 0 0 1 1.4 1.9l2 3.4h.8a4.7 4.7 0 1 1-4 7h2.5c.4.4 1 .5 1.5.5 1.6 0 2.9-1.3 2.9-2.8s-1.3-2.9-2.9-2.9Z" fill="#66f"/></svg>