<svg xmlns="http://www.w3.org/2000/svg" viewBox="0 0 32 32"><path d="M31.5 20.1c0 .1-2 1.2-2 3.5a4 4 0 0 0 2.5 3.6s-.4 1.3-1.2 2.6c-.8 1-1.6 2.2-2.8 2.2s-1.6-.7-3-.7-1.9.7-3 .7-1.9-1-2.8-2.3a11 11 0 0 1-1.9-6c0-3.4 2.3-5.3 4.6-5.3 1.1 0 2.1.8 2.9.8s1.8-.9 3.2-.9c.5 0 2.3 0 3.5 1.8ZM27.3 16.9a4 4 0 0 0 1-2.5V14a4 4 0 0 0-3.7 3.8v.3h.3c.8 0 1.8-.5 2.4-1.2Z" fill="#e2e2e4"/><path d="M32 22.4c-.3.3-.4.7-.4 1.2s.2.9.4 1.2v-2.4ZM17.6 30.9c-.8-1.2-1.5-2.7-1.9-4.2H3.6l6.2-8 4.4 5.3 1.2-1.6c.5-3 2.3-4.9 4.5-5.7l.5-.7.4.5 1-.1 1 .1a6 6 0 0 1 5.4-4.5h1.6l.4 1.6v.8c0 .7-.1 1.5-.4 2.2a6 6 0 0 1 2.2 1.2V3.6c0-2-1.6-3.6-3.6-3.6H3.6C1.6 0 0 1.6 0 3.6v24.9C0 30.3 1.6 32 3.6 32h14.9l-.9-1.1Z" fill="#b4ff66"/></svg>