<svg xmlns="http://www.w3.org/2000/svg" viewBox="0 0 32 32"><path d="M15.8 6c.3 0 .6.1.7.4l2.4 8.3.1-.6a2.5 2.5 0 0 1 2.4-2.1h2.9l-3-9.6c-.2-.8-.3-1.3-.6-1.6L20 .1 18 0h-4.2c-.9 0-1.3 0-1.7.2-.4.1-.7.3-.9.6-.3.3-.4.8-.7 1.6L4.8 21.6c2.2-1.2 4.6-2 7-2.4l3.7-12.8c0-.1.2-.3.4-.3Z" fill="#e2e2e4" fill-rule="evenodd"/><path d="M30 23.9V22l1.8-1.5c.2 0 .2-.3.1-.5L30.1 17c0-.2-.3-.3-.5-.2l-2.3.8-1.5-.8-.3-2.4c0-.2-.2-.4-.5-.4h-3.6c-.2 0-.4.2-.4.4l-.3 2.4a7 7 0 0 0-1.6.8l-2.2-.9c-.2 0-.4 0-.6.3l-1.7 3c-.2.3-.1.5 0 .6l2 1.5-.1.9v.9l-1.8 1.5c-.2 0-.3.3-.2.5l1.8 3.1c.2.2.4.3.6.2l2.2-.8 1.6.8.3 2.4c0 .2.2.4.4.4H25c.3 0 .5-.2.5-.4l.3-2.4c.6-.2 1-.5 1.5-.8l2.3.9c.2 0 .4 0 .5-.3l1.8-3v-.6l-2-1.5Zm-6.7 2.5c-2 0-3.4-1.6-3.4-3.4s1.5-3.4 3.4-3.4 3.3 1.5 3.3 3.4-1.5 3.4-3.4 3.4Z" fill="#9c9c9e"/><path d="m13.4 23.8.3-.2c-1.5-.4-2.5-1-3-1.7l-.2 1.9s-.1 2.3 1.5 4c0-.6.2-1 .6-1.3-.3-1 0-2 .8-2.7ZM16 31.2l1.2.8a3 3 0 0 1-.2-.7l-1-.1Z" fill="#ffb466" fill-rule="evenodd"/></svg>