<svg xmlns="http://www.w3.org/2000/svg" viewBox="0 0 32 32"><path fill="#ff66b4" fill-rule="evenodd" d="m25.9 16.4-1.7 1.1.9 1.3 1.1 1.7 3-2-2-3-1.3.9zM5.1 16.8l3.6-2.4-1-1.4-2.1-3.2L1 12.9l3.1 4.6 1-.7zM17.1 6.8l.9 1.4L19.7 7l1.3-.8-3.1-4.6-3 2 2.2 3.2zM14.9 23.7l-3.6 2.4-1 .7 2 3 4.6-3.1-1.1-1.7-.9-1.3zM22.5 18.6l-6.1 4.1.9 1.3 5.1 7.6 6-4-5-7.6-.9-1.4zM10.2 13.3l6.1-4-.9-1.4L10.3.4l-6 4 5 7.6.9 1.3z"/><path fill="#ff66b4" d="m1.6 8 1.7-1.2 1.2 1.7-1.8 1.2zM7.8 28.4l1.7-1.1 1.2 1.7-1.8 1.2z"/><path fill="#ff66b4" fill-rule="evenodd" d="M26.8 3.6 0 21.5l5 7.6 27-18-5.2-7.5z"/></svg>