<svg xmlns="http://www.w3.org/2000/svg" viewBox="0 0 32 32"><path d="M32 20.1v-2.4l-.6 1.4c-.2.3-.1.5 0 .6.1.3.4.4.6.4ZM12 23c0-3.2 1.6-6.5 4.2-8.6 2.6-2.1 5.8-2.8 9-2.1l2 .4-.4 1.9c0 .6.1 1.1.6 1.5.2.2.8.6 1.5.3l3.1-1V9.6c0-1.8-1.4-3.2-3.2-3.2H16l-3.2-3.2H3.2A3.2 3.2 0 0 0 0 6.4v19.2c0 1.8 1.4 3.2 3.2 3.2h10.5c-1-1.7-1.7-3.7-1.7-5.8Z" fill="#66f"/><path d="M32 22.1c-1.7 0-3.4-1.8-2.5-3.8a3.6 3.6 0 0 1-4.6-4C18.5 12.8 14 18 14 23s4 9 9 9a9 9 0 0 0 9-9.9Zm-12.1 3.6c-.8 0-1.4-.6-1.4-1.3S19.1 23 20 23s1.3.6 1.3 1.4-.6 1.3-1.3 1.3Zm1.8-4.5c-.8 0-1.4-.6-1.4-1.3s.6-1.4 1.4-1.4 1.3.6 1.3 1.4-.6 1.3-1.3 1.3Zm4 5.4c-.5 0-.9-.4-.9-.9s.4-.9.9-.9.9.4.9.9-.4.9-.9.9Z" fill="#66f"/></svg>