<svg xmlns="http://www.w3.org/2000/svg" viewBox="0 0 32 32"><path d="M25.04 6.8c-4-2.16-5.99-3.81-7.77-4.37h-.01c-.19-.06-.38-.1-.57-.14l-.11-.02a3.79 3.79 0 0 0-.58-.05c-1.11 0-2.29.57-3.77 1.43-.52.3-1.05.64-1.62.98-1.07.66-2.29 1.4-3.66 2.15l-.27.17c-.41.23-.81.47-1.18.73l-.21.15c-.44.31-.85.63-1.24.98l-.04.04C1.51 11.07 0 13.98 0 17.18v.54l.03-.09C.33 24.37 7.36 29.77 16 29.77s16-5.64 16-12.59c0-4.31-2.74-8.12-6.96-10.38Zm-7.91-3.79c3.46 1.41 3.7 4.13 3.28 5.73a.15.15 0 0 1-.17.12c-.08 0-.14-.09-.13-.17a7.54 7.54 0 0 0-3.13-5.38v-.02c-.15-.11-.03-.36.15-.28Zm-1.17.14c2.61 2.74 1.74 5.28.74 6.56-.11.13-.31 0-.25-.16.66-2.06.4-4.31-.74-6.16v-.02c-.09-.16.11-.34.25-.22Zm-.98.21c.88 3.62-1.2 5.41-2.74 6.01-.16.06-.27-.16-.14-.27a7.46 7.46 0 0 0 2.57-5.7c0-.19.27-.24.31-.04ZM8.53 8.07a7.77 7.77 0 0 0 4.79-4.11c.08-.16.34-.1.3.08-.79 3.66-3.44 4.42-5.08 4.32-.17 0-.17-.24 0-.29Zm1.83 10.53a2.52 2.52 0 1 1 .01-5.03 2.52 2.52 0 0 1-.01 5.02Zm7.69 4.29c-.55.52-1.27.85-2.03.91a3.42 3.42 0 0 1-2.03-.91 4.31 4.31 0 0 1-1.42-2.31.55.55 0 0 1 .12-.46.65.65 0 0 1 .52-.23h5.64c.2 0 .39.08.52.23.11.13.15.3.11.46-.22.9-.71 1.71-1.42 2.31Zm3.63-4.29a2.5 2.5 0 0 1-2.5-2.52v-.02a2.52 2.52 0 1 1 2.5 2.54Z" fill="#e2e2e4"/><path d="M13.22 20.42c-.07 0-.09.03-.1.04.14.57.41 1.09.79 1.54a2.91 2.91 0 0 1 2.22-1.07c.8.01 1.57.33 2.15.88l.66-1.34s-.06-.05-.09-.04h-5.64Z" fill="#f66"/><path d="m14.25 22.34.12.12a2.8 2.8 0 0 0 1.67.8 2.87 2.87 0 0 0 1.67-.79l.28-.3a2.71 2.71 0 0 0-1.83-.77c-.75 0-1.45.36-1.91.95Z" fill="#f66"/><ellipse cx="22.96" cy="19.23" rx="2.67" ry="1.57" fill="#ff66b4"/><ellipse cx="9.12" cy="19.23" rx="2.67" ry="1.57" fill="#ff66b4"/></svg>