<svg xmlns="http://www.w3.org/2000/svg" viewBox="0 0 32 32"><path d="M32 15.7v-2.9h-4c1.7.6 3 1.6 4 2.9Z" fill="#66b4ff"/><path d="M12.8 23c0-4.8 2.5-8.6 6.3-10.2H6.4L3.2 25.6v-16H32c0-1.8-1.4-3.2-3.2-3.2H16l-3.2-3.2H3.2A3.2 3.2 0 0 0 0 6.4v19.2c0 1.8 1.4 3.2 3.2 3.2h11a12 12 0 0 1-1.4-5.8Z" fill="#66b4ff"/><path d="M31.9 21c-.5-4.4-3.4-7-8.6-7-4.8 0-8.5 3.4-8.5 9s3.4 9 9 9c4.5 0 7.7-2.7 8.2-7h-5.4c-.2 1.6-1 2.8-2.9 2.8-2.8 0-3.3-2.2-3.3-4.6 0-3.3 1.2-5 3.1-5 1.8 0 2.9 1 3 2.8H32Z" fill="#66b4ff"/></svg>