<svg xmlns="http://www.w3.org/2000/svg" viewBox="0 0 32 32"><path d="M16 29.9v-8.1a4 4 0 0 1 2.5-3.8 6.5 6.5 0 0 1 11.3-4V5.7L16 0 9.2 2.7l-.1 8.9-7 2.8v8.2l.4.2-.7.2v1.8L4 26l1.7-.9 1.9 1v1.7l2.3 1 1.9-.8 1.9.9v1.9L16 32l.5-.2a4 4 0 0 1-.4-1.9Z" fill="#ffb466"/><path fill="#e2e2e4" d="M11.7 5.5V3.8L18.6 1l1.6.7-6.9 2.7-.1 1.6-1.5-.5zM11.4 10.9V9.2l6.8-2.8 1.5.6-6.8 2.9v1.5l-1.5-.5zM19.2 4.3l1.4-.6 6.9 2.7-.1 1.6-1.4.5V7l-6.8-2.7zM12.9 18.4l-1.6-.5v-1.7l1.6.5v1.7zM6.5 24.6 5 23.9v-1.8l1.6.7-.1 1.8zM4.9 17.2v-1.7l4.2-1.7v1.3l-2.6 1v1.5l-1.6-.4z"/><path d="M29.9 19.7h-.3v-1.2a4.5 4.5 0 0 0-9.1 0v1.2h-.3c-1.2 0-2.1 1-2.1 2V30c0 1.2.9 2.1 2 2.1H30c1.2 0 2.1-1 2.1-2.1v-8.1c0-1.2-1-2.1-2.1-2.1Zm-4.9 8a1.9 1.9 0 1 1 0-3.7 1.9 1.9 0 0 1 0 3.7Zm2-8h-4v-1.2a2 2 0 0 1 4 0v1.2Z" fill="#9c9c9e"/></svg>