<svg xmlns="http://www.w3.org/2000/svg" viewBox="0 0 32 32"><path fill="#ffb466" d="m29.4 22.7.4-.2V5.6L16 0 9.2 2.7l-.1 8.9-6.9 2.8v8.2l.3.2-.7.2v1.8L4 26l1.7-.9 1.9.9v1.8l2.3 1.1 1.9-.9 1.9.9v1.9L16 32l14.2-7v-2l-.8-.3z"/><path fill="#e2e2e4" d="M11.7 5.5V3.8L18.6 1l1.6.7-6.9 2.7-.1 1.6-1.5-.5zM11.4 10.9V9.2l6.8-2.8 1.5.6-6.8 2.9v1.5l-1.5-.5zM19.2 4.3l1.4-.6 6.9 2.7-.1 1.6-1.4.5V7l-6.8-2.7zM26 15.8l1.6-.6v-1.8l-1.6.7v1.7zM19 20.6l1.6-.6v-1.8l-1.6.7v1.7zM12.9 18.4l-1.6-.5v-1.7l1.6.5v1.7zM6.5 24.6 5 23.9v-1.8l1.6.7-.1 1.8zM19 27.5l1.5-.6v-1.8l-1.5.6v1.8zM4.9 17.2v-1.7l4.2-1.7v1.3l-2.6 1v1.5l-1.6-.4z"/></svg>