<svg xmlns="http://www.w3.org/2000/svg" viewBox="0 0 32 32"><path d="M23.1 5.2c1-.7 1.7-1.7 2-2.9.5 1.6-.2 3-1 4.4a25 25 0 0 1 5.3-3.4c-.6 1.7-2.1 2.8-3.2 4 .3 1.8 2.3 1.7 3.7 1.5 1-.4 1.6-1.4 2-2.3.2 1.2 0 2.6-.6 3.7.4.9.8 1.9.7 3l-.8 1.2c-.3-.5-.7-1-1.2-1.4-.7-.2-1.4-.2-2.1-.1.6 1 1.6 1.6 2.7 1.7-1.6 2.4-4.6.4-6.9.5-.3 0-.8 0-.9.4 0 .9.3 1.7.2 2.5-.5 2.8-.9 5.6.4 8.2l-1.8-.3-.3.8c.3.5.8 1 1.3 1.3l-.3.6-.6.2-.5.8a5 5 0 0 0-2.5 0l-1.6-.6c.3-.8.5-1.7.5-2.6-.3-1.1-1.8-1.1-2.3-2.2-.7-1-1-2-1.2-3.2-1-.5-1.6-1.4-2.7-1.6 0 1.5-.7 3-1.7 4.1l.1 1.5 1.2 1c-1 .8-2.3 1-3.6 1l-.9-.9c.3-1 .4-2 .2-3l.5-1.4c-4.9 2.3-9.8-4.9-5.6-8.4-1.4 3.2 1.4 7.5 4.8 5-.8-3.3 1-7 4.5-7.7 1.8-.6 2.6-2.4 4-3.3l-.7-.8c.9-.3 1.5-1 1.6-2l4.4-1c.5.2 1 .5 1.6.6.4.4.6 1.3 1.3 1m-4.3 15.3c0 1 0 2 .7 2.5v-2.6l-.7.1Z" fill="#66b4ff"/></svg>