<svg xmlns="http://www.w3.org/2000/svg" viewBox="0 0 32 32"><path d="M23.2 13.5c-.7.6-1.7.6-2.3 0l-7.2-7.2L2.5 17.6l-1.1-1a4.8 4.8 0 0 1 0-6.8L8.2 3C10 1.1 13 1.1 15 3l8.2 8.2c.6.6.6 1.6 0 2.3Z" fill="#66b4ff"/><path d="M24.3 10a3.2 3.2 0 0 1 0 4.6c-2 2-4.2.4-4.5 0l-6-6-9 8.9c-.6.6-.6 1.6 0 2.3.7.6 1.7.6 2.3 0l7.4-7.4 1.1 1.1L8.2 21c-.6.6-.6 1.6 0 2.3s1.7.6 2.3 0l7.4-7.4 1.1 1.1-7.3 7.4c-.7.6-.7 1.6 0 2.3s1.6.6 2.2 0l7.4-7.4 1.1 1.1-7.3 7.4c-.7.6-.7 1.6 0 2.3s1.6.6 2.2 0l13.3-13.4c1.9-1.9 1.9-4.9 0-6.8l-6.8-6.7a4.8 4.8 0 0 0-6.7-.1l7.2 7.1Z" fill="#66b4ff"/></svg>