<svg xmlns="http://www.w3.org/2000/svg" viewBox="0 0 32 32"><path d="M3.3 14.5s2.9-4.2 8.6-4.7V8.3C5.5 8.8 0 14.2 0 14.2s3.1 9 12 10v-1.7c-6.5-.8-8.7-8-8.7-8Zm8.6 4.7v1.5c-4.8-.9-6.2-6-6.2-6s2.3-2.5 6.2-3v1.7C10 13 8.3 15 8.3 15s.9 3.3 3.6 4.2m0-13.8v2.9h.6c7.3-.3 12 6 12 6s-5.4 6.5-11.1 6.5h-1.5v1.7h1.3c5.2 0 9-2.6 12.8-5.8.6.5 3 1.6 3.6 2.2A31.9 31.9 0 0 1 11.9 24v2.5H32V5.4H12Zm0 6.3V9.8h.6c5.2-.2 8.7 4.5 8.7 4.5s-3.7 5.1-7.7 5.1c-.6 0-1 0-1.6-.2v-5.8c2 .2 2.5 1.1 3.7 3.2l2.7-2.3s-2-2.6-5.3-2.6h-1" fill="#6f6"/></svg>