<svg xmlns="http://www.w3.org/2000/svg" viewBox="0 0 32 32"><path d="m26.6 13.2 5.4 5.4v-5.8h-5.9l.5.4Z" fill="#66b4ff"/><path d="M13.2 26.7a4 4 0 0 1-1.2-2.9c0-.7.3-1.3.4-1.7l3.2-6.5 5.6-2.8H6.4L3.2 25.6v-16H32c0-1.8-1.4-3.2-3.2-3.2H16l-3.2-3.2H3.2A3.2 3.2 0 0 0 0 6.4v19.2c0 1.8 1.4 3.2 3.2 3.2h12.1l-2.1-2.1Z" fill="#66b4ff"/><path d="m28.2 17.7-3-3.1a2.1 2.1 0 0 0-2.4-.3L17 17l11.1.6ZM28.8 28.8l-5.2-6-6.5-5.7v9.6c0 1 .1 1.2.6 1.6l.4.5 3.2 3.2h7.5v-3.2Z" fill="#66b4ff"/><path d="m17.7 28.3-.5-9v-2.1l-.1-.1-2.9 5.9-.2.8c0 .5.2 1 .6 1.4l3 3.1.2.1h-.1Z" fill="#66f"/><path d="m32 21.5-.1-.2-3.7-3.6c-.4-.5-1.1-.6-1.8-.6h-9.3l11.7 11.7H32v-7.3Z" fill="#66f"/></svg>