<svg xmlns="http://www.w3.org/2000/svg" viewBox="0 0 32 32"><path d="M16 0a16 16 0 1 0 0 32 16 16 0 0 0 0-32Zm8.3 5.2.2-.8c.5.4 1 .7 1.3 1.1v.1c-.1.4-.5.6-1 .5a.8.8 0 0 1-.5-1Zm-3.6 1.5c.1-.4.6-.7 1-.6.4.1.6.6.5 1l-.8 3h-.1L20 9.3l.7-2.6Zm-2.8-3.5.4-1.4h.1l1.4.4-.4 1.4c0 .4-.5.6-.9.6a.8.8 0 0 1-.6-1Zm-5.8 2.4 1-3.7h.1l1.5-.2V2l-1 4c-.2.4-.6.6-1 .5a.8.8 0 0 1-.6-.9Zm-9 8.4a.8.8 0 0 1-1.4.3c.2-1.8.8-3.6 1.7-5.2h.2c.4.1.6.5.5 1l-1 4Zm3.2 2.2-1.1 4c-.1.4-.5.6-1 .5a.8.8 0 0 1-.5-1l1-3.9c.2-.4.6-.7 1-.6.4.2.7.6.6 1Zm.3-5.4a.8.8 0 0 1-.6-1S7 6 7 6c.2-.4.6-.6 1-.5.4 0 .7.5.6 1l-1 3.9c-.2.4-.6.6-1 .5Zm2 13.5c-.1.4-.5.6-1 .5a.8.8 0 0 1-.5-1s1-3.9 1-3.9l.1-.1 1.4.9-1 3.6Zm3.3 2.4-.8 2.8H11l-1.4-.6.7-2.6c.2-.4.6-.7 1-.5.4 0 .7.5.6.9Zm4.3-2v.1l-1 4c-.2.3-.6.6-1 .5a.8.8 0 0 1-.6-1l1-4c.2-.3.6-.6 1-.5.3.1.4.2.5.4l.1.5Zm10.4 1c-2.2 2.4-5.3 4.1-8.7 4.6l-.5-3.4-1.2-5.4.1-.4h-.7c-5.2.2-8.5-2-8.5-5.5 0-3.6 3.6-6.5 8.3-6.5a9 9 0 0 1 5.6 1.8 8 8 0 0 1 2.8 4s2.9 10.7 2.9 10.7l-.1.1Zm.8-15.6-1 4c-.2.3-.6.6-1 .5a.8.8 0 0 1-.6-1s1-4 1-4a.8.8 0 0 1 1.6.5Zm2.7 5.2-1 4c-.2.4-.6.6-1 .5s-.7-.5-.6-1l1-3.9c.2-.4.6-.7 1-.5.5 0 .7.5.6.9Z" fill="#e2e2e4"/><circle cx="16.4" cy="12.7" r="1" fill="#e2e2e4"/></svg>