<svg xmlns="http://www.w3.org/2000/svg" viewBox="0 0 32 32"><path d="M31.4 17.8h-1.2v-7.1c0-1-.8-1.8-1.8-1.8h-8.9V2.4c0-.4-.2-.6-.5-.6h-4.2c-.3 0-.6.3-.6.6v4.1c0 .4.3.6.6.6h3V9H3.6c-1 0-1.8.8-1.8 1.8v7H.6c-.3 0-.6.3-.6.7v5.9c0 .3.3.6.6.6h1.2v3.6c0 1 .8 1.7 1.8 1.7h24.9c1 0 1.7-.8 1.7-1.7v-3.6h1.2c.4 0 .6-.3.6-.6v-6c0-.3-.3-.5-.6-.5Zm-17.7 1.4L10 22.9c-.3.3-.7.3-1 0l-2.3-2.2a.7.7 0 0 1 0-1l.8-.8c.3-.3.7-.3 1 0l1 1 2.4-2.5c.3-.3.8-.3 1 0l.8.8c.3.2.3.7 0 1Zm11.9 0-3.8 3.7c-.2.3-.7.3-1 0l-2.2-2.2a.7.7 0 0 1 0-1l.7-.8c.3-.3.8-.3 1 0l1 1 2.5-2.5c.3-.3.7-.3 1 0l.8.8c.2.2.2.7 0 1Z" fill="#66f"/></svg>