<svg xmlns="http://www.w3.org/2000/svg" viewBox="0 0 32 32"><path d="m25 13.1 7 7v-7.3h-7.5l.4.3Z" fill="#9c9c9e"/><path d="M13.1 25a3.8 3.8 0 0 1-1.1-2.7v-6.5c0-1.2.6-2.3 1.5-3H6.4L3.2 25.6v-16H32c0-1.7-1.5-3.2-3.2-3.2H16l-3.2-3.2H3.2A3.2 3.2 0 0 0 0 6.4v19.2c0 1.8 1.4 3.2 3.2 3.2H17L13 24.9Z" fill="#9c9c9e"/><path d="m31.5 22.5-8-8c-.3-.3-.8-.5-1.3-.5h-6.4c-1 0-1.8.8-1.8 1.8v6.5c0 .4.2.9.5 1.2l8 8c.7.7 1.8.7 2.5 0l6.5-6.5c.7-.7.7-1.8 0-2.5ZM18 19.4c-.7 0-1.3-.6-1.3-1.4s.6-1.3 1.3-1.3 1.4.6 1.4 1.3-.6 1.4-1.4 1.4Z" fill="#9c9c9e"/></svg>