<svg xmlns="http://www.w3.org/2000/svg" viewBox="0 0 32 32"><path d="m6.7 14.6.8-.6c2.2-1.7 5-2 7-2 1.7 0 3.9.2 5.8 1.2 2-1 4.2-1.2 5.9-1.2 1.3 0 3.7.2 5.8 1.3V9.6c0-1.8-1.5-3.2-3.2-3.2H16l-3.2-3.2H3.2A3.2 3.2 0 0 0 0 6.4v19.2c0 1.8 1.4 3.2 3.2 3.2h3.5V14.6Z" fill="#66b4ff"/><path d="M26.2 14c-2 0-4.3.4-5.8 1.6-1.6-1.2-3.8-1.6-5.9-1.6s-4.3.4-5.8 1.6V31c0 .7.8.5.8.5 1.4-.7 3.5-1.2 5-1.2 2.1 0 4.3.4 5.9 1.6 1.4-.9 4-1.6 5.8-1.6s3.5.3 5 1.1c.4.3.8-.2.8-.4V15.6a10 10 0 0 0-5.8-1.6Zm3.7 14.8a12.3 12.3 0 0 0-9.5 1v-12c1.4-1 4-1.7 5.8-1.7 1.3 0 2.5.2 3.7.5v12.2Z" fill="#66b4ff"/></svg>