<svg xmlns="http://www.w3.org/2000/svg" viewBox="0 0 32 32"><path fill="#66b4ff" d="M14.2 4.5h3.3v3.1h-3.3zM14.2 8.2h3.3v3.1h-3.3zM13.6 8.2h-3.3v3.1h3.3V8.2zM9.7 8.2H6.4v3.1h3.3V8.2zM5.8 12H2.5v3.1h3.3V12zM9.7 12H6.4v3.1h3.3V12zM13.6 12h-3.3v3.1h3.3V12z"/><path d="M23 14a9 9 0 1 0 0 18 9 9 0 0 0 0-18Zm4.5 10.8h-9v-3.6h9v3.6Z" fill="#f66"/><path d="M17.5 13.5V12h-3.3v3h1.2a11 11 0 0 1 2.1-1.5ZM21.4 12.1V12h-3.3v1.2c1-.5 2.1-.9 3.3-1ZM31 15.5l.6-1 .3-.6.1-.2-.7-.4c-.7-.5-2.3-.7-3.6-.5a5 5 0 0 0-2-3.3L25 9l-.5.7a6 6 0 0 0-.8 2.4 11 11 0 0 1 7.3 3.4ZM12 23c0-2.8 1-5.3 2.8-7.3H0v.3C-.1 17.1-.1 21 2.3 24c1.9 2.3 4.7 3.4 8.3 3.4H13c-.7-1.4-1-3-1-4.5Z" fill="#66b4ff"/></svg>