<svg xmlns="http://www.w3.org/2000/svg" viewBox="0 0 32 32"><path d="M12.2 25.2 6.5 22a.5.5 0 0 1-.3-.5V10.8c0-.2.1-.4.3-.5L15.7 5h.6l9.2 5.3c.2.1.3.3.3.5v1.6a11 11 0 0 1 6.1 4.2c.1-.4.1-.9-.1-1.2L24.5 2.7c-.2-.4-.7-.7-1.2-.7H8.7c-.5 0-1 .3-1.2.7L.2 15.3c-.3.5-.3 1 0 1.5l7.3 12.6c.2.4.7.7 1.2.7h5.9a11 11 0 0 1-2.4-4.9Z" fill="#66f"/><path d="m22.1 12-5.8-3.3h-.5l-6.1 3.5c-.2 0-.3.2-.3.4v7c0 .2.1.4.3.5l2.4 1.4c.7-5 4.9-9 10-9.4Z" fill="#66f"/><path d="M23 14a9 9 0 1 0 0 18 9 9 0 0 0 0-18Zm4.5 10.8h-9v-3.6h9v3.6Z" fill="#f66"/></svg>