<svg xmlns="http://www.w3.org/2000/svg" viewBox="0 0 32 32"><path d="M1.3 20.5h7A11 11 0 0 1 25 13.7l2.2 2.2 4.9 4.8v-11c0-1.9-1.4-3.3-3.2-3.3H16l-3.2-3.2H3.2A3.2 3.2 0 0 0 0 6.4v19.2c0 1.8 1.4 3.2 3.2 3.2h6.5l-8.4-8.3ZM29.8 25.5c-.3 1.2-.8 2.3-1.4 3.3h.4c1.7 0 3.2-1.4 3.2-3.2h-2.2Z" fill="#b4ff66"/><path d="M13.3 22.5a5.8 5.8 0 0 1 8.5-4.6l.3.2 2.3-2.3-.5-.4a9 9 0 0 0-13.8 7H6l5.6 5.6 5.5-5.5h-4ZM26.5 18 21 23.5h3.9a5.8 5.8 0 0 1-8.5 4.6L16 28l-2.3 2.3.6.4a9 9 0 0 0 13.8-7H32L26.5 18Z" fill="#b4ff66"/></svg>