<svg xmlns="http://www.w3.org/2000/svg" viewBox="0 0 32 32"><path d="M17.8 7.8c.7.7.9 1.6.6 2.5l2 2c.3-.2.6-.3 1-.3H25c1.2 0 2.3.8 2.5 2l.2 1.4 1.3-.6c1.1-.3 2.3.1 2.9 1.2v.1a2 2 0 0 0-.5-1.5s-14-14-14-14a2 2 0 0 0-2.9 0l-2.9 2.9 3.7 3.7c.9-.3 1.8-.1 2.5.6ZM17.5 31.2c-1.1.3-2.4-.2-3-1.2l-1.7-3c-.6-1.2-.3-2.5.6-3.2l.3-.3v-1.1l-.2-.2c-1-.7-1.3-2-.7-3.1l1.8-3.1.5-.7v-3.5l-.8-.6c-.7-.7-.9-1.8-.5-2.6l-3.6-3.7-9.6 9.6a2 2 0 0 0 0 3l14 13.9a2 2 0 0 0 2.9 0l.4-.4-.4.2ZM19 14.1v-.3L17.2 12v2.8l.5.2 1.2.5.2-1.3Z" fill="#f66"/><path d="M30 23.9V22l1.8-1.5c.2 0 .2-.3.1-.5L30.1 17c0-.2-.3-.3-.5-.2l-2.3.8-1.5-.8-.3-2.4c0-.2-.2-.4-.5-.4h-3.6c-.2 0-.4.2-.4.4l-.3 2.4a7 7 0 0 0-1.6.8l-2.2-.9c-.2 0-.4 0-.6.3l-1.7 3c-.2.3-.1.5 0 .6l2 1.5-.1.9v.9l-1.8 1.5c-.2 0-.3.3-.2.5l1.8 3.1c.2.2.4.3.6.2l2.2-.8 1.6.8.3 2.4c0 .2.2.4.4.4H25c.3 0 .5-.2.5-.4l.3-2.4c.6-.2 1-.5 1.5-.8l2.3.9c.2 0 .4 0 .5-.3l1.8-3v-.6l-2-1.5Zm-6.7 2.5c-2 0-3.4-1.6-3.4-3.4s1.5-3.4 3.4-3.4 3.3 1.5 3.3 3.4-1.5 3.4-3.4 3.4Z" fill="#9c9c9e"/></svg>