<svg xmlns="http://www.w3.org/2000/svg" viewBox="0 0 32 32"><path d="M19.6 8.8c1.1-1.2-1-2.3-2-2.5.8.3 1.3 1 1 2 0 .2.6.2.4.6-.8-.6-.3-2-1.6-2.2-1 .1-1.2-1.2-2.2-1.4-4.5-2.5-6.6 4.9-9.9 5.4-4.1-1.2-1-8.2 2.7-7.9 1.7-.2 3.9 1 4.9-.6C7.4 0-.5.6 0 8.8-.4 11.6 5 18 6 13.4l-.7 1v-1l-.6.7-.3-1-.5.8-.2-1.2-.7.6.2-1-1 .2.5-.7h-.9l.5-.9-.8-.1.7-.8-1-.3L2 9l-.8-.7c.8-.4.5-.7 0-1.2.6-.4.7-1 .4-1.6 1-.5.3-1.6 1.3-1.8.2-.7.7-1 1.4-1 .3-.7.6-.8 1.4-.7.4-.4 1.2-.5 1.7-.2 1.2-.6 2.9-.2 3.8.7-2-1-1.7.3-2.8-.5-.7.7-2 0-2.4 1-.7-.1-1.1 0-1.3.7-.8.2-1 .5-1 1.3-1.2.7.2 1-1 2.2.5.6.5 1 0 1.5.8.2.5 1 .5 1.5 1.5.1.1 1.4 1.8 1 3.1 1.5 6.8-9.6 11.7-4l.2-.2c-1.2 3 3 2.5 2 4 1.5-.5-1.2-1.2.8-2.2ZM4.7 18Z" fill="#e2e2e4"/><path d="M31.8 6C30.5.8 24.7.4 20.8 2.6c1.1 1.8 4.3-.4 5.9 1 2.5 1 3.6 6.6.3 7-3-1.6-5-8.3-9.1-4.6 1.7.3 3.6 2.3 1.4 3.5-.4.2-.2.6.2.8.4.6-.6 1.3-1.1.7 1.8-.7-2.2-1-1.8-2.3-2.8 1-6 0-8.5 2.2-1.4 1-2.4 5.6-3.1 7.6-.4.3-1.2.5-1 1.3 3-1 7.7-2.2 7.9-7 .1 1.5-.8 3.6.4 5-.4-.4-.8-1.2-1-1.8-1.3 1.5-2 2.4-1.6 4.4.6.4.5 1 .6 1.6.6.4.8.2 1 1 .8 0 1 .6.5 1.1-.2.5.1.8.5.9 2.8.3.2 2.2 1.9 3-.5-1.2.4-1.3 1-2-.1.8 0 1.6 1 1-1 .9 0 2 1 2.2-.2.7 0 1.4.7 1.8-1.4-1.8 2.2-1.8 1.7-3.5.3.5.2 1.1 0 1.6l.6-.7v.4c1.5-.7.3-1.6.4-2.6-.5-.3-1 0-1.5.2-.5-.1-.8-.5-1.3-.4 1.1-.6 3.6-.7 5-.7 1-1.3-.3-2-1.6-1.7-4.8 1.5-4-1.7-6.6-3.6.8-.2 1.2.7 1.5 1.2.2-.6.1-.9.7-1.3-2 2.7 2.3 4.5 4.5 3.3 3.3.3 4.2-1.6.6-1.5 1.6-.5 3.7-1.6 3-3.6-1.8-1-1.9.6-3.2-2.5-4-4 .6-6.8-.9-4 .4 0 .7 0 .9.3-.7-.7-1.4.4-1.3 1 1.7-.1 2.7-1.2 1.1-2.5-.3-.9-.3-1.6-1.5-1.4 1.2-1-.3-2.3-1.2-2.8 3.8-1.7 5.6 4 8.5 5.4.2-.5.6-.6 1.2-.5 0-1.6 1 0 .7-2 .6-.4.4-.6 0-1.1.9-1.1-.4-1.2.2-2.4-.5-.3-.7-.9-.7-1.4-1.4-.2-.4-1.3-2-1-.3-1-1.4-.3-2-1-1 .9-.6-.4-2.4.6.7-.9 2.2-1.3 3.2-.8.5-.2 1.2 0 1.6.3.6-.2 1 0 1.2.7.6-.1 1 .3 1.2.8.9.2.4 1.4 1.1 1.8-.2.5-.1 1.1.4 1.5-.4.5-.7.8 0 1.2-.8.6-.7.7 0 1.3l-.8.3.5.8H30l.5 1h-.8l.4.5h-.9l.2.8-.6-.5-.2 1-.4-.7-.3 1-.5-.7v1l-.6-1c0 3.3 3.5.6 4.2-1.1 1-1.7 1.1-4 .8-5.8Zm-15.1 4.4c.2 0 .2-.2.3-.2.4 1.2 1 2.1 1.4 3.3-.8-.8-.8-1.7-1.3-2.6-.5 0-1-.3-1-.8l.6.3ZM13 11.8l-.5.2c.4-.3.2-1 .3-1.3-.4-.2-.7.5-.7.9-.6.3-1 .9-1.7 1 1-.4 1-1.6 2-2.2.6 0 1.2-.2 1.6-.8 0 .8-.1 1.7-1 2.2Zm1 7.5c0 .2 0 .3-.3.4-.2-.7.4-.6 1-.6l-.7.2Zm1.7-4.7c-3.1-.3-2.5-2.2.4-2 .1-1.6-1.6-.8-2.4-.4 1.6-1.3 2.7-.8 3 1.1-.1-.4-.6-.3-1-.2.5.2.3 1-.2 1-1 .3-.6-1.5-1.6-.5.5 1 2.5 1.4 2.8 0 0 .7-.4 1-1 1Zm.6.6c.5-.2.6-.6.7-1.1 0 .6 0 1-.7 1Zm3.7 4.7c-.2-.4-.7-1-1.2-1 .4.5-.4.7-.7.4-.5-2.1 2.8-.1 2.2 1.4l-.3-.8Zm.1-2.5c.8.4 1.3 1.3 2.2 1.4-1.6 0-4.6-3.7-5.4-.7.3-.6 1.3-.8 1.5 0-1-1-.9.9-1.4.5l.1.7c-2-2 1.5-3.6 3-1.9ZM28.2 9.7Z" fill="#e2e2e4"/><path d="M21.5 14.1h-.4c.4.7 1-.2 1.6-.1-1.4 1.5 4.6 4 5.3 2.3-2-.5-3-8.4-6.4-6.7.2.9 1.7 2 .5 3 .3.1.6.7.5 1-.3 0-.3-.4-.6-.4.1.4 0 .9-.5 1ZM21 13c-.6 0-.4.3-.1.7l.1-.6Z" fill="#e2e2e4"/><path d="M22.7 16.7c0-.8-.3-1.4-.5-2.2l-.7.2c.5.6.8 1.3 1.2 2Z" fill="#e2e2e4"/></svg>