<svg xmlns="http://www.w3.org/2000/svg" viewBox="0 0 32 32"><path d="M16.3 26.9v-6.4h1v-.6a8 8 0 0 1 14.7-4V9.6c0-1.8-1.4-3.2-3.2-3.2H16l-3.2-3.2H3.2A3.2 3.2 0 0 0 0 6.4v19.2c0 1.8 1.4 3.2 3.2 3.2h13.1v-2ZM31.6 23.6c-1.1 1.1-3.5 3-6.9 3.1v.5a9 9 0 0 0 6.5-1.4c-1.2 1.6-2.9 3.1-8 3.2H21c2.7.8 6.2 1.2 8.6.1a7.8 7.8 0 0 1-5.3 1.8c-1.5 0-2.5 0-3.8.6l-.9.5H32v-8.8l-.4.4Z" fill="#66b4ff"/><path d="m30.8 23 .2-.1v-3a6 6 0 0 0-11.8 0v2.6h-.9v5.4a6.3 6.3 0 0 1 5.1-3c1 .2 5-.1 7.4-1.8ZM28 20v2.6h-5.6v-2.6c0-3.7 5.5-3.7 5.6 0Z" fill="#66b4ff"/></svg>