<svg xmlns="http://www.w3.org/2000/svg" viewBox="0 0 32 32"><path d="m30 22.6-4.3.7-.2 2c0 .5-.4.8-.8.8l-5.5.4a.9.9 0 0 1-.9-.7L18 24h-4l-.3 2c0 .3-.4.6-.8.6l-5.6-.4a.8.8 0 0 1-.8-.7l-.1-2.1-4.4-.7v1.1c0 5 6.2 7.4 14 7.4s14-2.4 14-7.4v-1.1Z" fill="#66b4ff"/><path d="M29.1 6.5c-1 .5-2 1-2.8 1.6l-1.5-1.2-1.6-1c.2-1.2.3-2.3.3-3.5-1.4-.7-2.8-1.2-4.3-1.5l-1.5 3h-3.4c-.4-1-1-2-1.6-3-1.4.3-2.9.8-4.2 1.5 0 1.2.1 2.3.3 3.5l-1.6 1-1.5 1.2L3 6.4C1.8 7.6.9 8.8 0 10.2c.6 1 1.3 2 2 2.8s0 8.5 0 8.5v-.3l5.2.5c.4 0 .8.4.8.8l.1 2 4 .3.3-1.9c0-.4.4-.7.9-.7h5.4c.5 0 .8.3.9.8l.3 1.8 4-.3.1-2c0-.4.4-.8.8-.8l5.2-.5v.3V13a30 30 0 0 0 2-2.8c-.8-1.4-1.8-2.6-2.9-3.8Zm-20.5 13a3.1 3.1 0 1 1 0-6.2 3.1 3.1 0 0 1 0 6.3ZM17 19c0 .6-.4 1-1 1s-1-.4-1-1v-2.8c0-.5.4-1 1-1s1 .5 1 1v2.8Zm6.4.7a3.1 3.1 0 1 1 0-6.3 3.1 3.1 0 0 1 0 6.3Z" fill="#66b4ff"/></svg>