<svg xmlns="http://www.w3.org/2000/svg" viewBox="0 0 32 32"><path d="M8.8 19c0-.4 0-1 .2-1.4.8-1.8 2.8-2.4 5.4-3 4.4-.9 8.1 0 10.9 2.6 0 .2.2.3.3.4v-.5c0-.4 0-1 .5-1.6l.4-.5h.2l.1-.2c.5-.5 1-.7 1.7-.8 1.1 0 2.3.6 3 1.3l.5.4v-2.9H6.4L3.2 25.6v-16H32c0-1.8-1.4-3.2-3.2-3.2H16l-3.2-3.2H3.2A3.2 3.2 0 0 0 0 6.4v19.2c0 1.8 1.4 3.2 3.2 3.2h1c.1-3.2 1-7.6 4.6-9.8ZM26.4 28.7v.1h2.4c1.7 0 3.2-1.4 3.2-3.1a8.7 8.7 0 0 1-5.6 3Z" fill="#66ffb4"/><path d="M32 20c0-1.3-.8-2.5-1.8-3.3-.6-.5-1.6-1-1.9-.6l-.6.6-.1.3.1.2.4.3c1.3.6 2.7 4 0 4.1-.5.2-3-1.7-4.2-3-3-2.7-6.7-2.5-9.1-2-5.3 1.2-4.5 1.9-2.2 5.8 1.1 2.1 4-.4 4.5-1-1.6 2.4-3.6 3.3-5 1.3-.8-1-1.3-2.4-1.3-2.4C4.8 22.5 6.4 32 6.4 32h3c.7-3.4 3.4-3.5 4 0h2.2c1.6-5.8 5.2-1.8 6.3 0h2.5c0-3.7-.3-5 1.5-5.3 3-.3 5.4-2.3 6-5.3V20Zm-9.8 3.1c-1.6-.5-1-2-1-2s.4 0 1 .3c-.5.4-.3 1.5.6 1.4.6 0 .9-.6.7-1l1 .3c-.2.5-1.1 1.4-2.3 1Z" fill="#66ffb4"/></svg>