<svg xmlns="http://www.w3.org/2000/svg" viewBox="0 0 32 32"><path d="M30.2 21.3c-.2-1-.8-1.8-1.7-2.2l-.2-.2v-5.8c4.6-2.5.8-9-3.6-6.3l-5-2.9c0-5.2-7.5-5.2-7.3 0l-5.1 3C2.9 4-.9 10.6 3.7 13v5.8c-4.6 2.5-.8 9 3.6 6.3l5 3c0 5.2 7.6 5 7.3-.2l5-2.9c2.7 2 6.6-.6 5.6-3.8Zm-7-11.7c-.2 1.4.6 2.9 2 3.5v3.2L20.2 8l2.8 1.6Zm.4 10.8-.1.2h-15a3 3 0 0 0-.2-.4l7.4-13h.6l7.4 13-.1.2Zm-12.4 3.4h9.7l-2.8 1.6c-1.2-.8-3-.9-4.1 0l-2.8-1.6ZM8.4 11.6c.4-.6.5-1.3.5-2l2.8-1.7-4.9 8.4V13c.7-.3 1.2-.8 1.6-1.5Z" fill="#f6f"/></svg>