<svg xmlns="http://www.w3.org/2000/svg" viewBox="0 0 32 32"><path fill="#ffb466" d="M15.5 10.2V0L5.3 10v10.5l10.2-10.3z"/><path d="M30 23.9V22l1.8-1.5c.2 0 .2-.3.1-.5L30.1 17c0-.2-.3-.3-.5-.2l-2.3.8-1.5-.8-.3-2.4c0-.2-.2-.4-.5-.4h-3.6c-.2 0-.4.2-.4.4l-.3 2.4a7 7 0 0 0-1.6.8l-2.2-.9c-.2 0-.4 0-.6.3l-1.7 3c-.2.3-.1.5 0 .6l2 1.5-.1.9v.9l-1.8 1.5c-.2 0-.3.3-.2.5l1.8 3.1c.2.2.4.3.6.2l2.2-.8 1.6.8.3 2.4c0 .2.2.4.4.4H25c.3 0 .5-.2.5-.4l.3-2.4c.6-.2 1-.5 1.5-.8l2.3.9c.2 0 .4 0 .5-.3l1.8-3v-.6l-2-1.5Zm-6.7 2.5c-2 0-3.4-1.6-3.4-3.4s1.5-3.4 3.4-3.4 3.3 1.5 3.3 3.4-1.5 3.4-3.4 3.4Z" fill="#9c9c9e"/><path d="m12.8 19 1.8-3c.2-.4.5-.7 1-1v-3.8l-9.7 9.5h6.6c0-.5 0-1.1.3-1.6Z" fill="#e2e2e4"/><path d="M26.7 12.7v-1.6l-1 1c.4.1.8.3 1 .6ZM13.5 22.2l-.7-.7H5.2v10l8.8-8.9-.5-.4ZM17.6 14.9l1.2.5.2-1.3a2.5 2.5 0 0 1 2.4-2h3.2l1.5-1.5h-9.9v4.2h1.4Z" fill="#ffb466"/></svg>