<svg xmlns="http://www.w3.org/2000/svg" viewBox="0 0 32 32"><path d="m25.3 12.8.3.3c.4.4.7 1 .9 1.5a3.6 3.6 0 0 1 5 5c.1 0 .3 0 .5.2v-7h-6.8Z" fill="#ffb466"/><path d="M14.2 28.2c0-.6.1-1.2.4-1.7a3.6 3.6 0 0 1 0-7 3.6 3.6 0 0 1 5-5c0-.5.4-1 .8-1.4l.4-.3H6.3L3.2 25.6v-16H32c0-1.8-1.4-3.2-3.2-3.2H16l-3.2-3.2H3.2A3.2 3.2 0 0 0 0 6.4v19.2c0 1.8 1.4 3.2 3.2 3.2h11v-.6Z" fill="#ffb466"/><path d="M31.5 21.8c-.6-.6-1.7-.6-2.3 0h-3.4l2.4-2.4a1.7 1.7 0 1 0-1.6-1.6l-2.4 2.4v-3.4c.6-.6.6-1.7 0-2.3s-1.7-.7-2.4 0-.6 1.7 0 2.3v3.4l-2.4-2.4a1.7 1.7 0 1 0-1.6 1.6l2.4 2.4h-3.4c-.6-.6-1.7-.6-2.3 0-.7.7-.7 1.7 0 2.4s1.7.6 2.3 0h3.4l-2.4 2.3a1.7 1.7 0 1 0 1.6 1.7l2.4-2.4v3.4c-.6.6-.6 1.7 0 2.3s1.7.6 2.4 0 .6-1.7 0-2.3v-3.4l2.4 2.4a1.7 1.7 0 1 0 1.6-1.6l-2.4-2.4h3.4c.6.6 1.7.6 2.3 0s.7-1.7 0-2.4Z" fill="#ffb466"/></svg>