<svg xmlns="http://www.w3.org/2000/svg" viewBox="0 0 32 32"><path d="M20.1 10.9 21 13l-.2-2.3c-.2-2.5-.8-4-2-5-1-1-2.6-1.3-4.8-1l-1.8.1 1.7.5c3.8 1.2 4.8 2 6.2 5.6ZM15.5 18.2c.2-2.6-.2-4.3-1.2-5.4-1.3-1.3-3.4-1.4-5.8-1.3H6.2l2.6.8c2.4.7 5 1.5 6 6l.5 2.3.2-2.4Z" fill="#f66"/><path d="m17.7 14.8.6 2.1v-2.2c.2-2.6-.3-4.5-1.5-5.7-1.5-1.5-4-1.6-6.6-1.5l-2.9.1 2.9.6c4 .8 6.1 2 7.5 6.6Z" fill="#f66"/><path d="M25.6 9c-.8-3.1-4-6-10-9l-.4.6c5.3 3.5 7.9 6.2 8.2 8.7.4 2.3-1.3 4.3-3.3 6.5-3 3.4-6.7 7.5-4.2 14.7v.1l4.6 1.4-.6-.9c-3.8-5-.8-9 2.1-13 2.3-3 4.4-5.9 3.6-9.2Z" fill="#f66"/></svg>