<svg xmlns="http://www.w3.org/2000/svg" viewBox="0 0 32 32"><path d="M14 28.8c-2.5 0-5-.3-6.3-.7l1.2-.4.9-.1 1.8.1-1.5-1c-1-.7-3.7.1-4.8.8-.6.4-.9.9-.8 1.3.2.8 1.2 1 2 1.1l1 .2 1.1 1c.2 0 1 .6 4.6.8l3 .1h1.3c-1.7-.3-3-1.6-3.5-3.3ZM32 22.3v-2.5h-2v-1.7C30 17 29 16 28 16h-1.7V14h-2.5v2h-1.4v-2h-2.5v2h-1.7C17 16 16 17 16 18v1.7H14v2.5h2v1.4h-2v2.5h2v1.7C16 29 17 30 18 30h1.7V32h2.5v-2h1.4v2h2.5v-2h1.7C29 30 30 29 30 28v-1.7H32v-2.5h-2v-1.4h2Zm-4.4 5.3h-9.2v-9.2h9.2v9.2Z" fill="#66b4ff"/><path d="M26.2 19.8h-6.4v6.4h6.4v-6.4Zm-2.5 4h-1.4v-1.5h1.4v1.4Z" fill="#66b4ff"/><path d="M15 15.4c-1-1.6-1.6-3.1 1.4-5.5 2.5-2 3.8-3.9 3.9-5.8 0-1.7-.9-2.7-1-2.8L18 0l.5 1.8c.8 3-1.3 4.5-3.4 6.2-1.1.9-2.3 1.8-3 2.9-1.3 2 0 4 2 6l.9-1.5Z" fill="#ffb466"/><path d="M15.7 12c-.2.8-.2 1.7.2 2.6.6-.4 1.2-.6 2-.7v-2h.4c.4-.8 1.8-2 4.7-3.7L26 6.4l-3.5.9c-.2 0-5.9 1.5-6.9 4.7Z" fill="#ffb466"/></svg>