<svg xmlns="http://www.w3.org/2000/svg" viewBox="0 0 32 32"><path d="M12 25c0-.8.3-1.5.8-2a3 3 0 0 1-.8-2v-6a3 3 0 0 1 1.7-2.7V5H9v15.5c0 2.3-1 2.9-2.4 2.9s-2.3-1.1-3-2.4L0 23.2a7 7 0 0 0 6.8 4.2c2.2 0 4-.7 5.2-2V25ZM22.5 12a2 2 0 0 1-.5-1.4c0-1.1.8-2 2.2-2s2.1.6 3 2l3.5-2.3c-1.5-2.6-3.6-3.7-6.5-3.7-4.1 0-6.7 2.7-6.7 6l.1 1.4h5ZM31 24H15a1 1 0 0 0-1 1v6c0 .6.5 1 1 1h16c.6 0 1-.5 1-1v-6c0-.6-.5-1-1-1Zm-13 6c-1.1 0-2-.9-2-2s.9-2 2-2 2 .9 2 2-.9 2-2 2Zm13-16H15a1 1 0 0 0-1 1v6c0 .6.5 1 1 1h16c.6 0 1-.5 1-1v-6c0-.6-.5-1-1-1Zm-13 6c-1.1 0-2-.9-2-2s.9-2 2-2 2 .9 2 2-.9 2-2 2Z" fill="#ff6"/></svg>