<svg xmlns="http://www.w3.org/2000/svg" viewBox="0 0 32 32"><path d="M23 8.2 26 6.4l-3.5.9c-.2 0-5.9 1.5-6.9 4.7-.4 1.4 0 2.8 1.3 4.3.3.3.5.7.4 1 0 .6-.4 1-.6 1.2l-.3-.7-1-1.7c-1.4-1.9-2.5-3.5.9-6.2 2.5-2 3.8-3.9 3.9-5.8.1-1.7-.9-2.8-1-2.8L18 0l.5 1.8c.8 3-1.3 4.5-3.4 6.2-1.1.9-2.3 1.8-3 2.9-1.6 2.5.8 5 3.6 7.5l.6.6-2 1.7h.7l2-1 .5.3-.2-.5c.1 0 2.2-1.1 2.6-2.8.1-.7 0-1.5-.5-2.2l-.2-.2c-.7-1-1-1.5-1-2.2.3-.9 1.8-2.2 4.8-3.9Z" fill="#ffb466"/><g fill="#66b4ff"><path d="m27.4 27.5-.8 1s-.6.7-4.1 1.4l-1.9.3c3.2-.5 5.3-1.3 5.6-2.2 0-.3.1-.9-.9-1.3l-2-.6 1.5 1.4s0 .2-.8.4a44 44 0 0 1-16.3.2l1.2-.4.9-.1 1.8.1-1.5-1c-1-.7-3.7.1-4.8.8-.6.4-.9.9-.8 1.3.2.8 1.2 1 2 1.1l1 .2 1.1 1c.2 0 1 .6 4.6.8l3 .1c4.1 0 11-.4 11.3-3.3v-1.2Z"/><path d="M10.8 21.1c-1.2.5-1.7 1-1.5 1.7.2.7 1.3 1.2 2.8 1.4H12c-1 .4-1.6.8-1.7 1.3-.1.3-.1.7.4 1.1.8.7 2.6 1.1 4.8 1.1 1.7 0 3.7-.3 5.5-1l1.2-.5-1.2-.5c-.9-.3-1.5-.7-1.5-.7l-.2-.2H19a17 17 0 0 1-6.5.3l1.2-.7h1c2.2 0 4.6-.3 6.7-.9l.5-.1-1.6 1.3 2-.5c4-1 4.9-2.7 5.1-3.7.2-.9 0-1.8-.7-2.4-.9-.8-2.2-1-3.5-.6-.4.2-.7.6-.7.6l-.4.6a51.8 51.8 0 0 1-11.3.6h-.3l2.2-.7 3.3-.8-3.3-.2c-.1 0-2.3-.2-5 1.1-.9.5-.9 1-.8 1.2.3.7 1.8 1 4 1.2Zm.9.8.9-.7h.6c2.8 0 6-.3 8-.8h.1a8 8 0 0 1 1.3-.8l1.9-.8c.3.2.6.4.7.7.3 1-.7 2.2-2.7 3.4l-1.1-.4c-.6-.2-1-.6-1-.6l-.2-.2h-.3a23.5 23.5 0 0 1-8.4.3l.2-.1Z"/></g></svg>