<svg xmlns="http://www.w3.org/2000/svg" viewBox="0 0 32 32"><path d="M24.2 7.1a11.4 11.4 0 0 0-16.4 0 12 12 0 0 0 0 16.7 11.4 11.4 0 0 0 16.4 0 12 12 0 0 0 0-16.7Z" fill="#f66"/><path fill="#e2e2e4" d="M18.3 18.3h2.4v4h-2.4z"/><path d="m20.7 15.5-1.7.2-2.3.3h-2.9l-1.2-.3-1-1.1-.7-2.2-.2-.5-1-.3-.6-1-.4-1.4L9 8l1.1-.4 1 .4.4 1 .5-.1.2-.2-.2-1V6.4l.2-1.7v-1l.8-1.2 1.3-1 2.4-1 2.7.4 2.3 1.6 1 1.7.7 1.3.2 3-.5 2.7-1 2.4-.8 1.2" fill="#e2e2e4" fill-rule="evenodd"/><path d="m9.1 8 1.2-.4.8.4.5 1 .5-.1.1-.6-.2-1 .2-2.3-.2-1.3.8-.9 1.6-1.3L14 1 11.6 2l-1 .8-.5 1.2L9.2 5 9 6.5 9 8Z" fill="#9c9c9e" fill-rule="evenodd"/><path d="m13 19.7.6.7V23H13l-.1-2v-1M13 23.4h-1.8l.5.4 1.4.2" fill="#49728b" fill-rule="evenodd"/><path fill="#e2e2e4" fill-rule="evenodd" d="m14.9 16.1-1.1-.1-1.1-.3v.3l.2.4.3.2v.1l.4.2.5.1.8.4v-1.3z"/><path d="M16.7 4.5c-1.2-.3-1.8.5-2.1 1.3-.4-.1-.2-.6-.1-.8.2-.5 1-1.3 1.7-1.2.3 0 .7.3.5.7M22.3 5.8h.1l.8 1.6c-.2.5-1.7 1-1.6 0l1.1-.1c-.2-.5-.4-.9-.4-1.5M17.3 5.8c.2.5.3 1 .7 1.3.1.2.4.4.3.8l-.5.4c-.5.1-1.8 0-1.4-.7.5 0 1 .3 1.4 0-.2-.5-.7-1.3-.5-1.8M22.1 10.5c-.8.5-1.7 1.1-3.1 1a1 1 0 0 1-.1-1.2c.1.2 0 .7.4.8.8.1 1.7-.5 2.3-.7.3-.6 0-.8-.4-1.2-.6-.8-1.5-1.7-1.4-2.9.2-.2.2.3.3.4.3.8 1.2 1.8 1.8 2.4l.4.5-.2.9M11.1 10c-.3-.2-.3-.9-.6-1-.5 0-.4 1-.4 1.5-.3-.3-.3-1.2-.1-1.6-.3-.1-.4.1-.5.2.2-1.3 1.9-.6 1.6.8ZM22.7 11c-.4.8-1 1.6-2.1 1.6V12c.8-.1 1.4-.6 2-.9ZM17.2 11.5c.7.4 2 .4 3 .4l.1.8c-1.3 0-2.8-.3-3.1-1.2ZM17 12.2c.6 1.3 2.3 1.1 3.7 1.1 0 .2-.1.4-.3.4-.5.2-1.8.4-2.4 0-.4-.2-.7-.7-1-1 0-.1-.6-.5 0-.5" fill="#231f20" fill-rule="evenodd"/><path d="m19.7 22.6-.6.3h-2l-4 .2.1 2 .5 2.6.9 3.6 2 .5 3.2-.3v-.1h.2l.4-.3-.5-7-.2-1.5ZM27 24.4l-.9-2.5-.9-.2-1.4.5-1.3.6-.7-.1-.6.2.5 3.6 1.7-.5h.4l.4.5h1.3l.7-.2.7-1v-.6l.1-.3z" fill="#e2e2e4" fill-rule="evenodd"/><path d="m20.2 27.3.1 2.5 1-.2c0-.9-.3-1.6-.4-2.4l-.7.1Z" fill="#e2e2e4" fill-rule="evenodd"/><path d="m20 16-1 .7c-.6 0-1 0-1.4-.5.8.3 1.6-.2 2.3-.2" fill="#f0d6b7" fill-rule="evenodd"/><path d="M24.3 16.5v-.2l-1.8-1.6-.1-.1-.4-.4-.9 1H21v.6h1v2.5h-1v.2h-.4v.7h.1c0 1-.1 2.2-.4 3V22l-.1.8-.5.1.4 4.1 1.6-.2-.3-3.1v-.8h-.1l1.3-.1 1-2.6.6-2.9.1-.3.1-.4ZM19.3 22.9l.4-.3-3.7-1.7.7-1.3-1 .3-.4-.5-.5-2.2-.4-.1-.9-.3-.8-.8-1-1.1-.2.1-.1-.2-.6.4-.2.1-3.4 2.4.2.7.4 1 .7 3.3.3 3.3v.3l.2.1.1.2 4.3 1.5.3-.3-.5-3.6v-1.1l6.1-.2z" fill="#66b4ff" fill-rule="evenodd"/><path d="M19.5 22.1c-.5-1-.9-2.2-1.6-3-.6.4-1.4.8-1.6 1.6 1 .6 2.1 1.1 3.2 1.5Z" fill="#66b4ff" fill-rule="evenodd"/><path d="m20.2 27.3.1 2.5 1-.2c0-.9-.3-1.6-.4-2.4l-.7.1Zm-7-3.8c.3 2.7.7 5 1.5 7.4 1.8.5 3.9.6 5.4.1-.3-1.4-.2-3-.3-4.5-.1-1 0-2.2-.2-3.3-2-.4-4.6 0-6.4.3Zm6.8-.3.1 3.5c.5 0 .8 0 1.2-.2-.1-1.1-.1-2.4-.4-3.4l-.9.1Zm2.3-.1h-.7l.4 3 .8-.2c0-1-.1-2.1-.5-2.8Zm3.4 3.1c.7-.2 1.1-1 1-1.8-.2-.6-.4-1.6-.7-2-.1-.3-.6-.6-1-.4-.6.4-1.7.5-2.2 1 .3.8.3 1.8.4 2.8.8 0 1.7-.2 2.4 0l-1.4.4h1.5Zm-6.2-4c-.4-1.2-.9-2.3-1.6-3.2-.6.5-1.4.9-1.6 1.7 1 .6 2.1 1.1 3.2 1.5Zm1.2-3.5c0 1.1-.2 2.6-.5 3.4.7-.9 1.3-1.9 1.9-3-.3-.3-.8-.7-1.4-.4Zm-1.3-.5c-.3 0-.5.4-.9.2l-.2.3c.8.9 1.1 2.2 1.7 3.3.3-1 .3-2.2.4-3.3-.5 0-.7-.4-1-.5Zm-.9-1c0 .3 0 .4.2.7 1 .3.8-1.4-.2-.8Zm-1.1-.4-1.7-.7c-.7-.1-.6 1-.6 1.7 0 .5.3 1 .4 1.4 0 .2 0 .4.2.4l1.3-.4 1.3-1v-.4l-1-.2c.3-.1.7-.1 1-.3v-.2c-.5 0-.6-.2-1-.3ZM13 16c-.3.4 1 .9 1.5 1 0-.3.2-.5.1-.7-.5-.1-1.2 0-1.6-.3Zm4.6.2c.4.4.8.5 1.4.4l.9-.6c-.7 0-1.6.5-2.3.2Zm4.2 1.2c0-.4-.2-1.2-.4-1.4-.6-.3-1.5.7-2 .8l.2.4h.7c-.2 0-.5 0-.6.2v.6c.5.2 1.2.3 1.9.3l.2-.9Zm-9.4-1-1-1.1c-1.4.6-2.7 1.5-4 2.4 1.2 2.5 1.7 5.5 1.7 8.3 1.3.6 2.5 1.5 4.2 1.6l-.5-4c-.4-.3-1 0-1.5-.1 0-.5.7-.3.7-.6 0-.2-.3-.3-.2-.7l.8.5c.4-.7 0-1.9 0-2.5 0 0 .1-.6.4-.5.2 0 0 1.3 0 1.9l.1 1.3c1.7-.3 3.5-.4 5.3-.5l-1.4-.6c-.3-.2-1.2-.5-1.3-.8-.1-.4.4-.6.5-1-1 .5-1-.5-1.3-1.1l-.3-1.4-2.2-1.1Zm8.6-1c1.2-.6 1.4 2.2 1 3 0 .3.3.4.4.7l-2.1 3.4c.5-.3 1.2 0 1.8-.3.2 0 .4-.6.6-1 .4-1 .9-2.4 1-3.5.1-.2.3-.7.2-1 0-.3-.5-.6-.8-.8L22 14.7l-.8.7ZM9.8 5c-.6.6-.5 1.8-.4 2.6 1-.6 2.4 0 2.4 1.2.5 0 .1-.6 0-1-.2-1.3.5-2.7.1-3.8a3 3 0 0 0-2.1 1Zm4-3.6c-1.3.4-2.9 1.3-3.4 2.4l1-.2h.6c.3-.1.6-.9.9-1.2l.8-.6c.1-.1.3-.1.3-.3l-.2-.1Zm6.7.3C19 1 16.9.3 15.5 1c-1.1.6-2.7 1.5-3.2 2.7.5 1.2-.2 2.2-.2 3.4l.3 1.8c-.1.3-.7.4-1 .3-.1-.6-.3-1.2-1-1.3-.8-.1-1.5.6-1.5 1.4 0 .9.7 2.3 1.7 2.2.4 0 .5-.4 1-.4.2.5-.4.6-.5 1l.1.5c.2.8.6 1.8 1 2.4.6.7 1.6.8 2.7 1 .2-.5 1-.5 1.4-.4-.6-.2-1.1-.7-1.6-1.2-.5-.6-1-1.2-1-1.9 1 1.3 1.7 2.5 3.5 3 1.3.5 2.8-.2 3.8-.9.4-.2.6-.7 1-1.1a10 10 0 0 0 1.5-6c0-1 0-1.9-.4-2.5-.3-.7-1.4-1.2-2-.6-.1-.7.5-1 1.3-.8-.6-.7-1.1-1.5-1.9-2Zm2.4 20.5c1-.5 3-1.4 3.7 0l.6 2c.2.7-.2 2.2-1 2.5-.6.2-1.4.2-2.2 0l-.3-.3c-.6 0-1.1 0-1.6.2 0 .5-.2.5-.5.6-.2.8.4 1.9.2 2.6 0 .5-.7.6-1.2.7v.8c0 .4-.5.6-1 .7-1.5.1-3.8.2-5.2-.3l-1-3.3c-1.5.1-2.6-.6-3.7-1.1-.4-.2-1-.3-1-.6-.2-.3-.1-.9-.2-1.4 0-1.3-.1-2.6-.5-4-.1-.6-.4-1.1-.6-1.7l-.6-1.8c0-.8.7-.8 1.2-1.2l2.1-1.3c.3-.1 1-.5 1-.7.2-.3-.2-.8-.3-1a3 3 0 0 1-.3-1.2c-.7-.1-1.2-.5-1.6-1-.5-.7-.8-2.1-.4-3.2l.3-.4-.1-.9c0-1.3.2-2.5 1.1-3 .4-1.5 1.8-2 3-2.7l1.6-.7c2-.7 5-.6 6.5.7.7.5 1.8 1.6 2.2 2.4 1 2 1 5.6.3 8.1l-.5 1.3c-.1.3-.6.8-.5 1.1 0 .3 1 1 1.2 1.1.3.4 1 .8 1 1.3A60.3 60.3 0 0 1 23 22" fill-rule="evenodd"/></svg>