<svg xmlns="http://www.w3.org/2000/svg" viewBox="0 0 32 32"><path d="M31 3c0-.3.4-.5.6-.6l.4-1.2-.4-.3C26.8 4.2 6 7.3.8 4.2l.4 1.6-1.2 1c.2 1 1.6.6 2.3.8l.2.7.9.1.4 1.4c.7.1 3 .3 4 .1v.6H8c.3.5-.8 1.2-1 1.4h.2c-.7.2-2.8 0-3.2 0-.3 0-.3.5-.3.7H4v1.5l4-.2-.3 5.4-3-.2v-1h.7v-.5c.4 0 .8-.2 1-.6l-2.9-.7-2.2.7c.1 0 .6.6.8.5v.5h.7v1l-.8.2c0 .1.2.6.4.7v1h.4v4.5h-.7v1.7l.5.1v3.1H5l-.5-3h2.7c0 .7-.3 2-.5 2.8H10v-3l1.8-.2-.1 3h2.1v-3h.2v-1.8H14c-.3-1.1-.3-3-.2-4h.4v-1.6h-.5v-1l.6-.1v-.5l1-.5-2.5-.5-2.3.5.4.6h.4v.6h.6v.8h-2c0-1.6 0-4 .2-5.6l10.1-.5c.1 1.6-.2 4.1-.2 5.7h-1.8v-1.4h.8V17h.4V17c.2 0 .5-.5.6-.6l-2.7-.6-2.6.6.3.6h.5v.6h.7v1.2h-.7v.6h.2v1.4h.5v4.8l-.7.2v.5h.2v1.3h.4l-.2 3.4h2.9l-.3-3.4H20v3c1 .2 2.7.3 3.7 0-.4-1-.3-2.3-.5-3.2h1.6v3c.7 0 1.7.1 2.3-.2a35 35 0 0 1-.3-3h.4V25.3H27V21h.2v-1.2h.2v-.6h-.5V18h.8v-.5h.3v-.2l.7-.4-2.7-.6-2.5.6.3.5h.3v.1h.3v.6h.7v1H23c-.2-1.9-1-4.2-.6-6l5-.4.1-1.8h.3c.3-1.5-3.2 0-4.4-.2v-.2l-1-.6v-.4h.3v-.9c1.1 0 4.1-.5 5-.7.3-1 .3-1.6 1.6-1.8.1-.6 2.5-.6 2.8-1.2l-1-2Zm-8 18h2v4.4l-1.6.1-.3-4.4Zm-3 4.7h-1.7v-4.8l1.6.1c0 1.2 0 3.5.2 4.7Zm.3-16c.2.7-1.2.8-1.2 1.5h-2.5s0-.3.2-.4l.2-1.5 2.8-.3v.7h.5Zm-13 15.5-2.7.1V21l2.9.2c-.2 1.1-.5 2.9-.1 4Zm4.5 0H10l-.1-4h2v4Zm1.5-13.6-2.5.1v-.2l-.8-.4v-.5h.3v-.8l2.6-.2c-.1.2 0 .5.2.7 0 .2 0 .6.2.8v.5Z" fill="#f66"/></svg>