<svg xmlns="http://www.w3.org/2000/svg" viewBox="0 0 32 32"><path d="M25.4 12.8a6.4 6.4 0 0 1 2.6 8.4c1.6.1 3 .8 4 1.8V12.8h-6.6Z" fill="#b466ff"/><path d="M10.6 27.6c0-3.4 2.6-6.2 6-6.4-.5-.8-.7-1.8-.7-2.8 0-2.4 1.3-4.5 3.3-5.6H6.4L3.2 25.6v-16H32c0-1.7-1.4-3.2-3.2-3.2H16l-3.2-3.2H3.2A3.2 3.2 0 0 0 0 6.4v19.2c0 1.8 1.4 3.2 3.2 3.2h7.5l-.1-1.2Z" fill="#b466ff"/><circle cx="17" cy="27.6" r="4.4" fill="#f66"/><circle cx="27.6" cy="27.6" r="4.4" fill="#b466ff"/><circle cx="22.3" cy="18.4" r="4.4" fill="#6f6"/></svg>