<svg xmlns="http://www.w3.org/2000/svg" viewBox="0 0 32 32"><path d="M31 20.4a9.8 9.8 0 0 1 0 7.6c.6-.6 1-1.5 1-2.4v-5.7l-1 .5ZM12 24.1a9.9 9.9 0 0 1 13.6-9c.3-1 .9-1.8 1.6-2.3H6.4L3.2 25.6v-16H32c0-1.8-1.4-3.2-3.2-3.2H16l-3.2-3.2H3.2A3.2 3.2 0 0 0 0 6.4v19.2c0 1.8 1.4 3.2 3.2 3.2h10c-.8-1.4-1.2-3-1.2-4.7Z" fill="#66f"/><path d="M21.9 16.3a7.9 7.9 0 1 0 0 15.7 7.9 7.9 0 0 0 0-15.7Zm3.2 6.9a2.3 2.3 0 1 1 0-4.6 2.3 2.3 0 0 1 0 4.6ZM32 16.3a2.3 2.3 0 1 0-4.6 0 2.3 2.3 0 0 0 4.6 0" fill="#66f"/></svg>