<svg xmlns="http://www.w3.org/2000/svg" viewBox="0 0 32 32"><path d="M14.3 12.15A15.84 15.84 0 0 1 4 16c-1.37 0-2.68-.22-3.94-.55-.01.19-.06.36-.06.55a16 16 0 0 0 31.57 3.57c-1.15.26-2.34.43-3.57.43a15.93 15.93 0 0 1-13.7-7.85Z" fill="#66f"/><path d="M14.3 12.15A15.81 15.81 0 0 1 12 4c0-1.23.17-2.42.43-3.57A15.95 15.95 0 0 0 .06 15.45c1.27.32 2.58.55 3.94.55 3.95 0 7.51-1.48 10.3-3.85Z" fill="#66b4ff"/><path d="M16 0c-1.23 0-2.42.17-3.57.43a16 16 0 0 0 19.14 19.14A16 16 0 0 0 16 0Z" fill="#6ff"/></svg>