<svg xmlns="http://www.w3.org/2000/svg" viewBox="0 0 32 32"><path d="M25.7 12.4c0-.5-.4-1-1-1H7.3a1 1 0 0 0-1 1c0 3.1.5 14 5.1 19.3.2.2.4.3.7.3h7.8c.3 0 .5 0 .7-.3 4.6-5.2 5-16 5-19.3Zm-7 16.9h-5.4c-.3 0-.5 0-.6-.3C9.5 25.3 9 18 9 15.2c0-.4.4-.9 1-.9h12.2c.5 0 1 .4 1 1 0 2.5-.5 9.9-3.7 13.7-.2.2-.4.3-.7.3ZM17.8 9.6S21 7.6 19 4C17.9 2.2 17.3.7 17.8 0c-1.2 1.5-3.3 3-1 6.4.7.9 1 2.6 1 3.2ZM14 9.9s2.3-1.3.9-3.8C14 5 13.7 3.8 14 3.4c-.9 1-2.2 2-.7 4.4.5.5.7 1.7.7 2Z" fill="#ffb466"/><path d="M21.7 20.6A15 15 0 0 1 19 28l-.6.3h-4.6c-.2 0-.5-.1-.6-.3a13.4 13.4 0 0 1-2.3-5.2s5.4.7 8.4-.4c2.3-.8 2.4-1.6 2.4-1.6Z" fill="#ffb466"/></svg>