<svg xmlns="http://www.w3.org/2000/svg" viewBox="0 0 32 32"><path d="M29.3 7.5 16.8.2c-.5-.3-1-.3-1.6 0L2.7 7.5c-.5.2-.8.7-.8 1.3v14.4c0 .6.3 1 .8 1.4l12.5 7.2c.5.3 1 .3 1.5 0l12.6-7.2c.5-.3.7-.8.7-1.4V8.8c0-.6-.2-1-.7-1.4ZM24.6 25c0 .2-.1.4-.3.4-.1.1-.3.1-.4 0L19.4 23a1 1 0 0 1-.5-.8v-5.6a1 1 0 0 0-.5-.8l-1.9-1a1 1 0 0 0-1 0l-1.8 1a1 1 0 0 0-.5.8v5.6c0 .3-.2.6-.5.8l-4.5 2.5h-.5a.5.5 0 0 1-.2-.4V13.3c0-.3.2-.6.5-.8l.5-.3c-.8-1.2-1.4-3.2-.7-6 0 0 1.4 4 4.4 4l3.4-2L16 8c.2 0 .4 0 .5.2l3.4 2c3 0 4.4-4 4.4-4 .6 2.8.1 4.8-.7 6l.5.3c.3.2.5.5.5.8v11.8Z" fill="#6f6"/></svg>