<svg xmlns="http://www.w3.org/2000/svg" viewBox="0 0 32 32"><path d="m13.4 23.8 1-.8-1-.8-.4-.5a4 4 0 0 1-3.5 1.6H4.3L12.1 10l3.1 5.4c.7-.6 1.6-.7 2.4-.4l1.2.5.2-1.3a2.5 2.5 0 0 1 2.4-2.1H25l-1.3-2.3a2.2 2.2 0 0 0-1.8-1 2.2 2.2 0 0 0-2 1l-2 3.6-4-6.9a2.2 2.2 0 0 0-1.8-1 2.2 2.2 0 0 0-1.9 1l-10 17a2 2 0 0 0 0 2.2 2.2 2.2 0 0 0 2 1h7.4c1.1 0 2-.1 3-.4-.2-1 .1-1.8.8-2.4Z" fill="#66ffb4"/><path d="M30 23.9V22l1.8-1.5c.2 0 .2-.3.1-.5L30.1 17c0-.2-.3-.3-.5-.2l-2.3.8-1.5-.8-.3-2.4c0-.2-.2-.4-.5-.4h-3.6c-.2 0-.4.2-.4.4l-.3 2.4a7 7 0 0 0-1.6.8l-2.2-.9c-.2 0-.4 0-.6.3l-1.7 3c-.2.3-.1.5 0 .6l2 1.5-.1.9v.9l-1.8 1.5c-.2 0-.3.3-.2.5l1.8 3.1c.2.2.4.3.6.2l2.2-.8 1.6.8.3 2.4c0 .2.2.4.4.4H25c.3 0 .5-.2.5-.4l.3-2.4c.6-.2 1-.5 1.5-.8l2.3.9c.2 0 .4 0 .5-.3l1.8-3v-.6l-2-1.5Zm-6.7 2.5c-2 0-3.4-1.6-3.4-3.4s1.5-3.4 3.4-3.4 3.3 1.5 3.3 3.4-1.5 3.4-3.4 3.4Z" fill="#9c9c9e"/></svg>