<svg xmlns="http://www.w3.org/2000/svg" viewBox="0 0 32 32"><path d="m18.7 21-3-5.3-1-1.7-.3-.1-2.8.4-.2-.5-1-1.5-.1-.1H9v.3l.1.2H7.1l-.5-1H4.5l-.1.1v.2L14.6 28H15l3.9-6.9v-.1Z" fill="#e2e2e4"/><path d="m21 13 2.5-4.3c.1-.3.3-.4.7-.4h7c.8 0 1 .3.6.9-.7 1.2-1.5 2.5-2.1 3.8l-2.4 4-5.3 9.2-2.7 4.2-.7.9c-.6.7-1.2.7-1.8 0l-.8-1-2.6-4A228.6 228.6 0 0 1 21 12.9Z" fill="#ff6"/><path fill-rule="evenodd" d="m13.4 26.3 4-7.4-1.1-1.9"/><path fill="#e2e2e4" d="m0 10.1.8 1.4h1.4l-.8-1.4H0zM5 9h.3l.6 1 .1.1H8L8 10v-.2L7 8H5.8l-.2-.2-.2-.1H4.2V8l.6 1 .2.2ZM4.7 3.5H6v-.2l-.7-1.1-.1-.1H4.2l-.2.1v.2l.7 1ZM3.4 3.7H2.2V4l.6 1H4v-.2l-.6-1ZM6.7 1.1l.2.1h.9V.8L7.4.3 7.3.2h-.8l-.2.1v.2l.4.6ZM5.6 5.4l-.1-.1h-1l-.2.1v.2l.5.8.2.1h1l.1-.1c.1-.1 0-.1 0-.2l-.5-.8ZM8.6 5.5H6.8v.2L7.6 7h1.1l.6 1.2H11.6V8l-1.2-2.1H8.8l-.2-.4ZM7 3.2v.1l.8 1.3h1.6v-.3l-.7-1.2H7.1ZM2 1.4h1v-.2L2.6.6H1.7v.2l.3.6ZM10.3 10.2v.2l.5.8.2.1h.6l.5.7h2c.1 0 0-.2 0-.2l-1-1.6H10.3ZM3.2 5.8H2.1V6l.4.7h1.1v-.2l-.4-.7Z"/></svg>