<svg xmlns="http://www.w3.org/2000/svg" viewBox="0 0 32 32"><path d="M14 26.6v-7.2c0-1.3.7-2.6 1.8-3.2l6.3-3.7c1.2-.7 2.6-.7 3.7 0l6.2 3.6V9.6c0-1.8-1.4-3.2-3.2-3.2H16l-3.2-3.2H3.2A3.2 3.2 0 0 0 0 6.4v19.2c0 1.8 1.4 3.2 3.2 3.2h11.5c-.5-.6-.7-1.4-.7-2.2Z" fill="#6f6"/><path d="m31.1 17.9-6.3-3.7c-.5-.3-1.2-.3-1.7 0L16.8 18c-.5.3-.8.8-.8 1.5v7.2c0 .6.3 1.2.8 1.5l6.3 3.7c.5.3 1.2.3 1.7 0l6.3-3.7c.6-.3.9-.9.9-1.5v-7.2c0-.7-.3-1.2-.9-1.5Zm-8.3 11-4.5-2.6V21l4.5 2.7V29Zm1.2-7.2L19.4 19l4.6-2.6 4.6 2.6-4.6 2.7Zm5.7 4.6L25.1 29v-5.3l4.6-2.7v5.3Z" fill="#6f6"/></svg>