<svg xmlns="http://www.w3.org/2000/svg" viewBox="0 0 32 32"><path d="M16 29.9v-8.1a4 4 0 0 1 2-3.5v-1.1l.7-.4a6.6 6.6 0 0 1 11.6-2.2v-5a3 3 0 0 0-1.6-2.7L17.5.4a3 3 0 0 0-3 0L3.3 7a3 3 0 0 0-1.6 2.6v13A3 3 0 0 0 3.3 25l11.2 6.5a3 3 0 0 0 2.1.3 4 4 0 0 1-.5-2Zm-2-3.3-8.2-4.7v-9.4l8.2 4.7v9.4Zm2-13L7.8 9 16 4.2 24.2 9 16 13.8Z" fill="#9c9c9e"/><path d="M29.9 19.7h-.3v-1.2a4.5 4.5 0 0 0-9.1 0v1.2h-.3c-1.2 0-2.1 1-2.1 2V30c0 1.2.9 2.1 2 2.1H30c1.2 0 2.1-1 2.1-2.1v-8.1c0-1.2-1-2.1-2.1-2.1Zm-4.9 8a1.9 1.9 0 1 1 0-3.7 1.9 1.9 0 0 1 0 3.7Zm2-8h-4v-1.2a2 2 0 0 1 4 0v1.2Z" fill="#9c9c9e"/></svg>