<svg xmlns="http://www.w3.org/2000/svg" viewBox="0 0 32 32"><path d="M18.7 28.5v-.8l-.3-.3-1.3-1.8v-.1l-.4.6-1.6-3.4-1.1-3.2v-2.1l-.2-.4c-.5-.9-.2-1.7.2-2.4l.3-.4c.3-.4.6-.7 1-.8a4 4 0 0 1 1.4-.3 2.8 2.8 0 0 1 1-.6h.1l.5-.2 2.3-.2 1.2 2a2 2 0 0 1 .3.3c.3-.5.6-1 1.2-1.3V13c1.8-1 3.8-1.3 5.4-.5 1.2.6 2 1.7 2.3 3.2l1 2v-8c0-1.8-1.5-3.3-3.2-3.3H16l-3.2-3.2H3.2A3.2 3.2 0 0 0 0 6.4v19.2c0 1.8 1.4 3.2 3.2 3.2h15.5v-.3Z" fill="#ffb466"/><path d="M32 22.9c-.2-.2-.5-1.2-.2-1.1-.9-1.9-2-3.7-2.8-5.6-.2-2.5-2.7-2.6-4.6-1.5-.5.4-1 1.5-1.6 2-1.3.4-2.4 1.7-2.4 3.2-.7.2-.3-.9-.2-1.3l.1.2s.3-.6.1-1h.2c.1-.6.3-1.4-.3-1.9.4-.5-.6-1.4-1-1.5H19l-.1-.2s-.2 0-.3.2c-.2 0-.5 0-.6.4-.3.5-1.8 0-2 .6 0 0-.2 0-.2.3-.1 0-.4.5-.1.4 0 0-.2.4.3.4 0 .3 1 0 1.2.5a2 2 0 0 1-.6.8h.2c-.3.2-.5.5-.5.9l.2-.2a4 4 0 0 0 .2 2.9v-.2c0 .4.2.7.4.9l.1-.3c.4 1 1.7 1.5 2.3 2.1l.2-.5v.4c1.8-1.2.4 1 1 2.3-.3.3 0 .8 0 1-.1.6.2 1.3 0 2 0 .4-.2.8-.4 1.2-.1 0-.6.3-.5.7-2.7.5.7 1.6 1 .6 0-.2-.2-.2 0-.4.4-.2.1-1.4.5-1.9-.1-.8.8-1.5.4-2.5h.2c-.2-1 .6-1.8.6-2.8h1c-.4.8-.6 1.7-.6 2.5-.6 1.2 1.5 1.7 1.8 2.8-.2.1-.3.3-.2.5 0 0-.3 0-.3.3-2.7.7 1.6 1.5.9 0l.2-.1s.5 1.4.8.9c.6.2.6-1.5-.2-1.6l-.1-.2a11 11 0 0 1 1.6-2.3c-.2-1.2 0-2.6 1-4 0 1.1.4 2.3 1 3.3v.5c-.2 1 .2 2 0 3-.1.2-.6.8-.4 1.3-.5.1-.6 1.3.2.8.4.4 1.5 0 .8-.6.4-.5-.1-.7-.1-1.4-.2-.8.8-2.5.3-3 .3-1.8-.4-3 .5-5.4 1.1 2-.7 2.7 0 4.2l.4-.4c0-.6.7-1 .5-1.6h.1V23c.1-.1.2-.1.4 0Zm-6 4.5-.8 1.2c-.6-.3-.9-.9-1.3-1.4.2-.2.3-.4.3-.7l.2.3c.4-.5.6-1 .7-1.5h.2c0-.6.5-1 .6-1.7h.1c-.2 1 .4 3 0 3.8Z" fill="#ffb466"/></svg>