<svg xmlns="http://www.w3.org/2000/svg" viewBox="0 0 32 32"><path d="M29.6 9.3c-1.2.2-4 .5-7.5-.4-3.5-1-5.8-2.6-6.7-3.4-1.3-1-1.8-1.8-2.4-.7a28 28 0 0 0-1.7 5c-1.4 5-2.4 15.4 5.8 17.6 8.2 2.2 12.6-7.4 14-12.3.5-2.3.8-4 .9-5.2 0-1.2-.8-.9-2.5-.6ZM13 13.4s1.3-2 3.5-1.4c2.1.7 2.3 3.1 2.3 3.1l-5.8-1.7Zm5.3 9c-3.8-1-4.4-4.1-4.4-4.1l10.3 2.9s-2 2.4-5.9 1.3Zm3.7-6.3s1.3-2 3.5-1.3c2.2.6 2.3 3 2.3 3l-5.8-1.7Z" fill="#6f6"/><path d="m10.8 20.3-4 1.1s.4-2.5 3.5-3.4h.1c-.2-3 .3-6.1.9-8.2l.4-1.5a14.7 14.7 0 0 1-9.8 2.2c-1.3-.3-2-.5-1.9.4 0 .9.3 2.2.7 4 1 3.8 4.4 11.1 10.7 9.4l1-.3c-.8-1.1-1.3-2.4-1.6-3.7Zm-7.6-5.4 4.5-1.2s-.2 1.8-1.9 2.2c-1.7.4-2.6-1-2.6-1Z" fill="#f66"/></svg>