<svg xmlns="http://www.w3.org/2000/svg" viewBox="0 0 32 32"><path d="M18.9 31v-.4l-1.2.5 1.2-.2ZM14.6 30l-1-1.8c-3-.6-5.6-2.2-7.5-4.6h7.6l.7-.6-1-.8c-.4-.3-.7-.9-.9-1.4h-.4v-.6l.4.4c0-.5 0-1 .3-1.5l.6-1c-.3-.6-.5-1.3-.5-2a3.6 3.6 0 0 1 6.2-2.3c.3-1 1.2-1.8 2.3-1.8H24l-.6-.9V9.5h-1.1l-4-5.7c5.5 1 9.7 5.6 10.1 11.3l.6-.3c.7-.2 1.5 0 2.1.4-.4-8-7-14.4-15.1-14.4S.8 7.6.8 16c0 1.8.3 3.5.9 5.1L0 23.6h2.8c2.8 4.7 7.8 7.6 13.2 7.6h.1c-.6-.2-1.2-.6-1.5-1.2Zm4.3-20.5H13l3-4.1 2.8 4.1ZM3.8 18.2c-.2-.7-.2-1.5-.2-2.2 0-6 4.3-11.2 10.1-12.2l-10 14.4Zm5.8-3.6v6.2H5.3l4.3-6.2Z" fill="#f66"/><path d="M30 23.9V22l1.8-1.5c.2 0 .2-.3.1-.5L30.1 17c0-.2-.3-.3-.5-.2l-2.3.8-1.5-.8-.3-2.4c0-.2-.2-.4-.5-.4h-3.6c-.2 0-.4.2-.4.4l-.3 2.4a7 7 0 0 0-1.6.8l-2.2-.9c-.2 0-.4 0-.6.3l-1.7 3c-.2.3-.1.5 0 .6l2 1.5-.1.9v.9l-1.8 1.5c-.2 0-.3.3-.2.5l1.8 3.1c.2.2.4.3.6.2l2.2-.8 1.6.8.3 2.4c0 .2.2.4.4.4H25c.3 0 .5-.2.5-.4l.3-2.4c.6-.2 1-.5 1.5-.8l2.3.9c.2 0 .4 0 .5-.3l1.8-3v-.6l-2-1.5Zm-6.7 2.5c-2 0-3.4-1.6-3.4-3.4s1.5-3.4 3.4-3.4 3.3 1.5 3.3 3.4-1.5 3.4-3.4 3.4Z" fill="#9c9c9e"/></svg>