<svg xmlns="http://www.w3.org/2000/svg" viewBox="0 0 32 32"><path d="M26.8 11.2C26.9 9.8 26 9 25.5 8c-1-.4-1.8-1-3.1-1.3a30.1 30.1 0 0 0-12.7 0L6.7 8C5.6 9.6 5 12 4.2 13.7L5.6 19c2.3 4.4 2 6.7 10.6 6.6 8 0 7.9-2 10.3-6.6V19l1.3-5.2-1-2.6Zm-17.6 5a2.2 2.2 0 1 1 0-4.3 2.2 2.2 0 0 1 0 4.4Zm13.8 0a2.2 2.2 0 1 1 0-4.3 2.2 2.2 0 0 1 0 4.4Z" fill="#e2e2e4"/><path d="M26.6 7.6C19 5.5 24 6.7 26 12c1.1 2.9 0 8.3 2.1 6.1l1.4-2.8c.6-.6 2.4-2.1 2.5-2.4.1-.3-3.7-4.5-5.4-5.3ZM5.4 7.6c-1.7.8-5.5 5-5.4 5.3.1.3 2 1.8 2.5 2.5L4 18c2 2.2 1-3.2 2-6 2.1-5.4 7.2-6.6-.5-4.5ZM23.1 20.4c0-1 0-1.7-1.2-3-.8-1-2-2-3.6-2.5-.2-.5-1-1.1-2.1-1.1s-1.9.6-2 1c-1.7.6-3 1.6-3.9 2.6C9.1 19 9.2 19.6 9.2 21c0 5.2 1.8 3.8 3 4.4 1.3.6 2.6.4 4 .4 1.3 0 2.6.2 3.8-.4 1.2-.6 3 .9 3-4.3V21l.1-.6Z" fill="#ffb466"/></svg>