<svg xmlns="http://www.w3.org/2000/svg" viewBox="0 0 32 32"><path d="M30.9 7.2a5.9 5.9 0 0 0-4.3-2.4c-1.8-.1-3.6.4-5 1.5a7.5 7.5 0 0 0-3 4.4 6 6 0 0 0 .3 3.8 6.3 6.3 0 0 0-6 .2 6 6 0 0 0 .7-3.9 7.5 7.5 0 0 0-3-4.8 7.5 7.5 0 0 0-5.2-1.5A6 6 0 0 0 1.1 7a6 6 0 0 0-1 4.8 7.5 7.5 0 0 0 3 4.5c1.1.8 2.4 1.3 3.6 1.4l-.8.5a6 6 0 0 0-2.3 3.6c-.3 1.4 0 2.8.7 3.8a4.7 4.7 0 0 0 4 2 6 6 0 0 0 3.6-1.2 6 6 0 0 0 2.4-4 6.5 6.5 0 0 0 3.8 0 6 6 0 0 0 2.4 4 6 6 0 0 0 3.6 1.2h.5c1.4-.2 2.7-.8 3.4-2 .8-1 1.1-2.4.8-3.8a6 6 0 0 0-3-4 7.7 7.7 0 0 0 6-5.7c.4-1.7.1-3.4-.9-4.8Z"/><g fill-rule="evenodd"><path d="M11.9 8.2c-.5-.4-1.1-.6-1.7-.7l.6.4c1.3 1 1.3 3.1.1 4.6-.7 1-1.8 1.4-2.9 1.4 1.3.6 3 .2 4-1.1 1.2-1.5 1.2-3.6-.2-4.7Z" fill="#6f6"/><path d="m9.6 16.2-.2-.1c-.7-.5-1.4-1-2.1-1.3l-1.1-.6 2-1.1V13c1.4-1 1.4-2.8 1.4-4V7.8c-1.2-2-2.8-2.2-4.4-2.4H5a3 3 0 0 0-1.1.4 6.2 6.2 0 0 0-3 2.7c-.6.7-.7 1.5-.3 2.4.3.8.8 1.5 1.2 2.2l.5.6c.8 1.2 2.4 1.7 3.8 2.2 1 .3 2 .7 2.9 1.2.5.3 1 .3 1.2.1.1-.2-.2-.6-.6-1ZM5 13.5c-.7-.5-1.4-1-1.8-1.7l-.7-.8c-.6-.9-.8-1.1-.2-1.8l.7-1c.4-.6.8-1.1 1.3-1.5l.8-.1c1.7.2 2.9.9 3.2 1.7v.6c0 1-.1 2-1 2.8L5 13.5Z" fill="#66f"/><path d="M5.5 12c-1.2 0-2.2-1-2.2-2.1s1-2.2 2.2-2.2 2.2 1 2.2 2.2-1 2.1-2.2 2.1Z" fill="#f66"/><path d="M6.5 11c-.5.4-1.1.4-1.5 0s-.3-1.2.1-1.6a1 1 0 0 1 1.5.2 1 1 0 0 1-.1 1.5Z" fill="#66f"/></g><path d="M6 25.5c-1.3-1.1-1.4-3.3 0-5 1.2-1.5 3.4-1.9 4.8-.8 1.3 1.1 1.3 3.3 0 5-1.3 1.5-3.4 1.9-4.8.8Z" fill="#f66" fill-rule="evenodd"/><path d="M7.6 23.7c-.6-.5-.5-1.7.3-2.5.7-1 1.8-1.3 2.4-.8.6.5.5 1.7-.2 2.6-.8.8-1.9 1.2-2.5.7Z" fill="#66f" fill-rule="evenodd"/><path d="M26.1 25.5c-1.4 1-3.5.7-4.8-.9-1.3-1.6-1.3-3.7.1-4.9 1.4-1 3.5-.7 4.8.9 1.3 1.6 1.3 3.8 0 4.9Z" fill="#f66" fill-rule="evenodd"/><path d="M24.3 23.8c-.6.5-1.7.2-2.4-.7-.7-.9-.8-2-.2-2.5.6-.5 1.7-.2 2.4.7.8.9.9 2 .2 2.5Z" fill="#66f" fill-rule="evenodd"/><g fill-rule="evenodd"><path d="M29.7 10.5c-.9-1-2.1-1.5-3.3-1.3.8.2 1.6.6 2.2 1.3 1.2 1.5 1.1 3.5-.1 4.6-.4.3-.8.5-1.3.5.8.2 1.7 0 2.3-.5 1.3-1 1.4-3.1.2-4.6Z" fill="#6f6"/><path d="M23 14.6c-1 0-1.8-.9-1.8-2s.8-1.9 1.9-1.9 1.8.9 1.8 2-.8 1.9-1.8 1.9Z" fill="#f66"/><path d="M23.7 13.8a1 1 0 0 1-1.4-.2 1 1 0 0 1 0-1.5 1 1 0 0 1 1.6.2 1 1 0 0 1-.2 1.4Z" fill="#66f"/><path d="M30.7 8.3c-.3-1-1.1-1.7-2.3-2.2-.9-.3-2-.4-3.2-.2-1.1.1-2.1.4-2.7.8l-.3.2c-1.6 1-1.6 1.1-2.5 2.4l-.3.5c-.7 1-.6 2.2-.4 3 .3 1 .8 2 1.4 2.8.8 1 1.4 1.2 2.2 1.2l1.2-.1h.5l.4-.1c1.4-.2 2.2-.3 2.7-1.8.2-1 .3-2 0-2.8-.1-1-.7-1.9-1.4-2.5h-.1l-2.6-1 .5-.4c.9-.6 3-1.2 4.3-.7l.8.5.3.6.1.1v.2h.1c.5.5 1 .9 1.3.7.3-.2.2-.6 0-1.1ZM26 14c-.3 1-.4 1-2 1.2l-1 .2c-.9.2-1 .2-1.6-.5-.8-1-1.4-2.6-.6-3.9l.2-.3a5 5 0 0 1 1.2-1.5l1.6 1.1c1 .8 2.7 2.4 2.2 3.7Z" fill="#66f"/></g><path d="M16.1 22.3c-2.9 0-5.2-1.8-5.2-4.1s2.3-4.2 5.2-4.2 5.2 1.9 5.2 4.2-2.3 4.1-5.2 4.1Z" fill="#ff6" fill-rule="evenodd"/><path d="M16.6 21c-.6 0-1.2-.1-1.7-.4-.6-.4-1-.9-.9-1.4l.6.1c0 .4.4.7.6.8.7.4 1.7.5 2 .2.2 0 .4-.2.3-.7v-.2h.5c.2.9-.1 1.2-.4 1.4-.2.2-.6.3-1 .3Z" fill="#f66"/><path d="M12.6 18.1a2 2 0 1 1 0-4.1c1 0 2 1 2 2s-.9 2.1-2 2.1Z" fill="#fff" fill-rule="evenodd"/><path d="M12.6 18.4a2.3 2.3 0 1 1 0-4.7 2.3 2.3 0 0 1 0 4.7Zm0-4.2a1.9 1.9 0 1 0 0 3.7 1.9 1.9 0 0 0 0-3.7Z"/><path d="M19.4 18.1c-1.1 0-2-1-2-2s.9-2.1 2-2.1 2 1 2 2-.8 2.1-2 2.1Z" fill="#fff" fill-rule="evenodd"/><path d="M19.4 18.4a2.3 2.3 0 1 1 0-4.7 2.3 2.3 0 0 1 0 4.7Zm0-4.2a1.9 1.9 0 1 0 0 3.7 1.9 1.9 0 0 0 0-3.7Z"/><path d="M12.6 17c-.6 0-1-.4-1-1s.4-1 1-1 1 .5 1 1-.4 1-1 1ZM19.5 17c-.6 0-1-.5-1-1s.4-1.1 1-1.1 1 .5 1 1-.4 1-1 1Z" fill-rule="evenodd"/></svg>