<svg xmlns="http://www.w3.org/2000/svg" viewBox="0 0 32 32"><path d="M27.11 26.48c-2.2 1.8-5.67 1.18-7.78-1.38-2.1-2.56-2.02-6.09.16-7.89 2.2-1.8 5.67-1.18 7.78 1.37 2.1 2.57 2.02 6.09-.16 7.89ZM5.14 26.51c-2.13-1.75-2.2-5.18-.16-7.67 2.05-2.48 5.42-3.08 7.56-1.33 2.13 1.75 2.2 5.18.15 7.66-2.04 2.49-5.42 3.09-7.55 1.34Z" fill="#f66" fill-rule="evenodd"/><path d="M19.43 15.89c-2.2-2.68-1.45-6.93 1.69-9.5 3.12-2.56 7.44-2.47 9.63.2 2.2 2.68 1.45 6.93-1.68 9.5-3.13 2.56-7.44 2.47-9.64-.2ZM12.57 15.85c2.2-2.68 1.45-6.93-1.69-9.5-3.12-2.56-7.44-2.47-9.63.2-2.2 2.68-1.45 6.93 1.68 9.5 3.13 2.56 7.44 2.47 9.64-.2Z" fill="#66f" fill-rule="evenodd"/><path d="M5.39 11.9c-1.21 0-2.19-.96-2.19-2.15S4.18 7.6 5.39 7.6s2.19.96 2.19 2.15-.98 2.15-2.19 2.15Z" fill="#f66" fill-rule="evenodd"/><path d="M7.51 23.62c-.61-.5-.52-1.63.22-2.53.73-.9 1.82-1.21 2.44-.71.61.5.51 1.63-.22 2.53-.73.89-1.83 1.21-2.44.7ZM24.31 23.76c-.61.5-1.7.18-2.43-.7-.73-.89-.83-2.03-.21-2.53.61-.51 1.7-.19 2.43.7.73.89.83 2.02.21 2.53Z" fill="#66f" fill-rule="evenodd"/><path d="M23.02 14.49c-1.06 0-1.91-.87-1.91-1.94s.85-1.94 1.91-1.94 1.9.87 1.9 1.94-.85 1.94-1.9 1.94Z" fill="#f66" fill-rule="evenodd"/><path d="M16.03 22.27c-2.88 0-5.21-1.86-5.21-4.17s2.33-4.17 5.21-4.17 5.21 1.87 5.21 4.17-2.33 4.17-5.21 4.17Z" fill="#ff6" fill-rule="evenodd"/><path d="M16.54 21.03c-.59 0-1.24-.2-1.73-.49-.61-.37-.92-.87-.85-1.37l.58.08c-.05.37.38.67.57.79.7.43 1.69.54 2.11.24.08-.05.31-.22.18-.76v-.18h.58v.09c.16.77-.19 1.16-.42 1.33-.27.2-.64.28-1.03.28Z" fill="#f66"/><path d="M12.46 18.05a2.08 2.08 0 1 1 .01-4.17 2.08 2.08 0 0 1-.01 4.17Z" fill="#e2e2e4" fill-rule="evenodd"/><path d="M12.46 18.28c-1.27 0-2.31-1.04-2.31-2.31a2.32 2.32 0 0 1 4.63 0 2.32 2.32 0 0 1-2.32 2.31Zm0-4.17a1.86 1.86 0 1 0 0 3.73 1.86 1.86 0 0 0 0-3.73Z"/><path d="M19.36 18.05c-1.15 0-2.09-.94-2.09-2.08s.94-2.08 2.09-2.08a2.08 2.08 0 1 1 0 4.16Z" fill="#e2e2e4" fill-rule="evenodd"/><path d="M19.36 18.28c-1.28 0-2.32-1.04-2.32-2.31a2.32 2.32 0 0 1 4.63 0 2.32 2.32 0 0 1-2.31 2.31Zm0-4.17a1.86 1.86 0 1 0 0 3.71 1.86 1.86 0 0 0 0-3.71Z"/><path d="M12.52 17a1.04 1.04 0 1 1 0-2.08 1.04 1.04 0 0 1 0 2.08ZM19.44 16.89a1.04 1.04 0 1 1 0-2.08 1.04 1.04 0 0 1 0 2.08Z" fill-rule="evenodd"/><path d="M29.71 9.66a3.98 3.98 0 0 0-3.75-1.48l-.8.15v.7l.81.14c.72.12 1.39.52 1.89 1.13 1.02 1.25.98 2.98-.09 3.87-.29.24-.64.4-1.03.47l-1.59.29v.42l1.59.28a3.22 3.22 0 0 0 2.74-.68 3.36 3.36 0 0 0 1.2-2.51 4.15 4.15 0 0 0-.97-2.77ZM12.26 9.51a3.95 3.95 0 0 0-3.02-2.67l-.81-.14-.24.66.72.41c.64.36 1.13.97 1.39 1.71.54 1.52-.1 3.14-1.41 3.6-.36.12-.73.15-1.12.09l-1.59-.27-.15.4 1.4.8a3.47 3.47 0 0 0 2.81.29 3.32 3.32 0 0 0 1.98-1.95c.37-.91.38-1.96.04-2.94Z" fill="#6f6"/></svg>