<svg xmlns="http://www.w3.org/2000/svg" viewBox="0 0 32 32"><path d="M6 13.4c-.2-.3-.3-.5.2-.8l3.3-1.9c.2 0 .5-.1.4-.4L6 3.7a.6.6 0 0 0-.6-.3H.4c-.3 0-.4 0-.4.4v18c0 .3.1.4.5.4h1.6q.8 0 .8-.8V6.9c0-.2-.1-.6.2-.6s.8-.1 1 .3l1.5 2.5c.2.3.1.5-.2.6l-1.7 1c-.2.2-.4.4-.3.7V15.2L7.7 22c0 .2.3.3.5.3h2.7c.2 0 .4 0 .4-.2L6 13.4Z" fill="#f66"/><path d="M18.8 20.8c1-1.5.4-3.1.6-4.8L16 18c-.3.2-.3.5-.3.7 0 .4 0 .6-.5.5H14c-.2 0-.4 0-.5-.2 0-.3.2-.3.3-.4l6-3.4c.5-.3.7-.5.3-1l-1.8-3a.7.7 0 0 0-.7-.4h-6.7c-.3 0-.6 0-.8.2-1 .7-2.1 1.3-3.2 1.8-.4.2-.4.4-.2.8a997.9 997.9 0 0 1 5 8.5l.6.1h4.5c1 0 1.6-.2 1.9-1.1l.2-.3ZM12 16c-.1 0-.3.2-.4 0l-1.3-2.2h5.3L12 16.2Z" fill="#f66"/><path d="m31.4 8.8.6-.9V2c-.3-.1-.3 0-.4.2l-4.9 8.2-.2.2c-.6 1.4-1.4 2.5-2.1 3.8a109 109 0 0 1-2.1-3.2c-.1-.2-.2-.3-.5-.3h-3c-.2 0-.4 0-.3.2l1.6 2.6 1.7 2.6v.6l-1.2 2c0 .1-.2.2-.1.4l1.8 2.9 2-3.5 4.3 7 .1.2 2.1 3.5c.3.4.7.8 1.2.9V25l-5-8a.7.7 0 0 1 0-.9l4.4-7.3Z" fill="#f66"/></svg>