<svg xmlns="http://www.w3.org/2000/svg" viewBox="0 0 32 32"><path d="M16.4 0c.7.5.9 1.5 1.5 2-.5.9-1 1.6-1.7 2.3-6.7.3-11.4 4.6-11.8 11-.2 2.1.3 3.7.9 5.3L2.8 20c-.7.5-1.1 1.2-1.6 1.9A16 16 0 0 1 14.6 0h1.8Z" fill="#6ff" fill-rule="evenodd"/><path d="M17.5.1a16 16 0 0 1 13.3 22.1l-2.4.2c-.6-.7-.8-1.7-1.4-2.4 2.5-8-2.6-14.9-9.8-15.6.4-.8 1-1.4 1.6-2-.4-.8-1-1.5-1.3-2.3Z" fill="#6ff" fill-rule="evenodd"/><path d="M24.5 13.5c-2.8 4.1-5.8 7.5-8.6 11.3-3.1-3.6-6-7-8.8-11.1 1.3-1.6 3.1-3.1 4.5-4.7h8.5l4.4 4.5Z" fill="#f66" fill-rule="evenodd"/><path d="m3 20.7 2.7.7c1.9 3.3 4.8 6 9.6 6.3 5.7.3 9.4-3 11.3-7 .5.7.8 1.6 1.2 2.4l2.6-.2c-2.8 5.2-7.5 9.5-15.5 9-6.8-.3-10.8-4.4-13.5-9.2l1.5-2Z" fill="#6ff" fill-rule="evenodd"/></svg>