<svg xmlns="http://www.w3.org/2000/svg" viewBox="0 0 32 32"><path d="M21.8 31 15 24l12.9-12.8 3.6 3.6.6-8.3c0-.7 0-1.5-.3-2.2C31.2 2 29.7.6 27 .2S18 .2 18 .2L18 0l-7 2.7-6.6 6.1c-.2 0-2.8 5.1-4 7.5v.3l-.4 9c.2 6.1 4.6 6.3 6.5 6.4s15.3-1 15.3-1ZM24.6 30.7v-2.2l-2.4 2.4 2.4-.2z" fill="#f66" fill-rule="evenodd"/><path d="m27.8 14-4.2 4.2 1.7 1.7 1.3-1.3V24a6.6 6.6 0 0 0-4.1-1.2l1.2-1.2-1.7-1.7-4.2 4.2 4.2 4.2 1.7-1.7-1.4-1.4c1.7-.2 3.6.6 4.3 2.8v4H29V18.7l1.3 1.3 1.7-1.7-4.2-4.2Z" fill="#f66"/></svg>