<svg xmlns="http://www.w3.org/2000/svg" viewBox="0 0 32 32"><path d="M23 12a10.8 10.8 0 0 1 4.5 1c1.8.8 3.3 2 4.5 3.6V16A6.3 6.3 0 0 0 21 11.8l.2.3L23 12ZM11.4 20.2l.8.8c.2-1 .5-2 1-3-.4-.5-.7-1.2-.7-2v-.2a3.5 3.5 0 0 1 5.6-2.6 11 11 0 0 1 2.9-1l-.1-.1a6.2 6.2 0 0 0-9.8 0l-.8 1.3H10c.1-.5.4-1 .8-1.6a6.2 6.2 0 1 0 .2 8v.1l.2-.2v-.2h.1l.3-.5.2-.4h.2l-.1.5-.6 1.1Zm-5.1-.7a3.5 3.5 0 1 1 0-7 3.5 3.5 0 0 1 0 7Z" fill="#66ffb4"/><path d="M23 14a9 9 0 1 0 0 18 9 9 0 0 0 0-18Zm4.5 10.8h-9v-3.6h9v3.6Z" fill="#f66"/></svg>