<svg xmlns="http://www.w3.org/2000/svg" viewBox="0 0 32 32"><path d="m22.4 1.8-4 2.3v2.5l-.1.3 4 2.3c.4.2.6 0 .6-.3V2.1c0-.3-.2-.5-.5-.3Zm-8.8 4.8V4l-4-2.3c-.2-.2-.5 0-.5.3v6.8c0 .3.3.5.5.3L13.7 7l-.1-.3Z" fill="#66f" fill-rule="evenodd"/><circle cx="15.9" cy="10.2" r="1.1" fill="#66f"/><path d="M12.9 27.3a11 11 0 0 1-.3-7.8L9.9 9.7l-.7.4c-.3.1-.6 0-.6-.4V5.4L7.3.7H4.6L0 5l3 2.5L.7 10 13 27.3Z" fill="#66f" fill-rule="evenodd"/><path d="M23 14a9 9 0 1 0 0 18 9 9 0 0 0 0-18Zm4.5 10.8h-9v-3.6h9v3.6Z" fill="#f66"/><path d="M14.2 6.7h3.6l.3-.1V4.4c0-.1-.1-.2-.3-.2h-3.6c-.2 0-.3 0-.3.2v2.2l.3.1ZM23 12c2 0 4 .6 5.7 1.6l2.6-3.6L29 7.5 32 5 27.4.7h-2.7l-1.3 4.7v4.3c0 .4-.3.5-.6.3l-.7-.3-.6 2.4H23Z" fill="#66f"/></svg>