<svg xmlns="http://www.w3.org/2000/svg" viewBox="0 0 32 32"><path d="M27.6 4.2a9.8 9.8 0 0 0-13-2.8L7 6.2a8.5 8.5 0 0 0-3.9 5.7c-.3 2 0 4 1 5.8-.7 1-1.2 2-1.4 3.2a9.8 9.8 0 0 0 14.6 9.7l7.5-4.8c2-1.2 3.5-3.3 3.9-5.7.3-2 0-4-1-5.8.7-1 1.2-2 1.4-3.2a9 9 0 0 0-1.6-6.9Zm-2.1 6.1-.2.7-.1.5-.4-.3a9.7 9.7 0 0 0-3-1.5h-.2v-.3c0-.4 0-.8-.3-1.1a1.8 1.8 0 0 0-2.4-.5l-7.4 4.7c-.4.2-.6.6-.7 1a1.7 1.7 0 0 0 2.2 2l.5-.2 2.8-1.8 1.5-.7a6 6 0 0 1 6.4 2.4 5.5 5.5 0 0 1 1 4.1 5.1 5.1 0 0 1-2.4 3.4l-7.5 4.8c-.4.3-1 .5-1.5.7a6 6 0 0 1-6.3-2.4 5.5 5.5 0 0 1-1-4.1l.2-.7.1-.5.4.3c.9.6 1.9 1.1 3 1.5h.2v.3c0 .4 0 .8.3 1.1a1.8 1.8 0 0 0 2.3.6l7.5-4.8c.4-.2.6-.6.7-1a1.7 1.7 0 0 0-2.2-2l-.5.2-2.8 1.8c-.5.3-1 .6-1.5.7a6 6 0 0 1-6.4-2.4 5.5 5.5 0 0 1-1-4.1 5.1 5.1 0 0 1 2.4-3.5l7.5-4.7c.4-.3 1-.5 1.5-.7a6 6 0 0 1 6.3 2.4 5.5 5.5 0 0 1 1 4.1Z" fill="#f66"/></svg>