<svg xmlns="http://www.w3.org/2000/svg" viewBox="0 0 32 32"><path d="m30.9 13.7.5.5.6.7v-2.1h-2.9l1.8.9ZM17.5 28.8c-.2-.8 0-1.2.2-1.5l.3-.4.7-.5 2.9-1.7c-.5-.3-1-.7-1.3-1.1a7.5 7.5 0 0 1-1.5-2.8l-.2-1.4h-3.1v9.4h2Z" fill="#66b4ff"/><path d="M3.2 25.6v-16H32c0-1.8-1.4-3.2-3.2-3.2H16l-3.2-3.2H3.2A3.2 3.2 0 0 0 0 6.4v19.2c0 1.8 1.4 3.2 3.2 3.2h4.7v-9.4H4.7l-1.5 6.2Z" fill="#66b4ff"/><path d="M22.2 12.8h-2.3c.3.3.5.7.6 1.2.4-.4 1-.9 1.7-1.2ZM29.5 20.2c1 .5 1.8 1 2.5 1.7v-3.4c-.5.5-1.3 1-2.5 1.7ZM4.8 15.8v1.6h5v14.4h3.7V17.4h5v-3.2H4.8v1.6Z" fill="#66b4ff"/><path d="M27.5 14.2c1 .2 1.8.7 2.5 1.4.3.4.9 1 .9 1.2l-2.7 1.8s-.2 0-.3-.3c-.6-.8-1-1-1.9-1.1-1.2-.1-2 .5-2 1.5l.2.8c.3.5.8.8 2.3 1.5 2.8 1.2 4 2 4.7 3.1.9 1.3 1 3.2.5 4.7-.6 1.7-2.2 2.8-4.3 3.1h-3c-1.5-.3-3-1-4-2l-1-1.6.4-.2 1.5-.9 1-.6.3.3c.3.5 1 1.2 1.5 1.5 1.2.6 3 .5 3.8-.2.3-.4.5-.7.5-1.2s0-.7-.3-1c-.3-.4-1-.8-2.7-1.6-2-.8-2.8-1.4-3.6-2.2-.5-.5-1-1.3-1.1-2-.2-.5-.2-1.9 0-2.4.3-2 1.8-3.4 4-3.7.6-.2 2.2-.1 2.9 0Z" fill="#66b4ff"/></svg>