<svg xmlns="http://www.w3.org/2000/svg" viewBox="0 0 32 32"><path d="M0 7.5v2h6v16.9h4.2v-17h6V7.6l-.1-2H0v2H0ZM26.8 5.6c1.1.3 2 .8 2.8 1.7l1.1 1.4c0 .1-2 1.5-3.2 2.2l-.4-.5c-.6-.8-1.2-1.2-2.1-1.3-1.4 0-2.3.7-2.3 1.9 0 .4 0 .6.2.9.3.6.9 1 2.7 1.7 3.2 1.5 4.6 2.4 5.5 3.7 1 1.5 1.2 3.8.5 5.6-.7 1.9-2.5 3.2-5 3.6H23a8.6 8.6 0 0 1-4.7-2.5 8.2 8.2 0 0 1-1.2-1.7l.5-.3 1.7-1 1.3-.8.3.4a6 6 0 0 0 1.7 1.7c1.5.8 3.5.7 4.5-.2.4-.4.6-.8.6-1.4 0-.5-.1-.8-.4-1.2-.3-.5-1-.9-3.1-1.8-2.4-1-3.4-1.6-4.4-2.6-.5-.6-1-1.5-1.2-2.3-.2-.7-.2-2.3 0-3a5.6 5.6 0 0 1 4.6-4.3c.8-.2 2.7 0 3.5.1Z" fill="#6ff"/></svg>