<svg xmlns="http://www.w3.org/2000/svg" viewBox="0 0 32 32"><path d="M16.7 5.6C16.7 2.6 14 0 11 0 7.8 0 5.8 2.5 5.8 4.8H9c0-.6.7-1.6 2-1.6s2.5 1 2.5 2.4S12.5 8 10 8H1.3v3.2H10c4.2 0 6.7-2.5 6.7-5.6Zm0 0C16.7 2.6 14 0 11 0 7.8 0 5.8 2.5 5.8 4.8H9c0-.6.7-1.6 2-1.6s2.5 1 2.5 2.4S12.5 8 10 8H1.3v3.2H10c4.2 0 6.7-2.5 6.7-5.6ZM23.8 26.4c0 3-2.5 5.6-5.6 5.6-3.3 0-5.2-2.5-5.2-4.8h3.2c0 .7.6 1.6 2 1.6s2.4-1 2.4-2.4-1.2-2.4-3.4-2.4H7.4v-3.2h9.8c4 0 6.6 2.5 6.6 5.6Zm0 0c0 3-2.5 5.6-5.6 5.6-3.3 0-5.2-2.5-5.2-4.8h3.2c0 .7.6 1.6 2 1.6s2.4-1 2.4-2.4-1.2-2.4-3.4-2.4H7.4v-3.2h9.8c4 0 6.6 2.5 6.6 5.6Z" fill="#66b4ff"/><path d="M24.6 5c-3.5 0-6 2.7-6 6.2h2.8c0-1.8 1.3-3 3.2-3s3 1.2 3 3-1.3 3.2-4.7 3.2H1.3v3.2h22c5 0 7.4-3.2 7.4-6.4 0-3.6-2.4-6.2-6-6.2ZM5.5 20.8H1.3V24h4.2v-3.2Z" fill="#66b4ff"/></svg>