<svg xmlns="http://www.w3.org/2000/svg" viewBox="0 0 32 32"><g fill="#66b4ff"><path d="M18.8 24.8v3.9c0 .2-.1.4-.3.5a23.1 23.1 0 0 1-9.5.2 12.3 12.3 0 0 1-6.5-4.2c-.8-1-1.5-2.2-1.9-3.5a15.2 15.2 0 0 1 1-11.4c1.2-1.9 2.9-3.5 4.8-4.5 2.1-1 4.6-1.6 7.4-1.6l3 .1 2 .5.2.5v4.2c0 .2-.1.3-.3.2-.7-.3-1.5-.6-2.2-.7l-2.8-.2c-1.7 0-3.2.3-4.4 1a7.3 7.3 0 0 0-2.9 2.9c-.6 1.3-1 2.8-1 4.3 0 1 .2 2.1.5 3.1a7.3 7.3 0 0 0 3.3 4 9.7 9.7 0 0 0 4.6 1h2.6a9.1 9.1 0 0 0 2.3-.6v.3ZM23 15h-2.3c-.1 0-.2-.1-.2-.3v-3.9c0-.1 0-.2.2-.2H23V10c0-.8 0-1.6.2-2.4A6.5 6.5 0 0 1 26 3c1-.7 2.2-1 3.8-1h1c.4 0 .7.1 1 .3l.2.3v3.8c0 .2 0 .3-.3.2h-1.1c-.5 0-.9 0-1.2.2-.4.2-.7.5-.8 1-.2.5-.3 1-.3 1.6v1h3.3l.2.1.1.3v3.8c0 .2-.1.3-.3.3h-3.2v14.2l-.1.2-.3.1h-4.7c-.2 0-.3 0-.3-.3V15Z"/></g></svg>