<svg xmlns="http://www.w3.org/2000/svg" viewBox="0 0 32 32"><path d="M12.1 20.8H5.4L4 25.1c0 .2-.2.3-.4.3H.2c-.2 0-.2-.1-.2-.4L6 8.2c0-.2 0-.4.2-.6l.1-1.1c0-.1 0-.2.2-.2H11l.2.1L18 25.1c0 .2 0 .2-.2.2H14c-.1 0-.2 0-.3-.2l-1.5-4.3Zm-5.7-3.6H11c-.2-1-.6-2-.9-2.9L8.7 9.6c-.4 1.7-1 3.4-1.5 5-.2 1-.5 1.8-.8 2.6ZM31.9 11v13.5l.1.6c0 .2 0 .3-.2.3h-3.1c-.2 0-.3 0-.3-.2l-.1-.5v-.4a6.4 6.4 0 0 1-6.1 1.1c-2.2-.7-3-3.2-3-5.3v-9c0-.1 0-.3.2-.3H23c.1 0 .3 0 .3.2v8.6c-.2 3 2.9 3.2 4.8 1.8V11s0-.2.2-.2h3.5s.2 0 .2.2Z" fill="#66f"/></svg>