<svg xmlns="http://www.w3.org/2000/svg" viewBox="0 0 32 32"><path d="M16 0a16 16 0 1 0 0 32 16 16 0 0 0 0-32Zm10.2 16a22 22 0 0 1-7.5 2.8 7 7 0 0 0 8 1.7c-.3 1.5-1.7 2.8-3.8 3.2 0 .6.7 2.1 1.3 2.7-1.5.5-3.2-.2-4.1-.8-.4.5-.6 2-.6 3-1 0-2.6-1.6-3-2.2-.5.3-1.4 2-1.5 2.8A3.9 3.9 0 0 1 13 26c-.6.5-2.4 1.6-3.3 2-.4-1-.2-2.2 0-3.4-.3.2-3 .4-4 .2.5-.6 1.3-2 1.6-2.6-1.1 0-3.1-.8-4-1.7.7-.4 1.5-1 2.4-1.8-1.1-.6-2.8-1.5-3.2-3 1 0 2.3-.2 3-.5-.9-.5-2.2-2-2-4 .7.4 2.2.7 2.9.6-.6-1.4-1-2.7-.4-4.5.6.7 1.9 1.4 2.5 1.6C8.4 7.5 9 5 9.9 4.3a6 6 0 0 0 1.8 2.3c.1-1 1.4-3.3 2.6-3.6 0 .8.4 2.2.8 2.7.8-.9 3.7-2.4 6-1.9-.7.6-1.2 1.1-1.4 1.6 1.7 0 4.6.6 7 3.2a7.6 7.6 0 0 0-5.5.2 6.7 6.7 0 0 0 4 4.8c2.4-1.7 2.8 1.7 1 2.5Z" fill="#ff6"/><path d="M20.5 9.2a5.9 5.9 0 0 0-3.2 5.2 7 7 0 0 0 1 3.6c1.3-.2 9.2-1.4 6.6-3.7a7.5 7.5 0 0 1-4.4-5.1Zm0 4.8c-1.7.8-2.6-2.2-.7-2.6-.3.4 0 1.2.5 1.1.5 0 .6-.6.4-.9 1 .5.9 2-.1 2.4Z" fill="#ff6"/><path d="M18.2 18c1.4-.2 9.3-1.4 6.7-3.7a7.5 7.5 0 0 1-4.5-5.1 5.9 5.9 0 0 0-3 5.2 7 7 0 0 0 .8 3.7Zm1.6-6.6c-.3.4 0 1.2.5 1.1.4 0 .6-.6.4-.9 1 .5.9 2-.1 2.4-1.9.8-2.7-2.2-.8-2.5Z" fill="#e2e2e4"/></svg>