<svg xmlns="http://www.w3.org/2000/svg" viewBox="0 0 32 32"><path fill="#e2e2e4" d="M16 23.8c-.7 0-1.4-.4-2-1a4.3 4.3 0 0 1-1.4-2.2l.1-.5.5-.2h3.3c.5-.8 1.2-1.5 2-1.9 0-1 .4-1.8.8-2.6.2-.6.6-1.1 1.1-1.5a6.5 6.5 0 0 1 11.1 4l.4.3.1-1c0-4.3-2.7-8.1-7-10.4-4-2.2-6-3.8-7.7-4.4l-.6-.1H16c-1.1 0-2.3.5-3.8 1.3l-1.6 1L7 6.8l-.2.1-1.2.8-.2.1-1.2 1C1.4 11.1 0 14 0 17.3v.5c.3 6.7 7.4 12 16 12v-5.9ZM17.2 3c3.5 1.4 3.7 4.1 3.3 5.7 0 .1 0 .2-.2.2 0 0-.1-.1 0-.2A7.5 7.5 0 0 0 17 3.3c-.2-.1 0-.4.1-.3Zm-1.1.2c2.6 2.7 1.7 5.2.7 6.5-.1.1-.3 0-.3-.1.7-2.1.5-4.4-.7-6.2 0-.2.1-.4.3-.2Zm-1 .2c.9 3.6-1.2 5.4-2.8 6-.1 0-.2-.2-.1-.3a7.5 7.5 0 0 0 2.6-5.7c0-.2.2-.2.3 0ZM8.5 8A7.8 7.8 0 0 0 13.3 4c.1-.2.4-.1.3 0-.8 3.7-3.4 4.5-5 4.4-.2 0-.2-.3 0-.3Zm1.9 10.5a2.5 2.5 0 1 1 0-5 2.5 2.5 0 0 1 0 5Z"/><path fill="#f66" d="m16.2 21 .1-.6h-3.2c.2.6.4 1.1.8 1.6a3 3 0 0 1 2.2-1ZM16 21.8v-.4c-.6 0-1.3.4-1.8 1h.2c.4.5 1 .8 1.6.9v-1.5Z"/><path fill="#9c9c9e" d="M29.9 19.7h-.3v-1.2a4.5 4.5 0 0 0-9.1 0v1.2h-.3c-1.2 0-2.1 1-2.1 2V30c0 1.2.9 2.1 2 2.1H30c1.2 0 2.1-1 2.1-2.1v-8.1c0-1.2-1-2.1-2.1-2.1Zm-4.9 8a1.9 1.9 0 1 1 0-3.7 1.9 1.9 0 0 1 0 3.7Zm2-8h-4v-1.2a2 2 0 0 1 4 0v1.2Z"/><ellipse cx="9.1" cy="19.2" fill="#ff66b4" rx="2.7" ry="1.6"/></svg>