<svg xmlns="http://www.w3.org/2000/svg" viewBox="0 0 32 32"><path d="M9.3 22.6c-1 1.4-1.6 3-1.9 4.8h3.1c-.3-1.5-.5-3-.5-4.6l-.7-.2ZM20 21.1c-.7 2-1.7 4.1-1.2 6.3h4c-1-2.9-1.3-7.1-1.9-8.8l-.8 2.5Z" fill="#ffb466"/><path d="M31.2 11.1c-1.1-1.6-4.3-3-3.3-5.3.2-.4-.1-.3-.1-.3-1.1.3-.5-1.3-1.2-.8-2.2 3.2 2.6 5.6 2.8 8.3-.5 1.7-2.2-.2-2-.6-1-3.8-2.4-5.1-2.4-5.1-7.3.5-15 .3-22 3-1.9 2.8-3 8-3 8 .8-.7 1.6-1.8 2.5-2.5-.2 4 .3 7.8 1.4 11.6h3c.4-2 1.1-3.8 2.3-5.5 1.1.9 3.6.6 3.6.6l1.4 4.9H18c.2-3.4 2-6.4 2.9-9.6 0-.8.8-1.5 1.6-1.4 4.5 2.4 12 1.5 8.8-5.3ZM20.7 15c-.5.9-1.2-.6-1.7-.7-3-.1-1.2-4 .7-4.4-1 .5-2.2 2.7-1.6 3.6 1.6 0 2.3 2.6 2.7 1v.5Zm3.3-2.3c-.3.7-1.3.3-1-.4.1-.7 1.3-.3 1 .4Z" fill="#ffb466"/></svg>