<svg xmlns="http://www.w3.org/2000/svg" viewBox="0 0 32 32"><path fill="#f66" d="M14.7 1.3 9 9.9v5.5H5.5V9.9L0 1.3h4l3.4 5.5L11 1.3h3.7zM12 23v-1l-2.7-5H5.5v13.7h3v-9.5l3 6.4H13c-.7-1.4-1-3-1-4.6ZM10.9 13.6l-.7 1.8h2.5l-1.8-1.8zM14.2 12.4v-.1h6.5v.1h1v-.6l1.6.2L19 1.3h-2.9l-4.7 11.1h2.8Zm3.4-8.1 2 5.1h-4.1l2.1-5.1ZM17.7 23.3l4 4.1 6.6-6.6-1.6-1.5-5 5-2.4-2.5-1.6 1.5z"/><path fill="#f66" d="M16.2 23c0-1.8.7-3.6 2-4.9l2.4 2.3v-6h-6l2 2.2A9 9 0 0 0 22 32h.3v-2.2h-.2c-3.4-.5-6-3.4-6-6.8ZM32 23a9 9 0 0 0-8.1-9h-.3v2.2h.2a6.8 6.8 0 0 1 4 11.7l-2.4-2.4v6h6l-2.1-2c1.7-1.8 2.7-4 2.7-6.5Z"/></svg>