<svg xmlns="http://www.w3.org/2000/svg" viewBox="0 0 32 32"><path d="M30.2 8.6A16 16 0 0 0 10.9.8s-.7.3-.7.3H10l-.1.1-.7.3A16.2 16.2 0 0 0 .2 19s.2.6.2.6v.2l.1.3v.2l.3.7A16.1 16.1 0 0 0 16 32h.6c1.4 0 2.6-1 3.1-2.2l7.7-18.7c.7 1.5 1 3.2 1 5 0 4.6-2.5 8.8-6.7 11l-.6.3 1.7 3.1.6-.3a16 16 0 0 0 6.8-21.6Zm-6.3 1.6-2.5 6.3-2.4-6.3h-4l.6 1.5c-1.1-1-2.5-1.7-4.2-1.7a5.9 5.9 0 0 0-6 6 5.8 5.8 0 0 0 6 6c2.5 0 4.6-1.4 5.5-3.7l.4-.8-3.5-1.2-.3.8c-.3.8-1 1.3-2 1.3-.7 0-1.3-.2-1.7-.7-.5-.4-.7-1-.7-1.7s.2-1.3.7-1.8c.4-.4 1-.6 1.6-.6 1 0 1.7.5 2.1 1.4l.3.6 3-1 2.6 6.6-2.2 5.5-.7 1.7H16A12.5 12.5 0 0 1 3.6 16 12.5 12.5 0 0 1 16 3.6c4.6 0 8.8 2.5 11 6.6h-3Z" fill="#66ffb4"/></svg>