<svg xmlns="http://www.w3.org/2000/svg" viewBox="0 0 32 32"><path d="M23 14a9 9 0 1 0 0 18 9 9 0 0 0 0-18Zm4.5 10.8h-9v-3.6h9v3.6Z" fill="#f66"/><path d="m25.3 6.5-5.5-5.4C19.3.6 18.3 0 17.5 0a4 4 0 0 0-2 .4l-10 5 19.8 1.1Z" fill="#66b4ff"/><path d="m6.5 25.4-.8-16V5.8l-.2-.2L.5 16c-.3.4-.5 1-.5 1.5 0 .9.4 1.8 1 2.5l5.5 5.5.2.2-.2-.3Z" fill="#66f"/><path d="M12 23a11 11 0 0 1 3.8-8.3L5.5 5.5v17c0 1.7.2 2.1 1 3l.9.8L13 32h3.7a11 11 0 0 1-4.7-9Z" fill="#66b4ff"/><path d="m32 13.3-.2-.3-6.5-6.5c-.9-.9-2-1-3.2-1H5.5l9.7 9.7A11 11 0 0 1 32 16.7v-3.4Z" fill="#66f"/></svg>