<svg xmlns="http://www.w3.org/2000/svg" viewBox="0 0 32 32"><path fill="#f66" d="M14.7 1.3 9 9.9v5.5H5.5V9.9L0 1.3h4l3.4 5.5L11 1.3h3.7zM30 19.2l-2.2-2.1c0-.4.2-.8.3-1.1l.1-.6c0-.8-.6-1.4-1.4-1.4-1.6 0-3 .8-3.8 1.9h-4.7c-3 0-5.3 2.3-5.3 5.2S15.4 32 15.4 32h5.2V30h2V32h5.1l1.6-5.3 2.7-.9v-6.6h-2Zm-6.5 1.4h-4.8v-1.9h4.8v2Zm2.8 2c-.5 0-1-.5-1-1s.5-1 1-1 1 .5 1 1-.5 1-1 1ZM31 28.3l-.8 2.4H32v-2.8l-1 .4zM11 21.1v-.8L9.4 17H5.5v13.8h3v-9.5l3 6.4h.7c-.6-2.4-1.1-5-1.1-6.5ZM14.3 12.3h6.3l.6 1.6h1c.4-.5.9-.8 1.5-1.1L19 1.3h-2.9l-6 14H13l1.3-3Zm3.3-8 2 5.2h-4.1l2.1-5.2Z"/></svg>