<svg xmlns="http://www.w3.org/2000/svg" viewBox="0 0 32 32"><path d="m18.8 30.6-1.3.6c-1.1.3-2.3-.2-2.9-1.2l-1.8-3c-.4-.8-.4-1.6 0-2.3l-1.6-1h2.2l1-.7-1-.8c-.5-.4-.8-1-.9-1.6h-4a3 3 0 0 0-.2-.4l7.4-13h.6l3.2 5.7c.5-.5 1.2-.9 2-.9h1.2l-2.4-4 2.8 1.6c0 .8.2 1.7.8 2.4H25c1.2 0 2.2.9 2.4 2l.2 1.4.6-.3v-2c4.6-2.5.8-9-3.6-6.3l-5-3c.1-5-7.5-5.1-7.3 0l-5 3C2.8 4-1 10.7 3.6 13.1v5.8c-4.6 2.5-.8 9 3.6 6.3l5 3c0 4 4.7 4.8 6.5 2.5Zm-12-14.3V13a3.6 3.6 0 0 0 2-3.5l2.9-1.7-4.8 8.4Z" fill="#f6f"/><path d="M30 23.9V22l1.8-1.5c.2 0 .2-.3.1-.5L30.1 17c0-.2-.3-.3-.5-.2l-2.3.8-1.5-.8-.3-2.4c0-.2-.2-.4-.5-.4h-3.6c-.2 0-.4.2-.4.4l-.3 2.4a7 7 0 0 0-1.6.8l-2.2-.9c-.2 0-.4 0-.6.3l-1.7 3c-.2.3-.1.5 0 .6l2 1.5-.1.9v.9l-1.8 1.5c-.2 0-.3.3-.2.5l1.8 3.1c.2.2.4.3.6.2l2.2-.8 1.6.8.3 2.4c0 .2.2.4.4.4H25c.3 0 .5-.2.5-.4l.3-2.4c.6-.2 1-.5 1.5-.8l2.3.9c.2 0 .4 0 .5-.3l1.8-3v-.6l-2-1.5Zm-6.7 2.5c-2 0-3.4-1.6-3.4-3.4s1.5-3.4 3.4-3.4 3.3 1.5 3.3 3.4-1.5 3.4-3.4 3.4Z" fill="#9c9c9e"/></svg>