<svg xmlns="http://www.w3.org/2000/svg" viewBox="0 0 32 32"><path fill="#66b4ff" d="m32 12.9-12.3.1L16 2.8 12.3 13 0 12.9l10 6.2-3.9 10.2 9.9-6.4 9.9 6.4L22 19.1l10-6.2z"/><path d="M26.4 16.9a44 44 0 0 1-.2-1.9l-.3-1.4v-.7c0-.4-.2-.8-.4-1l-.2-.1-.2-.1H24.8c-.3 0-.5.1-.7.5l-.1.4-.2-.5c-.2-.3-.4-.5-.7-.4H23l-.2.2-.2.4c-.3-.4-.7-.6-1.1-.6-.2 0-.4 0-.6.2a.5.5 0 0 0-.3-.1c-.3 0-.5.1-.6.4v.2c-.5-.6-1-1-1.5-1-.4 0-.9.3-1.3 1.3-.3-.7-.7-1-1.2-1l-.3-.1c-.6 0-1 .7-1.3 1.3 0-.5-.4-.8-.7-.8-.2 0-.3 0-.4.2l-.1-.1c-.3-.3-.8-.2-1 .2-.1-.2-.3-.4-.5-.4s-.5.1-.6.5l-.2.5v-.6c0-.4-.2-.7-.4-.9.1-1.3.2-2.8-.1-3.8-.2-.5-.6-.8-1-.8s-1 .2-2.3 2.7c-.6 1.2-1.3 2.7-1.5 3.5a6.4 6.4 0 0 0 0 3.9c.2.5.4.9.8 1.2h-.2c-.3.2-.5.5-.5 1 0 .4 0 .8.2 1 .3.5.6 1.1.8 1.9 0 .3.2.5.4.6l.2.1.3-.1 1-.5c1-.4 2.2-1 2.8-3l.1-.4v.3c.4 1.3 1 1.5 1.3 1.5.4 0 .8-.2 1.2-.6.1-.2.3-.5.3-.9.3.4.6.6 1 .6.7 0 1.4-.5 1.8-1.4.4.7 1 1.2 1.7 1.2s1.3-.6 1.7-1.6l.2 1.1c.5 1.4 1 1.8 1.5 1.8v.6l-.1.9c0 .2-.1.3-.3.5-.2.2-.3.5-.3.8l.1.9c.2.4.5.6.8.6l1.3-.4.4.2c1 0 1.9-1.2 2.3-2.5v-.2l.2-.6v-.7l.1-1.3c0-1.1-.2-2-.3-2.7Zm-16.3 1.4c-.3 1-1 1.3-1.9 1.6l-.5.3V20c.8-.4 1.8-1 2.5-2v.3Zm3.6-2.5v.1-.1Zm8.5 2.5v.1l-.1-.3h.2v.3Zm1 1.9.2-.4v.4h-.2Zm1.3-5.6.2 1-.2-1Zm.2 4.4v-.5.5Z"/><g fill="#fff"><path d="m10 12.4-.4 2c-.3 1.1-1 2.4-1.8 2.4-1.2 0-1.6-2.3-1-4.1.2-1 1.7-4.4 2.5-4.4.7 0 0 3.8-.2 4.7-.1.5-.4 1.2-.8 1.2s-.4-1-.3-1.6l.4-1c.2-.4-.2-.8 0-1.3-.5.5-.7 1.2-1 1.8-.2 1.2-.3 2.7.6 2.7.7 0 1.3-1.3 1.5-2.2.3-1 .8-4.6 0-4.6-1 0-2.9 4.3-3.2 5.6-.7 2.1-.1 3.7 1.2 3.7 1 0 1.8-1.2 2.3-2.7l.1-.8c.3.5.4 1.7.2 2.4-.5 1.7-2.8 2.6-3.7 3.1a7 7 0 0 1 1 2.2c1-.7 2.8-.7 3.4-2.8.5-1.7-.7-4.6-.7-6.3H10ZM13.3 13.8c-.4 0-.3-.5-.5-.7-.1.3-.6 1.4-.8 1.4l-.3-1.4-.4.9c1 1 .4 5.3 1.5 5.3.2 0 .5 0 .8-.3v-2c-.3.2-.6.5-.9.5-.4 0-.9-2-.7-2.7l.2-.2c.1 0 .4.5.7.5.3 0 .6-.6.8-1v-.9c-.1 0-.2.7-.4.7ZM16 12.7h-.3c-.4 0-.8 1-1 1.4-.4 1.7-.6 4.4.6 4.4.7 0 1.2-.8 1.5-1.8.4-1.4.1-4-.8-4Zm.8 2.6c-.1.7-.6 1.3-1 1.3-.8 0-1-1.6-.7-2.8 0-.3.2-.6.4-.8-.3.8-.4 2 .2 2 .1 0 .4-.2.4-.4.1-.3-.5-.8-.4-1.3 0-.2.2-.3.3-.3.5 0 1 1.5.9 2.3ZM18.5 12.5c-.4 0-.7.6-.8 1.1-.7 2.3-.4 4.6 1.1 4.6.5 0 1-.4 1.2-1.2.5-2-.3-4.5-1.5-4.5Zm1.4 2.8c-.2.6-.6.9-1 .9-.8 0-1.4-1.4-1-2.8l.4-.7c-.4.8 0 1.8.4 1.8l.3-.2c0-.5-.6-.8-.5-1.2 0-.2.1-.3.2-.3.6 0 1.5 1.6 1.2 2.5ZM22.9 18.8c.6-2-.1-6-1.4-6 0 0-.2 0-.3.2-.1.7.2 1.5.5 1.6.3-1.1 0-.7 0-1.3l.1-.1c.6 0 1.1 1.8.9 2.9-.2.4-.4.8-.6.8-1.2 0-1-3-1.5-4l-.2.4c.8 1.4.4 6.3 1.9 6.3.3 0 .5-.4.6-.8Z"/><path d="m25.7 17.1-.4-3.4-.2-.8v-.1h-.4c.3.8 1 2.4.6 3.8-.1.3-.3.6-.6.6-.8 0-.8-3.2-1.4-4.4l-.2.4c1 1.4.4 7.3 1.6 7.3.3 0 .5-.4.6-.8.2-.9.3-2 .2-2.7v-.1.5l.2 1a6 6 0 0 1-.2 2c-.8 2.5-2.3 1.1-2.6 1.1l-.3-.2-.1 1.5c-.2.4-.3.7-.6 1l.2.1c.6 0 2.7.9 3.7-2.2v-.5c.3-1.5.1-2.9 0-4Z"/></g></svg>