<svg xmlns="http://www.w3.org/2000/svg" viewBox="0 0 32 32"><path d="M12.3 23.4c-.6-1-.4-2.2.5-3h.2l-.2-.2c-.9-.8-1-2-.5-3l1.2-2.1.2-.2v-10H9v15.5c0 2.3-1 2.9-2.4 2.9s-2.3-1.1-3-2.4L0 23.2a7 7 0 0 0 6.8 4.2c2.8 0 4.9-1 6-3l-.5-1ZM25 24.6l1.2-2.2V22l-1.4-1V19.6l1.3-1c.2-.2.2-.3.1-.5L24.9 16h-.3l-1.6.5-1-.6-.3-1.7-.3-.2h-2.6c-.1 0-.3.1-.3.3l-.2 1.6-1 .6-1.6-.6c-.2 0-.3 0-.4.2L14 18.2v.4l1.4 1.1v1.2l-1.3 1c-.1.2-.2.3 0 .5l1.2 2.2c0 .1.2.2.4.1l1.5-.6 1 .6.3 1.7.3.2h2.6c.1 0 .3 0 .3-.2l.2-1.7 1-.6 1.7.6.3-.1ZM20 22a1.8 1.8 0 1 1 0-3.6 1.8 1.8 0 0 1 0 3.6ZM32 29l-1-.6.1-.4v-.4l.8-.7v-.3l-.7-1.4h-.3l-1 .4-.7-.5-.1-1-.2-.2h-1.6c-.1 0-.2 0-.2.2l-.2 1-.7.4-1-.4-.2.1-.8 1.4v.3l.9.7a2.6 2.6 0 0 0 0 .8l-.9.6v.3l.8 1.4s.1.1.2 0l1-.3.7.4.2 1c0 .1 0 .2.2.2h1.6s.2 0 .2-.2l.1-1 .7-.4 1 .4.3-.1.8-1.4V29Zm-4 .2a1.2 1.2 0 1 1 0-2.5c.7 0 1.3.6 1.3 1.3s-.6 1.2-1.2 1.2Z" fill="#ff6"/><path d="M18.8 12h2.6c1 0 2 .8 2.2 1.9v.2h.2c1-.4 2.3 0 2.8 1l1.3 2.1c.6 1 .4 2.2-.5 3h-.1v.2c.5.4.8 1 .9 1.5h.7c.8 0 1.6.5 2 1.2.2 0 .4 0 .7.2.2-.7.4-1.5.4-2.3 0-3.8-2.2-5.5-6-7.2l-1.2-.5c-2-.8-2.8-1.4-2.8-2.7 0-1.1.8-2 2.1-2s2.2.6 3 2l3.5-2.3c-1.5-2.6-3.6-3.7-6.5-3.7-4 0-6.6 2.7-6.6 6 0 .7 0 1.2.2 1.7.3-.2.7-.3 1.1-.3Z" fill="#ff6"/></svg>