<svg xmlns="http://www.w3.org/2000/svg" viewBox="0 0 32 32"><path d="m19.7 15.6 2.5-4-.2-1c0-1.1.8-2 2.2-2s2.1.6 3 2l3.5-2.3c-1.5-2.6-3.6-3.6-6.5-3.6-4.1 0-6.7 2.6-6.7 6a6 6 0 0 0 2.2 5ZM26 13.8l-1-.4 5.5 9 1.1.8c.3-.7.4-1.4.4-2.2 0-3.8-2.2-5.5-6-7.2ZM23 14l-5 8.1h10L23 14Z" fill="#ff6"/><circle cx="27.9" cy="27.9" r="4" fill="#ff6"/><path d="M14.9 24.4h7.2v7.2h-7.2v-7.3ZM12.9 22.4h.6l.2-2V5H9v15.5c0 2.3-1 2.9-2.4 2.9s-2.3-1.1-3-2.4L0 23.2a7 7 0 0 0 6.8 4.2c2.8 0 5-1 6-3.2v-1.8Z" fill="#ff6"/></svg>