<svg xmlns="http://www.w3.org/2000/svg" viewBox="0 0 32 32"><path d="M22.5 12a2 2 0 0 1-.5-1.4c0-1.1.8-2 2.2-2s2.1.6 3 2l3.5-2.3c-1.5-2.6-3.6-3.7-6.5-3.7-4.1 0-6.7 2.7-6.7 6l.1 1.4h5ZM18.8 24.8l-2-2.5-.7.4a8.1 8.1 0 0 0 2.7 3v-.9ZM27.3 24.8V27c2.8-.8 4.7-2.9 4.7-6 0-.7-.1-1.3-.3-2l-4.4 5.8ZM12.8 17a3.1 3.1 0 0 1 .9-4.6V5H9v15.5c0 2.3-1 2.9-2.4 2.9s-2.3-1.1-3-2.4L0 23.2a7 7 0 0 0 6.8 4.2c4 0 6.8-2.2 6.8-7v-2.2l-.9-1.1Z" fill="#ff6"/><path d="m14.3 15.8 6.5 8.3V31c0 .6.5 1 1.1 1h2.3c.6 0 1.1-.4 1.1-1V24l6.5-8.3c.5-.7 0-1.8-1-1.8H15.3c-1 0-1.4 1-.9 1.8Z" fill="#ff6"/></svg>