<svg xmlns="http://www.w3.org/2000/svg" viewBox="0 0 32 32"><path d="M22 2c.4-.3.8-.6 1.2-.7.5 1.2.7 2.5.7 3.8 0 2-.3 3.9-.7 5.8l-1.3-.6c.3-1.5.4-2.9.3-4.3 0-.4-.1-.7-.3-1-1 .5-1.8 1.3-2.3 2.3l-1.1-.7c1-1.7 2.1-3.3 3.6-4.6Z" fill="#e2e2e4"/><path d="M20 7.5c.4-.7 1-1.3 1.7-1.8.2 1 .2 2 0 3.1L20 7.5ZM16.5 9.2V5.3l-3 1.9-1.6.9.8-.5c-1-1.4-2.2-3-4-3.2-.6 2-.8 4-.4 5.9l1-.7-1.6 1c-1 .8-2.2 1.4-3.3 2.1l-.5.4-.3 5-1 12.6 14 1.2V9.2Z" fill="#e2e2e4"/><path d="M21.8 1.1C22.4.6 23 .3 23.7 0c.7 1.7 1 3.5.8 5.3 0 1.7-.2 3.4-.5 5l4 3 1.1 14.5c.1 1 .1 2 .3 2.9l-10.4 1-2.5.3V5.1l1.4 1c1-1.9 2.3-3.6 4-5Zm.3.9a17.8 17.8 0 0 0-3.6 4.6l1.1.7A6 6 0 0 1 22 5c.2.3.3.6.3 1 .1 1.4 0 2.8-.3 4.2l1.3.7c.4-2 .7-3.8.7-5.8 0-1.3-.2-2.6-.6-3.8-.5.1-.9.4-1.2.7Zm-2.2 5.6 1.9 1.2c.2-1 .1-2-.1-3-.7.4-1.3 1-1.7 1.8ZM8.3 3.5c.9 0 1.7.3 2.5.8 1 .9 1.9 1.8 2.7 2.8l-1.6 1 .8-.6c-1-1.4-2.2-2.8-4-3.1-.6 1.9-.8 4-.4 5.9l1-.7-1.6 1a16 16 0 0 1 .6-7.1Z" fill="#ffb466"/><path d="M9.7 7.4c.7.1 1.3.5 1.8 1l-.5.2c-.3-.2-.6-.5-1-.6-.2.5-.2 1-.2 1.5h-.4l.3-2.1ZM11.6 10c.2-.2.4-.2.6 0V13.2c0 .6-.6 1-1.2 1-.2 0-.3-.4-.3-.6v-2.3c0-.6.3-1.2.9-1.5Zm.2 1.2c.2-.3.3-.7.2-1-.3.2-.7.7-.2 1ZM6.4 12.8c.2-.1.5-.2.7-.1l-.1 3c0 .4-.4.8-.9.8H6v-2.6c0-.4.2-.8.4-1Zm.2 1c.3-.2.4-.5.5-.8-.5 0-.5.5-.5.8ZM8.3 18c.2-.3.6-.5.8-.2 0 .5-.3.9-.6 1.2-.2-.3-.5-.8-.2-1ZM14.3 13.4c-1.5.7-2.9 1.6-4 2.8-.5.3-.9.8-1.2 1.4l1.3-1.2c1-1 2.3-2 3.7-2.6l2.3-1 .1-.3c-.8.2-1.5.5-2.2.9ZM9.4 17.9l.8-.4c1.6-1 3.3-1.8 5.1-2.2V15c-1.8.4-3.6 1.2-5.2 2.3-.3.1-.6.2-.7.6ZM6.9 17.3a6 6 0 0 0-3.2.5l-.1.3c.9-.4 1.8-.6 2.8-.6.6 0 1.2.3 1.8.5-.3-.4-.8-.7-1.3-.7ZM14 17.3a11 11 0 0 0-4.2.7c-.3 0-.7 0-.7.5 1-.4 2-.6 3-.8.7-.2 1.5-.2 2.2.1 0-.3 0-.5-.4-.5ZM7 18.5c.3 0 .7 0 1-.2-1.3-.1-2.6.1-3.7.7-.2 0-.3.2-.4.4l1.2-.5 2-.4ZM4.4 20.7a9 9 0 0 1 3-1.6c.2-.1.6-.2.7-.5-.9.2-1.7.5-2.5 1-.5.2-1.1.5-1.2 1.1ZM11 20.2c1-.2 1.7-.8 2.2-1.5.4-.2.3.3.3.5-.2.5-.6 1-1.1 1.2 0 2.6-.7 5.1-2 7.3-.6 1-1.5 1.5-2.5 1.4-.9-.2-1.5-.8-1.8-1.7-.6-1.7-1-3.5-.8-5.3l-.5-.4c-.2-.2 0-.5 0-.7l.7.5c.8 0 1.5-.2 2.1-.5.4-.2.7-.4.9-.8l.4.3a5 5 0 0 0 2-.3Zm-2.5 1c-.8.6-1.8 1-2.8.9 0 1.4 0 2.7.4 4 .2-.5.6-1 1-1.4.8-.6 1.8-.7 2.7-.3.4.4.8.8 1 1.4.6-1.7 1-3.4 1.1-5.2a6 6 0 0 1-3.4.6Zm-.4 3.7c-.8.3-1.4.9-1.7 1.7-.1.3.1.5.3.8.3.5.9 1.1 1.6 1 1-.3 1.7-1 2-1.8a1.8 1.8 0 0 0-2.2-1.7Z" fill="#ffb466"/></svg>