<svg xmlns="http://www.w3.org/2000/svg" viewBox="0 0 32 32"><path d="m20.9 13.7.1-.6c-.6 0-.4.2-.1.6ZM21.5 14.7l1.2 2c0-.8-.4-1.4-.6-2.2l-.6.2ZM5.9 13.4v-2.1c3-.8 6.3-9.1 10.7-4L17 7c-1.3 3 2.9 2.5 2 4 1.4-.5-1.3-1.2.7-2.2 1.2-1.2-1-2.3-2-2.5.8.3 1.3 1 1 2 0 .2.6.2.4.6-.8-.6-.3-2-1.5-2.2-1 .1-1.3-1.1-2.3-1.4-4.5-2.5-6.6 5-9.9 5.4-4.1-1.2-1-8.2 2.7-7.9 1.8-.2 3.9 1.1 4.9-.6C7.4 0-.5.6 0 8.8-.4 11.6 5 18 6 13.4Z" fill="#e2e2e4"/><path d="M31.8 6C30.5.8 24.7.4 20.8 2.6c1.1 1.8 4.3-.4 5.9 1 2.5 1 3.6 6.6.3 7-3-1.6-5-8.3-9.1-4.6 1.7.3 3.6 2.3 1.4 3.5-.4.2-.2.6.2.8.4.6-.6 1.3-1.1.7 1.8-.7-2.2-1-1.8-2.3-2.8 1-6 0-8.5 2.2-1.4 1-2.4 5.6-3.1 7.6-.4.3-1.2.5-1 1.3 3-1 7.7-2.2 7.9-7 .1 1.5-.8 3.6.4 5-.4-.4-.8-1.2-1-1.8-1.3 1.5-2 2.4-1.6 4.4.6.4.5 1 .6 1.6.6.4.8.2 1 1 .8 0 1 .6.5 1.1-.2.5.1.8.5.9 2.8.3.2 2.2 1.9 3-.5-1.2.4-1.3 1-2-.1.8 0 1.6 1 1-1 .9 0 2 1 2.2-.2.7 0 1.4.7 1.8-1.4-1.8 2.2-1.8 1.7-3.5.3.5.2 1.1 0 1.6l.6-.7v.4c1.5-.7.3-1.6.4-2.6-.5-.3-1 0-1.5.2-.5-.1-.8-.5-1.3-.4 1.1-.6 3.6-.7 5-.7 1-1.3-.3-2-1.6-1.7-4.8 1.5-4-1.7-6.6-3.6.8-.2 1.2.7 1.5 1.2.2-.6.1-.9.7-1.3-2 2.7 2.3 4.5 4.5 3.3 3.3.3 4.2-1.6.6-1.5 1.6-.5 3.7-1.6 3-3.6-1.8-1-1.9.6-3.2-2.5-4-4 .6-6.8-.9-4 .4 0 .7 0 .9.3-.7-.7-1.4.4-1.3 1 1.7-.1 2.7-1.2 1.1-2.5-.3-.9-.3-1.6-1.5-1.4 1.2-1-.3-2.3-1.2-2.8 3.8-1.7 5.6 4 8.5 5.4l-.5 1.7c.2 3 3.5.4 4.3-1.3 1-1.7 1-4 .7-5.8Zm-15.1 4.4c.2 0 .2-.2.3-.2.4 1.2 1 2.1 1.4 3.3-.8-.8-.8-1.7-1.3-2.6-.5 0-1-.3-1-.8l.6.3ZM13 11.8l-.5.2c.4-.3.2-1 .3-1.3-.4-.2-.7.5-.7.9-.6.3-1 .9-1.7 1 1-.4 1-1.6 2-2.2.6 0 1.2-.2 1.6-.8 0 .8-.1 1.7-1 2.2Zm1 7.5c0 .2 0 .3-.3.4-.2-.7.4-.6 1-.6l-.7.2Zm1.7-4.7c-3.1-.3-2.5-2.2.4-2 .1-1.6-1.6-.8-2.4-.4 1.6-1.3 2.7-.8 3 1.1-.1-.4-.6-.3-1-.2.5.2.3 1-.2 1-1 .3-.6-1.5-1.6-.5.5 1 2.5 1.4 2.8 0 0 .7-.4 1-1 1Zm.6.6c.5-.2.6-.6.7-1.1 0 .6 0 1-.7 1Zm4 5.5-.3-.8c-.2-.4-.7-1-1.2-1 .3.5-.4.7-.7.4-.5-2.1 2.8-.1 2.2 1.4Zm-.2-3.3c.8.4 1.3 1.3 2.2 1.4-1.6 0-4.6-3.7-5.4-.7.3-.6 1.3-.8 1.5 0-1-1-.9.9-1.4.5l.1.7c-2-2 1.5-3.6 3-1.9Z" fill="#e2e2e4"/><path d="M21.6 9.6c.2.9 1.7 2 .5 3 .4.1.6.6.5 1-.3 0-.3-.4-.6-.4.1.4 0 .9-.5.9h-.4c.4.7 1-.2 1.6-.1-1.4 1.5 4.6 4 5.3 2.3-2-.5-3-8.4-6.4-6.7Z" fill="#e2e2e4"/></svg>