<svg xmlns="http://www.w3.org/2000/svg" viewBox="0 0 32 32"><path d="M7.7 10.2v.1ZM23.7 12.7h-.1.1Z" fill="none"/><path d="m10 14.3-1 1.1c.7-1 .8-2.1.6-3.3a4 4 0 0 1-1 1.6c1-1.5.7-3.4 0-4.9-.1.5-.5 1-.9 1.4v.1l-2.5 2.2-2.7-1.3c.3 4.3 1 8.7 3 12.7.2 0 2.6 1.4 2.8 1.3l.8-.7c2.5-2.5 2-7 .8-10.2ZM7.9 25.1l.3.2" fill="#f66"/><path d="M7.4 3.1 7 2.5C4.5-1.9 2.2 0 2.4 4.3c-.2 2.2-.1 4.6 0 6.9l2.9 1.3 2.3-2.2C9 7.9 8 5.4 7.4 3ZM29.4 2.6c-1-2.6-3-1-5.3 1a61.6 61.6 0 0 0-5.4 5.7c.1.2 1 3.3 1.3 3.3 4.7 1.2 7.8-2.6 9.3-6.6.8-2.3.1-3.4.1-3.4Z" fill="#ffb466"/><path d="M25.4 12.4c-.5.2-1.2.3-1.8.3l-3.9-.4-1-3c-3 4.6-9.5 10.2-6.5 16h1.3-.1c4 0 7.2-4 8.8-7.5a5 5 0 0 1-1.5.2 5 5 0 0 0 3-2.2c-.4.2-1.3.5-2 .5 2-.4 3.2-2.2 3.9-4l-.2.1Z" fill="#f66"/><path d="M7.8 27.8c-.3.3-.8.5-1.4.7.9.1 1.4 0 1.6-.1-.5.4-.8 1.1-1 1.9.5-.9 1-1.5 1.6-1.7.3 1.2 0 2.3-.6 3.4h.2l1-1.6.5 1.6h.2c-.4-1.2-.5-2.4.2-3.5.7.2 1 .7 1.3 1.5 0-.6 0-1.2-.5-1.7 2.2.5 4.2.1 5.3-1.6-.5.5-1 .6-2 .4a5.8 5.8 0 0 0 3.7-2.6c-1.8 1.4-6 1.8-6.2-.8-.4-.7 0-1.6-.3-2.4 0 .3-.2.5-.3.8v-.2c-.4.8-.5 1.7-1.4 2-1.3-1.4-.8-.6-.4.4-1 1.7-2.7 0-3.9-.4l1.2 2.3c-4-.7.5.5 1.2 1.6Z" fill="#b466ff"/></svg>