<svg xmlns="http://www.w3.org/2000/svg" viewBox="0 0 32 32"><path d="m23.2 11.1.6-4 3 3-3.1 1.3-.5-.3ZM27.6 10.9l3.2 3.2c.7.7 1 1 1.1 1.4v.2l-7.7-3.3v-.1l3.4-1.5ZM31.9 16.7l-1 1.2-3.7 3.6-4.7-1h-.1c0-.4-.3-.7-.6-1s.9-5.5.9-5.5v-.1c.4 0 .8-.3 1-.6h.1l8 3.4ZM26.3 22.4l-6 6 1-6.3.1-.1.6-.4 4.3.8ZM19 29.6l-.6.7-7.5-10.8v-.2h.1l8.4 1.7c.1.5.5.8.9 1v.1L19 29.7ZM17.6 31l-1 1h-1c-.5-.2-.8-.5-1.5-1.2l-7.5-7.5 2-3c0-.1 0 0 0 0 .5 0 1 0 1.4-.2h.1l7.5 11ZM5.9 22.6l-1.7-1.8 3.4-1.4.2.2-2 3ZM3.4 20 1.2 18 .4 17 7 18.4h.1v.1l-3.7 1.6ZM0 16v-.5c.2-.4.6-.7 1.2-1.4L4 11.3 7.9 17v.1a2.4 2.4 0 0 0-.4.5L0 15.9ZM4.8 10.6l3.7-3.8L11.3 8a113.5 113.5 0 0 1 2 .8c-.2.6 0 1.2.4 1.6v.1l-3.8 6h-.2a1.7 1.7 0 0 0-.8 0l-.1-.1-4-5.8ZM9.3 6 14 1.3c.7-.7 1-1 1.4-1.1h1c.4.1.7.4 1.4 1.1l1 1-3.4 5.4h-.1c-.6-.1-1.1 0-1.6.4L9.2 6ZM19.7 3l3.2 3.2-.8 4.7-.5.3-4.9-2-.3-.8v-.2L19.6 3ZM16.4 10.2 21 12v.5L10.8 17l3.7-5.9h.4c.6 0 1-.3 1.4-.8h.1ZM11.2 17.8l10.3-4.3.1.1h.1l-.9 5.5c-.5.1-1 .4-1.2.8l-8.2-1.6-.2-.5Z" fill="#66ffb4"/></svg>