<svg xmlns="http://www.w3.org/2000/svg" viewBox="0 0 32 32"><path fill="#b466ff" d="M12 25c-.5 1.8-2 5.2-3.3 2 .7-.9 2-2 3.4-2ZM22.6 21.7c-.8 2 .3 9.4-3 5.5.3-1.8 1.5-4 3-5.5Z"/><path fill="#b466ff" d="M31.6 9c-.5-1.6-1.5-.7-2.8-.6A45 45 0 0 0 22 4l.6 2.3c0-.1-2.4-2-5-3.1 0 .1.8 1.7.8 2 0 0-2.5-.8-6-1.1 0 0 1.7 1.1 2.3 2h-6s2 .9 3 1.6c-.6 0-5.5.7-6.9 1.2 0 0 2.8 1 3.5 1.7 0 0-3.5 1-7 3 0 0 2 .4 3.5 1 0 0-2 1.5-4.9 5.2.1 0 2.8-.4 3.6-.3 0 0-1.8 2.2-2.8 5.5 0 0 1-.6 2.1-.9 0 0 .1 4 2.3 4.6 2.9 0 3.5-5.2 7.2-4.4 2.5.1 2.7 3.8 4.8 4.5 1 0 1.3-1.1 1.7-2.5 1-8.4 15.8-8 12.7-17.3Zm-12.2.4-1.9.6-4.2-1.1 6 .4ZM14.8 11l-1.4 1-4-.4 5.4-.6Zm-7.4 8.3-2.6 2.3 2.7-4.1-.1 1.8ZM4.9 17l4.9-3.5-.9 1.8-4 1.7Zm9.4-1L9 17.2l6.2-3-1 1.8Zm5-2.7-4-.2 5.5-.6-1.4.8Zm2.3-2.4-3.1.2 4-.9-.9.7Zm-.5-2.6-3.5-1.6 5.1 1.3-1.6.3Z"/></svg>