<svg xmlns="http://www.w3.org/2000/svg" viewBox="0 0 32 32"><path d="M5.4 18.2c1 0 1.7-.1 2.2-.5.4-.3.8-1 1-1.8 0-.8 0-1.4-.3-1.7-.3-.3-.9-.4-1.8-.4H5L4 18.2h1.3ZM.2 23.8l-.1-.1-.1-.2 2.3-12 .3-.1h5c1.5 0 2.7.4 3.4 1.3.7.8 1 2 .7 3.5a5.7 5.7 0 0 1-1.7 3 5 5 0 0 1-1.8 1c-.7.3-1.5.4-2.5.4h-2l-.6 3-.3.2H.2ZM17.6 20.6h-.2v-.3l1-5.2v-1c-.2-.1-.4-.3-1.2-.3h-1.8L14 20.4c0 .1-.1.2-.3.2h-2.7v-.3l2.2-11.9.3-.2H16l.2.1s.1.1 0 .2l-.5 2.9h2c1.5 0 2.6.3 3.2.8.6.6.8 1.5.5 2.7l-1 5.5-.3.2h-2.6ZM25.6 18.2c1 0 1.7-.1 2.2-.5.4-.3.8-1 1-1.8 0-.8 0-1.4-.3-1.7-.2-.3-.8-.4-1.7-.4h-1.6l-.9 4.4h1.3Zm-5.1 5.6-.2-.1s-.1-.2 0-.2l2.2-12 .3-.1h5c1.5 0 2.7.4 3.4 1.2.7.9 1 2 .7 3.5a5.7 5.7 0 0 1-1.7 3 5 5 0 0 1-1.8 1.2c-.7.2-1.5.3-2.5.3h-2l-.6 3-.3.1h-2.5Z" fill="#66f"/></svg>