<svg xmlns="http://www.w3.org/2000/svg" viewBox="0 0 32 32"><path fill="#f6f" d="M25 12c.7 0 1.3 0 1.8.3A16 16 0 0 0 0 24h3.2a12.8 12.8 0 0 1 18.9-11.3c.8-.4 1.9-.7 3-.7Z"/><path fill="#f6f" d="M20.6 13.8A11.2 11.2 0 0 0 4.8 24H8a8 8 0 0 1 10.8-7.5c.4-1 1-2 1.8-2.7Z"/><path fill="#f6f" d="M18.4 18c-.7-.2-1.5-.4-2.4-.4A6.4 6.4 0 0 0 9.6 24h3.2a3.2 3.2 0 0 1 3.4-3.2 4 4 0 0 1 2.2-2.7Z"/><path fill="#9c9c9e" d="M29.9 19.7h-.3v-1.2a4.5 4.5 0 0 0-9.1 0v1.2h-.3c-1.2 0-2.1 1-2.1 2V30c0 1.2.9 2.1 2 2.1H30c1.2 0 2.1-1 2.1-2.1v-8.1c0-1.2-1-2.1-2.1-2.1Zm-4.9 8a1.9 1.9 0 1 1 0-3.7 1.9 1.9 0 0 1 0 3.7Zm2-8h-4v-1.2a2 2 0 0 1 4 0v1.2Z"/></svg>