<svg xmlns="http://www.w3.org/2000/svg" viewBox="0 0 32 32"><g fill="#66b4ff"><path d="M0 28V4C0 4 0 4 .2 4h1.3c3.3 0 7.7-.6 10.7.5 5.2 1.6 6.8 8.4 4 12.5C13.6 20.5 9 20.7 5 20.5v7.4c0 .2 0 .3-.2.3H.3c-.2 0-.3 0-.3-.3ZM5 8.4V16c1.6.1 3.3.2 4.8-.3a4 4 0 0 0 2-1.3c.4-.5.7-1.3.7-2.3 0-.8-.2-1.5-.6-2.1-.4-.6-1-1-1.6-1.3-.8-.4-1.8-.5-2.7-.5H5ZM20.8 9.7h4c.3 0 .5.2.6.4l.1.6.2 1.5c.7-.8 1.5-1.5 2.5-2 1-.6 2.3-.9 3.5-.9.1 0 .3.1.3.3v4.6c0 .2-.1.2-.4.2a10.5 10.5 0 0 0-4.4.9c-.5.2-.9.5-1.2.9V28c0 .2 0 .3-.3.3h-4.6c-.2 0-.3-.1-.3-.3l-.1-16.4V9.7h.1Z"/></g></svg>