<svg xmlns="http://www.w3.org/2000/svg" viewBox="0 0 32 32"><path d="M26.3 5.8c-.4-1.3-1-4 1-5.7-2.2-.4-4.5.5-5.8 2.3a13.6 13.6 0 0 0-11 0A5.5 5.5 0 0 0 4.6.1c2 1.6 1.4 4.5 1 5.8-2.6 3-4 6.6-4 10.5 0 3.2 2 6.9 2.5 11.8l2.6-2.3c2.8 1.6 6 2.3 9.2 2.2 3.2.1 6.4-.6 9.2-2.2l2.6 2.3c.4-5 2.5-8.6 2.5-11.8 0-3.9-1.4-7.7-4-10.6Z" fill="#f66"/><path d="M8.5 31.7a2.4 2.4 0 1 1 4.8-.1v.2a3.3 3.3 0 1 0-4.8.2v-.3ZM23.2 31.7a2.4 2.4 0 1 0-4.8-.1v.2a3.3 3.3 0 1 1 4.8.2v-.3Z" fill="#9c9c9e"/><circle cx="9.4" cy="11.3" r="5.7" fill="#e2e2e4"/><path d="M10.6 9a2.8 2.8 0 0 0 0 5.6 2.8 2.8 0 0 0 0-5.5Zm-.8 2.7c-.3 0-.5-.2-.5-.5s.2-.5.5-.5.6.2.6.5-.3.5-.6.5Z"/><circle cx="22.5" cy="11.3" r="5.7" fill="#e2e2e4"/><path d="M23.6 9a2.8 2.8 0 0 0 0 5.6 2.8 2.8 0 0 0 0-5.5Zm-.7 2.7c-.3 0-.6-.2-.6-.5s.3-.5.6-.5.5.2.5.5-.2.5-.5.5Z"/><path d="M16 22.3c0-2 3.1-5 3.1-7.2a3.2 3.2 0 0 0-6.4 0c0 2.2 3.2 5.1 3.2 7.2Z" fill="#9c9c9e"/></svg>