<svg xmlns="http://www.w3.org/2000/svg" viewBox="0 0 32 32"><path d="M19.8.3a24.3 24.3 0 0 0-7.6 0c-3.3.6-3.9 1.8-3.9 4v2.9H16v1H5.5A4.8 4.8 0 0 0 .7 12c-.7 3-.7 4.8 0 7.8.6 2.2 1.9 3.9 4 3.9h2.7v-3.5c0-2.5 2.2-4.8 4.8-4.8h7.6c2.1 0 3.8-1.7 3.8-3.8V4.3c0-2-1.7-3.6-3.8-4Zm-8.1 5c-.8 0-1.4-.7-1.4-1.5s.6-1.5 1.4-1.5S13 3 13 3.8s-.6 1.4-1.4 1.4Z" fill="#66b4ff"/><path d="M31.2 12c-.5-2.2-1.6-3.8-3.8-3.8h-2.9v3.4c0 2.6-2.2 4.8-4.7 4.8H12c-2 0-3.8 1.8-3.8 3.9v7.2c0 2.1 1.8 3.3 3.8 4 2.5.6 4.8.8 7.7 0 1.9-.6 3.8-1.8 3.8-4v-2.9H16v-1h11.4c2.2 0 3-1.5 3.8-3.8.8-2.4.8-4.7 0-7.8Zm-11 14.6c.9 0 1.5.6 1.5 1.4s-.6 1.5-1.4 1.5-1.5-.7-1.5-1.5.7-1.4 1.5-1.4Z" fill="#ff6"/></svg>