<svg xmlns="http://www.w3.org/2000/svg" viewBox="0 0 32 32"><circle cx="16" cy="16" r="13" fill="#66ffb4"/><circle cx="16" cy="16" r="6.5" fill="#f66"/><path d="M29.3 7.4 16.8.2c-.5-.3-1.1-.3-1.6 0L2.7 7.4c-.5.3-.8.8-.8 1.4v14.4c0 .6.3 1 .8 1.4l12.5 7.2.8.2c.3 0 .6 0 .8-.2l12.5-7.2c.5-.3.8-.8.8-1.4V8.8c0-.6-.3-1.1-.8-1.4Zm-16.8-2 3.4-2h.2L25 8.5c.2.1.2.4 0 .5l-3.3 2h-.3l-3-1.8.4-.2c.2 0 .2-.4 0-.5L16 7.1h-.3l-.6.3L12.5 6a.3.3 0 0 1 0-.5Zm9 9.7v3.1l-.7.4-.1.3v.7L18 21.2c-.2 0-.4 0-.4-.3v-3.8l.1-.3 3.4-2c.1 0 .4 0 .4.3ZM9 17.3l-.4-.2a.3.3 0 0 0-.4.3v3l.1.2.7.4v3c0 .3-.3.4-.5.3l-3.3-2s-.2 0-.2-.2V12c0-.2.3-.4.5-.3l3.3 2 .2.2v3.4ZM7 9a.3.3 0 0 1 0-.5l3.4-2h.3l3 1.8-.4.2c-.2.1-.2.4 0 .5l.3.2-3 1.7h-.2L7 9Zm7.4 18.2c0 .2-.2.4-.4.3l-3.3-2-.2-.2v-3.5l.3.2c.2.2.5 0 .5-.2v-.4l3 1.7.1.3v3.8Zm-.4-6-2.7-1.6v-.7l-.1-.3-.7-.4v-3c0-.3.3-.4.4-.3l3.4 1.9.1.2V21c0 .2-.2.4-.4.3Zm2.1-7.1H16l-3.4-2a.3.3 0 0 1 0-.4l2.7-1.6.6.4h.3l.7-.4 2.7 1.6c.2 0 .2.4 0 .5L16 14Zm10.8 8-.1.3-8.8 5c-.2.2-.5 0-.5-.2v-3.8c0-.1 0-.2.2-.3l3-1.7v.4c0 .2.2.3.4.2l2.5-1.4.2-.3v-.7l2.7-1.6c.2 0 .4 0 .4.3V22Zm0-6.3-.1.3-3 1.7v-.4c0-.2-.3-.4-.5-.2l-.3.1V14c0-.1 0-.2.2-.2l3.3-2c.2 0 .4 0 .4.3v3.8Z" fill="#66f"/></svg>