<svg xmlns="http://www.w3.org/2000/svg" viewBox="0 0 32 32"><path d="M19 3.6c-.7-1.3-1.8-2-3-2s-2.3.7-3 2l-3.8 6.6a21.3 21.3 0 0 1 10.8 17h-2.4a18.8 18.8 0 0 0-9.7-14.9l-4.4 7.8a10 10 0 0 1 5 7h-4a.8.8 0 0 1-.7-.8V26l1-1.7c-.7-.8-1.6-1.5-2.5-2l-1.7 3c-.7 1.2-.8 2.5-.2 3.5.6 1 1.8 1.7 3.2 1.7H12a13 13 0 0 0-4.2-11.2L9 17a15.6 15.6 0 0 1 5.3 13.4h9a26.1 26.1 0 0 0-.1-3.3 24.6 24.6 0 0 0-9.7-18l1.8-3c.1-.3.4-.5.7-.5.3 0 .5.2.7.4L28 26v.3c0 .4-.3.8-.7.8h-1.8a24.5 24.5 0 0 1 0 3.2h2.7c1.5 0 2.7-.6 3.3-1.6.6-1 .5-2.4-.2-3.6L19 3.6Z" fill="#ff66b4"/></svg>