<svg xmlns="http://www.w3.org/2000/svg" viewBox="0 0 32 32"><path d="m22.6 8.6 4.3-4.4A16.2 16.2 0 0 0 16.7 0v6.1l5.9 2.5Z" fill="#6f6"/><path d="M9.5 8.6 5.2 4.2C8.7 1.4 11 .5 15.5 0v6.1l-6 2.5Z" fill="#f66"/><path d="m22.6 23.4 4.3 4.4A16.2 16.2 0 0 1 16.7 32v-6.1l5.9-2.5Z" fill="#ff6"/><path d="m9.5 23.4-4.3 4.4c3.4 2.8 5.7 3.7 10.3 4.2v-6.1l-6-2.5Z" fill="#66b4ff"/><path d="M8.7 9.5 4.3 5.2A16.2 16.2 0 0 0 0 15.4h6.1l2.5-6Z" fill="#f66"/><path d="m23.4 9.5 4.3-4.3c2.8 3.4 3.7 5.6 4.2 10.2h-6.1l-2.5-6Z" fill="#6f6"/><path d="m8.7 22.5-4.4 4.3A16.2 16.2 0 0 1 0 16.6h6.1l2.5 6Z" fill="#66b4ff"/><path d="m23.4 22.5 4.3 4.3c2.8-3.4 3.7-5.6 4.2-10.2h-6.1l-2.5 6Z" fill="#ff6"/><g fill="#e2e2e4"><path d="M15.5 15H9.9l1.5-3.6 2-.9v3.3h2.1V7.5L9.9 9.8 7.3 16l.4 1h5.7v4.5l-2-.9-1-2.3H8.2l1.7 3.9 5.6 2.3V15zM22.3 9.7l-5.6-2.3v17.1l5.6-2.2 2.5-6.3-2.5-6.3Zm-1.6 1.7 1.5 3.7h-3.5v-4.5l2 .8Zm-2 10v-4.3h3.5l-1.6 3.6-1.9.8Z"/></g></svg>