<svg xmlns="http://www.w3.org/2000/svg" viewBox="0 0 32 32"><path d="M20 15c.5.7 1.2 1.2 2.2 1.8h4v-2.9l-.7-.3c-1.7-.7-2.3-1.1-2.6-1.7-.2-.3-.2-.5-.2-1 0-1.1.9-1.8 2.3-1.7 1 0 1.5.4 2.1 1.2l.4.5a39 39 0 0 0 3.2-2.2c0-.2-.7-1-1.1-1.4a5.5 5.5 0 0 0-2.9-1.7 11 11 0 0 0-3.4-.1c-2.5.5-4.2 2-4.7 4.4-.2.6-.1 2.2 0 2.9.3.8.8 1.7 1.3 2.3ZM6 26.2h1.3v-3.7c0-2 1.2-4 2.9-5V9.5h6V7.6l-.1-2H0v2H0v1.8h6v16.8Z" fill="#66b4ff"/><path d="M9.3 28.2v-5.7c0-2 1.7-3.7 3.8-3.7h15.1V15H32V30h-3.8v-3.8H17v2h3.8V32H5.6v-3.8h3.7Z" fill="#66b4ff"/></svg>