<svg xmlns="http://www.w3.org/2000/svg" viewBox="0 0 32 32"><path d="M0 7.5v2h6v16.9h4.2v-17h6V7.6l-.1-2H0v2H0ZM23 12l-.1-.1c-.2-.4-.2-.6-.2-1 0-1.1.9-1.8 2.3-1.8 1 .1 1.5.5 2.1 1.3l.4.5a39 39 0 0 0 3.2-2.2c0-.2-.7-1-1.1-1.4a5.5 5.5 0 0 0-2.9-1.7 11 11 0 0 0-3.4-.1c-2.5.5-4.2 2-4.7 4.4V12H23Z" fill="#66b4ff"/><path d="M31 24H15a1 1 0 0 0-1 1v6c0 .6.5 1 1 1h16c.6 0 1-.5 1-1v-6c0-.6-.5-1-1-1Zm-13 6c-1.1 0-2-.9-2-2s.9-2 2-2 2 .9 2 2-.9 2-2 2Zm13-16H15a1 1 0 0 0-1 1v6c0 .6.5 1 1 1h16c.6 0 1-.5 1-1v-6c0-.6-.5-1-1-1Zm-13 6c-1.1 0-2-.9-2-2s.9-2 2-2 2 .9 2 2-.9 2-2 2Z" fill="#66b4ff"/></svg>