<svg xmlns="http://www.w3.org/2000/svg" viewBox="0 0 32 32"><path fill="#66b4ff" d="M16 29.9v-8.1a4 4 0 0 1 2.5-3.8v-.6c-.7-.9-1.3-1.2-1.2-1.3.7-1.2 2.3-3 3-6.2.4-2 .3-5.3-.6-7-.2-.4-1.6.5-1.6.5S16.7.4 16.3.1c-1.2-.8-2.6 3.3-2.6 3.3s-2.8-.5-5 2c-.4.4-1 .7-1.7 1-.1 0-.4 0-.9 1.4-.8 2.2 1.4 4.7 1.4 4.7s-2.6 1.8-3.6 4.1c-1.1 2.6-.8 5-.8 5s-1.9 1.7-2 3.4c0 1.5.3 2.7.8 3.4.5.7 1.1.3 1.1.3s-1.2 1.5 0 2.1c1 .6 2.8.9 3.7 0 .7-.8.9-2.3 1.1-3l.5.5.6.5s-1.7.7-1 2.3c.2.6 1 1 2.3 1l6.2-.5a4 4 0 0 1-.3-1.7Z"/><path fill="#9c9c9e" d="M29.9 19.7h-.3v-1.2a4.5 4.5 0 0 0-9.1 0v1.2h-.3c-1.2 0-2.1 1-2.1 2V30c0 1.2.9 2.1 2 2.1H30c1.2 0 2.1-1 2.1-2.1v-8.1c0-1.2-1-2.1-2.1-2.1Zm-4.9 8a1.9 1.9 0 1 1 0-3.7 1.9 1.9 0 0 1 0 3.7Zm2-8h-4v-1.2a2 2 0 0 1 4 0v1.2Z"/></svg>