<svg xmlns="http://www.w3.org/2000/svg" viewBox="0 0 16 16"><path fill="#ff4040" d="M8.01 11.65c-1.57-.42-2.5-2.05-2.09-3.62s2.05-2.5 3.62-2.09a2.97 2.97 0 0 1 2.09 3.62 2.97 2.97 0 0 1-3.62 2.09m7.32-.55-.21-.25a7.4 7.4 0 0 1-1.86-3.09q-.03-.08-.04-.17l-.04-.17a7.5 7.5 0 0 1 .06-3.62l.06-.28A3 3 0 0 0 11.1.11a3.05 3.05 0 0 0-3.7 2.16A7.6 7.6 0 0 1 5.67 5.4a7 7 0 0 1-3.43 2.01 3.02 3.02 0 0 0 1.56 5.83 7.6 7.6 0 0 1 3.62-.06l.17.04q.09.04.17.04a7.3 7.3 0 0 1 3.09 1.86l.28.25c1.19.91 2.88.83 3.98-.25a3 3 0 0 0 .21-4.02"/></svg>