<svg xmlns="http://www.w3.org/2000/svg" viewBox="0 0 16 16"><path fill="#66f" d="M13.21 6.6c-.8.4-1.5.05-1.9-.3 0 .4-.3.85-.95 1.05.7-.15 1.35-.1 2.2.6 0-.35.25-1.05.65-1.35"/><path fill="#6060ff" d="M11.11 6.15c-.7-.9-.8.05-1.55-.1-.25.65 1.05 1 .75 1.25.3.1 1.15-.8.8-1.15"/><path fill="#6060ff" d="M10.51 5.55c.7.5 1.75 1.6 2.65.95-.45-.9-2.75-2.5-3.6-.8.05-.2.7-.35 1-.15z"/><path fill="#6060ff" d="M10.26 5.6c-.2-.1-.5 0-.65.3.25.25.5 0 .65-.3"/><path fill="#6060ff" d="m9.76 5.85.15-.05c-.05-.1-.2-.05-.15 0zm5.15.8c-1.3-3.3-2.6-1.5-3.35-6.65-.9 2.15.8 5 2.25 6.5 1 .7 1 1.75.95 3.2.2-1 .4-2.15.15-3.05"/><path fill="#6060ff" d="M13.16 5.85a9 9 0 0 1-2.35-4.15c-.25.15.1 2.4.6 2.8.6.85 1.5 1.25 1.9 2h.35z"/><path fill="#6060ff" d="M11.71 5s-.8-.9-.85-1.15l-.2-.4c-.15.25 0 .85.25 1.25.1.25.8.25.8.3m2.2 6.19c-.65-.1-2.6-.65-3.3-1.35-.3.25-.55.15-.6.15.25 1.3 2.8 1.4 2.6 2.25 0 0 .9-.45 1.3-1zm.8-1.45s-.4 1.15-.75 1.45c.2.05.25.25.35.5.2-.5.45-1.9.45-1.95z"/><path fill="#6060ff" d="M13.96 11.29c-.5 2.3-4.05 3.6-6.15 2.95 1.55 2.7 6.6-.35 6.15-2.95"/><path fill="#6060ff" d="M13.76 11.49c-.45 1-4.05 2.35-4.95 2.1 1.25 1.6 4.5-.5 5-2.1z"/><path fill="#6060ff" d="M14.26 11.99q.01-.45-.2-.6c.2 2.45-2.95 4.3-5.15 4.15 2.35 1.55 5.6-1.1 5.35-3.55m-3.75-2.2c-.75-.5-1.05-1.75-.3-2.35-1-1.75-3.35-.55-4.8-.35-2.05-.1-3.6-1.6-4.1-3.8-.5-1.95-.65 2.35.9 3.65l-.05-.05.2.2-.1-.1.2.25-.1-.1q.52.54 1.2 1l-.25-.2.35.25.2.1-.2-.1c1.45 1 3.1.5 4.65.55h-.1c.85 0 1.5 1.5 2.3 1.05"/><path fill="#6060ff" d="M9.71 9.79c-1.25-1.4-2.5-.75-3.9-.55-1.4 0-3.15-.75-4.1-2.1-.3 1.25 1.7 2.7 2.95 3.1 1.7.75 3.7.2 5-.5z"/><path fill="#6060ff" d="M9.81 9.94c-1.5.9-4.3 1.45-6.15.35.85 1.95 5.85 2.2 6.15-.3z"/><path fill="#6060ff" d="m10.21 10.49-.25-.4c.1.7-1 1.4-1.7 1.8.6.15 2.2-.45 1.95-1.4M8.16 5.75c.5 0 1 .15 1.35.3-.3-.35-.05-.15 0-.35a6.4 6.4 0 0 0-4.2.3 9 9 0 0 1 2.85-.25"/><path fill="#e0e0e0" d="M12.51 7.99c-3.4-2.3-4 2.35 1.25 3.05-.35 0-4.05-3.7-1.25-3zm.1 0c1.05-3.85 3.15 1.25 1.4 3 .05 0-.1-5.6-1.4-3"/><path fill="#e0e0e0" d="M12.66 8.19c-1.2-.45-1.6.5 1.3 2.95-.05-1.35-.3-5-1.3-3z"/></svg>