<svg xmlns="http://www.w3.org/2000/svg" viewBox="0 0 16 16"><path fill="#6060ff" d="m5.64 3.18-.15-.05h-2.3l-.1.1v.6c-.1.1-.1.15-.1.25L0 12.42q0 .15.1.15h1.75s.15-.05.15-.1l.7-2.1h3.39v-.05l.7 2.2c.05.1.15.1.15.1h1.95l.05-.15zM3.2 8.57q.23-.64.4-1.3c.25-.85.55-1.65.75-2.5l.7 2.3.5 1.5zm12.08-2.24c-.55-.7-1.5-1-2.35-1-2.75-.15-4.04 2.85-3.29 5.14.4 1.55 1.8 2.4 3.49 2.4q1.13 0 2.2-.4l.05-.1v-1.5l-.05-.05c-.3.1-.55.2-.8.2a3.5 3.5 0 0 1-2.1-.15c-.3-.1-.5-.25-.7-.5a2 2 0 0 1-.25-.85h4.04c.2-.05.4.05.45-.15v-.4a3.8 3.8 0 0 0-.7-2.65Zm-1.35 1.89h-2.45c.05-.75.65-1.4 1.4-1.35.7-.05 1.25.55 1.25 1.25z"/></svg>