<svg xmlns="http://www.w3.org/2000/svg" viewBox="0 0 32 32"><path d="M7 9a1 1 0 1 0 0 2 1 1 0 0 0 0-2Z" fill="#e2e2e4"/><path d="M9 9a1 1 0 1 0 0 2 1 1 0 0 0 0-2ZM15 13a1 1 0 0 0 1 1h1L27 4V3c0-1 0 0 0 0h-1L15 13ZM31 5l-5 5-1 1 1 1h1l5-6V5h-1Z" fill="#e2e2e4"/><path d="M25 8a1 1 0 0 0 1 1h1l5-5V3c0-1 0 0 0 0h-1l-5 5h-1ZM8 8a1 1 0 0 0 0 1h1l5-5V3c0-1 0 0 0 0h-1L8 8Z" fill="#e2e2e4"/><path d="M10 9h2l5-5V3h-2l-5 5v1Z" fill="#e2e2e4"/><path d="m31 8-5 5h-1v6a9 9 0 0 1-18 0v-6H3l9-9a1 1 0 0 0-2-1L0 13v1h5v5a11 11 0 0 0 7 10 11 11 0 0 0 12-3 11 11 0 0 0 3-7v-5l5-5V8c0-1 0 0 0 0h-1Z" fill="#e2e2e4"/></svg>