<svg xmlns="http://www.w3.org/2000/svg" viewBox="0 0 16 16"><circle cx="4.84" cy="5.39" r=".85" fill="#e0e0e0"/><circle cx="6.87" cy="5.39" r=".85" fill="#e0e0e0"/><path fill="#e0e0e0" d="M13.8 1.43a.75.75 0 0 0-1.04 0L7.58 6.61q-.21.21-.22.52c-.01.31.08.38.21.52q.22.21.52.22c.3.01.38-.08.52-.21l5.18-5.18a.74.74 0 0 0 0-1.04Zm-4.1 0a.73.73 0 0 0-1.04 0L7.07 3.02a.74.74 0 0 0 0 1.04q.21.21.52.21c.31 0 .38-.08.52-.21L9.7 2.47a.73.73 0 0 0 0-1.04"/><path fill="#e0e0e0" d="M15.8 3.86a.7.7 0 0 0-.98 0l-2.43 2.43a.7.7 0 0 0-.2.49v2.44a4 4 0 0 1-1.23 2.95 4.1 4.1 0 0 1-4.58.9q-.76-.32-1.33-.9a4.2 4.2 0 0 1-1.23-2.95V6.78a.7.7 0 0 0-.69-.69h-.77L6.05 2.4q.2-.2.2-.49c0-.29-.07-.36-.2-.49a.7.7 0 0 0-.98 0L.2 6.29c-.2.2-.26.49-.15.75s.36.42.64.42h1.75v1.75a5.5 5.5 0 0 0 3.4 5.12 5.53 5.53 0 0 0 7.28-2.96q.44-1.04.44-2.16V7.06l2.23-2.23q.2-.2.2-.49c0-.29-.07-.36-.2-.49Z"/></svg>