<svg xmlns="http://www.w3.org/2000/svg" viewBox="0 0 16 16"><path fill="#40ff40" d="M14 7H5.44a2 2 0 0 0-1.9 1.37L2 13V7c0-1.1.9-2 2-2h11c.55 0 1-.45 1-1s-.45-1-1-1H8L6.59 1.59A2 2 0 0 0 5.18 1H2.01A2 2 0 0 0 0 3v10c0 1.1.9 2 2 2h.16a7.5 7.5 0 0 1 2.57-4.15L4.1 9.77a1.56 1.56 0 0 1 2.64-1.66l.78 1.3a7.5 7.5 0 0 1 3.93 0l.75-1.24a1.56 1.56 0 0 1 2.71 1.55l-.65 1.13q1.05.86 1.73 2.03V9a2 2 0 0 0-2-2Z"/><path fill="#40ff40" d="m12.95 11.13 1.08-1.86.06-.26a.56.56 0 0 0-1.02-.32l-1.16 1.92a6.5 6.5 0 0 0-4.83 0S5.92 8.69 5.92 8.69a.56.56 0 0 0-1.02.32q0 .14.06.26l1.08 1.86A6.5 6.5 0 0 0 2.99 16h13a6.5 6.5 0 0 0-3.05-4.87Zm-5.83 2.52c-.08.37-.42.68-.77.68s-.56-.3-.48-.68c.08-.37.42-.68.77-.68s.56.3.48.68m5.54.68c-.34 0-.68-.3-.75-.68s.16-.68.5-.68.68.3.75.68-.16.68-.5.68"/></svg>