<svg xmlns="http://www.w3.org/2000/svg" viewBox="0 0 16 16"><path fill="#ff4040" d="M14.98.01q-2.8 1.37-5.29 3.25C7.89 5.06 4.5 7.05 4.5 9.8l-.1-.9-.7 1.35c-1-2.25-.1.4-.45 1.1-.25 0-.5-.2-.85-.5.25.5.5.7.6.8-.35-.15-.8 0-1.25.1.6 0 1.05.05 1.35.25-1 1.19-2 2.49-3.1 3.99.5 0 2.75-3.5 4.49-5.29.05 0 .1-.2.05-.45l.05.3.1.2-.1.15-1.1 1.4c.15.15.25.5.3.8q.14-.45-.1-.9c1.1.5 2.2.5 2.95-.25-.3.15-.65.2-1.1 0 1-.1 1.5-.35 2.15-1-1.05.65-1.9.1-2.9-.2l.55.15c2.05.45 4.09-1.25 5.34-2.9q-.42.05-.85-.05c.75 0 1.3-.35 1.8-.85q-.52.1-1.05 0c1.05.05 1.85-.75 2.4-1.55h-1.1l-.3-.1c1.7.1 2.8-1.1 3.99-2.75.7-1.3.55-2.6-.6-2.65z"/></svg>