<svg xmlns="http://www.w3.org/2000/svg" viewBox="0 0 16 16"><path fill="#40ffff" d="M16 8a3.87 3.87 0 0 0-3.94-3.81q-.3 0-.6.03a5.2 5.2 0 0 0-3.47 2.39 5.2 5.2 0 0 0-3.47-2.39q-.3-.04-.6-.03A3.87 3.87 0 0 0 0 8a3.88 3.88 0 0 0 4.54 3.78 5.2 5.2 0 0 0 3.47-2.39 5.2 5.2 0 0 0 3.47 2.39q.3.04.6.03A3.94 3.94 0 0 0 16.02 8ZM4.31 10.42q-.2.04-.41.03c-1.42 0-2.58-1.1-2.58-2.46s1.17-2.46 2.61-2.46q.2 0 .41.03c1.61.22 2.58 1.79 2.9 2.42-.35.63-1.32 2.17-2.93 2.43ZM8.73 8c.34-.63 1.29-2.2 2.89-2.42q.2-.04.41-.03c1.45 0 2.61 1.1 2.61 2.46s-1.17 2.46-2.58 2.46q-.2 0-.41-.03c-1.64-.25-2.61-1.8-2.92-2.43Z"/><path fill="#40ffff" d="M5.17 7.62H2.81v.76h2.36zm7.14.75h.79v-.76h-.79v-.82h-.79v.82h-.79v.76h.79v.82h.79z"/></svg>