<svg xmlns="http://www.w3.org/2000/svg" viewBox="0 0 32 32"><path d="M24.2 24.7a9.1 9.1 0 0 1-6.4-3.3c-.7-.7-1.3-1.6-1.9-2.7-.6 1.1-1.3 2.2-2.2 3.2a7.1 7.1 0 0 1-7.1 2.5 8 8 0 0 1-6-5.2 8.6 8.6 0 0 1-.5-4.3 10 10 0 0 1 1.4-3.8 8.6 8.6 0 0 1 2.7-2.8c1.1-.7 2.3-1 3.5-1h.1c.7 0 1.4.1 2 .3a9 9 0 0 1 4.6 3.1L16 13a14 14 0 0 1 3.7-4.3c1-.8 2.4-1.3 3.7-1.4 1.3 0 2.6.2 3.8.8a8.5 8.5 0 0 1 4.7 6.5 9.6 9.6 0 0 1-2.7 7.8 7.2 7.2 0 0 1-5 2.3Zm-6.7-8.9c.8 1.7 2.5 5 5.4 5.7s.1 0 .1 0c1.5.5 3.2 0 4.5-1.3 1.4-1.4 2-3.3 1.8-5.1a5.6 5.6 0 0 0-3-4.2 4.8 4.8 0 0 0-5.1.3 13.6 13.6 0 0 0-3.7 4.6ZM7.4 10.3c-1.4 0-2.8 1-3.8 2.5A6 6 0 0 0 3 18c.6 1.8 2.1 3 4 3.5 2 .4 3.7-.3 4.8-1.7h.1c1-1.2 1.8-2.6 2.6-4-1.3-2.4-3-4.7-5.3-5.3L8 10.3H7.4Z" fill="#66ffb4"/><path fill="#66ffb4" d="M5.2 15.4h6.1v1.3H5.2zM24.6 18.5h-1.7v-1.7h-1.6v-1.6h1.6v-1.7h1.7v1.7h1.7v1.6h-1.7v1.7z"/></svg>