<svg xmlns="http://www.w3.org/2000/svg" viewBox="0 0 16 16"><path fill="#e0e0e0" fill-rule="evenodd" d="m5.45 8.81.94-1.62q.14-.24.35-.42L7.77 3.2q.06-.15.2-.15c.1-.05.25 0 .3.15l.67 2.38c.3-.35.74-.58 1.24-.58h1.64l-1.15-3.8c-.15-.4-.2-.65-.35-.8h.05a1 1 0 0 0-.4-.3C9.78 0 9.58 0 9.08 0h-2.1c-.45 0-.65 0-.85.1a.7.7 0 0 0-.45.3c-.15.15-.2.4-.35.8l-2.9 9.6q1.34-.73 2.82-1.06a1.7 1.7 0 0 1 .21-.93Z"/><path fill="#a0a0a0" d="m15.69 11.83-.9-.52c-.3-.17-.3-.45 0-.62l.9-.52c.3-.17.4-.56.23-.85l-.94-1.62a.6.6 0 0 0-.85-.23l-.9.52c-.3.17-.54.03-.54-.31V6.64a.6.6 0 0 0-.62-.62H10.2a.6.6 0 0 0-.62.62v1.04c0 .34-.24.48-.54.31l-.9-.52a.6.6 0 0 0-.85.23l-.94 1.62c-.17.3-.07.68.23.85l.9.52c.3.17.3.45 0 .62l-.9.52c-.3.17-.4.56-.23.85l.94 1.62c.17.3.56.4.85.23l.9-.52c.3-.17.54-.03.54.31v1.04c0 .34.28.62.63.62h1.88c.34 0 .62-.28.62-.62v-1.04c0-.34.24-.48.54-.31l.9.52c.3.17.68.07.85-.23l.94-1.62a.6.6 0 0 0-.23-.85Zm-3.79.52c-.75.43-1.7.18-2.13-.57s-.18-1.7.57-2.13 1.7-.18 2.13.57.18 1.7-.57 2.13"/><path fill="#ffa040" fill-rule="evenodd" d="M5.29 11.96q.06-.23.2-.41l.19-.25a1 1 0 0 1-.31-.34 3 3 0 0 0-.13 1.29q0-.14.05-.28Z"/></svg>