<svg xmlns="http://www.w3.org/2000/svg" viewBox="0 0 16 16"><path fill="#ff40a0" fill-rule="evenodd" d="m12.95 8.2-.85.55.45.65.55.85 1.5-1-1-1.5zm-10.4.2 1.8-1.2-.5-.7L2.8 4.9.5 6.45l1.55 2.3zm6-5 .45.7.85-.6.65-.4L8.95.8l-1.5 1zm-1.1 8.45-1.8 1.2-.5.35 1 1.5 2.3-1.55-.55-.85zm3.8-2.55L8.2 11.35l.45.65 2.55 3.8 3-2-2.5-3.8zM5.1 6.65l3.05-2-.45-.7L5.15.2l-3 2L4.65 6z"/><path fill="#ff40a0" d="m.8 4 .85-.6.6.85-.9.6zm3.1 10.2.85-.55.6.85-.9.6z"/><path fill="#ff40a0" fill-rule="evenodd" d="M13.4 1.8 0 10.75l2.5 3.8 13.5-9z"/></svg>