<svg xmlns="http://www.w3.org/2000/svg" viewBox="0 0 16 16"><path fill="#40a0ff" d="M14 3H8L6.59 1.59A2 2 0 0 0 5.18 1H2.01A2 2 0 0 0 0 3v10c0 1.1.9 2 2 2h2.48v-.03l2.98-8.95C7.65 5.43 8.26 5 8.91 5h3.5l.95.33q.33.26.49.67s2.14 6.3 2.14 6.3V4.99a2 2 0 0 0-2-2Z"/><path fill="#66f" d="M8.92 6a.6.6 0 0 0-.5.33l-3 9c-.11.28 0 .56.28.67h2.67c.17 0 .33-.17.39-.33l.61-1.78 2.22 2 .28.11h2.78l-1.22-3.5H9.88L12.1 6z"/><path fill="#66b4ff" d="M12.92 6.33a.5.5 0 0 0-.5-.33h-3.5c.22 0 .44.17.5.33l3.06 9a.5.5 0 0 1-.5.67h3.5a.5.5 0 0 0 .53-.47q0-.1-.03-.2z"/><path fill="#6060ff" d="M8.92 6a.6.6 0 0 0-.5.33l-3 9c-.17.33.11.67.44.67h2.5c.17 0 .33-.17.39-.33l.61-1.78 2.22 2 .28.11h2.78l-1.22-3.5H9.87L12.09 6z"/><path fill="#40a0ff" d="M12.92 6.33a.5.5 0 0 0-.5-.33h-3.5c.22 0 .44.17.5.33l3.06 9c.06.3-.13.59-.43.66h-.07 3.5a.5.5 0 0 0 .53-.47q0-.1-.03-.2z"/></svg>