<svg xmlns="http://www.w3.org/2000/svg" viewBox="0 0 16 16"><path fill="#40a0ff" d="M4.49 14.97 7.15 7h-1.7a2 2 0 0 0-1.9 1.37L2.01 13V7c0-1.1.9-2 2-2h11c.55 0 1-.45 1-1s-.45-1-1-1h-7L6.6 1.59A2 2 0 0 0 5.19 1H2.02C.9 1 0 1.9 0 3v10c0 1.1.9 2 2 2h2.48zm9.72-7.95L16 12.31V9a2 2 0 0 0-1.79-1.98"/><path fill="#66f" d="M8.92 6a.6.6 0 0 0-.5.33l-3 9c-.11.28 0 .56.28.67h2.67c.17 0 .33-.17.39-.33l.61-1.78 2.22 2 .28.11h2.78l-1.22-3.5H9.88L12.1 6z"/><path fill="#66b4ff" d="M12.92 6.33a.5.5 0 0 0-.5-.33h-3.5c.22 0 .44.17.5.33l3.06 9a.5.5 0 0 1-.5.67h3.5a.5.5 0 0 0 .53-.47q0-.1-.03-.2z"/><path fill="#6060ff" d="M8.92 6a.6.6 0 0 0-.5.33l-3 9c-.17.33.11.67.44.67h2.5c.17 0 .33-.17.39-.33l.61-1.78 2.22 2 .28.11h2.78l-1.22-3.5H9.87L12.09 6z"/><path fill="#40a0ff" d="M12.92 6.33a.5.5 0 0 0-.5-.33h-3.5c.22 0 .44.17.5.33l3.06 9c.06.3-.13.59-.43.66h-.07 3.5a.5.5 0 0 0 .53-.47q0-.1-.03-.2z"/></svg>