<svg xmlns="http://www.w3.org/2000/svg" viewBox="0 0 32 32"><path d="M19.3 14c-.4 0-.8.3-.9.6L13 30.8c-.2.5 0 1 .5 1.2h4.8c.3 0 .6-.3.7-.6l1.1-3.2 4 3.6.5.2h5l-2.2-6.3H21L25 14h-5.7Z" fill="#66f"/><path d="M26.5 14.6a.9.9 0 0 0-.9-.6h-6.3c.4 0 .8.3.9.6l5.5 16.2a.9.9 0 0 1-.9 1.2h6.3a.9.9 0 0 0 .9-1.2l-5.5-16.2Z" fill="#66b4ff"/><path d="M16.5 14c.4-1.2 1.5-2 2.8-2h6.3l1.9.7c.4.3.7.8.9 1.3L32 24.7V9.6c0-1.8-1.4-3.2-3.2-3.2H16l-3.2-3.2H3.2A3.2 3.2 0 0 0 0 6.4v19.2c0 1.8 1.4 3.2 3.2 3.2h8.3l5-14.8Z" fill="#66b4ff"/><path d="M19.3 14c-.4 0-.8.3-.9.6L13 30.8c-.3.6.2 1.2.8 1.2h4.5c.3 0 .6-.3.7-.6l1.1-3.2 4 3.6.5.2h5l-2.2-6.3H21L25 14h-5.7Z" fill="#66f"/><path d="M26.5 14.6a.9.9 0 0 0-.9-.6h-6.3c.4 0 .8.3.9.6l5.5 16.2a1 1 0 0 1-.9 1.2h6.3a.9.9 0 0 0 .9-1.2l-5.5-16.2Z" fill="#66b4ff"/></svg>