<svg xmlns="http://www.w3.org/2000/svg" viewBox="0 0 16 16"><path fill="#ffff40" d="M12.67 5.5c6.3-5.5-4.2-7.26-8.16-3.51v.1c.1 0 .3-.15.3 0l-.95.9.1.1h-.35c0 .1.1.2.15.2l-.4.05-.5.5.05.05.35-.25v.1l-.25.35.05.05.35-.25v.15l-.15.05.15.2.8-.7.25.15 2.05-1.15.05.2c-.85 3.1-4.5 9.95-5.2 11.65l.15-.05c-.05.1-.1.15 0 .3l.6-.2h.15c-.1.45-.4.65-.5 1.25l.25.25q.69-.75 1-1.5c2-.7 3.25-1 4.65-1.7h-.35c2.7-1.2 7.5-3.95 4.6-6.75q.01-.24.7-.55h.05Zm-8.51 7 2.1-4.2c.8.15 3.5-1.6 4.65-.6-1 2.5-5.15 4.1-6.75 4.8m7.16-8.51-.35.4c-.95 1-1.5.9-3.6 1.85h-.05c.1-.35.45-1.55.6-1.6.5-.65.8-3.2 2.05-3v.15c.95-.1 1.85-.35 2.25.2.1 0 .1.15.15.25h.1v-.3c.45 0 .5.5.15.8-.1 0-.15 0-.15-.1h-.1c0 .65-.95 1.4-1 1.35z"/></svg>