<svg xmlns="http://www.w3.org/2000/svg" viewBox="0 0 32 32"><path fill="#f66" d="M30.4 14.7c-.5-5-3.1-9.7-6.7-13-1.6-1.2-.5 1.4-.2 1.9 1.7 4 .5 10-4.7 10.3-3.7 0-8.4 0-10.5 3.6-4-.4-5.8-5.8-6-9.1-.3-.5-.7 0-.7.3-.9 4.3 2 8.2 5.2 10.8 1 2-.1 4.4.7 6.6a11 11 0 0 0 3.3 5.7c.4.3 1.1.4.7-.8a8 8 0 0 1 .4-7.3c3.6-6.3 12.1-2.8 11.8 4 0 1.3-.6 2.5-.5 3.9.1.7.8.4 1.2 0 4-4.8 6.8-10.6 6-17Z"/><path fill="#f66" d="M10.3 5c.1 1.4 1.4 2.2 2.7 2.5 1.6.4 3.3-.7 4.8 0-4.9 5.8-.3 7 3.3 4.3 4-3.1.2-10.5.2-10.5s0-.6-1.6-1c-3.4-1.7-5.3 3.5-8.6 3.5-.2 0-.9 0-1 .2-.2.2 0 .7.2 1Z"/></svg>