<svg xmlns="http://www.w3.org/2000/svg" viewBox="0 0 16 16"><path fill="#a0a0a0" d="M10.95 12.54v-.86h.35V6.67h-.55v-.9h-.98V4.73h-3.4v1.12H5.12v.81h-.39v4.97h.32v1.02h-.32v2.77h6.57v-2.88z"/><path fill="#ff4040" d="M6.12 8.15h3.8v2.86h-3.8z"/><path fill="#e0e0e0" d="M12.9 6.91c-.19-.2-.22-.35-.14-.61a4.9 4.9 0 1 0-9.37.03c.04.15.09.26-.08.41-.69.59-.69 1.47-.01 2.07.14.12.15.21.1.37a3.6 3.6 0 0 0 .98 3.7c.57.92-.49 3 1.21 3.11q2.43.03 4.87 0c.63 0 1.04-.48 1.05-1.12.09-.82-.31-1.78.46-2.38q1.14-1.42.68-3.18c-.06-.23-.07-.38.15-.56.55-.47.59-1.31.1-1.84m-8.17-4.4c2.6-3.82 8.67-.77 7.28 3.6-.11.54-.44.18-.81.23l-.05-.05c-.13-.48-.36-.87-.87-1.03-.19-.06-.2-.23-.21-.4-.04-.52-.08-.56-.61-.56h-2.9c-.5 0-.55.05-.59.55-.01.18-.02.35-.23.43-.48.17-.71.55-.84 1.02q-.02.04-.06.06c-.32-.01-.64.19-.73-.26a4 4 0 0 1 .6-3.58Zm5.28 3.47c.47 0 .4.58.4.89h-4.8c-.07-.95.17-.91 1.01-.89 0-.32-.1-.98.4-.97h2.02c.5 0 .39.65.4.97h.58Zm-6.2 2.29c-.32.08-.49-.66-.04-1.05.03.33-.01.6.1.86q.04.12-.06.2Zm.12 2.27c-.02-.61.04-1.27.39-1.79.05-.06.09-.16.2-.1.06.37-.2 1.17-.06 1.88-.03.12.1.32-.2.32-.25 0-.32-.1-.33-.32Zm.43 1.29-.02-.01-.11-.29c.45 0 .65.27.64.9a3 3 0 0 1-.52-.59Zm.45-4.07v-.22h6.45v.22zm2.08 3.1c-.09 0-.19.04-.28-.03-.15-.28-.3-.55-.31-.88-.15-.51 0-.97.19-1.43.07-.17.21-.15.34-.14q1 .02 2.01.01c.7-.04.77 0 .9.7.05.27.14.53 0 .8-.07.81-.22 1.02-1.05.95m-2.03.77c1 .72 1.8.71 2.78-.02.1-.13.25-.04.37-.09l.97.02q-.07.43-.36.73H5.63c-.17-.21-.32-.43-.31-.72.31.03 1.07-.09 1.34.08m-1.34-3.2.69-.01a3 3 0 0 0-.13 2c.12.46.13.46-.32.47-.15-.05-.32.06-.45-.08a3.3 3.3 0 0 1 .2-2.38Zm5.61 6.43a.5.5 0 0 1-.5.5H5.72a.5.5 0 0 1-.5-.5c.08-.45-.3-1.94.5-1.92h4.71c.8-.02.42 1.47.5 1.92m0-4.08c-.13.14-.3.04-.45.08-.45-.01-.44 0-.32-.47q.27-1.02-.13-2l.69.01q.54 1.15.2 2.38Zm.22 1.59c.03-.5.34-.99.66-.77-.2.27-.31.63-.66.77m.45-1.51c.06-.66.08-1.31-.07-1.96-.02-.07-.09-.18.05-.21.11-.02.11.11.18.15.21.46.81 2.25-.16 2.02m.79-2.62c-.09.16-.28.01-.21-.13.14-.23.03-.51.14-.76.29.29.31.66.06.89Z"/></svg>