<svg xmlns="http://www.w3.org/2000/svg" viewBox="0 0 16 16"><path fill="#e0e0e0" d="M14 3H8L6.59 1.59A2 2 0 0 0 5.18 1H2.01A2 2 0 0 0 0 3v10c0 1.1.9 2 2 2h2.98a5 5 0 0 1-1.6-3.57c0-1.89 1.14-3.62 3.05-4.65q.74-.4 1.31-.77l.92-.55.04-.09.08.02c.48-.24.92-.4 1.41-.4.81 0 1.43.38 2.29.92q.58.37 1.47.86A6 6 0 0 1 16 8.52V4.99a2 2 0 0 0-2-2Z"/><path fill="#e0e0e0" d="M13.47 7.66C11.67 6.69 10.99 6 10.19 6s-1.75.84-3.28 1.66-2.53 2.2-2.53 3.77c0 2.52 2.6 4.57 5.81 4.57S16 13.95 16 11.43c0-1.57-1-2.95-2.53-3.77m-5.99.46a2.8 2.8 0 0 0 1.74-1.49c.03-.06.12-.04.11.03-.29 1.33-1.25 1.61-1.85 1.57-.06 0-.06-.09 0-.1Zm.67 3.82a.9.9 0 0 1-.91-.91.9.9 0 0 1 .92-.91.9.9 0 0 1 .91.92.9.9 0 0 1-.92.91Zm.68-3.35c-.06.02-.1-.06-.05-.1.6-.52.94-1.28.93-2.07 0-.07.1-.09.11-.01.32 1.31-.44 1.96-1 2.18Zm1.62.13s-.11 0-.09-.06c.24-.75.14-1.57-.27-2.24-.03-.06.04-.13.09-.09.95 1 .63 1.92.27 2.38Zm.1-2.33c-.05-.05-.01-.14.05-.11 1.26.51 1.34 1.5 1.19 2.08q0 .05-.06.04-.05 0-.05-.06a2.7 2.7 0 0 0-1.14-1.95Zm1.71 5.55a.9.9 0 0 1-.91-.91.92.92 0 1 1 .91.92Z"/><path fill="#ff4040" d="M11.36 12.64q-.11.47-.48.78-.28.26-.66.31-.4-.04-.69-.31-.37-.31-.48-.78 0-.12.1-.13h2.08q.11 0 .13.11z"/><path fill="#ff40a0" d="M9.53 13.44q.3.27.68.32.4-.05.68-.32l.17-.18q-.33-.35-.81-.38a1 1 0 0 0-.83.46zM8.5 11.87q-.17.07-.35.07a1 1 0 0 1-.68-.32c-.43.06-.75.28-.75.54 0 .32.43.57.97.57s.97-.26.97-.57q-.01-.16-.16-.3Z"/><path fill="#e0e0e0" fill-rule="evenodd" d="M7.87 11.09c.19 0 .34-.15.35-.34a.35.35 0 0 0-.34-.35.35.35 0 0 0-.35.34c0 .19.15.34.34.34Zm4.11 0c.19 0 .34-.15.35-.34s-.15-.34-.34-.35-.34.15-.35.34.15.34.34.34Z"/><path fill="#ff40a0" d="M12.94 11.63a1 1 0 0 1-.68.31q-.18 0-.35-.07-.16.13-.17.3c0 .32.43.57.97.57s.97-.26.97-.57c0-.27-.32-.48-.74-.54"/></svg>