<svg xmlns="http://www.w3.org/2000/svg" viewBox="0 0 16 16"><path fill="#e0e0e0" d="M7.5 14.75V11c0-.88.51-1.65 1.25-2.02V8.5a3.5 3.5 0 0 1 7 0v.48l.22.15.03-.54c0-2.16-1.37-4.06-3.48-5.19C10.04 2.06 9.1 1.11 8 1.11S5.59 2.27 3.48 3.4 0 6.43 0 8.59c0 3.35 3.33 6.08 7.52 6.28zM8.57 1.5c1.73.71 1.85 2.07 1.64 2.86q-.01.06-.08.06-.07-.01-.07-.08a3.8 3.8 0 0 0-1.57-2.69c-.08-.06-.02-.19.08-.15m-.71.18c-.05-.08.06-.17.12-.11 1.31 1.37.87 2.64.37 3.28-.05.07-.15 0-.13-.08a3.7 3.7 0 0 0-.37-3.08ZM4.27 4.03a4 4 0 0 0 2.39-2.06c.04-.08.17-.05.15.04-.4 1.83-1.72 2.21-2.54 2.16-.09 0-.08-.12 0-.14m.92 5.27a1.26 1.26 0 1 1 0-2.52 1.26 1.26 0 0 1 0 2.52m.93-4.62c-.08.03-.13-.08-.07-.13A3.8 3.8 0 0 0 7.34 1.7c0-.09.13-.12.15-.02.44 1.81-.6 2.7-1.37 3"/><path fill="#ff40a0" d="M5.67 9.2q-.22.1-.48.1c-.38 0-.7-.17-.93-.43-.59.08-1.03.38-1.03.75 0 .43.6.79 1.34.79s1.34-.35 1.34-.79q-.02-.23-.23-.41Z"/><path fill="#e0e0e0" fill-rule="evenodd" d="M4.8 8.12c.26 0 .47-.21.48-.47a.5.5 0 0 0-.47-.48.5.5 0 0 0-.48.47c0 .26.21.47.47.47Zm5.66 0c.26 0 .47-.21.48-.47 0-.26-.21-.47-.47-.48s-.47.21-.48.47c0 .26.21.47.47.47Z"/><path fill="#ff4040" d="M7.5 11q.01-.5.22-.93H6.57a.16.16 0 0 0-.14.18q.16.65.66 1.08.18.18.41.28z"/><path fill="#ff40a0" d="m7.5 11 .04-.29q-.37.16-.61.51l.15.14q.18.18.41.28z"/><path fill="#a0a0a0" d="M14.75 9.75V8.5a2.5 2.5 0 0 0-5 0v1.25c-.69 0-1.25.56-1.25 1.25v3.75c0 .69.56 1.25 1.25 1.25h5c.69 0 1.25-.56 1.25-1.25V11c0-.69-.56-1.25-1.25-1.25m-2.5 4.06a.94.94 0 1 1 0-1.88.94.94 0 0 1 0 1.88m1.25-4.06H11V8.5a1.25 1.25 0 0 1 2.5 0z"/></svg>