<svg xmlns="http://www.w3.org/2000/svg" viewBox="0 0 16 16"><path fill="#e0e0e0" d="M12.52 3.4C10.04 2.06 9.1 1.11 8 1.11S5.59 2.27 3.48 3.4 0 6.43 0 8.59c0 3.48 3.58 6.29 8 6.29s8-2.82 8-6.29c0-2.16-1.37-4.06-3.48-5.19m-8.25.63a4 4 0 0 0 2.39-2.06c.04-.08.17-.05.15.04-.4 1.83-1.72 2.21-2.54 2.16-.09 0-.08-.12 0-.14m.92 5.27a1.26 1.26 0 1 1 0-2.52 1.26 1.26 0 0 1 0 2.52m.93-4.62c-.08.03-.13-.08-.07-.13A3.8 3.8 0 0 0 7.34 1.7c0-.09.13-.12.15-.02.44 1.81-.6 2.7-1.37 3m2.23.17c-.05.07-.15 0-.13-.08a3.7 3.7 0 0 0-.37-3.08c-.05-.09.06-.18.12-.12 1.31 1.37.87 2.64.37 3.28Zm.14-3.2c-.08-.06-.02-.19.08-.15 1.73.71 1.85 2.07 1.64 2.86q-.01.06-.08.06-.07-.01-.07-.08a3.8 3.8 0 0 0-1.57-2.69m2.36 7.65a1.25 1.25 0 1 1 .02-2.51c.7 0 1.26.57 1.25 1.27 0 .7-.57 1.26-1.27 1.25Z"/><path fill="#ff4040" d="M9.61 10.26q-.16.65-.67 1.08-.39.37-.91.43a1.5 1.5 0 0 1-.94-.43 2 2 0 0 1-.66-1.08.16.16 0 0 1 .14-.18h2.86q.15 0 .18.15z"/><path fill="#ff40a0" d="M7.09 11.35q.4.38.94.43.54-.07.94-.43l.23-.24a1.6 1.6 0 0 0-1.12-.53 1.4 1.4 0 0 0-1.14.64l.15.14ZM5.67 9.2q-.22.1-.48.1c-.38 0-.7-.17-.93-.43-.59.08-1.03.38-1.03.75 0 .43.6.79 1.34.79s1.34-.35 1.34-.79q-.02-.23-.23-.41Z"/><path fill="#e0e0e0" fill-rule="evenodd" d="M4.8 8.12c.26 0 .47-.21.48-.47a.5.5 0 0 0-.47-.48.5.5 0 0 0-.48.47c0 .26.21.47.47.47Zm5.66 0c.26 0 .47-.21.48-.47 0-.26-.21-.47-.47-.48s-.47.21-.48.47c0 .26.21.47.47.47Z"/><path fill="#ff40a0" d="M11.79 8.86a1.2 1.2 0 0 1-1.42.33q-.21.18-.23.41c0 .43.6.79 1.34.79s1.34-.35 1.34-.79c0-.37-.44-.66-1.02-.75Z"/></svg>