<svg xmlns="http://www.w3.org/2000/svg" viewBox="0 0 16 16"><path fill="#40a0ff" d="M15.68 3.91a1.6 1.6 0 0 0-1.06-.64q-.35-.04-.72.08A8 8 0 0 0 10.44.89a7.8 7.8 0 0 0-7.98 1.23A7 7 0 0 0 .2 5.74 7.7 7.7 0 0 0 .37 9.9a8 8 0 0 0 1.05 2.4l-.04.2a2.38 2.38 0 0 0 3.34 2.46 7.65 7.65 0 0 0 9.15-2.01q.4-.5.7-1.04a7.5 7.5 0 0 0 .63-5.67l.18-.12a1.6 1.6 0 0 0 .29-2.23ZM3.75 11.75h.14c.38.05.71.31.85.68q.09.25.06.5a1 1 0 0 1-.4.7q-.32.24-.78.21a1 1 0 0 1-.7-.41q-.26-.35-.21-.77c.07-.52.52-.92 1.04-.92Zm2.36 1.36q.07-.6-.14-1.16l.3-.28c.66-.62 1.53-1.49 1.53-1.49l.15-.15-.57-.72-.18.11s-1.06.63-1.82 1.12l-.38.25q-.44-.28-.94-.34c-.92-.13-1.82.3-2.31 1.08l-.21-.36a8 8 0 0 1-.59-1.41Q.86 9.36.83 9q-.14-1.43.39-2.97a8 8 0 0 1 1.98-3.1 7 7 0 0 1 5.32-1.91q.91.09 1.71.4.88.34 1.69 1.02.7.57 1.25 1.38a1.5 1.5 0 0 0-.29 1.64l-.9.65-.48.36-.2.16.7.82.19-.17.43-.42.74-.74q.34.27.78.35l.24.01a7.2 7.2 0 0 1-1.56 5.61q-.33.41-.71.77a7 7 0 0 1-2.69 1.58 6.6 6.6 0 0 1-3.98.03q.56-.57.67-1.36m8.19-7.68a.6.6 0 0 1-.48-.64q.03-.23.23-.37.15-.1.32-.11h.1q.22.03.36.22t.11.42a.6.6 0 0 1-.2.35.6.6 0 0 1-.44.12Z"/><path fill="#40ff40" d="M10.86 6.62h-.37V5.33a2.71 2.71 0 0 0-5.42 0v1.29H4.7c-.62 0-1.13.51-1.13 1.13v2.7H5l-.05-2.41 5.61-.05.05 3.62H6.48v1.43h4.38c.62 0 1.13-.51 1.13-1.13V7.75c0-.62-.51-1.13-1.13-1.13M7.78 4.05c.71 0 1.28.57 1.28 1.28v1.29H6.49V5.33c0-.71.58-1.28 1.28-1.28Z"/></svg>