<svg xmlns="http://www.w3.org/2000/svg" viewBox="0 0 16 16"><path fill="#e0e0e0" d="m11.19 2.63-3.58-.55q-.36 0-.67.06L1.31 6.53 14.33 4.8a6 6 0 0 0-3.14-2.17"/><path fill="#ffff40" d="M11.39 5.2c-.05-.03-.66-.4-.39-.68l-.66.65.08.17.98 1.93 2.58-.4v1.41c.3-.01.35-.27.35-.54V4.82zM8.25 7.8l-.01-2.18-6.94.92v2.27z"/><path fill="#ffa040" d="m1.32 8.82 12.64-1.93v5.67L1.32 14.49z"/><path d="m15.05 14.42-.08-.25-4.62-9.01c.47-.43 1.1-1.1 1.13-1.13l.07-.08v-.63l-.39-.83c-.03-.06-.14-.3-.29-.45h-.01L8.44.13A.5.5 0 0 0 8.12 0h-.06l-.93.12v.79l.6 1.49-.86.12L5.79.34 5.6.36l-.52.06c-.04 0-.25.05-.24.33s0 .87 0 .87l.21 1.16h-.04l-.33.05v.69l.35.69c.05.09.11.22 1.25.84.41.23.82.44.98.52.06.11.19.33.27.52l.72 1.48h-.01v5.87h.02l3.19 1.9s.85.41 1.71.59l.2.04.4.04q.15 0 .28-.02h.03l.06-.02q.38-.07.62-.29a1 1 0 0 0 .32-.57v-.67Z"/><path fill="#a0a0a0" d="M14.72 14.29 9.88 4.88c-.04-.08 0-.13 0-.13s1.44-1.25 1.37-1.39l-.36-.74s-.11-.25-.23-.37L8.24.34c-.06-.14-.65.03-.83.03l1.08 2.2-1.79.25L5.62.63l-.51.06c-.08.01.48 2.28.48 2.28l-.64.09.32.63c.11.23 2.33 1.37 2.33 1.37s.1.06.14.13l4.59 9.42c.51.98 2.8.97 2.38-.34ZM7.34 4.2l-.35-.77 1.82-.24.4.77z"/></svg>