<svg xmlns="http://www.w3.org/2000/svg" viewBox="0 0 16 16"><path fill="#ffa040" d="M14 3H8L6.59 1.59A2 2 0 0 0 5.18 1H2.01A2 2 0 0 0 0 3v10c0 1.1.9 2 2 2h5.33l-1.2-.66v-1.91l.12-.04V9.82l2.16-.88.03-2.79 3.12-1.24 4.43 1.8V4.99a2 2 0 0 0-2-2Z"/><path fill="#ffa040" d="m15.75 13.09.13-.06V7.75l-3-1.22-2.15.84-.03.5-.47-.16v-.53l2.14-.87-.79-.32-2.12.84-.03 2.78-2.16.88v2.56l.09.06-.22.06v.56l.69.38.53-.28.59.28v.56l.72.34.59-.28.59.28v.59l.72.38 4.44-2.19v-.62l-.25-.09Zm-7.16.6-.47-.22v-.56l.5.22zm.82-2.97-.81.31v.47l-.5-.13v-.53l1.31-.53zM13 7.16l2.16.84-.03.5-.44.16v-.47l-2.13-.84zm-2.41 4.59-.5-.16v-.53l.5.16zm0-2.66v.47l-.47-.16v-.53L12.24 8l.47.19zm2.38 5.32-.47.19v-.56l.47-.19zm.03-2.16-.5.19v-.53l.5-.22zm2.19-1.5-.5.19v-.53l.5-.22z"/></svg>