<svg xmlns="http://www.w3.org/2000/svg" viewBox="0 0 16 16"><path fill="#ffa040" d="M4.64 11.29q-.74 1.05-.95 2.39h1.55q-.24-1.12-.25-2.29zm5.34-.75c-.35 1-.85 2.05-.6 3.14h2c-.5-1.45-.65-3.54-.95-4.39l-.4 1.25z"/><path fill="#ffa040" d="M15.57 5.55c-.55-.8-2.15-1.5-1.65-2.64.1-.2-.05-.15-.05-.15-.55.15-.25-.65-.6-.4-1.1 1.6 1.3 2.79 1.4 4.14-.25.85-1.1-.1-1-.3-.5-1.9-1.2-2.54-1.2-2.54-3.64.25-7.48.15-10.98 1.5C.55 6.55 0 9.15 0 9.15c.4-.35.8-.9 1.25-1.25-.1 2 .15 3.89.7 5.79h1.5c.2-1 .55-1.9 1.15-2.74.55.45 1.8.3 1.8.3l.7 2.44H9c.1-1.7 1-3.19 1.45-4.79 0-.4.4-.75.8-.7 2.24 1.2 5.99.75 4.39-2.64h-.05ZM10.33 7.5c-.25.45-.6-.3-.85-.35-1.5-.05-.6-2 .35-2.2-.5.25-1.1 1.35-.8 1.8.8 0 1.15 1.3 1.35.5v.25zm1.64-1.15c-.15.35-.65.15-.5-.2.05-.35.65-.15.5.2"/></svg>