<svg xmlns="http://www.w3.org/2000/svg" viewBox="0 0 16 16"><path fill="#e0e0e0" d="M14 3H8L6.59 1.59A2 2 0 0 0 5.18 1H2.01A2 2 0 0 0 0 3v10c0 1.1.9 2 2 2h4.58a6 6 0 0 1-1.39-2.53l-.03-.24c0-.59.38-1.06.9-1.22-.52-.16-.9-.64-.9-1.22l.03-.24a6 6 0 0 1 10.82-1.84V5.02a2 2 0 0 0-2-2Z"/><path fill="#e0e0e0" d="M9.82 11c0-.66.53-1.19 1.19-1.19s1.19.53 1.19 1.19-.53 1.19-1.19 1.19-1.19-.53-1.19-1.19"/><path fill="#e0e0e0" d="M11.04 6a5 5 0 0 0-4.89 3.78q.01.27.28.28h2q.15 0 .22-.17a2.6 2.6 0 1 1 0 2.22c0-.11-.11-.17-.22-.17h-2c-.17 0-.28.11-.28.22v.06A5 5 0 1 0 11.04 6"/></svg>