<svg xmlns="http://www.w3.org/2000/svg" viewBox="0 0 32 32"><path fill="#9c9c9e" d="M12.7 19s.6-2-1.8-4.8h-.1A6.7 6.7 0 0 1 15.9 3h.2a6.7 6.7 0 0 1 5.1 11c-2.2 2.2-2 5-2 5 4-1.4 6.7-5.1 6.7-9.3A10 10 0 0 0 16.6 0h-1.2a9.8 9.8 0 0 0-2.7 19M25.4 26.8l.6-.1.7-.1v-.2l-.1-.4-.1-.2-.1-.2-.1-.2a4.8 4.8 0 0 1-1.4-.4c-.3-.1-.7-.3-.8-.5a.7.7 0 0 1-.3-.5l.1-.3.3-.2H24l-.2-.2-.3-.1-.5-.3h-1.4a5.6 5.6 0 0 1-1.6-.4l-.3-.2c-.2-.1-.3-.2-.3-.4H19l-.7-.1v.1l-.1.3a1 1 0 0 0 .7 1.3c1.4.4 2.4 1 2.7 1.8.5 1.6-2 3.1-5.7 3.1s-6.2-1.5-5.6-3.1c.3-.8 1.2-1.4 2.5-1.8.6-.2 1-.8.8-1.3v-.4a23.6 23.6 0 0 1-1.5.2l-.2.4-.3.2-.5.1-.5.1-.6.1H8.9l-.2.1-.5.3-.5.2-.1.1c.2.2.3.3.3.5.1.2 0 .4-.1.6l-.4.2-.5.3-1.3.4-.1.2-.1.4-.1.4v.2l1.3.2.9.6c.1.3.2.6 0 .9 0 .3-.3.6-.7 1l.2.1.6.4.7.4.3.2h.1a6 6 0 0 1 2.7-.5 4.2 4.2 0 0 1 1.7.4l.7.4c.4.3.7.6.8 1h.6l1.1.1H18c0-.3.1-.5.3-.7l.2-.3.3-.2.6-.4.7-.3h1c.2-.1.5 0 .8 0 .6 0 1.3 0 1.9.3l.3-.2c.2 0 .4-.2.6-.4l.6-.4.2-.2c-.4-.3-.7-.6-.8-1l-.1-.4v-.4l.8-.6"/><path fill="#66b4ff" d="M11 9.8a4 4 0 0 0 1.6 3.2 7 7 0 0 1 2.2 5l-.2 6.6c-1.3.2-2.2.6-2.2 1.1 0 .7 1.6 1.4 3.6 1.4s3.5-.7 3.5-1.4c0-.5-.9-1-2.2-1.1l-.2-6.5a7 7 0 0 1 2.3-5.1 4 4 0 0 0 1.5-3.2c0-2.3-2.2-4.2-5-4.2-2.7 0-4.9 1.9-4.9 4.2"/></svg>