<svg xmlns="http://www.w3.org/2000/svg" viewBox="0 0 16 16"><path fill="#a0a0a0" d="M6.35 9.5s.3-1-.9-2.4H5.4c-1.99-2.06-.3-5.74 2.55-5.6 2.81-.15 4.5 3.4 2.65 5.5-1.1 1.1-1 2.5-1 2.5 2-.7 3.35-2.55 3.35-4.65A5 5 0 0 0 8.3 0h-.6C2.43.36 1.4 7.69 6.35 9.5m6.35 3.9.65-.1c.02-.21-.11-.42-.2-.6-.36-.06-.87-.18-1.1-.45a.3.3 0 0 1-.1-.4l.15-.1H12c-.11-.13-.37-.19-.5-.3-.55-.01-1.52.07-1.8-.5-.12.01-.42-.03-.55-.05-.49 1.11 1.56.96 1.65 1.75.25.8-1 1.55-2.85 1.55s-3.1-.75-2.8-1.55c.11-.78 1.96-.7 1.65-1.75l-.75.1-.1.2c-.41.25-1.03.25-1.5.25-.14.1-.6.29-.65.35q.27.25.1.55c-.27.17-.78.38-1.1.45-.08.17-.15.41-.15.6.38.03.8.13 1.1.4.05.15.1.3 0 .45 0 .15-.15.3-.35.5l.9.55c.95-.39 2.5-.42 3 .65.47 0 1.22.08 1.7.05.04-.51.64-.77 1.05-.95.6.02 1.25-.1 1.85.15l.15-.1c.2-.06.51-.35.7-.5a1 1 0 0 1-.45-.9z"/><path fill="#40a0ff" d="M5.5 4.9c0 .63.3 1.22.8 1.6A3.5 3.5 0 0 1 7.4 9l-.1 3.3c-.65.1-1.1.3-1.1.55 0 .35.8.7 1.8.7s1.75-.35 1.75-.7c0-.25-.45-.5-1.1-.55l-.1-3.25A3.5 3.5 0 0 1 9.7 6.5c.48-.39.76-.98.75-1.6 0-1.15-1.1-2.1-2.5-2.1S5.5 3.75 5.5 4.9"/></svg>