<svg xmlns="http://www.w3.org/2000/svg" viewBox="0 0 32 32"><path d="M12.4 7c3-.2 4-2.1 7.5-2.4 1.7-.2 2.8.2 3 .8 0 .6-.8 1-1.8 1-1.5.2-2.1-.4-2.2-.8-1.1 0-1.3.5-1.2.9.1.6 1.4 1.2 3.7 1 2.5-.2 3.3-1.2 3.1-2.2-.2-1.3-2.2-2.4-5.7-2.1-4.5.4-4.4 2.5-7.5 2.7-1.2.2-2-.1-2-.6-.2-.5.5-.8 1.2-.8a4 4 0 0 1 1.9.2c.2-.1.3-.3.3-.4-.1-.5-1-.7-2.2-.6-2.3.2-2.3 1.2-2.2 1.6.2 1.2 2 2 4.1 1.8Z" fill="#ffb466"/><path d="M6.2 10c2.8.7 6.3 1 10.7 1s7.9-.3 10.6-1c3-.7 4.4-1.7 4.4-2.5 0-.7-.6-1.3-1.8-1.7.3.1.5.4.5.7 0 1-1.3 1.7-4 2.3a45.2 45.2 0 0 1-19.2 0c-2.6-.6-4-1.3-4-2.2 0-.4.2-.7.8-1.1-1.7.6-2.5 1.2-2.5 2 0 .9 1.5 1.8 4.5 2.5Z" fill="#ffb466"/><path d="M27.7 12.2a51.2 51.2 0 0 1-21.4 0c-2.6-.6-4-1.3-4.4-2 .2 1.6.7 3.2 1.2 4.7l-1.8 1.5A6 6 0 0 0 0 20.6C.1 22 .8 23 2 24c1.2 1 2.4 1.2 3.8 1l1.8-.6c-1.2 0-2.2-.4-3.2-1.2-1-.8-1.8-1.9-2-3.2-.2-1.2 0-2.4.7-3.4l.5-.6L5 19 8 23.5c.5.9.8 1.8 1 2.7.7 1 1.7 1.6 3 2 1.5.5 3.1.8 4.7.7h.2c1.6 0 3.4-.2 5-.7 1-.4 2-1 2.8-2h.1c.2-1 .5-1.8.9-2.7l3.2-4.6a28 28 0 0 0 3-8.8c-.6.9-2 1.6-4.3 2.1Z" fill="#ffb466"/></svg>