<svg xmlns="http://www.w3.org/2000/svg" viewBox="0 0 16 16"><path fill="#ffa040" d="M6.22 3.47c1.5-.1 2.01-1.05 3.76-1.2.85-.1 1.4.1 1.5.4 0 .3-.4.5-.9.5-.75.1-1.05-.2-1.1-.4-.55 0-.65.25-.6.45.05.3.7.6 1.85.5 1.25-.1 1.65-.6 1.55-1.1-.1-.65-1.1-1.2-2.86-1.05-2.26.2-2.21 1.25-3.76 1.35-.6.1-1-.05-1-.3-.1-.25.25-.4.6-.4q.49-.06.95.1c.1-.05.15-.15.15-.2-.05-.25-.5-.35-1.1-.3-1.15.1-1.15.6-1.1.8.1.6 1 1 2.06.9z"/><path fill="#ffa040" d="M3.12 4.97q2.08.51 5.36.5c3.28-.01 3.96-.15 5.31-.5 1.5-.35 2.21-.85 2.21-1.25q0-.54-.9-.85c.15.05.25.2.25.35 0 .5-.65.85-2.01 1.15-3.17.69-6.45.69-9.63 0-1.3-.3-2.01-.65-2.01-1.1 0-.2.1-.35.4-.55-.85.3-1.25.6-1.25 1 0 .45.75.9 2.26 1.25Z"/><path fill="#ffa040" d="M13.89 6.08c-3.54.76-7.19.76-10.73 0-1.3-.3-2.01-.65-2.21-1 .1.8.35 1.6.6 2.36l-.9.75c-.47.59-.7 1.34-.65 2.1.05.7.4 1.2 1 1.7s1.2.6 1.9.5l.9-.3c-.6 0-1.1-.2-1.6-.6s-.9-.95-1-1.6c-.1-.6 0-1.2.35-1.7l.25-.3.7 1.5L4 11.75q.36.67.5 1.35c.35.5.85.8 1.5 1 .75.25 1.55.4 2.36.35h.1c.8 0 1.7-.1 2.51-.35.5-.2 1-.5 1.4-1h.05c.1-.5.25-.9.45-1.35l1.6-2.31a14 14 0 0 0 1.5-4.41q-.44.67-2.16 1.05h.05Z"/></svg>