<svg xmlns="http://www.w3.org/2000/svg" viewBox="0 0 16 16"><path fill="#40a0ff" d="M9.42 12.44v1.94q0 .16-.15.25c-1.56.36-3.17.4-4.74.1C.39 13.8-1.1 8.71.84 5.21a6.4 6.4 0 0 1 2.39-2.24c1.05-.5 2.29-.8 3.69-.8l1.5.05 1 .25.1.25v2.09q0 .16-.15.1c-.35-.15-.75-.3-1.1-.35l-1.4-.1q-1.29-.01-2.19.5c-.61.33-1.11.84-1.45 1.45a5 5 0 0 0-.25 3.69c.29.84.87 1.55 1.65 1.99.71.35 1.5.52 2.29.5h1.3q.59-.07 1.15-.3v.15zm2.09-4.89h-1.15s-.1-.05-.1-.15V5.46s0-.1.1-.1h1.15c0-.5-.02-1 .1-1.5a3.1 3.1 0 0 1 3.29-2.79c.3 0 .76-.05 1 .15l.1.15v1.89c0 .1 0 .15-.15.1-.32.02-.9-.06-1.15.1q-.31.14-.4.5c-.17.36-.15.88-.15 1.3h1.65l.1.05.05.15v1.89q0 .15-.15.15h-1.6v7.08l-.05.1-.15.05h-2.34c-.1 0-.15 0-.15-.15z"/></svg>