<svg xmlns="http://www.w3.org/2000/svg" viewBox="0 0 16 16"><path fill="#ffa040" d="M14 3H8L6.59 1.59A2 2 0 0 0 5.18 1H2.01A2 2 0 0 0 0 3v10c0 1.1.9 2 2 2h5.66l-.77-.72V11.8l-.39-.77.37-2.3a5 5 0 0 1-.29-1.34l.29-1.33 1.26.2c.13-.05.45-.2.6-.2L11.36 5h1.29q.27 0 .65.15l.49-.26.82.32c.77.6 1.2 1.83 1.28 2.72l.12.3V5a2 2 0 0 0-2-2Z"/><path fill="#ffa040" d="M16 10.86c-.06-.11-.11-.28-.06-.39l-.34-.34-1.29.45v.17l-.06.22.11.34-.22.39.28.78h.11-.22l.06-.11c0-.17-.39-.61-.56-.73.17 0 .22.11.34.06a3 3 0 0 0-.84-.67c.28.06.56.28.84.39-.22-.45-1.84-1.68-1.4-.39-.11 0-.06.11-.06.17v.28l-.11.06v-.22c.45-.89-.84-1.68-1.62-1.29-.78.22-1.23 1.01-1.57 1.73.67-.56 1.45-1.12 2.4-.95-1.12-.11-2.35.67-2.68 1.73s.28-.73.28-.73l-.17-.84-1.4-.17-.06.39c.17.11.11 2.24.11 2.4l.28.11.11.22 1.34 1.01v.17l.11.17v.17l.95.28c.06-.17.22-.45.11-.67l.17-.39c-.34-.17-.73-.67-1.12-.84l-.39-.61c.61-1.01 2.52-.11 3.07-1.45 0 1.12 1.57.84 2.35.95l-.17-.11.28.17-.73-.06.11.17c-.11-.06-.28-.17-.45-.11h-.67c.34.22.73.22 1.12.17l.06.11-.17.5-.39.17q-.42.46-.61 1.06l.22.61 1.57-.56c-.06-.34.11-.89.28-1.12 0-.73.39-1.68.67-2.29 0-.17-.11-.39 0-.56ZM9.4 13.1l-.11-.39-.11-.06q.17-.18.5-.28a.6.6 0 0 0-.34.39h.06l.56-.28c-.34.11-.56.34-.56.67zm1.29-.84q.44-.01.78-.28c-.22.11-.61.11-1.01.17.56-.06 1.06-.17 1.4-.56-.11.45-.61.56-1.12.67zm2.4-.33q.48.44 1.12.56c-.45 0-.89-.22-1.12-.56"/><path fill="#e0e0e0" d="m13.37 15.34-.17-.45a1.3 1.3 0 0 1-.67.56c.22 0 .67 0 .67.22l-.73-.17c-.11.22.56.17.67.34.28.06.17-.39.22-.56zm-1.84.16h-.34l.5-.11c-.28-.11-.45-.39-.67-.61-.11.28 0 .56-.22.73l.06.39c0 .11.22.17.22 0 .28-.17.56-.34.89-.39h-.45Zm.89-.05s0-.06-.06 0c-.17-.06-.56 0-.11.06zm1.46-5.48c.34 1.01 1.29.11 2.01 0 .11-.22 0-.45.11-.67-.61.22-1.68.28-2.12.67m1.9-.22c-.17 0-.17-.28 0-.28v-.06c.17 0 .11.34 0 .34m-8.11.11c-.28.84.22.84.95.89.5.06.95.34 1.01-.34-.56-.22-1.34-.39-1.96-.56Zm.39.61c-.17.17-.34-.17-.17-.34v.06c.17-.17.34.17.17.28"/><path fill="#e0e0e0" d="M14.1 13.1c0 .11-.06.28-.17.39 0-.17.17-.28 0-.39a2 2 0 0 1-1.4-.95c-.17.34-.45.56-.84.56l.34-.34c-.56.56-3.69.22-1.84 1.51.17.34.61.45.84.78.22.22.28.56.56.61.78.22 1.68-.28 1.79-1.06-.73.22.34-.22.34-.5.06-.17.34 0 .39-.22.06-.11.28-.45 0-.39Zm-4.25.06c0 .17.22.34.17.45-.06 0-.5-.45-.17-.45m2.01-.4c.11.17-.11.34-.17.45.11.17.17.45.06.61.11.45.39-.22.56-.06 0 .11-.22.22-.22.34-.22.28-.39-.17-.56-.11.56-.78-.56-.95-1.12-.78.28-.56 1.12.17 1.45-.45m-1.28.67s-.11 0-.06-.06c.39-.06 1.62-.11.56.17-.22.06-.34-.17-.5-.11m1.02 1.43-.07.2c-.39-.5.78-.78.84-.39a.56.56 0 0 0-.77.19m.38-.48c-.11.11-.28-.11-.45 0-.06 0-.39.06-.28-.06.17-.06.39-.17.56-.11.06.06.11.11.22 0 .11 0 .56-.17.5.11zm1.17-.83c-.22.06-.45-.06-.61-.11-.11-.06 0-.17-.17-.17-.22-.06-.34-.34-.28-.56.22.56.84.39 1.29.39-.17.17-.56.22-.78.17.17.34.61 0 .89 0zM9.52 7.29c-.45.17-.17.28 0 .56.28-.06.11-.45 0-.56m-.4.05c.28-.06.78-.39.84-.67-.28.22-1.29.34-.84.67m0 .67-.39-.28c-.06.34-.17 0-.06-.11.11-.17.34.28.5.28.56.11-.39-.56-.45-.84-.28 0-.56.56-.61.84.22.78-.39-.67-.56-.78.17 1.4.17 1.9 1.57.89m-.83 1.46c-.45.56.34.56.67.61q.13-.71.73-1.12c.17-.56.78-.95.84-1.45-.84.34-1.68.89-2.46 1.4 0 .17.28.39.22.56m6.14.05c1.23-.11.22-.67.45-1.51-.06-.67-.39-1.62-.89-2.01-.11.22.5.95.22 1.01-.11-.11-.22 0-.34-.06.22-.34-.95-.95-1.23-.95.22.39.95.56 1.12 1.06-.39-.06-1.06-1.12-1.29-.78.17.39 1.01.84.95 1.23-.45-.17-.78-.61-1.23-.67.17.34.73.56.95.95.11.11.28-.11.45-.06.06 0 .11 0 0 .06-.28.34-.73.11-1.12.22-.56.22.73.28.84.56.17.17.45.17.61.28.34.28.34.56.5.73v-.06Z"/></svg>