<svg xmlns="http://www.w3.org/2000/svg" viewBox="0 0 16 16"><path fill="#ffa040" d="m6.78 14.48-.04-3.4c-.4-.6-.17-1.29-.1-1.51l.41-.6a8 8 0 0 1-.46-1.79l.08-.19H5.45a2 2 0 0 0-1.9 1.37l-1.54 4.63v-6c0-1.1.9-2 2-2h11c.55 0 1-.45 1-1s-.45-1-1-1h-7L6.6 1.58A2 2 0 0 0 5.19.99H2.02A2.03 2.03 0 0 0 0 3v10c0 1.1.9 2 2 2h5.42z"/><path fill="#ffa040" d="M15.99 10.91c-.07-.28-.12-.56-.4-.73-.08.09-1.5.36-1.3.62-.09.15 0 .42.06.56-.31.22-.14 1.12.17 1.19h-.23c.19-.23-.32-.69-.51-.85.17 0 .23.11.34.06a2.5 2.5 0 0 0-.85-.68c.28.06.56.28.85.4-.23-.45-1.86-1.69-1.41-.4-.2.05.1.48-.17.51.5-2.52-2.89-1.67-3.22.23.68-.56 1.47-1.13 2.43-.96-1.13-.11-2.37.68-2.71 1.75s.28-.73.28-.73c.07-1.05-.84-.92-1.58-1.02-.05.35.13 2.38.06 2.82.16.04.36.16.4.34.25.18 1.49 1.04 1.47 1.35-.18.27.87.37.96.45.75-1.26-.71-1.53-1.24-2.54.62-1.02 2.54-.11 3.11-1.47 0 1.13 1.58.85 2.37.96l-.17-.11.28.17-.73-.06.11.17c-.23-.2-.84-.09-1.13-.11 2.95.52-.83.93.23 2.65l1.58-.56c.05-1.37.86-2.71.96-4.01Zm-6.66 2.26c-.04-.09-.08-.46-.23-.45.11-.11.28-.23.51-.28a.6.6 0 0 0-.34.4c.01.04.6-.27.62-.28-.34.11-.56.34-.56.68v-.06Zm1.3-.85q.43-.01.79-.28c-.23.11-.62.11-1.02.17.56-.06 1.07-.17 1.41-.56-.11.45-.67.6-1.19.68Zm2.43-.34q.49.45 1.13.56c-.45 0-.9-.23-1.13-.56"/><path fill="#e0e0e0" d="m13.34 15.43-.17-.45q-.26.4-.68.56c.23 0 .68 0 .68.23l-.73-.17c.16.3 1.07.56.9-.23zm-1.86.17h-.34l.51-.11c-.28-.11-.45-.4-.68-.62-.37 1.57-.28 1.2.96.73zm.9-.06c-.07-.05-.7-.02-.17.06zm1.47-5.53c.3 1 2.27.18 2.15-.68-.62.23-1.69.28-2.15.68m1.92-.23c-.17 0-.17-.28 0-.28v-.06c.17 0 .11.34 0 .34m-8.19.12c-.28.85.23.85.96.9 2.19.25.02-.89-.96-.9m.4.62c-.17.17-.34-.17-.17-.34v.06c.17-.17.34.17.17.28"/><path fill="#e0e0e0" d="M14.08 13.17c0 .11-.06.28-.17.4.22-.69-1.24-.58-1.41-1.35-.17.34-.45.56-.85.56l.34-.34c-.56.56-3.73.23-1.86 1.52.8 1.14 2.64 2.35 3.22.34-.95.34 1.48-1 .73-1.13m-4.3.06c0 .17.23.34.17.45-.06 0-.51-.45-.17-.45m2.04-.4c-.1.38-.05.68-.11 1.07.11.45.39-.23.56-.06-.18.47-.48.43-.79.23.56-.79-.56-.96-1.13-.79.28-.56 1.13.17 1.47-.45m-1.3.68c-.13-.16 1.79-.17.51.11-.23.06-.34-.17-.51-.11m1.03 1.44-.07.2c-.4-.51.79-.79.85-.4a.56.56 0 0 0-.77.2Zm.38-.48c-.1-.02-.75.07-.73-.06.38-.24 2.22-.1.73.06m1.19-.85c-.5.04-1.15-.3-1.07-.85.23.56.85.4 1.3.4-.17.17-.56.23-.79.17.17.34.62 0 .9 0q-.16.16-.34.28M9.45 7.3c-.45.17-.17.28 0 .56.28-.06.11-.45 0-.56m-.4.05c.28-.06.79-.4.85-.68-.28.23-1.3.34-.85.68m0 .68-.4-.28c-.06.34-.17 0-.06-.11 1.12.54.6.23.06-.56-.28 0-.56.56-.62.85.23.79-.4-.68-.56-.79.17 1.41.17 1.92 1.58.9Z"/><path fill="#e0e0e0" d="M8.2 9.5c-.45.56.34.56.68.62.2-.98 1.36-1.67 1.58-2.6-.73.5-2.84.95-2.26 1.98m6.21.06c1.26.02.2-3.04-.45-3.56-.07.45.76 1.19-.11.96.23-.34-.96-.96-1.24-.96.23.4.96.56 1.13 1.07-1.98-1.44-.95-.63-.34.45-.45-.17-.79-.62-1.24-.68.35.33.85 1.11 1.41.9.04.33-.79.21-1.13.28-.44.25 1.94.71 1.98 1.58v-.06Z"/></svg>