<svg xmlns="http://www.w3.org/2000/svg" viewBox="0 0 16 16"><path fill="#40a0ff" d="M14.93 4a1.4 1.4 0 0 0-.43-.46L8.62.15c-.34-.2-.89-.2-1.23 0L1.51 3.54c-.34.2-.62.68-.62 1.07v6.79q0 .3.18.61.18.3.43.46l5.88 3.39c.34.2.89.2 1.23 0l5.88-3.39q.26-.16.43-.46t.18-.61V4.61q0-.3-.18-.61ZM8 12.74a4.75 4.75 0 0 1 0-9.48c1.69 0 3.26.91 4.1 2.37l-2.05 1.19a2.37 2.37 0 1 0 0 2.36l2.05 1.19A4.8 4.8 0 0 1 8 12.74m4.74-4.48h-.53v.53h-.53v-.53h-.53v-.53h.53V7.2h.53v.53h.53zm1.97 0h-.53v.53h-.53v-.53h-.53v-.53h.53V7.2h.53v.53h.53z"/></svg>