<svg xmlns="http://www.w3.org/2000/svg" viewBox="0 0 16 16"><path fill="#6060ff" d="M9.54 7.49h1.03v1.03H9.54z"/><path fill="#6060ff" d="M14.17 3.25 9.03.28a2 2 0 0 0-2.06 0L1.83 3.25A2 2 0 0 0 .8 5.03v5.94c0 .74.39 1.41 1.03 1.78l5.15 2.97c.64.37 1.42.37 2.06 0l5.15-2.97a2 2 0 0 0 1.03-1.78V5.03c0-.74-.39-1.42-1.03-1.78ZM4.55 9.39a.5.5 0 0 0 .87-.36.5.5 0 0 1 .15-.36.5.5 0 0 1 .87.36 1.54 1.54 0 0 1-2.63 1.09 1.5 1.5 0 0 1-.45-1.09V6.97a1.54 1.54 0 0 1 2.63-1.09q.44.45.45 1.09 0 .22-.15.36a.5.5 0 0 1-.87-.36.5.5 0 0 0-.15-.36.5.5 0 0 0-.87.36v2.06q0 .22.15.36m7.57-.88q.22 0 .36.15a.5.5 0 0 1-.36.87h-.51v.51q0 .22-.15.36a.5.5 0 0 1-.87-.36v-.51H9.56v.51q0 .22-.15.36a.5.5 0 0 1-.87-.36v-.51h-.51a.5.5 0 0 1-.36-.15.5.5 0 0 1 .36-.87h.51V7.48h-.51a.5.5 0 0 1-.36-.15.5.5 0 0 1 .36-.87h.51v-.51q0-.22.15-.36a.5.5 0 0 1 .87.36v.51h1.03v-.51q0-.22.15-.36a.5.5 0 0 1 .87.36v.51h.51q.22 0 .36.15a.5.5 0 0 1-.36.87h-.51v1.03z"/></svg>