<svg xmlns="http://www.w3.org/2000/svg" viewBox="0 0 16 16"><path d="M5 14.13c0-.51.24-.95.6-1.25-.23-.19-.4-.45-.5-.73l-.72-.2-.25-2.77h1.43l.04-.04a1.64 1.64 0 01-.54-.84H4.05l-.16-1.77h1.12c.06-.85.75-1.52 1.61-1.52h1.25c.51 0 .95.24 1.25.6.3-.36.74-.6 1.25-.6h.08l.03-.29H3.73l-.16-1.77h8.85l-.19 2.18c.25.1.48.26.65.47.3-.36.74-.6 1.25-.6h.48l.44-5H.95l1.28 14.4 2.77.77v-1.04z" fill="#6060ff"/><rect x="6" y="6" width="2.5" height="2.5" rx=".62" ry=".62" fill="#6060ff"/><rect x="6" y="6" width="2.5" height="2.5" rx=".62" ry=".62" fill="#6060ff"/><rect x="6" y="9.75" width="2.5" height="2.5" rx=".62" ry=".62" fill="#6060ff"/><rect x="6" y="13.5" width="2.5" height="2.5" rx=".62" ry=".62" fill="#6060ff"/><rect x="13.5" y="6" width="2.5" height="2.5" rx=".62" ry=".62" fill="#6060ff"/><rect x="13.5" y="6" width="2.5" height="2.5" rx=".62" ry=".62" fill="#6060ff"/><rect x="13.5" y="9.75" width="2.5" height="2.5" rx=".62" ry=".62" fill="#6060ff"/><rect x="13.5" y="13.5" width="2.5" height="2.5" rx=".62" ry=".62" fill="#6060ff"/><rect x="9.75" y="6" width="2.5" height="2.5" rx=".62" ry=".62" fill="#6060ff"/><rect x="9.75" y="6" width="2.5" height="2.5" rx=".62" ry=".62" fill="#6060ff"/><rect x="9.75" y="9.75" width="2.5" height="2.5" rx=".62" ry=".62" fill="#6060ff"/><rect x="9.75" y="13.5" width="2.5" height="2.5" rx=".62" ry=".62" fill="#6060ff"/></svg>