<svg xmlns="http://www.w3.org/2000/svg" viewBox="0 0 16 16"><path fill="#40ffa0" fill-rule="evenodd" d="m11.41 1.26-.37-.2-.4-.18-.13-.05-.36-.13A6.7 6.7 0 1 0 5.9 13.43q.42.14.87.23v1.92c4.03-.61 7.61-3.79 7.87-7.98a7 7 0 0 0-3.23-6.34"/><path fill="#6060ff" fill-rule="evenodd" d="M6.7 3.66a.6.6 0 0 1 .55.21q.15.17.25.38c.22.49.35 1.2.08 1.59A2.2 2.2 0 0 1 6.2 4.77a1 1 0 0 1-.12-.46c0-.34.28-.62.62-.65M4.74 6.43q.2.15.42.25a2 2 0 0 0 1.69-.05 2 2 0 0 0-1.16-1.19 1 1 0 0 0-.5-.11h-.11a.6.6 0 0 0-.58.63q.01.28.24.46Zm2.11 1.19c-.27-.18-.82-.11-1.14-.1q-.3 0-.58.12-.24.09-.42.25a.63.63 0 0 0-.06.89q.22.24.54.21.26 0 .5-.11c.5-.21 1.09-.8 1.16-1.26m.9.69c-.58.21-1.04.65-1.29 1.21q-.1.22-.11.45a.66.66 0 0 0 1.14.46q.13-.2.24-.42c.21-.46.3-1.29.02-1.71Zm.88-2.48a2 2 0 0 0 1.28-1.09q.1-.22.11-.47a.7.7 0 0 0-.62-.68.6.6 0 0 0-.55.22q-.14.2-.24.42c-.21.5-.29 1.2.03 1.59Zm1.46 4.19q0-.25-.11-.46a2 2 0 0 0-1.23-1.13c-.27.5-.3 1.1-.08 1.63q.09.21.24.39c.39.42 1.21.11 1.18-.42Zm1.45-2.17-.42-.24a1.4 1.4 0 0 0-.58-.12q-.58-.05-1.1.19c.2.53.62.96 1.15 1.17q.24.1.5.11c.34.04.65-.21.69-.55a.6.6 0 0 0-.24-.56"/><path fill="#6060ff" d="M6.4 16v-2.05A7.07 7.07 0 1 1 10.26.35l.29.1.09.03.14.06a7 7 0 0 1 .82.41 7.3 7.3 0 0 1 3.41 6.67c-.26 4.15-3.7 7.64-8.18 8.31zM8.06.72a6.35 6.35 0 0 0-1.22 12.57l.29.06v1.79c3.94-.77 6.91-3.89 7.15-7.57a6.6 6.6 0 0 0-3.05-6.01l-.35-.19-.37-.17-.12-.05-.09-.03-.24-.09A6 6 0 0 0 8.08.71Z"/></svg>