<svg xmlns="http://www.w3.org/2000/svg" viewBox="0 0 16 16"><path fill="#40ffa0" d="M14 3H8L6.59 1.59A2 2 0 0 0 5.18 1H2.01A2 2 0 0 0 0 3v10c0 1.1.9 2 2 2h4.54A5.98 5.98 0 0 1 11 5a6 6 0 0 1 5 2.69V5a2 2 0 0 0-2-2"/><path fill="#40ffa0" d="m15.82 9.68-.2-.6h-.02a5 5 0 0 0-4.96-3.07q-.35.03-.7.09a5 5 0 0 0-3.81 6.12l.17.54.05.13a5 5 0 0 0 4.63 3.09c.5.04.99-.22 1.15-.71l.16.53a5 5 0 0 0 3.51-6.15Zm-2.26-.44-.83 2.11-.84-2.11h-1.1l.4.97c-.78-1.73-3.53-1.15-3.48.78-.02 2.08 3 2.49 3.59.52l-.81-.27-.15-.02c-.25.93-1.62.74-1.6-.23-.01-.99 1.33-1.17 1.62-.21l.94-.32.89 2.17-.95 2.31s-.03.07-.07.07A4.05 4.05 0 0 1 6.98 11c0-4.25 5.83-5.54 7.65-1.75h-1.05Zm-1.18 5.47 2.24-5.45a4 4 0 0 1-2.26 5.51z"/></svg>