<svg xmlns="http://www.w3.org/2000/svg" viewBox="0 0 16 16"><path fill="#40ffa0" d="M15.71 5.89q-.15-.48-.33-.95h-.03a7.9 7.9 0 0 0-7.9-4.9q-.56.05-1.11.15A8 8 0 0 0 .26 9.96l.27.86.08.21a8 8 0 0 0 7.38 4.94c.79.07 1.58-.35 1.84-1.13l.26.85a8 8 0 0 0 5.61-9.81Zm-3.6-.69-1.33 3.37L9.44 5.2H7.68l.63 1.55C7.07 3.99 2.68 4.92 2.75 8c-.04 3.31 4.79 3.97 5.73.84L7.19 8.4l-.23-.03C6.56 9.85 4.37 9.55 4.41 8c-.02-1.58 2.13-1.87 2.58-.34l1.5-.51 1.41 3.46-1.52 3.68q-.03.1-.11.11a6.5 6.5 0 0 1-6.7-6.41c0-6.79 9.31-8.84 12.21-2.8zm-1.89 8.72 3.57-8.69a6.4 6.4 0 0 1-3.61 8.79z"/></svg>