<svg xmlns="http://www.w3.org/2000/svg" viewBox="0 0 16 16"><path fill="#6060ff" d="M5.61 12.96A2.3 2.3 0 0 1 5 11.47l.01-.21 1.71-4.19.14-.07H5.44a2 2 0 0 0-1.9 1.37L2 13V7c0-1.1.9-2 2-2h11c.55 0 1-.45 1-1s-.45-1-1-1H8L6.59 1.59A2 2 0 0 0 5.18 1H2.01A2 2 0 0 0 0 3v10c0 1.1.9 2 2 2h5.65zm8.67-5.93 1.69 1.69a2 2 0 0 0-1.69-1.69"/><path fill="#40a0ff" d="m13.9 8.03-1.72-1.69a1.2 1.2 0 0 0-.72-.34 1.3 1.3 0 0 0-.62.12L7.72 7.68zm.32 6.19-2.91-3.28-3.59-3.22v5.31c0 .53.06.66.31.94l.28.25L10.06 16h4.16z"/><path fill="#6060ff" d="m8.03 13.94-.25-5V7.82l-.06-.06-1.56 3.25a1 1 0 0 0-.16.47q.01.44.31.78l1.72 1.72.06.06-.06-.09Zm5.87-5.91c-.25-.28-.62-.31-1-.31H7.71l6.5 6.5h1.78v-4.06z"/></svg>