<svg xmlns="http://www.w3.org/2000/svg" viewBox="0 0 16 16"><path fill="#e0e0e0" fill-rule="evenodd" d="M7.5 14.75V11c0-.56.22-1.06.57-1.46l-.17-.15q-.04-.05 0-.11t.11-.03l.24.07q.23-.2.5-.34V8.5a3.5 3.5 0 0 1 2.92-3.44c-1.22-.62-1.88-1.31-2.95-1.74-.76-.31-1.6-.12-2.46.35-2.33 1.29-4.41 5.35-3.45 9.11q.02.09-.06.13t-.14-.02a7.28 7.28 0 1 1 12.5-6.39q.62.87.64 2v.48q.1.05.17.12.05-.36.07-.73a8.01 8.01 0 1 0-8.37 7.62h.25a2.2 2.2 0 0 1-.38-1.24Zm-.58-9.94c.04-.37.35-.95.82-.99.39-.03.73.3.79.75.08.59-.14 1.21-.85 1.22-.61.01-.8-.6-.76-.98"/><path fill="#a0a0a0" d="M14.75 9.75V8.5a2.5 2.5 0 0 0-5 0v1.25c-.69 0-1.25.56-1.25 1.25v3.75c0 .69.56 1.25 1.25 1.25h5c.69 0 1.25-.56 1.25-1.25V11c0-.69-.56-1.25-1.25-1.25m-2.5 4.06a.94.94 0 1 1 0-1.88.94.94 0 0 1 0 1.88m1.25-4.06H11V8.5a1.25 1.25 0 0 1 2.5 0z"/></svg>