<svg xmlns="http://www.w3.org/2000/svg" viewBox="0 0 16 16"><path fill="#e0e0e0" d="M7.5 14.75v-.23c-.11.1-.25.17-.4.13a.4.4 0 0 1-.31-.48v-.02l.5-2 .2-.19V11q0-.24.07-.45C5.1 10.57 3.54 9.5 3.54 7.8c0-1.8 1.8-3.25 4.15-3.25a4.5 4.5 0 0 1 2.83.92A3.5 3.5 0 0 1 12.24 5q.3 0 .59.06l.06-.26c.07-.22.3-.34.52-.27s.34.3.28.52l-.06.24a3.5 3.5 0 0 1 2.11 3.21v.48l.17.11q.08-.54.08-1.1a8 8 0 1 0-8.11 8 2.2 2.2 0 0 1-.38-1.24m4.65-12.2v.05l.1-.4c.25.2.5.35.65.55v.05c-.05.2-.25.3-.5.25a.4.4 0 0 1-.25-.5m-1.8.8c.05-.2.3-.35.5-.3s.3.3.25.5l-.4 1.5h-.05l-.65-.4zM8.94 1.62V1.6l.2-.7h.05l.7.2-.2.7c0 .2-.25.3-.45.3a.4.4 0 0 1-.31-.48ZM6.55.95h.05l.75-.1V1l-.5 2c-.1.2-.3.3-.5.25a.4.4 0 0 1-.3-.45zM1.06 7.29a.4.4 0 0 1-.21-.14c.1-.9.4-1.8.85-2.6h.1c.2.05.3.25.25.5l-.5 2V7a.4.4 0 0 1-.49.29m2.09.81-.55 2c-.05.2-.25.3-.5.25a.4.4 0 0 1-.25-.5l.5-1.95c.1-.2.3-.35.5-.3.2.1.35.3.3.5m-.16-3.18V4.9l.5-1.9c.1-.2.3-.3.5-.25.2 0 .35.25.3.5l-.5 1.95c-.1.2-.3.3-.5.25V5.4a.4.4 0 0 1-.31-.48Zm.81 7.48a.4.4 0 0 1-.25-.5l.5-1.95.05-.05.7.45-.5 1.8c-.05.2-.25.3-.5.25m2.15.95-.4 1.4H5.5l-.7-.3.35-1.3c.1-.2.3-.35.5-.25.2 0 .35.25.3.45"/><path fill="#a0a0a0" d="M14.75 9.75V8.5a2.5 2.5 0 0 0-5 0v1.25c-.69 0-1.25.56-1.25 1.25v3.75c0 .69.56 1.25 1.25 1.25h5c.69 0 1.25-.56 1.25-1.25V11c0-.69-.56-1.25-1.25-1.25m-2.5 4.06a.94.94 0 1 1 0-1.88.94.94 0 0 1 0 1.88m1.25-4.06H11V8.5a1.25 1.25 0 0 1 2.5 0z"/><circle cx="8.2" cy="6.35" r=".5" fill="#e0e0e0"/></svg>