<svg xmlns="http://www.w3.org/2000/svg" viewBox="0 0 16 16"><path fill="#e0e0e0" fill-rule="evenodd" d="M8.37 0a8 8 0 1 0-.77 16 8 8 0 0 0 .77-16M6.92 4.81c.04-.37.35-.95.82-.99.39-.03.73.3.79.75.08.59-.14 1.21-.85 1.22-.61.01-.8-.6-.76-.98m6.46 8.09a3.8 3.8 0 0 1-2.69 1.18 2.7 2.7 0 0 1-2.58-2.39c-.02-.16 0-.61.08-.92.06-.23.23-.68.46-.87a3 3 0 0 1-.74-.5q-.04-.05 0-.11t.11-.03q.37.13.83.21c.4.07.9.15 1.4.18 1.23.06 2.52-.49 2.92-1.59s.24-2.19-1.19-2.84-2.09-1.43-3.25-1.9c-.76-.31-1.6-.12-2.46.35-2.33 1.29-4.41 5.35-3.45 9.11q.02.09-.06.13-.1.05-.14-.02a7.28 7.28 0 1 1 10.76.01"/></svg>