<svg xmlns="http://www.w3.org/2000/svg" viewBox="0 0 16 16"><path fill="#e0e0e0" d="M8 0a8 8 0 1 0 0 16A8 8 0 0 0 8 0m4.15 2.6.1-.4c.25.2.5.35.65.55v.05c-.05.2-.25.3-.5.25a.4.4 0 0 1-.25-.5zm-1.8.75c.05-.2.3-.35.5-.3s.3.3.25.5l-.4 1.5h-.05l-.65-.4zM8.95 1.6l.2-.7h.05l.7.2-.2.7c0 .2-.25.3-.45.3a.4.4 0 0 1-.31-.48zm-2.9 1.2.5-1.85h.05l.75-.1V1l-.5 2c-.1.2-.3.3-.5.25a.4.4 0 0 1-.3-.45M1.55 7a.4.4 0 0 1-.49.29.4.4 0 0 1-.21-.14c.1-.9.4-1.8.85-2.6h.1c.2.05.3.25.25.5l-.5 2zm1.6 1.1-.55 2c-.05.2-.25.3-.5.25a.4.4 0 0 1-.25-.5l.5-1.95c.1-.2.3-.35.5-.3.2.1.35.3.3.5m.15-2.7a.4.4 0 0 1-.31-.48V4.9l.5-1.9c.1-.2.3-.3.5-.25.2 0 .35.25.3.5l-.5 1.95c-.1.2-.3.3-.5.25zm1 6.75c-.05.2-.25.3-.5.25a.4.4 0 0 1-.25-.5l.5-1.95.05-.05.7.45zm1.65 1.2-.4 1.4H5.5l-.7-.3.35-1.3c.1-.2.3-.35.5-.25.2 0 .35.25.3.45m2.15-1v.05l-.5 2c-.1.15-.3.3-.5.25a.4.4 0 0 1-.31-.48v-.02l.5-2c.1-.15.3-.3.5-.25.15.05.2.1.25.2zm5.2.5a7.4 7.4 0 0 1-4.35 2.3l-.25-1.7-.6-2.7.05-.2H7.8c-2.6.1-4.25-1-4.25-2.75s1.8-3.25 4.15-3.25a4.5 4.5 0 0 1 2.8.9 4 4 0 0 1 1.4 2l1.45 5.35zm.4-7.8-.5 2c-.1.15-.3.3-.5.25a.4.4 0 0 1-.31-.48V6.8l.5-2c.07-.22.3-.34.52-.28.22.07.34.3.28.53Zm1.35 2.6-.5 2c-.1.2-.3.3-.5.25s-.35-.25-.3-.5l.5-1.95c.1-.2.3-.35.5-.25.25 0 .35.25.3.45"/><circle cx="8.2" cy="6.35" r=".5" fill="#e0e0e0"/></svg>