<svg xmlns="http://www.w3.org/2000/svg" viewBox="0 0 16 16"><path fill="#40a0ff" d="M15.7 8.88h-.6V5.33c0-.5-.4-.9-.9-.9H9.75V1.18q-.01-.3-.25-.3H7.4c-.15 0-.3.15-.3.3v2.05c0 .2.15.3.3.3h1.5v.95H1.8c-.5 0-.9.4-.9.9v3.5H.3c-.15 0-.3.15-.3.35v2.95c0 .15.15.3.3.3h.6v1.8c0 .5.4.85.9.85h12.45c.5 0 .85-.4.85-.85v-1.8h.6c.2 0 .3-.15.3-.3v-3c0-.15-.15-.25-.3-.25zm-8.85.7L5 11.43c-.15.15-.35.15-.5 0l-1.15-1.1a.34.34 0 0 1 0-.49l.4-.4c.15-.15.35-.15.5 0l.5.5 1.2-1.25c.15-.15.4-.15.5 0l.4.4c.15.1.15.35 0 .5Zm5.95 0-1.9 1.85c-.1.15-.35.15-.5 0l-1.1-1.1a.34.34 0 0 1 0-.49l.35-.4c.15-.15.4-.15.5 0l.5.5 1.25-1.25c.15-.15.35-.15.5 0l.4.4c.1.1.1.35 0 .5Z"/></svg>