<svg xmlns="http://www.w3.org/2000/svg" viewBox="0 0 16 16"><path fill="#40a0ff" d="M7.11 2.26h1.65v1.55H7.11zm0 1.84h1.65v1.55H7.11zm-1.95 0h1.65v1.55H5.16zm-1.95 0h1.65v1.55H3.21zM1.26 6h1.65v1.55H1.26zm1.95 0h1.65v1.55H3.21zm3.6.71V6H5.16v1.55h.94q.32-.45.71-.84M7.69 6h-.58v.44q.27-.24.58-.44m7.13.39q.51.42.92.95l.06-.09.15-.35.05-.1-.35-.2.05.05a2 2 0 0 0-.88-.26m-1.25-.8a3 3 0 0 0-.72-.84l-.35-.25-.25.35-.13.27q.76.15 1.45.48ZM5 11c0-1.16.33-2.23.9-3.15H.02V8c-.05.6-.05 2.5 1.15 4a5.1 5.1 0 0 0 4.15 1.75l.35-.02a6 6 0 0 1-.66-2.72Z"/><path fill="#ff4040" d="M11 6a5 5 0 1 0 0 10 5 5 0 0 0 0-10m2.5 5.63h-5c-.35 0-.62-.28-.62-.63s.28-.62.62-.62h5c.35 0 .62.28.62.62s-.28.63-.62.63"/></svg>