<svg xmlns="http://www.w3.org/2000/svg" viewBox="0 0 16 16"><path fill="#40a0ff" d="M15.7 6.65a3 3 0 0 0-1.85-.25 2.5 2.5 0 0 0-1-1.65l-.35-.25-.25.35c-.3.55-.5 1.15-.4 1.75q0 .54.3 1-.56.27-1.2.25H.02V8c-.05.6-.05 2.5 1.15 4a5.1 5.1 0 0 0 4.15 1.75c3.95 0 6.84-1.9 8.19-5.34.5 0 1.7 0 2.3-1.15l.15-.35.05-.1-.35-.2zM7.11 2.26h1.65v1.55H7.11z"/><path fill="#40a0ff" d="M7.11 4.1h1.65v1.55H7.11zm-1.95 0h1.65v1.55H5.16zm-1.95 0h1.65v1.55H3.21zM1.26 6h1.65v1.55H1.26zm1.95 0h1.65v1.55H3.21zm1.95 0h1.65v1.55H5.16zm1.95 0h1.65v1.55H7.11zm1.95 0h1.65v1.55H9.06z"/></svg>