<svg xmlns="http://www.w3.org/2000/svg" viewBox="0 0 16 16"><path fill="#40a0ff" d="m3.54 8.37-.11.34h1.18v-1.5a2 2 0 0 0-1.07 1.16M5.44 7q-.4.01-.76.17h3.09V7z"/><path fill="#40a0ff" d="M2.09 12.72 2 13V7c0-1.1.9-2 2-2h11c.55 0 1-.45 1-1s-.45-1-1-1H8L6.59 1.59A2 2 0 0 0 5.18 1H2.01A2 2 0 0 0 0 3v10c0 1.1.9 2 2 2h1.03a5.4 5.4 0 0 1-.93-2.28Z"/><path fill="#40a0ff" d="m3.03 9.92-.1.29h.1zM12.87 15H14a2 2 0 0 0 2-2v-.95q-.55.44-1.35.56A7 7 0 0 1 12.87 15M14 7h-2.88v1.71h.77l.19-.41.85-1.2 1.1.79q.3.23.54.51l1.43.82v-.21a2 2 0 0 0-2-2Z"/><path fill="#40a0ff" d="M15.76 10.24c-.32-.2-.97-.28-1.5-.2a2 2 0 0 0-.81-1.34l-.28-.2-.2.28a2.2 2.2 0 0 0-.32 1.42q0 .44.24.81-.46.23-.97.2H3.01v.12c-.04.49-.04 2.03.93 3.25A4.2 4.2 0 0 0 7.31 16c3.21 0 5.56-1.54 6.66-4.34.41 0 1.38 0 1.87-.93l.12-.28.04-.08-.28-.16zM8.78 6.67h1.34v1.26H8.78z"/><path fill="#40a0ff" d="M8.78 8.17h1.34v1.26H8.78zm-1.59 0h1.34v1.26H7.19zm-1.58 0h1.34v1.26H5.61zM4.03 9.71h1.34v1.26H4.03zm1.58 0h1.34v1.26H5.61zm1.58 0h1.34v1.26H7.19zm1.59 0h1.34v1.26H8.78zm1.58 0h1.34v1.26h-1.34z"/></svg>