<svg xmlns="http://www.w3.org/2000/svg" viewBox="0 0 16 16"><path fill="#6060ff" d="m3.47 8.6-.98 2.94 2.8-1.8z"/><path fill="#6060ff" d="M15 3H8L6.59 1.59A2 2 0 0 0 5.18 1H2.01A2 2 0 0 0 0 3v10c0 1.1.9 2 2 2h4.7l-1.39-.89.48-.31-3.34-2.15L2 12.99v-6c0-1.1.9-2 2-2h11c.55 0 1-.45 1-1s-.45-1-1-1Zm1 7.39V9.08l-1.05.67zm-1.09 3.72-1.39.89H14a2 2 0 0 0 2-2v-.26l-1.61 1.03z"/><path fill="#6060ff" d="M10.11 7.89 7.17 9.78l2.94 1.83-2.94 1.89-2.95-1.89 2.95-1.89-2.95-1.83L7.17 6zm-2.94 6.22 2.94-1.89 2.95 1.89L10.11 16zm2.94-2.5 2.95-1.89-2.95-1.83L13.06 6 16 7.89l-2.94 1.89L16 11.56l-2.94 1.88-2.95-1.88z"/></svg>