<svg xmlns="http://www.w3.org/2000/svg" viewBox="0 0 16 16"><path fill="#6060ff" d="m14.91 14.11-1.39.89H14a2 2 0 0 0 2-2v-.26l-1.61 1.03zM16 10.39V9.08l-1.05.67zM14 3H8L6.59 1.59A2 2 0 0 0 5.18 1H2.01A2 2 0 0 0 0 3v10c0 1.1.9 2 2 2h4.7l-1.39-.89.48-.31-3.42-2.19 2.92-1.88L2.35 7.9l4.82-3.09 2.94 1.89 2.94-1.89 2.94 1.89V5a2 2 0 0 0-2-2Z"/><path fill="#6060ff" d="M10.11 7.89 7.17 9.78l2.94 1.83-2.94 1.89-2.95-1.89 2.95-1.89-2.95-1.83L7.17 6zm-2.94 6.22 2.94-1.89 2.95 1.89L10.11 16zm2.94-2.5 2.95-1.89-2.95-1.83L13.06 6 16 7.89l-2.94 1.89L16 11.56l-2.94 1.88-2.95-1.88z"/></svg>