<svg xmlns="http://www.w3.org/2000/svg" viewBox="0 0 16 16"><path fill="#e0e0e0" d="M10.3 10.22q0 .46-.16.84c-.05.16-.16.31-.63.42-.42.16-.68.21-1.57.21-1.05 0-1.31-.1-1.83-.52l-.37-.52c-.26-.31-.37-.94-.26-1.2l-.47-.21c-.26.1-.05.26-1.05.63a5 5 0 0 1-2.82-.42C.63 10.85.26 12.58 0 14.04c.05-.05.1-.16.58-.16.16 0 1.1.42 1.26.52.1.1.21.26.21.42 0 .1-.26.26-.31.26-.1 0-.31.16-.63.16-.4 0-.61-.2-1.08-.66q.04.43.24.82l.99.21h1.15c.63 0 1.62-.16 1.88-.21.37 0 .73-.1 1.1-.21l1.1-.58 1.08-.47.28-.15a9 9 0 0 0 2.16-1.49l.43-.62.08-.14q.18-.2.35-.46.2-.3.32-.8zM2.29 6.7c0 .1.01.19-.19.44.73.05 2.04.73 2.82 1.2l.16.21v.21q-.05.21 0 .21c.21 0 .37.16.47.16l.16-.21c.68 0 1.26-.05 1.94.1q1 .14 1.62.37c.26.1.99.21 1.05.58q.45 0 .89.16c0-.26-.01-1.35-.21-2.04-.26-.84-.42-1.62-.89-2.41C9.33 5 8.7 4.95 7.7 4.53a11 11 0 0 0-3.61-.1c-.47.37-.99.89-.99 1.05-.1.26-.58.89-.78 1.2v.03Z"/><path fill="#e0e0e0" d="M1.67 14.77s-.1-.21-.21-.21c-.21 0-1.15-.52-1.15-.26v.05c0 .21.47.42.63.42zm1.94-5.33c.16-.05.42-.68.31-.84-.16 0-.42.42-.31.84"/><path fill="#e0e0e0" d="m1.46 8.6-.1.31-.05.1-.05.13c.63.39 1.68.49 2.04.49a2 2 0 0 1 .26-1.1q.1-.26.31-.26t.26.1c.31.37 0 .89-.31 1.2.31-.05.63-.21.84-.42 0-.37.16-.63 0-.73-1.05-.63-1.83-.84-2.61-1.05h-.03L2 7.42l-.37.75-.15.35v.05Zm-.31-.42c0-.31.1-.52.31-.89-.42.1-.42 0-.68.42-.1.26-.21.84.05 1.05l.26-.58h.05Zm6.13 2.01q.03.18.25-.02c.16-.1.26-.47.16-.58-.1 0-.3.34-.4.6Z"/><path fill="#e0e0e0" d="M9.88 10.12c-.26-.31-.21-.37-.78-.52q-1.33-.43-2.72-.52c-.26 0-.31.05-.37.1-.16.1-.26.37-.26.73-.05.21 0 .21.16.47.26.47.52.73 1.05.89.37.1.58.1 1.2.1l.84-.05c.73-.16 1.1-.42.99-.78zm-2.3.52v-.05c-.16.1-.47.1-.47 0-.1-.05-.1-.47 0-.73.16-.21.42-.52.52-.52.16 0 .42.1.42.21.05.31-.21.89-.47 1.1Zm8.16-3.55q-.09.02-.1-.21c0-.21-.42-.58-.84-.73l-.89-.05-.94.16c-.42.1-.78.52-1.31.84.05.1-.26.26-.31.47.12.51.24.73.22 1.55q0 .4-.06 1.06l.89.05c.42 0 .52 0 .78-.1a5.5 5.5 0 0 0 2.51-1.99q.24-.54.31-1.13 0-.1-.02-.18c-.05-.21-.19-.39-.5-.67l.05-.05-.03-.04-.07-.06-.07-.06-.11-.08h-.01c-.32-.2-.76-.29-1.59-.29-1.03.1-1.66.56-2.38 1.13l.13.13c.31-.1.68-.31.89-.52.31-.26.58-.37.94-.37a5 5 0 0 1 1.46 0c.42.1.84.21 1.05.73.1.16.16.42 0 .42ZM5.91.97C6.28.6 6.54.6 7.11.6c.52 0 .68.1.84.31.1.21.1.16.1.52.05.52.05.31-.1.73-.26.73-.58 1.36-.78 1.41q-.1.05-.1-.05c0-.1.05-.1-.05-.1-.05-.05-.05-.1.47-.94.26-.37.37-.52.37-.94.05-.16-.1-.42-.21-.52-.26-.16-.78 0-1.05 0-.21.05-.26.1-.52.31-.1.1-.26.31-.42.37-.21.05-.99.94-1.15 1.26-.05.05-.58 1.15-.42 1.05.43-.16.69-.2.94-.2.26 0 .49.04.84.04h1.15q.2.01.32-.04t.2-.33h.1c.1-.16.37-.52.47-.89l.16-.47V.86L8.06.7A2.5 2.5 0 0 0 6.8.39h-.31a4.4 4.4 0 0 0-1.62 1.04q-.09.03-.18.17l-.11.19-.23.48-.31.56c-.21.47-.26.69-.26 1.01v.26c.16-.58.52-1.31.78-1.73.63-.89.94-1.05 1.36-1.41Z"/></svg>