<svg xmlns="http://www.w3.org/2000/svg" viewBox="0 0 16 16"><path fill="#6060ff" d="m14.15 3.8.7 2.8L16 2.95zM12 .6c-1 .25-2.5.6-3.65.8l.9 1.1 2.8-1.9zm-2.8 9.7 3.5 2.2-.9-3.45zm.35-7.4 1.35 1.6L12.45.9zM7.1 7.4l3.1-2.2-4.3.4zm3.2 6.8 2.4-1.25-3.55-2.2zM6.75 7.65l-1.2-1.8L2.9 10.4zm4.95.95-.75-3-1.8 4.2zm-.35-3.2.75 3 2.25-1.1zm-.9.15-3.1 2.2 1.3 2.05.05-.1zm4 1.35-.7-2.95-2.3 1zM9.2 3.15l-2.85 2 4.15-.4zm-2.25 4.9-3.9 2.8 5.25-.75zM8.9 2.8 8 1.7l-1.75 3zm5.15.55 1.9-.85-2.6-1.8zm-.95 8.95 1.4-4.55-2.3 1.1zm-1.7-7.8 2.2-.95-.65-2.7zm-.75 10.9h1.5l.6-1.95-2.35 1.2zm-5.7 0L4 14.05 2.2 15.4zm-.85-2 3.8-2.85-5.3.75zm6.1 2-.2-.55-1.1.55zM0 15.4h1.4l2.3-1.7-1.45-2.15zm5.5 0h.8l1.9-4.5-3.85 2.9zm1.35 0h1.1l1.95-1-1.2-3.55z"/></svg>