<svg xmlns="http://www.w3.org/2000/svg" viewBox="0 0 16 16"><path fill="#a040ff" d="M14 3H8L6.59 1.59A2 2 0 0 0 5.18 1H2.01A2 2 0 0 0 0 3v10c0 1.1.9 2 2 2h7.21q-.12-.18-.22-.38c-1.07-1.98-.27-4.2.54-5.9l.23-.43c.38-.71.76-1.45 1.37-2.12q.6-.7 1.52-1.1l1.27-.52.16 2.21c.04.75.33 1.46.82 2.01l.25.33q.44.51.85 1.09V5a2 2 0 0 0-2-2"/><path fill="#a040ff" fill-rule="evenodd" d="M14.15 9.44a4.3 4.3 0 0 1-1.06-2.59l-.06-.84q-.68.28-1.16.84c-.62.69-1 1.5-1.44 2.31-.75 1.56-1.41 3.44-.53 5.06.94 2.12 4.09 2.44 5.5.47 1.37-2.09.12-3.59-1.25-5.22z"/></svg>