<svg xmlns="http://www.w3.org/2000/svg" viewBox="0 0 16 16"><path fill="#6060ff" d="m4.85 6.1 3-1.75h.3l3 1.75c.1 0 .15.1.15.2v3.49q0 .16-.15.25l-3 1.75H7.9l-3.05-1.8a.24.24 0 0 1-.15-.25V6.25q0-.14.15-.2"/><path fill="#6060ff" d="m15.89 7.7-3.64-6.34c-.1-.2-.35-.4-.6-.4H4.36c-.25 0-.5.2-.6.4L.11 7.65a.7.7 0 0 0 0 .75l3.64 6.29c.1.2.35.35.6.35h7.29a.7.7 0 0 0 .6-.35l3.64-6.29a.6.6 0 0 0 0-.7m-2.99 3q0 .16-.15.25L8.15 13.6h-.3L3.31 11a.24.24 0 0 1-.15-.25V5.41q0-.16.15-.25l4.54-2.65h.3l4.59 2.65q.15.09.15.25z"/></svg>