<svg xmlns="http://www.w3.org/2000/svg" viewBox="0 0 16 16"><path fill="#6060ff" d="M5.1 12.02 3.31 11a.24.24 0 0 1-.15-.25V5.41q0-.16.15-.25l4.54-2.65h.3l4.59 2.65q.1.05.13.16c1.04.34 1.96.95 2.66 1.76l-3.28-5.71c-.1-.2-.35-.4-.6-.4H4.36c-.25 0-.5.2-.6.4L.11 7.65a.7.7 0 0 0 0 .75l3.64 6.29c.1.2.35.35.6.35h2.22a6 6 0 0 1-1.47-3.02"/><path fill="#ff4040" d="M11 6a5 5 0 1 0 0 10 5 5 0 0 0 0-10m2.5 5.63h-5c-.35 0-.62-.28-.62-.63s.28-.62.62-.62h5c.35 0 .62.28.62.62s-.28.63-.62.63"/><path fill="#6060ff" d="m9.56 5.18-1.41-.83h-.3l-3 1.75v-.05q-.15.06-.15.2v3.49q0 .18.15.25l.22.13a6 6 0 0 1 4.49-4.94"/></svg>