<svg xmlns="http://www.w3.org/2000/svg" viewBox="0 0 16 16"><path fill="#e0e0e0" d="M14 3H8L6.59 1.59A2 2 0 0 0 5.18 1H2.01A2 2 0 0 0 0 3v10c0 1.1.9 2 2 2h1.83l-.03-.38c0-.7 4.37-8.38 4.41-8.45.48-.73.84-1.17 1.94-1.17h.48c1.12 0 1.51.46 1.97 1.17.03.05 2.12 3.72 3.41 6.22V5a2 2 0 0 0-2-2Z"/><path fill="#e0e0e0" d="M10.1 9.68c.09-.13.19-.15.27-.15s.22.02.31.15a77 77 0 0 1 2.79 4.39c.57.94 1.01 1.67 1.1 1.76.34.35.8.13 1.07-.26s.34-.66.34-.95c0-.2-3.86-7.31-4.24-7.9-.37-.57-.5-.71-1.13-.71h-.48c-.64 0-.73.14-1.1.71-.39.59-4.25 7.71-4.25 7.9 0 .29.07.56.34.95s.74.61 1.07.26c.09-.09.53-.82 1.1-1.76a77 77 0 0 1 2.79-4.39Z"/><path fill="#e0e0e0" d="M10.4 11.01 7.92 15h4.96z"/></svg>