<svg xmlns="http://www.w3.org/2000/svg" viewBox="0 0 16 16"><path fill="#e0e0e0" d="M15 3H8L6.59 1.59A2 2 0 0 0 5.18 1H2.01A2 2 0 0 0 0 3v10c0 1.1.9 2 2 2h1.83l-.03-.38c0-.56 2.8-5.6 3.94-7.62H5.45a2 2 0 0 0-1.9 1.37L2.01 13V7c0-1.1.9-2 2-2h11c.55 0 1-.45 1-1s-.45-1-1-1Z"/><path fill="#e0e0e0" d="M14 7h-.93c.7 1.24 2.02 3.6 2.93 5.39V9a2 2 0 0 0-2-2m-3.6 4.01L7.92 15h4.96z"/><path fill="#e0e0e0" d="M10.1 9.68c.09-.13.19-.15.27-.15s.22.02.31.15a77 77 0 0 1 2.79 4.39c.57.94 1.01 1.67 1.1 1.76.34.35.8.13 1.07-.26s.34-.66.34-.95c0-.2-3.86-7.31-4.24-7.9-.37-.57-.5-.71-1.13-.71h-.48c-.64 0-.73.14-1.1.71-.39.59-4.25 7.71-4.25 7.9 0 .29.07.56.34.95s.74.61 1.07.26c.09-.09.53-.82 1.1-1.76a77 77 0 0 1 2.79-4.39Z"/></svg>