<svg xmlns="http://www.w3.org/2000/svg" viewBox="0 0 16 16"><path fill="#6060ff" d="M13.35 4.23q-.94 0-1.72.61L9.15 3.07v-.1a1.2 1.2 0 0 0-1.22-1.2 1.2 1.2 0 1 0 .02 2.42q.26 0 .5-.11l3.54 2.53.1-.25c.25-.51.76-.86 1.26-.86a1.4 1.4 0 0 1 1.39 1.43 1.4 1.4 0 0 1-.89 1.29l-.25.1.35 1.21.25-.1a2.67 2.67 0 0 0-.81-5.2h-.05Z"/><path fill="#ff4040" d="M10.57 2.86a2.67 2.67 0 1 0-5.15 1.01L3 5.69l-.1-.05a1.21 1.21 0 1 0 .75 1.54v-.03c.05-.15.1-.3.05-.51l3.54-2.53-.25-.2c-.4-.4-.56-1.01-.4-1.52.21-.72.96-1.14 1.69-.94q.04 0 .08.03c.51.2.91.76.96 1.36v.2h1.26v-.2Z"/><path fill="#40a0ff" d="M5.27 12.06c-.15-.05-.3-.15-.51-.15L3.45 7.82l-.25.1a1.5 1.5 0 0 1-1.52-.05 1.37 1.37 0 0 1-.32-1.9l.01-.02c.35-.51 1.01-.71 1.52-.51l.25.05.4-1.16-.2-.1a2.63 2.63 0 1 0-.66 5.16l.96 2.88-.1.1a1.2 1.2 0 0 0 .28 1.69q.33.23.73.23h.15q.52-.13.81-.51c.4-.51.25-1.31-.25-1.67z"/><path fill="#40ff40" d="M13.7 8.01c.6-.31.83-1.04.52-1.63a1.2 1.2 0 0 0-1.28-.64q-.47.15-.71.61c-.24.44-.18.98.15 1.36l-1.31 4.04.25.05c.56.1 1.01.51 1.21.96a1.37 1.37 0 0 1-2.42 1.26l-.15-.2-1.06.71.15.2a2.68 2.68 0 0 0 4.7-2.38 2.6 2.6 0 0 0-1.11-1.41l.91-2.88h.1z"/><path fill="#a040ff" d="M12.19 12.36c-.2-.25-.51-.4-.76-.51a1.2 1.2 0 0 0-1.26.66H5.93l.05.25c.1.56-.1 1.16-.51 1.46-.54.57-1.45.59-2.02.05s-.59-1.45-.05-2.02l.15-.2-1.01-.76-.15.2a2.64 2.64 0 0 0 .45 3.69c.95.74 2.29.74 3.24 0 .51-.35.86-.91 1.01-1.52h3.03l.05.1c.2.25.51.4.81.51.3 0 .66-.05.91-.25.51-.4.66-1.16.25-1.72z"/></svg>