<svg xmlns="http://www.w3.org/2000/svg" viewBox="0 0 16 16"><path fill="#ffff40" d="m8 14.63-.25-.72L8.85 7H5.44a2 2 0 0 0-1.9 1.37L2 13V7c0-1.1.9-2 2-2h11c.55 0 1-.45 1-1s-.45-1-1-1H8L6.59 1.59A2 2 0 0 0 5.18 1H2.01A2 2 0 0 0 0 3v10c0 1.1.9 2 2 2h6.61z"/><path fill="#ffff40" d="M14.55 7.09A2 2 0 0 0 14 7h-.62l.08.1.29.55.33-.33z"/><path fill="#ffa040" d="m13.52 9.35-.93-1.77a.26.26 0 0 0-.34-.1l-.1.1-.5.93-1.24-2.33a.23.23 0 0 0-.25-.19.23.23 0 0 0-.19.25l-1.24 7.82h.03l.12-.06 3.63-3.6.03-.09v.03l.93-.93.03-.06Z"/><path fill="#ffff40" d="M15.04 8.27c0-.12-.12-.19-.25-.19l-.12.06-5.89 5.89v.03l3.26 1.86c.22.09.47.09.65 0l3.32-1.86-.93-5.8h-.03Z"/></svg>