<svg xmlns="http://www.w3.org/2000/svg" viewBox="0 0 16 16"><path fill="#ffff40" d="M14 3H8L6.59 1.59A2 2 0 0 0 5.18 1H2.01A2 2 0 0 0 0 3v10c0 1.1.9 2 2 2h6.61L8 14.63l-.25-.72 1.23-7.73q0-.38.24-.69.3-.4.8-.48c.59-.08 1.13.26 1.32.8l.43.8c.6-.33 1.35-.11 1.69.49l.29.55.33-.33.48-.24h.23q.38 0 .68.19l.39.35.14.35V5a2 2 0 0 0-2-2"/><path fill="#ffa040" d="m13.52 9.35-.93-1.77a.26.26 0 0 0-.34-.1l-.1.1-.5.93-1.24-2.33a.23.23 0 0 0-.25-.19.23.23 0 0 0-.19.25l-1.24 7.82h.03l.12-.06 3.63-3.6.03-.09v.03l.93-.93.03-.06Z"/><path fill="#ffff40" d="M15.04 8.27c0-.12-.12-.19-.25-.19l-.12.06-5.89 5.89v.03l3.26 1.86c.22.09.47.09.65 0l3.32-1.86-.93-5.8h-.03Z"/></svg>