<svg xmlns="http://www.w3.org/2000/svg" viewBox="0 0 16 16"><path fill="#ff4040" d="M13.42 11.84a.85.85 0 0 0-.85.85v.73c.36.39.57.9.57 1.44l-.02.13h.89a2 2 0 0 0 2-2v-.92a2.1 2.1 0 0 1-2.57-.24ZM14 3H8L6.59 1.59A2 2 0 0 0 5.18 1H2.01A2 2 0 0 0 0 3v10c0 1.1.9 2 2 2h6.89l-.02-.13c0-.54.21-1.05.57-1.44V9.56c0-2.2 1.79-3.98 3.98-3.98a2.1 2.1 0 0 1 2.57-.24v-.33a2 2 0 0 0-2-2Z"/><path fill="#ffa040" d="M14.87 6c-.42 0-.78.23-.98.57h-.47a3 3 0 0 0-2.98 2.98v4.83h1.13V9.55c0-1.02.83-1.85 1.85-1.85h.47a1.13 1.13 0 1 0 .98-1.69Zm0 1.6c-.25 0-.46-.21-.46-.46s.21-.46.46-.46.46.21.46.46-.21.46-.46.46"/><path fill="#ff4040" d="M14.87 9.14c-.42 0-.78.23-.98.57h-.47a3 3 0 0 0-2.98 2.98v1.2a1.13 1.13 0 1 0 1.12 0v-1.2c0-1.02.83-1.85 1.85-1.85h.47a1.13 1.13 0 1 0 .98-1.69ZM11 15.33c-.25 0-.46-.21-.46-.46s.21-.46.46-.46.46.21.46.46-.21.46-.46.46m3.87-4.59c-.25 0-.46-.21-.46-.46s.21-.46.46-.46.46.21.46.46-.21.46-.46.46"/></svg>