<svg xmlns="http://www.w3.org/2000/svg" viewBox="0 0 32 32"><path d="M16 29.9v-1L4.7 22.6v-13L16 3l11.3 6.5v2.9c1 .4 2 1 2.7 1.8V8L16 0 2 8v16l14 8 .5-.3a4 4 0 0 1-.4-1.8Z" fill="#f66"/><path d="M16 21.8a4 4 0 0 1 2.5-3.8 6.6 6.6 0 0 1 4.9-5.8l-1.7-1.7H10.4l-4 4L16 24v-2.2Z" fill="#f66"/><path d="M29.9 19.7h-.3v-1.2a4.5 4.5 0 0 0-9.1 0v1.2h-.3c-1.2 0-2.1 1-2.1 2V30c0 1.2.9 2.1 2 2.1H30c1.2 0 2.1-1 2.1-2.1v-8.1c0-1.2-1-2.1-2.1-2.1Zm-4.9 8a1.9 1.9 0 1 1 0-3.7 1.9 1.9 0 0 1 0 3.7Zm2-8h-4v-1.2a2 2 0 0 1 4 0v1.2Z" fill="#9c9c9e"/></svg>