<svg xmlns="http://www.w3.org/2000/svg" viewBox="0 0 16 16"><path fill="#a040ff" d="M14 3H8L6.59 1.59A2 2 0 0 0 5.18 1H2.01A2 2 0 0 0 0 3v10c0 1.1.9 2 2 2h2.68a3.5 3.5 0 0 1 1.24-4.52q.77-.48 1.66-.55a3.55 3.55 0 1 1 6.49.04l.11.01a3.5 3.5 0 0 1 1.81 1.01V5a2 2 0 0 0-2-2Z"/><path fill="#a040ff" fill-rule="evenodd" d="M15.94 12.92a2.55 2.55 0 1 0-4.98 1.07 2.55 2.55 0 0 0 4.98-1.07m-.41.81c-.33.72-.89 1-1.61.94-.17-.06-.39-.33-.55-.78a3 3 0 0 1 .06-1.61c.44-.28 1.16-.17 1.66.22a1 1 0 0 1 .44 1.22Zm-2.17-5.56a2.56 2.56 0 1 0-5.06.76 2.56 2.56 0 0 0 5.06-.76m-.65.63c-.33.72-.89 1.05-1.55 1-.22-.11-.44-.39-.55-.83-.17-.55-.17-1.27 0-1.55.5-.28 1.16-.22 1.66.17.22.17.66.55.44 1.22Zm-2.36 4.12a2.55 2.55 0 1 0-4.98 1.07 2.55 2.55 0 0 0 4.98-1.07m-.47.81c-.33.72-.83 1-1.55.94q-.32-.1-.55-.78c-.17-.55-.17-1.27 0-1.61.5-.28 1.22-.17 1.66.22a1 1 0 0 1 .44 1.22Z"/></svg>