<svg xmlns="http://www.w3.org/2000/svg" viewBox="0 0 16 16"><path fill="#ff4040" d="M8.9 3.89c.34.34.44.84.29 1.27l.11.11q.38-.25.88-.26h1.88c.88 0 1.59.7 1.62 1.56q.56-.29 1.16-.14L8.71.3c-.4-.4-1.05-.4-1.46 0L5.8 1.75l1.84 1.84c.43-.14.92-.05 1.26.29Zm-.34 11.55A1.6 1.6 0 0 1 7 15.41l.29.29c.36.36.92.38 1.33.09zm-3.11-2.25a1.6 1.6 0 0 1-.16-1.23q.18-.62.7-.96-.54-.35-.7-.96a1.6 1.6 0 0 1 .16-1.23l.94-1.62c.26-.45.7-.72 1.18-.79v-.51a1.2 1.2 0 0 1-.66-1.61L5.1 2.47.3 7.26c-.4.4-.4 1.06 0 1.46l6.07 6.07z"/><path fill="#a0a0a0" d="m15.69 11.83-.9-.52c-.3-.17-.3-.45 0-.62l.9-.52c.3-.17.4-.56.23-.85l-.94-1.62a.6.6 0 0 0-.85-.23l-.9.52c-.3.17-.54.03-.54-.31V6.64a.6.6 0 0 0-.62-.62H10.2a.6.6 0 0 0-.62.62v1.04c0 .34-.24.48-.54.31l-.9-.52a.6.6 0 0 0-.85.23l-.94 1.62c-.17.3-.07.68.23.85l.9.52c.3.17.3.45 0 .62l-.9.52c-.3.17-.4.56-.23.85l.94 1.62c.17.3.56.4.85.23l.9-.52c.3-.17.54-.03.54.31v1.04c0 .34.28.62.63.62h1.88c.34 0 .62-.28.62-.62v-1.04c0-.34.24-.48.54-.31l.9.52c.3.17.68.07.85-.23l.94-1.62a.6.6 0 0 0-.23-.85Zm-3.79.52c-.75.43-1.7.18-2.13-.57s-.18-1.7.57-2.13 1.7-.18 2.13.57.18 1.7-.57 2.13"/></svg>