<svg xmlns="http://www.w3.org/2000/svg" viewBox="0 0 16 16"><path fill="#ff4040" d="M14 3H8L6.59 1.59A2 2 0 0 0 5.18 1H2.01A2 2 0 0 0 0 3v10c0 1.1.9 2 2 2h6.33l-2.85-2.85q-.47-.48-.48-1.16c-.01-.68.17-.85.48-1.16l4.35-4.35a1.64 1.64 0 0 1 2.32 0L16 9.33V5a2 2 0 0 0-2-2m0 12a2 2 0 0 0 2-2v-.31L13.69 15z"/><path fill="#ff4040" d="m15.81 10.55-4.37-4.37a.65.65 0 0 0-.91 0l-.91.91 1.15 1.15a.8.8 0 0 1 .79.18c.21.21.27.52.18.79l1.11 1.11a.76.76 0 0 1 .79 1.26.77.77 0 0 1-1.25-.83l-1.03-1.03v2.72l.2.14c.3.3.3.78 0 1.08s-.78.3-1.08 0a.76.76 0 0 1 0-1.08 1 1 0 0 1 .25-.17V9.66a.8.8 0 0 1-.42-1.01L9.18 7.52l-2.99 2.99a.65.65 0 0 0 0 .91l4.37 4.37c.25.25.66.25.91 0l4.35-4.35a.65.65 0 0 0 0-.91"/></svg>