<svg xmlns="http://www.w3.org/2000/svg" viewBox="0 0 16 16"><path fill="#ff4040" d="M8.9 3.89c.34.34.44.84.29 1.27l.02.02q.4-.17.85-.17c1.11 0 2.04.81 2.22 1.88h.59a2.25 2.25 0 0 1 2.25 2.25v.19l.57-.57c.4-.4.4-1.06 0-1.46L8.71.3c-.4-.4-1.05-.4-1.46 0L5.8 1.75l1.84 1.84c.43-.14.92-.05 1.26.29ZM5 9.13a2.25 2.25 0 0 1 2.25-2.25h.32v-.99a1.2 1.2 0 0 1-.66-1.61L5.1 2.47.3 7.26c-.4.4-.4 1.06 0 1.46l4.7 4.7z"/><path fill="#ff4040" d="M14.75 10.69h-.62V9.13c0-.69-.56-1.25-1.25-1.25h-1.56v-.62a1.25 1.25 0 0 0-2.5 0v.62H7.26c-.69 0-1.25.56-1.25 1.25v1.56h.62a1.25 1.25 0 0 1 0 2.5h-.62v1.56c0 .69.56 1.25 1.25 1.25h1.56v-.63a1.25 1.25 0 0 1 2.5 0V16h1.56c.69 0 1.25-.56 1.25-1.25v-1.56h.62a1.25 1.25 0 0 0 0-2.5"/></svg>