<svg xmlns="http://www.w3.org/2000/svg" viewBox="0 0 16 16"><path fill="#ff4040" d="m15.69 7.28.02.03-.01-.02zM8.9 3.89c.34.34.44.84.29 1.27l.1.1a6 6 0 0 1 5.44 1.07L8.71.3c-.4-.4-1.05-.4-1.46 0L5.8 1.75l1.84 1.84c.43-.14.92-.05 1.26.29ZM5 11a6 6 0 0 1 2.57-4.92v-.2a1.2 1.2 0 0 1-.66-1.61L5.1 2.46.3 7.26c-.4.4-.4 1.06 0 1.46l6.02 6.02A6 6 0 0 1 5 11.01Zm2.28 4.69.02.02-.03-.02Z"/><path fill="#ff4040" d="M11 6a5 5 0 1 0 0 10 5 5 0 0 0 0-10m2.5 5.63h-5c-.35 0-.62-.28-.62-.63s.28-.62.62-.62h5c.35 0 .62.28.62.62s-.28.63-.62.63"/></svg>