<svg xmlns="http://www.w3.org/2000/svg" viewBox="0 0 16 16"><path fill="#a0ff40" d="M14 3H8L6.59 1.59A2 2 0 0 0 5.18 1H2.01A2 2 0 0 0 0 3v10c0 1.1.9 2 2 2h4.32l-.27-.46c-.84-.09-2.25-.4-3.12-1.46a3.7 3.7 0 0 1-.87-1.99c-.21-1.34.15-2.49.99-3.24a3.3 3.3 0 0 1 2.63-.84l1.06.06c1.21.07 2.28.13 3.5.15h.83c1.12.02 4.21-.16 4.42-.17q.18-.01.52.09V5a2 2 0 0 0-2-2Z"/><path fill="#a0ff40" d="M15.76 8.13c-.08-.08-.2-.08-.2-.08-.13.01-3.35.18-4.5.18v2.42l-.34-.16V8.23c-1.81-.01-3.25-.12-5.09-.22-.65-.03-1.18-.03-1.92.59-.93.83-.69 2.15-.66 2.34.04.24.14.91.66 1.5.95 1.16 2.99 1.13 2.99 1.13s.25.6.63 1.15c.52.68 1.05 1.22 1.57 1.28h3.91s.25 0 .59-.21c.29-.18.55-.48.55-.48-.02.1.82-1.14.93-1.51 0 0 1.14-2.42 1.14-4.77-.02-.71-.2-.84-.24-.88ZM5.48 12.35a2 2 0 0 1-.76-.39s-.39-.28-.59-.82c-.34-.91-.03-1.47-.03-1.47s.17-.46.8-.62c.29-.08.64-.06.64-.06s.15 1.23.32 1.95c.15.6.51 1.61.51 1.61s-.54-.06-.89-.19Zm7.35-.11c-.13.32-1.14 2.34-1.14 2.34s-.13.3-.41.32l-.21-.02-.11-.04-2.33-1.14s-.23-.12-.26-.32c-.05-.17.06-.37.06-.37l1.12-2.31s.1-.2.25-.27l.09-.03c.34-.05.58.19.84.29l-.29.58c-.3-.01-.49.37-.29.6l-.51 1.04c-.38 0-.51.54-.17.7.36.2.73-.3.43-.59l.5-1.01.13-.01.15-.07c.24.12.55.2.71.43.04.11-.04.31-.04.31-.05.16-.38.84-.38.84-.38-.02-.53.53-.18.7.35.19.72-.29.44-.58a10 10 0 0 0 .39-.86c.02-.04.12-.21.06-.44s-.26-.34-.26-.34c-.25-.16-.6-.31-.6-.31.02-.03-.05-.25-.1-.28l.28-.57 1.56.76s.26.12.32.33a.6.6 0 0 1-.04.36Z"/></svg>