<svg xmlns="http://www.w3.org/2000/svg" viewBox="0 0 16 16"><path fill="#e0e0e0" d="M5.76 7.73a6 6 0 0 1 3.87-2.62 8 8 0 0 1 2.82.07 6.2 6.2 0 0 1 3.56 2.6V5.01a2 2 0 0 0-2-2h-6L6.6 1.6a2 2 0 0 0-1.41-.59H2.02A2 2 0 0 0 0 3v10c0 1.1.9 2 2 2h4.16a6.1 6.1 0 0 1-.4-7.27"/><path fill="#e0e0e0" d="M9.84 6.08a5.12 5.12 0 0 0-.72 9.86c.22.07.25.07.34 0 .11-.07.11-.09.11-.6v-.53l-.39.02q-.7.03-1.03-.24a2 2 0 0 1-.33-.47 2.4 2.4 0 0 0-.64-.79c-.12-.1-.12-.11-.04-.17.19-.14.58 0 .83.29.43.52.59.66.84.72.22.04.42.03.72-.06.04-.01.09-.11.12-.21s.1-.26.16-.34l.11-.16-.36-.07c-.76-.16-1.23-.43-1.54-.89-.29-.43-.38-.8-.38-1.49 0-.65.07-.92.35-1.29.13-.16.14-.21.1-.3-.07-.16-.05-.84.02-1.05.06-.15.09-.18.21-.19.2-.02.58.11.96.32l.33.19.29-.07a7 7 0 0 1 1.99 0l.28.07.26-.16c.34-.21.78-.37 1-.37.17 0 .17 0 .25.23.08.26.09.74.02.97-.04.13-.03.17.07.3.49.64.54 1.71.13 2.59-.28.58-.86.98-1.65 1.13l-.38.07.14.25.14.25v1l.03 1 .11.07c.1.07.13.07.34 0a5.13 5.13 0 0 0-.44-9.8 6 6 0 0 0-2.35-.07Z"/></svg>