<svg xmlns="http://www.w3.org/2000/svg" viewBox="0 0 16 16"><path fill="#ffa040" d="M6.39 13.89a3.55 3.55 0 0 1-1.14-4.11l1.1-2.79h-.9a2 2 0 0 0-1.9 1.37l-1.54 4.63v-6c0-1.1.9-2 2-2h11c.55 0 1-.45 1-1s-.45-1-1-1h-7L6.6 1.58A2 2 0 0 0 5.19.99H2.02A2.03 2.03 0 0 0 0 3v10c0 1.1.9 2 2 2h5.87z"/><path fill="#ffa040" d="m9.38 7 .49 1.47h2.21L12.57 7zm6.19 6.91-1.44 1.08c.82-.06 1.5-.6 1.75-1.35z"/><path fill="#ffa040" d="M15.84 10.22v-.03l-1.41-3.56c-.13-.31-.63-.31-.69.03l-.94 2.81H9.14L8.2 6.66c-.03-.31-.56-.31-.66 0l-1.38 3.5a2.54 2.54 0 0 0 .81 2.94l3.75 2.81q.25.2.5 0l.63-.47 1.03-.78 2.09-1.56a2.5 2.5 0 0 0 .84-2.91v.03Z"/></svg>