<svg xmlns="http://www.w3.org/2000/svg" viewBox="0 0 16 16"><path fill="#ffa040" d="m15.57 13.91-1.44 1.08c.82-.06 1.5-.6 1.75-1.35zM14 3H8L6.59 1.59A2 2 0 0 0 5.18 1H2.01A2 2 0 0 0 0 3v10c0 1.1.9 2 2 2h5.87l-1.48-1.11a3.55 3.55 0 0 1-1.14-4.11l1.38-3.5c.15-.53.76-.93 1.42-.86.57.05 1.02.45 1.14.98l.69 2.06h2.22l.69-2.08a1.3 1.3 0 0 1 1.15-.98q.5-.05.9.22L16 7.87V5a2 2 0 0 0-2-2"/><path fill="#ffa040" d="M15.84 10.22v-.03l-1.41-3.56c-.13-.31-.63-.31-.69.03l-.94 2.81H9.14L8.2 6.66c-.03-.31-.56-.31-.66 0l-1.38 3.5a2.54 2.54 0 0 0 .81 2.94l3.75 2.81q.25.2.5 0l.63-.47 1.03-.78 2.09-1.56a2.5 2.5 0 0 0 .84-2.91v.03Z"/></svg>