<svg xmlns="http://www.w3.org/2000/svg" viewBox="0 0 16 16"><path fill="#40a0ff" d="M14 3H8L6.59 1.59A2 2 0 0 0 5.18 1H2.01A2 2 0 0 0 0 3v10c0 1.1.9 2 2 2h5.47V9.83H8v-.59a4.23 4.23 0 0 1 7.99-1.9V5.01a2 2 0 0 0-2-2Z"/><path fill="#40a0ff" fill-rule="evenodd" d="m15.01 11.08-.03.02m.49-1.87a3.23 3.23 0 1 0-6.46 0v1.59h-.53v2.54a3.6 3.6 0 0 1 2.8-1.46c1.95-.14 2.98-.47 3.63-.77s.02-.01.03-.02h.01l.03-.02.03-.02.03-.02h.02l.01-.01.03-.01.02-.02.02-.01h.03v-.01h.01v-.01l.02-.02V9.38Zm-5.93-.39a2.77 2.77 0 0 1 4.17-2.06 3.23 3.23 0 0 0-4.17 2.06m4.44 1.99h-3.49V9.24a1.74 1.74 0 0 1 3.48 0zm2.02.61V16H9.56c.71-.39 1.24-.35 2.11-.33a4.6 4.6 0 0 0 3.16-1.12c.65-.66-.06-.16-.79.03s-2.15.21-3.1-.04c2.99.04 4.15-.93 4.82-1.79.66-.87-.29-.15-.9.15s-1.68.51-2.86.36a5.5 5.5 0 0 0 4-1.81Z"/></svg>