<svg xmlns="http://www.w3.org/2000/svg" viewBox="0 0 16 16"><path fill="#40ffff" d="M14 3H8L6.59 1.59A2 2 0 0 0 5.18 1H2.01A2 2 0 0 0 0 3v10c0 1.1.9 2 2 2h.47a4.4 4.4 0 0 1 .47-4.65A4.8 4.8 0 0 1 6 8.52 4 4 0 0 1 9.71 9.7a4.7 4.7 0 0 1 2.39-1.1 4.3 4.3 0 0 1 3.19.54q.41.31.72.67V5a2 2 0 0 0-2-2Z"/><path fill="#40ffff" d="M15.96 11.89a3 3 0 0 0-1.22-1.91 3.2 3.2 0 0 0-2.47-.41 3.7 3.7 0 0 0-3 2.51h-2.8c-.12 0-.16.08-.2.16l-.41.93c-.08.12-.04.24.12.24h1.66l-.2.32c-.36.44-.93.66-1.5.57a1.35 1.35 0 0 1-1.14-1.34c0-.69.28-1.26.89-1.62.49-.32 1.01-.41 1.54-.16l.41.32c.12.16.12.12.24.08l1.46-.36c.08 0 .12-.08.08-.12q-.33-.76-1.01-1.22a3 3 0 0 0-2.27-.41c-.97.16-1.84.68-2.43 1.46a3.3 3.3 0 0 0-.69 2.51c.08.81.41 1.42 1.05 1.91.68.52 1.55.72 2.39.57a3.6 3.6 0 0 0 2.8-2.03c.12.49.41.97.85 1.34.59.48 1.34.74 2.11.73q.31.02.69-.08a3.3 3.3 0 0 0 2.03-1.09 3.2 3.2 0 0 0 1.01-2.92Zm-2.84 2.28a1.4 1.4 0 0 1-1.38.04 1.4 1.4 0 0 1-.81-1.62c.2-.81.73-1.3 1.5-1.5.81-.16 1.62.32 1.78 1.18v.28c0 .73-.41 1.26-1.09 1.62"/></svg>