<svg xmlns="http://www.w3.org/2000/svg" viewBox="0 0 16 16"><path fill="#ff40ff" d="M15.95 6.99c-.2-1-.7-1.75-1.5-2.35-.9-.57-2-.75-3.04-.5a4.5 4.5 0 0 0-3.69 3.1H4.28c-.15 0-.2.1-.25.2l-.5 1.15c-.1.15-.05.3.15.3h2.05l-.25.4a2 2 0 0 1-1.85.7 1.65 1.65 0 0 1-1.4-1.65c0-.85.35-1.55 1.1-2 .6-.4 1.25-.5 1.9-.2l.5.4c.15.2.15.15.3.1l1.8-.45c.1 0 .15-.1.1-.15a3.4 3.4 0 0 0-1.25-1.5 3.6 3.6 0 0 0-2.79-.5c-1.19.2-2.26.84-2.99 1.8a4 4 0 0 0-.86 3.1c.1 1 .5 1.75 1.3 2.35.84.64 1.91.89 2.94.7a4.4 4.4 0 0 0 3.44-2.5c.15.6.5 1.2 1.05 1.65.73.6 1.65.92 2.59.9.25 0 .55 0 .85-.1a4 4 0 0 0 2.5-1.35A4 4 0 0 0 15.96 7Zm-3.49 2.8c-.5.3-1.1.35-1.7.05a1.75 1.75 0 0 1-1-2c.25-1 .9-1.6 1.85-1.85 1-.2 2 .4 2.2 1.45v.35c0 .9-.5 1.55-1.35 2"/></svg>