<svg xmlns="http://www.w3.org/2000/svg" viewBox="0 0 16 16"><path fill="#40a0ff" d="M14 3H8L6.59 1.59A2 2 0 0 0 5.18 1H2.01A2 2 0 0 0 0 3v10c0 1.1.9 2 2 2h3.51a2.6 2.6 0 0 1-.41-1.44v-.76l.09-2.33a8 8 0 0 1-.61-.88l-.32-.53.34-.52a9 9 0 0 1 1.12-1.42l.56-.56.97.61h.02l-.03-.66v-.6l.53-.28c.61-.33 1.23-.5 1.65-.59l.7-.15.37.61.23.39.5-1.01.75.15q.85.16 1.67.58l.4.2.36 1.13 1.22-.29c.07.08.31.67.38.76v-2.4a2 2 0 0 0-2-2Z"/><path fill="#40a0ff" d="m15.34 13.16-1.42.23-.07.66c0 .17-.13.26-.26.26l-1.82.13a.3.3 0 0 1-.3-.23l-.1-.59h-1.32l-.1.66c0 .1-.13.2-.26.2l-1.85-.13c-.13 0-.25-.1-.26-.23l-.03-.69-1.45-.23v.36c0 1.65 2.05 2.44 4.62 2.44s4.62-.79 4.62-2.44z"/><path fill="#40a0ff" d="M15.04 7.85q-.51.24-.92.53l-.5-.4-.53-.33c.07-.4.1-.76.1-1.16q-.68-.35-1.42-.5l-.5.99h-1.12q-.21-.5-.53-.99c-.46.1-.96.26-1.39.5 0 .4.03.76.1 1.16l-.53.33-.5.4-.89-.56c-.4.4-.69.79-.99 1.25q.3.51.66.92c.36.41 0 2.81 0 2.81v-.1l1.72.17c.13 0 .26.13.26.26l.03.66 1.32.1.1-.63c0-.13.13-.23.3-.23h1.78q.25.01.3.26l.1.59 1.32-.1.03-.66c0-.13.13-.26.26-.26l1.72-.17v.1-2.81q.36-.45.66-.92a6 6 0 0 0-.96-1.25v.03Zm-6.76 4.29a1.02 1.02 0 1 1 0-2.04c.57 0 1.04.47 1.04 1.04s-.47 1.04-1.04 1.04zm2.77-.17q-.02.31-.33.33c-.31.02-.33-.13-.33-.33v-.92c0-.17.13-.33.33-.33s.33.17.33.33zm2.11.23c-.57 0-1.04-.47-1.04-1.04s.47-1.04 1.04-1.04 1.04.47 1.04 1.04-.47 1.04-1.04 1.04"/></svg>