<svg xmlns="http://www.w3.org/2000/svg" viewBox="0 0 16 16"><path fill="#40ffa0" d="M4.32 9.51q-.05-.37.11-.75c.36-.86 1.39-1.17 2.69-1.48 2.22-.44 4.09 0 5.46 1.3l.22.22q-.04-.15-.04-.31c0-.44.2-.74.37-.91l.26-.26q.25-.25.62-.32H5.44a2 2 0 0 0-1.9 1.37L2 13V7c0-1.1.9-2 2-2h11c.55 0 1-.45 1-1s-.45-1-1-1H8L6.59 1.59A2 2 0 0 0 5.18 1H2.01A2 2 0 0 0 0 3v10c0 1.1.9 2 2 2-.06-1.57.18-4.31 2.31-5.49Zm8.85 4.84V15H14a2 2 0 0 0 2-2v-.19a4.2 4.2 0 0 1-2.83 1.53Z"/><path fill="#40ffa0" d="M16 10c0-.65-.41-1.26-.93-1.62-.28-.32-.81-.53-.93-.37l-.28.28q-.1.13-.08.2s0 .08.08.12l.16.12c.69.28 1.38 1.99.08 2.07-.32.08-1.54-.81-2.19-1.5C10.45 7.92 8.58 8 7.37 8.25c-2.72.65-2.31.97-1.14 2.92.57 1.1 2.03-.16 2.31-.49-.85 1.22-1.83 1.7-2.6.69l-.61-1.22c-3.04 1.01-2.23 5.84-2.23 5.84h1.54c.37-1.7 1.7-1.7 1.95 0h1.18c.81-2.92 2.6-.85 3.16 0h1.26c0-1.83-.2-2.51.77-2.64A3.3 3.3 0 0 0 16 9.94v.04Zm-4.91 1.58c-.81-.24-.53-1.05-.53-1.05l.53.16c-.28.24-.16.81.28.73.32 0 .41-.28.41-.49l.41.12c-.04.24-.53.73-1.14.53z"/></svg>