<svg xmlns="http://www.w3.org/2000/svg" viewBox="0 0 16 16"><path fill="#40ffa0" d="M16 5.56c0-.8-.5-1.55-1.15-2-.35-.4-1-.65-1.15-.45l-.35.35c-.1.1-.1.2-.1.25 0 0 0 .1.1.15l.2.15c.85.35 1.7 2.45.1 2.55-.4.1-1.9-1-2.7-1.85-1.8-1.7-4.09-1.6-5.59-1.3-3.34.8-2.85 1.2-1.4 3.59.7 1.35 2.5-.2 2.85-.6-1.05 1.5-2.25 2.1-3.2.85l-.75-1.5C-.88 7.01.12 12.95.12 12.95h1.9c.45-2.1 2.1-2.1 2.4 0h1.45c1-3.59 3.2-1.05 3.89 0h1.55c0-2.25-.25-3.1.95-3.25A4.04 4.04 0 0 0 16 5.51zM9.96 7.51c-1-.3-.65-1.3-.65-1.3l.65.2c-.35.3-.2 1 .35.9.4 0 .5-.35.5-.6l.5.15c-.05.3-.65.9-1.4.65z"/></svg>