<svg xmlns="http://www.w3.org/2000/svg" viewBox="0 0 16 16"><path fill="#ff40ff" d="m14.4 10.05-.13-.06V6s.09-.03.13-.06a1.43 1.43 0 1 0-1.43-2.47l-.12.09L9.4 1.57l.01-.14C9.43.64 8.79 0 8 0S6.57.64 6.57 1.43l.01.14-3.45 1.99s-.07-.06-.12-.08c-.68-.39-1.56-.16-1.95.52s-.16 1.56.52 1.95l.13.06V10s-.09.03-.13.06a1.43 1.43 0 1 0 1.43 2.47l.11-.08 3.45 1.99-.01.14a1.43 1.43 0 1 0 2.84-.19l3.41-1.97.16.11a1.43 1.43 0 1 0 1.43-2.47Zm-10.85.52-.08-.11 4.4-7.62.13.01.13-.01 4.4 7.62-.08.11-.06.13H3.6s-.03-.09-.06-.13Zm8.73-5.98a1.4 1.4 0 0 0 .82 1.42v3.07L9.62 3.05zM2.9 9.08V6q.4-.18.64-.58.22-.41.18-.84l2.66-1.54zm5.96 4.36a1.4 1.4 0 0 0-1.68-.03l-2.66-1.53h7.04z"/></svg>