<svg xmlns="http://www.w3.org/2000/svg" viewBox="0 0 16 16"><path fill="#ff40ff" d="M8.44 14.89q-.4.1-.78.02l-.29-.08a1.9 1.9 0 0 1-1.23-2.13l.08-.29q.14-.38.41-.68v-1.49A1.9 1.9 0 0 1 7.5 7.1q.48-.13.94 0l.19-.11H5.44a2 2 0 0 0-1.9 1.37L2 12.99v-6c0-1.1.9-2 2-2h11c.55 0 1-.45 1-1s-.45-1-1-1H8L6.59 1.58A2 2 0 0 0 5.18.99H2.01A2 2 0 0 0 0 3v10c0 1.1.9 2 2 2h6.63z"/><path fill="#ff40ff" d="m15.55 12.28-.08-.04V9.75l.08-.04a.9.9 0 0 0 .33-1.22.9.9 0 0 0-1.22-.33l-.07.05-2.16-1.25v-.09a.9.9 0 0 0-1.78 0v.09L8.49 8.21l-.07-.05c-.43-.25-.97-.1-1.22.33s-.1.97.33 1.22l.08.04v2.49l-.08.04a.9.9 0 0 0-.33 1.22.9.9 0 0 0 1.22.33l.07-.05 2.16 1.25v.09a.9.9 0 0 0 1.78 0l-.01-.12 2.13-1.23.1.07c.43.25.97.1 1.22-.33a.9.9 0 0 0-.33-1.22Zm-6.78.33-.05-.07 2.75-4.76h.16l2.75 4.76-.05.07-.04.08h-5.5l-.04-.08Zm5.45-3.74q-.03.27.11.53.15.25.4.36v1.92l-2.18-3.77zm-5.86 2.81V9.76q.25-.11.4-.36.15-.26.11-.53l1.66-.96zm3.72 2.72q-.23-.17-.53-.18c-.3-.01-.37.06-.51.17l-1.66-.96h4.4l-1.69.98Z"/></svg>