<svg xmlns="http://www.w3.org/2000/svg" viewBox="0 0 16 16"><path fill="#40ff40" d="M13.98 5.01c-1-.5-1.99.1-2.29.25L8.8 6.91a1.7 1.7 0 0 0-1.89.25 1.7 1.7 0 0 0-.35 2.14c.4.7 1.3 1 2.04.7a1.7 1.7 0 0 0 1.1-1.5l2.94-1.7.4-.15v4.34c0 .2-.05.4-.25.5L8.3 14.08q-.3.15-.6 0l-4.49-2.59c-.2-.1-.3-.3-.3-.5V5.75q0-.29.3-.5L7 3.16a1.7 1.7 0 0 0 2.6-2 1.7 1.7 0 0 0-3.29.3L2.32 3.75a2.4 2.4 0 0 0-1.2 2.04v5.19c0 .85.45 1.65 1.15 2.04l4.54 2.64c.74.43 1.65.43 2.39 0l4.49-2.64a2.4 2.4 0 0 0 1.2-1.99V7.19c0-1.05-.3-1.8-.95-2.14z"/></svg>