<svg xmlns="http://www.w3.org/2000/svg" viewBox="0 0 16 16"><path fill="#ff40ff" d="M5.45 13.19a1.6 1.6 0 0 1-.21-.89l-.72-.42h.81q.18-.55.67-.88-.18-.13-.32-.3H3.61s-.03-.09-.06-.13l-.08-.11 4.4-7.62.13.01.13-.01 1.34 2.33q.32-.16.7-.17h.56L9.6 3.05l2.66 1.53q-.02.22.03.44c.76.12 1.35.76 1.37 1.54q.29-.15.6-.18V6s.09-.03.13-.06a1.43 1.43 0 1 0-1.43-2.47l-.12.09-3.45-1.99.01-.14C9.43.64 8.79 0 8 0S6.57.64 6.57 1.43l.01.14-3.45 1.99s-.07-.06-.12-.08c-.68-.39-1.56-.16-1.95.52s-.16 1.56.52 1.95l.13.06V10s-.09.03-.13.06a1.43 1.43 0 1 0 1.43 2.47l.11-.08 2.83 1.63-.51-.89ZM2.9 9.08V6q.4-.18.64-.58.22-.41.18-.84l2.66-1.54zm5.66 6.36c-.6.32-1.33.21-1.82-.22.24.46.71.78 1.26.78q.34 0 .63-.16a2 2 0 0 1-.08-.41Z"/><path fill="#a0a0a0" d="m15.69 11.83-.9-.52c-.3-.17-.3-.45 0-.62l.9-.52c.3-.17.4-.56.23-.85l-.94-1.62a.6.6 0 0 0-.85-.23l-.9.52c-.3.17-.54.03-.54-.31V6.64a.6.6 0 0 0-.62-.62H10.2a.6.6 0 0 0-.62.62v1.04c0 .34-.24.48-.54.31l-.9-.52a.6.6 0 0 0-.85.23l-.94 1.62c-.17.3-.07.68.23.85l.9.52c.3.17.3.45 0 .62l-.9.52c-.3.17-.4.56-.23.85l.94 1.62c.17.3.56.4.85.23l.9-.52c.3-.17.54-.03.54.31v1.04c0 .34.28.62.63.62h1.88c.34 0 .62-.28.62-.62v-1.04c0-.34.24-.48.54-.31l.9.52c.3.17.68.07.85-.23l.94-1.62a.6.6 0 0 0-.23-.85Zm-3.79.52c-.75.43-1.7.18-2.13-.57s-.18-1.7.57-2.13 1.7-.18 2.13.57.18 1.7-.57 2.13"/></svg>