<svg xmlns="http://www.w3.org/2000/svg" viewBox="0 0 16 16"><path fill="#40a0ff" d="M12.94 12.9 8 10.54 3.06 12.9l1.95-3.76L0 6.84l6.15.04L8 3.1l1.85 3.78L16 6.85l-5.01 2.3z"/><path fill="#e0e0e0" d="M8.01 6.72c-.46.08.07.51.07.69-.37.52-.69-.22-.36-.7-.48.36-.46 1.57.15 1.58.76 0 .86-1.4.15-1.56Zm1.59-.08c-.42.1.12.41.15.62-.3.37-.72-.24-.43-.65-.51.48-.21 1.51.39 1.48.89 0 .56-1.37-.11-1.45"/><path fill="#e0e0e0" d="M14.03 8.35c-.14-.86-.43-3.37-1.39-1.83-.13-.44-.64-.58-.82-.12-.27-.26-.66-.4-.96-.18-.2-.16-.46-.05-.59.18-.45-.54-1.29-.56-1.57.16-.4-.71-1.29-.62-1.62.08-.09-.34-.41-.47-.66-.26-.18-.2-.46-.17-.61.06-.25-.37-.62-.16-.78.21-.05-.24-.03-.51-.23-.64C5.51.93-.04 7.48 2.42 8.9c-.36.05-.54.61-.25.91.28.2.34.84.66 1.05.87-.14 2.27-.39 2.58-1.73.15 1.12 1.58.98 1.59.12.47.61 1.28.33 1.67-.32.45.72 1.56.73 1.94-.16.08.66.63 1.33 1.02 1.25-.12.32.06.67-.26.87-.4.32-.11 1.03.34.99 1.94-.18 3.02-1.39 2.34-3.53Zm-9.05.8c-.35.92-1.4.91-2 1.23q-.19-.55-.54-.96c.75-.27 2.82-.91 2.03-2.34-.18 1.73-2.9 2.13-2.12-.12.21-.55 1.3-2.4 1.86-2.4.49 0 .21 1.52.03 1.98-.88 2.07-1.97.32-.68-1 .06.47.11.62-.16 1.03-.25.8.45.8.61.17.15-.38.52-2.02.1-2.02-.47 0-1.29 1.42-1.46 1.87-.7 2.65 1.88 1.94 1.85-.12l.09-.02c.02.75.66 1.99.39 2.71Zm1.67-2.01c-.08.2-.27.47-.47.47-.23-.01-.36-.36-.51-.12-.11.62.36 1.51.9.92q-.06.46 0 .85c-1.15.84-.64-1.59-1.33-2.14l.23-.37c.13.93.35.54.65 0 .13.1.06.31.29.31.11 0 .16-.28.27-.28q.01.16-.04.35ZM8.5 8.3c-.7 1.61-1.93.47-1.21-1.1.52-1.41 1.68-.11 1.21 1.1m1.79.13c-1.09 1.81-2.26-1.2-.85-1.92.7 0 1.18 1.06.85 1.92m.24-1.59.12-.18c.25.54.48 2.54 1.2 1.36.18-.45-.19-1.36-.55-1.2.01.29.2.11.01.6-.24-.02-.5-.75-.13-.79.75 0 1.13 1.69.79 2.56-1 1.36-1.02-1.78-1.46-2.35Zm3.2 3.41c-.42 1.48-1.87 1.26-2.31 1.11.32-.21.44-.67.4-1.05 1.01.6 2.17.01 1.69-1.92.01.41.04 1.43-.47 1.54-.72 0-.36-2.51-.93-3.1l.08-.2c.34.51.36 1.9.86 1.9.72-.24.2-1.52 0-1.91.07.02.24-.03.24.06.14 1.23.65 2.27.44 3.57"/></svg>