<svg xmlns="http://www.w3.org/2000/svg" viewBox="0 0 16 16"><path fill="#ffff40" d="m7.61 8.02-1.09 7.81s-1.78.65-3.4-.71l1.77-7.57L1.55.77S2.87.22 3.71.41l2.93 5.54 5.09-4.33s1.71.59 1.87 1.16z"/><path fill="#ffa040" d="M14.29 8.8c-.41-1.52-3.08-1.12-2.86-2.72.04-.82.74-1.28 1.33-1.76.18.12.39.2.7-.44l-.11-.07c.13-.13.33-.22.38-.43-.24-.02-.38.21-.56.31l-1.64-1.13.62-.55c.59.31 1.39 1.03 2.03.92-.26-.66-1.24-1.09-1.91-1.3a4 4 0 0 0-1.07.65c-.08-.18-.69 0-.4.33a178 178 0 0 0-3.64 3.14c-.62-1.38-1.33-2.94-2-4.31h.14S5.29.88 4.94.99L4.63.35c-.2-.76-2.04-.12-2.42.27C2.74 1 3.67.53 4.31.5l.25.51-1.94.18c-.13-.38-.41-.44-.18.01-.61-.11-.15 1.09.33.81.75 1.72 1.64 3.71 2.42 5.42s0 .01.01.01a90 90 0 0 0-1.39 5.38c-.01.77-.91 1.87-.15 2.38 4.56 2.9 3.4-2.89 4.28-5.67.7.87 1.89 1.16 2.95 1.32-.71 1.67 2.91 1.29 2.68-.29.65-.31 1.13-1.08.7-1.77Zm-.23-5.99s0 .01 0 0m-.84-.63q.46.25.82.61a3 3 0 0 1-1.49-.91q.34.12.67.31Zm-.81-.52s.02.03.01.04l-.01-.01v-.02ZM3.94.33C3.46.55 2.92.66 2.4.62 2.9.36 3.53.28 4.1.24zm8.24 4.05c-.64.49-1.45 1.14-2.08 1.64.61-.78 1.24-1.59 2.07-2.14l.33.25zM3.47 2.92c.3.31.77.73.57 1.2 0-.05-.56-1.16-.57-1.2m.59 1.24c.46-.89-.92-1.35-1.06-2.19l.63-.18a7 7 0 0 1 1.12 3.84zm2.8 9.68c-.87.87-.4-2.01.17-1zm.7-4.1-.21 1.25a9 9 0 0 0-.81-2.14c.5 1.3.99 2.55.51 3.94-.7-1.1-1.2 1.97-.19 1.1l-.26 1.69a3.5 3.5 0 0 1-3.18-.72c.4-2.33 2.46-6.25 2-7.83-.95-1.67-.34-3.76-1.73-5.26.39-.11.81-.21 1.14-.27.71 1.4 1.5 2.97 2.23 4.35C5.91 7.1 10.31 3.53 11.1 2.9c.26.25.65.62 1.07.94-1.49 1.13-3.1 3.05-4.22 4.19-.18.56-.26 1.14-.38 1.71Zm5.25 1.59c-.54.42-1.29.33-1.91.17q-.03-.3.1-.59c.11.03.45.05.26-.12l-.17-.06q.16-.25.38-.43c.62.46 1.86.43 1.91-.55.1.47-.12.72-.44 1.01q.17.05.3-.01c-.05.24-.24.43-.43.58m1.18-1.55q-.15.29-.42.49c-.02-.21-.01-.48-.19-.63l-.02.01c-.46 1.37-2.04-.33-2.38 1-1.07-.41-2.34-.81-2.96-1.81.04-.31.1-.62.07-.95a63 63 0 0 0 2.83-2.13c-1.01 2.42 3.69 1.68 3.07 4.02"/><path fill="#ffa040" d="M6.1 12.51q-.15.2-.2.44l-.04.24v.24q-.06.48.07.95.15.46.38.87l-.15-.44a3 3 0 0 1-.19-1.36v-.24l.04-.23q.06-.22.17-.42t.3-.36q.17-.16.38-.27-.46.18-.75.58Z"/></svg>