<svg xmlns="http://www.w3.org/2000/svg" viewBox="0 0 16 16"><path fill="#ff40a0" d="M14 3H8L6.59 1.59A2 2 0 0 0 5.18 1H2.01A2 2 0 0 0 0 3v10c0 1.1.9 2 2 2h3.97l.47-1.59-1.62-1.25.72-1.31-.83-.28 2.07-5.65 4.34.53.55.64 1.08-1.31L16 7.39V5.01a2 2 0 0 0-2-2Z"/><path fill="#40a0ff" d="m12.89 6.17-1.33 1.61.33.72h1.67v5.06h-2.98l-.91.94L12 16l3.83-1.56.17-5.77z"/><path fill="#ff40a0" d="m13.56 10.11.11-.17-.11-.13zM8.5 13.56V8.5h3.93l-1.81-2.11L7.45 6 6.01 9.94l2.28.78-.83 2.78-.67 2.28 4.06-1.5.47-.72z"/><path fill="#6060ff" d="m16 8.67-3.11-2.5-1.21 1.46.75.87h1.13v3.06z"/><path fill="#ffa040" d="m8.28 10.72-1.29-.44-.88 1.61 1.48 1.14z"/></svg>