<svg xmlns="http://www.w3.org/2000/svg" viewBox="0 0 16 16"><path fill="#e0e0e0" d="M14 3H8L6.59 1.59A2 2 0 0 0 5.18 1H2.01A2 2 0 0 0 0 3v10c0 1.1.9 2 2 2h.06v-4.46q-.05-.2-.06-.43c0-.99.78-1.77 1.77-1.77.64 0 1.19.32 1.5.82q1.01-.78 2.49-.8c1.2 0 2.21.43 2.92 1.17a3.6 3.6 0 0 1 2.78-1.17c1.04 0 1.92.34 2.53.92V5a2 2 0 0 0-2-2Z"/><path fill="#e0e0e0" d="M3.77 9.35a.76.76 0 1 0 0 1.53c.42 0 .78-.33.78-.76s-.34-.77-.78-.77m-.71 1.72H4.5v4.83H3.06zm4.71-1.71c-1.86 0-3.06 1.3-3.06 3.32S5.91 16 7.77 16s3.06-1.3 3.06-3.32-1.2-3.32-3.06-3.32m0 5.32c-.97 0-1.57-.77-1.57-2s.6-2.01 1.57-2.01 1.57.77 1.57 2.01-.6 2-1.57 2m6.33-2.62-.69-.16c-.83-.2-.9-.42-.9-.62 0-.39.37-.64.95-.64s.98.27 1.02.73l.02.18h1.41v-.2c-.03-1.18-1.01-1.98-2.44-1.98s-2.45.82-2.45 1.99q0 1.44 1.79 1.85l.78.18c.85.2.92.45.92.67 0 .39-.43.67-1.04.67-.64 0-1.11-.3-1.17-.75l-.02-.17h-1.43v.21c.06 1.21 1.06 1.99 2.55 1.99s2.58-.81 2.58-2.06c0-1-.59-1.58-1.9-1.88Z"/></svg>