<svg xmlns="http://www.w3.org/2000/svg" viewBox="0 0 16 16"><path fill="#e0e0e0" d="M.95 3.91a.94.94 0 1 0 0 1.88c.52 0 .96-.41.96-.94s-.42-.94-.96-.94M.07 6.02h1.77v5.95H.07zm5.8-2.1c-2.29 0-3.77 1.6-3.77 4.09s1.48 4.08 3.77 4.08 3.77-1.6 3.77-4.08-1.48-4.09-3.77-4.09m0 6.55c-1.19 0-1.93-.94-1.93-2.46s.74-2.47 1.93-2.47 1.93.95 1.93 2.47-.74 2.46-1.93 2.46m7.79-3.23-.85-.2c-1.02-.24-1.1-.52-1.1-.76 0-.48.46-.79 1.16-.79s1.2.33 1.25.89l.02.22h1.74v-.25c-.04-1.45-1.24-2.43-3-2.43S9.87 4.93 9.87 6.37q-.01 1.77 2.21 2.27l.96.23c1.04.25 1.13.56 1.13.83 0 .48-.53.82-1.28.82-.79 0-1.37-.37-1.43-.92l-.03-.21H9.67v.25c.07 1.49 1.3 2.45 3.14 2.45s3.17-1 3.17-2.54c0-1.23-.72-1.94-2.34-2.31Z"/></svg>