<svg xmlns="http://www.w3.org/2000/svg" viewBox="0 0 16 16"><path fill="#ffa040" d="M7.8 6q-.05.2-.05.38.2-.08.41-.11c.16-.73.81-1.28 1.59-1.28l.3.03q.55-.42 1.46-.93l1.5-.9-1.75.45c-.1 0-2.95.75-3.45 2.35Z"/><path fill="#ffa040" d="M7.05 6.79c-.07-.52.17-1.1 1.1-1.84q1.88-1.49 1.95-2.9c.05-.85-.45-1.4-.5-1.4L9 0l.25.9c.4 1.5-.65 2.25-1.7 3.1-.55.45-1.15.9-1.5 1.45-.48.75-.23 1.51.35 2.26q.21-.55.65-.92"/><path fill="#40a0ff" d="M8.16 15.72a2.3 2.3 0 0 1-1.75-1.4q-1.29-.06-2.56-.28l.6-.2.45-.05.9.05-.75-.5c-.5-.35-1.85.05-2.4.4-.3.2-.45.45-.4.65.1.4.6.5 1 .55l.5.1.55.5c.1 0 .5.3 2.3.4l1.5.05h.17q-.07-.13-.11-.27M5.59 11a2 2 0 0 1-.32-.38c-.49.23-.7.46-.61.78q.08.24.41.41.14-.5.52-.81M5 9.75q.01-.48.28-.87-.61.1-1.42.47c-.45.25-.45.5-.4.6.14.32.79.47 1.75.57q-.2-.35-.2-.77Zm.13 3.11c-.01.13.03.28.22.44l.12.07a2 2 0 0 1-.34-.51m10.25-1.23h-.62v-1.25h.62c.34 0 .62-.28.62-.62s-.28-.62-.62-.62h-.62v-.62c0-.69-.56-1.25-1.25-1.25h-.62v-.62c0-.34-.28-.62-.62-.62s-.62.28-.62.62v.62H10.4v-.62c0-.34-.28-.62-.62-.62s-.62.28-.62.62v.62h-.62c-.69 0-1.25.56-1.25 1.25v.62h-.62c-.34 0-.62.28-.62.62s.28.62.62.62h.62v1.25h-.62c-.34 0-.62.28-.62.62s.28.62.62.62h.62v.62c0 .69.56 1.25 1.25 1.25h.62v.62c0 .34.28.62.62.62s.62-.28.62-.62v-.62h1.25v.62c0 .34.28.62.62.62s.62-.28.62-.62v-.62h.62c.69 0 1.25-.56 1.25-1.25v-.62h.62c.34 0 .62-.28.62-.62s-.28-.62-.62-.62m-2.5 1.87H9.13a.6.6 0 0 1-.62-.62V9.13c0-.35.28-.62.62-.62h3.75c.35 0 .62.28.62.62v3.75c0 .35-.28.62-.62.62"/><rect width="2.5" height="2.5" x="9.75" y="9.75" fill="#40a0ff" rx=".62" ry=".62"/></svg>