<svg xmlns="http://www.w3.org/2000/svg" viewBox="0 0 16 16"><path fill="#ffff40" d="m6.81 10.46.02-.22V2.45H4.55v7.76c0 1.14-.47 1.43-1.22 1.43s-1.11-.54-1.47-1.17L0 11.59a3.5 3.5 0 0 0 3.42 2.08q.49 0 .92-.1a3.3 3.3 0 0 1 2.47-3.12Zm6.16-3.54-.24-.1 1.02 1.64c.32.51.34 1.16.04 1.69l-.1.14v.06h.97q.75.01 1.31.41l.02-.24c0-1.91-1.09-2.75-3.03-3.58ZM9.25 5.78a1.65 1.65 0 0 1 1.79-.73c.11-.43.48-.74 1.04-.74.66 0 1.08.28 1.47.98l1.78-1.14c-.75-1.32-1.79-1.83-3.24-1.83-2.04 0-3.34 1.3-3.34 3.01q0 .58.15 1.03z"/><path fill="#ffff40" d="M10.1 6.31 8.43 8.98A.67.67 0 0 0 9 10h3.33c.52 0 .84-.58.57-1.02l-1.67-2.67a.66.66 0 0 0-1.13 0"/><rect width="4.67" height="4.67" x="11.33" y="11.33" fill="#ffff40" rx="1.33" ry="1.33"/><circle cx="7.67" cy="13.67" r="2.33" fill="#ffff40"/></svg>