<svg xmlns="http://www.w3.org/2000/svg" viewBox="0 0 16 16"><path fill="#ffa040" d="M8.81 5h1.27q.54-.4 1.42-.9l1.5-.9-1.75.45c-.08 0-1.8.45-2.8 1.39Q8.63 5 8.81 5"/><path fill="#ffa040" d="m8.15 9.5-1 .85h.35l1-.5.25.15-.1-.25s.19-.09.41-.24V8.25h-.25q-.16 0-.31-.03c.12.14.2.3.15.43 0 .3-.2.5-.3.6L8.2 8.9l-.5-.85c-.7-.95-1.25-1.75.45-3.1q1.88-1.49 1.95-2.9c.05-.85-.45-1.4-.5-1.4L9 0l.25.9c.4 1.5-.65 2.25-1.7 3.1-.55.45-1.15.9-1.5 1.45-.8 1.25.4 2.5 1.8 3.75z"/><path fill="#40a0ff" d="M6.88 14.75v-.41a24 24 0 0 1-3.02-.29l.6-.2.45-.05.9.05-.75-.5c-.5-.35-1.85.05-2.4.4-.3.2-.45.45-.4.65.1.4.6.5 1 .55l.5.1.55.5c.1 0 .5.3 2.3.4l.64.02a2 2 0 0 1-.37-1.22m0-1.87q0-.13.03-.26l-.65-.06.6-.35H7q.22-.66.75-1.09-1 .03-1.99-.11l.1-.05.45-.35h.3c.87 0 1.8-.06 2.63-.17q-.16-.32-.17-.68V9.6q-1.83.16-3.66.06h-.15l1.1-.35 1.65-.4-1.65-.1s-1.15-.1-2.5.55c-.45.25-.45.5-.4.6.15.35.9.5 2 .6h-.05c-.6.25-.85.5-.75.85s.65.6 1.4.7h-.05q-.76.29-.85.65c-.05.15-.05.35.2.55.29.25.83.42 1.52.5zM14.75 6H13.5c-.69 0-1.25.56-1.25 1.25v1.88c0 .69.56 1.25 1.25 1.25h1.25c.69 0 1.25-.56 1.25-1.25V7.25C16 6.56 15.44 6 14.75 6m0 3.13H13.5V7.25h1.25z"/><path fill="#40a0ff" d="M10.38 11.63H9.13c-.69 0-1.25.56-1.25 1.25v1.88c0 .69.56 1.25 1.25 1.25h1.25c.69 0 1.25-.56 1.25-1.25v-1.88c0-.69-.56-1.25-1.25-1.25m0 3.12H9.13v-1.88h1.25zm4.06-3.12h-1.25c-.35 0-.62.28-.62.62s.28.62.62.62h1.25v2.5c0 .35.28.62.62.62s.62-.28.62-.62v-2.5c0-.69-.56-1.25-1.25-1.25ZM10.06 6H8.81c-.35 0-.62.28-.62.62s.28.62.62.62h1.25v2.5c0 .35.28.62.62.62s.62-.28.62-.62v-2.5c0-.69-.56-1.25-1.25-1.25Z"/></svg>