<svg xmlns="http://www.w3.org/2000/svg" viewBox="0 0 16 16"><path fill="#ffff40" d="M5.81 8.97a2.22 2.22 0 0 1 1.02-3.91V2.45H4.55v7.76c0 1.14-.47 1.43-1.22 1.43s-1.11-.54-1.47-1.17L0 11.59a3.5 3.5 0 0 0 3.42 2.08c2.02 0 3.41-1.08 3.41-3.44v-.4zm2.94 2.49-.36-.31-.33.19q.27.53.69.97zM11.05 5c.12-.4.49-.69 1.03-.69s.93.21 1.27.69h.64l1.33-.85c-.75-1.32-1.79-1.83-3.24-1.83-1.9 0-3.15 1.14-3.31 2.68h2.27Zm2.2 6.46v2.11c1.62-.31 2.75-1.36 2.75-3.07q0-.68-.19-1.2z"/><path fill="#ffff40" d="M14.75 6h-7.5a1.25 1.25 0 0 0-.8 2.21L9.75 11v4.38c0 .34.28.62.62.62h1.25c.34 0 .62-.28.62-.62V11l3.3-2.79c.9-.75.37-2.21-.8-2.21Z"/></svg>