<svg xmlns="http://www.w3.org/2000/svg" viewBox="0 0 16 16"><path fill="#ffff40" d="M5 7.25c0-1.1.79-2.01 1.83-2.21V2.45H4.55v7.76c0 1.14-.47 1.43-1.22 1.43s-1.11-.54-1.47-1.17L0 11.59a3.5 3.5 0 0 0 3.42 2.08q.89 0 1.58-.29zM11.05 5c.12-.4.49-.69 1.03-.69s.93.21 1.27.69h.64l1.33-.85c-.75-1.32-1.79-1.83-3.24-1.83-1.9 0-3.15 1.14-3.31 2.68h2.27Z"/><circle cx="11" cy="11" r=".98" fill="#ffff40"/><path fill="#ffff40" d="M10.51 10.15a.97.97 0 0 0-.36 1.33c.27.47.87.63 1.33.36a.97.97 0 0 0 .36-1.33.97.97 0 0 0-1.33-.36"/><path fill="#ffff40" d="M14.75 6h-7.5C6.56 6 6 6.56 6 7.25v7.5c0 .69.56 1.25 1.25 1.25h7.5c.69 0 1.25-.56 1.25-1.25v-7.5C16 6.56 15.44 6 14.75 6m-1.46 5.2.56.33c.19.11.25.35.14.53l-.59 1.01a.4.4 0 0 1-.53.14l-.56-.33c-.19-.11-.34-.02-.34.2v.65a.4.4 0 0 1-.39.39h-1.17a.4.4 0 0 1-.39-.39v-.65c0-.21-.15-.3-.34-.2l-.56.33a.4.4 0 0 1-.53-.14L8 12.06a.4.4 0 0 1 .14-.53l.56-.33c.19-.11.19-.28 0-.39l-.56-.33A.4.4 0 0 1 8 9.95l.59-1.01a.4.4 0 0 1 .53-.14l.56.33c.19.11.34.02.34-.2v-.65a.4.4 0 0 1 .39-.39h1.17a.4.4 0 0 1 .39.39v.65c0 .21.15.3.34.2l.56-.33a.4.4 0 0 1 .53.14l.59 1.01c.11.19.04.43-.14.53l-.56.33c-.19.11-.19.28 0 .39"/></svg>