<svg xmlns="http://www.w3.org/2000/svg" viewBox="0 0 16 16"><path fill="#ffff40" d="M16 10.87V9.1l-1.32.85q.74.37 1.32.93ZM14 3H8L6.59 1.59A2 2 0 0 0 5.18 1H2.01A2 2 0 0 0 0 3v10c0 1.1.9 2 2 2h.26l-.16-.27-.39-.81L4.87 12l.51.9c.07.13.23.4.3.45s0-.1 0-.17v-7.3h3.85v1.66a3.6 3.6 0 0 1 3.27-1.77q2.07 0 3.18 1.49V5a2 2 0 0 0-2-2Z"/><path fill="#ffff40" d="M11.06 13.23c.4.65.91 1.13 1.83 1.13.77 0 1.26-.38 1.26-.91 0-.64-.5-.86-1.35-1.23l-.46-.2c-1.34-.57-2.23-1.28-2.23-2.79 0-1.39 1.06-2.45 2.71-2.45 1.18 0 2.03.41 2.64 1.48l-1.44.93c-.32-.57-.66-.79-1.19-.79s-.89.34-.89.79c0 .56.34.78 1.14 1.13l.46.2c1.57.68 2.46 1.36 2.46 2.91 0 1.67-1.31 2.58-3.07 2.58s-2.83-.82-3.38-1.9zm-6.55.16c.29.52.56.95 1.19.95s.99-.24.99-1.16v-6.3h1.85v6.33c0 1.92-1.13 2.79-2.77 2.79a2.9 2.9 0 0 1-2.78-1.69z"/></svg>