<svg xmlns="http://www.w3.org/2000/svg" viewBox="0 0 16 16"><path fill="#ffff40" d="m5.84 12.22-.65-1.12a1.4 1.4 0 0 1-.14-1.08q.09-.33.31-.58a2 2 0 0 1-.31-.58 1.4 1.4 0 0 1 .14-1.08l.64-1.12c.22-.38.59-.61.99-.68V2.45H4.54v7.76c0 1.14-.47 1.43-1.22 1.43s-1.11-.54-1.47-1.17L0 11.59a3.5 3.5 0 0 0 3.42 2.08c1.16 0 2.1-.37 2.7-1.11a1 1 0 0 1-.28-.35Zm7.21-5.27.48.82q.29.51.14 1.08-.09.33-.31.58.22.24.31.58.04.19.04.38l.01.14-.02.09h.58c.46 0 .86.24 1.08.6q.28 0 .52.15.11-.4.12-.87c0-1.88-1.07-2.73-2.95-3.55M10 5q.62.02 1.02.46l-.03-.17c0-.55.42-.98 1.09-.98s1.08.28 1.47.98l1.78-1.14c-.75-1.32-1.79-1.83-3.24-1.83-1.9 0-3.15 1.14-3.31 2.68zm5.86 9.18-.4-.23c-.13-.08-.13-.2 0-.27l.4-.23c.13-.08.18-.24.1-.37l-.41-.71c-.08-.13-.24-.18-.37-.1l-.4.23c-.13.08-.24.01-.24-.14v-.46a.27.27 0 0 0-.27-.27h-.82a.27.27 0 0 0-.27.27v.46c0 .15-.11.21-.24.14l-.4-.23a.27.27 0 0 0-.37.1l-.41.71c-.08.13-.03.3.1.37l.4.23c.13.08.13.2 0 .27l-.4.23c-.13.08-.18.24-.1.37l.41.71c.08.13.24.18.37.1l.4-.23c.13-.08.24-.01.24.14v.46c0 .15.12.27.27.27h.82c.15 0 .27-.12.27-.27v-.46c0-.15.11-.21.24-.14l.4.23c.13.08.3.03.37-.1l.41-.71a.27.27 0 0 0-.1-.37m-1.65.22a.67.67 0 0 1-.93-.25.67.67 0 0 1 .25-.93.67.67 0 0 1 .93.25c.19.33.08.75-.25.93"/><path fill="#ffff40" d="m12.5 10.01-.62-.36c-.2-.12-.2-.31 0-.43l.62-.36c.2-.12.28-.38.16-.59l-.64-1.12a.44.44 0 0 0-.59-.16l-.62.36c-.2.12-.37.02-.37-.21v-.72a.43.43 0 0 0-.43-.43H8.72a.43.43 0 0 0-.43.43v.72c0 .24-.17.33-.37.21l-.62-.36a.43.43 0 0 0-.59.16l-.64 1.12c-.12.2-.05.47.16.59l.62.36c.2.12.2.31 0 .43l-.62.36a.44.44 0 0 0-.16.59l.64 1.12c.12.2.38.28.59.16l.62-.36c.2-.12.37-.02.37.21v.72c0 .24.19.43.43.43h1.29c.24 0 .43-.19.43-.43v-.72c0-.24.17-.33.37-.21l.62.36c.2.12.47.05.59-.16l.64-1.12a.43.43 0 0 0-.16-.59m-2.61.36c-.51.3-1.17.12-1.47-.39s-.12-1.17.39-1.47 1.17-.12 1.47.39.12 1.17-.39 1.47"/></svg>