<svg xmlns="http://www.w3.org/2000/svg" viewBox="0 0 16 16"><path fill="#ffff40" d="M9.92 10.27c.49.8 1.13 1.39 2.25 1.39.95 0 1.55-.47 1.55-1.13 0-.78-.62-1.06-1.66-1.51l-.57-.24c-1.65-.7-2.74-1.58-2.74-3.44 0-1.71 1.3-3.01 3.34-3.01 1.45 0 2.49.5 3.24 1.83L13.55 5.3c-.39-.7-.81-.98-1.47-.98s-1.09.42-1.09.98c0 .68.42.96 1.4 1.39l.57.24c1.94.83 3.03 1.68 3.03 3.58 0 2.05-1.61 3.18-3.78 3.18s-3.49-1.01-4.16-2.33l1.85-1.08Zm-8.06.2c.36.64.68 1.17 1.47 1.17s1.22-.29 1.22-1.43V2.45h2.28v7.79c0 2.36-1.39 3.44-3.41 3.44A3.55 3.55 0 0 1 0 11.59z"/></svg>