<svg xmlns="http://www.w3.org/2000/svg" viewBox="0 0 16 16"><path fill="#ffff40" d="M6.25 6.88h.58V2.45H4.55v5.07c.46-.4 1.05-.64 1.7-.64m-2.62 6.5v-1.77l-.3.02c-.78 0-1.11-.54-1.47-1.17L0 11.59a3.5 3.5 0 0 0 2.88 2.05q.33-.2.74-.26Zm9.24-6.5-.47-.2c-.98-.42-1.4-.7-1.4-1.39 0-.55.42-.98 1.09-.98s1.08.28 1.47.98l1.78-1.14c-.75-1.32-1.79-1.83-3.24-1.83-2.04 0-3.34 1.3-3.34 3.01q.01.9.35 1.54h3.78Zm.51 6.06h-3.7v.12q1.02.6 2.53.62.72 0 1.33-.17a2 2 0 0 1-.16-.57"/><path fill="#ffff40" d="M15.19 6.25a.8.8 0 0 0-.81.81v.81H6.25c-.9 0-1.62.73-1.62 1.62v4.88h-.81c-.45 0-.81.37-.81.81s.37.81.81.81h5.69c.45 0 .81-.37.81-.81s-.37-.81-.81-.81H8.7v-2.44h5.69v.81c0 .45.37.81.81.81s.81-.37.81-.81V7.05a.8.8 0 0 0-.81-.81Z"/></svg>