<svg xmlns="http://www.w3.org/2000/svg" viewBox="0 0 16 16"><path fill="#ffff40" d="M5 12.88c0-.78.4-1.47 1.01-1.88A2.2 2.2 0 0 1 5 9.12V7.24c0-1.1.79-2.01 1.83-2.21V2.44H4.55v7.76c0 1.14-.47 1.43-1.22 1.43s-1.11-.54-1.47-1.17L0 11.59a3.5 3.5 0 0 0 3.42 2.08q.89 0 1.58-.29zM11.05 5c.12-.4.49-.69 1.03-.69s.93.21 1.27.69h.64l1.33-.85c-.75-1.32-1.79-1.83-3.24-1.83-1.9 0-3.15 1.14-3.31 2.68h2.27Zm3.7 6.63h-7.5c-.69 0-1.25.56-1.25 1.25v1.88c0 .69.56 1.25 1.25 1.25h7.5c.69 0 1.25-.56 1.25-1.25v-1.88c0-.69-.56-1.25-1.25-1.25m-6.56 3.12a.94.94 0 1 1 0-1.88.94.94 0 0 1 0 1.88"/><path fill="#ffff40" d="M14.75 6h-7.5C6.56 6 6 6.56 6 7.25v1.88c0 .69.56 1.25 1.25 1.25h7.5c.69 0 1.25-.56 1.25-1.25V7.25C16 6.56 15.44 6 14.75 6M8.19 9.13a.94.94 0 1 1 0-1.88.94.94 0 0 1 0 1.88"/></svg>