<svg xmlns="http://www.w3.org/2000/svg" viewBox="0 0 16 16"><path fill="#40a0ff" d="M15 3H8L6.59 1.59A2 2 0 0 0 5.18 1H2.01A2 2 0 0 0 0 3v10c0 1.1.9 2 2 2h5.94l.03-.66q.18-.34.55-.58c.07-.05.8-.17.96-.24l-.78-.61-.02-1.28q.18-.38.66-.67.45-.21.84-.31a1.9 1.9 0 0 1 .17-1.79c.28-.44.68-.76 1.03-1.04l.22-.18c.46-.37.6-.52.64-.64H5.45a2 2 0 0 0-1.9 1.37L2.01 13V7c0-1.1.9-2 2-2h11c.55 0 1-.45 1-1s-.45-1-1-1Zm.09 6.43q-.57.33-.81.51.18.26.25.53a2 2 0 0 1 1.46.16V8.99l-.01-.11-.9.54Z"/><path fill="#ffa040" d="m14.59 8.56.94-.56-1.09.28c-.06 0-1.84.47-2.16 1.47q-.2.66.41 1.34c.09.09.16.22.12.31 0 .19-.12.31-.19.38l-.09-.22-.31-.53c-.44-.59-.78-1.09.28-1.94q1.17-.94 1.22-1.81c.03-.53-.28-.88-.31-.88l-.37-.41.16.56c.25.94-.41 1.41-1.06 1.94-.34.28-.72.56-.94.91-.5.78.25 1.56 1.13 2.34l.19.19-.63.53h.22l.62-.31.16.09-.06-.16s.69-.34.81-.87a1 1 0 0 0-.16-.69l-.06-.06c-.22-.31-.31-.47-.31-.69.09-.28.56-.69 1.5-1.22Z"/><path fill="#40a0ff" d="m15.97 14.59-.25.31s-.19.22-1.28.44l-.59.09c1-.16 1.66-.41 1.75-.69 0-.09.03-.28-.28-.41l-.63-.19.47.44s0 .06-.25.12c-1.68.34-3.41.36-5.09.06l.37-.12.28-.03.56.03-.47-.31c-.31-.22-1.16.03-1.5.25q-.29.2-.25.41c.06.25.37.31.63.34l.31.06.34.31c.06 0 .31.19 1.44.25l.94.03c1.28 0 3.44-.12 3.53-1.03v-.38h-.03Z"/><path fill="#40a0ff" d="M10.78 12.59q-.56.22-.47.53c.09.31.41.38.88.44h-.03q-.48.17-.53.41c-.03.09-.03.22.12.34.25.22.81.34 1.5.34.53 0 1.16-.09 1.72-.31l.38-.16-.38-.16c-.28-.09-.47-.22-.47-.22l-.06-.06h-.09q-1 .24-2.03.09l.37-.22H12a8 8 0 0 0 2.09-.28l.16-.03-.5.41.63-.16c1.25-.31 1.53-.84 1.59-1.16.06-.28 0-.56-.22-.75a1.1 1.1 0 0 0-1.09-.19c-.12.06-.22.19-.22.19l-.12.19a17 17 0 0 1-3.53.19h-.09l.69-.22 1.03-.25-1.03-.06s-.72-.06-1.56.34c-.28.16-.28.31-.25.38.09.22.56.31 1.25.38h-.03Zm.28.25.28-.22h.19c.88 0 1.88-.09 2.5-.25h.03q.19-.15.41-.25l.59-.25q.15.08.22.22c.09.31-.22.69-.84 1.06l-.34-.12c-.19-.06-.31-.19-.31-.19l-.06-.06h-.09q-1.3.29-2.63.09z"/></svg>