<svg xmlns="http://www.w3.org/2000/svg" viewBox="0 0 16 16"><path fill="#40a0ff" fill-rule="evenodd" d="M6.49 11.59c.89-.16 1.83-.21 2.77-.26-.52-.31-1.93-.49-1.15-1.26-.73.33-.67-.9-.84-1.31-.46-.2-1.42-.69-1.67-1.15-.73.31-1.41.78-2.09 1.26.63 1.31.89 2.88.89 4.34.68.31 1.31.78 2.2.84-.22-.61.18-2.59-1.05-2.15 0-.26.37-.16.37-.31 0-.1-.16-.16-.1-.37l.42.26c.34-.48-.32-1.33.21-1.57.11.16-.06 1.3.05 1.67Z"/><path fill="#e0e0e0" fill-rule="evenodd" d="M11.93 3.53c.1-.73-.29-2.22-1.26-1.62-.05-.36.25-.51.65-.42a4 4 0 0 0-.96-1.01V.5C8-.89 5.71.82 5.97 3.33c.03.35.42 1.34-.37 1.1-1.12-2.45-2.15 2.13.1.99-.56 1.13.28 2.58 1.73 2.56.1-.26.52-.26.73-.21-.58-.25-1.31-.97-1.36-1.62 2.05 3.55 5.55.61 5.13-2.62M5.44 4.79v.05c-.31-.77-.6-.51-.52.26-.16-.16-.16-.63-.05-.84-.16-.05-.21.05-.26.1.1-.68.99-.31.84.42ZM9.52 5c0 .84 1.04.18 1.41.05.17-.79-1.12-1.19-.94-2.15.1-.1.1.16.16.21.21.55.8 1.06 1.15 1.52.19.77-2.23 1.61-1.78.37m.73 1.25c-.68 0-1.47-.16-1.62-.63a4 4 0 0 0 1.57.21zM7.27 2.64c-.6-.44 1.16-1.67 1.1-.68-.63-.16-.94.26-1.1.68m.94.94c.26 0 .52.16.73 0-.1-.26-.37-.68-.26-.94.07.5.5.62.52 1.1-.19.33-1.2.32-.99-.16m2.1 3.2c-.58.27-1.44.1-1.78-.52 0-.05-.31-.26 0-.26.31.68 1.2.58 1.94.58 0 .1-.05.21-.16.21Zm.1-.58v-.31c.44-.07.79-.31 1.1-.52-.21.42-.52.84-1.1.84Zm.52-2.72.58-.05c-.1-.26-.21-.47-.21-.78h.05l.42.84c-.1.26-.89.52-.84 0Z"/><path fill="#e0e0e0" fill-rule="evenodd" d="M10.1 7.98c-.34.31-.91.58-1.26.1.42.16.84-.1 1.2-.1"/><path fill="#40a0ff" fill-rule="evenodd" d="M9.84 11.17c-.26-.52-.47-1.15-.84-1.57-.31.21-.73.42-.84.84q.8.47 1.67.78z"/><path fill="#a0a0a0" fill-rule="evenodd" d="M5.07 1.6c.2-.05.64-.13.84-.1.24-.32.69-.83 1.05-1.1-.68-.04-1.62.68-1.88 1.2Zm-.52 1.98c.52-.31 1.26 0 1.26.63.1.03.09-2.27.05-2.51-1 .01-1.55.95-1.31 1.88"/><path fill="#e0e0e0" fill-rule="evenodd" d="m10.57 13.84-.37.05.05 1.31.52-.1c0-.47-.16-.84-.21-1.26Zm2.51-.52c.84-.25.45-1.48.16-1.99-.3-.55-1.28.12-1.67.31.16.42.16.94.21 1.47.42 0 .89-.1 1.26 0l-.73.21zm-1.52-.16c0-.52-.05-1.1-.26-1.47h-.37l.21 1.57z"/><path fill="#40a0ff" fill-rule="evenodd" d="m11.72 7.93-.58-.63-.39.34q.21 0 .33.23h.06c.23.65-.15 1.28.21 1.73l-1.1 1.78c.5-.18 1.08.11 1.26-.68.16-.81 1.16-2.23.21-2.77"/><path fill="#40a0ff" fill-rule="evenodd" d="M11.2 9.6c-.16-.16-.42-.37-.73-.21l-.01.26h.01c0 .44-.04.95-.15 1.35q.47-.64.88-1.41Zm-.42 3.87c-.05-.58-.05-1.26-.21-1.78l-.47.05.05 1.83c.26 0 .42 0 .63-.1"/><path fill="#e0e0e0" fill-rule="evenodd" d="M9.89 11.75c-1.05-.21-2.41 0-3.35.16.16 1.41.37 2.62.78 3.87.94.26 2.04.31 2.83.05-.23-1.32-.08-2.71-.26-4.08"/><path fill="#e0e0e0" d="M10.31 9.39c-.21 0-.32-.13-.43-.21-.21-.06-.35.14-.56.05l-.1.16c.42.47.58 1.15.89 1.73.16-.52.16-1.15.21-1.73Z"/><path fill="#ff4040" d="M7.85 8.03c-.61.06-.25 1.54 0 1.83.4-.1 1.38-.44 1.36-.94l-.52-.1c.16-.05.37-.05.52-.16v-.1c-.26 0-.31-.1-.52-.16h.05zm2.09 1c.26.1.63.16.99.16.34-1.18-.24-1.5-1.15-.78l.1.21h.37c-.3-.06-.35.18-.31.42Z"/><path fill="#ff4040" d="M9.31 8.56c0 .17-.01.25.1.42.52.16.42-.73-.1-.42m2.57-2.83c-1.53 2.84 2.01.48-.26 5.49.39-.2 1.09-.51 1.56-.34a6.24 6.24 0 0 0-1.06-7.72c.06.87-.02 1.81-.23 2.56Zm-8.06 5.02c-.11-.8-1.25-2.08 0-2.46 1.23-.93 1.99-.46 1.31-2.2-1.6-.32-.96-2.06-.93-3.19a6.2 6.2 0 0 0-.14 9.44 7 7 0 0 0-.24-1.6Z"/><path fill="#e0e0e0" d="M7.22 8.5c.28-.63-.49-.26-.78-.52-.16.21.52.47.78.52"/></svg>