<svg xmlns="http://www.w3.org/2000/svg" viewBox="0 0 16 16"><path fill="#ff4040" d="M12.1 3.51a5.7 5.7 0 0 0-8.06-.14l-.14.14a6 6 0 0 0 0 8.35 5.7 5.7 0 0 0 8.06.14l.14-.14a6 6 0 0 0 0-8.35"/><path fill="#e0e0e0" d="M9.15 9.11h1.2v2h-1.2z"/><path fill="#e0e0e0" fill-rule="evenodd" d="m10.35 7.71-.85.1-1.15.15H6.9l-.6-.15-.5-.55-.35-1.1-.1-.25-.5-.15-.3-.5-.2-.7.15-.6.55-.2.5.2.2.5.25-.05.1-.1-.1-.5v-.65l.1-.85v-.5l.4-.6.65-.5 1.2-.5 1.35.2 1.15.8.5.85.35.65.1 1.5-.25 1.35-.5 1.2-.4.6"/><path fill="#a0a0a0" fill-rule="evenodd" d="m4.55 3.96.6-.2.4.2.25.5.25-.05.05-.3-.1-.5.1-1.15-.1-.65.4-.45.8-.65L7 .46l-1.2.5-.5.4-.25.6-.45.5-.1.75v.75z"/><path fill="#49728b" fill-rule="evenodd" d="m6.5 9.81.3.35v1.3h-.3l-.05-1v-.5m.05 1.7h-.9l.25.2.7.1"/><path fill="#e0e0e0" fill-rule="evenodd" d="m7.45 8.01-.55-.05-.55-.15v.15l.1.2.15.1v.05l.2.1.25.05.4.2z"/><path fill="#231f20" fill-rule="evenodd" d="M8.35 2.21c-.6-.15-.9.25-1.05.65-.2-.05-.1-.3-.05-.4.1-.25.5-.65.85-.6.15 0 .35.15.25.35m2.8.65h.05l.4.8c-.1.25-.85.5-.8 0l.55-.05c-.1-.25-.2-.45-.2-.75m-2.5 0c.1.25.15.5.35.65.05.1.2.2.15.4l-.25.2c-.25.05-.9 0-.7-.35.25 0 .5.15.7 0-.1-.25-.35-.65-.25-.9m2.4 2.35c-.4.25-.85.55-1.55.5a.5.5 0 0 1-.05-.6c.05.1 0 .35.2.4.4.05.85-.25 1.15-.35.15-.3 0-.4-.2-.6-.3-.4-.75-.85-.7-1.45.1-.1.1.15.15.2.15.4.6.9.9 1.2l.2.25zm-5.5-.25c-.15-.1-.15-.45-.3-.5-.25 0-.2.5-.2.75-.15-.15-.15-.6-.05-.8-.15-.05-.2.05-.25.1.1-.65.95-.3.8.4zm5.8.5c-.2.4-.5.8-1.05.8v-.3c.4-.05.7-.3 1-.45zm-2.75.25c.35.2 1 .2 1.5.2l.05.4c-.65 0-1.4-.15-1.55-.6m-.1.35c.3.65 1.15.55 1.85.55 0 .1-.05.2-.15.2-.25.1-.9.2-1.2 0-.2-.1-.35-.35-.5-.5 0-.05-.3-.25 0-.25"/><path fill="#e0e0e0" fill-rule="evenodd" d="m9.85 11.26-.3.15h-1l-2 .1.05 1 .25 1.3.45 1.8 1 .25 1.6-.15v-.05h.1l.2-.15-.25-3.5zm3.65.9-.45-1.25-.45-.1-.7.25-.65.3-.35-.05-.3.1.25 1.8.85-.25h.2l.2.25h.65l.35-.1.35-.5v-.3z"/><path fill="#e0e0e0" fill-rule="evenodd" d="m10.1 13.61.05 1.25.5-.1c0-.45-.15-.8-.2-1.2zM10 7.96l-.5.35c-.3 0-.5 0-.7-.25.4.15.8-.1 1.15-.1"/><path fill="#40a0ff" fill-rule="evenodd" d="M12.15 8.21v-.1l-.9-.8-.05-.05-.2-.2-.45.5h-.05v.3h.5v1.25h-.5v.1h-.2v.35h.05c0 .5-.05 1.1-.2 1.5v-.1l-.05.4-.25.05.2 2.05.8-.1-.15-1.55v-.4h-.05l.65-.05.5-1.3.3-1.45.05-.15.05-.2zm-2.5 3.2.2-.15L8 10.41l.35-.65-.5.15-.2-.25-.25-1.1-.2-.05-.45-.15-.4-.4-.5-.55-.1.05-.05-.1-.3.2-.1.05-1.7 1.2.1.35.2.5.35 1.65.15 1.65v.15l.1.05.05.1 2.15.75.15-.15-.25-1.8v-.55z"/><path fill="#40a0ff" fill-rule="evenodd" d="M9.75 11.01c-.25-.5-.45-1.1-.8-1.5-.3.2-.7.4-.8.8q.76.45 1.6.75z"/><path fill-rule="evenodd" d="m10.1 13.61.05 1.25.5-.1c0-.45-.15-.8-.2-1.2zm-3.5-1.9c.15 1.35.35 2.5.75 3.7.9.25 1.95.3 2.7.05-.15-.7-.1-1.5-.15-2.25-.05-.5 0-1.1-.1-1.65-1-.2-2.3 0-3.2.15m3.4-.15.05 1.75c.25 0 .4 0 .6-.1-.05-.55-.05-1.2-.2-1.7zm1.15-.05h-.35l.2 1.5.4-.1c0-.5-.05-1.05-.25-1.4m1.7 1.55c.35-.1.55-.5.5-.9-.1-.3-.2-.8-.35-1-.05-.15-.3-.3-.5-.2-.3.2-.85.25-1.1.5.15.4.15.9.2 1.4.4 0 .85-.1 1.2 0l-.7.2zm-3.1-2q-.29-.91-.8-1.6c-.3.25-.7.45-.8.85q.76.45 1.6.75m.6-1.75c0 .55-.1 1.3-.25 1.7q.51-.67.95-1.5c-.15-.15-.4-.35-.7-.2m-.65-.25c-.15 0-.25.2-.45.1l-.1.15c.4.45.55 1.1.85 1.65.15-.5.15-1.1.2-1.65-.25 0-.35-.2-.5-.25m-.45-.5c0 .15 0 .2.1.35.5.15.4-.7-.1-.4zm-.55-.2-.85-.35c-.35-.05-.3.5-.3.85 0 .25.15.5.2.7 0 .1 0 .2.1.2l.65-.2.65-.5v-.2l-.5-.1c.15-.05.35-.05.5-.15v-.1c-.25 0-.3-.1-.5-.15zm-2.2-.4c-.15.2.5.45.75.5 0-.15.1-.25.05-.35-.25-.05-.6 0-.8-.15m2.3.1c.2.2.4.25.7.2l.45-.3c-.35 0-.8.25-1.15.1m2.1.6c0-.2-.1-.6-.2-.7-.3-.15-.75.35-1 .4l.1.2h.35c-.1 0-.25 0-.3.1v.3c.25.1.6.15.95.15zm-4.7-.5-.5-.55c-.7.3-1.35.75-2 1.2a10 10 0 0 1 .85 4.15c.65.3 1.25.75 2.1.8l-.25-2c-.2-.15-.5 0-.75-.05 0-.25.35-.15.35-.3 0-.1-.15-.15-.1-.35l.4.25c.2-.35 0-.95 0-1.25 0 0 .05-.3.2-.25.1 0 0 .65 0 .95l.05.65c.85-.15 1.75-.2 2.65-.25l-.7-.3c-.15-.1-.6-.25-.65-.4-.05-.2.2-.3.25-.5-.5.25-.5-.25-.65-.55l-.15-.7zm4.3-.5c.6-.3.7 1.1.5 1.5 0 .15.15.2.2.35l-1.05 1.7c.25-.15.6 0 .9-.15.1 0 .2-.3.3-.5.2-.5.45-1.2.5-1.75.05-.1.15-.35.1-.5 0-.15-.25-.3-.4-.4l-.55-.6-.4.35zm-5.6-5.2c-.3.3-.25.9-.2 1.3.5-.3 1.2 0 1.2.6.25 0 .05-.3 0-.5-.1-.65.25-1.35.05-1.9-.4.02-.78.2-1.05.5m2-1.8c-.65.2-1.45.65-1.7 1.2l.5-.1H6c.15-.05.3-.45.45-.6l.4-.3S7 .81 7 .71zm3.35.15C9.5.46 8.45.11 7.75.46c-.55.3-1.35.75-1.6 1.35.25.6-.1 1.1-.1 1.7l.15.9c-.05.15-.35.2-.5.15-.05-.3-.15-.6-.5-.65-.4-.05-.75.3-.75.7 0 .45.35 1.15.85 1.1.2 0 .25-.2.5-.2.1.25-.2.3-.25.5l.05.25c.1.4.3.9.5 1.2.3.35.8.4 1.35.5.1-.25.5-.25.7-.2-.3-.1-.55-.35-.8-.6-.25-.3-.5-.6-.5-.95.5.65.85 1.25 1.75 1.5.65.25 1.4-.1 1.9-.45.2-.1.3-.35.5-.55.56-.9.82-1.95.75-3 0-.5 0-.95-.2-1.25-.15-.35-.7-.6-1-.3-.05-.35.25-.5.65-.4-.3-.35-.55-.75-.95-1zm1.2 10.25c.5-.25 1.5-.7 1.85 0l.3 1c.1.35-.1 1.1-.5 1.25-.3.1-.7.1-1.1 0l-.15-.15c-.3 0-.55 0-.8.1 0 .25-.1.25-.25.3-.1.4.2.95.1 1.3 0 .25-.35.3-.6.35v.4c0 .2-.25.3-.5.35-.75.05-1.9.1-2.6-.15l-.5-1.65c-.75.05-1.3-.3-1.85-.55-.2-.1-.5-.15-.5-.3-.1-.15-.05-.45-.1-.7 0-.65-.05-1.3-.25-2-.05-.3-.2-.55-.3-.85l-.3-.9c0-.4.35-.4.6-.6l1.05-.65c.15-.05.5-.25.5-.35.1-.15-.1-.4-.15-.5a2 2 0 0 1-.15-.6c-.35-.05-.6-.25-.8-.5a2 2 0 0 1-.2-1.6l.15-.2-.05-.45c0-.65.1-1.25.55-1.5.2-.75.9-1 1.5-1.35l.8-.35c1-.35 2.5-.3 3.25.35.35.25.9.8 1.1 1.2.5 1 .5 2.8.15 4.05l-.25.65c-.05.15-.3.4-.25.55 0 .15.5.5.6.55.15.2.5.4.5.65q-.33 1.4-.8 2.75"/></svg>