<svg xmlns="http://www.w3.org/2000/svg" viewBox="0 0 16 16"><path fill="#ff4040" d="M14.84 7.91c0-.94-.58-1.77-1.44-2.11L15.37 0H5.09l1.97 5.82c-1.5.58-1.87 2.73-.63 3.77a5 5 0 0 1-1.99 1.55 1.1 1.1 0 0 1-.4-1.12c2.32-.87 1.71-4.37-.79-4.38C1.37 5.58.28 7.97 1.53 9.36c-2.81 5.29 1.44 8.48 6.24 5.45.8-.4 1.62-.8 2.42-1 1.01-.24 2.1-.2 3.1-.77a3.15 3.15 0 0 0 1.28-4.06q.27-.5.27-1.08ZM3.22 7.02c1.16 0 1.16 1.77 0 1.78-1.17 0-1.17-1.77 0-1.78m10.21-5.63-1.42 4.2-1.78-3.63-1.79 3.61-1.42-4.18zm-6 5.78q.12-.07.27-.12l.09-.02V6.8l.06.22.43.09.12.05.04.03h.03c.67.47.3 1.62-.53 1.59-.85.03-1.22-1.18-.5-1.63Zm2.46-.37a2 2 0 0 0-.3-.41l.64-1.28.65 1.33q-.32.37-.46.84h-.32a3 3 0 0 0-.2-.47Zm3.57 3.83c-.29 1.67-2.28 1.53-3.59 1.84-1.88.4-3.98 2.13-5.8 2.18-2.39-.03-2.37-2.79-1.44-4.34 0 1.03.71 1.95 1.69 2.37a6.7 6.7 0 0 0 3.42-2.53 2.26 2.26 0 0 0 2.32-1.5h.4a2.27 2.27 0 0 0 2.99 1.34q.06.32 0 .64Zm-.87-1.83c-.85.03-1.22-1.17-.51-1.63h.17v-.09l.3-.06h.11l.07.01c1.03.21.89 1.78-.16 1.77Z"/></svg>