<svg xmlns="http://www.w3.org/2000/svg" viewBox="0 0 16 16"><path d="M5.6 12.88c-.36-.3-.6-.74-.6-1.25v-1.25c0-.51.24-.95.6-1.25-.36-.3-.6-.74-.6-1.25V6.63c0-.9.73-1.62 1.62-1.62h.2V2.46H4.54v7.76c0 1.14-.47 1.43-1.22 1.43s-1.11-.54-1.47-1.17L0 11.59a3.54 3.54 0 003.42 2.08c.7 0 1.32-.14 1.84-.41.09-.15.2-.28.34-.39zM9.13 5.6c.3-.36.74-.6 1.25-.6h.68c.12-.4.49-.69 1.03-.69.6 0 1.01.25 1.38.84.16-.07.33-.11.51-.13l1.36-.87c-.75-1.32-1.79-1.83-3.24-1.83-2.01 0-3.3 1.27-3.34 2.95.14.09.27.2.37.33z" fill="#ffff40"/><rect x="6" y="6" width="2.5" height="2.5" rx=".62" ry=".62" fill="#ffff40"/><rect x="6" y="6" width="2.5" height="2.5" rx=".62" ry=".62" fill="#ffff40"/><rect x="6" y="9.75" width="2.5" height="2.5" rx=".62" ry=".62" fill="#ffff40"/><rect x="6" y="13.5" width="2.5" height="2.5" rx=".62" ry=".62" fill="#ffff40"/><rect x="13.5" y="6" width="2.5" height="2.5" rx=".62" ry=".62" fill="#ffff40"/><rect x="13.5" y="6" width="2.5" height="2.5" rx=".62" ry=".62" fill="#ffff40"/><rect x="13.5" y="9.75" width="2.5" height="2.5" rx=".62" ry=".62" fill="#ffff40"/><rect x="13.5" y="13.5" width="2.5" height="2.5" rx=".62" ry=".62" fill="#ffff40"/><rect x="9.75" y="6" width="2.5" height="2.5" rx=".62" ry=".62" fill="#ffff40"/><rect x="9.75" y="6" width="2.5" height="2.5" rx=".62" ry=".62" fill="#ffff40"/><rect x="9.75" y="9.75" width="2.5" height="2.5" rx=".62" ry=".62" fill="#ffff40"/><rect x="9.75" y="13.5" width="2.5" height="2.5" rx=".62" ry=".62" fill="#ffff40"/></svg>