<svg xmlns="http://www.w3.org/2000/svg" viewBox="0 0 16 16"><path fill="#ffff40" d="M5 11c0-1.69.7-3.21 1.83-4.3V2.45H4.55v7.76c0 1.14-.47 1.43-1.22 1.43s-1.11-.54-1.47-1.17L0 11.59a3.5 3.5 0 0 0 3.42 2.08q1.17 0 1.99-.49a6 6 0 0 1-.42-2.19Zm6-6h.05c.12-.4.49-.69 1.04-.69.66 0 1.08.28 1.47.98l1.78-1.14c-.75-1.32-1.79-1.83-3.24-1.83-2.04 0-3.34 1.3-3.34 3.01v.11A6 6 0 0 1 11.01 5Z"/><path fill="#ffff40" d="M11 6a5 5 0 1 0 0 10 5 5 0 0 0 0-10m0 8.13c-.35 0-.62-.28-.62-.62s.28-.62.62-.62.62.28.62.62-.28.62-.62.62m.63-2.5c0 .34-.28.62-.62.62s-.62-.28-.62-.62V8.51c0-.34.28-.62.62-.62s.62.28.62.62z"/></svg>