<svg xmlns="http://www.w3.org/2000/svg" viewBox="0 0 16 16"><path fill="#ffff40" d="M6.25 11.44V8.93c0-.56.22-1.08.58-1.48v-5H4.55v7.76c0 1.14-.47 1.43-1.22 1.43s-1.11-.54-1.47-1.17L0 11.59a3.5 3.5 0 0 0 3.42 2.08c1.3 0 2.32-.45 2.9-1.39a6 6 0 0 1-.07-.85Zm4.31-6.17q.23-.12.47-.18c.09-.45.47-.78 1.05-.78.66 0 1.08.28 1.47.98l1.78-1.14c-.75-1.32-1.79-1.83-3.24-1.83-2.04 0-3.34 1.3-3.34 3.01q0 .47.1.86zm4.78 2.56-3.13-1.69a1.3 1.3 0 0 0-1.17 0L7.91 7.83c-.4.22-.66.64-.66 1.1v2.51A4.5 4.5 0 0 0 11.49 16 4.37 4.37 0 0 0 16 11.63V8.94c0-.46-.25-.88-.66-1.1Zm-.59 3.8c0 1.72-1.4 3.12-3.13 3.12V11H8.49V9.68c0-.46.25-.88.66-1.1l1.87-1.01q.29-.15.6-.15V11h3.13z"/></svg>