<svg xmlns="http://www.w3.org/2000/svg" viewBox="0 0 16 16"><path fill="#ffff40" d="M14.75 7.25h-1.88l-.28-.56A1.3 1.3 0 0 0 11.47 6H8.49c-.69 0-1.25.56-1.25 1.25v8.12c0 .35.28.63.62.63s.62-.28.62-.63v-3.75h3.12l.28.56c.21.42.64.69 1.12.69h1.73c.69 0 1.25-.56 1.25-1.25V8.49c0-.69-.56-1.25-1.25-1.25Z"/><path fill="#ffff40" d="M11.01 12.63H9.5v.32c.69.45 1.57.72 2.64.73a2.2 2.2 0 0 1-1.13-1.04ZM11.05 5c.12-.4.49-.69 1.03-.69.66 0 1.08.28 1.47.98l1.78-1.14c-.75-1.32-1.79-1.83-3.24-1.83-1.9 0-3.15 1.14-3.31 2.68zm-4.8 2.25c0-.57.22-1.09.58-1.49V2.45H4.55v7.76c0 1.14-.47 1.43-1.22 1.43s-1.11-.54-1.47-1.17L0 11.59a3.5 3.5 0 0 0 3.42 2.08c1.24 0 2.24-.41 2.83-1.27z"/></svg>