<svg xmlns="http://www.w3.org/2000/svg" viewBox="0 0 16 16"><path fill="#ffff40" d="M5 7.25c0-1.1.79-2.01 1.83-2.21V2.45H4.55v7.76c0 1.14-.47 1.43-1.22 1.43s-1.11-.54-1.47-1.17L0 11.59a3.5 3.5 0 0 0 3.42 2.08q.89 0 1.58-.29zM11.05 5c.12-.4.49-.69 1.03-.69s.95.22 1.3.73q.2.03.38.11l1.56-1c-.75-1.32-1.79-1.83-3.24-1.83-1.9 0-3.15 1.14-3.31 2.68z"/><path fill="#ffff40" d="M12.98 6H7.25C6.56 6 6 6.56 6 7.25v7.5c0 .69.56 1.25 1.25 1.25h7.5c.69 0 1.25-.56 1.25-1.25V9.02c0-.33-.13-.65-.37-.88l-1.77-1.77a1.3 1.3 0 0 0-.88-.37M7.25 8.5v-.62c0-.34.28-.62.62-.62h3.75c.34 0 .62.28.62.62v.62c0 .34-.28.62-.62.62H7.87a.6.6 0 0 1-.62-.62m4.14 6.2a1.56 1.56 0 1 1-.77-3.03 1.56 1.56 0 0 1 .77 3.03"/></svg>