<svg xmlns="http://www.w3.org/2000/svg" viewBox="0 0 16 16"><path fill="#ffff40" d="M4.29 13.14q0-.36.14-.67-.5-.3-.72-.87l-.37.04c-.78 0-1.11-.54-1.47-1.17L0 11.59a3.5 3.5 0 0 0 3.42 2.08q.46 0 .86-.08zm1.71-6h.83V2.45H4.55v5.19A2.4 2.4 0 0 1 6 7.15ZM9.87 5h.84q.18 0 .34.03c.11-.42.48-.72 1.04-.72.66 0 1.08.28 1.47.98l1.78-1.14c-.75-1.32-1.79-1.83-3.24-1.83-2.04 0-3.34 1.3-3.34 3.01v.09q.48-.41 1.12-.42Zm.41 3.14h.18zm4.29 4.29h-3.21c0 .39-.32.71-.71.71h-.71a.7.7 0 0 1-.71-.71H6.02a.7.7 0 0 0-.71.71v1.43c0 .79.64 1.43 1.43 1.43h7.14c.79 0 1.43-.64 1.43-1.43v-1.43a.7.7 0 0 0-.71-.71Zm0-4.29h-2.14v-.42a.8.8 0 0 0-.21-.51L11.21 6.2a.7.7 0 0 0-.51-.21h-.84a.8.8 0 0 0-.51.21L8.34 7.21a.7.7 0 0 0-.21.51v.42H5.99c-.79 0-1.43.64-1.43 1.43V11c0 .39.32.71.71.71H9.2c0-.39.32-.71.71-.71h.71c.39 0 .71.32.71.71h3.93c.39 0 .71-.32.71-.71V9.57c0-.79-.64-1.43-1.43-1.43Zm-4.64-.71h.71c.2 0 .36.16.36.36v.36H9.57v-.36c0-.2.16-.36.36-.36"/></svg>