<svg xmlns="http://www.w3.org/2000/svg" viewBox="0 0 16 16"><defs><linearGradient id="a" x1="-686.87" x2="-675.58" y1="365.33" y2="376.58" gradientTransform="translate(689 -362.9)" gradientUnits="userSpaceOnUse"><stop offset="0" stop-color="#ffa040"/><stop offset="1" stop-color="#e0e0e0"/></linearGradient><linearGradient id="b" x1="-675.09" x2="-686.38" y1="376.09" y2="364.8" gradientTransform="translate(689 -362.9)" gradientUnits="userSpaceOnUse"><stop offset="0" stop-color="#ffa040"/><stop offset="1" stop-color="#e0e0e0"/></linearGradient></defs><path fill="url(#a)" fill-rule="evenodd" d="M8 11.9c3.5 4.85 6.99-1.35 6.99-5.05C14.99 2.46 10.5.01 8 .01c-4.1 0-8 3.4-8 8C0 13.15 4.5 16 8 16c-.8-.1-3.5-.7-3.5-6.79 0-4.15 1.35-5.8 3.5-5.05 0 0 2.35.9 2.35 3.9S8 11.91 8 11.91Z"/><path fill="url(#b)" fill-rule="evenodd" d="M8 4.16c-2.35-.8-5.2 1.1-5.2 5C2.8 15.46 7.45 16 8 16c4.1 0 7.99-3.4 7.99-7.99 0-5.15-4.49-8-7.99-8 1-.15 5.25 1.05 5.25 6.89 0 3.85-3.2 5.9-5.25 5-.05 0-2.35-.9-2.35-3.9S8 4.2 8 4.2z"/></svg>