<svg xmlns="http://www.w3.org/2000/svg" viewBox="0 0 16 16"><path fill="#a040ff" d="M14 3H8L6.59 1.59A2 2 0 0 0 5.18 1H2.01A2 2 0 0 0 0 3v10c0 1.1.9 2 2 2h2.54a3.43 3.43 0 0 1 3.05-4.89A3.42 3.42 0 0 1 10.6 5a3.46 3.46 0 0 1 3.01 5.11c.93.02 1.77.41 2.38 1.02V5a2 2 0 0 0-2-2Z"/><path fill="#ff4040" d="M7.66 16a2.45 2.45 0 1 1 0-4.9 2.45 2.45 0 0 1 0 4.9"/><path fill="#a040ff" d="M13.55 16a2.45 2.45 0 1 1 0-4.9 2.45 2.45 0 0 1 0 4.9"/><path fill="#40ff40" d="M10.61 10.9a2.45 2.45 0 1 1 .01 0Z"/></svg>