<svg xmlns="http://www.w3.org/2000/svg" viewBox="0 0 16 16"><path fill="#a040ff" d="M4.21 13.55a3.43 3.43 0 0 1 3.38-3.44A3.4 3.4 0 0 1 7.48 7H5.44a2 2 0 0 0-1.9 1.37L2 13V7c0-1.1.9-2 2-2h11c.55 0 1-.45 1-1s-.45-1-1-1H8L6.59 1.59A2 2 0 0 0 5.18 1H2.01A2 2 0 0 0 0 3v10c0 1.1.9 2 2 2h2.54a3.4 3.4 0 0 1-.33-1.45M14 7h-.28a3.4 3.4 0 0 1-.11 3.11c.93.02 1.77.41 2.38 1.02V9a2 2 0 0 0-2-2Z"/><path fill="#ff4040" d="M7.66 16a2.45 2.45 0 1 1 0-4.9 2.45 2.45 0 0 1 0 4.9"/><path fill="#a040ff" d="M13.55 16a2.45 2.45 0 1 1 0-4.9 2.45 2.45 0 0 1 0 4.9"/><path fill="#40ff40" d="M10.61 10.9a2.45 2.45 0 1 1 .01 0Z"/></svg>