<svg xmlns="http://www.w3.org/2000/svg" viewBox="0 0 16 16"><path fill="#40a0ff" d="M14 3H8L6.59 1.59A2 2 0 0 0 5.18 1H2.01A2 2 0 0 0 0 3v10c0 1.1.9 2 2 2h4.45l-1.37-1.71a1.7 1.7 0 0 1-.33-1.43l.88-3.84c.12-.5.45-.92.91-1.14l3.58-1.71q.16-.07.33-.12c.47-.23.95 0 3.75 1.37l.77.37h.02l.17.08q.6.3.84.93V4.98a2 2 0 0 0-2-2Z"/><path fill="#40a0ff" d="M10.44 10.1v-.05l.06-.98q-.62.11-1.08.52l.81.57.04.02c.06.05.17 0 .17-.08m.46 2.2-.05-.01q-.06 0-.09.06l-.02.04-.47.86q.6.16 1.19 0l-.5-.9zm-.05-.81.24-.11.06-.26-.16-.21h-.27l-.17.21.06.26zm-1.09-.5q.06-.1-.05-.18s-.73-.66-.73-.66q-.3.55-.26 1.17l.99-.29zm.15.84h-.07l-.96.16q.23.57.74.93l.37-.9.02-.05a.1.1 0 0 0-.1-.15Z"/><path fill="#40a0ff" d="M15.1 8.25a.7.7 0 0 0-.37-.46c-.09 0-3.93-1.97-3.91-1.78l-.26.07-3.58 1.71a.7.7 0 0 0-.37.46l-.88 3.84q-.07.31.13.57l2.48 3.08a.7.7 0 0 0 .54.26h3.97a.7.7 0 0 0 .54-.25l2.48-3.08q.2-.25.13-.57l-.88-3.84Zm-.4 3.81c-.15.46-.71.05-.99.02l-.08.04h-.07a3 3 0 0 1-1.19 1.5l.03.04-.02.04-.02.07c.05.15.2.34.3.5.25.45-.36.72-.53.26-.07-.18-.12-.41-.21-.55q-.02-.03-.08-.03l-.03-.03-.01-.03c-.62.22-1.29.22-1.9 0l-.03.06c-.17.02-.17.25-.24.39l-.08.24v.06h-.03c-.25.35-.71 0-.48-.36.1-.16.25-.36.3-.51l-.03-.09.02-.06a3 3 0 0 1-1.19-1.48h-.05l-.1-.04c-.16.02-.38.12-.55.18l-.06.02h-.02c-.38.08-.51-.46-.14-.57s.04 0 .04 0l.04-.01.21-.02q.2-.01.37-.06l.06-.08.06-.02c-.08-.65.07-1.3.42-1.86l-.04-.03v-.03s-.01-.07-.03-.08c-.12-.11-.33-.22-.49-.32l-.03-.03c-.25-.16-.15-.56.15-.55a.4.4 0 0 1 .25.11c.14.13.29.32.42.4h.08l.04.01.02.01a3 3 0 0 1 1.72-.83v-.05s.07-.07.07-.09l-.02-.36-.03-.21c-.05-.46.57-.52.59-.06q0 .14-.03.28-.03.23-.02.37.01.04.06.07v.04l.01.03c.65.07 1.25.37 1.71.83l.05-.04h.11l.27-.25.04-.05c.33-.49.96-.04.47.35l-.19.11q-.2.11-.3.21l-.02.08-.05.06c.35.54.5 1.21.43 1.86h.05s.05.09.07.1q.16.04.36.06c.24-.02.59.11.52.39Z"/><path fill="#40a0ff" d="m11.21 9.08.06.98v.04c0 .11.14.13.21.06s.8-.57.8-.57q-.46-.41-1.07-.52Zm1.51 1.07-.73.65-.04.04c-.06.05-.04.17.04.19l.05.02.94.27q.03-.62-.27-1.16Zm-.86 1.68h-.07c-.1 0-.13.12-.08.19s.38.92.38.92q.5-.36.75-.94z"/></svg>