<svg xmlns="http://www.w3.org/2000/svg" viewBox="0 0 16 16"><path fill="#a040ff" d="M15.97 8.38c-.46.12-.19.7-.7.49-.06-.08.37.02.36-.11-.07.04-.53.05-.57-.08.02-.19.47.02.24-.41-.17-.16 0-.19.12-.24-.1-.24-.4.03-.54.11-.28.06-.56.27-.84.13-.02.04.19.21.06.23-.75.01-.15-1.53-1.56-1.67-.11-.07-.97-.16-.57-.29.58-.11 1.13.54 1.74.51.42-.09 1.1.97 1.18.46.09-.27-.37-.28-.21-.38.38.32.85.26 1.22-.04-.53-.36-.53.39-1.02-.12.16-.09.18-.16.21.01.19-.12.28-.44.52-.48q-.74-.15-1.46-.19c-.52.21-1.06.36-1.42-.28-.55-.37.36-.09.34.16-.1.2.54-.07.59-.1-1.39-.26.57-.48 1.03-.24.22 0-.32-.62-.12-.29.26.32-.09.1-.12-.02 0-.22.37-.26.52-.41.07-.03.22-.57.15-.55-.07.06-.62.36-.39.43.19.17-.56.3-.59.08-.03-.11.23-.02.24.01.29-.07-.44-.5-.07-.7-.4-.06-.57.96-1.03.71-.35-.14-.04.13.07.23-.26.09-.57.07-.12.23-.3 0-.84-.05-.38-.22.03-.28-.16-.6.23-.7-.46-.25-1.11.82-1.37.19-.04.36-.16.03-.3-.01-.07.38.27.83-.36.85-.12-.39.07.07.13-.13.08-.15-.15-.49.03-.58.18-.28-.66.09-.82.04a2.2 2.2 0 0 1 1.84-.28c-.17-.31-.17-.45.14-.62.18.33.11-.31.25-.37.1-.08.13-.11-.01-.11-.34.03-.37.47-.62.45-.31.03-.37-.22-.15-.15.08-.2.02-.18.12-.03.19-.25-.1-.57.1-.77-.28-.11-.61.62-.85.42-.1.15-.16.52-.43.41-.17-.03.15.19-.18.25-.14.06.4.06.21.17-.44.04-.77.56-1.1.63-.13-.18-.06.06-.12.1-.15.02-.53-.27-.44-.43.21-.06.53.46.54-.06.02-.18-.04-.22-.12-.29.02-.03.36-.16.34-.06-.03.04.76-.27.32-.28-.11 0-.62-.13-.48.03.12.19-.4.03-.19-.18.21.17.08-.44.25-.46.22-.1-.04-.16-.16-.11-.44.25-.69.29-1.1.44-.18-.06-.16-.09-.19.08-.15 0-.18.14.02.12.1.1-.67.29-.66.36.2.12.44.07.67.1-.11.47.16.31.12.64.19-.15.19.11.34.18 0 .12.58.19.36.26-1.56 2.03 2.07 1.5 1.75 2.16.31 0-.15.71-.13.3-.36.21-.75.13-1.25-.1a2 2 0 0 1-.94-1.21c0-.26.04-.76-.23-.26-.08-.07-.94-.55-.63-.45.79-.35-.92-1.43-1.48-1.85-.61-.48-3.68-2.29-3.06-1.53.18.13.89.51.55.63-.41.07 1.2.52.16.64-.11.13.47.18.54.38.39.69-1.35-.26-1.66-.15-.19 0-.62-.03-.67.15.16.04.68.07.78.25-.12.17-2.44.24-1.33.39 1.3.11-1.76.58-1.59.91.26-.08 1.89-.48 1.53-.04.37 0 2.59-.38 1.73.62-.52.54.32.01.56.16.84.15 1.25.84.6 1.42.37-.14.9-.12 1.29.22.5.32-2.01 1.04-2.42 1.15-.6.08-3.06-1.42-1.51-.68 0-.39-.53-.53-.78-.74C.67 7.63.86 6.81.67 6.59c-.42.4.03 3.11.2 1.82.18.54 2.01.98.92 1.2-1.09.37-1.79 2.25-.37 2.76.57.43 1.56-.19 2.01.32.23.2.42 0 .53.23.17 0-.04-.3.16-.25.54.02.39.12.21-.56.35.28.14-.25-.12-.19-.75.28-.56.27-.14-.35.16-.54.22-.59.76-.54.28-.01.54-.25.39.16.21.01.34-.24.35-.41.14.03.52.07.66.17.28.2-.08.18-.05.38.05.14.29.1.38.18.03.18.19.15.29.21 0 .25-.07.95.26.62.55-.46 1.13.57 1.67.38.17-.16.13.46.23-.02-.07-.28 0-.62.25-.3.28-.36-.85-.61-.24-.51-.35-.53-1.15.35-1.54-.43-.25-.24-.32-1.14.12-.91-.03-.38-.56-.68-.91-.69 1.91-1.07 1.47 1.13 1.87.77.06-.5.31-.69.73-.27.3.35.9.17 1 .5-.09.34.17.46.11.85.26-.18.14.33.26.4.11.2-.55.4-.02.78-.06-.76.95.45 1.27.63.25-.08.31-.13.29.14.3-.06.04-.49.23-.45.19.07.18-.16.31-.14.1.37.34 0 .15-.2-.41-.55-1.17 0-1.47-.66-.16-.3-.2-1.84.15-.83.07.22.32.41.55.47-.35-.01-.46.59-.11.44.12-.31.59.12.89.4.4.45.48.06.7.36.27-.21-.11-.41.32-.67.12.46.33-.04-.04-.27-.4-.36-.94.14-1.25-.5-.98-1.45-.3-2.42.6-3.56 0 .18.69 1 .23.94-.26.03-.13.07.07.08.22.01.39-.07.51.07 0 .06-.46.36-.14.29.89-.9 1.62.68 1.56-.24-.01-.27.33-.33.45-.35.02-.08.19-.47.1-.43Zm-3.82 5.26"/></svg>