<svg xmlns="http://www.w3.org/2000/svg" viewBox="0 0 16 16"><path fill="#6060ff" d="M15.9 7.35c-.5-.15-.8-.35-1.05-.6-.4-.35-.6-.95-.6-1.64V2.87c0-.3 0-.6-.15-.95-.15-.5-.5-1-.9-1.3a2.2 2.2 0 0 0-1.25-.6h-1.3v1.4h.05c.45.1.65.2.8.4.15.15.45.5.45 1.25v1.94c0 .6 0 1.1.15 1.5.33.66.87 1.19 1.55 1.5q-.84.3-1.4 1c-.25.4-.3 1-.3 1.74v2.09c0 .5-.2 1-.5 1.25q-.32.3-.75.4h-.05v1.5h.55q1.27-.01 2.14-.7c.65-.5.95-1.15.95-2.09v-2.59q0-.97.6-1.5c.3-.3.6-.45 1-.55h.1v-1.2h-.1ZM4.04 6.5q.24-.52.25-1.5V3.01c0-.6.15-1 .35-1.25q.3-.27.7-.35h.65V.02H4.2c-.5 0-1 .3-1.35.6-.45.4-.75.8-.85 1.35l-.05.75v2.34c0 .9-.35 1.4-.7 1.69q-.54.41-1.2.6H0v1.2h.05c.55.15 1 .35 1.2.5a2 2 0 0 1 .7 1.55v2.59c0 1 .25 1.64.85 2.09s1.3.65 2.14.7h.65v-1.5h-.1c-.35-.1-.6-.2-.75-.4-.3-.25-.5-.7-.5-1.25v-2.09c0-.8-.1-1.35-.35-1.74a3 3 0 0 0-1.4-1c.67-.3 1.22-.83 1.55-1.5"/></svg>