<svg xmlns="http://www.w3.org/2000/svg" viewBox="0 0 16 16"><path fill="#e0e0e0" d="M6.59 14.92q.07-.32.16-.5l.02-.06v-.11c-.06-.39-.12-.98.34-1.45q.31-.29.64-.36v-.03c.09-.4.23-.65.34-.85l.11-.21.15-.41c.18-.52.39-1.11 1-1.69l.1-.11-.03-.56a7 7 0 0 1 .02-1.59H5.45a2 2 0 0 0-1.9 1.37l-1.54 4.63v-6c0-1.1.9-2 2-2h11c.55 0 1-.45 1-1s-.45-1-1-1h-7L6.6 1.58A2 2 0 0 0 5.19.99H2.02A2.03 2.03 0 0 0 0 3v10c0 1.1.9 2 2 2h4.58zm7.69-7.89q.1.53.11 1c.02.46.04.75.19.95l.73.92.13.2.56.08V9.01a2 2 0 0 0-1.72-1.97Z"/><path fill="#e0e0e0" d="M15.12 12.06a4 4 0 0 0-.6-1.55c-.23-.29-.55-.61-.73-.92-.68-.87-.15-2-.69-2.85-.52-.91-2.07-1.05-2.56-.04-.35.83-.08 1.81-.11 2.67l-.08.22c-.05.09-.2.23-.29.34-.61.57-.68 1.1-.96 1.81-.11.27-.31.51-.37.8-.05.35.17.67.37.94.31.4.72.73 1.2.9.25.31.59.68.43 1.11a5 5 0 0 1 2.42.15c-.11-.28-.02-.59.02-.88.11-.52.11-1.06.09-1.59.04-.28.37-.16.55-.14-.25.76.65.84 1.02.34.37-.3.35-.89.28-1.33Zm-3.4-4.31c.41-.8 1.16-.01.86.62-.35.63-1.05-.13-.86-.62m-1.1-.03c.13-.39.56-.19.63.12.15.34-.08 1.03-.51.69-.17-.22-.17-.55-.12-.81m.13 2.94a2 2 0 0 0-.75.44q.04-.08 0-.16c.13-.23.09-.19.11-.44q.06-.12.09-.25l.06-.1s-.08.24-.02.34c.03.05-.02.23.78.11zm.32 2.62-.01.1c-.21-.6-.08-1.4.03-2.02.03.64-.07 1.28-.01 1.93Zm.33-2.64a.5.5 0 0 0-.19.35c.02-.23-.02-.42-.29-.4.25-.03.37-.12.38-.38-.06.21.16.38.35.37a.3.3 0 0 0-.24.06Zm2.05.68c-.29-.24-.44-.45-.85-.57a6 6 0 0 0-.97-.17c.17-.01.95.06 1.19-.14.16-.11.2-.39.2-.39s.03.34.08.51c.09.25.41.52.35.75Z"/><path fill="#ffff40" d="m12.63 8.66-.02-.02c-.02-.18-.43-.16-.57-.28a.85.85 0 0 0-1.19.12c-.14.1-.26.24-.27.42v.04l.08.07c.19.11.27.34.45.47.25.17.58.08.81-.06.19-.12.35-.28.57-.34q.12-.06.11-.19c.01-.08.05-.16.02-.24Z"/><path fill="#ffa040" d="M15.99 14.39c-.22-.25-.62-.38-.7-.74-.02-.19-.02-.46-.25-.52q-.05.16-.2.25c-.37.51-1.27.43-1.02-.34-.19-.03-.51-.14-.55.14.02.53.03 1.06-.09 1.59-.16.68-.11 1.28.75 1.23.44-.07.67-.51 1.03-.72.3-.25 1.15-.38 1.03-.89m-5.24.7c-.07-.27-.28-.47-.45-.69a2.6 2.6 0 0 1-1.51-1.44c-.13.18-.21.45-.47.45-.74-.07-.62.33-.57.89.05.3-.15.53-.19.8q0 .17.16.24c.57.21 1.18.29 1.75.49.64.39 1.43.11 1.27-.73Z"/></svg>