<svg xmlns="http://www.w3.org/2000/svg" viewBox="0 0 32 32"><path d="m29.1 15.8.1.2v.3c-.1 2.1.4 2.8 1.2 3.9.5.7 1.2 1.6 1.6 2.9V12.8h-5c1 .7 1.9 1.7 2.2 3Z" fill="#e2e2e4"/><path d="M15.1 28v-.5c.2-.6.5-1.7 2-2l.6-2 .7-1.6c.3-.8.8-1.4 1.2-1.8l.4-.4v-1.1c-.2-1.7-.4-4.3 1.8-5.8H6.4L3.2 25.6v-16H32c0-1.8-1.4-3.2-3.2-3.2H16l-3.2-3.2H3.2A3.2 3.2 0 0 0 0 6.4v19.2c0 1.8 1.4 3.2 3.2 3.2h12V28Z" fill="#e2e2e4"/><path d="M22.6 30.4c-1-1.4-1.7-3.1-3-4.1-.6-.1-.7.7-1 1-.5.2-1.4-.2-1.5.5 0 1 .1 1.7-.3 2.6.6 1 2.5.7 3.5 1.3 1 .7 2.6 0 2.3-1.3ZM32 29.1l-.2-.2c-.2-.3-.7-.4-.9-.8-.3-.4-.1-1-.5-1.4-.5-.4-1.2.1-1.7-.1-.4 0-1.5-.6-1.4 0-.4 1.3-.2 3-.5 4.3 0 1.5 2 1.3 2.7.3.6-.9 2.6-.9 2.5-2.1Z" fill="#ffb466"/><path d="M22.3 19.3c.6.7 1.4 1.7 2.4.9l1.2-.8c0-.2.2-.6 0-.7h-2.7c-.2 0-.4.3-.6.4-.1 0-.3 0-.3.2Z" fill="none"/><path d="M22.8 18.5c-.3.2-.6.5-.5.8.4.1.7.5 1.1.5 1 .1 1.6-.9 2.4-1 .3 0 0-.3-.2-.3-1-.3-2-1-2.8 0Z" fill="none"/><path d="M26.8 30.9c.3-1.4.1-3 .5-4.2 0-.7 1-.1 1.3-.1.6.2 1.2-.3 1.7 0 .2-.5.2-1.2.1-1.7-.8-4-3.5-3.8-3.2-8.7-.4-1.7-2.5-2.8-4-2-1.8 1-1.2 3.5-1.2 5.2.3 1.3-1.4 2-1.8 3.2-.7 2-1.3 2.8-1.1 3.9.1-.2.3-.3.6-.3 1.2 1 2 2.8 2.9 4.2v.8c1-.2 2.3-.4 3-.1l1.3.3-.1-.5Zm-3.3-12.7c-.6 1.4-1.6-.3-1.2-1.1.6-1.1 1.5.4 1.2 1.1Zm1.7.5c-.7 0-1-1-.9-1.5 1-2 2.7 1.4.9 1.5Z" fill="#e2e2e4"/><path d="M26 18.8c-.4-.4-1.3-.5-1.7-.8-.8-.3-2 .5-2 1.3.7.7 1.4 1.6 2.4.9.5-.5 1.4-.6 1.3-1.4Z" fill="#ff6"/></svg>