<svg xmlns="http://www.w3.org/2000/svg" viewBox="0 0 16 16"><path fill="#e0e0e0" d="M13.47 2.53A8.6 8.6 0 0 0 7.43 0a8.7 8.7 0 0 0-4.45 1.15 4.5 4.5 0 0 1 1.92-.11 4.7 4.7 0 0 1 2.54 1.29 4.5 4.5 0 0 1 0 6.37 4.2 4.2 0 0 0-1.25 3.02 4.24 4.24 0 0 0 4.27 4.27c1.14 0 2.21-.44 3.02-1.25a8.6 8.6 0 0 0 2.53-6.11c0-2.31-.9-4.48-2.53-6.11Zm-.57 10a28 28 0 0 0-1.51-4.33 25 25 0 0 1-2.05 4.33H7.85c1.82-3.62 3.8-6.1.89-9.29h1.49a35 35 0 0 1 4.16 9.29z"/><path fill="#e0e0e0" d="m3.34 9.32-.09-.21a27 27 0 0 1-1.5-4.27H.46a35 35 0 0 0 4.09 9.1h1.23c-2.4-2.77-1.19-5.04.33-7.91l.62-1.19H5.45a26 26 0 0 0-2.02 4.27z"/></svg>