<svg xmlns="http://www.w3.org/2000/svg" viewBox="0 0 32 32"><path d="M16 .2a15.8 15.8 0 1 0 0 31.6A15.8 15.8 0 0 0 16 .2Zm-.4 9-1.3 2.4c-2.8 5.3-4.8 9-.4 13.8l.7.9h-4l-.2-.3c-3-5-5.5-9.7-7.6-16.9l-.1-.6h3.7v.4c.6 2.3 1.4 4.4 2.3 6.6.9-2.1 2-4.6 3.3-6.8l.2-.2h3.7l-.3.7Zm10 14.3v-.3c-.6-2.4-1.4-4.4-2.3-6.6-.9 2-2 4.5-3.3 6.7l-.2.2h-3.7l.3-.7 1.3-2.4c2.8-5.2 4.8-9 .4-13.8l-.7-.8h4l.2.2c3 5 5.5 9.7 7.6 16.9l.1.6h-3.7Z" fill="#66ffb4"/><path d="M27.3 4.7a16 16 0 0 0-22.6 0A16 16 0 0 0 16 32 16 16 0 0 0 27.3 4.7ZM10.6 26.3l-.2-.3c-3-5-5.5-9.7-7.6-16.9l-.1-.6h3.7v.4c.6 2.3 1.4 4.4 2.3 6.6.9-2.1 2-4.6 3.3-6.8l.2-.2h3.7l-.3.7-1.3 2.4c-2.7 5.3-4.7 9-.4 13.8l.8.9h-4.1ZM27 27a7.7 7.7 0 0 1-13.2-5.5c0-2 .9-4 2.3-5.4a8 8 0 0 0 0-11.5 8.3 8.3 0 0 0-8-2A15.5 15.5 0 0 1 31.6 16c0 4-1.6 8-4.6 11Z" fill="#66b4ff"/></svg>