<svg xmlns="http://www.w3.org/2000/svg" viewBox="0 0 16 16"><path fill="#6060ff" d="M10.36 7.28a4.36 4.36 0 1 0 0 8.71 4.36 4.36 0 0 0 0-8.71m1.81 3.83a1.28 1.28 0 1 1 0-2.56 1.28 1.28 0 0 1 0 2.56M16 7.28a1.28 1.28 0 1 0-2.56 0 1.28 1.28 0 0 0 2.56 0m-.28 4.36a5.3 5.3 0 0 1-1.13 3.26A2 2 0 0 0 16 13V9.15q-.33.23-.74.33.45 1 .46 2.16"/><path fill="#6060ff" d="M5 11.64A5.4 5.4 0 0 1 7.72 7H5.44a2 2 0 0 0-1.9 1.37L2 13V7c0-1.1.9-2 2-2h11c.55 0 1-.45 1-1s-.45-1-1-1H8L6.59 1.59A2 2 0 0 0 5.18 1H2.01A2 2 0 0 0 0 3v10c0 1.1.9 2 2 2h4.21A5.3 5.3 0 0 1 5 11.64"/></svg>