<svg xmlns="http://www.w3.org/2000/svg" viewBox="0 0 16 16"><path fill="#6060ff" d="M15.72 11.64a5.3 5.3 0 0 1-1.13 3.26A2 2 0 0 0 16 13V9.15q-.33.23-.74.33.45 1 .46 2.16M14 3H8L6.59 1.59A2 2 0 0 0 5.18 1H2.01A2 2 0 0 0 0 3v10c0 1.1.9 2 2 2h4.21a5.36 5.36 0 0 1 6.31-8.26 2.27 2.27 0 0 1 3.49-1.35V5a2 2 0 0 0-2-2Z"/><path fill="#6060ff" d="M10.36 7.28a4.36 4.36 0 1 0 0 8.71 4.36 4.36 0 0 0 0-8.71m1.81 3.83a1.28 1.28 0 1 1 0-2.56 1.28 1.28 0 0 1 0 2.56M16 7.28a1.28 1.28 0 1 0-2.56 0 1.28 1.28 0 0 0 2.56 0"/></svg>