<svg xmlns="http://www.w3.org/2000/svg" viewBox="0 0 32 32"><path d="M18.3 12.8s-1.3.4-2.3.4c-1.1 0-2.3-.4-2.3-.4 0 .8 0 1.6-.3 2.2-.3 1.2-1.1 2.3-1.1 2.3l2 .8 1.7 1.8s.7-1.1 1.6-1.8l2.1-.8s-1-1.1-1.3-2.1c-.4-1.1-.1-2.4-.1-2.4Z" fill="#f66"/><path d="M21 14.2c-.8-2 .2-5.3.2-5.3s-3.1 1.8-5.4 1.8c-2 0-5-1.8-5-1.8s.8 3.2.2 5.3c-.7 2.3-3.4 4.6-3.4 4.6s3.6.3 5.2 1.4c1.6 1.1 3.2 4.7 3.2 4.7s1-3.2 3-4.5c2.2-1.5 5.4-1.7 5.4-1.7s-2.8-2.4-3.4-4.5Zm-2.7 5c-1.5 1-2.3 3-2.3 3s-1-2-2.4-3.1c-1.5-1-3.4-1.3-3.4-1.3a7 7 0 0 0 2-3c.6-2.2.2-3.8.2-3.8s1.3 1 3.6 1 3.7-1 3.7-1-.6 2 0 3.7c.7 1.5 2.1 3.2 2.1 3.2s-2 .2-3.5 1.3Z" fill="#f66"/><path d="m26.8 16 4.4-5-6.5-1.3.7-6.6-6 2.6L16 0l-3.4 5.7-6-2.6.7 6.6L.8 11l4.4 5-4.4 5 6.5 1.3-.7 6.6 6-2.6L16 32l3.4-5.7 6 2.6-.7-6.6 6.5-1.3-4.4-5Zm-7 5.3c-1.2.8-3.8 6.5-3.8 6.5s-2-5.2-4-6.5c-2-1.4-7.2-1.6-7.2-1.6s4-3.2 4.7-6c.8-2.9-.4-7.2-.4-7.2s3.8 2.9 6.7 2.9 7.2-3 7.2-3-1.2 6.2-.9 7.3c.5 1.3 5 5.8 5 5.8s-6.2 1-7.4 1.8Z" fill="#f66"/></svg>