<svg xmlns="http://www.w3.org/2000/svg" viewBox="0 0 16 16"><path fill="#40a0ff" d="m0 8.89 4.55-1.84q.7-.92 1.55-1.69c.38-.2 1.09-.09 2.38-1.7C9.74 2.09 10.14.75 10.73.75c.93 0 1.62 2.01 2.66 5.06A64 64 0 0 0 16 12.65c-1.09-1.01-2.01-2.1-3.07-2.07-.98.02-2.07 1.19-3.27 2.69-.95 1.2-2.21 2.02-2.7 2.01 0 0-1.27-3.59-2.33-4.17a1.5 1.5 0 0 0-1.37.11z"/><path fill="#6060ff" d="M10.17 1.15c-.38.51-.85 1.46-1.68 2.5-1.3 1.61-2 1.5-2.38 1.7a11 11 0 0 0-1.55 1.69l1.89 1.38c1.6-2.18 2.46-4.55 3.13-6.08q.25-.62.61-1.19Z"/><path fill="#ffa040" d="M10.74.74c-1.25 0-2.1 6.56-6.7 10.22 1.29-.21 2.41 2.99 2.93 4.29 2.29-.39 4.11-4.76 5.96-4.69 1.06.04 1.98 1.06 3.07 2.07C13.52 7.43 12.36.74 10.74.74"/></svg>