<svg xmlns="http://www.w3.org/2000/svg" viewBox="0 0 16 16"><path fill="none" d="M3.86 5.1v.05zm8 1.25h-.05z"/><path fill="#ff4040" d="m5.01 7.15-.5.55c.35-.5.4-1.05.3-1.65q-.15.46-.5.8c.5-.75.35-1.7 0-2.45-.05.25-.25.5-.45.7v.05l-1.25 1.1-1.35-.65c.15 2.15.5 4.35 1.5 6.35.1 0 1.3.7 1.4.65l.4-.35c1.25-1.25 1-3.5.4-5.1zm-1.05 5.4.15.1"/><path fill="#ffa040" d="m3.71 1.55-.2-.3c-1.25-2.2-2.4-1.25-2.3.9-.1 1.1-.05 2.3 0 3.45l1.45.65 1.15-1.1c.7-1.2.2-2.45-.1-3.65zm11-.25c-.5-1.3-1.5-.5-2.65.5q-1.44 1.33-2.7 2.85c.05.1.5 1.65.65 1.65 2.35.6 3.9-1.3 4.65-3.3.4-1.15.05-1.7.05-1.7"/><path fill="#ff4040" d="M12.71 6.2c-.25.1-.6.15-.9.15l-1.95-.2-.5-1.5c-1.5 2.3-4.75 5.1-3.25 8h.65-.05c2 0 3.6-2 4.4-3.75q-.37.1-.75.1a2.5 2.5 0 0 0 1.5-1.1c-.2.1-.65.25-1 .25 1-.2 1.6-1.1 1.95-2z"/><path fill="#a040ff" d="M3.91 13.9q-.24.21-.7.35c.45.05.7 0 .8-.05-.25.2-.4.55-.5.95q.36-.69.8-.85c.15.6 0 1.15-.3 1.7h.1l.5-.8.25.8h.1c-.2-.6-.25-1.2.1-1.75.35.1.5.35.65.75 0-.3 0-.6-.25-.85 1.1.25 2.1.05 2.65-.8-.25.25-.5.3-1 .2a3 3 0 0 0 1.85-1.3c-.9.7-3 .9-3.1-.4-.2-.35 0-.8-.15-1.2 0 .15-.1.25-.15.4v-.1c-.2.4-.25.85-.7 1-.65-.7-.4-.3-.2.2-.5.85-1.35 0-1.95-.2l.6 1.15c-2-.35.25.25.6.8"/></svg>