<svg xmlns="http://www.w3.org/2000/svg" viewBox="0 0 16 16"><path fill="#ff4040" d="M15 3H8L6.59 1.59A2 2 0 0 0 5.18 1H2.01A2 2 0 0 0 0 3v10c0 1.1.9 2 2 2h5.68l-1.12-4.81-.09-2.87V7H5.43a2 2 0 0 0-1.9 1.37L1.99 13V7c0-1.1.9-2 2-2h11c.55 0 1-.45 1-1s-.45-1-1-1Z"/><path fill="#ff4040" d="m10.08 7 .65 2.66 1.05-1.38L13 7zm2.55 7.89-.09.11H14a2 2 0 0 0 2-2V9.81l-3.26 4.9z"/><path fill="none" d="M9.13 9.19v.03zm5 .78h-.03z"/><path fill="#ff4040" d="m9.85 10.47-.31.34c.22-.31.25-.66.19-1.03q-.1.29-.31.5c.31-.47.22-1.06 0-1.53-.03.16-.16.31-.28.44v.03l-.78.69-.84-.41c.09 1.34.31 2.72.94 3.97.06 0 .81.44.87.41l.25-.22c.78-.78.62-2.19.25-3.19zm-.66 3.37.09.06"/><path fill="#ffa040" d="m9.04 6.97-.12-.19c-.78-1.37-1.5-.78-1.44.56a17 17 0 0 0 0 2.16l.91.41.72-.69c.44-.75.12-1.53-.06-2.28v.03Zm6.87-.16c-.31-.81-.94-.31-1.66.31q-.9.84-1.69 1.78c.03.06.31 1.03.41 1.03 1.47.37 2.44-.81 2.91-2.06.25-.72.03-1.06.03-1.06"/><path fill="#ff4040" d="M14.66 9.88q-.26.09-.56.09l-1.22-.12-.31-.94c-.94 1.44-2.97 3.19-2.03 5h.41-.03c1.25 0 2.25-1.25 2.75-2.34q-.23.07-.47.06.6-.16.94-.69a2 2 0 0 1-.62.16c.62-.12 1-.69 1.22-1.25l-.06.03Z"/><path fill="#a040ff" d="M9.16 14.69q-.14.13-.44.22.41.03.5-.03-.23.2-.31.59.23-.43.5-.53c.09.37 0 .72-.19 1.06h.06l.31-.5.16.5h.06c-.12-.37-.16-.75.06-1.09.22.06.31.22.41.47 0-.19 0-.37-.16-.53.69.16 1.31.03 1.66-.5-.16.16-.31.19-.62.12.48-.1.9-.4 1.16-.81-.56.44-1.87.56-1.94-.25-.12-.22 0-.5-.09-.75 0 .09-.06.16-.09.25v-.06c-.12.25-.16.53-.44.62-.41-.44-.25-.19-.12.12-.31.53-.84 0-1.22-.12l.37.72c-1.25-.22.16.16.37.5"/></svg>