<svg xmlns="http://www.w3.org/2000/svg" viewBox="0 0 16 16"><path fill="#a0a0a0" d="M14 3H8L6.59 1.59A2 2 0 0 0 5.18 1H2.01A2 2 0 0 0 0 3v10c0 1.1.9 2 2 2h4.16a2.6 2.6 0 0 1 .13-2.29c-2.48-.92-1.92-4.33.75-4.13.1-4.33 7.05-4.66 8.9-1.06l.07.08V4.99a2 2 0 0 0-2-2Z"/><path fill="#a0a0a0" d="M10.88 6.04c-3.69.46-3.75 4.36-.5 5.28 2.81.8.58 2.59.65 3.79.07 1.19 2.44 1.63 4.32-1.51 1.84-3.08-.39-8.07-4.47-7.56m.87 5.92c-.09.06-.28-.41-1.08-.65-.63-.19-1.44-.45-1.91-1.06a3 3 0 0 1-.57-1.23q-.04-.16 0-.21c.01-.01.26.54.62 1.01.37.47.88.74 1.3.84.38.09 1.16.28 1.43.51s.3.74.2.79Zm2.17 3.26c-.92.66-2 1.04-2.42.35-.11-.18.06-.38.23-.37.28.02.89 0 1.37-.28 1.2-.68 3.04-3.97 2.12-6.04a5 5 0 0 0-1.05-1.65c-.09-.09-.04-.09.02-.06.23.12.64.59 1.06 1.36.7 1.3.67 2.84.41 3.81-.18.67-.81 2.2-1.73 2.86Z"/><path fill="#e0e0e0" d="M11.96 15.67c-.01.14.15.17.38.14.28-.04.53-.08.85-.24.44-.22.89-.54 1.22-.98a6 6 0 0 0 1.28-3.03 6 6 0 0 1-.8 1.99c-.7 1.1-1.2 1.69-2.37 1.97-.32.08-.55-.04-.56.15m-2.59-5.01a3 3 0 0 0 .94.44c.65.21.96.4 1.09.49s.23.3.24.12q0-.3-.36-.43c-.17-.06-.46-.19-.74-.25l-.72-.18z"/><path fill="#a0a0a0" d="M10.08 13.59A1.59 1.59 0 1 0 7 14.4a1.59 1.59 0 1 0 3.08-.81m-2.49 1.58c-.07-.06 0-.17.14-.1.49.26 1.1.2 1.54-.12.45-.33.7-.97.43-1.78-.04-.12.08 0 .17.16.82 1.41-1.04 3-2.28 1.84"/><path fill="#e0e0e0" d="M8.56 15.41c.16-.03 1.08-.27 1.29-1.03.07-.24.08-.19.06-.06a1.4 1.4 0 0 1-1.24 1.16c-.11.01-.25-.04-.12-.06Z"/><path fill="#a0a0a0" d="M6.14 11.4q0-.14.21-.08c.14.04.5.14.77-.06.28-.2.6-.63.43-1.09-.07-.18.02-.1.08.02l.03.04a1 1 0 0 0-1.05-.67c-.57.06-.99.57-.94 1.15.03.35.24.63.52.79q-.05-.04-.06-.09Z"/><path fill="#e0e0e0" d="M6.72 11.51s.25-.02.44-.12.41-.33.45-.65c.02-.19.03-.14.04-.04-.03.53-.51.82-.79.86-.07.01-.21 0-.14-.05m6.23 1.86c-.81-.1-1.97 1.74-.87 1.52s-1.1.22 0 0c.53-.08.96-.27 1.35-.72a9 9 0 0 0 1.49-2.67c.19-.69.09-1.76-.1-.76-.2 1.03-1.06 2.72-1.87 2.62Zm-6.04-2.25c.24-.06.57-.4.41-.66-.2-.32-.75-.05-.77.31-.02.35.1.42.36.35m1.83 3.79c.21-.05.85-.32.73-1.25-.06-.47-.32.59-.79.75-.72.24-.64.69.06.5"/></svg>