<svg xmlns="http://www.w3.org/2000/svg" viewBox="0 0 16 16"><path fill="#a0a0a0" d="M8.06.31c-5.71.71-5.8 6.75-.77 8.18 4.36 1.24.9 4.02 1 5.87s3.79 2.52 6.69-2.34c2.86-4.76-.6-12.5-6.92-11.71m1.35 9.18c-.14.09-.43-.63-1.68-1.01-.97-.29-2.23-.69-2.95-1.65a5 5 0 0 1-.88-1.91c-.02-.16-.05-.28 0-.32.02-.02.4.84.97 1.56a3.8 3.8 0 0 0 2.02 1.3c.59.14 1.8.44 2.21.79.42.36.46 1.14.32 1.23Zm3.37 5.05c-1.43 1.02-3.1 1.61-3.76.55-.17-.28.09-.6.36-.57.43.04 1.38 0 2.12-.43 1.86-1.06 4.72-6.15 3.28-9.36a7 7 0 0 0-1.62-2.55c-.14-.14-.06-.14.03-.09.36.19.99.92 1.63 2.11a8.4 8.4 0 0 1 .63 5.91c-.28 1.04-1.26 3.41-2.68 4.43Z"/><path fill="#e0e0e0" d="M9.74 15.23c-.02.22.24.27.58.22.44-.07.81-.12 1.32-.37a5.5 5.5 0 0 0 1.9-1.51c1.52-2 2.06-4.36 1.98-4.7-.03.28-.4 1.75-1.24 3.08-1.08 1.71-1.86 2.61-3.67 3.05-.5.12-.85-.06-.87.23M5.73 7.47c.21.18.63.41 1.46.68 1 .33 1.49.62 1.69.75.22.15.35.47.37.18.01-.29-.16-.54-.56-.67-.27-.09-.72-.3-1.15-.39-.28-.05-.73-.16-1.12-.28l-.69-.28Z"/><path fill="#a0a0a0" d="M6.82 12.02a2.47 2.47 0 1 0-4.77 1.26 2.47 2.47 0 1 0 4.77-1.26m-3.85 2.44c-.1-.1-.01-.27.21-.15.76.4 1.7.31 2.39-.19.7-.51 1.08-1.5.67-2.75-.06-.19.12 0 .27.24 1.27 2.18-1.62 4.64-3.54 2.85"/><path fill="#e0e0e0" d="M4.47 14.83c.24-.05 1.67-.42 2-1.6.1-.37.12-.29.09-.09-.15 1.02-1.1 1.77-1.91 1.79-.16.02-.38-.06-.18-.1"/><path fill="#a0a0a0" d="M.73 8.62c0-.12.11-.2.33-.13s.77.21 1.2-.09c.43-.31.93-.98.67-1.69-.1-.28.03-.15.12.02l.04.07a1.6 1.6 0 0 0-1.63-1.04C.57 5.85-.08 6.65 0 7.54c.05.54.38.97.81 1.23Q.73 8.7.72 8.62Z"/><path fill="#e0e0e0" d="M1.63 8.78c.06-.06.39-.03.68-.19s.64-.51.7-1c.04-.29.05-.22.06-.06-.05.82-.79 1.28-1.22 1.34-.12.02-.32 0-.22-.08Zm9.65 2.9c-1.25-.16-3.05 2.7-1.36 2.36 1.7-.33-1.7.33 0 0a3.2 3.2 0 0 0 2.1-1.11c.79-.91 1.97-2.87 2.31-4.14.29-1.07.14-2.73-.15-1.17-.3 1.6-1.65 4.22-2.9 4.06M1.91 8.19c.38-.1.88-.62.63-1.02-.31-.49-1.16-.07-1.19.47s.16.65.56.54Zm2.84 5.86c.32-.09 1.31-.49 1.12-1.94-.09-.73-.49.91-1.23 1.16-1.11.37-.99 1.07.1.78Z"/></svg>