<svg xmlns="http://www.w3.org/2000/svg" viewBox="0 0 16 16"><path fill="#ff4040" d="M7.69 8.75 3.55 6.23v4.42L8 13.22l4.45-2.57V6.23L8.31 8.75a.6.6 0 0 1-.62 0"/><path fill="#ff4040" d="M14.08 3.1 9.2.29a2.7 2.7 0 0 0-2.41 0L1.92 3.1a2.7 2.7 0 0 0-1.2 2.09v5.63c0 .76.54 1.7 1.2 2.09l4.87 2.81c.66.38 1.75.38 2.41 0l4.87-2.81a2.7 2.7 0 0 0 1.2-2.09V5.19c0-.76-.54-1.7-1.2-2.09ZM7.44 1.88c.35-.19.77-.19 1.12 0l3.15 1.82-1.17.71-2.53-1.46-2.53 1.46-1.17-.71 3.14-1.81Zm6.22 7.6v1.23c0 .4-.22.77-.56.97L8.57 14.3q-.26.15-.56.14t-.56-.14l-4.53-2.62a1.2 1.2 0 0 1-.56-.97V5.17c0-.33.28-.6.61-.6q.17 0 .31.09l4.74 2.88 4.74-2.88a.6.6 0 0 1 .92.51v4.32Z"/></svg>