<svg xmlns="http://www.w3.org/2000/svg" viewBox="0 0 16 16"><path fill="#40ffff" d="M4.32 12.71h-.15l-.75-.75v-.15l1.15-1.15h.81l.09.1v.8l-1.15 1.17zm-.9-8.52v-.15l.75-.75h.15l1.15 1.15v.8l-.09.1h-.81z"/><path fill="#e0e0e0" d="M10.06 10.29h-1.1l-.1-.09V7.62c0-.45-.18-.81-.73-.82h-.95l-.05.07v3.33l-.1.09h-1.1l-.09-.09V5.81l.09-.1H8.4c.96 0 1.74.79 1.74 1.75v2.74z"/><path fill="#40ffff" d="M4.47 8.65H.1l-.1-.1V7.46l.09-.08h4.38l.1.08v1.1zm11.44 0h-4.39l-.1-.1V7.46l.1-.08h4.38l.1.08v1.1zM7.36 4.34V1.05l.1-.09h1.1l.09.09v3.3l-.09.09h-1.1zm0 10.6v-3.28l.1-.1h1.1l.09.1v3.29l-.09.09h-1.1z"/></svg>