<svg xmlns="http://www.w3.org/2000/svg" viewBox="0 0 32 32"><path fill="#6f6" d="m26.3 12.8 5.7 3.3v-3.3h-5.7z"/><path d="M14.6 28.5a3 3 0 0 1-.4-1.5v-8c0-1 .5-2 1.4-2.6l6.3-3.6H6.4L3.2 25.6v-16H32c0-1.8-1.4-3.2-3.2-3.2H16l-3.2-3.2H3.2A3.2 3.2 0 0 0 0 6.4v19.2c0 1.8 1.4 3.2 3.2 3.2h11.6l-.2-.3Z" fill="#6f6"/><path d="M32 19a1 1 0 0 0-.5-.8l-7-4a1 1 0 0 0-.9 0s-7 4-7 4c-.3.1-.4.4-.4.8v8.5l.4.3 7 4c.3.2.7.2 1 0l7-4c.2-.1.4-.4.4-.8v-8Zm-3.9 1V26c0 .5-.5 1-1 .9-.5 0-1-.2-1.2-.6l-4-4.8v4.5c0 .5-.5.9-1 .9s-.9-.4-.9-1v-6c0-.6.5-1 1-1s1 .2 1.3.6l.3.3 3.7 4.5v-4.5c0-.5.4-.9.9-.9s.9.4.9 1Z" fill="#6f6"/></svg>