<svg xmlns="http://www.w3.org/2000/svg" viewBox="0 0 16 16"><path fill="#40ff40" d="M6.96 14.55a1.5 1.5 0 0 1-.76-1.32V8.76c0-.54.29-1.04.76-1.32L7.73 7H5.44a2 2 0 0 0-1.9 1.37L2 13V7c0-1.1.9-2 2-2h11c.55 0 1-.45 1-1s-.45-1-1-1H8L6.59 1.59A2 2 0 0 0 5.18 1H2.01A2 2 0 0 0 0 3v10c0 1.1.9 2 2 2h5.73z"/><path fill="#40ff40" d="M16 8.76c0-.18-.1-.36-.26-.45l-3.88-2.24a.5.5 0 0 0-.52 0S7.46 8.31 7.46 8.31a.5.5 0 0 0-.26.45v4.48q0 .14.07.26t.19.19l3.88 2.24q.26.14.52 0l3.88-2.24a.5.5 0 0 0 .26-.45zm-2.16.53v3.43a.53.53 0 0 1-.55.49h-.01a1 1 0 0 1-.68-.3l-2.24-2.68v2.48c0 .28-.22.5-.5.5s-.5-.22-.5-.5V9.28c.02-.29.27-.5.55-.49h.01q.4 0 .68.3l.15.18 2.09 2.5V9.29c0-.28.22-.5.5-.5s.5.22.5.5"/></svg>