<svg xmlns="http://www.w3.org/2000/svg" viewBox="0 0 16 16"><defs><linearGradient id="a" x1="63.53" x2="67.1" y1="-110.15" y2="-116.32" gradientTransform="matrix(.8 0 0 -.8 -47.95 -79.29)" gradientUnits="userSpaceOnUse"><stop offset="0" stop-color="#699ad7"/><stop offset=".24" stop-color="#7eb1dd"/><stop offset="1" stop-color="#7ebae4"/></linearGradient></defs><path fill="#5277c3" fill-rule="evenodd" d="m4.88 8.17 3.9 6.75-1.79.02-1.04-1.81-1.05 1.8h-.89l-.46-.79 1.49-2.57-1.06-1.84z"/><path fill="#7ebae4" fill-rule="evenodd" d="m6.29 5.39-3.9 6.75-.91-1.54 1.05-1.81H.44L0 8.02l.45-.79h2.97L4.49 5.4zm.3 5.4h7.79l-.88 1.56h-2.09l1.04 1.8-.45.77h-.91l-1.48-2.58H7.48zm4.53-2.96L7.23 1.08l1.79-.02 1.04 1.81 1.05-1.8H12l.46.79-1.49 2.57 1.06 1.84-.89 1.56Z"/><path fill="#5277c3" fill-rule="evenodd" d="m4.88 8.17 3.9 6.75-1.79.02-1.04-1.81-1.05 1.8h-.89l-.46-.79 1.49-2.57-1.06-1.84zM9.41 5.2h-7.8l.88-1.56h2.09l-1.04-1.8.45-.77h.91l1.48 2.58h2.13l.9 1.56Zm.3 5.41 3.9-6.75.91 1.54-1.05 1.81h2.09l.44.78-.45.79h-2.97l-1.07 1.83z"/><path fill="url(#a)" fill-rule="evenodd" d="m4.89 8.17 3.9 6.75-1.79.02-1.04-1.81-1.05 1.8h-.89l-.46-.79 1.49-2.57-1.06-1.84z"/><path fill="#40a0ff" fill-rule="evenodd" d="m6.29 5.39-3.9 6.75-.91-1.54 1.05-1.81H.45L0 8.01l.45-.79h2.97l1.07-1.83zm.3 5.39h7.79l-.88 1.56h-2.09l1.04 1.8-.45.77h-.91l-1.48-2.58H7.48zm4.54-2.95-3.9-6.75 1.79-.02 1.04 1.81 1.05-1.8H12l.46.79-1.49 2.57 1.06 1.84z"/><path fill="#6060ff" fill-rule="evenodd" d="m4.89 8.17 3.9 6.75-1.79.02-1.04-1.81-1.05 1.8h-.89l-.46-.79 1.49-2.57-1.06-1.84zM9.41 5.2h-7.8l.88-1.56h2.09l-1.04-1.8.45-.77h.91l1.48 2.58h2.13l.9 1.56Zm.3 5.41 3.9-6.75.91 1.54-1.05 1.81h2.09l.44.78-.45.79h-2.97l-1.07 1.83z"/></svg>