<svg xmlns="http://www.w3.org/2000/svg" viewBox="0 0 16 16"><path fill="#40ff40" d="M14.4 3.46 8.73.19a1.5 1.5 0 0 0-1.45 0L1.6 3.46c-.45.26-.73.74-.73 1.26v6.54c0 .52.28 1 .73 1.26l1.5.86a2.7 2.7 0 0 0 1.42.38c1.22 0 1.94-.76 1.94-2.03V5.27a.43.43 0 0 0-.43-.43h-.72a.43.43 0 0 0-.43.43v6.46q0 .25-.22.4c-.18.12-.46.1-.75-.05l-1.51-.87V4.76l5.58-3.22 5.58 3.22v6.45l-5.58 3.22-1.41-.84a.4.4 0 0 0-.4-.01c-.38.22-.45.24-.81.37-.07.02-.27.1-.29.31-.02.23.21.36.3.41l1.9 1.12q.33.2.73.19.4 0 .73-.2l5.67-3.28c.45-.26.73-.74.73-1.26V4.7c0-.52-.28-1-.73-1.26Z"/><path fill="#40ff40" d="M9.75 9.97c-1.44 0-1.6-.34-1.68-.9a.4.4 0 0 0-.42-.36h-.73a.43.43 0 0 0-.43.43c0 .88.42 2.35 3.26 2.36 1.93 0 3.09-.82 3.09-2.2 0-1.55-1.27-1.84-2.8-2.04-1.71-.23-1.71-.33-1.71-.51 0-.16 0-.53 1.19-.53s1.38.24 1.51.83c.04.19.22.34.42.34h.74q.18 0 .31-.14a.4.4 0 0 0 .11-.33q-.17-2.24-3.09-2.23c-1.75 0-2.84.8-2.84 2.09 0 1.59 1.42 1.87 2.75 2 1.76.17 1.76.4 1.76.56 0 .22 0 .64-1.44.64Z"/></svg>