<svg xmlns="http://www.w3.org/2000/svg" viewBox="0 0 32 32"><path d="M28.8 7 17.4.3a3 3 0 0 0-2.8 0L3.2 6.9c-.9.6-1.5 1.5-1.5 2.5v13.1c0 1 .6 2 1.5 2.5l3 1.8c1.5.7 2.1.7 2.8.7 2.4 0 3.9-1.5 3.9-4v-13c0-.4-.4-.8-.8-.8h-1.5c-.4 0-.8.4-.8.9v13c0 .2-.1.6-.4.7-.4.3-1 .2-1.6 0l-3-1.8v-13L16 3l11.2 6.5v13L16 29l-2.8-1.7a.8.8 0 0 0-.8 0l-1.6.7c-.2 0-.6.2-.6.6 0 .4.4.7.6.8l3.8 2.2c.4.3.9.4 1.4.4.5 0 1-.1 1.4-.4L28.8 25c.9-.5 1.4-1.4 1.4-2.4V9.4c0-1-.5-2-1.4-2.5Z" fill="#6f6"/><path d="M19.5 20c-3 0-3.2-.7-3.4-1.9 0-.4-.4-.6-.8-.6h-1.5c-.4 0-.8.3-.8.8 0 1.7.9 4.6 6.5 4.6 3.9 0 6.2-1.6 6.2-4.3 0-3-2.5-3.7-5.6-4-3.5-.5-3.5-.8-3.5-1.1 0-.4 0-1.2 2.4-1.2s2.8.5 3.1 1.7c.1.4.4.7.8.7h1.5a.8.8 0 0 0 .8-.9c-.2-3-2.3-4.4-6.1-4.4-3.5 0-5.7 1.6-5.7 4.1 0 3.2 2.8 3.7 5.5 4 3.5.3 3.5.8 3.5 1.2 0 .4 0 1.3-2.9 1.3Z" fill="#6f6"/></svg>