<svg xmlns="http://www.w3.org/2000/svg" viewBox="0 0 16 16"><path fill="#40ff40" d="M15 3H8L6.59 1.59A2 2 0 0 0 5.18 1H2.01A2 2 0 0 0 0 3v10c0 1.1.9 2 2 2h5.58l-.53-.3a1.9 1.9 0 0 1-.95-1.65V8.96c0-.68.37-1.32.96-1.66l.51-.3H5.45a2 2 0 0 0-1.9 1.37L2.01 13V7c0-1.1.9-2 2-2h11c.55 0 1-.45 1-1s-.45-1-1-1Z"/><path fill="#40ff40" d="m15.55 8.16-3.54-2.05a.9.9 0 0 0-.91 0L7.55 8.16a.9.9 0 0 0-.45.79v4.09c0 .32.17.63.45.79l.94.54c.48.24.67.24.89.24.76 0 1.21-.48 1.21-1.27V9.3a.27.27 0 0 0-.27-.27h-.45a.27.27 0 0 0-.27.27v4.04q0 .16-.14.25-.18.1-.47-.03l-.94-.54V8.99l3.49-2.01 3.49 2.01v4.03l-3.49 2.01-.88-.52a.2.2 0 0 0-.25 0c-.24.14-.28.15-.51.23-.04.01-.17.06-.18.19-.01.15.13.23.19.26l1.18.7a1 1 0 0 0 .91 0l3.54-2.05a.9.9 0 0 0 .45-.79V8.96a.9.9 0 0 0-.45-.79Z"/><path fill="#40ff40" d="M12.64 12.23c-.9 0-1-.21-1.05-.56a.26.26 0 0 0-.26-.22h-.46a.27.27 0 0 0-.27.27c0 .55.26 1.47 2.03 1.47 1.21 0 1.93-.51 1.93-1.37 0-.97-.79-1.15-1.75-1.28-1.07-.14-1.07-.21-1.07-.32 0-.1 0-.33.75-.33s.86.15.95.52q.05.2.26.21h.46q.1 0 .2-.09.08-.1.07-.2-.11-1.4-1.93-1.39c-1.1 0-1.78.5-1.78 1.3 0 1 .89 1.17 1.72 1.25 1.1.11 1.1.25 1.1.35 0 .14 0 .4-.9.4Z"/></svg>