<svg xmlns="http://www.w3.org/2000/svg" viewBox="0 0 16 16"><path fill="#40a0ff" d="m15.8 14.3-4.65-1.1c-.55-1.6-1.2-3.4-3.3-3.5-.2-.4-.75-.6-.7-1.15-.5 0-.85.35-1 .8C.99 5.69 10 .99 11.5 6.59c-.75.85-2.4.6-2.5 2.05.65.1 2.75 1.9 3.5.25.75 1.65 2.85-.15 3.5-.25-.15-1.6-2.25-1.15-2.75-2.45a6.8 6.8 0 0 0-8.31-4.6l.15-.05c-4.65.95-6.7 7.1-3.6 10.65l-.05-.1q.45.55 1 1c-1.15-.7-2.85.05-2.35 1.5 1.2-.5 2.6.15 3.75-.6a8 8 0 0 0 3.55.65 8 8 0 0 0 3.5-.85c.05.15 4.75.45 4.9.5Zm-8.61-1.16c-.35-.05-.35-.65.1-.4.5 0 .25.5-.1.4"/></svg>