<svg xmlns="http://www.w3.org/2000/svg" viewBox="0 0 16 16"><path fill="#40ffa0" d="M14 3H8L6.59 1.59A2 2 0 0 0 5.18 1H2.01A2 2 0 0 0 0 3v10c0 1.1.9 2 2 2h.01q.03-.47.28-.89l4.02-6.83c.38-.58 1-.91 1.66-.9.62.01 1.2.33 1.54.86l.77 1.32a1.9 1.9 0 0 1 1.7-.84c.58.01 1.16.33 1.5.86L16 12.92V5a2 2 0 0 0-2-2"/><path fill="#40ffa0" d="m15.88 14.71-3.24-5.58a.9.9 0 0 0-.73-.4.9.9 0 0 0-.81.4l-.81 1.46L8.67 7.8a.9.9 0 0 0-.73-.4c-.31 0-.6.15-.77.4l-4.05 6.88a.8.8 0 0 0 0 .89c.18.27.49.43.81.4h2.99q1.8 0 2.71-1.5l1.46-2.55.81-1.34 2.35 4.05h-3.12l-.81 1.38h4.77a.9.9 0 0 0 .89-.89c0-.12 0-.28-.12-.4Zm-7.45-.94c-.4.65-.85.89-1.58.89l-2.06-.04 3.12-5.38 1.58 2.71z"/></svg>