<svg xmlns="http://www.w3.org/2000/svg" viewBox="0 0 16 16"><path fill="#40ffa0" d="M11 5q.52 0 1.02.1l-.15-.26c-.2-.3-.53-.49-.9-.5-.4-.03-.78.16-1 .5l-.16.28Q10.39 5 10.99 5Zm-5.96 6.63-.29.03-2.54-.05 3.83-6.62.92 1.59Q7.6 6 8.38 5.61L6.98 3.2c-.2-.3-.53-.49-.9-.5-.38 0-.74.18-.95.5L.16 11.66a1 1 0 0 0 0 1.1c.22.33.6.53 1 .5h3.69q.3 0 .58-.03-.3-.75-.39-1.59Z"/><path fill="#ff4040" d="M11 6a5 5 0 1 0 0 10 5 5 0 0 0 0-10m2.5 5.63h-5c-.35 0-.62-.28-.62-.63s.28-.62.62-.62h5c.35 0 .62.28.62.62s-.28.63-.62.63"/></svg>