<svg xmlns="http://www.w3.org/2000/svg" viewBox="0 0 16 16"><path fill="#e0e0e0" d="m7.35 6.99-.15-.05-1.4.2-.1-.25-.5-.75-.05-.05H4.5v.15l.05.1h-1l-.25-.5H2.25l-.05.05v.1l4.52 7.09 1.47-4.64z"/><path fill="#ffff40" d="M15.6 4.14h-3.5q-.29-.01-.35.2l-5.05 8.8 1.3 2 .4.5q.45.52.9 0l.35-.45 6.25-10.6q.3-.45-.3-.45"/><path fill="#e0e0e0" d="m0 5.04.4.7h.7l-.4-.7zm2.5-.55h.15l.3.5.05.05h1v-.15l-.5-.9h-.6l-.1-.1-.1-.05h-.6v.15l.3.5.1.1zm-.15-2.75H3v-.1l-.35-.55-.05-.05h-.5l-.1.05v.1l.35.5zm-.65.1h-.6v.15l.3.5H2v-.1l-.3-.5zM3.35.54l.1.05h.45v-.2L3.7.14 3.65.09h-.4l-.1.05v.1zM2.8 2.69l-.05-.05h-.5l-.1.05v.1l.25.4.1.05H3l.05-.05v-.1zm1.5.05h-.9v.1l.4.65h.55l.3.6H5.8v-.1l-.6-1.05h-.8zm-.8-1.15v.05l.4.65h.8v-.15l-.35-.6h-.8zM1 .69h.5v-.1l-.2-.3H.85v.1zm4.15 4.4v.1l.25.4.1.05h.3l.25.35h1c.05 0 0-.1 0-.1l-.5-.8zM1.6 2.89h-.55v.1l.2.35h.55v-.1z"/></svg>