<svg xmlns="http://www.w3.org/2000/svg" viewBox="0 0 16 16"><path fill="#40a0ff" d="M7.99 9.43 5.96 6.26v2.67l-3.5-5.9H0v9.94h2.43V7.09l3.47 5.62zM5.96 5.58h2.43V3.02H5.96zm6.19 2.76a1.4 1.4 0 0 0-1.31.89 1.3 1.3 0 0 1 1.56-.49c.26.11.61.28.89.19a1.4 1.4 0 0 0-1.14-.59"/><path fill="#40a0ff" d="M14.91 9.54c0-.3-.16-.37-.5-.49-.25-.09-.53-.18-.74-.45l-.12-.18a2 2 0 0 0-.36-.43q-.29-.21-.79-.21c-.67 0-1.27.4-1.53 1.02a1.56 1.56 0 0 1 2.67.26.5.5 0 0 0 .56.22c.33-.07.31.24.8.35z"/><path fill="#40a0ff" d="M15.99 9.47a3.65 3.65 0 0 0-3.58-3.66 3.6 3.6 0 0 0-2.99 1.61V7.4L8.39 5.81H5.96l2.31 3.62-2.25 3.55h2.36l1.03-1.58 1.05 1.58h2.36l-2.14-3.37q-.05-.1-.06-.21.01-.74.53-1.27.53-.52 1.27-.53c.99 0 1.16.59 1.37.87.42.55 1.27.31 1.27 1.03q0 .27.24.4.24.12.47 0a.5.5 0 0 0 .23-.41Zm0 .51a1 1 0 0 1-.07.49c-.13.31-.36.21-.36.21s-.19-.09-.08-.27c.13-.2.39-.18.5-.43Z"/></svg>