<svg xmlns="http://www.w3.org/2000/svg" viewBox="0 0 32 32"><path d="m2.1 31 1.7-1.2s0-.2-.7-.8l-.8-.8L0 31.6c0 .3.1.6.4.5l1.7-1ZM5 29a226.5 226.5 0 0 0 13.6-12.3l-3.3-3.3a217.4 217.4 0 0 0-11 11.8l-1.8 2.6 1.7 1.7.9-.5ZM22.1 17.3l.2-.4v-.4c-.2-.3 0-.5.2-1l2.9-3c3-3 4.7-5 5.6-6 .4-.5.6-.9.6-1.4l-.3-.9c-.1-.2-.1-.4.1-.7.8-1.2.8-2.2.1-3-.6-.6-1.7-.7-2.6-.1a210 210 0 0 0-13.2 12.7l3.3 3.2 3-3a209.7 209.7 0 0 0 8-8c.1-.1.1 0 .1 0 0 .2 0 .3-.4.8a127.2 127.2 0 0 1-8 8.5c-.4.5-.7 1-.7 1.5-.2.7.2 1.4.8 1.4.1 0 .2 0 .3-.2Z" fill="#ffb466"/></svg>