<svg xmlns="http://www.w3.org/2000/svg" viewBox="0 0 16 16"><path fill="#ff4040" d="M11.8 13.66c-.49.11-.95.23-1.5.41l-.08.12-.56.81H14q.54-.01.97-.26a5.3 5.3 0 0 1-3.18-1.08ZM14 3H8L6.59 1.59A2 2 0 0 0 5.18 1H2.01A2 2 0 0 0 0 3v10c0 1.1.9 2 2 2h2.69q0-.14.03-.25c.27-1.27 1.81-2.02 3.06-2.62l.05-.03q.56-1.22 1.04-2.47c-.35-.97-.64-2.5-.24-3.48.29-.7.94-1.14 1.69-1.14h.02c.8 0 1.52.48 1.85 1.22.54 1.11.18 2.55-.08 3.61q.22.36.64.9c.84-.11 2.33-.2 3.26.34V5.01a2 2 0 0 0-2-2Z"/><path fill="#ff4040" d="M15.68 12.07c-.45-.52-2.13-.52-3.35-.26a11 11 0 0 1-1.29-1.84c.23-.97.68-2.42.23-3.35-.32-.74-1.39-.87-1.71-.1-.29.71 0 2.22.39 3.09a46 46 0 0 1-1.35 3.22c-1.29.64-3.71 1.64-2.64 2.9 1.61 1 2.77-1.13 3.71-2.51.93-.32 1.61-.48 2.42-.64.87.87 2.68 1.45 3.48.97.58-.29.58-1.1.1-1.48h.03Zm-1.51.8c-.35-.13-.87-.32-1.1-.48 2.06-.35 2.19.77 1.1.48m-3.74-5.25c0 .23-.1.52-.13.77-.45-1.26.26-2.58.13-.77m-.33 4.7c.16-.39.48-1.13.58-1.51q.4.59.87 1.13l-1.45.39Zm-3.7 2.87c-.06-.32.42-.64 1.42-1.22-.48.64-.97 1.35-1.42 1.19z"/></svg>