<svg xmlns="http://www.w3.org/2000/svg" viewBox="0 0 16 16"><path fill="#ff4040" d="M15.51 9.65c-.7-.8-3.3-.8-5.2-.4-.7-.85-1.6-2-2-2.85.35-1.5 1.05-3.75.35-5.2-.5-1.15-2.15-1.35-2.65-.15-.45 1.1 0 3.45.6 4.8a64 64 0 0 1-2.1 5c-2 1-5.75 2.55-4.1 4.5 2.5 1.55 4.3-1.75 5.75-3.9 1.45-.5 2.5-.75 3.75-1 1.35 1.35 4.15 2.25 5.4 1.5.9-.45.9-1.7.15-2.3zm-2.35 1.25c-.55-.2-1.35-.5-1.7-.75 3.2-.55 3.4 1.2 1.7.75m-5.8-8.14c0 .35-.15.8-.2 1.2-.7-1.95.4-4 .2-1.2m-.5 7.29c.25-.6.75-1.75.9-2.35q.63.91 1.35 1.75zM1.11 14.5c-.1-.5.65-1 2.2-1.9-.75 1-1.5 2.1-2.2 1.85z"/></svg>