<svg xmlns="http://www.w3.org/2000/svg" viewBox="0 0 32 32"><path d="M31 19.3c-1.4-1.6-6.6-1.6-10.4-.8-1.4-1.7-3.2-4-4-5.7.7-3 2.1-7.5.7-10.4C16.3.1 13-.3 12 2.1c-.9 2.2 0 6.9 1.2 9.6a127 127 0 0 1-4.2 10c-4 2-11.5 5.1-8.2 9 5 3.1 8.6-3.5 11.5-7.8 2.9-1 5-1.5 7.5-2 2.7 2.7 8.3 4.5 10.8 3 1.8-.9 1.8-3.4.3-4.6Zm-4.7 2.5c-1.1-.4-2.7-1-3.4-1.5 6.4-1.1 6.8 2.4 3.4 1.5ZM14.7 5.5c0 .7-.3 1.6-.4 2.4-1.4-3.9.8-8 .4-2.4Zm-1 14.6c.5-1.2 1.5-3.5 1.8-4.7a39 39 0 0 0 2.7 3.5l-4.5 1.2ZM2.2 29C2 28 3.5 27 6.6 25.2c-1.5 2-3 4.2-4.4 3.7Z" fill="#f66"/></svg>