<svg xmlns="http://www.w3.org/2000/svg" viewBox="0 0 16 16"><path fill="#a040ff" d="M6.05 12.5c-.25.9-1 2.6-1.65 1 .35-.45 1-1 1.7-1zm5.29-1.65c-.4 1 .15 4.7-1.5 2.75.15-.9.75-2 1.5-2.75"/><path fill="#a040ff" d="M15.84 4.5c-.25-.8-.75-.35-1.4-.3a23 23 0 0 0-3.4-2.2l.3 1.15s-1.2-1-2.5-1.55c0 .05.4.85.4 1 0 0-1.25-.4-3-.55 0 0 .85.55 1.15 1h-3s1 .45 1.5.8c-.3 0-2.75.35-3.45.6 0 0 1.4.5 1.75.85 0 0-1.75.5-3.5 1.5 0 0 1 .2 1.75.5.01 0-.99.75-2.44 2.6.05 0 1.4-.2 1.8-.15 0 0-.9 1.1-1.4 2.75 0 0 .5-.3 1.05-.45 0 0 .05 2 1.15 2.3 1.45 0 1.75-2.6 3.6-2.2 1.25.05 1.35 1.9 2.4 2.25.5 0 .65-.55.85-1.25.5-4.2 7.89-4 6.34-8.64zm-6.1.2-.95.3-2.1-.55 3 .2zm-2.3.8-.7.5-2-.2zM3.75 9.65l-1.3 1.15L3.8 8.75zM2.5 8.5l2.45-1.75-.45.9zM7.19 8l-2.65.6 3.1-1.5-.5.9zm2.5-1.35-2-.1 2.75-.3-.7.4zm1.15-1.2-1.55.1 2-.45zm-.25-1.3-1.75-.8 2.55.65z"/></svg>