<svg xmlns="http://www.w3.org/2000/svg" viewBox="0 0 16 16"><path fill="#ffa040" d="M14 3H8L6.59 1.59A2 2 0 0 0 5.18 1H2.01A2 2 0 0 0 0 3v10c0 1.1.9 2 2 2h5.96q.17-.2.52-.36.08-.12.19-.22l.1-.4-.07-1.53-1.19-.72-.88-1.14-.45-1.54.02-1.11-.11-.15-.1-.19a1.1 1.1 0 0 1 .05-1.13q.1-.24.26-.41c.35-.48.97-.53 1.3-.54q.23-.22.54-.3.15-.09.32-.13l.85.14.86.65q.15.18.24.39l.05.12.09-.12c.18-.25.39-.54.68-.74.98-.61 2.07-.72 2.9-.32a2.2 2.2 0 0 1 1.19 1.71q.31.69.68 1.36V5a2 2 0 0 0-2-2"/><path fill="#ffa040" d="M16 10.91c-.09-.09-.31-.63-.09-.59-.5-1.03-1.09-2-1.56-3.1-.13-1.41-1.53-1.47-2.53-.84-.31.22-.59.81-.94 1.06-.69.31-1.31 1.03-1.28 1.88-.41.03-.19-.53-.13-.75l.06.09s.16-.34.06-.56l.09.03c.03-.34.16-.84-.19-1.09.22-.31-.31-.78-.59-.81l.03-.06s-.09 0-.16.06a.2.2 0 0 1-.06-.13s-.13.03-.13.13a.33.33 0 0 0-.38.19l.03.03c-.19.25-1.03-.03-1.16.31 0 0-.09.03-.13.19 0 0-.19.25-.03.22 0 0-.06.19.16.22.06.13.59.03.69.25-.06.19-.19.34-.31.47h.09q-.23.2-.31.5s.09-.09.16-.09c-.17.52-.14 1.09.09 1.6l.06-.09q0 .27.16.5s0-.13.06-.16c.19.53.94.81 1.25 1.16 0 0 .16-.16.16-.25v.19c1-.63.22.5.53 1.25-.13.19 0 .44.03.56-.09.31.09.75-.03 1.09q-.05.34-.22.66c-.06.09-.31.22-.25.44-1.5.31.34.84.5.34 0-.13-.09-.16 0-.22.22-.13.09-.81.31-1.06-.06-.5.44-.88.22-1.38h.09c-.13-.53.31-1.03.31-1.56h.59q-.31.67-.34 1.38c-.34.63.84.94.97 1.56-.06.03-.13.16-.09.25 0 0-.19.06-.16.19-1.5.38.94.84.5 0q.08.02.13-.06c-.03-.03.25.78.44.5.31.13.34-.84-.13-.88q.01-.1-.06-.16c-.09-.03.78-1.16.88-1.25a3 3 0 0 1 .59-2.25 4 4 0 0 0 .53 1.88q-.02.14.06.28c-.19.53.06 1.13-.09 1.69 0 .09-.31.44-.19.69-.28.09-.34.72.09.44.25.25.88-.03.47-.34.22-.25-.06-.41-.06-.75-.09-.44.47-1.41.19-1.69.13-1-.25-1.69.28-3 .63 1.13-.41 1.5-.06 2.38l.25-.28c.03-.31.38-.53.31-.88l.06.06v-.41h.16Zm-3.38 2.51-.41.72c-.34-.16-.47-.5-.69-.78l.16-.38s.06 0 .09.13c.22-.25.31-.53.38-.84l.09.09c0-.38.31-.63.31-1h.13c-.16.56.19 1.69-.06 2.06"/></svg>