<svg xmlns="http://www.w3.org/2000/svg" viewBox="0 0 16 16"><path fill="#40a0ff" d="M5.79 2.34c-1.4-.55-3.49-.25-5.04-.25H.1c-.1 0-.1.05-.1.1v11.33c0 .15.05.15.15.15H2.3c.1 0 .1-.1.1-.2V9.98c1.9.15 4.14 0 5.29-1.65 1.35-2 .6-5.24-1.9-5.99m-.2 4.89a2 2 0 0 1-.9.55c-.7.25-1.5.2-2.3.2V4.24h1.25c.45 0 .85.05 1.3.25q.45.15.75.6c.2.3.25.65.25 1 0 .5-.1.85-.35 1.15Zm9.68 0a4.6 4.6 0 0 0-2.99-.4c-.15 0-.25.1-.35.2a.5.5 0 0 0 0 .6c.35.3.8.5 1.2.65 1 .35 2.05.8 2.6 1.75a2.6 2.6 0 0 1-.15 2.6q-.51.69-1.25 1a6.4 6.4 0 0 1-4.64-.15c-.1-.05-.15-.15-.15-.2v-2s.1-.1.15 0c.45.2.9.4 1.4.5.6.15 1.65.25 2.2 0 .2-.05.3-.25.3-.5-.1-.5-.6-.6-1.35-.9a9 9 0 0 1-1.55-.8q-.54-.4-.85-1c-.43-.72-.26-1.71.1-2.45.3-.4.7-.8 1.2-1a6 6 0 0 1 4.24 0l.15.05v2l-.05.05z"/></svg>