<svg xmlns="http://www.w3.org/2000/svg" viewBox="0 0 32 32"><path d="M3.3 20.6c.2-1 1.1-1.8 2.2-1.8H10c1.2 0 2.1.3 2.9.6l.3-1.6c.2-1 1.1-1.8 2.2-1.8h2.3a2.2 2.2 0 0 1 2.2 2.6v.2c.9.1 1.7.3 2.3.6.4-.4 1-.6 1.5-.6h4.5c1.8 0 3 .5 3.8 1.1V9.6c0-1.8-1.4-3.2-3.2-3.2H16l-3.2-3.2H3.2A3.2 3.2 0 0 0 0 6.4v19.2c0 1.2.7 2.3 1.8 2.8l1.5-7.8Z" fill="#66f"/><path d="M8 27c1 0 1.6-.1 2-.5.4-.3.7-.8.8-1.6.2-.7.1-1.2-.1-1.5-.3-.3-.8-.4-1.6-.4H7.7l-.8 4H8Zm-4.6 5h-.2v-.3l2-10.7.3-.1H10c1.4 0 2.4.3 3 1 .7.9 1 2 .7 3.2l-.5 1.5a5 5 0 0 1-2.7 2.3c-.6.2-1.3.3-2.2.3H6.5L6 31.8l-.3.2H3.4ZM19 29.1H19s-.1-.2 0-.2l.8-4.7v-1c-.1 0-.3-.2-1-.2H17l-1.2 6s0 .2-.2.2h-2.3l-.2-.1v-.2l2-10.7.3-.2h2.5v.3l-.5 2.6h1.8c1.4 0 2.3.2 2.8.7.6.5.8 1.3.5 2.4l-1 5-.1.2H19ZM26.2 27c1 0 1.6-.1 2-.5.4-.3.7-.8.8-1.6.2-.7.1-1.2-.1-1.5-.3-.3-.8-.4-1.6-.4h-1.4l-.8 4h1.1Zm-4.6 5h-.2v-.3l2-10.7.3-.1h4.5c1.4 0 2.4.3 3 1 .8.9 1 2 .7 3.2l-.5 1.5a5 5 0 0 1-2.7 2.3c-.5.2-1.3.3-2.2.3h-1.8l-.5 2.6c0 .1-.1.2-.3.2h-2.3Z" fill="#66f"/></svg>