<svg xmlns="http://www.w3.org/2000/svg" viewBox="0 0 16 16"><path fill="#6060ff" d="M14 7H5.44a2 2 0 0 0-1.9 1.37L2 13V7c0-1.1.9-2 2-2h11c.55 0 1-.45 1-1s-.45-1-1-1H8L6.59 1.59A2 2 0 0 0 5.18 1H2.01A2 2 0 0 0 0 3v10c0 1.1.9 2 2 2h.15l.8-4.14c.1-.51.55-.89 1.08-.89h2.02q.77.01 1.25.24l.12-.63c.1-.52.56-.89 1.08-.89h1.52l.38.41c.2.24.29.57.23.89q.55.04.95.21.29-.22.66-.23h2.02c.8 0 1.35.22 1.73.49V9a2 2 0 0 0-2-2Z"/><path fill="#6060ff" d="M5.19 13.76q.6 0 .89-.22.29-.21.38-.74.1-.49-.07-.67-.17-.2-.73-.19h-.64l-.35 1.82zM3.1 16s-.06-.01-.08-.04L3 15.88l.94-4.83s.05-.08.1-.08h2.02q.96 0 1.41.51.45.52.27 1.42-.07.36-.24.68-.17.3-.45.56-.33.31-.74.44t-1.01.13h-.82l-.23 1.2s-.05.08-.1.08zm7.05-1.28s-.06-.01-.08-.04l-.02-.08.42-2.14q.06-.31-.03-.41c-.03-.04-.14-.1-.45-.1h-.75l-.52 2.69s-.05.08-.1.08H7.58s-.06-.01-.08-.04l-.02-.08.94-4.83s.05-.08.1-.08h1.04s.06.01.08.04q.03.03.02.08l-.23 1.17h.81q.92 0 1.28.33.38.35.23 1.08l-.44 2.25s-.05.08-.1.08zm3.25-.96q.6 0 .89-.22.29-.21.38-.74.1-.49-.07-.67-.17-.2-.73-.19h-.64l-.35 1.82zM11.31 16s-.06-.01-.08-.04l-.02-.08.94-4.83s.05-.08.1-.08h2.02q.96 0 1.41.51.45.52.27 1.42-.08.36-.24.68-.17.3-.45.56-.33.31-.74.44t-1.01.13h-.82l-.23 1.2s-.05.08-.1.08z"/></svg>