<svg xmlns="http://www.w3.org/2000/svg" viewBox="0 0 16 16"><path fill="#6060ff" d="M2.69 9.12q.74 0 1.09-.27t.47-.91q.12-.6-.09-.83t-.89-.23h-.79l-.44 2.24zM.12 11.88s-.07-.02-.09-.04l-.03-.1L1.16 5.8q.02-.1.12-.1h2.49q1.17 0 1.73.63.55.63.34 1.75a3 3 0 0 1-.85 1.52q-.41.38-.91.54t-1.25.16H1.82l-.29 1.48a.1.1 0 0 1-.12.1zM8.8 10.3s-.07-.02-.09-.04l-.03-.1.51-2.63q.07-.38-.03-.51c-.04-.05-.17-.12-.55-.12h-.93l-.64 3.31a.1.1 0 0 1-.12.1H5.64s-.07-.02-.09-.04l-.03-.1 1.16-5.94q.02-.1.12-.1h1.28s.07.02.09.04l.03.1-.28 1.43h1q1.13 0 1.57.41.46.43.28 1.33l-.54 2.77a.1.1 0 0 1-.12.1h-1.3Zm4-1.18q.74 0 1.09-.27t.47-.91q.12-.6-.09-.83t-.89-.23h-.79l-.44 2.24zm-2.57 2.76s-.07-.02-.09-.04l-.03-.1 1.16-5.94q.02-.1.12-.1h2.49q1.17 0 1.73.63.55.63.34 1.75a3 3 0 0 1-.85 1.52q-.41.38-.91.54t-1.25.16h-1.01l-.29 1.48a.1.1 0 0 1-.12.1z"/></svg>