<svg xmlns="http://www.w3.org/2000/svg" viewBox="0 0 16 16"><path fill="#40ff40" fill-rule="evenodd" d="M2.45 10.76.08 14.24c-.2.3 0 .71.35.71h15.13c.35 0 .55-.4.35-.71l-2.82-4.04-1.31.81a1.34 1.34 0 0 1-2.68 0v-.15L6.98 9.35c-.25.15-.5.25-.86.25s-.71-.15-.96-.4l-2.72 1.56Z"/><path fill="#40ff40" fill-rule="evenodd" d="M7.65 1.22 2.5 8.48c-.15.2-.1.5.1.61l.5.3 1.77-1.01v-.1a1.32 1.32 0 0 1 2.63.25l2.07 1.51q.36-.39.96-.4c.6-.01.81.2 1.01.5l1.92-1.11c.15-.15.2-.4.05-.55L8.35 1.22a.45.45 0 0 0-.64-.07l-.07.07Z"/></svg>