<svg xmlns="http://www.w3.org/2000/svg" viewBox="0 0 16 16"><path fill="#ff40ff" d="M14 3H8L6.59 1.59A2 2 0 0 0 5.18 1H2.01A2 2 0 0 0 0 3v10c0 1.1.9 2 2 2h.07A7.5 7.5 0 0 1 16 12.27V5a2 2 0 0 0-2-2"/><path fill="#ff40ff" d="M9.5 9.5A6.5 6.5 0 0 0 3 16h1.3a5.2 5.2 0 0 1 10.4 0H16a6.5 6.5 0 0 0-6.5-6.5"/><path fill="#ff40ff" d="M9.5 11.45a4.5 4.5 0 0 0-4.55 4.45v.1h1.3a3.26 3.26 0 0 1 6.5 0h1.3c0-2.5-2-4.55-4.55-4.55"/><path fill="#ff40ff" d="M9.5 13.4A2.6 2.6 0 0 0 6.9 16s1.3 0 1.3 0a1.3 1.3 0 1 1 2.6 0h1.3c0-1.45-1.15-2.6-2.6-2.6"/></svg>