<svg xmlns="http://www.w3.org/2000/svg" viewBox="0 0 16 16"><path fill="#a0a0a0" d="M14.75 9.75V8.5a2.5 2.5 0 0 0-5 0v1.25c-.69 0-1.25.56-1.25 1.25v3.75c0 .69.56 1.25 1.25 1.25h5c.69 0 1.25-.56 1.25-1.25V11c0-.69-.56-1.25-1.25-1.25m-2.5 4.06a.94.94 0 1 1 0-1.88.94.94 0 0 1 0 1.88m1.25-4.06H11V8.5a1.25 1.25 0 0 1 2.5 0z"/><path fill="#ff40ff" d="M9.93 5.9a3.5 3.5 0 0 1 1.99-.87A8 8 0 0 0 0 12h1.6a6.4 6.4 0 0 1 8.33-6.1"/><path fill="#ff40ff" d="M8.75 8.98v-.09A3.2 3.2 0 0 0 4.8 12h1.6c0-.74.5-1.35 1.18-1.54.16-.65.59-1.19 1.17-1.48"/><path fill="#ff40ff" d="M8.79 8.08q.1-.83.55-1.52Q8.7 6.41 8 6.4a5.54 5.54 0 0 0-5.6 5.48V12H4a4 4 0 0 1 4.79-3.92"/></svg>