<svg xmlns="http://www.w3.org/2000/svg" viewBox="0 0 16 16"><path fill="#ff4040" d="m6.39 14.81-.58-1a6 6 0 0 1-2.76-2.02h2.32q.19-.5.63-.8-.54-.35-.7-.96a1.6 1.6 0 0 1 .16-1.23l.94-1.62c.3-.51.83-.8 1.39-.8q.25-.08.52-.09.14 0 .29.03c.14-.75.8-1.33 1.59-1.33h1.47v-.3h-.5l-2-2.85a6.2 6.2 0 0 1 4.9 4.58q.4-.1.81 0 .37.1.65.35A7.6 7.6 0 0 0 10.59.81a7.63 7.63 0 0 0-9.74 9.74L0 11.8h1.4a7.6 7.6 0 0 0 6.24 3.82c-.5-.05-.97-.33-1.25-.8ZM9.4 4.75H6.5L8 2.7zM1.8 8c0-3 2.15-5.6 5.05-6.1l-5 7.2zm.85 2.4L4.8 7.3v3.1zm5.91 5.04q-.4.2-.83.18.43.01.85-.02z"/><path fill="#a0a0a0" d="m15.69 11.83-.9-.52c-.3-.17-.3-.45 0-.62l.9-.52c.3-.17.4-.56.23-.85l-.94-1.62a.6.6 0 0 0-.85-.23l-.9.52c-.3.17-.54.03-.54-.31V6.64a.6.6 0 0 0-.62-.62H10.2a.6.6 0 0 0-.62.62v1.04c0 .34-.24.48-.54.31l-.9-.52a.6.6 0 0 0-.85.23l-.94 1.62c-.17.3-.07.68.23.85l.9.52c.3.17.3.45 0 .62l-.9.52c-.3.17-.4.56-.23.85l.94 1.62c.17.3.56.4.85.23l.9-.52c.3-.17.54-.03.54.31v1.04c0 .34.28.62.63.62h1.88c.34 0 .62-.28.62-.62v-1.04c0-.34.24-.48.54-.31l.9.52c.3.17.68.07.85-.23l.94-1.62a.6.6 0 0 0-.23-.85Zm-3.79.52c-.75.43-1.7.18-2.13-.57s-.18-1.7.57-2.13 1.7-.18 2.13.57.18 1.7-.57 2.13"/></svg>