<svg xmlns="http://www.w3.org/2000/svg" viewBox="0 0 32 32"><path d="M3 30.5h7.7c.4 0 .7.3.7.7 0 .5-.3.8-.7.8H3a.8.8 0 1 1 0-1.5Z" fill="#f66" fill-rule="evenodd"/><path d="M9.1 27.4h1.6c.4 0 .7.4.7.8s-.3.8-.7.8H9a.8.8 0 1 1 0-1.5Z" fill="#ff6" fill-rule="evenodd"/><path d="M3 27.4h3.1c.4 0 .8.4.8.8s-.4.8-.8.8h-3a.8.8 0 1 1 0-1.5Z" fill="#66ffb4" fill-rule="evenodd"/><path d="M3 24.4h7.7c.4 0 .7.3.7.7 0 .5-.3.8-.7.8H3a.8.8 0 1 1 0-1.5ZM3 21.3h1.6c.4 0 .7.4.7.8s-.3.7-.7.7H3a.8.8 0 1 1 0-1.5ZM21.3 18.3H26c.4 0 .8.3.8.7 0 .5-.4.8-.8.8h-4.6a.8.8 0 1 1 0-1.5Z" fill="#b466ff" fill-rule="evenodd"/><path d="M3 18.3h6.1c.5 0 .8.3.8.7 0 .5-.3.8-.8.8h-6a.8.8 0 1 1 0-1.5Z" fill="#66ffb4" fill-rule="evenodd"/><path d="M7.6 15.2h4.6c.4 0 .8.4.8.8s-.4.8-.8.8H7.6a.8.8 0 1 1 0-1.5Z" fill="#ff6" fill-rule="evenodd"/><path d="M3 15.2h1.6c.4 0 .7.4.7.8s-.3.8-.7.8H3a.8.8 0 1 1 0-1.5Z" fill="#f66" fill-rule="evenodd"/><path d="M3 12.2h7.7c.4 0 .7.3.7.8 0 .4-.3.7-.7.7H3a.8.8 0 1 1 0-1.5Z" fill="#b466ff" fill-rule="evenodd"/><path d="M21.3 9.1H29c.5 0 .8.4.8.8s-.3.8-.7.8h-7.7a.8.8 0 1 1 0-1.5Z" fill="#f66" fill-rule="evenodd"/><path d="M9.1 9.1h1.6c.4 0 .7.4.7.8s-.3.8-.7.8H9a.8.8 0 1 1 0-1.5Z" fill="#66ffb4" fill-rule="evenodd"/><path d="M3 9.1h3.1c.4 0 .8.4.8.8s-.4.8-.8.8h-3a.8.8 0 1 1 0-1.5Z" fill="#ff6" fill-rule="evenodd"/><path d="M25.9 6.1h1.5c.4 0 .8.3.8.8 0 .4-.4.7-.8.7H26a.8.8 0 1 1 0-1.5Z" fill="#66ffb4" fill-rule="evenodd"/><path d="M16.8 6.1h6c.5 0 .8.3.8.8 0 .4-.3.7-.7.7h-6.1a.8.8 0 1 1 0-1.5Z" fill="#b466ff" fill-rule="evenodd"/><path d="M3 6.1h10.7c.4 0 .8.3.8.8 0 .4-.4.7-.8.7H3.1a.8.8 0 1 1 0-1.5Z" fill="#66ffb4" fill-rule="evenodd"/><path d="M10.7 3h15.2c.4 0 .8.4.8.8s-.4.8-.8.8H10.7a.8.8 0 1 1 0-1.5Z" fill="#ff6" fill-rule="evenodd"/><path d="M3 3h4.6c.4 0 .8.4.8.8s-.4.8-.8.8H3.1A.8.8 0 1 1 3 3Z" fill="#f66" fill-rule="evenodd"/><path d="M3 0h18.3c.5 0 .8.3.8.8 0 .4-.3.7-.8.7H3A.8.8 0 1 1 3 0ZM15.2 15.2c-.4 0-.7.4-.7.8l.7-.7Z" fill="#66ffb4" fill-rule="evenodd"/><path d="M12.1 21.3H7.6a.8.8 0 1 0 0 1.6H12l.1-1.6Z" fill="#ff6" fill-rule="evenodd"/><path d="m12.5 19.8.6-1.5h-1a.8.8 0 1 0 0 1.5h.4Z" fill="#f66" fill-rule="evenodd"/><path d="M28.9 13.7a.8.8 0 1 0 0-1.5h-4c1.5.2 2.8.8 4 1.5Z" fill="#ff6" fill-rule="evenodd"/><path d="M23 14a9 9 0 1 0 0 18 9 9 0 0 0 0-18Zm4.5 10.8h-9v-3.6h9v3.6Z" fill="#f66"/></svg>