<svg xmlns="http://www.w3.org/2000/svg" viewBox="0 0 16 16"><path fill="#ff4040" d="M11 6a5 5 0 1 0 0 10 5 5 0 0 0 0-10m2.5 5.63h-5c-.35 0-.62-.28-.62-.63s.28-.62.62-.62h5c.35 0 .62.28.62.62s-.28.63-.62.63"/><path fill="#ff4040" fill-rule="evenodd" d="M1.52 15.24h3.81a.38.38 0 1 1 0 .76H1.52a.38.38 0 1 1 0-.76"/><path fill="#ffff40" fill-rule="evenodd" d="M4.57 13.71h.76a.38.38 0 1 1 0 .76h-.76a.38.38 0 1 1 0-.76"/><path fill="#40ffa0" fill-rule="evenodd" d="M1.52 13.71h1.52a.38.38 0 1 1 0 .76H1.52a.38.38 0 1 1 0-.76"/><path fill="#a040ff" fill-rule="evenodd" d="M1.52 12.19h3.81a.38.38 0 1 1 0 .76H1.52a.38.38 0 1 1 0-.76m0-1.52h.76a.38.38 0 1 1 0 .76h-.76a.38.38 0 1 1 0-.76"/><path fill="#40ffa0" fill-rule="evenodd" d="M1.52 9.14h3.05a.38.38 0 1 1 0 .76H1.52a.38.38 0 1 1 0-.76"/><path fill="#ff4040" fill-rule="evenodd" d="M1.52 7.62h.76a.38.38 0 1 1 0 .76h-.76a.38.38 0 1 1 0-.76"/><path fill="#a040ff" fill-rule="evenodd" d="M1.52 6.1h3.81a.38.38 0 1 1 0 .76H1.52a.38.38 0 1 1 0-.76"/><path fill="#40ffa0" fill-rule="evenodd" d="M4.57 4.57h.76a.38.38 0 1 1 0 .76h-.76a.38.38 0 1 1 0-.76"/><path fill="#ffff40" fill-rule="evenodd" d="M1.52 4.57h1.52a.38.38 0 1 1 0 .76H1.52a.38.38 0 1 1 0-.76"/><path fill="#40ffa0" fill-rule="evenodd" d="M12.95 3.05h.76a.38.38 0 1 1 0 .76h-.76a.38.38 0 1 1 0-.76"/><path fill="#a040ff" fill-rule="evenodd" d="M8.38 3.05h3.05a.38.38 0 1 1 0 .76H8.38a.38.38 0 1 1 0-.76"/><path fill="#40ffa0" fill-rule="evenodd" d="M1.52 3.05h5.33a.38.38 0 1 1 0 .76H1.52a.38.38 0 1 1 0-.76"/><path fill="#ffff40" fill-rule="evenodd" d="M5.33 1.52h7.62a.38.38 0 1 1 0 .76H5.33a.38.38 0 1 1 0-.76"/><path fill="#ff4040" fill-rule="evenodd" d="M1.52 1.52h2.29a.38.38 0 1 1 0 .76H1.52a.38.38 0 1 1 0-.76"/><path fill="#40ffa0" fill-rule="evenodd" d="M1.52 0h9.14a.38.38 0 1 1 0 .76H1.52a.38.38 0 1 1 0-.76"/><path fill="#ff4040" fill-rule="evenodd" d="M11 5q1.02 0 1.94.33h1.54a.38.38 0 1 0 0-.76h-3.81a.4.4 0 0 0-.38.38l.02.09q.34-.04.7-.04Z"/><path fill="#ffff40" fill-rule="evenodd" d="m5 11 .02-.33H3.81a.38.38 0 1 0 0 .76h1.22zm1.05-3.38H3.81a.38.38 0 1 0 0 .76h1.8q.19-.4.44-.76"/></svg>