<svg xmlns="http://www.w3.org/2000/svg" viewBox="0 0 16 16"><path fill="#ff4040" fill-rule="evenodd" d="M1.52 15.24h3.81a.38.38 0 1 1 0 .76H1.52a.38.38 0 1 1 0-.76"/><path fill="#ffff40" fill-rule="evenodd" d="M4.57 13.71h.76a.38.38 0 1 1 0 .76h-.76a.38.38 0 1 1 0-.76"/><path fill="#40ffa0" fill-rule="evenodd" d="M1.52 13.71h1.52a.38.38 0 1 1 0 .76H1.52a.38.38 0 1 1 0-.76"/><path fill="#a040ff" fill-rule="evenodd" d="M1.52 12.19h3.81a.38.38 0 1 1 0 .76H1.52a.38.38 0 1 1 0-.76"/><path fill="#ffff40" fill-rule="evenodd" d="M3.81 10.67h6.86a.38.38 0 1 1 0 .76H3.81a.38.38 0 1 1 0-.76"/><path fill="#a040ff" fill-rule="evenodd" d="M1.52 10.67h.76a.38.38 0 1 1 0 .76h-.76a.38.38 0 1 1 0-.76m9.15-1.53h2.29a.38.38 0 1 1 0 .76h-2.29a.38.38 0 1 1 0-.76"/><path fill="#ff4040" fill-rule="evenodd" d="M6.1 9.14h3.05a.38.38 0 1 1 0 .76H6.1a.38.38 0 1 1 0-.76"/><path fill="#40ffa0" fill-rule="evenodd" d="M1.52 9.14h3.05a.38.38 0 1 1 0 .76H1.52a.38.38 0 1 1 0-.76m6.1-1.52h6.1a.38.38 0 1 1 0 .76h-6.1a.38.38 0 1 1 0-.76"/><path fill="#ffff40" fill-rule="evenodd" d="M3.81 7.62H6.1a.38.38 0 1 1 0 .76H3.81a.38.38 0 1 1 0-.76"/><path fill="#ff4040" fill-rule="evenodd" d="M1.52 7.62h.76a.38.38 0 1 1 0 .76h-.76a.38.38 0 1 1 0-.76"/><path fill="#ffff40" fill-rule="evenodd" d="M10.67 6.1h3.81a.38.38 0 1 1 0 .76h-3.81a.38.38 0 1 1 0-.76"/><path fill="#a040ff" fill-rule="evenodd" d="M1.52 6.1h3.81a.38.38 0 1 1 0 .76H1.52a.38.38 0 1 1 0-.76"/><path fill="#ff4040" fill-rule="evenodd" d="M10.67 4.57h3.81a.38.38 0 1 1 0 .76h-3.81a.38.38 0 1 1 0-.76"/><path fill="#40ffa0" fill-rule="evenodd" d="M4.57 4.57h.76a.38.38 0 1 1 0 .76h-.76a.38.38 0 1 1 0-.76"/><path fill="#ffff40" fill-rule="evenodd" d="M1.52 4.57h1.52a.38.38 0 1 1 0 .76H1.52a.38.38 0 1 1 0-.76"/><path fill="#40ffa0" fill-rule="evenodd" d="M12.95 3.05h.76a.38.38 0 1 1 0 .76h-.76a.38.38 0 1 1 0-.76"/><path fill="#a040ff" fill-rule="evenodd" d="M8.38 3.05h3.05a.38.38 0 1 1 0 .76H8.38a.38.38 0 1 1 0-.76"/><path fill="#40ffa0" fill-rule="evenodd" d="M1.52 3.05h5.33a.38.38 0 1 1 0 .76H1.52a.38.38 0 1 1 0-.76"/><path fill="#ffff40" fill-rule="evenodd" d="M5.33 1.52h7.62a.38.38 0 1 1 0 .76H5.33a.38.38 0 1 1 0-.76"/><path fill="#ff4040" fill-rule="evenodd" d="M1.52 1.52h2.29a.38.38 0 1 1 0 .76H1.52a.38.38 0 1 1 0-.76"/><path fill="#40ffa0" fill-rule="evenodd" d="M1.52 0h9.14a.38.38 0 1 1 0 .76H1.52a.38.38 0 1 1 0-.76"/></svg>