<svg xmlns="http://www.w3.org/2000/svg" viewBox="0 0 16 16"><path fill="#6060ff" d="M14 3H8L6.59 1.59A2 2 0 0 0 5.18 1H2.01A2 2 0 0 0 0 3v10c0 1.1.9 2 2 2h5.88l-.97-1.5a1.9 1.9 0 0 1-.02-1.96l3.51-5.68c.3-.5.83-.81 1.4-.86v-.06l.04.06h.22a1.8 1.8 0 0 1 1.52 1.03l2.41 5.12V4.99a2 2 0 0 0-2-2Z"/><path fill="#6060ff" d="m15.92 13.34-3.24-6.87a.8.8 0 0 0-.69-.46.8.8 0 0 0-.74.38l-3.51 5.68a.8.8 0 0 0 0 .89l1.72 2.66a.9.9 0 0 0 .95.35l4.98-1.47a.8.8 0 0 0 .53-.46c.1-.22.1-.48 0-.7m-5.11 1.33 1.38-6.6 2.56 5.43z"/></svg>