<svg xmlns="http://www.w3.org/2000/svg" viewBox="0 0 16 16"><path fill="#6060ff" d="M14.04 7 16 11.16V9a2 2 0 0 0-1.96-2"/><path fill="#6060ff" d="M15 3H8L6.59 1.59A2 2 0 0 0 5.18 1H2.01A2 2 0 0 0 0 3v10c0 1.1.9 2 2 2h5.88l-.97-1.5a1.9 1.9 0 0 1-.02-1.96L9.69 7H5.43a2 2 0 0 0-1.9 1.37L1.99 13V7c0-1.1.9-2 2-2h11c.55 0 1-.45 1-1s-.45-1-1-1Z"/><path fill="#6060ff" d="m15.92 13.34-3.24-6.87a.8.8 0 0 0-.69-.46.8.8 0 0 0-.74.38l-3.51 5.68a.8.8 0 0 0 0 .89l1.72 2.66a.9.9 0 0 0 .95.35l4.98-1.47a.8.8 0 0 0 .53-.46c.1-.22.1-.48 0-.7m-5.11 1.33 1.38-6.6 2.56 5.43z"/></svg>