<svg xmlns="http://www.w3.org/2000/svg" viewBox="0 0 16 16"><path fill="#ff4040" d="M13.14 2.92h.05c-.2-.65-.5-2 .5-2.84-1.1-.2-2.25.25-2.89 1.15a6.8 6.8 0 0 0-5.49 0A2.75 2.75 0 0 0 2.36.08c1 .8.7 2.25.5 2.89-1.3 1.5-2 3.29-2 5.24 0 1.6 1 3.44 1.25 5.89l1.3-1.15c1.4.8 2.99 1.15 4.59 1.1 1.6.05 3.19-.3 4.59-1.1l1.3 1.15c.2-2.5 1.25-4.29 1.25-5.89 0-1.95-.7-3.84-2-5.29M5.32 7.18a1.42 1.42 0 1 1 0-2.84 1.42 1.42 0 0 1 0 2.84m6.58.05a1.42 1.42 0 1 1 0-2.84 1.42 1.42 0 0 1 0 2.84"/><path fill="#e0e0e0" d="M4.96 5.25c-.13 0-.24.11-.24.24s.11.24.24.24.24-.11.24-.24-.11-.24-.24-.24m6.5 0c-.13 0-.24.11-.24.24s.11.24.24.24.24-.11.24-.24-.11-.24-.24-.24"/><path fill="#a0a0a0" d="M4.31 15.85a1.2 1.2 0 0 1 2.39-.05v.1c.6-.69.52-1.73-.17-2.32a1.64 1.64 0 0 0-2.32.17c-.57.66-.53 1.65.09 2.26v-.15Zm7.33 0a1.2 1.2 0 0 0-2.39-.05v.1c-.6-.69-.52-1.73.17-2.32.69-.6 1.73-.52 2.32.17.57.66.53 1.65-.09 2.26z"/><path fill="#e0e0e0" d="M4.76 2.82a2.84 2.84 0 1 0 0 5.68 2.84 2.84 0 0 0 0-5.68m.56 4.36a1.42 1.42 0 1 1 0-2.84 1.42 1.42 0 0 1 0 2.84m5.97-4.36a2.84 2.84 0 1 0 0 5.68 2.84 2.84 0 0 0 0-5.68m.61 4.41a1.42 1.42 0 1 1 0-2.84 1.42 1.42 0 0 1 0 2.84"/><path fill="#a0a0a0" d="M8.05 11.16c0-1 1.55-2.5 1.55-3.59a1.6 1.6 0 1 0-3.2 0c0 1.1 1.6 2.55 1.6 3.59z"/></svg>