<svg xmlns="http://www.w3.org/2000/svg" viewBox="0 0 16 16"><circle cx="11.22" cy="6.56" r=".29" fill="#e0e0e0"/><circle cx="4.91" cy="6.56" r=".29" fill="#e0e0e0"/><path fill="#ffa040" d="M4.86 3.4S3.41 4.61 2.99 6.01s-.25 3.1-.57 3.31c-.46.3-.99-1.49-1.16-1.67C.98 7.35.06 6.59 0 6.45s1.85-2.22 2.68-2.63c1.01-.47 2.26-.51 2.17-.41Zm8.15 2.61a6 6 0 0 1 .23 1.18l.66-.66c.5-.5 1.26-.61 1.9-.38-.48-.62-1.83-2-2.49-2.33-1.01-.47-2.26-.51-2.17-.41 0 0 1.45 1.21 1.87 2.61Z"/><path fill="#e0e0e0" d="m2.77 9.46.03.1a1.9 1.9 0 0 1 1.89-.07q.1-.32.48-.78.15-.18.33-.35l.08-.07q.38-.36.88-.62l.05-.02q.26-.13.55-.21c.09-.26.48-.53 1.03-.54.56 0 .95.29 1.03.55q.3.1.56.22.5.26.88.62l.07.07q.18.17.32.35.2.23.31.44l2.22-2.22c-.04-.27-.11-.53-.12-.78-.02-.55.05-1.04-.2-1.45-.6-1.02-2.1-1.62-5.1-1.62s-4.57.6-5.17 1.64c-.24.42-.21.9-.25 1.45-.03.44-.22.9-.14 1.4.1.65.14 1.3.24 1.9Zm5.34-3.32c-.12 0-.86-.01-1.72.59 0 0 .72-.77 1.71-.8h-.01.02-.01c.98.03 1.71.8 1.71.8-.86-.6-1.71-.59-1.7-.59m3.39-.19c.61 0 1.1.49 1.1 1.1s-.49 1.1-1.1 1.1-1.1-.49-1.1-1.1.49-1.1 1.1-1.1M8.07 4.56h.03-.01c.49.02.86.53.86.53-.44-.41-.85-.4-.85-.4s-.44-.01-.86.4c0 0 .48-.51.85-.53zM6.99 5.59a2.2 2.2 0 0 1 2.19.07c-.07-1.15 1.51-.72 1.51-.72-1.51-.27-1.24.9-1.37.97s-.25-.37-1.26-.42c-1-.05-1.15.46-1.26.42s.32-.72-.21-.91a3 3 0 0 0-1.29-.06c2.04-.42 1.71.65 1.7.65Zm-2.37.36c.61 0 1.1.49 1.1 1.1s-.49 1.1-1.1 1.1-1.1-.49-1.1-1.1.49-1.1 1.1-1.1"/><path fill="#ffa040" d="m5.09 9.78 1.46 1.46.15-.52c.1-.65.6-1.19 1.06-1.37.14-.23.22-1.03.24-1.32h.1c.02.28.1 1.04.23 1.29a1.8 1.8 0 0 1 1.11 1.41l.05.17 1.78-1.78-.31-.44A4 4 0 0 0 9.1 7.41c-.08-.27-.47-.55-1.03-.55-.55 0-.93.28-1.03.54a3.8 3.8 0 0 0-2.37 2.06q.21.12.4.29Zm3.17-2.49q.1 0 .14.16.04.17-.05.21c-.09.04-.12-.06-.14-.16q-.04-.16.05-.21m-.59.16q.06-.17.15-.15.08.04.04.21-.06.16-.15.15-.08-.04-.04-.21"/><path fill="#ffa040" d="M9.01 9.98a2 2 0 0 0-.89-.37c-.24 0-.68.17-1.03.44a2 2 0 0 0-.25.37c-.01.05-.17.53-.17.94l1.2 1.2 1.58-1.58c-.04-.23-.1-.45-.12-.53a2 2 0 0 0-.32-.47"/><path fill="#40ff40" d="M15.76 7.3a.8.8 0 0 0-1.15 0l-6.45 6.45a.4.4 0 0 1-.57 0l-3.2-3.2a.8.8 0 0 0-1.15 0 .8.8 0 0 0 0 1.15l4.07 4.07a.8.8 0 0 0 1.15 0l7.31-7.31a.8.8 0 0 0 0-1.15Z"/></svg>