<svg xmlns="http://www.w3.org/2000/svg" viewBox="0 0 16 16"><circle cx="11.22" cy="6.56" r=".29" fill="#e0e0e0"/><circle cx="4.91" cy="6.56" r=".29" fill="#e0e0e0"/><path fill="#e0e0e0" d="M13.39 6.15c-.02-.55.05-1.04-.2-1.45-.6-1.02-2.1-1.62-5.1-1.62s-4.57.6-5.17 1.64c-.24.42-.21.9-.25 1.45-.03.44-.22.9-.14 1.4.1.65.14 1.3.24 1.9.07.49.75.9.81 1.36q.12 1.02 1.36 1.46-.07-.09-.14-.24l-.01-.03q-.06-.13-.1-.33v-.02l-.06-.45v-.11l-.02-.61c0-.72-.05-1.02.57-1.79q.15-.18.33-.35l.08-.07q.38-.36.88-.62l.05-.02q.26-.13.55-.21c.09-.26.48-.53 1.03-.54.56 0 .95.29 1.03.55q.3.1.56.22.5.26.88.62l.07.07q.18.17.32.35c.62.76.59 1.09.57 1.81q0 .33-.02.59l-.01.12q-.02.24-.06.44l-.09.32-.02.06-.12.22q1.19-.45 1.3-1.46c.06-.47.69-.87.76-1.36.1-.6.14-1.25.24-1.9.09-.5-.11-.97-.14-1.41ZM8.07 4.56h.03-.01c.49.02.86.53.86.53-.44-.41-.85-.4-.85-.4s-.44-.01-.86.4c0 0 .48-.51.85-.53zM4.62 8.15c-.61 0-1.1-.49-1.1-1.1s.49-1.1 1.1-1.1 1.1.49 1.1 1.1-.49 1.1-1.1 1.1m3.49-2.01c-.12 0-.86-.01-1.72.59 0 0 .72-.77 1.71-.8h-.01.02-.01c.98.03 1.71.8 1.71.8-.86-.6-1.71-.59-1.7-.59m1.21-.23c-.14.07-.25-.37-1.26-.42-1-.05-1.15.46-1.26.42s.32-.72-.21-.91a3 3 0 0 0-1.29-.06c2.04-.42 1.71.65 1.7.65a2.2 2.2 0 0 1 2.19.07c-.07-1.15 1.51-.72 1.51-.72-1.51-.27-1.24.9-1.37.97Zm2.18 2.24c-.61 0-1.1-.49-1.1-1.1s.49-1.1 1.1-1.1 1.1.49 1.1 1.1-.49 1.1-1.1 1.1"/><path fill="#ffa040" d="M11.14 3.4s1.45 1.21 1.87 2.61.25 3.1.57 3.31c.46.3.99-1.49 1.16-1.67.27-.3 1.19-1.06 1.25-1.2s-1.85-2.22-2.68-2.63c-1.01-.47-2.26-.51-2.17-.41Zm-6.28 0S3.41 4.61 2.99 6.01s-.25 3.1-.57 3.31c-.46.3-.99-1.49-1.16-1.67C.98 7.35.06 6.59 0 6.45s1.85-2.22 2.68-2.63c1.01-.47 2.26-.51 2.17-.41Zm6.12 5.31a4 4 0 0 0-1.86-1.27c-.08-.27-.47-.55-1.03-.55-.55 0-.93.28-1.03.54-.83.24-1.46.74-1.89 1.28-.62.76-.57 1.06-.57 1.79 0 2.62.92 1.87 1.54 2.2.62.31 1.27.21 1.94.21h.01c.67 0 1.31.09 1.94-.22.61-.31 1.54.46 1.54-2.16.01-.72.05-1.05-.57-1.81ZM8.26 7.29q.1 0 .14.16.04.17-.05.21c-.09.04-.12-.06-.14-.16q-.04-.16.05-.21m-.59.16q.06-.17.15-.15.08.04.04.21-.06.16-.15.15-.08-.04-.04-.21m1.75 4.31c.19-.36-.03-1.12-.09-1.31a2 2 0 0 0-.32-.47 2 2 0 0 0-.89-.37c-.24 0-.68.17-1.03.44a2 2 0 0 0-.25.37c-.02.06-.3.94-.1 1.34l-.29-.12s.12-.52.25-.91c.1-.65.6-1.19 1.06-1.37.14-.23.22-1.03.24-1.32h.1c.02.28.1 1.04.23 1.29a1.8 1.8 0 0 1 1.11 1.41c.13.38.25.88.25.88l-.29.12Z"/></svg>