<svg xmlns="http://www.w3.org/2000/svg" viewBox="0 0 16 16"><path fill="#e0e0e0" d="m11.34 10.13.51-1.29h1.47l-.7-1.96.87-2.21 2.5 6.65h-1.85l-.43-1.19h-2.39Z"/><path fill="#a040ff" d="m10.59 11.32 2.68-6.65h-1.78l-1.83 4.3-1.3-4.3H6.99l-1.4 4.3-.99-1.96-.89 2.75.91 1.56h1.75l1.26-3.85 1.21 3.85z"/><path fill="#e0e0e0" d="M1.69 9.04h1.09q.5 0 .89-.11l.28-.87.79-2.44a1 1 0 0 0-.21-.27q-.61-.67-1.78-.67H0v6.65h1.69V9.05Zm1.45-2.83q.24.24.24.64c0 .4-.07.48-.21.64q-.23.26-.84.26H1.7V5.96h.64q.57 0 .81.24Z"/></svg>