<svg xmlns="http://www.w3.org/2000/svg" viewBox="0 0 16 16"><path fill="#40a0ff" d="M7.91 0q-1 0-1.82.16c-1.62.29-1.91.88-1.91 1.98v1.45H8v.48H2.74c-1.11 0-2.08.67-2.38 1.94a7 7 0 0 0 0 3.88c.27 1.13.92 1.94 2.03 1.94H3.7v-1.74a2.4 2.4 0 0 1 2.38-2.37h3.81c1.06 0 1.91-.87 1.91-1.94V2.15c0-1.03-.87-1.81-1.91-1.98Q8.9 0 7.91 0M5.84 1.17c.39 0 .72.33.72.73s-.32.73-.72.73-.72-.32-.72-.73.32-.73.72-.73"/><path fill="#ffff40" d="M12.28 4.08v1.7A2.45 2.45 0 0 1 9.9 8.2H6.09c-1.04 0-1.91.89-1.91 1.94v3.63c0 1.03.9 1.64 1.91 1.94 1.21.36 2.37.42 3.81 0 .96-.28 1.91-.84 1.91-1.94v-1.45H8v-.48h5.72c1.11 0 1.52-.77 1.91-1.94.4-1.2.38-2.35 0-3.88-.27-1.1-.8-1.94-1.91-1.94zm-2.15 9.2c.4 0 .72.32.72.73a.72.72 0 1 1-1.44 0c0-.4.32-.73.72-.73"/></svg>