<svg xmlns="http://www.w3.org/2000/svg" viewBox="0 0 16 16"><path fill="#ffff40" d="m5.09 9.78 2.78 2.78.25-.25h-.13v-.48h.62l5.3-5.3a1.8 1.8 0 0 1 1.73-.43l-.02-.08c-.27-1.1-.8-1.94-1.91-1.94h-1.43v1.7A2.45 2.45 0 0 1 9.9 8.2H6.09c-.77 0-1.43.48-1.74 1.16q.43.12.75.43Zm-.89 4.23c.12.79.79 1.31 1.6 1.6zm9.54-2.18c1.06-.01 1.48-.75 1.86-1.86zm-3.89 3.89.05-.01c.96-.28 1.91-.84 1.91-1.94s-1.96 1.95-1.96 1.95"/><path fill="#40a0ff" d="M2 11.06q.01-.75.53-1.28c.35-.35.84-.52 1.33-.51a2.4 2.4 0 0 1 2.22-1.56h3.81c1.06 0 1.91-.87 1.91-1.94V2.14c0-1.03-.87-1.81-1.91-1.98a12 12 0 0 0-3.8 0c-1.62.29-1.91.88-1.91 1.98v1.45H8v.48H2.74c-1.11 0-2.08.67-2.38 1.94a7 7 0 0 0 0 3.88c.25 1.05.84 1.81 1.81 1.91a2 2 0 0 1-.17-.75Zm3.84-8.44a.7.7 0 0 1-.72-.73.72.72 0 1 1 1.44 0c0 .4-.32.73-.72.73"/><path fill="#40ff40" d="M15.76 7.3a.8.8 0 0 0-1.15 0l-6.45 6.45a.4.4 0 0 1-.57 0l-3.2-3.2a.8.8 0 0 0-1.15 0 .8.8 0 0 0 0 1.15l4.07 4.07a.8.8 0 0 0 1.15 0l7.31-7.31a.8.8 0 0 0 0-1.15Z"/></svg>