<svg xmlns="http://www.w3.org/2000/svg" viewBox="0 0 16 16"><path fill="#40a0ff" d="M14 3H8L6.59 1.59A2 2 0 0 0 5.18 1H2.01A2 2 0 0 0 0 3v10c0 1.1.9 2 2 2h5.7l-.04-.39v-.21h-.12c-1.11 0-1.94-.74-2.24-1.98a5.5 5.5 0 0 1 0-2.89 2.5 2.5 0 0 1 2.36-1.97v-.21c0-1.28.64-1.98 2.02-2.22a8 8 0 0 1 2.72 0c1.17.2 2.03 1.13 2.03 2.23v.21h.19c.37 0 .91.1 1.38.53V5.03a2 2 0 0 0-2-2Zm.62 11.39h-.19v.21q0 .15-.04.35c.53-.11.98-.42 1.27-.85a2 2 0 0 1-1.04.28Z"/><path fill="#40a0ff" d="M11 6q-.62 0-1.14.1c-1.01.18-1.19.55-1.19 1.24v.91h2.39v.3H7.78c-.69 0-1.3.42-1.49 1.21a4.4 4.4 0 0 0 0 2.42c.17.71.57 1.21 1.27 1.21h.82V12.3c0-.79.68-1.48 1.49-1.48h2.38a1.2 1.2 0 0 0 1.19-1.21V7.34c0-.65-.55-1.13-1.19-1.24a8 8 0 0 0-1.24-.1Zm-1.29.73c.25 0 .45.2.45.46 0 .25-.2.45-.45.45s-.45-.2-.45-.45.2-.46.45-.46"/><path fill="#ffff40" d="M13.73 8.55v1.06c0 .82-.7 1.51-1.49 1.51H9.86c-.65 0-1.19.56-1.19 1.21v2.27c0 .65.56 1.03 1.19 1.21.76.22 1.48.26 2.38 0 .6-.17 1.19-.52 1.19-1.21v-.91h-2.38v-.3h3.58c.69 0 .95-.48 1.19-1.21.25-.75.24-1.47 0-2.42-.17-.69-.5-1.21-1.19-1.21zm-1.34 5.75c.25 0 .45.2.45.45s-.2.46-.45.46-.45-.2-.45-.46.2-.45.45-.45"/></svg>