<svg xmlns="http://www.w3.org/2000/svg" viewBox="0 0 32 32"><path d="M12.6 25.6a10 10 0 0 1 0-5.3 4.6 4.6 0 0 1 4.2-3.7v-.2c0-1.7.6-2.9 2-3.6H6.4L3.2 25.6v-16H32c0-1.8-1.4-3.2-3.2-3.2H16l-3.2-3.2H3.2A3.2 3.2 0 0 0 0 6.4v19.2c0 1.8 1.4 3.2 3.2 3.2h11.6c-1.1-.6-1.9-1.7-2.2-3.2Z" fill="#66b4ff"/><path d="M27.2 12.8c1.3.8 2.2 2.1 2.2 3.6v.2h.1c.7 0 1.6.1 2.5.8v-4.6h-4.8ZM25.2 14.2a14.1 14.1 0 0 0-4.3 0c-1.8.3-2.1 1-2.1 2.2v1.7H23v.5h-6c-1.2 0-2.3.8-2.6 2.2a8 8 0 0 0 0 4.3c.3 1.3 1 2.2 2.3 2.2h1.5v-2c0-1.4 1.2-2.6 2.6-2.6h4.3c1.2 0 2.2-1 2.2-2.2v-4c0-1.2-1-2.1-2.2-2.3ZM20.7 17c-.5 0-.8-.4-.8-.9s.3-.8.8-.8.8.4.8.8-.4.9-.8.9Z" fill="#66b4ff"/><path d="M31.7 20.8c-.3-1.3-1-2.2-2.2-2.2H28v1.9c0 1.5-1.2 2.7-2.7 2.7H21c-1.1 0-2.1 1-2.1 2.2v4c0 1.2 1 2 2.1 2.3 1.4.4 2.7.4 4.3 0 1.1-.3 2.2-1 2.2-2.2v-1.7H23v-.5h6.4c1.3 0 1.7-.9 2.2-2.2.4-1.3.4-2.6 0-4.3Zm-6.2 8.1c.5 0 .8.4.8.9s-.4.8-.8.8-.8-.4-.8-.8.4-.9.8-.9Z" fill="#ff6"/></svg>