<svg xmlns="http://www.w3.org/2000/svg" viewBox="0 0 16 16"><path fill="#ff4040" d="M11 6a5 5 0 1 0 0 10 5 5 0 0 0 0-10m2.5 5.63h-1.87v1.87c0 .35-.28.62-.62.62s-.62-.28-.62-.62v-1.87H8.52c-.35 0-.62-.28-.62-.62s.28-.62.62-.62h1.87V8.52c0-.35.28-.62.62-.62s.62.28.62.62v1.87h1.87c.35 0 .62.28.62.62s-.28.62-.62.62"/><path fill="#ff4040" fill-rule="evenodd" d="m12.11 3.97.03-.5a3 3 0 0 0-.68-.26l-.03.5q.35.12.68.27Zm-3.28-.75h.07l-.14-.46q-.32 0-.68.05l.13.44q.3-.03.61-.03Zm-2.87.79-.32-.52-.55.32.32.53zM3.29 6.25l-.5-.47-.52.56.54.5q.22-.31.48-.59M1.16 9.61l-.81-.32c-.13.33-.28.7-.35.91l.81.32c.09-.26.24-.62.35-.9ZM5 11a6 6 0 0 1 10.48-3.98l.28.2.25-.2s-3.67-3.91-7.75-3.47c-2.05.2-4.58 2.19-6.06 4.82C.71 11.01.49 13.24.49 13.24h4.94A6 6 0 0 1 5 11"/></svg>