<svg xmlns="http://www.w3.org/2000/svg" viewBox="0 0 16 16"><path d="M11.06 13.23c.4.65.91 1.13 1.83 1.13.77 0 1.26-.38 1.26-.91 0-.64-.5-.86-1.35-1.23l-.46-.2c-1.34-.57-2.23-1.28-2.23-2.79 0-1.39 1.06-2.45 2.71-2.45 1.18 0 2.03.41 2.64 1.48l-1.44.93c-.32-.57-.66-.79-1.19-.79s-.89.34-.89.79c0 .56.34.78 1.14 1.13l.46.2c1.57.68 2.46 1.36 2.46 2.91 0 1.67-1.31 2.58-3.07 2.58s-2.83-.82-3.38-1.9l1.51-.88zm-6.55.16c.29.52.56.95 1.19.95s.99-.24.99-1.16v-6.3h1.85v6.33c0 1.92-1.13 2.79-2.77 2.79a2.89 2.89 0 01-2.78-1.69l1.51-.91z" fill="#ffff40"/><path d="M12.11 3.97l.03-.5a2.89 2.89 0 00-.68-.26l-.03.5c.23.08.46.17.68.27zm-3.28-.75h.07l-.14-.46c-.22 0-.44.02-.68.05l.13.44c.2-.02.41-.03.61-.03zm-2.87.79l-.32-.52-.55.32.32.53.54-.33zM3.29 6.25l-.5-.47-.52.56.54.5c.15-.2.31-.41.48-.59zM1.16 9.61l-.81-.32c-.13.33-.28.7-.35.91l.81.32c.09-.26.24-.62.35-.9zm8.39-3.73v.54l.39-.17-.16-.5c-.13.04-.22.08-.32.13h.09zm1.89-.31l-.03.44c.23-.08.46-.14.71-.18v-.16a5.46 5.46 0 00-.69-.1z" fill="#ff4040" fill-rule="evenodd"/><path d="M4.87 12l.51.9c.05.09.13.23.21.34h.11V5.88h2.98c.71-.37 2.34-1.16 4.84-.04.98.13 1.76.56 2.36 1.29l.13-.1s-3.67-3.91-7.75-3.47c-2.05.2-4.58 2.19-6.06 4.82C.71 11.01.49 13.24.49 13.24h2.34L4.87 12z" fill="#ff4040" fill-rule="evenodd"/></svg>