<svg xmlns="http://www.w3.org/2000/svg" viewBox="0 0 16 16"><path d="M.49 13.24h5.57S4.99 8.06 8.52 5.96c.77-.4 3.22-1.89 7.22 1.27l.25-.2s-3.67-3.91-7.75-3.47c-2.05.2-4.58 2.19-6.06 4.82a13.82 13.82 0 00-1.69 4.86zm11.62-9.27l.03-.5a2.89 2.89 0 00-.68-.26l-.03.5c.23.08.46.17.68.27z" fill="#ff4040" fill-rule="evenodd"/><path d="M11.44 5.57l-.03.47c.23 0 .47.04.7.09l.03-.47a5.9 5.9 0 00-.7-.1zM8.83 3.22h.07l-.14-.46c-.22 0-.44.02-.68.05l.13.44c.2-.02.41-.03.61-.03zm.33 2.77l.16.52c.2-.11.41-.2.61-.26l-.16-.5c-.24.08-.44.16-.62.24zm-3.2-1.98l-.32-.52-.55.32.32.53.54-.33zM7.41 7.4l.34.54c.12-.19.26-.36.42-.53l-.32-.51c-.16.16-.31.33-.44.5zM6.38 9.82l.57.48c.03-.29.08-.59.15-.88l-.51-.43c-.09.28-.16.56-.21.83zM3.29 6.25l-.5-.47-.52.56.54.5c.15-.2.31-.41.48-.59zM1.16 9.61l-.81-.32c-.13.33-.28.7-.35.91l.81.32c.09-.26.24-.62.35-.9zm5.12 2.12c.01.4.05.72.08.95l.85.32c-.06-.29-.13-.62-.17-.98l-.76-.29z" fill="#ff4040" fill-rule="evenodd"/></svg>