<svg xmlns="http://www.w3.org/2000/svg" viewBox="0 0 16 16"><path d="M5.6 12.88c-.36-.3-.6-.74-.6-1.25v-1.25c0-.51.24-.95.6-1.25-.36-.3-.6-.74-.6-1.25V6.63c0-.9.73-1.62 1.62-1.62h1.25c.51 0 .95.24 1.25.6.3-.36.74-.6 1.25-.6h1.25c.49 0 .93.23 1.23.58l.04.01c.19-.23.44-.39.72-.49-1.42-.91-3.34-1.76-5.36-1.54-2.06.2-4.59 2.19-6.07 4.82C.7 11.01.49 13.24.49 13.24h4.79c.09-.13.19-.26.32-.36z" fill="#ff4040" fill-rule="evenodd"/><rect x="6" y="6" width="2.5" height="2.5" rx=".62" ry=".62" fill="#ff4040"/><rect x="6" y="6" width="2.5" height="2.5" rx=".62" ry=".62" fill="#ff4040"/><rect x="6" y="9.75" width="2.5" height="2.5" rx=".62" ry=".62" fill="#ff4040"/><rect x="6" y="13.5" width="2.5" height="2.5" rx=".62" ry=".62" fill="#ff4040"/><rect x="13.5" y="6" width="2.5" height="2.5" rx=".62" ry=".62" fill="#ff4040"/><rect x="13.5" y="6" width="2.5" height="2.5" rx=".62" ry=".62" fill="#ff4040"/><rect x="13.5" y="9.75" width="2.5" height="2.5" rx=".62" ry=".62" fill="#ff4040"/><rect x="13.5" y="13.5" width="2.5" height="2.5" rx=".62" ry=".62" fill="#ff4040"/><rect x="9.75" y="6" width="2.5" height="2.5" rx=".62" ry=".62" fill="#ff4040"/><rect x="9.75" y="6" width="2.5" height="2.5" rx=".62" ry=".62" fill="#ff4040"/><rect x="9.75" y="9.75" width="2.5" height="2.5" rx=".62" ry=".62" fill="#ff4040"/><rect x="9.75" y="13.5" width="2.5" height="2.5" rx=".62" ry=".62" fill="#ff4040"/><path d="M12.11 3.97l.03-.5a2.89 2.89 0 00-.68-.26l-.03.5c.23.08.46.17.68.27zm-3.28-.75h.07l-.14-.46c-.22 0-.44.02-.68.05l.13.44c.2-.02.41-.03.61-.03zm-2.87.79l-.32-.52-.55.32.32.53.54-.33zM3.29 6.25l-.5-.47-.52.56.54.5c.15-.2.31-.41.48-.59zM1.16 9.61l-.81-.32c-.13.33-.28.7-.35.91l.81.32c.09-.26.24-.62.35-.9z" fill="#ff4040" fill-rule="evenodd"/></svg>