<svg xmlns="http://www.w3.org/2000/svg" viewBox="0 0 16 16"><path fill="#ff4040" fill-rule="evenodd" d="M.49 12.91h5.57S4.99 8.05 8.52 6.08c.77-.37 3.22-1.77 7.22 1.19l.25-.19s-3.67-3.66-7.75-3.25c-2.05.18-4.58 2.05-6.06 4.52S.49 12.91.49 12.91"/><path fill="#ff4040" fill-rule="evenodd" d="M.49 12.91h5.57S4.99 8.05 8.52 6.08c.77-.37 3.22-1.77 7.22 1.19l.25-.19s-3.67-3.66-7.75-3.25c-2.05.18-4.58 2.05-6.06 4.52S.49 12.91.49 12.91"/><path fill="#ff4040" fill-rule="evenodd" d="M.49 12.91h5.57S4.99 8.05 8.52 6.08c.77-.37 3.22-1.77 7.22 1.19l.25-.19s-3.67-3.66-7.75-3.25c-2.06.18-4.59 2.05-6.07 4.52C.7 10.82.49 12.91.49 12.91m11.62-8.68.03-.47a3 3 0 0 0-.68-.25l-.03.47z"/><path fill="#ff4040" fill-rule="evenodd" d="m11.44 5.72-.03.44q.35.01.7.08l.03-.44a4 4 0 0 0-.7-.09Zm-2.61-2.2h.07l-.14-.43q-.32 0-.68.04l.13.42q.3-.03.61-.03Zm.33 2.6.16.49q.3-.15.61-.25l-.16-.47a5 5 0 0 0-.62.23Zm-3.2-1.86-.32-.49-.55.3.32.49q.27-.17.54-.31Zm1.45 3.18.34.51q.18-.26.42-.5l-.32-.48q-.24.23-.44.47M6.38 9.71l.57.45q.04-.41.15-.83l-.51-.4q-.13.39-.21.78M3.29 6.36l-.5-.44q-.27.26-.52.53l.54.47q.22-.29.48-.56M1.16 9.51l-.81-.3-.35.85.81.3zm5.12 1.99q.03.56.08.89l.85.3q-.1-.42-.17-.92z"/></svg>