<svg xmlns="http://www.w3.org/2000/svg" viewBox="0 0 16 16"><rect width="10.2" height="2.5" x="7.98" y="9.75" fill="#ff4040" rx=".62" ry=".62" transform="rotate(-67.5 13.09 11)"/><path fill="#ff4040" fill-rule="evenodd" d="m12.11 3.97.03-.5a3 3 0 0 0-.68-.26l-.03.5q.35.12.68.27Zm-.67 1.6-.03.47q.35 0 .7.09l.03-.47a6 6 0 0 0-.7-.1ZM8.83 3.22h.07l-.14-.46q-.32 0-.68.05l.13.44q.3-.03.61-.03Zm.33 2.77.16.52q.3-.17.61-.26l-.16-.5q-.36.12-.62.24Zm-3.2-1.98-.32-.52-.55.32.32.53zM7.41 7.4l.34.54q.18-.28.42-.53l-.32-.51q-.24.24-.44.5M6.38 9.82l.57.48q.04-.44.15-.88l-.51-.43q-.13.42-.21.83M3.29 6.25l-.5-.47-.52.56.54.5q.22-.31.48-.59M1.16 9.61l-.81-.32c-.13.33-.28.7-.35.91l.81.32c.09-.26.24-.62.35-.9Zm5.12 2.12q.03.6.08.95l.85.32q-.1-.44-.17-.98z"/><path fill="#ff4040" fill-rule="evenodd" d="M12.96 5.61q.27-.34.68-.5c-1.43-.92-3.36-1.78-5.39-1.56-2.05.2-4.58 2.19-6.06 4.82s-1.7 4.87-1.7 4.87h5.57S4.99 8.06 8.52 5.96c.57-.3 2.07-1.19 4.43-.34Z"/></svg>