<svg xmlns="http://www.w3.org/2000/svg" viewBox="0 0 16 16"><path d="M15.63 8.13l-1.77-1.77a1.26 1.26 0 00-.88-.37H9.75c-.69 0-1.25.56-1.25 1.25v7.5c0 .69.56 1.25 1.25 1.25h5c.69 0 1.25-.56 1.25-1.25V9.01c0-.33-.13-.65-.37-.88zm-3.38-.25c0-.56.67-.84 1.07-.44l1.25 1.25c.39.39.11 1.07-.44 1.07h-1.25a.62.62 0 01-.62-.62V7.89zm1.88 6.87h-3.75c-.34 0-.62-.28-.62-.62s.28-.62.62-.62h3.75c.34 0 .62.28.62.62s-.28.62-.62.62zm0-2.5h-3.75c-.34 0-.62-.28-.62-.62s.28-.62.62-.62h3.75c.34 0 .62.28.62.62s-.28.62-.62.62z" fill="#e0e0e0"/><path d="M12.11 3.97l.03-.5a2.89 2.89 0 00-.68-.26l-.03.5c.23.08.46.17.68.27zm-3.28-.75h.07l-.14-.46c-.22 0-.44.02-.68.05l.13.44c.2-.02.41-.03.61-.03zm-2.87.79l-.32-.52-.55.32.32.53.54-.33zm.42 5.81l.57.48c.03-.29.08-.59.15-.88l-.51-.43c-.09.28-.16.56-.21.83zM3.29 6.25l-.5-.47-.52.56.54.5c.15-.2.31-.41.48-.59zM1.16 9.61l-.81-.32c-.13.33-.28.7-.35.91l.81.32c.09-.26.24-.62.35-.9zm5.12 2.12c.01.4.05.72.08.95l.85.32c-.06-.29-.13-.62-.17-.98l-.76-.29zM7.5 7.29l-.09.11.09.15V7.3z" fill="#ff4040" fill-rule="evenodd"/><path d="M7.57 6.72A2.25 2.25 0 019.75 5h3.23c.22 0 .43.04.64.1-1.42-.91-3.35-1.77-5.37-1.55-2.05.2-4.58 2.19-6.06 4.82-1.48 2.64-1.7 4.87-1.7 4.87h5.57s-.84-4.14 1.5-6.52z" fill="#ff4040" fill-rule="evenodd"/></svg>