<svg xmlns="http://www.w3.org/2000/svg" viewBox="0 0 16 16"><rect width="1.88" height="3.13" x="13.55" y="5.95" fill="#ff4040" rx=".63" ry=".63" transform="rotate(-45 14.5 7.5)"/><path fill="#ff4040" d="m14.05 9.28-1.33-1.33a.63.63 0 0 0-.88 0L6.4 13.39q-.15.15-.18.35L6 15.29c-.06.41.29.77.71.71l1.55-.22a.6.6 0 0 0 .35-.18l5.44-5.44a.63.63 0 0 0 0-.88"/><path fill="#ff4040" fill-rule="evenodd" d="m12.11 3.97.03-.5a3 3 0 0 0-.68-.26l-.03.5q.35.12.68.27Zm-3.28-.75h.07l-.14-.46q-.32 0-.68.05l.13.44q.3-.03.61-.03Zm-2.87.79-.32-.52-.55.32.32.53zM3.29 6.25l-.5-.47-.52.56.54.5q.22-.31.48-.59M1.16 9.61l-.81-.32c-.13.33-.28.7-.35.91l.81.32c.09-.26.24-.62.35-.9Zm4.54 3.07.26-.26c-.14-1.55-.09-4.88 2.57-6.46.56-.29 2-1.14 4.28-.39l.09-.09q.3-.28.68-.4c-1.42-.9-3.32-1.74-5.33-1.52-2.05.2-4.58 2.19-6.06 4.82s-1.7 4.86-1.7 4.86h4.86q.12-.32.35-.56"/></svg>