<svg xmlns="http://www.w3.org/2000/svg" viewBox="0 0 16 16"><path fill="#ff4040" d="M9.5 6.25A6.8 6.8 0 0 0 3 11.13a6.77 6.77 0 0 0 13 0 6.8 6.8 0 0 0-6.5-4.88m0 8.13a3.26 3.26 0 0 1 0-6.5 3.26 3.26 0 0 1 0 6.5"/><path fill="#ff4040" fill-rule="evenodd" d="m12.11 3.97.03-.5a3 3 0 0 0-.68-.26l-.03.5q.35.12.68.27Zm-3.28-.75h.07l-.14-.46q-.32 0-.68.05l.13.44q.3-.03.61-.03Zm-2.87.79-.32-.52-.55.32.32.53zM3.29 6.25l-.5-.47-.52.56.54.5q.22-.31.48-.59M1.16 9.61l-.81-.32c-.13.33-.28.7-.35.91l.81.32c.09-.26.24-.62.35-.9Zm.88 1.79-.08-.28.08-.28a7.8 7.8 0 0 1 8.32-5.54c1.25-.18 3.06.07 5.4 1.92l.25-.2s-3.67-3.91-7.75-3.47c-2.05.2-4.58 2.19-6.06 4.82C.71 11.01.49 13.24.49 13.24h2.36a8 8 0 0 1-.82-1.83Z"/><circle cx="9.5" cy="11.13" r="1.63" fill="#ff4040"/></svg>