<svg xmlns="http://www.w3.org/2000/svg" viewBox="0 0 16 16"><path fill="#ff4040" fill-rule="evenodd" d="M13.55 13.24c-1.1.9-2.83.59-3.89-.69-1.05-1.28-1.01-3.04.08-3.94 1.1-.9 2.83-.59 3.89.68 1.05 1.28 1.01 3.04-.08 3.94Zm-10.98.01c-1.06-.87-1.1-2.59-.08-3.83s2.71-1.54 3.78-.66c1.06.87 1.1 2.59.07 3.83-1.02 1.24-2.71 1.54-3.77.67Z"/><path fill="#6060ff" fill-rule="evenodd" d="M9.71 7.95c-1.1-1.34-.72-3.46.84-4.75 1.56-1.28 3.72-1.23 4.81.1 1.1 1.34.72 3.46-.84 4.75-1.56 1.28-3.72 1.23-4.82-.1Zm-3.42-.02c1.1-1.34.72-3.46-.84-4.75-1.56-1.28-3.72-1.23-4.81.1-1.1 1.34-.72 3.46.84 4.75 1.56 1.28 3.72 1.23 4.82-.1Z"/><path fill="#ff4040" fill-rule="evenodd" d="M2.7 5.95c-.6 0-1.09-.48-1.09-1.07S2.1 3.81 2.7 3.81s1.09.48 1.09 1.07S3.3 5.95 2.7 5.95"/><path fill="#66f" fill-rule="evenodd" d="M3.76 11.81c-.3-.25-.26-.81.11-1.26.36-.45.91-.6 1.22-.35s.25.81-.11 1.26-.91.6-1.22.35m8.39.07c-.3.25-.85.09-1.21-.35s-.41-1.01-.1-1.26.85-.09 1.21.35.41 1.01.1 1.26"/><path fill="#ff4040" fill-rule="evenodd" d="M11.51 7.25c-.53 0-.95-.43-.95-.97s.42-.97.95-.97.95.43.95.97-.42.97-.95.97"/><path fill="#ffff40" fill-rule="evenodd" d="M8.01 11.13c-1.44 0-2.6-.93-2.6-2.08s1.16-2.08 2.6-2.08 2.6.93 2.6 2.08-1.16 2.08-2.6 2.08"/><path fill="#ff4040" d="M8.27 10.51c-.29 0-.62-.1-.86-.24q-.46-.29-.42-.68l.29.04c-.02.18.19.33.28.39.35.21.84.27 1.05.12.04-.02.15-.11.09-.38v-.09h.29v.04c.08.38-.09.58-.21.66a1 1 0 0 1-.51.14"/><path fill="#e0e0e0" fill-rule="evenodd" d="M6.23 9.02a1.04 1.04 0 1 1 0-2.08 1.04 1.04 0 1 1 0 2.08"/><path d="M6.23 9.14c-.63 0-1.15-.52-1.15-1.15a1.15 1.15 0 0 1 2.31 0c0 .64-.52 1.15-1.16 1.15m0-2.08c-.51 0-.93.42-.93.93s.42.93.93.93.93-.42.93-.93-.42-.93-.93-.93"/><path fill="#e0e0e0" fill-rule="evenodd" d="M9.68 9.02c-.57 0-1.04-.47-1.04-1.04s.47-1.04 1.04-1.04 1.04.47 1.04 1.04-.47 1.04-1.04 1.04"/><path d="M9.68 9.14c-.64 0-1.16-.52-1.16-1.15a1.15 1.15 0 0 1 2.31 0c0 .64-.52 1.15-1.15 1.15m0-2.08a.9.9 0 0 0-.99.86c-.04.51.35.96.86.99h.14a.93.93 0 0 0 0-1.85Z"/><path fill-rule="evenodd" d="M6.26 8.5c-.29 0-.52-.23-.52-.52s.23-.52.52-.52.52.23.52.52-.23.52-.52.52m3.46-.06a.5.5 0 0 1-.52-.52c0-.29.23-.52.52-.52s.52.23.52.52-.23.52-.52.52"/><path fill="#40ff40" d="M14.85 4.83a2 2 0 0 0-1.87-.74l-.4.07v.35l.4.07q.55.1.94.56c.51.62.49 1.49-.04 1.93q-.22.18-.51.23l-.79.14v.21l.79.14c.48.1.99-.02 1.37-.34.37-.31.59-.77.6-1.25.01-.5-.16-1-.48-1.38Zm-8.72-.07c-.22-.69-.8-1.2-1.51-1.33l-.4-.07-.12.33.36.2q.49.28.69.85c.27.76-.05 1.57-.7 1.8q-.26.09-.56.04l-.79-.13-.07.2.7.4a1.64 1.64 0 0 0 2.39-.83c.18-.45.19-.98.02-1.47Z"/></svg>