<svg xmlns="http://www.w3.org/2000/svg" viewBox="0 0 32 32"><path d="M16 13.2a2.8 2.8 0 1 0 0 5.6 2.8 2.8 0 0 0 0-5.6Z" fill="#6ff"/><path d="M32 16c0-2.3-2.3-4.3-6.4-5.5 1-4.2.4-7.2-1.6-8.4-2-1.1-4.9 0-8 2.8C12.9 2 10 1 8 2.1c-1.8 1-2.4 3.5-1.9 7l.3 1.4C2.4 11.7 0 13.7 0 16s2.3 4.3 6.4 5.5L6.1 23c-.5 3.5.1 6 1.9 7 1.7 1 4.2.3 7-2l1-.8 1 .9c2 1.5 3.7 2.3 5.2 2.3.7 0 1.3-.2 1.8-.5 1.8-1 2.4-3.4 1.9-6.9l-.3-1.4c4-1.2 6.4-3.2 6.4-5.5Zm-2.3 0c0 1-1.5 2.3-4.8 3.3L23.8 16a32 32 0 0 0 1.3-3.3c3.2 1 4.7 2.4 4.7 3.3Zm-19.2-4.1-.4.7-.4.7-.4-1.2 1.2-.2Zm-.4 7.5.4.7-1.2-.3.4-1 .4.6Zm2-5.7 1.3-2.1c1.8-.2 3.4-.2 5.1 0a35.2 35.2 0 0 1 2.6 4.4 37.5 37.5 0 0 1-2.6 4.4h-5a36 36 0 0 1-2.6-4.4l1.2-2.3Zm10.6-1.6-.4 1.2a14.9 14.9 0 0 0-.8-1.4l1.2.2Zm-1.2 8 .4-.7.4-.7.4 1.2-1.2.2Zm1.8-10.2-3.5-.5c-.7-1-1.4-2-2.2-2.8 2.2-2 4.3-3 5.2-2.5.8.5 1.3 2.4.5 5.8ZM16 9.2h-.8l.8-1 .8 1H16Zm-3.8.2c-1.3 0-2.4.2-3.5.5a14 14 0 0 1-.3-1.2c-.4-2.4 0-4 .8-4.6.9-.5 3 .5 5.2 2.5-.8.8-1.5 1.7-2.2 2.7ZM7 12.6 8.3 16A31 31 0 0 0 7 19.3c-3.2-1-4.7-2.4-4.7-3.3s1.5-2.3 4.7-3.3Zm1.4 10.6.3-1.2 3.5.5c.7 1 1.4 2 2.2 2.8l-1 .8c-1.8 1.5-3.4 2.1-4.2 1.6-.9-.5-1.2-2.2-.8-4.6Zm8.4-.5-.8 1a75 75 0 0 1-.8-1h1.6Zm3-.2 3.5-.5.3 1.2c.3 2.3 0 4-.8 4.5s-2.5-.1-4.3-1.6l-.9-.8 2.2-2.8Z" fill="#6ff"/></svg>