<svg xmlns="http://www.w3.org/2000/svg" viewBox="0 0 16 16"><circle cx="8" cy="8" r="1.46" fill="#40ffff"/><path fill="#40ffff" d="M16 8c0-1.25-1.05-2.33-2.75-3.05l.03-.2c.18-1.79-.27-3.1-1.28-3.68S9.63.75 8.17 1.8L8 1.93l-.17-.13C6.37.75 5.01.49 4 1.07S2.54 2.96 2.72 4.75l.03.2C1.05 5.67 0 6.75 0 8s1.05 2.33 2.75 3.05l-.03.2c-.18 1.79.27 3.1 1.28 3.68q.53.3 1.18.3 1.21 0 2.65-1.03l.17-.13.17.13a4.7 4.7 0 0 0 2.65 1.03q.64 0 1.18-.3c1.01-.58 1.46-1.89 1.28-3.68l-.03-.2C14.95 10.33 16 9.25 16 8m-5.18-5.86q.29 0 .49.12c.48.28.71 1.12.61 2.24q-.8-.21-1.72-.33-.56-.72-1.15-1.31a3.4 3.4 0 0 1 1.76-.72Zm.75 7.61.11.38-.38.1.15-.24zm-1.31-.45q-.38.64-.79 1.23a14 14 0 0 1-2.92 0A15 15 0 0 1 5.09 8a16 16 0 0 1 1.46-2.53 14 14 0 0 1 2.92 0A15 15 0 0 1 10.93 8q-.3.65-.67 1.3M8 12.25l-.27-.28h.54zM4.56 9.99l.15.24-.38-.1.11-.38.13.24Zm-.13-3.74-.11-.38.38-.1-.15.24-.13.24ZM8 3.75l.27.28h-.54zm3.44 2.26-.15-.24.38.1-.11.38zM4.69 2.26q.2-.12.49-.12c.48 0 1.1.25 1.76.72q-.6.6-1.15 1.31-.91.12-1.72.33c-.09-1.13.13-1.97.61-2.24ZM1.37 8c0-.57.62-1.17 1.66-1.66q.22.82.57 1.66-.35.84-.57 1.66C1.99 9.18 1.37 8.58 1.37 8m3.32 5.74c-.48-.28-.71-1.12-.61-2.24q.8.21 1.72.33.56.71 1.15 1.31c-.93.65-1.77.88-2.26.6m6.62 0c-.49.28-1.32.05-2.26-.6q.6-.6 1.15-1.31.91-.12 1.72-.33c.09 1.13-.13 1.97-.61 2.24m1.66-4.08q-.22-.81-.57-1.66.35-.84.57-1.66c1.04.48 1.66 1.08 1.66 1.66s-.62 1.17-1.66 1.66"/></svg>