<svg xmlns="http://www.w3.org/2000/svg" viewBox="0 0 16 16"><path fill="#40ffff" d="M5.79 13.7c-1.19-.68-1.85-1.64-1.85-2.7s.67-2.02 1.85-2.7q0-.76.17-1.3h-.52a2 2 0 0 0-1.9 1.37L2 13V7c0-1.1.9-2 2-2h11c.55 0 1-.45 1-1s-.45-1-1-1H8L6.59 1.59A2 2 0 0 0 5.18 1H2.01A2 2 0 0 0 0 3v10c0 1.1.9 2 2 2h3.96a4 4 0 0 1-.17-1.3m9.36-5.4q.48.28.84.61a2 2 0 0 0-.94-1.6q.1.44.1.99m0 5.4q0 .56-.1 1c.55-.34.91-.93.95-1.61q-.36.34-.84.61Z"/><circle cx="10.53" cy="11" r="1.01" fill="#40ffff"/><path fill="#40ffff" d="M16 11c0-.86-.73-1.61-1.9-2.11l.02-.14c.13-1.24-.19-2.14-.89-2.55s-1.64-.22-2.65.5l-.12.09-.12-.09c-1.01-.73-1.95-.91-2.65-.5-.7.4-1.01 1.31-.89 2.55l.02.14c-1.18.5-1.9 1.24-1.9 2.11s.73 1.61 1.9 2.11l-.02.14c-.13 1.24.19 2.14.89 2.55q.37.21.81.21.84 0 1.83-.71l.12-.09.12.09q1 .7 1.83.71.45 0 .81-.21c.7-.4 1.01-1.31.89-2.55l-.02-.14c1.18-.5 1.9-1.24 1.9-2.11Zm-3.58-4.05q.2 0 .34.08c.33.19.49.77.42 1.55q-.56-.15-1.19-.23a10 10 0 0 0-.8-.91q.7-.49 1.22-.5Zm.52 5.26.08.26-.27.07.1-.17zm-.91-.31q-.26.45-.55.85a11 11 0 0 1-2.02 0A10 10 0 0 1 8.45 11a13 13 0 0 1 1.01-1.75 11 11 0 0 1 2.02 0A10 10 0 0 1 12.49 11q-.2.45-.46.9m-1.56 2.04-.19-.2h.38zm-2.38-1.57.1.17-.27-.07.08-.26zM8 9.79l-.08-.26.27-.07-.1.17zm2.47-1.73.19.2h-.38zm2.38 1.57-.1-.17.27.07-.08.26zm-4.67-2.6q.15-.08.34-.08.51 0 1.22.5-.4.4-.8.91-.63.09-1.19.23c-.07-.78.09-1.36.42-1.55ZM5.89 11c0-.4.43-.81 1.15-1.15q.15.56.39 1.15-.24.58-.39 1.15c-.72-.33-1.15-.75-1.15-1.15m2.29 3.97c-.33-.19-.49-.77-.42-1.55q.56.15 1.19.23.38.5.8.9c-.65.45-1.23.61-1.56.42Zm4.58 0c-.34.19-.92.03-1.56-.42q.4-.4.8-.9.63-.09 1.19-.23c.07.78-.09 1.36-.42 1.55Zm1.15-2.82q-.15-.56-.39-1.15.24-.58.39-1.15c.72.33 1.15.75 1.15 1.15s-.43.81-1.15 1.15"/></svg>