<svg xmlns="http://www.w3.org/2000/svg" viewBox="0 0 16 16"><path fill="#40a0ff" d="M8 0a8 8 0 1 0 0 16A8 8 0 0 0 8 0M4.36 8.78 3.58 8l.78-.78.78.78zm1.52-1.56-.78-.78.78-.78.78.78zm1.56-3.13.78-.78.78.78-.78.78zm5.91 8.74-.35.35q-.25.24-.65.25c-.4.01-.49-.08-.65-.25l-2.04-2.04a.9.9 0 0 1-.21-.99l-.4-.46a1 1 0 0 1 .01-1.38l2.41-2.41-.85-.89-.18.17-.12-.17-.57-.57.18-.18a1 1 0 0 1 1.4 0l.91.91c.4.41.4.99 0 1.4L9.81 9.05l.32.33a.9.9 0 0 1 1.19.1l2.04 2c.36.42.35 1 0 1.36Z"/><path fill="#40a0ff" d="M10.32 10.42s-.01.06 0 .07l2.03 2.03.38-.38-2.06-2.02z"/><path fill="#40ffff" d="m10.35 5.09-.56-.56c-.17-.22-.48-.22-.7 0L4.7 8.92a.5.5 0 0 0 0 .65l.61.6c.17.17.48.17.65 0l4.39-4.39c.17-.22.17-.52 0-.7Zm-2.86-.96.78-.78-.78-.79-.78-.78-.79.78.74.74-.78.79.78.78.78-.78zM2.78 7.21l.79-.78.78.78-.78.79zm2.32-.78.78-.78-.78-.78-.79-.74-.78.74.78.78zm.79-.77.78-.79.79.79-.79.78zM4.35 7.21l.79-.78.78.78-.78.79zM1.23 5.65 2 4.87l.79.78-.79.79zm2.34-2.3.78-.79.79.79-.79.78z"/></svg>