<svg xmlns="http://www.w3.org/2000/svg" viewBox="0 0 16 16"><path fill="#ff4040" d="M4.47 10.43c0 .1-.08.08-.14.08H3.22a.2.2 0 0 1-.18-.11L1.39 7.67a.4.4 0 0 1-.05-.22V6.16a.3.3 0 0 1 .15-.26c.23-.12.44-.28.66-.4.14-.08.15-.14.06-.27q-.3-.47-.58-.97c-.1-.19-.26-.16-.4-.14s-.08.17-.08.25v5.79q0 .33-.34.33H.18c-.13 0-.18-.03-.18-.19V3.12q-.01-.2.18-.18h1.95q.17 0 .26.15l1.59 2.63c0 .11-.1.13-.16.17q-.65.4-1.34.77c-.18.1-.15.18-.07.31l1.07 1.79z"/><path fill="#ff4040" d="m7.53 9.91-.09.13c-.13.37-.38.47-.76.45-.59-.04-1.18 0-1.78 0-.08 0-.17.02-.24-.06l-.03-.09-1.98-3.3c-.09-.15-.09-.22.08-.31q.64-.34 1.27-.71.16-.09.33-.09h2.68q.18-.01.26.14.36.63.74 1.22c.14.2.08.28-.11.39L5.5 9.05c-.06.03-.15.04-.13.14s.11.1.19.1h.54q.22.02.19-.2c0-.11-.02-.21.11-.28l1.38-.8c-.09.66.16 1.31-.25 1.9M6.27 7.19v-.04H4.13l.51.85c.06.1.11.06.17.02z"/><path fill="#ff4040" d="m11.09 7.09-.51.97c-.07.13-.02.23.05.34l1.27 2.08h-1.38c-.08 0-.09-.08-.12-.13l-.83-1.34-.73 1.28a.3.3 0 0 1-.35.2H7.4c.07-.22.24-.37.29-.57l.93-1.59a.3.3 0 0 0 0-.35L7.41 5.99c.12-.07.25 0 .35-.06l.87.01q.23-.01.34.19l.58.91c.07.11.12.15.2 0q.29-.52.61-1.03a.1.1 0 0 1 .1 0s.03.07.05.11q.32.48.59.99Z"/><path fill="#ff4040" d="m15.76 5.11.24-.33V2.33c-.11-.03-.14.06-.18.12l-.39.67-1.54 2.6-.07.09c-.17.41-.45.76-.65 1.16l-.21.36a1 1 0 0 1-.27-.37l-.58-.91q-.04-.11-.18-.12h-1.25c-.06 0-.11 0-.1.08q.38.48.65 1.04l.67 1.05q.08.14-.01.26l-.46.79c-.03.05-.09.09-.05.17l.72 1.14.84-1.39 1.13 1.89.57.93.04.06.63 1.05.2.34q.16.28.47.35v-2.07l-1.15-1.88-.81-1.35a.3.3 0 0 1-.01-.32l1.74-2.95Z"/></svg>