<svg xmlns="http://www.w3.org/2000/svg" viewBox="0 0 16 16"><path fill="#40ffff" d="M8.79 13.03q.1-.21.24-.39l-.69.12c-.5.05-.96.18-1.32.29q-.25.1-.58.11h-.13a1.56 1.56 0 0 1-1.42-1.68v-.92A5.57 5.57 0 0 1 10.44 5H16a2 2 0 0 0-2-2H8L6.59 1.59A2 2 0 0 0 5.18 1H2.01A2 2 0 0 0 0 3v10c0 1.1.9 2 2 2h6.91a2.2 2.2 0 0 1-.13-1.97Z"/><path fill="#40ffff" d="M5.89 10.56v1c-.03.31.2.57.51.6q.14.01.27-.05c.39-.11.94-.28 1.5-.33 5-.89 4.22-1.28 3.83-1.5-.39-.28-1.06-.83 1-1.22 1.06-.22 2.17-.33 3-.39V6h-5.56a4.56 4.56 0 0 0-4.56 4.56"/><path fill="#6060ff" d="M15.44 9.28c-3.22.83 1 1.61-2.06 2.5-1.33.33-4.67.83-3.56 2.83A3.6 3.6 0 0 0 12.38 16c3.33-.78 3.78-3.89 3.56-6.89l-.56.17z"/></svg>