<svg xmlns="http://www.w3.org/2000/svg" viewBox="0 0 16 16"><path fill="#ff4040" d="M11.38 10.17a.23.23 0 0 1 .1-.32 5.27 5.27 0 0 0 1.97-7.16l-.11-.18A5.3 5.3 0 0 0 8.94 0H2.53a.24.24 0 0 0-.24.24v15.1h.35v.53h11.23c.18 0 .3-.19.22-.36z"/><path fill="#ffa040" d="m10.83 3.37-.02-.04-1.13 1.61c-.51-.6-.87-1.45-.52-2.27.62-1.46 3.13-1.18 4.28 0l-.11-.18-.15-.14.07.05q-.13-.14-.28-.26l-.24-.22q-.2-.14-.41-.25l-.25-.14q-.24-.1-.5-.17l-.22-.07q-.37-.08-.76-.08c-1.96 0-2.46.7-6.23 7.63-3.14 5.78-2.56 6.45-2.19 6.87q.07.09.18.15l-.03-.04c.37.26.9.23 1.25.03.17-.1.78-1.17 1.64-2.56.49-.79 1.06-1.69 1.67-2.57q.46-.66.94-1.28a15 15 0 0 1 2.71-2.77c1.46-1.22 1.46-1.09.27-3.32l.02.03Z"/></svg>