<svg xmlns="http://www.w3.org/2000/svg" viewBox="0 0 16 16"><path fill="#40ffff" fill-rule="evenodd" d="M8.18.01c.35.25.45.75.75 1-.25.45-.5.8-.85 1.15-3.35.15-5.7 2.3-5.9 5.5-.1 1.05.15 1.85.45 2.65l-1.25-.3c-.35.25-.55.6-.8.95A8 8 0 0 1 7.28.01z"/><path fill="#40ffff" fill-rule="evenodd" d="M8.73.06a8 8 0 0 1 6.66 11.05l-1.2.1c-.3-.35-.4-.85-.7-1.2 1.25-4-1.3-7.45-4.9-7.8.2-.4.5-.7.8-1-.2-.4-.5-.75-.65-1.15Z"/><path fill="#ff4040" fill-rule="evenodd" d="M12.35 6.76c-1.4 2.05-2.9 3.75-4.3 5.65-1.55-1.8-3-3.5-4.4-5.55.65-.8 1.55-1.55 2.25-2.35h4.25z"/><path fill="#40ffff" fill-rule="evenodd" d="m1.48 10.37 1.35.35c.95 1.65 2.4 3 4.8 3.15 2.85.15 4.7-1.5 5.65-3.5.25.35.4.8.6 1.2l1.3-.1c-1.4 2.6-3.75 4.75-7.75 4.5-3.4-.15-5.4-2.2-6.75-4.6l.75-1z"/></svg>