<svg xmlns="http://www.w3.org/2000/svg" viewBox="0 0 16 16"><path fill="#ff4040" d="M7.9 0C5.1 0 2.7 2.15 2.35 5h11.3c-.4-2.9-2.8-5-5.75-5M12 13.55c0 .6-.5 1.1-1.05 1.1h-.6a.4.4 0 0 1-.3-.15l-.75-.9a.4.4 0 0 0-.3-.15H6.9c-.15 0-.25 0-.3.15l-.7.9c-.05.1-.2.15-.3.15H5c-.6 0-1.1-.5-1.1-1.05v-2.2H2.6v2.2A2.4 2.4 0 0 0 5 16h6c1.3 0 2.4-1.1 2.4-2.4v-2.2h-1.35v2.2z"/><path fill="#ff4040" d="M6.33 12.6h3.34l.36.4.5-.45-.5-.6h-4l-.56.6.5.45zm8.07-5.75v-.5c0-.6-.5-1.05-1-1.05H2.6a1 1 0 0 0-1 1v.5q-.39.3-.4.75V8.9c0 .3.15.6.4.75v.5c0 .55.5 1 1 1h10.8c.5 0 1-.4 1-1v-.5c.25-.15.4-.45.4-.75V7.55a.8.8 0 0 0-.4-.7m-2 2.05H3.6c-.4 0-.75-.35-.75-.75s.35-.75.75-.75h8.8c.4 0 .75.35.75.75s-.35.75-.75.75"/></svg>