<svg xmlns="http://www.w3.org/2000/svg" viewBox="0 0 16 16"><path fill="#ff4040" d="M14 3H8L6.59 1.59A2 2 0 0 0 5.18 1H2.01A2 2 0 0 0 0 3v10c0 1.1.9 2 2 2h3.14a4 4 0 0 1-.15-.97l.14-3.2.1-.19c.99-1.99 1.3-2.61 1.65-2.81l2.03-1.91 2.68-.87c.2-.01 1.98-.13 2.93 0a3 3 0 0 1 1.48.61v-.67a2 2 0 0 0-2-2Z"/><path fill="#ff4040" fill-rule="evenodd" d="M15.94 7.31q-.27-1.05-1.56-1.25c-.88-.13-2.72 0-2.72 0l-2.22.75-2.06 1.94c-.06 0-.88 1.59-1.25 2.35L6 14.01c.06 1.91 1.44 1.97 2.03 2s7.41-.5 7.41-.5L16 8.04q.01-.36-.06-.72Z"/></svg>