<svg xmlns="http://www.w3.org/2000/svg" viewBox="0 0 16 16"><path fill="#ff4040" d="m4.99 14.03.14-3.2.1-.19c.99-1.99 1.3-2.61 1.65-2.81L7.77 7H5.45a2 2 0 0 0-1.9 1.37L2.01 13V7c0-1.1.9-2 2-2h11c.55 0 1-.45 1-1s-.45-1-1-1h-7L6.6 1.59A2 2 0 0 0 5.19 1H2.02C.9 1 0 1.9 0 3v10c0 1.1.9 2 2 2h3.14a4 4 0 0 1-.15-.97"/><path fill="#ff4040" fill-rule="evenodd" d="M15.94 7.31q-.27-1.05-1.56-1.25c-.88-.13-2.72 0-2.72 0l-2.22.75-2.06 1.94c-.06 0-.88 1.59-1.25 2.35L6 14.01c.06 1.91 1.44 1.97 2.03 2s7.41-.5 7.41-.5L16 8.04q.01-.36-.06-.72Z"/></svg>