<svg xmlns="http://www.w3.org/2000/svg" viewBox="0 0 16 16"><path d="M3.57 14.57V7.43A2.43 2.43 0 016 5h7.14c1.25 0 2.28.95 2.41 2.16.05 0 .1.03.14.05l.3-3.97c0-.4 0-.75-.1-1.15-.3-1.1-1.1-1.8-2.5-2-1.39-.2-4.34 0-4.34 0L5.5 1.29l-3.3 3.1c-.1 0-1.4 2.55-2 3.75L0 12.79c.1 3.05 2.3 3.15 3.25 3.2l.78-.02c-.28-.4-.46-.88-.46-1.4z" fill="#ff4040" fill-rule="evenodd"/><rect x="6.71" y="8.14" width="2.86" height="2.86" rx=".71" ry=".71" fill="#ff4040"/><rect x="6.71" y="11.71" width="2.86" height="2.14" rx=".71" ry=".71" fill="#ff4040"/><rect x="10.29" y="11" width="2.14" height="2.86" rx=".71" ry=".71" fill="#ff4040"/><rect x="10.29" y="8.14" width="2.14" height="2.14" rx=".71" ry=".71" fill="#ff4040"/><path d="M15.29 11.71c.39 0 .71-.32.71-.71s-.32-.71-.71-.71h-.71v-.71h.71c.39 0 .71-.32.71-.71s-.32-.71-.71-.71h-.71v-.71c0-.79-.64-1.43-1.43-1.43H6.01c-.79 0-1.43.64-1.43 1.43v7.14c0 .79.64 1.43 1.43 1.43h7.14c.79 0 1.43-.64 1.43-1.43v-.71h.71c.39 0 .71-.32.71-.71s-.32-.71-.71-.71h-.71v-.71h.71zm-2.86 2.86H6.72a.71.71 0 01-.71-.71V8.15c0-.39.32-.71.71-.71h5.71c.39 0 .71.32.71.71v5.71c0 .39-.32.71-.71.71z" fill="#ff4040"/></svg>