<svg xmlns="http://www.w3.org/2000/svg" viewBox="0 0 16 16"><path d="M8.21 15.57c-.45-.3-.71-.82-.71-1.39v-.36c0-.26.07-.5.2-.71a1.7 1.7 0 01-.2-.81v-.36c0-.26.07-.5.2-.71a1.7 1.7 0 01-.2-.81v-.36c0-.3.1-.57.27-.79-.2-.39-.27-.77-.27-1.09 0-.67.28-1.64 1.59-2.41.88-.52 1.94-.78 3.16-.78s2.28.26 3.16.78c.14.08.26.17.38.26L16 3.24c0-.4 0-.75-.1-1.15-.3-1.1-1.1-1.8-2.5-2-1.4-.2-4.35 0-4.35 0L5.5 1.29l-3.3 3.1c-.1 0-1.4 2.55-2 3.75L0 12.79c.1 3.05 2.3 3.15 3.25 3.2.41.02 2.71-.13 5.17-.3a3.52 3.52 0 01-.2-.12z" fill="#ff4040" fill-rule="evenodd"/><path d="M8.5 14.18v-.36c0-.25.22-.4.4-.28 2.41 1.63 4.29 1.63 6.7 0 .18-.12.4.03.4.28v.36c0 .23-.1.45-.27.56-2.49 1.68-4.47 1.68-6.95 0-.17-.11-.27-.33-.27-.56z" fill="#ff4040"/><path d="M8.5 12.31v-.36c0-.25.22-.4.4-.28 2.41 1.63 4.29 1.63 6.7 0 .18-.12.4.03.4.28v.36c0 .23-.1.45-.27.56-2.49 1.68-4.47 1.68-6.95 0-.17-.11-.27-.33-.27-.56z" fill="#ff4040"/><path d="M8.5 10.43v-.36c0-.25.22-.4.4-.28 2.41 1.63 4.29 1.63 6.7 0 .18-.12.4.03.4.28v.36c0 .23-.1.45-.27.56-2.49 1.68-4.47 1.68-6.95 0-.17-.11-.27-.33-.27-.56z" fill="#ff4040"/><path d="M12.25 10.38c1.04 0 1.93-.21 2.66-.64S16 8.8 16 8.2s-.36-1.12-1.09-1.54-1.61-.64-2.66-.64-1.93.21-2.66.64S8.5 7.6 8.5 8.2s.36 1.12 1.09 1.54 1.61.64 2.66.64z" fill="#ff4040"/></svg>