<svg xmlns="http://www.w3.org/2000/svg" viewBox="0 0 16 16"><path fill="#ff4040" fill-rule="evenodd" d="M6.25 10.31A5.43 5.43 0 0 1 11.55 5c1.45 0 2.82.53 3.85 1.55q.18.19.32.39L16 3.25c0-.4 0-.75-.1-1.15-.3-1.1-1.1-1.8-2.5-2C12-.11 9.05.09 9.05.09L5.5 1.29l-3.3 3.1c-.1 0-1.4 2.55-2 3.75L0 12.79c.1 3.05 2.3 3.15 3.25 3.2.51.03 3.95-.21 6.99-.43a5.4 5.4 0 0 1-3.99-5.25"/><path fill="#ff4040" d="M11.56 6a4.38 4.38 0 0 0-.09 8.76q.13.02.15.15v.77c0 .18.15.33.33.31 2.26-.22 4.05-2.65 4.05-5.62a4.4 4.4 0 0 0-4.44-4.38Zm.69 7.19c0 .17-.14.31-.31.31h-.63a.3.3 0 0 1-.31-.31v-.63c0-.17.14-.31.31-.31h.63c.17 0 .31.14.31.31zm-.63-1.56h-.31a.3.3 0 0 1-.31-.31v-.63c0-.17.14-.31.31-.31h.31a.94.94 0 1 0-.91-1.17.3.3 0 0 1-.3.23h-.64a.32.32 0 0 1-.31-.37 2.19 2.19 0 1 1 2.15 2.56Z"/></svg>