<svg xmlns="http://www.w3.org/2000/svg" viewBox="0 0 16 16"><path fill="#ff4040" fill-rule="evenodd" d="M5.06 11.85a1.6 1.6 0 0 1 .55-1.46c-.37-.3-.61-.76-.61-1.27v-2.5a1.62 1.62 0 0 1 3.01-.83 6 6 0 0 1 7.68 1.49l.3-4.04c0-.4 0-.75-.1-1.15-.3-1.1-1.1-1.8-2.5-2-1.39-.2-4.34 0-4.34 0L5.5 1.29l-3.3 3.1c-.1 0-1.4 2.55-2 3.75L0 12.79c.1 3.05 2.3 3.15 3.25 3.2.36.02 2.1-.09 4.15-.23a6 6 0 0 1-2.34-3.91"/><path fill="#40a0ff" d="M15.9 9.98A5 5 0 0 0 7.25 7.7V6.62c0-.34-.28-.62-.62-.62s-.62.28-.62.62v2.5c0 .34.28.62.62.62h2.5c.35 0 .62-.28.62-.62s-.28-.62-.62-.62h-.9a3.73 3.73 0 0 1 6.5 2.05 3.75 3.75 0 0 1-7.43.98.6.6 0 0 0-.61-.53.62.62 0 0 0-.62.71 5.01 5.01 0 1 0 9.85-1.73Z"/><path fill="#40a0ff" d="M11.72 10.83a.3.3 0 0 1-.09-.22V9.12a.6.6 0 0 0-.62-.62.6.6 0 0 0-.62.62v1.87q0 .26.18.44l1.33 1.33c.24.24.64.24.88 0a.63.63 0 0 0 0-.88l-1.05-1.05Z"/></svg>