<svg xmlns="http://www.w3.org/2000/svg" viewBox="0 0 16 16"><path fill="#ff4040" fill-rule="evenodd" d="M5 14.75v-.62c0-1.04.71-1.92 1.68-2.18l1.91-2.72a2.3 2.3 0 0 1-.46-1.35v-.62a2.25 2.25 0 0 1 2.25-2.25h1.25a2.25 2.25 0 0 1 2.25 2.25v.62q-.01.76-.46 1.35l1.91 2.72h.02l.66-8.71c0-.4 0-.75-.1-1.15-.3-1.1-1.1-1.8-2.5-2-1.41-.2-4.36 0-4.36 0L5.5 1.29l-3.3 3.1c-.1 0-1.4 2.55-2 3.75L0 12.79c.1 3.05 2.3 3.15 3.25 3.2.23.01 1.02-.03 2.08-.09q-.31-.52-.33-1.15"/><path fill="#ff4040" d="m14.75 12.88-2.69-3.83c.47-.18.81-.63.81-1.17v-.62c0-.69-.56-1.25-1.25-1.25h-1.25c-.69 0-1.25.56-1.25 1.25v.62c0 .53.34.99.81 1.17l-2.69 3.83c-.69 0-1.25.56-1.25 1.25v.62c0 .69.56 1.25 1.25 1.25h1.25c.69 0 1.25-.56 1.25-1.25v-.62c0-.6-.43-1.1-.99-1.22l2.24-3.2 2.24 3.2c-.56.12-.99.62-.99 1.22v.62c0 .69.56 1.25 1.25 1.25h1.25c.69 0 1.25-.56 1.25-1.25v-.62c0-.69-.56-1.25-1.25-1.25Z"/></svg>