<svg xmlns="http://www.w3.org/2000/svg" viewBox="0 0 32 32"><path d="M13.6 31.5a6.8 6.8 0 0 1-.2-8.5 6.9 6.9 0 0 1 9.6-9.6 6.8 6.8 0 0 1 8.5.2l.5-7c0-.8 0-1.6-.2-2.3-.6-2.2-2.2-3.7-5-4.1s-8.7 0-8.7 0L18 0l-7 2.6-6.6 6.1c-.2.1-2.8 5.1-4 7.5v.4L0 25.5C.2 31.8 4.6 32 6.5 32s7-.5 7-.5Z" fill="#f66" fill-rule="evenodd"/><path d="M29.7 23a4.9 4.9 0 1 0-6.7-6.7 4.9 4.9 0 1 0-6.7 6.7 4.9 4.9 0 1 0 6.7 6.7 4.9 4.9 0 1 0 6.7-6.7ZM23 24.5c-.4-.6-.9-1.1-1.5-1.5.6-.4 1.1-.9 1.5-1.5.4.6.9 1.1 1.5 1.5-.6.4-1.1.9-1.5 1.5Z" fill="#f66"/></svg>