<svg xmlns="http://www.w3.org/2000/svg" viewBox="0 0 16 16"><path fill="#ff4040" fill-rule="evenodd" d="M5 11a6 6 0 0 1 10.7-3.71l.3-4.04c0-.4 0-.75-.1-1.15-.3-1.1-1.1-1.8-2.5-2C12-.11 9.05.09 9.05.09L5.5 1.29l-3.3 3.1c-.1 0-1.4 2.55-2 3.75L0 12.79c.1 3.05 2.3 3.15 3.25 3.2.35.02 2.09-.09 4.13-.23A6 6 0 0 1 5 11"/><path fill="#ff4040" d="M11 6a5 5 0 1 0 0 10 5 5 0 0 0 0-10m2.5 5.63h-1.87v1.87c0 .35-.28.62-.62.62s-.62-.28-.62-.62v-1.87H8.52c-.35 0-.62-.28-.62-.62s.28-.62.62-.62h1.87V8.52c0-.35.28-.62.62-.62s.62.28.62.62v1.87h1.87c.35 0 .62.28.62.62s-.28.62-.62.62"/></svg>