<svg xmlns="http://www.w3.org/2000/svg" viewBox="0 0 16 16"><path fill="#ff4040" fill-rule="evenodd" d="M2.28 15.55a2.6 2.6 0 0 1 .25-2.75l2.44-3.25a2.6 2.6 0 0 1 2.86-.93l.96-1.91a2.63 2.63 0 0 1 4.7 0l1.97 3.94.56-7.4c0-.4 0-.75-.1-1.15-.3-1.1-1.1-1.8-2.5-2C12-.11 9.05.09 9.05.09L5.5 1.29l-3.3 3.1c-.1 0-1.4 2.55-2 3.75L0 12.79c.08 2.43 1.49 2.99 2.54 3.14q-.14-.17-.26-.38"/><path fill="#ff4040" d="m15.83 13.65-3.25-6.5a1.63 1.63 0 0 0-2.91 0l-.62 1.24 3.53 4.69a.81.81 0 1 1-1.3.98L8.2 9.98c-.7-.7-1.86-.62-2.45.17L3.31 13.4a1.63 1.63 0 0 0 1.3 2.6h9.75a1.62 1.62 0 0 0 1.45-2.35Z"/></svg>