<svg xmlns="http://www.w3.org/2000/svg" viewBox="0 0 16 16"><path fill="#ff4040" fill-rule="evenodd" d="M5 15.38v-1.25c0-.51.24-.95.6-1.25-.36-.3-.6-.74-.6-1.25v-1.25c0-.51.24-.95.6-1.25-.36-.3-.6-.74-.6-1.25V6.63c0-.9.73-1.62 1.62-1.62h1.25c.51 0 .95.24 1.25.6.3-.36.74-.6 1.25-.6h1.25c.51 0 .95.24 1.25.6.3-.36.74-.6 1.25-.6h1.25q.25 0 .49.08L16 3.25c0-.4 0-.75-.1-1.15-.3-1.1-1.1-1.8-2.5-2C12-.11 9.05.09 9.05.09L5.5 1.29l-3.3 3.1c-.1 0-1.4 2.55-2 3.75L0 12.79c.1 3.05 2.3 3.15 3.25 3.2.21.01.9-.02 1.85-.08q-.1-.25-.1-.54Z"/><rect width="2.5" height="2.5" x="6" y="6" fill="#ff4040" rx=".62" ry=".62"/><rect width="2.5" height="2.5" x="6" y="6" fill="#ff4040" rx=".62" ry=".62"/><rect width="2.5" height="2.5" x="6" y="9.75" fill="#ff4040" rx=".62" ry=".62"/><rect width="2.5" height="2.5" x="6" y="13.5" fill="#ff4040" rx=".62" ry=".62"/><rect width="2.5" height="2.5" x="13.5" y="6" fill="#ff4040" rx=".62" ry=".62"/><rect width="2.5" height="2.5" x="13.5" y="6" fill="#ff4040" rx=".62" ry=".62"/><rect width="2.5" height="2.5" x="13.5" y="9.75" fill="#ff4040" rx=".62" ry=".62"/><rect width="2.5" height="2.5" x="13.5" y="13.5" fill="#ff4040" rx=".62" ry=".62"/><rect width="2.5" height="2.5" x="9.75" y="6" fill="#ff4040" rx=".62" ry=".62"/><rect width="2.5" height="2.5" x="9.75" y="6" fill="#ff4040" rx=".62" ry=".62"/><rect width="2.5" height="2.5" x="9.75" y="9.75" fill="#ff4040" rx=".62" ry=".62"/><rect width="2.5" height="2.5" x="9.75" y="13.5" fill="#ff4040" rx=".62" ry=".62"/></svg>