<svg xmlns="http://www.w3.org/2000/svg" viewBox="0 0 16 16"><path fill="#ff4040" fill-rule="evenodd" d="M5 14.75v-7.5A2.25 2.25 0 0 1 7.25 5h7.5q.6.01 1.09.31L16 3.25c0-.4 0-.75-.1-1.15-.3-1.1-1.1-1.8-2.5-2C12-.11 9.05.09 9.05.09L5.5 1.29l-3.3 3.1c-.1 0-1.4 2.55-2 3.75L0 12.79c.1 3.05 2.3 3.15 3.25 3.2.23.01 1.02-.03 2.08-.09q-.31-.52-.33-1.15"/><circle cx="11" cy="11" r=".98" fill="#ff4040"/><path fill="#ff4040" d="M10.51 10.15a.97.97 0 0 0-.36 1.33c.27.47.87.63 1.33.36a.97.97 0 0 0 .36-1.33.97.97 0 0 0-1.33-.36"/><path fill="#ff4040" d="M14.75 6h-7.5C6.56 6 6 6.56 6 7.25v7.5c0 .69.56 1.25 1.25 1.25h7.5c.69 0 1.25-.56 1.25-1.25v-7.5C16 6.56 15.44 6 14.75 6m-1.46 5.2.56.33c.19.11.25.35.14.53l-.59 1.01a.4.4 0 0 1-.53.14l-.56-.33c-.19-.11-.34-.02-.34.2v.65a.4.4 0 0 1-.39.39h-1.17a.4.4 0 0 1-.39-.39v-.65c0-.21-.15-.3-.34-.2l-.56.33a.4.4 0 0 1-.53-.14L8 12.06a.4.4 0 0 1 .14-.53l.56-.33c.19-.11.19-.28 0-.39l-.56-.33A.4.4 0 0 1 8 9.95l.59-1.01a.4.4 0 0 1 .53-.14l.56.33c.19.11.34.02.34-.2v-.65a.4.4 0 0 1 .39-.39h1.17a.4.4 0 0 1 .39.39v.65c0 .21.15.3.34.2l.56-.33a.4.4 0 0 1 .53.14l.59 1.01c.11.19.04.43-.14.53l-.56.33c-.19.11-.19.28 0 .39"/></svg>