<svg xmlns="http://www.w3.org/2000/svg" viewBox="0 0 16 16"><path fill="#ff4040" fill-rule="evenodd" d="M5.87 15.65c-.53-.3-.87-.87-.87-1.5v-1.11q.01-.46.28-.81A1.7 1.7 0 0 1 5 11.3v-1.11q.01-.54.35-.91A2 2 0 0 1 5 8.15c0-2.06 3.02-3.14 6-3.14 1.81 0 3.63.41 4.78 1.18L16 3.25c0-.4 0-.75-.1-1.15-.3-1.1-1.1-1.8-2.5-2C12-.11 9.05.09 9.05.09L5.5 1.29l-3.3 3.1c-.1 0-1.4 2.55-2 3.75L0 12.79c.1 3.05 2.3 3.15 3.25 3.2.29.02 1.47-.05 2.98-.15z"/><path fill="#ff4040" d="M16 14.16a.7.7 0 0 1-.36.62 9.5 9.5 0 0 1-9.28 0 .7.7 0 0 1-.36-.62v-1.11c0-.27.28-.44.52-.32a9.5 9.5 0 0 0 8.95.01c.24-.13.53.03.53.3z"/><path fill="#ff4040" d="M16 11.31a.7.7 0 0 1-.36.62 9.5 9.5 0 0 1-9.28 0 .7.7 0 0 1-.36-.62V10.2c0-.27.28-.44.52-.32a9.5 9.5 0 0 0 8.95.01c.24-.13.53.03.53.3z"/><ellipse cx="11" cy="8.14" fill="#ff4040" rx="5" ry="2.14"/></svg>