<svg xmlns="http://www.w3.org/2000/svg" viewBox="0 0 16 16"><path fill="#ff4040" fill-rule="evenodd" d="M7.5 14.75v-7.5A2.25 2.25 0 0 1 9.75 5h3.23c.6 0 1.17.23 1.59.66l1.16 1.16.27-3.57c0-.4 0-.75-.1-1.15-.3-1.1-1.1-1.8-2.5-2C12-.11 9.05.09 9.05.09L5.5 1.29l-3.3 3.1c-.1 0-1.4 2.55-2 3.75L0 12.79c.1 3.05 2.3 3.15 3.25 3.2.38.02 2.31-.1 4.51-.25a2 2 0 0 1-.26-.99"/><path fill="#ff4040" d="m15.63 8.13-1.77-1.77a1.3 1.3 0 0 0-.88-.37H9.75c-.69 0-1.25.56-1.25 1.25v7.5c0 .69.56 1.25 1.25 1.25h5c.69 0 1.25-.56 1.25-1.25V9.01c0-.33-.13-.65-.37-.88m-1.51 1.62h-1.25a.6.6 0 0 1-.62-.62V7.88c0-.56.67-.84 1.07-.44l1.25 1.25c.39.39.11 1.07-.44 1.07Z"/></svg>