<svg xmlns="http://www.w3.org/2000/svg" viewBox="0 0 16 16"><path d="M11.98 15.38v-1.56a.25.25 0 00-.25-.25h-.04v.13a1.64 1.64 0 01-2.78 1.15l-1.77-1.77a1.64 1.64 0 010-2.3l1.77-1.77c.35-.35.83-.5 1.3-.47-.04-.46.11-.94.47-1.3l1.77-1.77a1.64 1.64 0 012.3 0l1 1 .24-3.23c0-.4 0-.75-.1-1.15-.3-1.1-1.1-1.8-2.5-2-1.39-.2-4.34 0-4.34 0L5.5 1.29l-3.3 3.1c-.1 0-1.4 2.55-2 3.75L0 12.79c.1 3.05 2.3 3.15 3.25 3.2.62.03 5.44-.32 8.74-.56v-.06zM15.49 10c-.09 0-.17.02-.26.01v3.42l.26-3.44z" fill="#ff4040" fill-rule="evenodd"/><path d="M15.82 7.95l-1.77-1.77a.63.63 0 00-.88 0L11.4 7.95a.63.63 0 000 .88c.24.24.64.24.88 0l.7-.7v3.53a2.52 2.52 0 00-1.25-.35H9.81l.7-.71a.63.63 0 000-.88.63.63 0 00-.88 0l-1.77 1.77a.63.63 0 000 .88l1.77 1.77c.24.24.64.24.88 0a.63.63 0 000-.88l-.7-.69h1.92c.69 0 1.25.56 1.25 1.25v1.56c0 .35.28.63.63.63s.63-.28.63-.63V8.14l.7.7c.24.24.64.24.88 0a.63.63 0 000-.88z" fill="#ff4040"/></svg>