<svg xmlns="http://www.w3.org/2000/svg" viewBox="0 0 16 16"><path fill="#ff4040" fill-rule="evenodd" d="M2 14.38v-6.5a2.6 2.6 0 0 1 2.62-2.62h9.75c.54 0 1.03.18 1.44.45L16 3.25c0-.4 0-.75-.1-1.15-.3-1.1-1.1-1.8-2.5-2C12-.11 9.05.09 9.05.09L5.5 1.29l-3.3 3.1c-.1 0-1.4 2.55-2 3.75L0 12.79c.08 2.42 1.48 2.98 2.53 3.14A2.6 2.6 0 0 1 2 14.38"/><path fill="#ff4040" d="M14.38 6.25H4.63c-.89 0-1.62.73-1.62 1.62v6.5c0 .89.73 1.62 1.62 1.62h9.75c.89 0 1.62-.73 1.62-1.62v-6.5c0-.89-.73-1.62-1.62-1.62m-.52 3.19L9.8 11.07a.8.8 0 0 1-.6 0L5.14 9.44a.8.8 0 0 1-.45-1.06.8.8 0 0 1 1.06-.45l3.61 1.44q.15.06.3 0l3.61-1.44a.8.8 0 0 1 1.06.45.8.8 0 0 1-.45 1.06Z"/></svg>