<svg xmlns="http://www.w3.org/2000/svg" viewBox="0 0 16 16"><path d="M8.75 15.38v-3.91L5.81 8.98c-.73-.61-1-1.59-.67-2.49a2.23 2.23 0 012.12-1.48h7.5c.4 0 .77.12 1.1.31l.16-2.06c0-.4 0-.75-.1-1.15-.3-1.1-1.1-1.8-2.5-2C12-.11 9.05.09 9.05.09L5.5 1.29l-3.3 3.1c-.1 0-1.4 2.55-2 3.75L0 12.79c.1 3.05 2.3 3.15 3.25 3.2.43.02 2.94-.14 5.53-.33a1.36 1.36 0 01-.03-.29zm4.5-3.92v3.87l1.85-.14.43-5.65-2.28 1.92z" fill="#ff4040" fill-rule="evenodd"/><path d="M14.75 6h-7.5a1.25 1.25 0 00-.8 2.21L9.75 11v4.38c0 .34.28.62.62.62h1.25c.34 0 .62-.28.62-.62V11l3.3-2.79c.9-.75.37-2.21-.8-2.21z" fill="#ff4040"/></svg>