<svg xmlns="http://www.w3.org/2000/svg" viewBox="0 0 16 16"><path fill="#ffa040" d="M5 14.75v-2.8c-.23-.08-.6-.02-1.27.11l-.5-.5H5V9.13c0-1.19.93-2.16 2.11-2.24h-.38v-1c.27.02.96-.06 1.58-.05a2.24 2.24 0 0 1 3.73.35 2.1 2.1 0 0 0-2.16-2.11H3.63c.85-.95 2-1.6 3.26-1.8v-.05q1.1 1.15 2.15 0c1.8.3 3.26 1.45 4.11 2.95-.66 1.15-.76 1.33.01 1.71a2.25 2.25 0 0 1 1.97 2.22v.59q.17.04.33.1c.54-.21.4-.38-.31-1.01v-.2c.2-.15 1.15-.5.7-.8l-.65-.4v-.2c.9-.8.9-.85-.25-1.2l-.05-.2c.75-.95.7-1-.5-1.1l-.05-.2c.5-1.05.5-1.1-.7-1l-.15-.15c.35-1.15.3-1.2-.85-.9l-.15-.1c.1-1.2.05-1.25-1-.7l-.2-.1c-.1-1.15-.2-1.2-1.1-.45l-.2-.05C9.65-.11 9.55-.11 8.8.79h-.2C8-.26 7.95-.26 7.4.79h-.25c-.75-.9-.8-.9-1.15.25l-.2.05c-.95-.75-1-.7-1.15.5l-.15.05c-1.05-.5-1.1-.5-1 .7l-.2.1c-1.1-.3-1.15-.25-.8.9l-.1.15c-1.2-.1-1.25-.05-.7 1l-.1.2c-1.15.1-1.2.15-.5 1.1v.2c-1.15.35-1.15.45-.25 1.2v.2c-1.05.55-1.05.65 0 1.2v.2c-.95.8-.95.85.15 1.2v.2c-.7.95-.65 1 .5 1.1l.1.2c-.55 1.05-.5 1.1.7 1l.1.2c-.3 1.1-.25 1.15.85.85l.2.1c-.15 1.2-.05 1.25 1 .7l.15.1c.1.8.17 1.06.52.91q-.09-.3-.09-.62ZM2.38 9.7a6 6 0 0 1-.15-2.5l.95-.45h-.05c.35-.15.2-.6 0-.9h1v3.86z"/><path fill="#ffa040" d="M14.75 10.69h-.62V9.13c0-.69-.56-1.25-1.25-1.25h-1.56v-.62a1.25 1.25 0 0 0-2.5 0v.62H7.26c-.69 0-1.25.56-1.25 1.25v1.56h.62a1.25 1.25 0 0 1 0 2.5h-.62v1.56c0 .69.56 1.25 1.25 1.25h1.56v-.63a1.25 1.25 0 0 1 2.5 0V16h1.56c.69 0 1.25-.56 1.25-1.25v-1.56h.62a1.25 1.25 0 0 0 0-2.5"/></svg>