<svg xmlns="http://www.w3.org/2000/svg" viewBox="0 0 32 32"><path fill="#ffb466" d="M15.9 27.7c-1.8 0-3.5-.4-5-1.1-.3-3.1-.3-3.1-3.4-2.5l-1-1H16v-3.8h-2.4v-2H16v-3.4h-2.4v-2.2H16v-1.3l2.5 1.6c.2 0 .3.1.4.3l4.1 2.6c2.7-2.4.5-6.8-3.1-6.8H7.3c1.7-1.8 4-3.1 6.5-3.6 2.2 2.3 2.2 2.3 4.3 0 3.5.6 6.5 2.9 8.2 5.9-1.6 2.8-1.6 2.8 1.3 4.1v2.4s-1.2-.1-1.3.2l4.3 2.7c1.5-.5 1.3-.8-.2-2.1v-.5c.3-.3 2.2-.9 1.4-1.6l-1.4-.8v-.4c1.8-1.5 1.7-1.7-.5-2.4l-.1-.4c1.5-1.8 1.4-2-1-2.2 0-.1 0-.3-.2-.4 1.1-2.1 1-2.2-1.3-2l-.3-.3c.7-2.3.6-2.4-1.7-1.7l-.3-.3c.2-2.4 0-2.5-2-1.4-.1 0-.3 0-.4-.2-.3-2.3-.4-2.4-2.2-.9l-.4-.1c-.8-2.3-.9-2.3-2.4-.5h-.4c-1.2-2-1.3-2-2.4 0h-.5c-1.5-1.8-1.6-1.8-2.3.5l-.4.1C9.7.7 9.6.8 9.3 3.2l-.4.1c-2-1-2.2-1-2 1.4l-.3.3C4.3 4.3 4.2 4.4 5 6.7l-.3.3c-2.3-.2-2.4-.1-1.3 2l-.2.4c-2.4.2-2.4.4-1 2.2v.4c-2.3.7-2.3.9-.5 2.4v.4c-2.2 1.2-2.1 1.3 0 2.4v.5C-.3 19.2-.2 19.3 2 20l.2.4c-1.5 1.9-1.5 2 .9 2.3l.2.3c-1.1 2.1-1 2.2 1.3 2l.3.4c-.7 2.3-.6 2.3 1.7 1.7l.3.2c-.2 2.4 0 2.5 2 1.4l.4.2c.3 2.4.4 2.4 2.3 1h.4c.7 2.3.8 2.3 2.3.5h.5c.4 1 .8 1.4 1 1.6v-4.2ZM4.7 19.4c-.4-1.6-.6-3.3-.3-5l1.9-.9c.7-.4.4-1.2 0-1.8h2v7.6H4.8Z"/><path fill="#6f6" d="M17.9 14v18L32 23l-14.1-9Z"/></svg>