<svg xmlns="http://www.w3.org/2000/svg" viewBox="0 0 16 16"><path fill="#ffa040" d="m15.85 7.8-.65-.4v-.2c.9-.8.9-.85-.25-1.2l-.05-.2c.75-.95.7-1-.5-1.1l-.05-.2c.5-1.05.5-1.1-.7-1l-.15-.15c.35-1.15.3-1.2-.85-.9l-.15-.1c.1-1.2.05-1.25-1-.7l-.2-.1c-.1-1.15-.2-1.2-1.1-.45l-.2-.05C9.65-.1 9.55-.1 8.8.8h-.2C8-.25 7.95-.25 7.4.8h-.25c-.75-.9-.8-.9-1.15.25l-.2.05c-.95-.75-1-.7-1.15.5l-.15.05c-1.05-.5-1.1-.5-1 .7l-.2.1c-1.1-.3-1.15-.25-.8.9l-.1.15c-1.2-.1-1.25-.05-.7 1l-.1.2c-1.15.1-1.2.15-.5 1.1V6c-1.15.35-1.15.45-.25 1.2v.2c-1.05.55-1.05.65 0 1.2v.2c-.95.8-.95.85.15 1.2v.2c-.7.95-.65 1 .5 1.1l.1.2c-.55 1.05-.5 1.1.7 1l.1.2c-.3 1.1-.25 1.15.85.85l.2.1c-.15 1.2-.05 1.25 1 .7l.15.1c.15 1.15.2 1.2 1.15.5h.2c.35 1.15.4 1.15 1.15.25h.25c.55 1.05.65 1.05 1.2 0h.2c.75.9.85.9 1.2-.25h.2c.9.7 1 .65 1.1-.5l.2-.1c1.05.5 1.1.5 1-.7l.15-.1c1.15.3 1.2.25.85-.85l.15-.2c1.2.1 1.25.05.7-1l.1-.2c1.15-.1 1.2-.15.45-1.1l.05-.2c1.15-.35 1.15-.4.25-1.2v-.2c.2-.15 1.15-.5.7-.8M2.38 9.7a6 6 0 0 1-.15-2.5l.95-.45h-.05c.35-.15.2-.6 0-.9h1v3.86zm9.86 2.31c-1.55-.25-1.5-.25-1.75 1.3a6 6 0 0 1-5.01 0q-.2-1.55-1.75-1.25l-.5-.5h4.86c.15 0 0-1.75.05-1.8.05-.15-1.35 0-1.35-.05v-1.1h1.45c1.55 0 .65 2.85 2.1 2.9h2.35zM6.73 6.9v-1c.55.05 2.8-.35 2.75.5-.1.9-2.15.4-2.75.5m7.06 1.6s-.65-.05-.65.1c.25 1-.95 1.6-1.35.6-.1-.65-.5-1.2-.85-1.4 2.05-1 1-3.76-1.05-3.71H3.63c.85-.95 2-1.6 3.26-1.8v-.05q1.1 1.15 2.15 0c1.8.3 3.26 1.45 4.11 2.95-.8 1.4-.8 1.35.65 2z"/></svg>