<svg xmlns="http://www.w3.org/2000/svg" viewBox="0 0 16 16"><path fill="#ffa040" d="M6.46 14.72a1 1 0 0 1-.45-.38 1 1 0 0 1-.2-.57q-.23-.15-.37-.46a1 1 0 0 1-.08-.6 1.1 1.1 0 0 1-.22-1.15 1.1 1.1 0 0 1 .02-1.14 1 1 0 0 1-.04-.62 1 1 0 0 1 .27-.51q-.05-.29.08-.6.13-.3.36-.45a1 1 0 0 1 .19-.56q.2-.3.47-.4.03-.13.11-.27H5.44a2 2 0 0 0-1.9 1.37L2 13.01v-6c0-1.1.9-2 2-2h11c.55 0 1-.45 1-1s-.45-1-1-1H8L6.59 1.6a2 2 0 0 0-1.41-.59H2.01A2 2 0 0 0 0 3v10c0 1.1.9 2 2 2h4.57a1 1 0 0 1-.11-.28"/><path fill="#ffa040" d="m15.93 10.87-.41-.25v-.13c.56-.5.56-.53-.16-.75l-.03-.13c.47-.59.44-.63-.31-.69l-.03-.13c.31-.66.31-.69-.44-.63l-.09-.09c.22-.72.19-.75-.53-.56l-.09-.06c.06-.75.03-.78-.63-.44l-.13-.06c-.06-.72-.13-.75-.69-.28l-.13-.03c-.22-.72-.28-.72-.75-.16h-.13c-.38-.66-.41-.66-.75 0h-.16c-.47-.56-.5-.56-.72.16l-.13.03c-.59-.47-.63-.44-.72.31l-.09.03c-.66-.31-.69-.31-.63.44l-.13.06c-.69-.19-.72-.16-.5.56l-.06.09c-.75-.06-.78-.03-.44.63l-.06.13c-.72.06-.75.09-.31.69v.13c-.72.22-.72.28-.16.75v.13c-.66.34-.66.41 0 .75v.13c-.59.5-.59.53.09.75v.13c-.44.59-.41.63.31.69l.06.13c-.34.66-.31.69.44.63l.06.13c-.19.69-.16.72.53.53l.13.06c-.09.75-.03.78.63.44l.09.06c.09.72.13.75.72.31h.13c.22.72.25.72.72.16h.16c.34.66.41.66.75 0h.13c.47.56.53.56.75-.16h.13c.56.44.63.41.69-.31l.13-.06c.66.31.69.31.63-.44l.09-.06c.72.19.75.16.53-.53l.09-.13c.75.06.78.03.44-.63l.06-.13c.72-.06.75-.09.28-.69l.03-.13c.72-.22.72-.25.16-.75v-.13c.13-.09.72-.31.44-.5Zm-8.42 1.19a4 4 0 0 1-.09-1.56l.59-.28h-.03c.22-.09.13-.38 0-.56h.63v2.41zm6.16 1.44c-.97-.16-.94-.16-1.1.81a3.8 3.8 0 0 1-3.13 0q-.13-.97-1.1-.78l-.31-.31h3.04c.09 0 0-1.1.03-1.13.03-.09-.85 0-.85-.03v-.69h.91c.97 0 .41 1.78 1.31 1.82h1.47zm-3.44-3.19v-.63c.34.03 1.75-.22 1.72.31-.06.56-1.35.25-1.72.31Zm4.41 1s-.41-.03-.41.06c.16.63-.59 1-.85.38a1.3 1.3 0 0 0-.53-.88c1.28-.63.63-2.35-.66-2.32H8.28c.53-.59 1.25-1 2.03-1.13v-.03q.69.72 1.35 0c1.13.19 2.03.91 2.57 1.85-.5.88-.5.85.41 1.25z"/></svg>