<svg xmlns="http://www.w3.org/2000/svg" viewBox="0 0 16 16"><path fill="#ffa040" d="M6.25 14.13v-.53a5 5 0 0 1-.77-.29q-.2-1.55-1.75-1.25l-.5-.5h3.02v-1.8A1.63 1.63 0 0 1 8 8.13q.6.06 1.19.2-.12-.36-.13-.77c-.01-.41.05-.54.14-.78-.6.33-1.99.04-2.47.12v-1c.51.05 2.46-.28 2.71.35a2.6 2.6 0 0 1 2.19-1.24h.05a2.1 2.1 0 0 0-1.79-.91H3.63c.85-.95 2-1.6 3.26-1.8v-.05q1.1 1.15 2.15 0c1.8.3 3.26 1.45 4.11 2.95l-.13.22c.7.46 1.17 1.25 1.17 2.15q0 .4-.13.77a8 8 0 0 1 1.19-.2q.29-.02.56.07c.16-.13.24-.27.04-.4l-.65-.4v-.2c.9-.8.9-.85-.25-1.2l-.05-.2c.75-.95.7-1-.5-1.1l-.05-.2c.5-1.05.5-1.1-.7-1l-.15-.15c.35-1.15.3-1.2-.85-.9l-.15-.1c.1-1.2.05-1.25-1-.7l-.2-.1c-.1-1.15-.2-1.2-1.1-.45l-.2-.05C9.65-.09 9.55-.09 8.8.81h-.2C8-.24 7.95-.24 7.4.81h-.25c-.75-.9-.8-.9-1.15.25l-.2.05c-.95-.75-1-.7-1.15.5l-.15.05c-1.05-.5-1.1-.5-1 .7l-.2.1c-1.1-.3-1.15-.25-.8.9l-.1.15c-1.2-.1-1.25-.05-.7 1l-.1.2c-1.15.1-1.2.15-.5 1.1v.2c-1.15.35-1.15.45-.25 1.2v.2c-1.05.55-1.05.65 0 1.2v.2c-.95.8-.95.85.15 1.2v.2c-.7.95-.65 1 .5 1.1l.1.2c-.55 1.05-.5 1.1.7 1l.1.2c-.3 1.1-.25 1.15.85.85l.2.1c-.15 1.2-.05 1.25 1 .7l.15.1c.15 1.15.2 1.2 1.15.5h.2c.32 1.05.39 1.13.97.46a1.6 1.6 0 0 1-.65-1.3ZM2.38 9.7a6 6 0 0 1-.15-2.5l.95-.45h-.05c.35-.15.2-.6 0-.9h1v3.86z"/><circle cx="11.63" cy="7.56" r="1.56" fill="#ffa040"/><path fill="#ffa040" d="M15.33 9.13q-.54.04-1.21.21c-1.02.27-1.8.72-2.32 1.09a.3.3 0 0 1-.36 0 7.4 7.4 0 0 0-3.53-1.3.62.62 0 0 0-.67.62v4.37c0 .33.25.59.58.62.39.03.82.05 1.29.17.92.25 1.65.64 2.17.98q.34.21.67 0a8 8 0 0 1 2.17-.98c.47-.13.91-.14 1.29-.17a.6.6 0 0 0 .58-.62V9.75a.62.62 0 0 0-.67-.62Z"/></svg>