<svg xmlns="http://www.w3.org/2000/svg" viewBox="0 0 16 16"><path fill="#ff40a0" d="m13.81 11.69.2.2a2.34 2.34 0 0 1 .34 3.07A2 2 0 0 0 16 13v-2.71l-.26.27c-.55.5-1.23.89-1.92 1.14ZM14 3H8L6.59 1.59A2 2 0 0 0 5.18 1H2.01A2 2 0 0 0 0 3v10c0 1.1.9 2 2 2h4.86l-.03-.24c.02-.77.44-1.5 1-2.08-1.39-1.21-1.39-2.49-1.23-3.23.54-2.38 3.94-4.31 6.63-4.44a4 4 0 0 1 2.77.77V5a2 2 0 0 0-2-2"/><path fill="#ff40a0" d="M15.93 7.4c-1.35-4.07-13.02 1.69-6.35 5.26-1.31.59-2.6 2.41-1 3.26 1.57.5 3.22-1.25 2.85-2.79.5-.03 1.35.16 1.38.69-.09.31-.5.22-.44.69 0 .16.16.41.53.34.85-.13 1.25-1.53.41-2.25-.5-.63-1.69-.72-2.47-.53-.53-.56-1.72-1.13-1.69-1.88.13-1.57 4.07-3.16 5.13-2.63.47.16.38.47.16.88-.13.63-2.44 1.91-3.29 1.19-.09-.09-.31-.34-.63-.19-.53.38.06 1.25.81 1.44 1.69.63 5.23-1.13 4.6-3.47Zm-5.79 6.42c-.06.31-.53.75-.81.78.03-.31.56-.81.88-.97z"/></svg>