<svg xmlns="http://www.w3.org/2000/svg" viewBox="0 0 16 16"><path fill="#ff40a0" d="M14.66 2.24c-2.15-6.51-20.84 2.7-10.17 8.41-2.1.95-4.16 3.86-1.6 5.21 2.5.8 5.16-2 4.56-4.46.8-.05 2.15.25 2.2 1.1-.15.5-.8.35-.7 1.1 0 .25.25.65.85.55 1.35-.2 2-2.45.65-3.61-.8-1-2.7-1.15-3.96-.85-.85-.9-2.75-1.8-2.7-3.01.2-2.5 6.51-5.06 8.21-4.21.75.25.6.75.25 1.4-.2 1-3.91 3.06-5.26 1.9-.15-.15-.5-.55-1-.3-.85.6.1 2 1.3 2.3 2.7 1 8.36-1.8 7.36-5.56ZM5.39 12.5c-.1.5-.85 1.2-1.3 1.25.05-.5.9-1.3 1.4-1.55z"/></svg>