<svg xmlns="http://www.w3.org/2000/svg" viewBox="0 0 16 16"><path fill="#ff40a0" d="M5 15.38v-1.25c0-.51.24-.95.6-1.25l-.25-.25c-.18.49-.85 1.09-1.26 1.13.04-.41.63-1.03 1.11-1.37q-.19-.34-.2-.76v-1.25c0-.51.24-.95.6-1.25a2 2 0 0 1-.41-.5c-.74-.58-1.43-1.2-1.4-1.93.2-2.5 6.51-5.06 8.21-4.21.75.25.6.75.25 1.4-.06.31-.46.72-1.03 1.11h.4c.51 0 .95.24 1.25.6.3-.36.74-.6 1.25-.6h.07a3.4 3.4 0 0 0 .46-2.76C12.5-4.27-6.19 4.94 4.48 10.65c-2.1.95-4.16 3.86-1.6 5.21.73.23 1.48.15 2.15-.13a1 1 0 0 1-.04-.35Z"/><rect width="2.5" height="2.5" x="6" y="6" fill="#ff40a0" rx=".62" ry=".62"/><rect width="2.5" height="2.5" x="6" y="6" fill="#ff40a0" rx=".62" ry=".62"/><rect width="2.5" height="2.5" x="6" y="9.75" fill="#ff40a0" rx=".62" ry=".62"/><rect width="2.5" height="2.5" x="6" y="13.5" fill="#ff40a0" rx=".62" ry=".62"/><rect width="2.5" height="2.5" x="13.5" y="6" fill="#ff40a0" rx=".62" ry=".62"/><rect width="2.5" height="2.5" x="13.5" y="6" fill="#ff40a0" rx=".62" ry=".62"/><rect width="2.5" height="2.5" x="13.5" y="9.75" fill="#ff40a0" rx=".62" ry=".62"/><rect width="2.5" height="2.5" x="13.5" y="13.5" fill="#ff40a0" rx=".62" ry=".62"/><rect width="2.5" height="2.5" x="9.75" y="6" fill="#ff40a0" rx=".62" ry=".62"/><rect width="2.5" height="2.5" x="9.75" y="6" fill="#ff40a0" rx=".62" ry=".62"/><rect width="2.5" height="2.5" x="9.75" y="9.75" fill="#ff40a0" rx=".62" ry=".62"/><rect width="2.5" height="2.5" x="9.75" y="13.5" fill="#ff40a0" rx=".62" ry=".62"/></svg>