<svg xmlns="http://www.w3.org/2000/svg" viewBox="0 0 16 16"><path fill="#ff4040" d="M14 3H8L6.59 1.59A2 2 0 0 0 5.18 1H2.01A2 2 0 0 0 0 3v10c0 1.1.9 2 2 2h6.69V6.28h1c1.28 0 3.52-.25 4.83-.63.56-.16.72-.24.76-.27-.07.05.71-.31.71-.31V5a2 2 0 0 0-2-2Z"/><path fill="#ff4040" fill-rule="evenodd" d="M16 8.44V6c0 .23-.6.43-1.2.61-1.48.43-3.84.67-5.1.67v2.44c.09.12.82.35 1.92.58-.73.07-1.42.11-1.93.11v2.44c.09.12.82.35 1.92.58-.73.07-1.42.11-1.93.11v2.44c.86 0 3.54-.28 5.16-.73.6-.16 1.15-.35 1.15-.55v-2.46q-.01-.24-.32-.4.31-.13.32-.28V9.12v.02-.04q-.01-.24-.32-.4.31-.13.32-.28Z"/></svg>