<svg xmlns="http://www.w3.org/2000/svg" viewBox="0 0 32 32"><path d="M26.3 21c-.2-3.1 0-5.5-2.4-7 .7-2.4.7-6.2 1-8.1.5-2.7-.9-5.4-3.8-5.8l-.3-.1c-1.4 0-2.5.9-3 2-2.5-1.8-6.5-1-8.4 1.6a12.7 12.7 0 0 0-2.2 6.2s0 0 0 .1a30 30 0 0 0-.1 7.1c-1.4 2-1.4 4.7-1.4 6.8v2.8c0 1 0 2.3 1 3.4 1.4 1.5 4 2.8 6.1 1.4.9-.7 1.2-1.4 1.3-2.3 5.4 1.5 12.2-1.9 12.2-8.2Zm-14.5 3.5c-.3 1 .3 2.7-.5 3.7-1.1.9-2.5-.6-2.3-1.7.3-1-.8-7.5.6-8.5 3.1-1.8 2 2.7 3.8 4 1.5 1.6 6.9 1.7 6.7-1.3-.4-4.3-6.5-2.8-8.6-5.3-3.9-4.7 2.8-16 7.3-8.3 1-.7-.7-4.7 2.6-2.7.6 1 0 1.9 0 3.4-.3 1.7.2 8-2.9 6-.7-2-.1-4.6-1.9-6.3-3-1.7-4 3.3-3.5 5.3.6 1.7 1.4 1.5 3.4 2 12.2 2.3 4.5 15.5-4.6 9.7ZM20.8 0z" fill="#ffb466"/></svg>