<svg xmlns="http://www.w3.org/2000/svg" viewBox="0 0 16 16"><path fill="#40ffa0" d="M13.62 13.01 11.67 15H14a2 2 0 0 0 2-2v-.34l-1.37 1.37zM14 3H8L6.59 1.59A2 2 0 0 0 5.18 1H2.01A2 2 0 0 0 0 3v10c0 1.1.9 2 2 2h1.92l-2.34-2.34 2.79-2.79.97 1 2.61-2.61a4.55 4.55 0 0 1 6.16-.29h.03l.34.3 1.51 1.54V5a2 2 0 0 0-2-2Z"/><path fill="#ff4040" d="m4.37 11.3 2.23 2.28c.65.66 1.7.66 2.36.02l.02-.02 1.77-1.82a.7.7 0 0 1 .96 0l.86.91-2.23 2.28a3.54 3.54 0 0 1-5.01.05l-.05-.05L3 12.67z"/><path fill="#40ffa0" d="M13.77 8.97 16 11.25l-1.37 1.37-2.23-2.28a1.67 1.67 0 0 0-2.36-.02l-.02.02-1.77 1.82a.65.65 0 0 1-.91 0l-.96-.91 2.28-2.28a3.54 3.54 0 0 1 5.01-.05l.05.05z"/></svg>