<svg xmlns="http://www.w3.org/2000/svg" viewBox="0 0 16 16"><path fill="#40ffa0" d="M15.96 7.64a3.1 3.1 0 0 0-3.09-2.77q-.53.01-1.02.19a6 6 0 0 1 4.11 2.58M9.41 5.22Q8.77 4.88 8 4.87c-.99 0-1.86.47-2.43 1.18v-.01c-.18.21-.25.33-.44.64h-.11c.1-.24.24-.47.43-.78A3.13 3.13 0 0 0 0 8c0 1.73 1.4 3.12 3.12 3.12.72 0 1.38-.25 1.9-.67A6 6 0 0 1 9.4 5.21ZM3.13 9.75c-.97 0-1.75-.78-1.75-1.75s.78-1.75 1.75-1.75S4.88 7.03 4.88 8 4.1 9.75 3.13 9.75"/><path fill="#ff4040" d="M11 6a5 5 0 1 0 0 10 5 5 0 0 0 0-10m2.5 5.63h-5c-.35 0-.62-.28-.62-.63s.28-.62.62-.62h5c.35 0 .62.28.62.62s-.28.63-.62.63"/></svg>