<svg xmlns="http://www.w3.org/2000/svg" viewBox="0 0 16 16"><path fill="#40ffa0" d="M12.88 4.88c-.88 0-1.73.38-2.32 1.03.19.31.33.54.43.78h-.11c-.19-.31-.26-.43-.44-.64v.01a3.1 3.1 0 0 0-4.86 0v-.01c-.18.21-.25.33-.44.64h-.11c.1-.24.24-.47.43-.78a3.12 3.12 0 1 0 .09 4.03v.01l.09-.12.06-.08.01-.02q.13-.18.24-.44l.02-.05h.11l-.09.28q-.14.3-.31.57a3.1 3.1 0 0 0 4.62 0l-.31-.57-.09-.28h.11l.02.05q.1.25.24.44l.01.02.05.08.09.12v-.01a3.12 3.12 0 1 0 2.43-5.06ZM3.13 9.75c-.97 0-1.75-.78-1.75-1.75s.78-1.75 1.75-1.75S4.88 7.03 4.88 8 4.1 9.75 3.13 9.75m4.87 0c-.97 0-1.75-.78-1.75-1.75v-.09c.05-.92.81-1.66 1.75-1.66S9.75 7.03 9.75 8 8.97 9.75 8 9.75m4.88 0c-.97 0-1.75-.78-1.75-1.75s.78-1.75 1.75-1.75 1.75.78 1.75 1.75-.78 1.75-1.75 1.75"/></svg>