<svg xmlns="http://www.w3.org/2000/svg" viewBox="0 0 32 32"><path d="M25.8 9.8c-1.8 0-3.5.7-4.7 2 .4.6.7 1 .9 1.6h-.3L21 12a6.2 6.2 0 0 0-9.8 0c-.3.4-.5.6-.8 1.3H10c.2-.5.5-1 1-1.6A6.2 6.2 0 1 0 11 20l.2-.2v-.2h.1l.3-.5.2-.4h.2l-.1.5-.6 1.1a6.2 6.2 0 0 0 9.2 0 11.3 11.3 0 0 1-.8-1.7h.2v.1l.2.4.3.5.2.2.1.2A6.2 6.2 0 0 0 32 16c0-3.5-2.8-6.3-6.2-6.3ZM6.1 19.4a3.5 3.5 0 1 1 0-7 3.5 3.5 0 0 1 0 7Zm9.8 0c-2 0-3.5-1.6-3.5-3.5v-.2a3.5 3.5 0 1 1 3.5 3.7Zm9.8 0a3.5 3.5 0 1 1 0-7 3.5 3.5 0 0 1 0 7Z" fill="#66ffb4"/></svg>