<svg xmlns="http://www.w3.org/2000/svg" viewBox="0 0 16 16"><path fill="#a040ff" d="M9.53 1.75c-.35-.65-.9-1-1.51-1s-1.15.35-1.51 1L4.6 5.06a10.7 10.7 0 0 1 5.42 8.53h-1.2a9.4 9.4 0 0 0-4.87-7.48l-2.21 3.91a5 5 0 0 1 2.51 3.51H2.24a.4.4 0 0 1-.35-.4v-.15l.5-.85c-.35-.4-.8-.75-1.25-1l-.85 1.51c-.35.6-.4 1.25-.1 1.76.3.5.9.85 1.61.85h4.21c.25-2.1-.53-4.2-2.11-5.62l.6-1.15a7.8 7.8 0 0 1 2.66 6.72h4.52q.03-.83-.05-1.66a12.4 12.4 0 0 0-4.87-9.03L7.66 3c.05-.15.2-.25.35-.25s.25.1.35.2l5.67 10.04v.15c0 .2-.15.4-.35.4h-.9q.04.8 0 1.61h1.35c.75 0 1.35-.3 1.66-.8s.25-1.2-.1-1.81z"/></svg>