<svg xmlns="http://www.w3.org/2000/svg" viewBox="0 0 16 16"><path fill="#e0e0e0" d="M13.85 3.07 9.26.34a2.5 2.5 0 0 0-2.51 0l-4.6 2.73a2.6 2.6 0 0 0-1.24 2.2v5.45c0 .91.48 1.75 1.24 2.2l4.59 2.73a2.4 2.4 0 0 0 2.52 0l4.59-2.73a2.6 2.6 0 0 0 1.24-2.2V5.27c0-.9-.48-1.75-1.24-2.2M9.93 12.6s-.03.1-.07.12l-.23.13s-.07 0-.07-.05v-.39q-.32.12-.53.05-.03-.02-.03-.09l.08-.35s.02-.06.04-.07l.02-.02h.04q.22.07.49-.06a.6.6 0 0 0 .36-.55q.01-.29-.37-.28c-.33 0-.64-.06-.65-.56 0-.4.21-.83.54-1.09v-.4s.03-.1.06-.12l.22-.14s.07 0 .07.05v.4a.7.7 0 0 1 .44-.05q.04.02.03.09l-.09.35-.04.07-.02.02h-.03c-.06-.01-.2-.04-.42.07-.23.12-.32.32-.31.47 0 .18.09.23.41.24q.62-.01.61.62c0 .42-.22.87-.56 1.15v.39ZM8.42 6.9c-.61.35-1.3.9-1.3 1.95v4.96L3.06 11.4a.8.8 0 0 1-.37-.67V5.28c0-.28.14-.54.37-.67l4.59-2.74q.17-.1.35-.1c.18 0 .25.03.35.1l4.18 2.48z"/><path fill="#40ff40" fill-rule="evenodd" d="m12.28 11.25-1.14.68s-.05.04-.05.07v.3s.02.05.05.03l1.16-.71.04-.09v-.26s-.02-.05-.05-.03"/></svg>