<svg xmlns="http://www.w3.org/2000/svg" viewBox="0 0 16 16"><path fill="#40ff40" fill-rule="evenodd" d="M13.97 3.27 9 .28a1.9 1.9 0 0 0-1.99 0L2.03 3.27a2 2 0 0 0-1 1.74v5.97c0 .72.37 1.38 1 1.74l4.98 2.99c.61.38 1.38.38 1.99 0l4.98-2.99a2 2 0 0 0 1-1.74V5.01c0-.72-.37-1.38-1-1.74Z"/><path fill="#a0a0a0" fill-rule="evenodd" d="m7.2 15.42-5.03-2.99c-.5-.3-.8-.85-.8-1.49V5.02c0-.6.3-1.15.8-1.44l5.03-3c.49-.3 1.1-.3 1.59 0l5.03 2.99c.4.25.7.7.8 1.19-.2-.4-.55-.5-1-.2L8.84 7.5c-.6.35-1 .7-1 1.44v5.87c0 .4.15.7.4.75h-.25c-.3 0-.55 0-.8-.15m6.83-12.14L8.95.28a1.9 1.9 0 0 0-1.89 0L1.98 3.27a2 2 0 0 0-.95 1.74v5.97c0 .72.37 1.38 1 1.74l4.98 2.99c.61.38 1.38.38 1.99 0l4.98-2.99a2 2 0 0 0 1-1.74V5.01c0-.72-.37-1.38-1-1.74"/><path fill="#40ff40" fill-rule="evenodd" d="m12.68 11.58-1.24.75-.05.05v.35s0 .05 0 0l1.29-.75.05-.1v-.3z"/><path fill="#e0e0e0" fill-rule="evenodd" d="m9.99 8.8.1.05v.5q.29-.16.5-.1v.1l-.1.4v.05h-.1l-.45.1c-.25.15-.35.35-.35.5 0 .2.1.3.5.3s.65.2.65.65c0 .5-.25 1-.65 1.29v.4l-.05.15-.25.15-.1-.05v-.45q-.31.14-.55.05s-.05 0 0-.1v-.4l.1-.05h.05c.15 0 .35 0 .5-.1.3-.1.45-.35.45-.6q-.01-.3-.4-.3c-.4 0-.75-.1-.75-.6s.25-.9.6-1.19V9.1s0-.1.1-.15z"/></svg>