<svg xmlns="http://www.w3.org/2000/svg" viewBox="0 0 16 16"><path fill="#e0e0e0" d="M14 3H8L6.59 1.59A2 2 0 0 0 5.18 1H2.01A2 2 0 0 0 0 3v10c0 1.1.9 2 2 2h5.5l-.1-.06a2.6 2.6 0 0 1-1.27-2.24V9.29c0-.92.48-1.77 1.27-2.24l2.87-1.71a2.6 2.6 0 0 1 2.59 0l2.87 1.71.27.21V4.99a2 2 0 0 0-2-2Z"/><path fill="#e0e0e0" d="m15.22 7.92-2.87-1.7a1.6 1.6 0 0 0-1.57 0l-2.87 1.7a1.6 1.6 0 0 0-.78 1.38v3.41c0 .57.3 1.09.78 1.38l2.87 1.7q.37.21.79.22c.42.01.55-.07.79-.22l2.87-1.7c.48-.28.78-.81.78-1.38V9.3c0-.57-.3-1.09-.78-1.38Zm-2.45 5.96s-.02.06-.04.07l-.14.08s-.04 0-.04-.03v-.24q-.2.08-.33.03-.03-.01-.02-.05l.05-.22.03-.05h.03q.14.05.3-.04.22-.13.22-.34 0-.18-.23-.18c-.21 0-.4-.04-.41-.35 0-.25.13-.52.34-.68v-.25l.04-.08.14-.09s.04 0 .04.03v.25q.16-.06.28-.03.03 0 .02.06l-.05.22-.02.04-.01.01h-.02c-.04 0-.13-.03-.26.04-.15.07-.2.2-.2.29q-.02.16.26.15.4 0 .38.39a1 1 0 0 1-.35.72v.24Zm-.94-3.57c-.38.22-.81.56-.81 1.22v3.1l-2.54-1.51a.5.5 0 0 1-.23-.42V9.29a.5.5 0 0 1 .23-.42l2.87-1.7a.4.4 0 0 1 .44 0l2.61 1.55z"/><path fill="#40ff40" fill-rule="evenodd" d="m14.24 13.03-.71.43s-.03.02-.03.05v.19s.02.03.03.02l.73-.44.02-.05v-.17s-.02-.03-.03-.02"/></svg>