<svg xmlns="http://www.w3.org/2000/svg" viewBox="0 0 16 16"><path fill="#ff40a0" d="M14 3H8L6.59 1.59A2 2 0 0 0 5.18 1H2.01A2 2 0 0 0 0 3v10c0 1.1.9 2 2 2h5.31l-.3-7.99a1.5 1.5 0 0 1 1.46-1.57l6.41-.41.5-.03q.33 0 .61.12V5a2 2 0 0 0-2-2Z"/><path fill="#ff40a0" d="M15.97 6.47c0-.28-.25-.47-.53-.47l-.53.03v1.16l-.03.09-.09-.03-.38-.31-.44.34h-.09V6.09l-5.41.34c-.28 0-.5.25-.47.53l.31 8.25c0 .25.19.47.47.47l6.72.31c.31 0 .5-.22.5-.5V6.5zm-3.81 7.66c-1.19 0-2.25-.47-2.13-2.16.03-.19 1.56-.16 1.56 0 0 .69.16.91.53.91q.47 0 .47-.47c0-1-2.5-1.03-2.5-2.91 0-1.06.72-1.75 2.03-1.75s2.03.66 2.03 2c-.19.12-1.5.22-1.5 0 0-.72-.31-.75-.5-.75s-.47.03-.47.44c0 1 2.53.94 2.53 2.94 0 1.13-.91 1.72-2.06 1.72v.03Z"/></svg>