<svg xmlns="http://www.w3.org/2000/svg" viewBox="0 0 16 16"><path fill="#6060ff" fill-rule="evenodd" d="m11.2.91-2 1.15v1.25l-.05.15 2 1.15c.2.1.3 0 .3-.15v-3.4c0-.15-.1-.25-.25-.15m-4.4 2.4v-1.3L4.8.86c-.1-.1-.25 0-.25.15v3.4c0 .15.15.25.25.15l2.05-1.05-.05-.15z"/><circle cx="7.95" cy="5.11" r=".55" fill="#6060ff"/><path fill="#6060ff" fill-rule="evenodd" d="M5.04 11.64 5 11c0-1.09.3-2.11.8-2.99l-.9-3.15-.3.2c-.15.05-.3 0-.3-.2V2.71L3.65.36H2.3L0 2.51l1.5 1.25L.35 5.01z"/><path fill="#6060ff" d="m11.34 5.02-.24-.16-.04.14zm3.39 1.3.92-1.3-1.15-1.25L16 2.52 13.75.36h-1.4l-.65 2.35v2.15q-.01.13-.08.18c1.17.12 2.24.58 3.11 1.28M8.9 3.36l.15-.05v-1.1c0-.1-.05-.1-.15-.1H7.1q-.15.01-.15.1v1.1l.15.05z"/><path fill="#ff4040" d="M11 6a5 5 0 1 0 0 10 5 5 0 0 0 0-10m2.5 5.63h-5c-.35 0-.62-.28-.62-.63s.28-.62.62-.62h5c.35 0 .62.28.62.62s-.28.63-.62.63"/></svg>