<svg xmlns="http://www.w3.org/2000/svg" viewBox="0 0 16 16"><path fill="#ff4040" d="M13.86 2.09A4.94 4.94 0 0 0 7.33.68L3.51 3.09a4.25 4.25 0 0 0-1.46 5.77c-.35.5-.6 1-.7 1.61a4.93 4.93 0 0 0 7.33 4.88l3.77-2.41a4.2 4.2 0 0 0 1.96-2.86c.15-1 0-2.01-.5-2.91.35-.5.6-1 .7-1.61a4.5 4.5 0 0 0-.8-3.47zM12.8 5.15l-.1.35-.05.25-.2-.15a5 5 0 0 0-1.51-.75h-.1V4.7c0-.2 0-.4-.15-.55a.9.9 0 0 0-1.21-.25L5.76 6.26c-.2.1-.3.3-.35.5a.86.86 0 0 0 1.11 1.01l.25-.1 1.41-.9.75-.35c1.22-.31 2.5.17 3.21 1.21.43.59.62 1.33.5 2.06a2.6 2.6 0 0 1-1.21 1.71l-3.77 2.41c-.2.15-.5.25-.75.35a3 3 0 0 1-3.66-3.27l.1-.35.05-.25.2.15q.67.45 1.51.75h.1v.15c0 .2 0 .4.15.55a.9.9 0 0 0 1.16.3l3.77-2.41c.2-.1.3-.3.35-.5a.86.86 0 0 0-1.11-1.01l-.25.1-1.41.9c-.25.15-.5.3-.75.35a3 3 0 0 1-3.21-1.21 2.6 2.6 0 0 1 .71-3.82l3.77-2.36c.2-.15.5-.25.75-.35a3 3 0 0 1 3.66 3.27"/></svg>