<svg xmlns="http://www.w3.org/2000/svg" viewBox="0 0 16 16"><path fill="#ff4040" d="M13.86 2.08c-3.15-4.15-7.1-1.16-10.33 1a4.3 4.3 0 0 0-1.45 5.77c-2.8 3.99 2.68 9 6.62 6.47 2.93-1.87 7.48-3.86 5.22-8.17a4.3 4.3 0 0 0-.1-5.07zm-1.05 3.06c-.04.14-.13.45-.15.6-.53-.4-1.14-.8-1.81-.9.15-.75-.69-1.37-1.35-.95L5.79 6.25c-.62.36-.41 1.39.28 1.53.56.2 1.67-.8 2.12-1.03 1.99-1.33 4.87.55 4.46 2.91-.13 1.7-3.86 3.19-4.96 4.11-2.21 1.49-5.27-1.05-4.26-3.51a6 6 0 0 0 1.71.9h.1c-.14.72.63 1.35 1.3 1l3.76-2.41c.62-.36.41-1.39-.28-1.53-.24-.07-.5.02-.72.12-.49.28-1.62 1.14-2.16 1.25-1.95.55-4.06-1.24-3.71-3.26.09-1.76 3.84-3.19 4.96-4.11 1.95-1.34 4.84.59 4.41 2.91Z"/></svg>