<svg xmlns="http://www.w3.org/2000/svg" viewBox="0 0 32 32"><path d="m14.6 30-1-1.8a6 6 0 0 1-6.1-2.4 5.5 5.5 0 0 1-1-4.1l.2-.7.1-.5.4.3c.9.7 1.9 1.2 3 1.5h.2v.3c0 .4 0 .8.3 1.1.4.7 1.1 1 1.9.8l.3-.2.5-.5 1-.8-1-.8a2.4 2.4 0 0 1-.7-2.8 6 6 0 0 1-4.9-2.6 5.5 5.5 0 0 1-1-4.1 5.1 5.1 0 0 1 2.4-3.4l7.5-4.8c.4-.3 1-.5 1.5-.7a6 6 0 0 1 6.3 2.4 5.5 5.5 0 0 1 .8 4.8l-.2.5-.3-.3a9.7 9.7 0 0 0-3-1.5h-.2v-.3c0-.4 0-.8-.3-1.1a1.8 1.8 0 0 0-2.4-.5l-7.4 4.7c-.4.2-.6.6-.7 1a1.7 1.7 0 0 0 2.2 2l.4-.2 2.9-1.8 1.5-.7c.7-.2 1.4-.2 2-.2.5-.4 1-.6 1.6-.6H25c1.2 0 2.3.9 2.5 2l.2 1.4.5-.3-.3-.8c.6-1 1-2 1.2-3.2a9 9 0 0 0-1.5-6.9 9.8 9.8 0 0 0-13-2.8L7 6.2a8.5 8.5 0 0 0-3.9 5.7c-.3 2 0 4 1 5.8-.7 1-1.2 2-1.4 3.2-.4 2.4.2 4.9 1.6 6.9a9.8 9.8 0 0 0 11.8 3.4c-.7-.1-1.3-.6-1.6-1.2Z" fill="#f66"/><path d="M30 23.9V22l1.8-1.5c.2 0 .2-.3.1-.5L30.1 17c0-.2-.3-.3-.5-.2l-2.3.8-1.5-.8-.3-2.4c0-.2-.2-.4-.5-.4h-3.6c-.2 0-.4.2-.4.4l-.3 2.4a7 7 0 0 0-1.6.8l-2.2-.9c-.2 0-.4 0-.6.3l-1.7 3c-.2.3-.1.5 0 .6l2 1.5-.1.9v.9l-1.8 1.5c-.2 0-.3.3-.2.5l1.8 3.1c.2.2.4.3.6.2l2.2-.8 1.6.8.3 2.4c0 .2.2.4.4.4H25c.3 0 .5-.2.5-.4l.3-2.4c.6-.2 1-.5 1.5-.8l2.3.9c.2 0 .4 0 .5-.3l1.8-3v-.6l-2-1.5Zm-6.7 2.5c-2 0-3.4-1.6-3.4-3.4s1.5-3.4 3.4-3.4 3.3 1.5 3.3 3.4-1.5 3.4-3.4 3.4Z" fill="#9c9c9e"/></svg>