<svg xmlns="http://www.w3.org/2000/svg" viewBox="0 0 16 16"><path fill="#ff4040" d="M9.5 3.88 5.79 6.24c-.62.36-.42 1.38.27 1.52l.33-.57a1.6 1.6 0 0 1 2.14-.63l.03-.02C8.61 5.68 9.31 5 10.18 5h1.24q-.28-.12-.57-.17c.15-.75-.69-1.37-1.35-.95"/><path fill="#ff4040" d="m6.39 14.81-.36-.62c-1.78-.15-3.37-2.07-2.6-3.94a6 6 0 0 0 1.71.9h.1q-.06.36.13.65.19-.5.63-.8a1.6 1.6 0 0 1-.74-1.56c-1.18-.52-2.05-1.76-1.81-3.11.09-1.76 3.84-3.19 4.96-4.11 1.95-1.34 4.84.59 4.41 2.91l-.02.05c.51.26.86.77.88 1.38q.32-.17.66-.18a4.4 4.4 0 0 0-.53-4.31h.05C10.71-2.07 6.76.92 3.53 3.08a4.3 4.3 0 0 0-1.45 5.77c-2.68 3.83 2.24 8.57 6.13 6.72a1.6 1.6 0 0 1-1.82-.76"/><path fill="#a0a0a0" d="m15.69 11.83-.9-.52c-.3-.17-.3-.45 0-.62l.9-.52c.3-.17.4-.56.23-.85l-.94-1.62a.6.6 0 0 0-.85-.23l-.9.52c-.3.17-.54.03-.54-.31V6.64a.6.6 0 0 0-.62-.62H10.2a.6.6 0 0 0-.62.62v1.04c0 .34-.24.48-.54.31l-.9-.52a.6.6 0 0 0-.85.23l-.94 1.62c-.17.3-.07.68.23.85l.9.52c.3.17.3.45 0 .62l-.9.52c-.3.17-.4.56-.23.85l.94 1.62c.17.3.56.4.85.23l.9-.52c.3-.17.54-.03.54.31v1.04c0 .34.28.62.63.62h1.88c.34 0 .62-.28.62-.62v-1.04c0-.34.24-.48.54-.31l.9.52c.3.17.68.07.85-.23l.94-1.62a.6.6 0 0 0-.23-.85Zm-3.79.52c-.75.43-1.7.18-2.13-.57s-.18-1.7.57-2.13 1.7-.18 2.13.57.18 1.7-.57 2.13"/></svg>