<svg xmlns="http://www.w3.org/2000/svg" viewBox="0 0 16 16"><path fill="#ffa040" d="M15.9 13.6q.1-.29.1-.6v-.41q-.22.13-.47.19.28.37.36.82ZM14 3H8L6.59 1.59A2 2 0 0 0 5.18 1H2.01A2 2 0 0 0 0 3v10c0 1.1.9 2 2 2h4.35a2 2 0 0 1 .03-2.11 2 2 0 0 1-.89-.45l-.17-.19a1.97 1.97 0 0 1 1.15-3 2 2 0 0 1-.43-1.29c.02-.52.24-1.01.62-1.37s.88-.55 1.41-.53q.59.03 1.04.34.1-.5.45-.91l.19-.17a2 2 0 0 1 2.14-.03c.44.28.74.71.85 1.19q.54-.46 1.28-.43a1.97 1.97 0 0 1 1.83 2.51l.13.2V4.99a2 2 0 0 0-2-2Z"/><path fill="#ffa040" d="M15.84 10.37a.95.95 0 0 0-1.31 0h-1.92l1.35-1.38c.53.02.98-.4.99-.93a.97.97 0 0 0-.93-1 .95.95 0 0 0-.99.93v.03L11.68 9.4V7.47a.97.97 0 0 0-1.35-1.32.97.97 0 0 0 .03 1.32V9.4L8.98 8.05a.97.97 0 0 0-.93-1 .95.95 0 0 0-.99.93c-.02.53.4.98.93 1h.03l1.38 1.35H7.48a.97.97 0 0 0-1.33.3c-.2.32-.2.73.01 1.05.38.34.95.32 1.31-.03h1.92L8.04 13a.95.95 0 0 0-.99.93c-.02.53.4.98.93 1s.98-.4.99-.93v-.03l1.35-1.38v1.93a.97.97 0 0 0 1.35 1.32.96.96 0 0 0 0-1.32v-1.93l1.35 1.35c-.02.53.4.98.93 1s.98-.4.99-.93a.97.97 0 0 0-.93-1h-.03l-1.38-1.32h1.92a.97.97 0 0 0 1.33-.3c.2-.32.2-.73-.01-1.05z"/></svg>