<svg xmlns="http://www.w3.org/2000/svg" viewBox="0 0 16 16"><path fill="#ffa040" d="M15 3H8L6.59 1.59A2 2 0 0 0 5.18 1H2.01A2 2 0 0 0 0 3v10c0 1.1.9 2 2 2h4.35a2 2 0 0 1 .03-2.11 2 2 0 0 1-.89-.45l-.17-.19a1.97 1.97 0 0 1 1.15-3A1.9 1.9 0 0 1 6.34 7h-.92a2 2 0 0 0-1.9 1.37L1.98 13V7c0-1.1.9-2 2-2h11c.55 0 1-.45 1-1s-.45-1-1-1Zm.9 10.6q.1-.29.1-.6v-.41q-.22.13-.47.19.28.37.36.82Z"/><path fill="#ffa040" d="M15.84 10.37a.95.95 0 0 0-1.31 0h-1.92l1.35-1.38c.53.02.98-.4.99-.93a.97.97 0 0 0-.93-1 .95.95 0 0 0-.99.93v.03L11.68 9.4V7.47a.97.97 0 0 0-1.35-1.32.97.97 0 0 0 .03 1.32V9.4L8.98 8.05a.97.97 0 0 0-.93-1 .95.95 0 0 0-.99.93c-.02.53.4.98.93 1h.03l1.38 1.35H7.48a.97.97 0 0 0-1.33.3c-.2.32-.2.73.01 1.05.38.34.95.32 1.31-.03h1.92L8.04 13a.95.95 0 0 0-.99.93c-.02.53.4.98.93 1s.98-.4.99-.93v-.03l1.35-1.38v1.93a.97.97 0 0 0 1.35 1.32.96.96 0 0 0 0-1.32v-1.93l1.35 1.35c-.02.53.4.98.93 1s.98-.4.99-.93a.97.97 0 0 0-.93-1h-.03l-1.38-1.32h1.92a.97.97 0 0 0 1.33-.3c.2-.32.2-.73-.01-1.05z"/></svg>