<svg xmlns="http://www.w3.org/2000/svg" viewBox="0 0 16 16"><path fill="#ffa040" d="M15.74 7a1.5 1.5 0 0 0-2.1 0h-3.08l2.15-2.21a1.54 1.54 0 1 0-1.49-1.59v.05L9.07 5.46V2.37c.45-.72.24-1.67-.48-2.13a1.5 1.5 0 0 0-1.68.02c-.54.61-.52 1.53.05 2.11v3.09L4.76 3.3a1.54 1.54 0 1 0-1.59 1.49h.05l2.2 2.16H2.34a1.53 1.53 0 0 0-2.12.48c-.33.52-.32 1.17.02 1.68.6.54 1.52.52 2.1-.05h3.08l-2.15 2.16a1.54 1.54 0 1 0 1.49 1.59v-.05l2.15-2.21v3.09c-.45.72-.24 1.67.48 2.13.51.33 1.17.32 1.68-.02.55-.59.55-1.52 0-2.11v-3.09l2.15 2.16a1.54 1.54 0 1 0 1.59-1.49h-.05l-2.2-2.11h3.08c.72.46 1.67.24 2.12-.48.33-.52.32-1.17-.02-1.68z"/></svg>