<svg xmlns="http://www.w3.org/2000/svg" viewBox="0 0 16 16"><path fill="#40a0ff" d="M14.65 6.37a7 7 0 0 0-.82-1.9q.42-.58.78-1.2l-1.89-1.88q-.64.38-1.23.81-.87-.52-1.84-.76Q9.53.72 9.35 0H6.68q-.18.72-.3 1.42-1.01.23-1.9.75-.56-.4-1.19-.77L1.4 3.28q.35.58.72 1.12-.6.92-.88 2-.62.1-1.25.27v2.66q.58.15 1.16.25.24 1.16.85 2.17-.33.46-.61.96l1.89 1.89q.48-.28.92-.59 1.03.66 2.23.93.1.54.23 1.06h2.68q.13-.54.24-1.09 1.16-.29 2.16-.94.48.33.97.62l1.89-1.89q-.31-.53-.67-1.04.57-.98.8-2.08.63-.11 1.27-.27V6.65q-.67-.18-1.35-.29Zm-1.94 3.46-.06.16a5 5 0 0 1-2.64 2.77l-.03.02a5 5 0 0 1-3.96.04A5 5 0 0 1 3.27 10l-.03-.07a5 5 0 0 1 .1-3.76l.09-.2a5.05 5.05 0 0 1 9.06 0l.13.3c.47 1.14.5 2.41.09 3.58Z"/><path fill="#40a0ff" d="M10.39 8.95q-.3.06-.51.27l-.8-.6c.36-.61.2-1.39-.36-1.81l.64-1.11a.7.7 0 0 0 .87-.46.7.7 0 0 0-.46-.87.7.7 0 0 0-.87.46 1 1 0 0 0 0 .44q.06.15.17.27l-.64 1.11a1.36 1.36 0 0 0-1.78.63l-1.37-.54a.65.65 0 0 0-.57-.72.63.63 0 0 0-.7.57c-.04.35.22.67.57.7q.37.02.58-.26l1.37.54c-.13.52.05 1.07.47 1.41l-.64 1a.85.85 0 1 0 .54.74 1 1 0 0 0-.26-.57l.64-1c.54.26 1.2.15 1.61-.29l.8.6c-.26.49-.07 1.11.42 1.37a1.02 1.02 0 0 0 1.47-1.1c-.11-.55-.65-.9-1.19-.79Z"/></svg>