<svg xmlns="http://www.w3.org/2000/svg" viewBox="0 0 16 16"><path fill="#ff4040" d="M14 3H8L6.59 1.59A2 2 0 0 0 5.18 1H2.01A2 2 0 0 0 0 3v10c0 1.1.9 2 2 2h3.81a9 9 0 0 1-1.84-2.04l-.27-1.45 1.7.11q.53.39 1.12.67c.89.42 1.8.59 2.63.52a35 35 0 0 1-3.46-3.85L4.8 6.82l1.49-.3q.08-.19.18-.3l.57-.68.91.63a32 32 0 0 0 4.04 3.49 5.6 5.6 0 0 0-1.13-3.08l-.17-1.53 1.49.09a8.4 8.4 0 0 1 3.79 4.9V5a2 2 0 0 0-2-2Z"/><path fill="#ff4040" d="m15.05 13.02.07-.17c.59-2.44-.91-5.34-3.42-6.85 1.08 1.5 1.61 3.32 1.15 4.92l-.14.42-.21-.14S9.95 9.63 7.26 6.87c-.1-.07 1.43 2.2 3.14 4.05-.8-.49-3.07-2.13-4.54-3.46l.63.87a27 27 0 0 0 4.68 4.85c-1.33.8-3.21.87-5.06 0a7 7 0 0 1-1.29-.77 7.7 7.7 0 0 0 3.49 2.97c1.75.77 3.49.7 4.82 0l.17-.07c.63-.35 1.85-.7 2.51.63.17.35.52-1.36-.77-2.93Z"/></svg>