<svg xmlns="http://www.w3.org/2000/svg" viewBox="0 0 16 16"><path fill="#ff4040" d="m3.98 12.96-.27-1.45 1.7.11q.53.39 1.12.67c.89.42 1.8.59 2.63.52A35 35 0 0 1 5.7 8.96l-.79-1.88c-.64.17-1.17.64-1.38 1.29L1.99 13V7c0-1.1.9-2 2-2h11c.55 0 1-.45 1-1s-.45-1-1-1h-7L6.58 1.59A2 2 0 0 0 5.17 1H2a2 2 0 0 0-2 2v10c0 1.1.9 2 2 2h3.81a9 9 0 0 1-1.84-2.04Z"/><path fill="#ff4040" d="M12.02 9.66A5.4 5.4 0 0 0 11.15 7H8.83a32 32 0 0 0 3.19 2.66m2.4-2.61c.75.91 1.3 1.94 1.58 3V9.01a2 2 0 0 0-1.58-1.95Z"/><path fill="#ff4040" d="m15.05 13.02.07-.17c.59-2.44-.91-5.34-3.42-6.85 1.08 1.5 1.61 3.32 1.15 4.92l-.14.42-.21-.14S9.95 9.63 7.26 6.87c-.1-.07 1.43 2.2 3.14 4.05-.8-.49-3.07-2.13-4.54-3.46l.63.87a27 27 0 0 0 4.68 4.85c-1.33.8-3.21.87-5.06 0a7 7 0 0 1-1.29-.77 7.7 7.7 0 0 0 3.49 2.97c1.75.77 3.49.7 4.82 0l.17-.07c.63-.35 1.85-.7 2.51.63.17.35.52-1.36-.77-2.93Z"/></svg>