<svg xmlns="http://www.w3.org/2000/svg" viewBox="0 0 32 32"><path d="M21.6 11.7a3 3 0 1 1-6 0 3 3 0 0 1 6 0Z" fill="#ffb466"/><circle cx="13.4" cy="20.4" r="3" fill="#66b4ff"/><path d="M24.9 21.4c-1.2.8-2.6 1.4-4 1.6.4-1.2.5-2.4.4-3.7A8.2 8.2 0 1 0 11.9 7c-1.5.2-3 .6-4.4 1.3a11.6 11.6 0 1 1 17.4 13.2Z" fill="#ffb466" fill-rule="evenodd"/><path d="M7.1 10.6c1.2-.8 2.6-1.4 4-1.6a8.2 8.2 0 0 0-.4 3.7A8.2 8.2 0 1 0 20 25c1.5-.2 3-.6 4.4-1.3A11.6 11.6 0 1 1 7.1 10.6Zm17.3 11.1Z" fill="#66b4ff" fill-rule="evenodd"/></svg>