<svg xmlns="http://www.w3.org/2000/svg" viewBox="0 0 16 16"><path fill="#ffa040" d="M10.85 5.79a1.5 1.5 0 1 1-3.02 0 1.5 1.5 0 0 1 3.02 0"/><circle cx="6.73" cy="10.16" r="1.51" fill="#40a0ff"/><path fill="#ffa040" fill-rule="evenodd" d="M12.51 10.66a5 5 0 0 1-2.01.8q.29-.9.2-1.86a4.13 4.13 0 0 0-2.56-7.84c-.89.29-1.65.87-2.16 1.65q-1.14.14-2.21.65a5.83 5.83 0 1 1 8.74 6.65z"/><path fill="#40a0ff" fill-rule="evenodd" d="M3.57 5.24a5 5 0 0 1 2.01-.8q-.32.9-.2 1.86a4.12 4.12 0 1 0 4.67 6.18q1.14-.14 2.21-.65a5.83 5.83 0 1 1-8.69-6.6Z"/></svg>