<svg xmlns="http://www.w3.org/2000/svg" viewBox="0 0 16 16"><path fill="#e0e0e0" d="m14.56 9.39-1.54-2.28 1.41-2.04c.11-.16.27-.38.76-.38h.46v-1.2c-.83.08-1.77.08-2.58 0l.02 1.16.24.02-.72 1.05-.71-1.04h.18V3.51c-.92.06-1.93.08-2.85-.01v1.19c.19.01.93-.05.93.09l1.54 2.27c-.19.22-1.4 2.22-1.68 2.27l-.29.07c-.1.05-.51.03-.63.03v1.2l.43-.04c-.15.6-.41.79-1.27.79H7.11V9.46c.15-.01.81.01.77.06.06-.01.06.82.05 1.01h1.08V7.26H7.93c0 .18 0 .99-.05.99.03.05-.63.07-.78.06V6.69h1.13c1.03 0 1.09.23 1.2 1.31l.04.42h1.11l-.32-2.92h-3.9L5.8 3.56H.22L0 6.46h1.1l.03-.43q.1-1.31 1.16-1.31h.2V9.4c-.16.02-.84 0-1.03 0v1.15c1.12-.03 2.34-.02 3.57.01V9.4H4.01V4.72c.84 0 1.25-.07 1.28.76h-.43v1.18h.73v4.69h-.73v1.16h5.12l.5-1.96q.62 0 1.2.05l-.02-1.15-.25-.02.96-1.39.95 1.4h-.18v1.17c.92-.06 1.93-.08 2.85.01V9.43l-1.44-.02Z"/></svg>