<svg xmlns="http://www.w3.org/2000/svg" viewBox="0 0 16 16"><path fill="#a040ff" d="M8.12.13h.07l-.22.02a8.03 8.03 0 0 1 6.15 13.18c-1.72.22-3.51.35-5.2-.1a4.2 4.2 0 0 1-2.47-1.76 2.7 2.7 0 0 1 .5-3.26 2.6 2.6 0 0 1 2.31-.61 2.6 2.6 0 0 1 1.72 1.25l1.08-.57a4 4 0 0 0-.96-1.13 4 4 0 0 0-2.33-.83c-.79 0-1.59.23-2.24.68a3.9 3.9 0 0 0-1.52 4.23 4.5 4.5 0 0 0 1.96 2.49c.71.46 1.54.71 2.37.86 1.14.2 2.3.13 3.44.03-.11.12-.29.11-.44.14a10 10 0 0 1-3.69-.1 6 6 0 0 1-3.08-1.71 4.21 4.21 0 0 1 4.68-6.77l.5-1.12a5.57 5.57 0 0 0-6.98 2.54 5 5 0 0 0-.55 3.16 5.8 5.8 0 0 0 2.17 3.7c.56.45 1.23.75 1.92.95a11 11 0 0 0 3.13.42c-.19.1-.4.07-.6.07q-1.67.04-3.23-.53a6 6 0 0 1-3.52-3.47 6 6 0 0 1-.27-3.02c.23-1.2.91-2.27 1.8-3.08A5.8 5.8 0 0 1 8.6 4.28V3.05a7.2 7.2 0 0 0-6.76 4.68 6.3 6.3 0 0 0-.31 3.66 6 6 0 0 0 2.54 3.64c.2.14.42.24.61.39l-.26-.06a7.8 7.8 0 0 1-4.17-5.1Q-.08 8.87.02 7.49A8 8 0 0 1 6.86.24C7.28.17 7.7.18 8.12.13"/></svg>