<svg xmlns="http://www.w3.org/2000/svg" viewBox="0 0 16 16"><path fill="#a0ff40" d="M14 0H2a2 2 0 0 0-2 2v12c0 1.1.9 2 2 2h6.62q-.29-.35-.53-.69A7 7 0 0 1 7.41 14H3a1 1 0 0 1-.83-1.55l2-3a1 1 0 0 1 1.54-.15l1.18 1.18.09-.12a3.7 3.7 0 0 1 1.91-2.54l.31-.42a1 1 0 0 1 1.66.09v.02l.11.01q.19-.78.72-1.42A3.3 3.3 0 0 1 13.88 5l.83-.03.18.81q.04.2.04.42-.01.69-.32 1.31.79.19 1.39.72V2a2 2 0 0 0-2-2m2 12.15v-1.66c-.19.19-.34.46-.34.83 0 .4.17.66.34.84Z"/><path fill="#e0e0e0" d="M15.74 9.41c-.06.05-1.08.62-1.08 1.91A2.2 2.2 0 0 0 16 13.34c0 .03-.21.72-.69 1.42-.43.62-.88 1.23-1.56 1.23s-.86-.4-1.64-.4-1.04.41-1.66.41-1.06-.57-1.56-1.27a6 6 0 0 1-1.05-3.31c0-1.94 1.26-2.98 2.51-2.98.66 0 1.21.43 1.63.43s1.01-.46 1.76-.46c.29 0 1.31.03 1.98.99ZM13.4 7.59c.31-.37.53-.88.53-1.39l-.02-.2c-.51.02-1.11.34-1.47.76-.29.32-.55.84-.55 1.36l.02.18.14.01c.45 0 1.03-.3 1.36-.71Z"/></svg>