<svg xmlns="http://www.w3.org/2000/svg" viewBox="0 0 16 16"><path fill="#e0e0e0" fill-rule="evenodd" d="M10.84 9.08c0 .26-.36.26-.36 0 0-.21.36-.26.36 0m-5.12.15c0 .21-.31.21-.36 0 0-.26.36-.26.36 0"/><path fill="#e0e0e0" fill-rule="evenodd" d="m4.01 9.18.67-1.04-1.92.26.26 2.07.83.67 2.8-.62c.72-2.8.26-1.14 2.12-2.54v-.05c-1.92-.05-3.42 0-4.76 1.24Zm2.07.52c0 .93-1.14.31-1.55.62 0 0 0-.21.36-.31-.41-1.24 1.24-2.02 1.24-.31z"/><path fill="#ff4040" fill-rule="evenodd" d="M3.13 6.85S.54 8.66.49 9.33h.16S3.76 7.26 6.19 7l.05-.31zm4.09-.26L5.15 8.04l.1.05c.72-.31 3.93-1.04 4.4-1.55H7.22M8.98 8.3c1.45 0 3.62-1.4 3.62-1.4l-.72-.1c-.41 0-1.29-.05-1.66-.21-.1.16-1.4 1.5-1.35 1.66zm-6.16 5.39-.21-.16zm10.76-.88c-.26.21-2.12.1-2.48.1l-1.29-1.04-1.55.41-1.81-.16-1.04 1.14-1.86.52-.93-.26v-.05c.25.98.94 1.78 1.86 2.17 1.14.16 3.78 0 4.04-1.45 1.04 1.66 2.43.98 3.68.62 1.4-.26 1.55-1.35 1.97-2.28l-.52.31-.05-.05Z"/><path fill="#a0a0a0" fill-rule="evenodd" d="M6.54 7.78h2.48l.78-.83a13 13 0 0 0-3.26.83m-.77-.51-.78.62q-.91.1-1.81.26 1.18-.55 2.59-.88m8.44 1.34-.31 1.97-1.24.93-3.47-.41-.52-1.71c-.1-.16-.36-.1-.47-.1s-.36 0-.41.1l-.52 1.71-3.52.78-1.35-.98-.31-2.23.52-.16.21 2.07.05.1 1.04.67 2.9-.62.05-.1.52-1.66a3 3 0 0 1 1.66 0s.47 1.86.57 1.76l2.9.31c0 .1.98-.67 1.04-.67v-.05l.26-1.81.52.1m.29-1.24-.21.93a27 27 0 0 0-3.11-.47l1.4-.78z"/><path fill="#e0e0e0" fill-rule="evenodd" d="M8.36 8.56c.47.1.67.05.78.21l.52 1.71 2.74.31.88-.62.26-1.76a10 10 0 0 0-5.18.16Zm3.41 1.5c-.41-.26-1.66.52-1.66-.52-.05-1.71 1.6-.98 1.24.31.31-.05.41.16.41.16z"/><path fill="#ffff40" fill-rule="evenodd" d="M15.4 5.46V5.2c-.72-.52-1.55-.83-2.33-1.14l1.04.26a6.31 6.31 0 0 0-11.96-.05q.54-.17 1.09-.26c-.78.31-1.66.62-2.33 1.14-.1.83 0 1.76.36 2.48l.31.21-.16-.72 1.04-.21c-.36-.1-.72-.16-.93-.41 1.66.41 4.66-.31 6.63-.21 1.97-.1 4.92.62 6.63.21q-.38.3-.83.36l1.04.26-.16.67.26-.16c.36-.67.47-1.45.41-2.23z"/><path fill="#ff4040" fill-rule="evenodd" d="M9.91 2.66v-1.4H6.39v1.4h.98v-.41h.26v1.92h-.36v1.04h1.76V4.17h-.36V2.25h.26v.41z"/><path fill="#a0a0a0" fill-rule="evenodd" d="m1.78 7.37.52-.1-.52.36z"/><path fill="#e0e0e0" d="m14.72 9.23-.31-.21c-.05.1-.21 1.66-.31 1.71 0 .05-.36.21-.31.31l-.26.1v-.05c-.72.93-3.42.16-4.35.1v.16c-.72.1-.36-2.28-1.29-1.86-.16.26-.36 2.02-.83 1.86v-.1l-3.36.67-.93-.52c-.05-.16-.52-.21-.62-.36-.1 0-.21-1.71-.26-1.76-.72.16-.31 1.04-.21 1.71l-.16-.26c.1.21.16.93.41.93.05 0 .88 0 .78-.21.31.72.72 1.14 1.19 2.07 1.86-.16 1.86-1.97 3.42-1.55l-.16-.36c.16.41 1.97.26 2.07-.16 0 0 0 .26-.26.47 1.19-.52 1.4.21 2.23.72 1.4.41 2.07 0 2.33-1.5-.1.41.57.31.83.36.26 0 .31-.78.36-.93l-.16.16c.1-.36.31-1.29.16-1.5m-5.85 5.59-.31-.36-.15.36zm.78.52c-.47-.26-.78-.47-1.35-.31-.41.67-1.09.47-1.71.62 0 0 1.92.98 4.04-.36-.31 0-.62-.1-1.04.05z"/></svg>