<svg xmlns="http://www.w3.org/2000/svg" viewBox="0 0 16 16"><path fill="#40a0ff" d="M5.19 12.91v-.53a2 2 0 0 1-.19-.75v-1.25q0-.4.19-.75v-1A2 2 0 0 1 5 7.88V6.63q0-.41.19-.75V4.6H8.1V2.73H0V4.6h2.89v8.31zM9.13 5.6c.3-.36.74-.6 1.25-.6h1.25c.61-.7 2.55-.48 3.54 0h.22l.17.02V3.13c-1.96-.64-5.03-.74-6.25 1.27q-.26.54-.3 1.08l.13.13Z"/><rect width="2.5" height="2.5" x="6" y="6" fill="#40a0ff" rx=".62" ry=".62"/><rect width="2.5" height="2.5" x="6" y="6" fill="#40a0ff" rx=".62" ry=".62"/><rect width="2.5" height="2.5" x="6" y="9.75" fill="#40a0ff" rx=".62" ry=".62"/><rect width="2.5" height="2.5" x="6" y="13.5" fill="#40a0ff" rx=".62" ry=".62"/><rect width="2.5" height="2.5" x="13.5" y="6" fill="#40a0ff" rx=".62" ry=".62"/><rect width="2.5" height="2.5" x="13.5" y="6" fill="#40a0ff" rx=".62" ry=".62"/><rect width="2.5" height="2.5" x="13.5" y="9.75" fill="#40a0ff" rx=".62" ry=".62"/><rect width="2.5" height="2.5" x="13.5" y="13.5" fill="#40a0ff" rx=".62" ry=".62"/><rect width="2.5" height="2.5" x="9.75" y="6" fill="#40a0ff" rx=".62" ry=".62"/><rect width="2.5" height="2.5" x="9.75" y="6" fill="#40a0ff" rx=".62" ry=".62"/><rect width="2.5" height="2.5" x="9.75" y="9.75" fill="#40a0ff" rx=".62" ry=".62"/><rect width="2.5" height="2.5" x="9.75" y="13.5" fill="#40a0ff" rx=".62" ry=".62"/></svg>