<svg xmlns="http://www.w3.org/2000/svg" viewBox="0 0 16 16"><path fill="#40a0ff" d="M5.19 12.91V4.6H8.1V2.73H0V4.6h2.89v8.31zM10.18 5h1.44c.71-.81 3.21-.39 3.92.24V3.12c-1.96-.64-5.03-.74-6.25 1.27q-.29.57-.31 1.15c.3-.33.72-.54 1.2-.54"/><path fill="#a0a0a0" d="m15.69 11.83-.9-.52c-.3-.17-.3-.45 0-.62l.9-.52c.3-.17.4-.56.23-.85l-.94-1.62a.6.6 0 0 0-.85-.23l-.9.52c-.3.17-.54.03-.54-.31V6.64a.6.6 0 0 0-.62-.62H10.2a.6.6 0 0 0-.62.62v1.04c0 .34-.24.48-.54.31l-.9-.52a.6.6 0 0 0-.85.23l-.94 1.62c-.17.3-.07.68.23.85l.9.52c.3.17.3.45 0 .62l-.9.52c-.3.17-.4.56-.23.85l.94 1.62c.17.3.56.4.85.23l.9-.52c.3-.17.54-.03.54.31v1.04c0 .34.28.62.63.62h1.88c.34 0 .62-.28.62-.62v-1.04c0-.34.24-.48.54-.31l.9.52c.3.17.68.07.85-.23l.94-1.62a.6.6 0 0 0-.23-.85Zm-3.79.52c-.75.43-1.7.18-2.13-.57s-.18-1.7.57-2.13 1.7-.18 2.13.57.18 1.7-.57 2.13"/></svg>