<svg xmlns="http://www.w3.org/2000/svg" viewBox="0 0 16 16"><path fill="#40a0ff" d="M5.19 12.91V4.6H8.1V2.73H0V4.6h2.89v8.31zm5.82-.28H9.5v.23q.92.31 2 .4a2 2 0 0 1-.49-.63M11.48 5l.13.02c.69-.83 3.22-.42 3.94.23V3.13c-1.96-.64-5.03-.74-6.25 1.27q-.15.3-.23.61h2.41Z"/><path fill="#40a0ff" d="M14.75 7.25h-1.88l-.28-.56A1.3 1.3 0 0 0 11.47 6H8.49c-.69 0-1.25.56-1.25 1.25v8.12c0 .35.28.63.62.63s.62-.28.62-.63v-3.75h3.12l.28.56c.21.42.64.69 1.12.69h1.73c.69 0 1.25-.56 1.25-1.25V8.49c0-.69-.56-1.25-1.25-1.25Z"/></svg>