<svg xmlns="http://www.w3.org/2000/svg" viewBox="0 0 16 16"><path fill="#40a0ff" d="M5 12.91v-.03q.01-.47.19-.87V9.99A2 2 0 0 1 5 9.12V7.24q0-.49.19-.9V4.59H8.1V2.72H0v1.87h2.89v8.31zM11.62 5c.65-.74 2.79-.46 3.7.09l.22.08V3.13c-1.96-.64-5.03-.74-6.25 1.27q-.15.3-.23.61h2.56Zm3.13 6.63h-7.5c-.69 0-1.25.56-1.25 1.25v1.88c0 .69.56 1.25 1.25 1.25h7.5c.69 0 1.25-.56 1.25-1.25v-1.88c0-.69-.56-1.25-1.25-1.25m-6.56 3.12a.94.94 0 1 1 0-1.88.94.94 0 0 1 0 1.88"/><path fill="#40a0ff" d="M14.75 6h-7.5C6.56 6 6 6.56 6 7.25v1.88c0 .69.56 1.25 1.25 1.25h7.5c.69 0 1.25-.56 1.25-1.25V7.25C16 6.56 15.44 6 14.75 6M8.19 9.13a.94.94 0 1 1 0-1.88.94.94 0 0 1 0 1.88"/></svg>