<svg xmlns="http://www.w3.org/2000/svg" viewBox="0 0 16 16"><path fill="#40a0ff" d="M4.31 12.91q.02-.23.11-.44A1.7 1.7 0 0 1 3.57 11V9.57c0-1.05.68-1.95 1.62-2.28V4.6H8.1V2.73H0V4.6h2.89v8.31zM9.87 5h.84q.43.01.79.2c.45-1.07 3.28-.64 4.05.04V3.12c-1.96-.64-5.03-.74-6.25 1.27q-.2.42-.27.84.39-.23.85-.23Zm.43 3.14h.16zm4.27 4.29h-3.21c0 .39-.32.71-.71.71h-.71a.7.7 0 0 1-.71-.71H6.02a.7.7 0 0 0-.71.71v1.43c0 .79.64 1.43 1.43 1.43h7.14c.79 0 1.43-.64 1.43-1.43v-1.43a.7.7 0 0 0-.71-.71Z"/><path fill="#40a0ff" d="M14.57 8.14h-2.14v-.42a.8.8 0 0 0-.21-.51L11.21 6.2a.7.7 0 0 0-.51-.21h-.84a.8.8 0 0 0-.51.21L8.34 7.21a.7.7 0 0 0-.21.51v.42H5.99c-.79 0-1.43.64-1.43 1.43V11c0 .39.32.71.71.71H9.2c0-.39.32-.71.71-.71h.71c.39 0 .71.32.71.71h3.93c.39 0 .71-.32.71-.71V9.57c0-.79-.64-1.43-1.43-1.43Zm-4.64-.71h.71c.2 0 .36.16.36.36v.36H9.57v-.36c0-.2.16-.36.36-.36"/></svg>