<svg xmlns="http://www.w3.org/2000/svg" viewBox="0 0 16 16"><path fill="#e0e0e0" d="M7.78 2.92a5.06 5.06 0 1 0 0 10.12 5.06 5.06 0 0 0 0-10.12m0 7.68a2.63 2.63 0 0 1 0-5.26 2.63 2.63 0 0 1 0 5.26"/><path fill="#40a0ff" fill-rule="evenodd" d="M8.22 2.09V.19a7.78 7.78 0 1 1 0 15.56V13.8a5.93 5.93 0 0 0 0-11.77z"/><path fill="#ff4040" fill-rule="evenodd" d="M3.31 11.87a6 6 0 0 1-1.46-3.45H0a7.8 7.8 0 0 0 1.95 4.77l1.36-1.36zm4.03 3.89v-1.95a5.8 5.8 0 0 1-3.4-1.46l-1.41 1.46A7.8 7.8 0 0 0 7.3 15.8z"/></svg>