<svg xmlns="http://www.w3.org/2000/svg" viewBox="0 0 16 16"><path fill="#40a0ff" d="M5.19 11.1a1.4 1.4 0 0 1 0-1.42v-.47a1.4 1.4 0 0 1 0-1.42V4.61H8.1V2.74H0v1.87h2.89v8.31h2.3zM10 5c.63 0 1.16.41 1.35.97h.16c-.71-2 3.12-1.54 4.03-.72V3.13c-1.96-.64-5.03-.74-6.25 1.27q-.15.3-.23.61H10Zm3.09 2.03.43.75q.29.51.14 1.08-.09.33-.31.58.21.24.31.58.07.3.02.61h.59c.46 0 .86.24 1.08.6q.24.01.45.11c.36-.96.22-2.31-.53-3.03-.55-.63-1.39-.93-2.19-1.28Zm2.77 7.15-.4-.23c-.13-.08-.13-.2 0-.27l.4-.23c.13-.08.18-.24.1-.37l-.41-.71c-.08-.13-.24-.18-.37-.1l-.4.23c-.13.08-.24.01-.24-.14v-.46a.27.27 0 0 0-.27-.27h-.82a.27.27 0 0 0-.27.27v.46c0 .15-.11.21-.24.14l-.4-.23a.27.27 0 0 0-.37.1l-.41.71c-.08.13-.03.3.1.37l.4.23c.13.08.13.2 0 .27l-.4.23c-.13.08-.18.24-.1.37l.41.71c.08.13.24.18.37.1l.4-.23c.13-.08.24-.01.24.14v.46c0 .15.12.27.27.27h.82c.15 0 .27-.12.27-.27v-.46c0-.15.11-.21.24-.14l.4.23c.13.08.3.03.37-.1l.41-.71a.27.27 0 0 0-.1-.37m-1.65.22a.67.67 0 0 1-.93-.25.67.67 0 0 1 .25-.93.67.67 0 0 1 .93.25c.19.33.08.75-.25.93"/><path fill="#40a0ff" d="m12.5 10.01-.62-.36c-.2-.12-.2-.31 0-.43l.62-.36c.2-.12.28-.38.16-.59l-.64-1.12a.44.44 0 0 0-.59-.16l-.62.36c-.2.12-.37.02-.37-.21v-.72a.43.43 0 0 0-.43-.43H8.72a.43.43 0 0 0-.43.43v.72c0 .24-.17.33-.37.21l-.62-.36a.43.43 0 0 0-.59.16l-.64 1.12c-.12.2-.05.47.16.59l.62.36c.2.12.2.31 0 .43l-.62.36a.44.44 0 0 0-.16.59l.64 1.12c.12.2.38.28.59.16l.62-.36c.2-.12.37-.02.37.21v.72c0 .24.19.43.43.43h1.29c.24 0 .43-.19.43-.43v-.72c0-.24.17-.33.37-.21l.62.36c.2.12.47.05.59-.16l.64-1.12a.43.43 0 0 0-.16-.59m-2.61.36c-.51.3-1.17.12-1.47-.39s-.12-1.17.39-1.47 1.17-.12 1.47.39.12 1.17-.39 1.47"/></svg>