<svg xmlns="http://www.w3.org/2000/svg" viewBox="0 0 16 16"><path fill="#40a0ff" d="M5.19 12.91V4.6H8.1V2.73H0V4.6h2.89v8.31zm5.37-7.64q.5-.27 1.06-.27c.71-.81 3.21-.39 3.92.25V3.13c-1.96-.64-5.03-.74-6.25 1.27A3 3 0 0 0 9 6.12l1.56-.84Zm4.78 2.56-3.13-1.69a1.3 1.3 0 0 0-1.17 0L7.91 7.83c-.4.22-.66.64-.66 1.1v2.51A4.5 4.5 0 0 0 11.49 16 4.37 4.37 0 0 0 16 11.63V8.94c0-.46-.25-.88-.66-1.1Zm-.59 3.8c0 1.72-1.4 3.12-3.13 3.12V11H8.49V9.68c0-.46.25-.88.66-1.1l1.87-1.01q.29-.15.6-.15V11h3.13z"/></svg>