<svg xmlns="http://www.w3.org/2000/svg" viewBox="0 0 16 16"><path fill="#40a0ff" d="M5 12.91V7.25q0-.49.19-.9V4.6H8.1V2.73H0V4.6h2.89v8.31zM11.62 5c.71-.81 3.21-.39 3.92.24V3.12c-1.96-.64-5.03-.74-6.25 1.27q-.15.3-.23.61z"/><path fill="#40a0ff" d="M12.98 6H7.25C6.56 6 6 6.56 6 7.25v7.5c0 .69.56 1.25 1.25 1.25h7.5c.69 0 1.25-.56 1.25-1.25V9.02c0-.33-.13-.65-.37-.88l-1.77-1.77a1.3 1.3 0 0 0-.88-.37M7.25 8.5v-.62c0-.34.28-.62.62-.62h3.75c.34 0 .62.28.62.62v.62c0 .34-.28.62-.62.62H7.87a.6.6 0 0 1-.62-.62m4.14 6.2a1.56 1.56 0 1 1-.77-3.03 1.56 1.56 0 0 1 .77 3.03"/></svg>