<svg xmlns="http://www.w3.org/2000/svg" viewBox="0 0 16 16"><path fill="#40a0ff" d="M2.89 12.91h.73V9.5c0-1.07.65-1.99 1.57-2.4V4.6H8.1V2.73H0V4.6h2.89zm9.87-6.03q-.72-.31-1.22-.85c-.8-2.06 3.09-1.6 4.01-.78V3.13c-1.96-.64-5.03-.74-6.25 1.27a2.8 2.8 0 0 0-.07 2.49h3.53Zm.62 6.06H9.73c1.13.34 2.5.47 3.69.19z"/><path fill="#40a0ff" d="M15.19 6.25a.8.8 0 0 0-.81.81v.81H6.25c-.9 0-1.62.73-1.62 1.62v4.88h-.81c-.45 0-.81.37-.81.81s.37.81.81.81h5.69c.45 0 .81-.37.81-.81s-.37-.81-.81-.81H8.7v-2.44h5.69v.81c0 .45.37.81.81.81s.81-.37.81-.81V7.05a.8.8 0 0 0-.81-.81Z"/></svg>