<svg xmlns="http://www.w3.org/2000/svg" viewBox="0 0 16 16"><path fill="#40a0ff" d="M4.43 12.91q.2-.84.76-1.45V4.6H8.1V2.73H0V4.6h2.89v8.31zm8.33-6.03.98 1.57c.32.51.34 1.16.04 1.69l-.14.19h1.02q.73.01 1.29.4c.13-.86-.08-1.84-.68-2.42-.62-.72-1.63-1.01-2.51-1.43m-3.51-1.1a1.65 1.65 0 0 1 2.23-.56c.43-1.1 3.28-.66 4.06.03V3.13c-1.96-.64-5.03-.74-6.25 1.27q-.45.91-.28 1.78l.24-.39Z"/><path fill="#40a0ff" d="M10.1 6.31 8.43 8.98A.67.67 0 0 0 9 10h3.33c.52 0 .84-.58.57-1.02l-1.67-2.67a.66.66 0 0 0-1.13 0"/><rect width="4.67" height="4.67" x="11.33" y="11.33" fill="#40a0ff" rx="1.33" ry="1.33"/><circle cx="7.67" cy="13.67" r="2.33" fill="#40a0ff"/></svg>