<svg xmlns="http://www.w3.org/2000/svg" viewBox="0 0 16 16"><path fill="#a040ff" d="M13.4 7h-.19l.01.53z"/><path fill="#a040ff" d="m9.06 11.95-.61-.03c-1.59-.09-2.25-.81-2.51-1.41-.41-.92-.14-2.07.75-3.17Q6.84 7.16 7 7H5.45a2 2 0 0 0-1.9 1.37L2.01 13V7c0-1.1.9-2 2-2h11c.55 0 1-.45 1-1s-.45-1-1-1h-7L6.6 1.59A2 2 0 0 0 5.19 1H2.02C.9 1 0 1.9 0 3v10c0 1.1.9 2 2 2h7.15zM13.74 15H14a2 2 0 0 0 2-2V8.95z"/><path fill="#a040ff" d="M14.78 6.08 12.3 13.3l-.09-7.22c-3.89-.82-7.81 4.61-3.7 4.83-.44-1.44 0-3.14 1.47-3.7 0 .19.16 8.6.22 8.79h2.1L16 6.08z"/></svg>