<svg xmlns="http://www.w3.org/2000/svg" viewBox="0 0 16 16"><path fill="#6060ff" d="M15.9 2.39 8.46 15.74a.4.4 0 0 1-.51.23.4.4 0 0 1-.23-.23L.12 2.39a.4.4 0 0 1 .12-.55q.16-.1.33-.05l7.44 1.34h.15l7.29-1.34c.35 0 .6.3.45.6"/><path fill="#ffff40" d="M11.58.06 6.02 1.15c-.1 0-.2.1-.2.2l-.25 5.66c0 .15.1.25.25.2l1.49-.35c.15 0 .3.1.25.25l-.45 2.23q.01.24.25.25l.99-.3c.1-.05.25.1.25.25l-.74 3.47c0 .25.25.35.35.15l.1-.1 4.47-8.98c.1-.15 0-.35-.2-.3l-1.59.3q-.18-.01-.2-.19v-.06l.99-3.57c.05-.15-.05-.3-.2-.25z"/></svg>