<svg xmlns="http://www.w3.org/2000/svg" viewBox="0 0 16 16"><path fill="#40a0ff" d="M14 3H8L6.59 1.59A2 2 0 0 0 5.18 1H2.01A2 2 0 0 0 0 3v10c0 1.1.9 2 2 2h8.42L8.8 13.56l-1.04.76c-.5.44-1.24.45-1.79 0l-.63-.59a1.4 1.4 0 0 1-.45-.97c-.02-.4.14-.8.43-1.1l.72-.65-.65-.58a1.5 1.5 0 0 1-.47-1.14q.04-.57.44-.96l.61-.63a1.4 1.4 0 0 1 1.79 0l1.05.8 3.3-3.01q.17-.2.4-.29c.45-.25 1-.28 1.47-.06l2.02.98V4.99a2 2 0 0 0-2-2Z"/><path fill="#40a0ff" d="m15.65 7.07-2.08-1.01a.6.6 0 0 0-.63.06s-.06 0-.09.06L8.87 9.81 7.13 8.48a.4.4 0 0 0-.54 0l-.54.57c-.19.16-.19.44 0 .63l1.48 1.33-1.52 1.36c-.19.19-.19.47 0 .63l.57.54c.16.13.38.16.54 0l1.74-1.26 3.98 3.54.09.06c.18.13.43.16.63.06l2.05-1.01c.23-.1.37-.32.38-.57V7.63a.6.6 0 0 0-.38-.57h.03Zm-2.18 6.25-3.03-2.31 3.03-2.31v4.61Z"/></svg>