<svg xmlns="http://www.w3.org/2000/svg" viewBox="0 0 16 16"><path fill="#40ffa0" d="M5.99 11q-.54-.35-.7-.96a1.6 1.6 0 0 1 .16-1.23l.94-1.62a1.6 1.6 0 0 1 2.17-.62c.03-.87.75-1.56 1.62-1.56h1.88c.53 0 .99.25 1.29.65L16 1.01H9.85v.05L8 4.26l-1.85-3.2H0l5.81 10.12q.08-.1.19-.17Z"/><path fill="#40a0ff" d="M8.56 6.56C8.59 5.69 9.31 5 10.18 5h.33l2.29-4H9.85v.05L8 4.25l-1.85-3.2H3.2l3.38 5.88a1.6 1.6 0 0 1 1.98-.36Z"/><path fill="#a0a0a0" d="m15.69 11.83-.9-.52c-.3-.17-.3-.45 0-.62l.9-.52c.3-.17.4-.56.23-.85l-.94-1.62a.6.6 0 0 0-.85-.23l-.9.52c-.3.17-.54.03-.54-.31V6.64a.6.6 0 0 0-.62-.62H10.2a.6.6 0 0 0-.62.62v1.04c0 .34-.24.48-.54.31l-.9-.52a.6.6 0 0 0-.85.23l-.94 1.62c-.17.3-.07.68.23.85l.9.52c.3.17.3.45 0 .62l-.9.52c-.3.17-.4.56-.23.85l.94 1.62c.17.3.56.4.85.23l.9-.52c.3-.17.54-.03.54.31v1.04c0 .34.28.62.63.62h1.88c.34 0 .62-.28.62-.62v-1.04c0-.34.24-.48.54-.31l.9.52c.3.17.68.07.85-.23l.94-1.62a.6.6 0 0 0-.23-.85Zm-3.79.52c-.75.43-1.7.18-2.13-.57s-.18-1.7.57-2.13 1.7-.18 2.13.57.18 1.7-.57 2.13"/></svg>