<svg xmlns="http://www.w3.org/2000/svg" viewBox="0 0 16 16"><path fill="#6060ff" d="M3.11 7.31c2.03-1.93 3.53-2.79 4.85-2.8h.02c1.32 0 2.92.92 4.92 2.82l2.45-2.49A8 8 0 0 0 .69 4.76zm10.58.76c.78.76 1.48 1.5 2.01 2.07a8 8 0 0 0 .04-4.13q-.74.76-2.05 2.06m-11.37.04L.26 6a8 8 0 0 0 .04 4.16c.74-.77 1.64-1.67 2.02-2.05m10.59.72c-2.1 1.93-3.57 2.77-4.89 2.8-1.27 0-2.86-.91-4.9-2.77L.75 11.34a8 8 0 0 0 14.55-.05z"/><path fill="#6060ff" d="M6.89 7.27v1.54L8 9.39l1.11-.55V7.31L8 6.73z"/><path fill="#6060ff" d="M7.98 5.58q-1.62.03-4.09 2.49c2.32 2.25 3.67 2.45 4.08 2.45H8q1.64-.05 4.1-2.44c-1.8-1.68-3.21-2.51-4.12-2.5m1.74 4.16-1.36.67q-.17.09-.37.09a.6.6 0 0 1-.38-.09L6.25 9.7a.8.8 0 0 1-.44-.73V7.13c0-.31.18-.6.46-.74l1.35-.67a1 1 0 0 1 .75 0l1.35.71c.27.14.44.42.44.73V9c0 .31-.18.6-.46.74Z"/></svg>