<svg xmlns="http://www.w3.org/2000/svg" viewBox="0 0 16 16"><path fill="#e0e0e0" d="m15.63 8.13-1.77-1.77a1.3 1.3 0 0 0-.88-.37H9.75c-.69 0-1.25.56-1.25 1.25v7.5c0 .69.56 1.25 1.25 1.25h5c.69 0 1.25-.56 1.25-1.25V9.01c0-.33-.13-.65-.37-.88m-3.38-.25c0-.56.67-.84 1.07-.44l1.25 1.25c.39.39.11 1.07-.44 1.07h-1.25a.6.6 0 0 1-.62-.62V7.89Zm1.88 6.87h-3.75c-.34 0-.62-.28-.62-.62s.28-.62.62-.62h3.75c.34 0 .62.28.62.62s-.28.62-.62.62m0-2.5h-3.75c-.34 0-.62-.28-.62-.62s.28-.62.62-.62h3.75c.34 0 .62.28.62.62s-.28.62-.62.62"/><path fill="#6060ff" d="M9.83 0v.09a1.83 1.83 0 0 1-3.66 0V0H0v16h7.88a2.3 2.3 0 0 1-.38-1.25v-.21h-.07l-.59-2.93-.63 2.93H4.73L3.41 8.37h1.58l.54 2.9.66-2.9h1.32V7.25A2.25 2.25 0 0 1 9.76 5h3.23c.6 0 1.17.23 1.59.66l1.43 1.43V0z"/></svg>