<svg xmlns="http://www.w3.org/2000/svg" viewBox="0 0 16 16"><path d="M14 3H8L6.59 1.59A1.98 1.98 0 005.18 1H2.01A2 2 0 000 3v10c0 1.1.9 2 2 2h5.49L6 14.16l-.04-6.24 5.51-3.18L16 7.3V5a2 2 0 00-2-2zm1.69 10.72L11.63 16v-1.78l2.56-1.41 1.5.91zm.31-.25V8.66l-1.5.87v3.03l1.47.88.03.03z" fill="#40ffff"/><path fill="#40ffff" d="M7.25 13.72L11.31 16v-1.78l-2.56-1.41-1.5.91zm-.31-.25V8.66l1.5.87v3.03l-1.47.94-.03-.03zm.19-5.13L11.28 6v1.72L8.66 9.19l-1.57-.85h.04zm8.68 0L11.66 6v1.72l2.65 1.47 1.53-.85h-.03z"/><path fill="#40a0ff" d="M11.28 13.81l-2.5-1.37V9.72l2.5 1.44v2.65zm.38 0l2.5-1.37V9.75l-2.5 1.44v2.62zM8.97 9.44l2.5-1.41 2.5 1.38-2.5 1.43-2.5-1.4z"/></svg>