<svg xmlns="http://www.w3.org/2000/svg" viewBox="0 0 32 32"><circle cx="16" cy="16" r="16" fill="#f66"/><path d="m19 22.7 4.5.5s2.2.3 2.7 0c.5-.1 3-3.6 3-3.6s-7.1-4.5-9.5-7c.3-4-.3-9.6-.3-9.5l-3.8 3.7-2-5.9c-2.2 2-4 5.1-5.3 9-3.2 3.6-5 8.6-6.7 13a16 16 0 0 0 22.9 6.6L19 22.7Z"/><g fill="#fff"><path d="M18.6 5.6 16 8.1l.5 2.2s1.3.9 2 1.6c.2-2.8.2-4 .1-6.3Z"/><path d="M26.3 19c-3-1.5-7.6-5.2-10.6-8.2C15.1 9 14.1 5 13.4 3c-2.5 2-3 5.6-4.4 8-2.7 2-4.3 9-5.7 14.7A16 16 0 0 0 21.6 31l-5.2-8.7h-1.8c-3.1-.5-7.3.1-7.3.1A7 7 0 0 1 9 18.6l-2.2-.8c.3-1 3-2.1 3.3-2.3-.2.3-1 1-1.2 1.7 1 .1 2.2 1 2.2 1s-1.3 1.2-2 2.8a16.5 16.5 0 0 1 3.6-.2L25.8 22l1.2-1.6s-.4-1.2-.7-1.4Zm-8.6-1.9c-.8-.5-1.6-.7-2.3-.6l.3-1.2c1.6-.2 2.7.6 3.8 1.4l-1.8.5Z"/></g></svg>