<svg xmlns="http://www.w3.org/2000/svg" viewBox="0 0 16 16"><path fill="#ff4040" d="M7.35.65 4.5 4.95V7.7H2.75V4.95L0 .65h2L3.7 3.4 5.5.65zm1.66 13.1a1.6 1.6 0 0 1-.26-.88v-2.12h-.2v3zm-.58-3h-.55q-.53 0-.95-.31L6.3 11.6 4.65 8.45h-1.9v6.9H4.2V10.6l1.55 3.2h1.2zm-1.28-4.6h2.26l1.31-.88q.27-.17.57-.23L9.5.64H8.1l-3 7h1.4l.65-1.5Zm1.65-4 1 2.55H7.75zm6.57 12.6h-7.5c-.34 0-.63.28-.63.63s.28.63.63.63h7.5c.34 0 .63-.28.63-.63s-.28-.63-.63-.63"/><path fill="#ff4040" d="M15.37 9.75H13.5v3.12c0 .34-.28.62-.62.62h-2.5a.6.6 0 0 1-.62-.62V9.75H7.89c-.62 0-.86-.8-.35-1.14l3.75-2.5a.6.6 0 0 1 .69 0l3.75 2.5c.51.34.27 1.14-.35 1.14Z"/></svg>