<svg xmlns="http://www.w3.org/2000/svg" viewBox="0 0 16 16"><path fill="#ff4040" d="M3.63 15.19q0-.42.18-.77-.6-.2-1.05-.66v1.59h.9zm-.88-9.15a2.6 2.6 0 0 1 1.75-.78v-.31L7.35.65H5.5L3.7 3.4 2 .65H0l2.75 4.3zm8.62-.79L9.5.65H8.1l-1.97 4.6zM8.8 2.15l1 2.55H7.75zm5.58 6.54v5.28c0 .22-.18.41-.41.41H5.44a.8.8 0 0 0-.81.81c0 .45.36.81.81.81h9.75a.8.8 0 0 0 .81-.81v-6.5a.8.8 0 0 0-.81-.81.8.8 0 0 0-.81.81"/><path fill="#ff4040" d="M11.94 6.25H4.63c-.9 0-1.62.73-1.62 1.62v4.06c0 .9.73 1.62 1.62 1.62h7.31c.9 0 1.62-.73 1.62-1.62V7.87c0-.9-.73-1.62-1.62-1.62m-3.15 5.63A2.04 2.04 0 0 1 6.31 9.4a2.04 2.04 0 1 1 2.49 2.49Z"/></svg>