<svg xmlns="http://www.w3.org/2000/svg" viewBox="0 0 16 16"><path fill="#ff4040" d="M7.35.65 4.5 4.95V7.7H2.75V4.95L0 .65h2L3.7 3.4 5.5.65zM5 11.04q0-.79.2-1.54l-.55-1.06h-1.9v6.9H4.2v-4.75l1.11 2.3A6 6 0 0 1 5 11.03ZM6.63 5h2.5c.51 0 .95.24 1.25.6l.19-.2q.32-.27.73-.35L9.51.66h-1.4L6.22 5.07q.2-.06.42-.06ZM8.8 2.15l1 2.55H7.75zM5.21 7.4l-.11.25h.28q-.1-.12-.18-.25ZM6 11.04c0-1.52.69-2.88 1.77-3.79H6.62A.6.6 0 0 1 6 6.63c0-.35.28-.62.62-.62h2.5c.35 0 .62.28.62.62v2.5c0 .35-.28.62-.62.62s-.62-.28-.62-.62v-.85a3.72 3.72 0 0 0 1.97 6.48c.31.04.53.3.53.61 0 .38-.34.68-.71.62A5 5 0 0 1 6 11.04m10-.08c0 1.52-.69 2.88-1.77 3.79h1.15c.35 0 .62.28.62.62s-.28.62-.62.62h-2.5a.6.6 0 0 1-.62-.62v-2.5c0-.35.28-.62.62-.62s.62.28.62.62v.85c.76-.68 1.25-1.67 1.25-2.77s-1.4-3.45-3.22-3.71a.6.6 0 0 1-.53-.61c0-.38.34-.68.71-.62A5 5 0 0 1 16 10.96"/><path fill="#ff4040" d="M13.06 9.44a.63.63 0 0 0-.88 0l-1.8 1.8-.55-.55c-.24-.24-.64-.24-.88 0s-.24.64 0 .88l.99.99c.24.24.64.24.88 0l2.24-2.24a.63.63 0 0 0 0-.88"/></svg>