<svg xmlns="http://www.w3.org/2000/svg" viewBox="0 0 16 16"><path fill="#ff4040" d="M7.35.65L4.5 4.95V7.7H2.75V4.95L0 .65h2L3.7 3.4 5.5.65h1.85zm7.84 13.69c.14.21.24.45.24.72v.29h.56v-1.5h-.61c-.04.18-.1.34-.19.49zm-7.06-4.9c0-.34.05-.67.12-.99h-.24l-1.7 3.15-1.65-3.15h-1.9v6.9h1.45V10.6l1.55 3.2h1.2l1.43-2.95a4.46 4.46 0 01-.26-1.41zm1.56 5.62c0-.27.1-.51.24-.72a1.61 1.61 0 01-.24-.84v-.68a4.37 4.37 0 01-1.14-1.49v4.02h1.14v-.29zm1.66-9.87L9.5.65H8.1l-3 7h1.4l.65-1.5h2.46a4.43 4.43 0 011.74-.96zM8.8 2.15l1 2.55H7.75L8.8 2.15zM16 9.44a3.44 3.44 0 10-5.32 2.88v1.18c0 .35.28.62.62.62h2.5c.35 0 .62-.28.62-.62v-1.18a3.42 3.42 0 001.56-2.88zm-1.87 5.31h-3.12a.31.31 0 00-.31.31v.31c0 .35.28.62.62.62h2.5c.35 0 .62-.28.62-.62v-.31a.31.31 0 00-.31-.31z"/></svg>