<svg xmlns="http://www.w3.org/2000/svg" viewBox="0 0 16 16"><path fill="#ff4040" d="M7.35.65L4.5 4.95V7.7H2.75V4.95L0 .65h2L3.7 3.4 5.5.65h1.85zM5.6 12.88c-.36-.3-.6-.74-.6-1.25v-1.25c0-.3.09-.57.23-.81l-.58-1.11h-1.9v6.9H4.2v-4.75l1.2 2.48.2-.2zM6.63 5h1.25c.51 0 .95.24 1.25.6.3-.36.74-.6 1.25-.6h.9L9.51.65h-1.4L6.22 5.06c.13-.04.27-.06.42-.06zM8.8 2.15l1 2.55H7.75L8.8 2.15z"/><rect x="6" y="6" width="2.5" height="2.5" rx=".62" ry=".62" fill="#ff4040"/><rect x="6" y="6" width="2.5" height="2.5" rx=".62" ry=".62" fill="#ff4040"/><rect x="6" y="9.75" width="2.5" height="2.5" rx=".62" ry=".62" fill="#ff4040"/><rect x="6" y="13.5" width="2.5" height="2.5" rx=".62" ry=".62" fill="#ff4040"/><rect x="13.5" y="6" width="2.5" height="2.5" rx=".62" ry=".62" fill="#ff4040"/><rect x="13.5" y="6" width="2.5" height="2.5" rx=".62" ry=".62" fill="#ff4040"/><rect x="13.5" y="9.75" width="2.5" height="2.5" rx=".62" ry=".62" fill="#ff4040"/><rect x="13.5" y="13.5" width="2.5" height="2.5" rx=".62" ry=".62" fill="#ff4040"/><rect x="9.75" y="6" width="2.5" height="2.5" rx=".62" ry=".62" fill="#ff4040"/><rect x="9.75" y="6" width="2.5" height="2.5" rx=".62" ry=".62" fill="#ff4040"/><rect x="9.75" y="9.75" width="2.5" height="2.5" rx=".62" ry=".62" fill="#ff4040"/><rect x="9.75" y="13.5" width="2.5" height="2.5" rx=".62" ry=".62" fill="#ff4040"/></svg>