<svg xmlns="http://www.w3.org/2000/svg" viewBox="0 0 16 16"><path fill="#ff4040" d="M7.35.65L4.5 4.95V7.7H2.75V4.95L0 .65h2L3.7 3.4 5.5.65h1.85zM5 9.12l-.35-.67h-1.9v6.9H4.2V10.6l.8 1.65V9.12zM7.25 5h4.02L9.5.65H8.1L6.09 5.33c.34-.2.73-.33 1.16-.33zM8.8 2.15l1 2.55H7.75L8.8 2.15zM12.98 6H7.25C6.56 6 6 6.56 6 7.25v7.5c0 .69.56 1.25 1.25 1.25h7.5c.69 0 1.25-.56 1.25-1.25V9.02c0-.33-.13-.65-.37-.88l-1.77-1.77a1.26 1.26 0 00-.88-.37zM7.25 8.5v-.62c0-.34.28-.62.62-.62h3.75c.34 0 .62.28.62.62v.62c0 .34-.28.62-.62.62H7.87a.62.62 0 01-.62-.62zm4.14 6.2a1.56 1.56 0 11-.77-3.03 1.56 1.56 0 01.77 3.03z"/></svg>