<svg xmlns="http://www.w3.org/2000/svg" viewBox="0 0 16 16"><path fill="#ff4040" d="M7.35.65 4.5 4.95V7.7H2.75V4.95L0 .65h2L3.7 3.4 5.5.65zM5.28 12.23A1.7 1.7 0 0 1 5 11.3v-1.11q.01-.37.21-.67l-.56-1.06h-1.9v6.9H4.2v-4.75l.93 1.92q.06-.15.15-.28ZM11 5h.27L9.5.64H8.1L5.41 6.93C6.33 5.66 8.67 4.99 11 4.99ZM8.8 2.15l1 2.55H7.75zM16 14.16a.7.7 0 0 1-.36.62 9.5 9.5 0 0 1-9.28 0 .7.7 0 0 1-.36-.62v-1.11c0-.27.28-.44.52-.32a9.5 9.5 0 0 0 8.95.01c.24-.13.53.03.53.3z"/><path fill="#ff4040" d="M16 11.31a.7.7 0 0 1-.36.62 9.5 9.5 0 0 1-9.28 0 .7.7 0 0 1-.36-.62V10.2c0-.27.28-.44.52-.32a9.5 9.5 0 0 0 8.95.01c.24-.13.53.03.53.3z"/><ellipse cx="11" cy="8.14" fill="#ff4040" rx="5" ry="2.14"/></svg>