<svg xmlns="http://www.w3.org/2000/svg" viewBox="0 0 16 16"><path fill="#ff4040" d="M7.35.65 4.5 4.95V7.7H2.75V4.95L0 .65h2L3.7 3.4 5.5.65zm-.47 11.29a5 5 0 0 1 1.43-3.49h-.3l-1.7 3.15-1.65-3.15h-1.9v6.9h1.45V10.6l1.55 3.2h1.2l.17-.35a5 5 0 0 1-.24-1.51Zm2.26-5.79c.2-.66.82-1.15 1.55-1.15h.58L9.5.65H8.1l-3 7h1.4l.65-1.5zm-.34-4 1 2.55H7.75zm5.01 4.48c0 .34-.28.62-.62.62h-2.5a.6.6 0 0 1-.62-.62c0-.34.28-.62.62-.62h2.5c.34 0 .62.28.62.62m1.4 2.91.48-.48a.63.63 0 0 0 0-.88.63.63 0 0 0-.88 0l-.48.48a4.05 4.05 0 1 0-2.39 7.33 4.06 4.06 0 0 0 3.27-6.45m-2.65 2.4c0 .34-.28.62-.62.62s-.62-.28-.62-.62V9.75c0-.34.28-.62.62-.62s.62.28.62.62z"/></svg>