<svg xmlns="http://www.w3.org/2000/svg" viewBox="0 0 16 16"><path fill="#ffa040" d="M4.04 7.61q-.33.31-.5.76L2 13V7c0-1.1.9-2 2-2h11c.55 0 1-.45 1-1s-.45-1-1-1H8L6.59 1.59A2 2 0 0 0 5.18 1H2.01A2 2 0 0 0 0 3v10c0 1.1.9 2 2 2h2.04z"/><path fill="#ffa040" d="M7.27 12.78h-.65V9.15h.45l1.27-1.58H5.05v6.78h.86l1.37-1.58Z"/><path fill="#ffa040" d="M10.08 12.78 15.8 6l-3.53 1.58H9.05L7.68 9.16h3.29l-5.72 6.85 3.53-1.64H12l1.37-1.58z"/><path fill="#ffa040" d="m15.14 7.58-1.37 1.64h.65v3.56h-.45l-1.34 1.58h3.36V7.58z"/></svg>