<svg xmlns="http://www.w3.org/2000/svg" viewBox="0 0 16 16"><path fill="#40a0ff" d="m10.6 12.31-3.75 1.25c-1.34.45-1.02 2.44.4 2.44h7.5c1.42 0 1.74-1.99.4-2.44l-3.75-1.25a1.2 1.2 0 0 0-.79 0Z"/><circle cx="11" cy="8.5" r="2.5" fill="#40a0ff"/><path fill="#40a0ff" d="M5.03 15.11a2.2 2.2 0 0 1 1.51-2.49l2.94-.98A3.49 3.49 0 0 1 11 5a3.5 3.5 0 0 1 1.52 6.64l1.7.57q.76-1.46.78-3.2V4.7c0-.74-.4-1.41-1.05-1.76L8.94.23a2 2 0 0 0-1.88 0l-5.01 2.7A2 2 0 0 0 1 4.69V9a7 7 0 0 0 4.09 6.36q-.04-.12-.06-.25"/></svg>