<svg xmlns="http://www.w3.org/2000/svg" viewBox="0 0 16 16"><path fill="#40a0ff" d="M15 3H8L6.59 1.59A2 2 0 0 0 5.18 1H2.01A2 2 0 0 0 0 3v10c0 1.1.9 2 2 2h4.84a5.3 5.3 0 0 1-1.22-3.38V8.93c0-.8.43-1.53 1.12-1.93h-1.3a2 2 0 0 0-1.9 1.37L2 13V7c0-1.1.9-2 2-2h11c.55 0 1-.45 1-1s-.45-1-1-1m-2.37 10.7-2.34.78c-.84.28-.64 1.52.25 1.52h4.69c.89 0 1.09-1.24.25-1.52l-2.34-.78a1 1 0 0 0-.49 0Z"/><circle cx="12.87" cy="11.31" r="1.56" fill="#40a0ff"/><path fill="#40a0ff" d="M9.14 15.44c-.11-.7.27-1.34.94-1.56l1.84-.61a2.2 2.2 0 0 1-1.24-1.96 2.19 2.19 0 1 1 4.38 0c0 .86-.51 1.6-1.24 1.96l1.06.35q.48-.91.49-2V8.93c0-.46-.25-.88-.66-1.1l-3.13-1.69a1.3 1.3 0 0 0-1.17 0L7.28 7.83c-.4.22-.66.64-.66 1.1v2.69a4.4 4.4 0 0 0 2.56 3.98z"/></svg>