<svg xmlns="http://www.w3.org/2000/svg" viewBox="0 0 32 32"><g fill="#66f"><path d="M12.2 20.8H5.4L4 25c0 .1-.2.3-.3.2H.2c-.2 0-.2 0-.2-.3L6 8.2c0-.2 0-.3.2-.5V6.5l.2-.2H11l.3.1L17.9 25l-.1.3h-3.9s-.2 0-.3-.2l-1.4-4.4v.1Zm-5.8-3.6h4.7l-1-3-1.4-4.6c-.4 1.7-1 3.3-1.5 5a31 31 0 0 1-.8 2.6ZM28.6 19.1H23c0 .6.2 1.2.5 1.7.4.5.8.8 1.4 1a7 7 0 0 0 4.2.3c.5 0 1-.2 1.6-.4l.1.1v3l-.1.2a12.5 12.5 0 0 1-4.4.8c-3.4 0-6.2-1.7-7-4.8-1.5-4.6 1.1-10.6 6.6-10.3 1.7 0 3.6.6 4.7 2A7.5 7.5 0 0 1 32 18v.8c-.1.4-.5.2-.9.3h-2.4ZM23 16.5h4.9l.4-.2c0-1.4-1.1-2.6-2.5-2.5-1.5-.1-2.7 1.2-2.8 2.7Z"/></g></svg>