<svg xmlns="http://www.w3.org/2000/svg" viewBox="0 0 16 16"><path fill="#40ffa0" d="M5 12.56c0-1.58.83-3.01 2.18-3.81q.58-.98 1.57-1.57L8.87 7H5.44a2 2 0 0 0-1.9 1.37L2 13V7c0-1.1.9-2 2-2h11c.55 0 1-.45 1-1s-.45-1-1-1H8L6.59 1.59A2 2 0 0 0 5.18 1H2.01A2 2 0 0 0 0 3v10c0 1.1.9 2 2 2h3.75A4.4 4.4 0 0 1 5 12.56m9.82.7a4.4 4.4 0 0 1-1.57 1.56l-.13.18H14a2 2 0 0 0 2-2v-.77q-.5.6-1.18 1.02Z"/><path fill="#40ffa0" d="M16 9.44a3.44 3.44 0 0 0-6.52-1.52 3.5 3.5 0 0 0-1.57 1.57 3.44 3.44 0 1 0 4.59 4.59 3.5 3.5 0 0 0 1.57-1.57 3.4 3.4 0 0 0 1.92-3.08Zm-2.89 2.11q-.27.08-.55.08a2.2 2.2 0 0 1-2.11-2.74q.27-.08.55-.08a2.2 2.2 0 0 1 2.11 2.74M9.15 9.84a3.45 3.45 0 0 0 3.01 3.01q-.51.33-1.16.34a2.19 2.19 0 0 1-1.85-3.35m-1.9 2.72q.01-.65.34-1.16a3.46 3.46 0 0 0 3.01 3.01q-.51.33-1.16.34a2.2 2.2 0 0 1-2.19-2.19m7.16-1.97a3.45 3.45 0 0 0-3.01-3.01q.51-.33 1.16-.34a2.19 2.19 0 0 1 1.85 3.35"/></svg>