<svg xmlns="http://www.w3.org/2000/svg" viewBox="0 0 32 32"><path d="M30 0a65.3 65.3 0 0 0-10.6 6.5C15.8 10.1 9 14.1 9 19.6l-.2-1.8-1.4 2.7c-2-4.5-.2.8-.9 2.2-.5 0-1-.4-1.7-1 .5 1 1 1.4 1.2 1.6-.7-.3-1.6 0-2.5.2 1.2 0 2.1.1 2.7.5-2 2.4-4 5-6.2 8 1 0 5.5-7 9-10.6.1 0 .2-.4.1-.9l.1.6.2.4-.2.3L7 24.6c.3.3.5 1 .6 1.6.2-.6.1-1.2-.2-1.8 2.2 1 4.4 1 5.9-.5-.6.3-1.3.4-2.2 0 2-.2 3-.7 4.3-2-2.1 1.3-3.8.2-5.8-.4l1.1.3c4.1.9 8.2-2.5 10.7-5.8a5 5 0 0 1-1.7-.1c1.5 0 2.6-.7 3.6-1.7a5 5 0 0 1-2.1 0c2.1.1 3.7-1.5 4.8-3.1h-2.2l-.6-.2c3.4.2 5.6-2.2 8-5.5C32.6 2.8 32.3.2 30 .1Z" fill="#f66"/></svg>