<svg xmlns="http://www.w3.org/2000/svg" viewBox="0 0 16 16"><path fill="#ffff40" d="m7.98 14.02-.22.02c-.42 0-.85-.16-1.17-.48l-.92-.92a2.3 2.3 0 0 1 0-3.26l.93-.92c.38-.38.89-.53 1.38-.46q-.06-.52.18-.98H5.44a2 2 0 0 0-1.9 1.37L2 13.02v-6c0-1.1.9-2 2-2h11c.55 0 1-.45 1-1s-.45-1-1-1H8L6.59 1.61a2 2 0 0 0-1.41-.59H2.01A2 2 0 0 0 0 3v10c0 1.1.9 2 2 2h6.16a1.7 1.7 0 0 1-.18-.98"/><path fill="#ffff40" d="M14 7h-.16q.24.48.18 1c.5-.06 1.02.08 1.39.45l.6.6V9a2 2 0 0 0-2-2Zm.23 7.04-.22-.02q.06.51-.18.98h.16a2 2 0 0 0 2-2v-.04l-.6.6c-.31.31-.73.48-1.17.48Z"/><rect width="2.61" height="2.61" x="9.69" y="9.69" fill="#ffff40" rx=".65" ry=".65" transform="rotate(-45 11 11)"/><path fill="#ffff40" d="m10.54 14.23-.46-.46a.64.64 0 0 0-.92 0 .64.64 0 0 0 0 .92l.92.92c.51.51 1.34.51 1.85 0l.92-.92a.64.64 0 0 0 0-.92.64.64 0 0 0-.92 0l-.46.46a.64.64 0 0 1-.92 0Zm3.69-2.77-.46.46a.64.64 0 0 0 0 .92c.26.26.67.26.92 0l.92-.92c.51-.51.51-1.34 0-1.85l-.92-.92a.64.64 0 0 0-.92 0 .64.64 0 0 0 0 .92l.46.46c.26.26.26.67 0 .92Zm-6.46 0 .46.46c.26.26.26.67 0 .92a.64.64 0 0 1-.92 0l-.92-.92a1.3 1.3 0 0 1 0-1.85l.92-.92a.64.64 0 0 1 .92 0c.26.26.26.67 0 .92l-.46.46a.64.64 0 0 0 0 .92Zm2.77-3.69-.46.46a.64.64 0 0 1-.92 0 .64.64 0 0 1 0-.92l.92-.92a1.3 1.3 0 0 1 1.85 0l.92.92c.26.26.26.67 0 .92a.64.64 0 0 1-.92 0l-.46-.46a.64.64 0 0 0-.92 0Z"/></svg>