<svg xmlns="http://www.w3.org/2000/svg" viewBox="0 0 16 16"><rect width="4.18" height="4.18" x="5.91" y="5.91" fill="#ffff40" rx="1.04" ry="1.04" transform="rotate(-45 8 8)"/><path fill="#ffff40" d="m7.26 13.17-.74-.74a1.04 1.04 0 1 0-1.48 1.48l1.48 1.48c.82.82 2.14.82 2.96 0l1.48-1.48a1.04 1.04 0 1 0-1.48-1.48l-.74.74c-.41.41-1.07.41-1.48 0m5.91-4.43-.74.74a1.04 1.04 0 1 0 1.48 1.48l1.48-1.48c.82-.82.82-2.14 0-2.96l-1.48-1.48a1.04 1.04 0 1 0-1.48 1.48l.74.74c.41.41.41 1.07 0 1.48m-10.34 0 .74.74a1.04 1.04 0 1 1-1.48 1.48L.61 9.48a2.1 2.1 0 0 1 0-2.96l1.48-1.48a1.04 1.04 0 1 1 1.48 1.48l-.74.74a1.04 1.04 0 0 0 0 1.48m4.43-5.91-.74.74a1.04 1.04 0 1 1-1.48-1.48L6.52.61a2.1 2.1 0 0 1 2.96 0l1.48 1.48a1.04 1.04 0 1 1-1.48 1.48l-.74-.74a1.04 1.04 0 0 0-1.48 0"/></svg>