<svg xmlns="http://www.w3.org/2000/svg" viewBox="0 0 16 16"><path fill="#6060ff" d="M15 3H8L6.59 1.59A2 2 0 0 0 5.18 1H2.01A2 2 0 0 0 0 3v10c0 1.1.9 2 2 2h3v-.88c0-.51.24-.95.6-1.25-.36-.3-.6-.74-.6-1.25v-1.25c0-.51.24-.95.6-1.25-.36-.3-.6-.74-.6-1.25v-.8a2 2 0 0 0-1.46 1.3L2 13V7c0-1.1.9-2 2-2h11c.55 0 1-.45 1-1s-.45-1-1-1"/><rect width="2.5" height="2.5" x="6" y="6" fill="#6060ff" rx=".62" ry=".62"/><rect width="2.5" height="2.5" x="6" y="6" fill="#6060ff" rx=".62" ry=".62"/><rect width="2.5" height="2.5" x="6" y="9.75" fill="#6060ff" rx=".62" ry=".62"/><rect width="2.5" height="2.5" x="6" y="13.5" fill="#6060ff" rx=".62" ry=".62"/><rect width="2.5" height="2.5" x="13.5" y="6" fill="#6060ff" rx=".62" ry=".62"/><rect width="2.5" height="2.5" x="13.5" y="6" fill="#6060ff" rx=".62" ry=".62"/><rect width="2.5" height="2.5" x="13.5" y="9.75" fill="#6060ff" rx=".62" ry=".62"/><rect width="2.5" height="2.5" x="13.5" y="13.5" fill="#6060ff" rx=".62" ry=".62"/><rect width="2.5" height="2.5" x="9.75" y="6" fill="#6060ff" rx=".62" ry=".62"/><rect width="2.5" height="2.5" x="9.75" y="6" fill="#6060ff" rx=".62" ry=".62"/><rect width="2.5" height="2.5" x="9.75" y="9.75" fill="#6060ff" rx=".62" ry=".62"/><rect width="2.5" height="2.5" x="9.75" y="13.5" fill="#6060ff" rx=".62" ry=".62"/></svg>