<svg xmlns="http://www.w3.org/2000/svg" viewBox="0 0 16 16"><rect width="4" height="4" fill="#6060ff" rx="1" ry="1"/><rect width="4" height="4" fill="#6060ff" rx="1" ry="1"/><rect width="4" height="4" y="6" fill="#6060ff" rx="1" ry="1"/><rect width="4" height="4" y="12" fill="#6060ff" rx="1" ry="1"/><rect width="4" height="4" x="12" fill="#6060ff" rx="1" ry="1"/><rect width="4" height="4" x="12" fill="#6060ff" rx="1" ry="1"/><rect width="4" height="4" x="12" y="6" fill="#6060ff" rx="1" ry="1"/><rect width="4" height="4" x="12" y="12" fill="#6060ff" rx="1" ry="1"/><rect width="4" height="4" x="6" fill="#6060ff" rx="1" ry="1"/><rect width="4" height="4" x="6" fill="#6060ff" rx="1" ry="1"/><rect width="4" height="4" x="6" y="6" fill="#6060ff" rx="1" ry="1"/><rect width="4" height="4" x="6" y="12" fill="#6060ff" rx="1" ry="1"/></svg>