<svg xmlns="http://www.w3.org/2000/svg" viewBox="0 0 16 16"><path fill="#ffff40" d="M14 3H8L6.59 1.59A2 2 0 0 0 5.18 1H2.01A2 2 0 0 0 0 3v10c0 1.1.9 2 2 2h3V7.25q0-.3.21-.53l1.5-1.5A.8.8 0 0 1 7.24 5h7.5q.31 0 .53.22l.72.72V5a2 2 0 0 0-2-2Z"/><path fill="#ffff40" d="M16 7.88a.6.6 0 0 0-.18-.44l-1.25-1.25a.6.6 0 0 0-.44-.18H7.88a.7.7 0 0 0-.44.18L6.19 7.44a.6.6 0 0 0-.18.44v6.88c0 .69.56 1.25 1.25 1.25h7.5c.69 0 1.25-.56 1.25-1.25V7.88Zm-2.13 4.25-2.5 1.88a.6.6 0 0 1-.75 0l-2.5-1.88a.62.62 0 0 1 .37-1.12h1.25v-.94c0-.17.14-.31.31-.31h1.88c.17 0 .31.14.31.31v.94h1.25c.6 0 .86.76.37 1.12ZM14 7.56H8.01c-.34 0-.43-.2-.18-.44l.09-.09a.3.3 0 0 1 .22-.09h5.73q.13 0 .22.09l.09.09c.24.24.16.44-.18.44"/></svg>