<svg xmlns="http://www.w3.org/2000/svg" viewBox="0 0 16 16"><path fill="#6060ff" d="M15 3H8L6.59 1.59A2 2 0 0 0 5.18 1H2.01A2 2 0 0 0 0 3v10c0 1.1.9 2 2 2h5.85a3.5 3.5 0 0 1-.35-1.5 3.54 3.54 0 0 1 3.75-3.49V7.25q0-.13.03-.25H5.45a2 2 0 0 0-1.9 1.37L2.01 13V7c0-1.1.9-2 2-2h11c.55 0 1-.45 1-1s-.45-1-1-1Zm-.5 6.5v4a3.5 3.5 0 0 1-.34 1.48A2 2 0 0 0 16 13V9.12q-.55.37-1.25.38z"/><path fill="#6060ff" d="M14.75 6H13.5c-.69 0-1.25.56-1.25 1.25v4.09a2.5 2.5 0 1 0 1.25 2.16v-5h1.25a1.25 1.25 0 0 0 0-2.5"/></svg>