<svg xmlns="http://www.w3.org/2000/svg" viewBox="0 0 16 16"><path fill="#6060ff" d="M14.5 9.5v3.9q-.01.86-.38 1.59A2 2 0 0 0 16 13V9.09q-.58.4-1.33.41zM14 3H8L6.59 1.59A2 2 0 0 0 5.18 1H2.01A2 2 0 0 0 0 3v10c0 1.1.9 2 2 2h5.86a3.5 3.5 0 0 1-.34-1.89 3.5 3.5 0 0 1 3.73-3.1V7.25A2.25 2.25 0 0 1 13.5 5h1.25q.69 0 1.25.39V5a2 2 0 0 0-2-2"/><path fill="#6060ff" d="M14.75 6H13.5c-.69 0-1.25.56-1.25 1.25v4.09a2.52 2.52 0 0 0-3.74 1.88 2.5 2.5 0 0 0 2.85 2.76 2.6 2.6 0 0 0 2.13-2.57V8.83c0-.17.14-.31.31-.31h.86c.62 0 1.2-.42 1.31-1.04a1.25 1.25 0 0 0-1.23-1.46Z"/></svg>