<svg xmlns="http://www.w3.org/2000/svg" viewBox="0 0 32 32"><path d="M25.3 11C37.9 0 16.9-3.5 9 4v.2c.2 0 .6-.3.6 0L7.7 6l.2.2h-.7c0 .2.2.4.3.4l-.8.1-1 1 .1.1.7-.5v.2l-.5.7.1.1.7-.5v.3l-.3.1.3.4 1.6-1.4.5.3L13 5.2l.1.4c-1.7 6.2-9 19.9-10.4 23.3l.3-.1c-.1.2-.2.3 0 .6l1.2-.4h.3c-.2.9-.8 1.3-1 2.5l.5.5c.9-1 1.6-2 2-3 4-1.4 6.5-2 9.3-3.4h-.7c5.4-2.4 15-7.9 9.2-13.5 0-.3.5-.7 1.4-1.1Zm-17 14 4.2-8.4c1.6.3 7-3.2 9.3-1.2-2 5-10.3 8.2-13.5 9.6ZM22.6 8l-.7.8c-1.9 2-3 1.8-7.2 3.7h-.1c.2-.7.9-3.1 1.2-3.2 1-1.3 1.6-6.4 4.1-6v.3c1.9-.2 3.7-.7 4.5.4.2 0 .2.3.3.5h.2v-.6c.9 0 1 1 .3 1.6-.2 0-.3 0-.3-.2h-.2c0 1.3-1.9 2.8-2 2.7Z" fill="#ff6"/></svg>