<svg xmlns="http://www.w3.org/2000/svg" viewBox="0 0 16 16"><path fill="#40a0ff" d="M12.5 0h-2a2 2 0 0 0-2 2v3c0 1.1.9 2 2 2h2a2 2 0 0 0 2-2V2a2 2 0 0 0-2-2m-1 5a1 1 0 0 1-1-1V3a1 1 0 0 1 1-1 1 1 0 0 1 1 1v1a1 1 0 0 1-1 1m-6 4h-2a2 2 0 0 0-2 2v3c0 1.1.9 2 2 2h2a2 2 0 0 0 2-2v-3a2 2 0 0 0-2-2m-1 5a1 1 0 0 1-1-1v-1a1 1 0 0 1 1-1 1 1 0 0 1 1 1v1a1 1 0 0 1-1 1M12 9h-2c-.55 0-1 .45-1 1s.45 1 1 1h1a1 1 0 0 1 1 1v3c0 .55.45 1 1 1s1-.45 1-1v-4a2 2 0 0 0-2-2M5 0H3c-.55 0-1 .45-1 1s.45 1 1 1h1a1 1 0 0 1 1 1v3c0 .55.45 1 1 1s1-.45 1-1V2a2 2 0 0 0-2-2"/></svg>