<svg xmlns="http://www.w3.org/2000/svg" viewBox="0 0 16 16"><path fill="#40ff40" d="M14 3H8L6.59 1.59A2 2 0 0 0 5.18 1H2.01A2 2 0 0 0 0 3v10c0 1.1.9 2 2 2h1.61a2 2 0 0 1-.04-.43V7.43A2.43 2.43 0 0 1 6 5h7.14c1.25 0 2.28.95 2.41 2.16q.23.05.44.14V4.99a2 2 0 0 0-2-2Z"/><rect width="2.86" height="2.86" x="6.71" y="8.14" fill="#40ff40" rx=".71" ry=".71"/><rect width="2.86" height="2.14" x="6.71" y="11.71" fill="#40ff40" rx=".71" ry=".71"/><rect width="2.14" height="2.86" x="10.29" y="11" fill="#40ff40" rx=".71" ry=".71"/><rect width="2.14" height="2.14" x="10.29" y="8.14" fill="#40ff40" rx=".71" ry=".71"/><path fill="#40ff40" d="M15.29 11.71c.39 0 .71-.32.71-.71s-.32-.71-.71-.71h-.71v-.71h.71c.39 0 .71-.32.71-.71s-.32-.71-.71-.71h-.71v-.71c0-.79-.64-1.43-1.43-1.43H6.01c-.79 0-1.43.64-1.43 1.43v7.14c0 .79.64 1.43 1.43 1.43h7.14c.79 0 1.43-.64 1.43-1.43v-.71h.71c.39 0 .71-.32.71-.71s-.32-.71-.71-.71h-.71v-.71h.71Zm-2.86 2.86H6.72a.7.7 0 0 1-.71-.71V8.15c0-.39.32-.71.71-.71h5.71c.39 0 .71.32.71.71v5.71c0 .39-.32.71-.71.71"/></svg>