<svg xmlns="http://www.w3.org/2000/svg" viewBox="0 0 16 16"><path fill="#ffff40" d="M11.03 14.72q-.26-.27-.39-.59a2.6 2.6 0 0 1-2.28 0q-.13.32-.38.57h-.01q-.18.17-.38.29h3.81a2 2 0 0 1-.37-.27M14 3H8L6.59 1.59A2 2 0 0 0 5.18 1H2.01A2 2 0 0 0 0 3v10c0 1.1.9 2 2 2h.74a7.4 7.4 0 0 1 .76-7.72 1.82 1.82 0 0 1 2.73-.18c.34.34.51.78.52 1.24q.7 0 1.23.51.25.26.38.59a2.6 2.6 0 0 1 2.28 0q.12-.32.37-.58.53-.5 1.24-.52c.01-.45.18-.9.52-1.23a1.82 1.82 0 0 1 2.73.18q.28.38.5.79V5.01a2 2 0 0 0-2-2Z"/><path fill="#ffff40" d="M5.52 15.76a.8.8 0 0 1-1.22-.08 6.5 6.5 0 0 1 0-7.8.82.82 0 0 1 1.22-.08.8.8 0 0 1 .07 1.06 4.8 4.8 0 0 0 0 5.84c.24.32.21.77-.07 1.06m7.96 0a.8.8 0 0 1-.07-1.06 4.8 4.8 0 0 0 0-5.84.8.8 0 0 1 .07-1.06.8.8 0 0 1 1.22.08 6.5 6.5 0 0 1 0 7.8.82.82 0 0 1-1.22.08"/><path fill="#ffff40" d="M7.27 14.01a.82.82 0 0 1-1.29-.19 4 4 0 0 1 0-4.08.83.83 0 0 1 1.29-.19h.01c.27.28.29.68.1 1.01q-.32.56-.33 1.22c-.01.66.11.85.33 1.22.19.33.17.73-.1 1zm4.46 0a.8.8 0 0 1-.1-1.01q.32-.56.33-1.22c.01-.66-.11-.85-.33-1.22-.19-.33-.17-.73.1-1h.01a.82.82 0 0 1 1.29.17 4 4 0 0 1 0 4.08.83.83 0 0 1-1.29.19Z"/><circle cx="9.5" cy="11.78" r="1.63" fill="#ffff40"/></svg>