<svg xmlns="http://www.w3.org/2000/svg" viewBox="0 0 16 16"><path fill="#ffff40" d="M3.1 12.9a1 1 0 0 1-1.51-.09A8.05 8.05 0 0 1 1.6 3.2a1 1 0 0 1 1.51-.09 1 1 0 0 1 .09 1.3 6 6 0 0 0 0 7.2 1 1 0 0 1-.09 1.3Zm9.8 0a1 1 0 0 1-.09-1.3 6 6 0 0 0 0-7.2 1 1 0 0 1 .09-1.3 1 1 0 0 1 1.51.09 7.94 7.94 0 0 1 0 9.6 1 1 0 0 1-1.51.09Z"/><path fill="#ffff40" d="M5.26 10.74a1 1 0 0 1-1.58-.23 5 5 0 0 1 0-5.02 1 1 0 0 1 1.58-.23h.01c.33.34.36.84.13 1.24a3 3 0 0 0 0 3c.23.4.2.9-.13 1.23zm5.48 0a1 1 0 0 1-.13-1.24 3 3 0 0 0 0-3 1 1 0 0 1 .13-1.23h.01a1 1 0 0 1 1.58.22 5 5 0 0 1 0 5.02c-.33.57-1.11.69-1.58.23"/><circle cx="8" cy="8" r="2" fill="#ffff40"/></svg>