<svg xmlns="http://www.w3.org/2000/svg" viewBox="0 0 16 16"><path fill="#ffff40" d="M6.25 14.75V8.5c0-.58.24-1.1.6-1.5H5.44a2 2 0 0 0-1.9 1.37L2 13V7c0-1.1.9-2 2-2h11c.55 0 1-.45 1-1s-.45-1-1-1H8L6.59 1.59A2 2 0 0 0 5.18 1H2.01A2 2 0 0 0 0 3v10c0 1.1.9 2 2 2h4.29c0-.08-.04-.16-.04-.25"/><rect width="2.5" height="2.5" x="11.63" y="11.63" fill="#ffff40" rx=".62" ry=".62"/><path fill="#ffff40" d="M14.75 7.25v-.63c0-.34-.28-.62-.62-.62s-.62.28-.62.62v.63H9.76v-.63c0-.34-.28-.62-.62-.62s-.62.28-.62.62v.63c-.69 0-1.25.56-1.25 1.25v6.25c0 .69.56 1.25 1.25 1.25h6.25c.69 0 1.25-.56 1.25-1.25V8.5c0-.69-.56-1.25-1.25-1.25Zm-.62 7.5h-5a.63.63 0 0 1-.63-.63V9.75c0-.35.28-.63.63-.63h5c.35 0 .63.28.63.63v4.37c0 .35-.28.63-.63.63"/></svg>