<svg xmlns="http://www.w3.org/2000/svg" viewBox="0 0 16 16"><path fill="#66b4ff" d="M14 3H8L6.59 1.59A2 2 0 0 0 5.18 1H2.01A2 2 0 0 0 0 3v10c0 1.1.9 2 2 2h5.31l-.09-.23-1.17-.44a1.7 1.7 0 0 1-.93-.9c-.17-.41-.16-.88.02-1.29L5.66 11l-.52-1.14a1.6 1.6 0 0 1-.02-1.29c.17-.41.51-.74.93-.9l1.17-.44.44-1.17a1.6 1.6 0 0 1 2.19-.91l1.14.52 1.14-.52a1.6 1.6 0 0 1 1.29-.02c.41.17.74.51.9.93l.44 1.17 1.17.44.05.03V5.01a2 2 0 0 0-2-2Z"/><path fill="#66b4ff" d="M15.3 11.13a.3.3 0 0 1 0-.26l.65-1.43a.62.62 0 0 0-.35-.84l-1.47-.55a.3.3 0 0 1-.18-.18L13.4 6.4a.62.62 0 0 0-.84-.35l-1.43.65a.3.3 0 0 1-.26 0l-1.43-.65a.62.62 0 0 0-.84.35l-.55 1.47a.3.3 0 0 1-.18.18L6.4 8.6a.62.62 0 0 0-.35.84l.65 1.43a.3.3 0 0 1 0 .26l-.65 1.43c-.15.33.01.71.35.84l1.47.55q.13.05.18.18l.55 1.47c.13.34.51.5.84.35l1.43-.65a.3.3 0 0 1 .26 0l1.43.65c.33.15.71-.01.84-.35l.55-1.47q.05-.13.18-.18l1.47-.55c.34-.13.5-.51.35-.84zm-1.87-1.01-2.65 2.65a.63.63 0 0 1-.88 0l-1.33-1.33a.63.63 0 0 1 0-.88.63.63 0 0 1 .88 0l.88.88 2.21-2.21c.24-.24.64-.24.88 0s.24.64 0 .88Z"/></svg>