<svg xmlns="http://www.w3.org/2000/svg" viewBox="0 0 16 16"><path fill="#40a0ff" d="M14.87 8.21a.5.5 0 0 1 0-.41l1.04-2.28a1 1 0 0 0-.56-1.35L13 3.29a.5.5 0 0 1-.29-.29L11.83.65a1 1 0 0 0-1.35-.56L8.2 1.13a.5.5 0 0 1-.41 0L5.51.09a1 1 0 0 0-1.35.56L3.28 3a.5.5 0 0 1-.29.29l-2.35.88a1 1 0 0 0-.56 1.35L1.12 7.8q.09.2 0 .41L.09 10.49a1 1 0 0 0 .56 1.35l2.35.88q.2.09.29.29l.88 2.35a1 1 0 0 0 1.35.56l2.28-1.04a.5.5 0 0 1 .41 0l2.28 1.04a1 1 0 0 0 1.35-.56l.88-2.35a.5.5 0 0 1 .29-.29l2.35-.88a1 1 0 0 0 .56-1.35zm-2.98-1.62-4.24 4.24a1 1 0 0 1-1.41 0L4.12 8.71A1 1 0 1 1 5.53 7.3l1.41 1.41 3.54-3.54a1 1 0 1 1 1.41 1.41Z"/></svg>