<svg xmlns="http://www.w3.org/2000/svg" viewBox="0 0 16 16"><path fill="#6060ff" d="m3.54 8.37-.23.69 2.05-2.05c-.83.03-1.55.56-1.82 1.35Z"/><path fill="#6060ff" d="m2.53 12.41-.24-.29-.3.89v-6c0-1.1.9-2 2-2h11c.55 0 1-.45 1-1s-.45-1-1-1h-7L6.58 1.6a2 2 0 0 0-1.41-.59H2A2 2 0 0 0 0 3v10c0 1.1.9 2 2 2h3.12zM14 7h-.37L16 9.37V9a2 2 0 0 0-2-2m0 8a2 2 0 0 0 2-2v-.12L13.88 15z"/><path fill="#6060ff" d="M5.25 11.41a.4.4 0 0 1 0-.57l3.2-3.2c.32-.32.32-.83 0-1.15s-.83-.32-1.15 0l-4.06 4.06a.8.8 0 0 0 0 1.15l4.06 4.06a.8.8 0 0 0 1.15 0 .8.8 0 0 0 0-1.15zm8.5 0a.4.4 0 0 0 0-.57l-3.2-3.2c-.32-.32-.32-.83 0-1.15s.83-.32 1.15 0l4.06 4.06a.8.8 0 0 1 0 1.15l-4.06 4.06a.8.8 0 0 1-1.15 0 .8.8 0 0 1 0-1.15z"/></svg>