<svg xmlns="http://www.w3.org/2000/svg" viewBox="0 0 16 16"><path fill="#6060ff" d="M14 3H8L6.59 1.59A2 2 0 0 0 5.18 1H2.01A2 2 0 0 0 0 3v10c0 1.1.9 2 2 2h3.12l-2.59-2.59a1.8 1.8 0 0 1 0-2.56l4.06-4.06a1.86 1.86 0 0 1 2.56 0q.2.21.34.49.13-.27.34-.49a1.86 1.86 0 0 1 2.56 0l3.59 3.59V5.01a2 2 0 0 0-2-2Zm0 12a2 2 0 0 0 2-2v-.12L13.88 15z"/><path fill="#6060ff" d="M5.25 11.41a.4.4 0 0 1 0-.57l3.2-3.2c.32-.32.32-.83 0-1.15s-.83-.32-1.15 0l-4.06 4.06a.8.8 0 0 0 0 1.15l4.06 4.06a.8.8 0 0 0 1.15 0 .8.8 0 0 0 0-1.15zm8.5 0a.4.4 0 0 0 0-.57l-3.2-3.2c-.32-.32-.32-.83 0-1.15s.83-.32 1.15 0l4.06 4.06a.8.8 0 0 1 0 1.15l-4.06 4.06a.8.8 0 0 1-1.15 0 .8.8 0 0 1 0-1.15z"/></svg>