<svg xmlns="http://www.w3.org/2000/svg" viewBox="0 0 16 16"><path fill="#ff40a0" d="M4.33 13.67c0-1.84 1.5-3.33 3.33-3.33h.02l-.14-.19a1.7 1.7 0 0 1 .04-1.69l.91-1.45H5.44a2 2 0 0 0-1.9 1.37L2 13.01v-6c0-1.1.9-2 2-2h11c.55 0 1-.45 1-1s-.45-1-1-1H8L6.59 1.6a2 2 0 0 0-1.41-.59H2.01A2 2 0 0 0 0 3v10c0 1.1.9 2 2 2h2.62a3 3 0 0 1-.29-1.33"/><path fill="#ff40a0" d="M14 7h-1.16l.91 1.45c.32.51.34 1.16.04 1.69l-.14.19h1.02q.75.02 1.33.42V8.99a2 2 0 0 0-2-2Zm-3.9-.69L8.43 8.98A.67.67 0 0 0 9 10h3.33c.52 0 .84-.58.57-1.02l-1.67-2.67a.66.66 0 0 0-1.13 0"/><rect width="4.67" height="4.67" x="11.33" y="11.33" fill="#ff40a0" rx="1.33" ry="1.33"/><circle cx="7.67" cy="13.67" r="2.33" fill="#ff40a0"/></svg>