<svg xmlns="http://www.w3.org/2000/svg" viewBox="0 0 16 16"><path fill="#ff40a0" d="M14 3H8L6.59 1.59A2 2 0 0 0 5.18 1H2.01A2 2 0 0 0 0 3v10c0 1.1.9 2 2 2h2.62a3.3 3.3 0 0 1 3.04-4.66h.02l-.14-.19a1.7 1.7 0 0 1 .04-1.69l1.67-2.67c.31-.49.83-.78 1.41-.78s1.11.29 1.41.78l1.67 2.67c.32.51.34 1.16.04 1.69l-.14.19h1.02q.76.02 1.33.42V5a2 2 0 0 0-2-2Z"/><path fill="#ff40a0" d="M10.1 6.31 8.43 8.98A.67.67 0 0 0 9 10h3.33c.52 0 .84-.58.57-1.02l-1.67-2.67a.66.66 0 0 0-1.13 0"/><rect width="4.67" height="4.67" x="11.33" y="11.33" fill="#ff40a0" rx="1.33" ry="1.33"/><circle cx="7.67" cy="13.67" r="2.33" fill="#ff40a0"/></svg>