<svg xmlns="http://www.w3.org/2000/svg" viewBox="0 0 16 16"><path fill="#40a0ff" d="M14 15a2 2 0 0 0 2-2v-.76L13.24 15zm0-12H8L6.59 1.59A2 2 0 0 0 5.18 1H2.01A2 2 0 0 0 0 3v10c0 1.1.9 2 2 2h5.86a1.7 1.7 0 0 1-.43-.91 1.66 1.66 0 0 1-1.44-1.45 1.7 1.7 0 0 1-.98-.47l-.24-.24a2.37 2.37 0 0 1 0-3.34L7.66 5.7a2.35 2.35 0 0 1 2.87-.35h.01c.93-.55 2.11-.4 2.87.35l2.58 2.58V5a2 2 0 0 0-2-2Z"/><path fill="#40a0ff" d="M13.43 10.5a.67.67 0 0 0 0-.96L10.3 6.41a1.37 1.37 0 0 0-1.93 0L5.48 9.3c-.53.53-.53 1.4 0 1.93l.24.24c.27.27.7.27.96 0l3.15-3.15a.34.34 0 0 1 .48 0l2.16 2.18c.27.27.7.27.96 0"/><path fill="#40a0ff" d="M15.6 9.29 12.71 6.4a1.4 1.4 0 0 0-1.65-.21l2.86 2.86c.53.53.53 1.4 0 1.93s-1.4.53-1.93 0L10.3 9.29a.34.34 0 0 0-.48 0l-2.65 2.65c-.27.27-.27.7 0 .96s.7.27.96 0l2.41-2.41.48.48-2.41 2.41c-.27.27-.27.7 0 .96s.7.27.96 0l2.41-2.41.48.48-2.41 2.41c-.27.27-.27.7 0 .96s.7.27.96 0l4.58-4.58c.53-.53.53-1.4 0-1.93Z"/></svg>