<svg xmlns="http://www.w3.org/2000/svg" viewBox="0 0 16 16"><path fill="#40a0ff" d="M12.24 7.26a1 1 0 0 0 0-1.41L7.65 1.26a2 2 0 0 0-2.82 0L.59 5.5a2 2 0 0 0 0 2.82l.35.35a1 1 0 0 0 1.41 0l4.61-4.61a.5.5 0 0 1 .71 0l3.16 3.19a1 1 0 0 0 1.41 0Z"/><path fill="#40a0ff" d="m15.41 5.5-4.23-4.24a2 2 0 0 0-2.42-.3l4.19 4.19a2 2 0 1 1-2.82 2.82L7.66 5.5a.5.5 0 0 0-.71 0L3.07 9.38a1 1 0 1 0 1.41 1.41l3.53-3.53.71.71-3.53 3.53a1 1 0 1 0 1.41 1.41l3.53-3.53.71.71-3.53 3.53a1 1 0 1 0 1.41 1.41l6.71-6.71a2 2 0 0 0 0-2.82Z"/></svg>