<svg xmlns="http://www.w3.org/2000/svg" viewBox="0 0 16 16"><path fill="#a0a0a0" d="M15 3H8L6.59 1.59A2 2 0 0 0 5.18 1H2.01A2 2 0 0 0 0 3v10c0 1.1.9 2 2 2h4.53l-.14-.19-.94-1.62a1.6 1.6 0 0 1-.16-1.23q.18-.62.7-.96-.54-.35-.7-.96a1.6 1.6 0 0 1 .16-1.23l.94-1.62.13-.19H5.44a2 2 0 0 0-1.9 1.37L2 13V7c0-1.1.9-2 2-2h11c.55 0 1-.45 1-1s-.45-1-1-1"/><path fill="#a0a0a0" d="m15.69 11.83-.9-.52c-.3-.17-.3-.45 0-.62l.9-.52c.3-.17.4-.56.23-.85l-.94-1.62a.6.6 0 0 0-.85-.23l-.9.52c-.3.17-.54.03-.54-.31V6.64a.6.6 0 0 0-.62-.62H10.2a.6.6 0 0 0-.62.62v1.04c0 .34-.24.48-.54.31l-.9-.52a.6.6 0 0 0-.85.23l-.94 1.62c-.17.3-.07.68.23.85l.9.52c.3.17.3.45 0 .62l-.9.52c-.3.17-.4.56-.23.85l.94 1.62c.17.3.56.4.85.23l.9-.52c.3-.17.54-.03.54.31v1.04c0 .34.28.62.63.62h1.88c.34 0 .62-.28.62-.62v-1.04c0-.34.24-.48.54-.31l.9.52c.3.17.68.07.85-.23l.94-1.62a.6.6 0 0 0-.23-.85Zm-3.79.52c-.75.43-1.7.18-2.13-.57s-.18-1.7.57-2.13 1.7-.18 2.13.57.18 1.7-.57 2.13"/></svg>