<svg xmlns="http://www.w3.org/2000/svg" viewBox="0 0 16 16"><path fill="#a0a0a0" d="m15.31 9.33-1.45-.83c-.48-.28-.48-.73 0-1l1.45-.83a1 1 0 0 0 .37-1.37l-1.5-2.6a1 1 0 0 0-1.37-.37l-1.45.83c-.48.27-.87.05-.87-.5V.99A1 1 0 0 0 9.5 0h-3a1 1 0 0 0-1 1v1.67c0 .55-.39.78-.87.5l-1.45-.83a1 1 0 0 0-1.37.37L.32 5.3c-.27.48-.11 1.09.37 1.37l1.45.83c.48.28.48.73 0 1l-1.45.83c-.48.28-.64.89-.37 1.37l1.5 2.6a1 1 0 0 0 1.37.37l1.45-.83c.48-.28.87-.05.87.5v1.67a1 1 0 0 0 1 1h3a1 1 0 0 0 1-1v-1.67c0-.55.39-.78.87-.5l1.45.83a1 1 0 0 0 1.37-.37l1.5-2.6a1 1 0 0 0-.37-1.37Zm-6.06.84a2.5 2.5 0 1 1-2.5-4.34 2.5 2.5 0 0 1 2.5 4.34"/></svg>