<svg xmlns="http://www.w3.org/2000/svg" viewBox="0 0 16 16"><path fill="#40a0ff" d="m12.95 4.65-1.39.56h-.12l-1.39-.56a.3.3 0 0 0-.41.17c-.06.16.01.34.17.41l1.56.63a.3.3 0 0 0 .23 0l1.56-.63a.3.3 0 0 0 .17-.41.3.3 0 0 0-.41-.17Z"/><path fill="#40a0ff" d="M14 2H2a2 2 0 0 0-2 2v8c0 1.1.9 2 2 2h12a2 2 0 0 0 2-2V4a2 2 0 0 0-2-2M6 4c1.1 0 2 .9 2 2s-.9 2-2 2-2-.9-2-2 .9-2 2-2m3 8H3c-1.13 0-1.39-1.59-.32-1.95l3-1a1 1 0 0 1 .63 0l3 1c1.08.36.82 1.95-.32 1.95Zm5-4.87c0 .34-.28.62-.62.62H9.63a.6.6 0 0 1-.62-.62v-2.5c0-.34.28-.62.62-.62h3.75c.34 0 .62.28.62.62z"/></svg>