<svg xmlns="http://www.w3.org/2000/svg" viewBox="0 0 16 16"><path fill="#40a0ff" d="M15 3H8L6.59 1.59A2 2 0 0 0 5.18 1H2.01A2 2 0 0 0 0 3v10c0 1.1.9 2 2 2h.09q-.08-.3-.09-.62V7c0-1.1.9-2 2-2h11c.55 0 1-.45 1-1s-.45-1-1-1m-1.48 5.4-1.13.45h-.09l-1.13-.45a.25.25 0 0 0-.33.14c-.05.13.01.28.14.33l1.27.51a.3.3 0 0 0 .19 0l1.27-.51c.13-.05.19-.2.14-.33a.25.25 0 0 0-.33-.14"/><path fill="#40a0ff" d="M14.38 6.25H4.63c-.89 0-1.62.73-1.62 1.62v6.5c0 .89.73 1.62 1.62 1.62h9.75c.89 0 1.62-.73 1.62-1.62v-6.5c0-.89-.73-1.62-1.62-1.62m-6.5 1.63a1.62 1.62 0 1 1 0 3.24 1.62 1.62 0 0 1 0-3.24m2.43 6.5H5.44c-.92 0-1.13-1.29-.26-1.58l2.44-.81a.7.7 0 0 1 .51 0l2.44.81c.87.29.66 1.58-.26 1.58m4.07-3.97c0 .28-.23.51-.51.51h-3.05a.5.5 0 0 1-.51-.51V8.38c0-.28.23-.51.51-.51h3.05c.28 0 .51.23.51.51z"/></svg>