<svg xmlns="http://www.w3.org/2000/svg" viewBox="0 0 16 16"><path fill="#66f" d="M15 3H8L6.59 1.59A2 2 0 0 0 5.18 1H2.01A2 2 0 0 0 0 3v10c0 1.1.9 2 2 2h3.04c0-.08-.04-.16-.04-.25v-7.5l.02-.18c-.68.15-1.25.62-1.47 1.3L2.01 13V7c0-1.1.9-2 2-2h11c.55 0 1-.45 1-1s-.45-1-1-1Z"/><circle cx="11" cy="11" r=".98" fill="#66f"/><path fill="#66f" d="M10.51 10.15a.97.97 0 0 0-.36 1.33c.27.47.87.63 1.33.36a.97.97 0 0 0 .36-1.33.97.97 0 0 0-1.33-.36"/><path fill="#66f" d="M14.75 6h-7.5C6.56 6 6 6.56 6 7.25v7.5c0 .69.56 1.25 1.25 1.25h7.5c.69 0 1.25-.56 1.25-1.25v-7.5C16 6.56 15.44 6 14.75 6m-1.46 5.2.56.33c.19.11.25.35.14.53l-.59 1.01a.4.4 0 0 1-.53.14l-.56-.33c-.19-.11-.34-.02-.34.2v.65a.4.4 0 0 1-.39.39h-1.17a.4.4 0 0 1-.39-.39v-.65c0-.21-.15-.3-.34-.2l-.56.33a.4.4 0 0 1-.53-.14L8 12.06a.4.4 0 0 1 .14-.53l.56-.33c.19-.11.19-.28 0-.39l-.56-.33A.4.4 0 0 1 8 9.95l.59-1.01a.4.4 0 0 1 .53-.14l.56.33c.19.11.34.02.34-.2v-.65a.4.4 0 0 1 .39-.39h1.17a.4.4 0 0 1 .39.39v.65c0 .21.15.3.34.2l.56-.33a.4.4 0 0 1 .53.14l.59 1.01c.11.19.04.43-.14.53l-.56.33c-.19.11-.19.28 0 .39"/></svg>