<svg xmlns="http://www.w3.org/2000/svg" viewBox="0 0 16 16"><circle cx="8" cy="8" r="1.56" fill="#66f"/><path fill="#66f" d="M7.22 6.65a1.56 1.56 0 1 0 1.55 2.7 1.56 1.56 0 0 0-1.55-2.7"/><path fill="#66f" d="M14 0H2a2 2 0 0 0-2 2v12c0 1.1.9 2 2 2h12a2 2 0 0 0 2-2V2a2 2 0 0 0-2-2m-2.33 8.31.9.52c.3.17.4.56.23.85l-.94 1.62c-.17.3-.56.4-.85.23l-.9-.52c-.3-.17-.54-.03-.54.31v1.04c0 .34-.28.62-.62.62H7.08a.6.6 0 0 1-.62-.62v-1.04c0-.34-.24-.48-.54-.31l-.9.52a.6.6 0 0 1-.85-.23l-.94-1.62a.6.6 0 0 1 .23-.85l.9-.52c.3-.17.3-.45 0-.62l-.9-.52a.6.6 0 0 1-.23-.85l.94-1.62c.17-.3.56-.4.85-.23l.9.52c.3.17.54.03.54-.31V3.64c0-.34.28-.62.62-.62h1.87c.34 0 .62.28.62.63v1.04c0 .34.24.48.54.31l.9-.52c.3-.17.68-.07.85.23l.94 1.62c.17.3.07.68-.23.85l-.9.52c-.3.17-.3.45 0 .62Z"/></svg>