<svg xmlns="http://www.w3.org/2000/svg" viewBox="0 0 16 16"><path fill="#40a0ff" d="M6.28 13.84A1.63 1.63 0 0 1 5.59 11a1.63 1.63 0 0 1 .69-2.84q.12-.67.56-1.16H5.45a2 2 0 0 0-1.9 1.37L2.01 13V7c0-1.1.9-2 2-2h11c.55 0 1-.45 1-1s-.45-1-1-1h-7L6.6 1.59A2 2 0 0 0 5.19 1H2.02C.9 1 0 1.9 0 3v10c0 1.1.9 2 2 2h4.83a2.3 2.3 0 0 1-.56-1.16Zm9.38-5.96.07.28q.06.01.11.05zm.18 5.91-.11.05q-.02.15-.07.28.1-.15.18-.33"/><path fill="#40a0ff" d="M15.38 11.63h-.62v-1.25h.62c.34 0 .62-.28.62-.62s-.28-.62-.62-.62h-.62v-.62c0-.69-.56-1.25-1.25-1.25h-.62v-.62c0-.34-.28-.62-.62-.62s-.62.28-.62.62v.62H10.4v-.62c0-.34-.28-.62-.62-.62s-.62.28-.62.62v.62h-.62c-.69 0-1.25.56-1.25 1.25v.62h-.62c-.34 0-.62.28-.62.62s.28.62.62.62h.62v1.25h-.62c-.34 0-.62.28-.62.62s.28.62.62.62h.62v.62c0 .69.56 1.25 1.25 1.25h.62v.62c0 .34.28.62.62.62s.62-.28.62-.62v-.62h1.25v.62c0 .34.28.62.62.62s.62-.28.62-.62v-.62h.62c.69 0 1.25-.56 1.25-1.25v-.62h.62c.34 0 .62-.28.62-.62s-.28-.62-.62-.62m-2.5 1.87H9.13a.6.6 0 0 1-.62-.62V9.13c0-.35.28-.62.62-.62h3.75c.35 0 .62.28.62.62v3.75c0 .35-.28.62-.62.62"/><rect width="2.5" height="2.5" x="9.75" y="9.75" fill="#40a0ff" rx=".62" ry=".62"/></svg>