<svg xmlns="http://www.w3.org/2000/svg" viewBox="0 0 16 16"><path fill="#ffff40" d="M14 7h-1.14L16 12.23V9a2 2 0 0 0-2-2"/><path fill="#ffff40" d="M3.92 13.32 7.71 7H5.44a2 2 0 0 0-1.9 1.37L2 13V7c0-1.1.9-2 2-2h11c.55 0 1-.45 1-1s-.45-1-1-1H8L6.59 1.59A2 2 0 0 0 5.18 1H2.01A2 2 0 0 0 0 3v10c0 1.1.9 2 2 2h1.62c-.1-.57-.02-1.16.29-1.68Z"/><path fill="#ffff40" d="M15.79 13.84 11.51 6.7a1.43 1.43 0 0 0-2.45 0l-4.28 7.14C4.21 14.79 4.89 16 6 16h8.57c1.11 0 1.8-1.21 1.22-2.16m-5.5.73c-.39 0-.71-.32-.71-.71s.32-.71.71-.71.71.32.71.71-.32.71-.71.71m.71-2.86c0 .39-.32.71-.71.71s-.71-.32-.71-.71V9.57c0-.39.32-.71.71-.71s.71.32.71.71z"/></svg>