<svg xmlns="http://www.w3.org/2000/svg" viewBox="0 0 16 16"><path fill="#ffff40" d="M14 3H8L6.59 1.59A2 2 0 0 0 5.18 1H2.01A2 2 0 0 0 0 3v10c0 1.1.9 2 2 2h1.62c-.1-.57-.02-1.16.29-1.68l4.28-7.14C8.63 5.44 9.41 5 10.27 5s1.64.44 2.08 1.18l3.63 6.06V5.01a2 2 0 0 0-2-2Z"/><path fill="#ffff40" d="M15.79 13.84 11.51 6.7a1.43 1.43 0 0 0-2.45 0l-4.28 7.14C4.21 14.79 4.89 16 6 16h8.57c1.11 0 1.8-1.21 1.22-2.16m-5.5.73c-.39 0-.71-.32-.71-.71s.32-.71.71-.71.71.32.71.71-.32.71-.71.71m.71-2.86c0 .39-.32.71-.71.71s-.71-.32-.71-.71V9.57c0-.39.32-.71.71-.71s.71.32.71.71z"/></svg>