<svg xmlns="http://www.w3.org/2000/svg" viewBox="0 0 16 16"><path fill="#ffff40" d="M5 14.16v-1.11q.01-.46.28-.81a1.7 1.7 0 0 1-.28-.93V10.2q.01-.54.35-.91-.34-.5-.35-1.13c-.01-.63.13-.79.35-1.13-.82.04-1.54.57-1.81 1.35L2 13.01v-6c0-1.1.9-2 2-2h11c.55 0 1-.45 1-1s-.45-1-1-1H8L6.59 1.6a2 2 0 0 0-1.41-.59H2.01A2 2 0 0 0 0 3v10c0 1.1.9 2 2 2h3.22a2 2 0 0 1-.22-.84"/><path fill="#ffff40" d="M16 14.16a.7.7 0 0 1-.36.62 9.5 9.5 0 0 1-9.28 0 .7.7 0 0 1-.36-.62v-1.11c0-.27.28-.44.52-.32a9.5 9.5 0 0 0 8.95.01c.24-.13.53.03.53.3z"/><path fill="#ffff40" d="M16 11.31a.7.7 0 0 1-.36.62 9.5 9.5 0 0 1-9.28 0 .7.7 0 0 1-.36-.62V10.2c0-.27.28-.44.52-.32a9.5 9.5 0 0 0 8.95.01c.24-.13.53.03.53.3z"/><ellipse cx="11" cy="8.14" fill="#ffff40" rx="5" ry="2.14"/></svg>