<svg xmlns="http://www.w3.org/2000/svg" viewBox="0 0 16 16"><path fill="#ffff40" d="M14 3H8L6.59 1.59A2 2 0 0 0 5.18 1H2.01A2 2 0 0 0 0 3v10c0 1.1.9 2 2 2h3.22a2 2 0 0 1-.22-.84v-1.11q.01-.46.28-.81a1.7 1.7 0 0 1-.28-.93V10.2q.01-.54.35-.91A2 2 0 0 1 5 8.16c0-2.06 3.02-3.14 6-3.14 1.93 0 3.87.45 5 1.33V5.02a2 2 0 0 0-2-2Z"/><path fill="#ffff40" d="M16 14.16a.7.7 0 0 1-.36.62 9.5 9.5 0 0 1-9.28 0 .7.7 0 0 1-.36-.62v-1.11c0-.27.28-.44.52-.32a9.5 9.5 0 0 0 8.95.01c.24-.13.53.03.53.3z"/><path fill="#ffff40" d="M16 11.31a.7.7 0 0 1-.36.62 9.5 9.5 0 0 1-9.28 0 .7.7 0 0 1-.36-.62V10.2c0-.27.28-.44.52-.32a9.5 9.5 0 0 0 8.95.01c.24-.13.53.03.53.3z"/><ellipse cx="11" cy="8.14" fill="#ffff40" rx="5" ry="2.14"/></svg>