<svg xmlns="http://www.w3.org/2000/svg" viewBox="0 0 32 32"><path d="M29.1 12.8c1.1.4 2.1.9 2.9 1.5v-1.5h-2.9Z" fill="#ff6"/><path d="M24 14c-4.4 0-8 1.8-8 4s3.6 4 8 4 8-1.8 8-4-3.6-4-8-4m-8 6v3c0 2.2 3.6 4 8 4s8-1.8 8-4v-3c0 2.2-3.6 4-8 4s-8-1.8-8-4m0 5v3c0 2.2 3.6 4 8 4s8-1.8 8-4v-3c0 2.2-3.6 4-8 4s-8-1.8-8-4Z" fill="#ff6" fill-rule="evenodd"/><path d="M14 28V18a3.8 3.8 0 0 1 .3-1.5v-.2c.3-.5.6-1 1-1.3v-.1a6.2 6.2 0 0 1 .8-.6c.5-.4 1-.8 1.7-1l1-.5H6.5L3.2 25.6v-16H32c0-1.8-1.4-3.2-3.2-3.2H16l-3.2-3.2H3.2A3.2 3.2 0 0 0 0 6.4v19.2c0 1.8 1.4 3.2 3.2 3.2h10.9L14 28Z" fill="#ff6"/></svg>