<svg xmlns="http://www.w3.org/2000/svg" viewBox="0 0 16 16"><path fill="#ff4040" d="M14 3H8L6.59 1.59A2 2 0 0 0 5.18 1H2.01A2 2 0 0 0 0 3v10c0 1.1.9 2 2 2h4.51a1.63 1.63 0 0 1 .33-2.13 1.63 1.63 0 0 1 0-2.5 1.63 1.63 0 0 1 .92-2.87c-.4-.63-.33-1.48.22-2.03a1.64 1.64 0 0 1 2.3 0l.81.81q.54-.06 1.09 0l.81-.81a1.64 1.64 0 0 1 2.3 0c.55.55.62 1.4.22 2.03q.27.02.51.13V5a2 2 0 0 0-2-2Z"/><path fill="#ff4040" d="M15.38 12.25c.34 0 .62-.28.62-.62s-.28-.62-.62-.62h-.62V9.76h.62c.34 0 .62-.28.62-.62s-.28-.62-.62-.62h-.94a4 4 0 0 0-.7-.6l.83-.83c.24-.24.24-.64 0-.88s-.64-.24-.88 0l-1.18 1.18a4 4 0 0 0-1.76 0L9.57 6.21c-.24-.24-.64-.24-.88 0s-.24.64 0 .88l.83.83q-.4.26-.7.6h-.94c-.34 0-.62.28-.62.62s.28.62.62.62h.62v1.25h-.62c-.34 0-.62.28-.62.62s.28.62.62.62h.62v1.25h-.62c-.34 0-.62.28-.62.62s.28.62.62.62h.94a3.77 3.77 0 0 0 5.62 0h.94c.34 0 .62-.28.62-.62s-.28-.62-.62-.62h-.62v-1.25zm-3.13 1.25H11c-.34 0-.62-.28-.62-.62s.28-.62.62-.62h1.25c.34 0 .62.28.62.62s-.28.62-.62.62m0-2.5H11c-.34 0-.62-.28-.62-.62s.28-.62.62-.62h1.25c.34 0 .62.28.62.62s-.28.62-.62.62"/></svg>