<svg xmlns="http://www.w3.org/2000/svg" viewBox="0 0 16 16"><path fill="#ff4040" d="M5.06 11.85a1.6 1.6 0 0 1 .55-1.46c-.37-.3-.61-.76-.61-1.27v-2.5a1.62 1.62 0 0 1 3.01-.83 6 6 0 0 1 6.22.16A1 1 0 0 0 15 5a1 1 0 0 0-1-1h-1.5a6 6 0 0 0-1.12-.96l1.33-1.33A1 1 0 1 0 11.3.3L9.42 2.18a6 6 0 0 0-2.82 0L4.72.3a1 1 0 1 0-1.41 1.41l1.33 1.33q-.62.42-1.12.96h-1.5c-.55 0-1 .45-1 1s.45 1 1 1h1v2h-1c-.55 0-1 .45-1 1s.45 1 1 1h1v2h-1c-.55 0-1 .45-1 1s.45 1 1 1h1.5a6 6 0 0 0 4.21 1.98 6 6 0 0 1-2.65-4.13Z"/><path fill="#40a0ff" d="M15.9 9.98A5 5 0 0 0 7.25 7.7V6.62c0-.34-.28-.62-.62-.62s-.62.28-.62.62v2.5c0 .34.28.62.62.62h2.5c.35 0 .62-.28.62-.62s-.28-.62-.62-.62h-.9a3.73 3.73 0 0 1 6.5 2.05 3.75 3.75 0 0 1-7.43.98.6.6 0 0 0-.61-.53.62.62 0 0 0-.62.71 5.01 5.01 0 1 0 9.85-1.73Z"/><path fill="#40a0ff" d="M11.72 10.83a.3.3 0 0 1-.09-.22V9.12a.6.6 0 0 0-.62-.62.6.6 0 0 0-.62.62v1.87q0 .26.18.44l1.33 1.33c.24.24.64.24.88 0a.63.63 0 0 0 0-.88l-1.05-1.05Z"/></svg>