<svg xmlns="http://www.w3.org/2000/svg" viewBox="0 0 16 16"><path fill="#ff4040" d="M14 10c.55 0 1-.45 1-1s-.45-1-1-1h-1V6h1c.55 0 1-.45 1-1s-.45-1-1-1h-1.5a6 6 0 0 0-1.12-.96l1.33-1.33A1 1 0 1 0 11.3.3L9.42 2.18a6 6 0 0 0-2.82 0L4.72.3a1 1 0 1 0-1.41 1.41l1.33 1.33q-.62.42-1.12.96h-1.5c-.55 0-1 .45-1 1s.45 1 1 1h1v2h-1c-.55 0-1 .45-1 1s.45 1 1 1h1v2h-1c-.55 0-1 .45-1 1s.45 1 1 1h1.5a6.1 6.1 0 0 0 9 0h1.5c.55 0 1-.45 1-1s-.45-1-1-1h-1v-2h1Zm-5 2H7c-.55 0-1-.45-1-1s.45-1 1-1h2c.55 0 1 .45 1 1s-.45 1-1 1m0-4H7c-.55 0-1-.45-1-1s.45-1 1-1h2c.55 0 1 .45 1 1s-.45 1-1 1"/></svg>