<svg xmlns="http://www.w3.org/2000/svg" viewBox="0 0 16 16"><path fill="#a0a0a0" d="M2.03 15c.06-.61.41-1.13.93-1.41a3 3 0 0 1-.14-.84v-2.19L2.01 13V7c0-1.1.9-2 2-2h11c.55 0 1-.45 1-1s-.45-1-1-1h-7L6.6 1.59A2 2 0 0 0 5.19 1H2.02C.9 1 0 1.9 0 3v10c0 1.1.9 2 2 2z"/><path fill="#a0a0a0" d="M15.19 14.38h-1.62c.9 0 1.62-.73 1.62-1.62V7.88c0-.9-.73-1.62-1.62-1.62H5.44c-.9 0-1.62.73-1.62 1.62v4.88c0 .9.73 1.62 1.62 1.62H3.82c-.45 0-.81.36-.81.81s.36.81.81.81H15.2c.45 0 .81-.36.81-.81s-.36-.81-.81-.81Zm-8.94-6.5h6.5a.8.8 0 0 1 .81.81v3.25a.8.8 0 0 1-.81.81h-6.5a.8.8 0 0 1-.81-.81V8.69a.8.8 0 0 1 .81-.81"/></svg>