<svg xmlns="http://www.w3.org/2000/svg" viewBox="0 0 16 16"><path fill="#a0a0a0" d="M14 15a2 2 0 0 0 2-2v-.07L13.93 15zm0-12H8L6.59 1.59A2 2 0 0 0 5.18 1H2.01A2 2 0 0 0 0 3v10c0 1.1.9 2 2 2h6.07l-2.41-2.41c-.42-.42-.66-1-.66-1.59V7.25A2.25 2.25 0 0 1 7.25 5H11c.59 0 1.17.24 1.59.66L16 9.07V5a2 2 0 0 0-2-2"/><path fill="#a0a0a0" d="m15.63 10.12-3.75-3.75A1.3 1.3 0 0 0 11 6H7.25C6.56 6 6 6.56 6 7.25V11q0 .52.37.88l3.75 3.75c.49.49 1.28.49 1.77 0l3.75-3.75c.49-.49.49-1.28 0-1.77Zm-6.82-.37a.94.94 0 1 1 0-1.88.94.94 0 0 1 0 1.88"/></svg>