<svg xmlns="http://www.w3.org/2000/svg" viewBox="0 0 32 32"><path d="M5.2 22.6v-.3l.4-1.5H7v-3h3V15h6.1V12h6.6V17l1.6.3h.1l.4-.7 1.2-1.8 2.3 1.7c.7.6 1.3 1.3 1.7 2a6 6 0 0 1 2 .5V9.6c0-1.7-1.5-3.2-3.2-3.2H16l-3.2-3.2H3.2A3.2 3.2 0 0 0 0 6.4v19.2c0 1.8 1.4 3.2 3.2 3.2h3a11 11 0 0 1-1-6.2ZM22.7 17.9v-.1.1zM29.4 25.6a15 15 0 0 1-2 3.2h1.4c1.8 0 3.2-1.4 3.2-3.2v-1c-.6.5-1.5.9-2.6 1Z" fill="#66b4ff"/><path d="M31.5 20.9c-.6-.4-1.9-.6-2.9-.4 0-1-.6-1.8-1.6-2.5l-.5-.4-.4.5c-.5.8-.7 1.8-.6 2.7 0 .6.2 1 .5 1.5a4 4 0 0 1-2 .5H7.3v.2c-.2 1-.2 4 1.7 6.3 1.4 1.8 3.6 2.7 6.4 2.7 6.1 0 10.7-3 12.8-8.3.9 0 2.7 0 3.6-1.8l.2-.5.1-.2-.5-.3ZM18.1 14h2.6v2.4h-2.6z" fill="#66b4ff"/><path fill="#66b4ff" d="M18.1 16.9h2.6v2.4h-2.6zM17.7 16.9h-2.6v2.5h2.6v-2.5zM14.6 16.9H12v2.5h2.6v-2.5zM11.6 19.9H9v2.4h2.6v-2.4zM14.6 19.9H12v2.4h2.6v-2.4zM17.7 19.9h-2.6v2.4h2.6v-2.4zM20.7 19.9h-2.6v2.4h2.6v-2.4zM23.8 19.9h-2.6v2.4h2.6v-2.4z"/></svg>