<svg xmlns="http://www.w3.org/2000/svg" viewBox="0 0 16 16"><path d="M15 3H8L6.59 1.59A1.98 1.98 0 005.18 1H2.01A2 2 0 000 3v10c0 1.1.9 2 2 2V7c0-1.1.9-2 2-2h11c.55 0 1-.45 1-1s-.45-1-1-1z" fill="#40a0ff"/><path d="M15.59 7.11a6.53 6.53 0 00-6.09-.2 6.5 6.5 0 00-6.09.2.81.81 0 00-.41.71v7.37a.82.82 0 001.22.71 4.94 4.94 0 014.88 0c.13.07.27.11.4.11s.27-.03.4-.11a4.94 4.94 0 014.88 0 .82.82 0 001.22-.71V7.82a.84.84 0 00-.41-.71zm-1.21 6.57c0 .13-.12.22-.25.18a6.54 6.54 0 00-4.34.28.2.2 0 01-.28-.18V9.09c0-.21.16-.45.35-.55l.35-.17a4.93 4.93 0 013.91-.17.4.4 0 01.25.38v5.1z" fill="#40a0ff"/></svg>