<svg xmlns="http://www.w3.org/2000/svg" viewBox="0 0 16 16"><path fill="#40ff40" d="M15.38 13.75q.23 0 .45.07.17-.38.18-.82v-1.09l-2.76 1.84zM14 3H8L6.59 1.59A2 2 0 0 0 5.18 1H2.01A2 2 0 0 0 0 3v10c0 1.1.9 2 2 2h4.3c.17-.72.81-1.25 1.58-1.25h2.13l-3.03-2.02a1.6 1.6 0 0 1-.65-1.82c.21-.69.83-1.15 1.56-1.15h.87V6.64c0-.9.73-1.62 1.62-1.62h2.5c.9 0 1.62.73 1.62 1.62v2.12h.87q.33.01.63.14V5.01a2 2 0 0 0-2-2Zm1.38 11.75h-7.5c-.34 0-.63.28-.63.63s.28.63.63.63h7.5c.34 0 .63-.28.63-.63s-.28-.63-.63-.63"/><path fill="#40ff40" d="M15.37 9.75H13.5V6.63a.6.6 0 0 0-.62-.62h-2.5a.6.6 0 0 0-.62.62v3.12H7.89c-.62 0-.86.8-.35 1.14l3.75 2.5c.21.14.48.14.69 0l3.75-2.5c.51-.34.27-1.14-.35-1.14Z"/></svg>