<svg xmlns="http://www.w3.org/2000/svg" viewBox="0 0 32 32"><path fill="#66f" d="m28.3 7.6 1.4 5.6L32 5.9l-3.7 1.7zM24 1.2c-2 .5-5 1.2-7.3 1.6L18.5 5l5.6-3.8ZM18.4 20.6l7 4.4-1.8-6.9-5.2 2.5zM19.1 5.8 21.8 9l3.1-7.2-5.8 4zM14.2 14.8l6.2-4.4-8.6.8 2.4 3.6zM20.6 28.4l4.8-2.5-7.1-4.4 2.3 6.9zM13.5 15.3l-2.4-3.6-5.3 9.1 7.7-5.5zM23.4 17.2l-1.5-6-3.6 8.4 5.1-2.4zM22.7 10.8l1.5 6 4.5-2.2-6-3.8zM20.9 11.1l-6.2 4.4 2.6 4.1.1-.2 3.5-8.3zM28.9 13.8l-1.4-5.9-4.6 2 6 3.9zM18.4 6.3l-5.7 4 8.3-.8-2.6-3.2zM13.9 16.1l-7.8 5.6 10.5-1.5-2.7-4.1zM17.8 5.6 16 3.4l-3.5 6 5.3-3.8zM28.1 6.7 31.9 5l-5.2-3.6 1.4 5.3zM26.2 24.6l2.8-9.1-4.6 2.2 1.8 6.9zM22.8 9l4.4-1.9-1.3-5.4L22.8 9zM21.3 30.8h3l1.2-3.9-4.7 2.4.5 1.5zM9.9 30.8 8 28.1l-3.6 2.7h5.5zM8.2 26.8l7.6-5.7-10.6 1.5 3 4.2zM20.4 30.8l-.4-1.1-2.2 1.1h2.6zM0 30.8h2.8l4.6-3.4-2.9-4.3L0 30.8zM11 30.8h1.6l3.8-9-7.7 5.8 2.3 3.2zM13.7 30.8h2.2l3.9-2-2.4-7.1-3.7 9.1z"/></svg>