<svg xmlns="http://www.w3.org/2000/svg" viewBox="0 0 16 16"><path fill="#40ffa0" d="m2.53 12.8 2.44-3.25a2.6 2.6 0 0 1 2.86-.93l.81-1.61H5.45a2 2 0 0 0-1.9 1.37l-1.54 4.63v-6c0-1.1.9-2 2-2h11c.55 0 1-.45 1-1s-.45-1-1-1h-7L6.6 1.6a2 2 0 0 0-1.41-.59H2.02A2 2 0 0 0 0 3v10c0 1.1.9 2 2 2h.09a2.6 2.6 0 0 1 .43-2.2ZM14 7h-.38L16 11.76V9a2 2 0 0 0-2-2"/><path fill="#40ffa0" d="m15.83 13.65-3.25-6.5a1.63 1.63 0 0 0-2.91 0l-.62 1.24 3.53 4.69a.81.81 0 1 1-1.3.98L8.2 9.98c-.7-.7-1.86-.62-2.45.17L3.31 13.4a1.63 1.63 0 0 0 1.3 2.6h9.75a1.62 1.62 0 0 0 1.45-2.35Z"/></svg>