<svg xmlns="http://www.w3.org/2000/svg" viewBox="0 0 16 16"><path fill="#ffff40" d="M6.33 14.01a1.6 1.6 0 0 1 .57-1.81l.6-.45v-1.38c0-1.38.7-2.62 1.77-3.38H5.44a2 2 0 0 0-1.9 1.37L2 12.99v-6c0-1.1.9-2 2-2h11c.55 0 1-.45 1-1s-.45-1-1-1H8L6.59 1.58A2 2 0 0 0 5.18.99H2.01A2 2 0 0 0 0 3v10c0 1.1.9 2 2 2h5.28a1.6 1.6 0 0 1-.95-.99M14 7h-.02c1.08.75 1.77 2 1.77 3.38v1.38l.25.19V9.01a2 2 0 0 0-2-2Zm-3.62 7.75a1.25 1.25 0 0 0 2.5 0z"/><path fill="#ffff40" d="m15.75 13-1-.75v-1.88a3.1 3.1 0 0 0-2.5-3.06v-.69c0-.35-.28-.63-.63-.63s-.63.28-.63.63v.69a3.1 3.1 0 0 0-2.5 3.06v1.88l-1 .75c-.48.36-.23 1.13.37 1.13h7.5c.6 0 .86-.76.37-1.13Z"/></svg>