<svg xmlns="http://www.w3.org/2000/svg" viewBox="0 0 16 16"><path fill="#ffff40" d="M14 3H8L6.59 1.59A2 2 0 0 0 5.18 1H2.01A2 2 0 0 0 0 3v10c0 1.1.9 2 2 2h5.28a1.6 1.6 0 0 1-.38-2.8l.6-.45v-1.38A4.1 4.1 0 0 1 10 6.58a1.62 1.62 0 0 1 3.24 0 4.1 4.1 0 0 1 2.5 3.79v1.38l.25.19V5a2 2 0 0 0-2-2Zm-3.62 11.75a1.25 1.25 0 0 0 2.5 0z"/><path fill="#ffff40" d="m15.75 13-1-.75v-1.88a3.1 3.1 0 0 0-2.5-3.06v-.69c0-.35-.28-.63-.63-.63s-.63.28-.63.63v.69a3.1 3.1 0 0 0-2.5 3.06v1.88l-1 .75c-.48.36-.23 1.13.37 1.13h7.5c.6 0 .86-.76.37-1.13Z"/></svg>