<svg xmlns="http://www.w3.org/2000/svg" viewBox="0 0 32 32"><path d="M20.1 27.5v-1.1a8.3 8.3 0 0 1 2-13.6H6.5L3.2 25.6v-16H32c0-1.8-1.4-3.2-3.2-3.2H16l-3.2-3.2H3.2A3.2 3.2 0 0 0 0 6.4v19.2c0 1.8 1.4 3.2 3.2 3.2h17.2c-.2-.4-.3-.8-.3-1.3Z" fill="#ff6"/><path d="M32 15v-2.2h-2.8c1.1.5 2 1.2 2.8 2.1ZM31.3 27.5c.4-.5.7-1.1.7-1.9l-.7.8v1.1ZM23 31.1c0 .5.4.9.9.9h3.6c.5 0 .9-.5.9-.9v-.9H23v.9ZM25.7 14a6.3 6.3 0 0 0-3.6 11.4v2.1c0 .5.4.9.9.9h5.4c.5 0 .9-.5.9-.9v-2c1.6-1.2 2.7-3.1 2.7-5.2 0-3.5-2.8-6.3-6.3-6.3Z" fill="#ff6"/></svg>