<svg xmlns="http://www.w3.org/2000/svg" viewBox="0 0 16 16"><path fill="#ffff40" d="M15.44 13.5q0 .47-.24.84l.09.18A2 2 0 0 0 16 13v-.78q-.25.32-.56.59zM14 3H8L6.59 1.59A2 2 0 0 0 5.18 1H2.01A2 2 0 0 0 0 3v10c0 1.1.9 2 2 2h7.7q.02-.36.23-.66a1.6 1.6 0 0 1-.24-.84v-.68A4.44 4.44 0 0 1 12.57 5c1.39 0 2.62.66 3.44 1.67V5a2 2 0 0 0-2-2Z"/><path fill="#ffff40" d="M16 9.44a3.44 3.44 0 1 0-5.32 2.88v1.18c0 .35.28.62.62.62h2.5c.35 0 .62-.28.62-.62v-1.18a3.4 3.4 0 0 0 1.56-2.88Zm-1.87 5.31h-3.12a.3.3 0 0 0-.31.31v.31c0 .35.28.62.62.62h2.5c.35 0 .62-.28.62-.62v-.31a.3.3 0 0 0-.31-.31"/></svg>