<svg xmlns="http://www.w3.org/2000/svg" viewBox="0 0 16 16"><path fill="#ffff40" d="M14 3H8L6.59 1.59A2 2 0 0 0 5.18 1H2.01A2 2 0 0 0 0 3v10c0 1.1.9 2 2 2h3.02c-.08-.67.15-1.35.64-1.84l3.09-3.19V8.21a1.62 1.62 0 0 1 .37-3.2h3.75a1.62 1.62 0 0 1 .37 3.2v1.76l2.75 2.84V5a2 2 0 0 0-2-2Z"/><path fill="#ffff40" d="m15.63 13.87-3.38-3.49V7.26h.62c.34 0 .62-.28.62-.62s-.28-.62-.62-.62H9.12c-.34 0-.62.28-.62.62s.28.62.62.62h.62v3.12l-3.38 3.49c-.79.79-.23 2.13.88 2.13h7.5c1.11 0 1.67-1.35.88-2.13Z"/></svg>