<svg xmlns="http://www.w3.org/2000/svg" viewBox="0 0 16 16"><path fill="#6060ff" d="M5 14.75v-3.99c0-.86.48-1.63 1.25-2.01L8.4 7.67a1.6 1.6 0 0 1 1.88.31l.62-.31a1.6 1.6 0 0 1 1.58.07l.11.08.14-.83H5.44a2 2 0 0 0-1.9 1.37L2 12.99v-6c0-1.1.9-2 2-2h11c.55 0 1-.45 1-1s-.45-1-1-1H8L6.59 1.58A2 2 0 0 0 5.18.99H2.01A2 2 0 0 0 0 3v10c0 1.1.9 2 2 2h3.04c0-.08-.04-.16-.04-.25"/><path fill="#6060ff" d="M15.68 6.52a.6.6 0 0 0-.62-.52h-.62a.6.6 0 0 0-.62.52l-.31 1.88c-.06.38.23.73.62.73h1.25c.39 0 .68-.35.62-.73zm-.93 3.23h-2.5v-.63a.62.62 0 0 0-.9-.56l-1.6.8v-.24a.62.62 0 0 0-.9-.56L6.7 9.64c-.42.21-.69.64-.69 1.12v3.99c0 .69.56 1.25 1.25 1.25h7.5c.69 0 1.25-.56 1.25-1.25V11c0-.69-.56-1.25-1.25-1.25ZM9.13 13.5c0 .34-.28.62-.62.62s-.62-.28-.62-.62v-1.25c0-.34.28-.62.62-.62s.62.28.62.62zm1.87 0c0 .34-.28.62-.62.62s-.62-.28-.62-.62v-1.25c0-.34.28-.62.62-.62s.62.28.62.62zm1.88 0c0 .34-.28.62-.62.62s-.62-.28-.62-.62v-1.25c0-.34.28-.62.62-.62s.62.28.62.62z"/></svg>