<svg xmlns="http://www.w3.org/2000/svg" viewBox="0 0 32 32"><path fill="#66f" d="M26.7 8.5c-1.2 0-2.4.4-3.4 1.2l-4.9-3.5V6A2.4 2.4 0 1 0 17 8.2l7 5 .2-.5c.5-1 1.5-1.7 2.5-1.7a2.8 2.8 0 0 1 1 5.4l-.5.2.7 2.4.5-.2a5.3 5.3 0 0 0-1.6-10.3Z"/><path fill="#f66" d="M21.2 5.8c0-2.3-1.5-4.3-3.7-5a5.3 5.3 0 0 0-6.5 7l-4.8 3.6-.2-.1a2.4 2.4 0 1 0 1.5 3c.1-.3.2-.6.1-1l7-5-.5-.4c-.8-.8-1.1-2-.8-3a2.7 2.7 0 0 1 3.5-1.8c1 .4 1.8 1.5 1.9 2.7v.4h2.5v-.4Z"/><path fill="#66b4ff" d="M10.7 24c-.3-.1-.6-.3-1-.3l-2.6-8.1-.5.2c-1 .5-2.1.5-3-.1a2.7 2.7 0 0 1-.6-3.8c.7-1 2-1.4 3-1l.5.1.8-2.3-.4-.2a5.2 5.2 0 1 0-1.3 10.2l1.9 5.7-.2.2a2.4 2.4 0 0 0 2 3.8h.3c.7-.2 1.2-.5 1.6-1 .8-1 .5-2.6-.5-3.3Z"/><path fill="#6f6" d="M27.4 16a2.4 2.4 0 0 0-1.5-4.5c-.6.2-1.1.6-1.4 1.2a2.4 2.4 0 0 0 .3 2.7l-2.6 8 .5.1c1.1.2 2 1 2.4 1.9a2.7 2.7 0 0 1-4.8 2.5l-.3-.4-2.1 1.4.3.4a5.3 5.3 0 0 0 9.3-4.7 5.2 5.2 0 0 0-2.2-2.8l1.8-5.7h.2Z"/><path fill="#b466ff" d="M24.4 24.6c-.4-.5-1-.8-1.5-1a2.4 2.4 0 0 0-2.5 1.3H12l.1.5c.2 1.1-.2 2.3-1 2.9A2.7 2.7 0 0 1 7 24.4l.3-.4-2-1.5-.3.4a5.2 5.2 0 0 0 7.3 7.3c1-.7 1.7-1.8 2-3h6l.1.2c.4.5 1 .8 1.6 1 .6 0 1.3-.1 1.8-.5 1-.8 1.3-2.3.5-3.4Z"/></svg>