<svg xmlns="http://www.w3.org/2000/svg" viewBox="0 0 16 16"><path fill="#40ffff" d="M14 3H8L6.59 1.59A2 2 0 0 0 5.18 1H2.01A2 2 0 0 0 0 3v10c0 1.1.9 2 2 2h3V7.25A2.25 2.25 0 0 1 7.25 5h7.5q.7.01 1.25.38V5a2 2 0 0 0-2-2"/><path fill="#40ffff" d="M14.75 6h-7.5C6.56 6 6 6.56 6 7.25v8.12c0 .62.8.86 1.15.35l.97-1.46a.3.3 0 0 1 .26-.14h6.37c.69 0 1.25-.56 1.25-1.25V7.25C16 6.56 15.44 6 14.75 6m-2.81 6.25c0 .34-.28.62-.62.62h-.62a.6.6 0 0 1-.62-.62v-.62c0-.34.28-.62.62-.62h.62c.34 0 .62.28.62.62zm0-2.5c0 .34-.28.62-.62.62h-.62a.6.6 0 0 1-.62-.62V7.88c0-.34.28-.62.62-.62h.62c.34 0 .62.28.62.62z"/></svg>