<svg xmlns="http://www.w3.org/2000/svg" viewBox="0 0 16 16"><path fill="#e0e0e0" d="M15 3H8L6.59 1.59A2 2 0 0 0 5.18 1H2.01A2 2 0 0 0 0 3v10c0 1.1.9 2 2 2h5.54c0-.08-.04-.16-.04-.25v-7.5q0-.13.03-.25H5.45a2 2 0 0 0-1.9 1.37L2.01 13V7c0-1.1.9-2 2-2h11c.55 0 1-.45 1-1s-.45-1-1-1Z"/><path fill="#e0e0e0" d="m15.63 8.13-1.77-1.77a1.3 1.3 0 0 0-.88-.37H9.75c-.69 0-1.25.56-1.25 1.25v7.5c0 .69.56 1.25 1.25 1.25h5c.69 0 1.25-.56 1.25-1.25V9.01c0-.33-.13-.65-.37-.88m-1.51 1.62h-1.25a.6.6 0 0 1-.62-.62V7.88c0-.56.67-.84 1.07-.44l1.25 1.25c.39.39.11 1.07-.44 1.07Z"/></svg>