<svg xmlns="http://www.w3.org/2000/svg" viewBox="0 0 16 16"><path fill="#e0e0e0" d="M14 3H8L6.59 1.59A2 2 0 0 0 5.18 1H2.01A2 2 0 0 0 0 3v10c0 1.1.9 2 2 2h5.54c0-.08-.04-.16-.04-.25v-7.5A2.25 2.25 0 0 1 9.75 5h3.23c.6 0 1.17.23 1.59.66L16 7.09V5a2 2 0 0 0-2-2"/><path fill="#e0e0e0" d="m15.63 8.13-1.77-1.77a1.3 1.3 0 0 0-.88-.37H9.75c-.69 0-1.25.56-1.25 1.25v7.5c0 .69.56 1.25 1.25 1.25h5c.69 0 1.25-.56 1.25-1.25V9.01c0-.33-.13-.65-.37-.88m-1.51 1.62h-1.25a.6.6 0 0 1-.62-.62V7.88c0-.56.67-.84 1.07-.44l1.25 1.25c.39.39.11 1.07-.44 1.07Z"/></svg>