<svg xmlns="http://www.w3.org/2000/svg" viewBox="0 0 16 16"><path fill="#ffa040" d="M14.56 12.13v2.78c.83-.24 1.44-1 1.44-1.91v-1.08q-.37.19-.81.2h-.62Zm-5.68-.73V15h2.06v-2.88h-.62c-.59 0-1.11-.29-1.44-.72"/><path fill="#ffa040" d="M14 3H8L6.59 1.59A2 2 0 0 0 5.18 1H2.01A2 2 0 0 0 0 3v10c0 1.1.9 2 2 2h3.25V8.88H3.81a1.81 1.81 0 1 1 0-3.62h6.5a1.81 1.81 0 0 1 1.09 3.25h3.78q.44.01.81.2v-3.7a2 2 0 0 0-2-2Z"/><path fill="#ffa040" d="M15.19 9.5h-4.88a.8.8 0 0 0-.81.81c0 .45.36.81.81.81h1.63v4.06c0 .45.36.81.81.81a.8.8 0 0 0 .81-.81v-4.06h1.63a.8.8 0 0 0 .81-.81.8.8 0 0 0-.81-.81"/><path fill="#ffa040" d="M11.13 7.06a.8.8 0 0 0-.81-.81H3.81a.8.8 0 0 0-.81.81c0 .45.36.81.81.81h2.44v7.31c0 .45.36.81.81.81a.8.8 0 0 0 .81-.81V7.87h2.44a.8.8 0 0 0 .81-.81Z"/></svg>