<svg xmlns="http://www.w3.org/2000/svg" viewBox="0 0 16 16"><path fill="#ffa040" d="M10.94 12.13h-.62c-.59 0-1.11-.29-1.44-.72v3.6h2.06z"/><path fill="#ffa040" d="M5.25 8.88H3.81q-.22 0-.42-.05L2 13.01v-6c0-1.1.9-2 2-2h11c.55 0 1-.45 1-1s-.45-1-1-1H8L6.59 1.6a2 2 0 0 0-1.41-.59H2.01A2 2 0 0 0 0 3v10c0 1.1.9 2 2 2h3.25zm9.31 3.25v2.78c.83-.24 1.44-1 1.44-1.91v-1.08q-.37.19-.81.2h-.62Z"/><path fill="#ffa040" d="M15.97 8.69A2 2 0 0 0 14 7h-1.88v.06c0 .59-.29 1.11-.72 1.44h3.78q.42 0 .78.19Zm-.78.81h-4.88a.8.8 0 0 0-.81.81c0 .45.36.81.81.81h1.63v4.06c0 .45.36.81.81.81a.8.8 0 0 0 .81-.81v-4.06h1.63a.8.8 0 0 0 .81-.81.8.8 0 0 0-.81-.81"/><path fill="#ffa040" d="M11.13 7.06a.8.8 0 0 0-.81-.81H3.81a.8.8 0 0 0-.81.81c0 .45.36.81.81.81h2.44v7.31c0 .45.36.81.81.81a.8.8 0 0 0 .81-.81V7.87h2.44a.8.8 0 0 0 .81-.81Z"/></svg>