<svg xmlns="http://www.w3.org/2000/svg" viewBox="0 0 16 16"><path fill="#ff40a0" d="M5 14.13q0-.53.3-.94A1.6 1.6 0 0 1 5.6 11c-.36-.3-.6-.74-.6-1.25V8.5q0-.53.3-.94a2 2 0 0 1-.23-.5c-.7.13-1.29.61-1.53 1.31L2 13V7c0-1.1.9-2 2-2h11c.55 0 1-.45 1-1s-.45-1-1-1H8L6.59 1.59A2 2 0 0 0 5.18 1H2.01A2 2 0 0 0 0 3v10c0 1.1.9 2 2 2h3v-.88Z"/><path fill="#ff40a0" d="M9.75 6.63c0 .34-.28.62-.62.62h-2.5a.6.6 0 0 1-.62-.62c0-.34.28-.62.62-.62h2.5c.34 0 .62.28.62.62"/><rect width="10" height="2.5" x="6" y="7.88" fill="#ff40a0" rx=".62" ry=".62"/><path fill="#ff40a0" d="M9.75 12.25c0 .34-.28.62-.62.62h-2.5a.6.6 0 0 1-.62-.62c0-.34.28-.62.62-.62h2.5c.34 0 .62.28.62.62"/><rect width="10" height="2.5" x="6" y="13.5" fill="#ff40a0" rx=".62" ry=".62"/></svg>