<svg xmlns="http://www.w3.org/2000/svg" viewBox="0 0 16 16"><path fill="#40ff40" d="m2.02 14.04.22-1.78-.24.73v-6c0-1.1.9-2 2-2h11c.55 0 1-.45 1-1s-.45-1-1-1H8L6.59 1.58A2 2 0 0 0 5.18.99H2.01A2 2 0 0 0 0 3v10c0 1.1.9 2 2 2h.08q-.11-.46-.06-.96m8.83.52h-2.7l-.44.44h3.58z"/><path fill="#40ff40" d="m15.99 14.17-.81-6.5a1.6 1.6 0 0 0-1.61-1.42H5.44c-.82 0-1.51.61-1.61 1.42l-.81 6.5a1.63 1.63 0 0 0 2.76 1.35L7.5 13.8a.8.8 0 0 1 .57-.24h2.85a.8.8 0 0 1 .57.24l1.72 1.72a1.63 1.63 0 0 0 2.76-1.35Zm-8.11-3.45h-.41v.41c0 .45-.37.81-.81.81s-.81-.37-.81-.81v-.41h-.41c-.45 0-.81-.37-.81-.81s.37-.81.81-.81h.41v-.41c0-.45.37-.81.81-.81s.81.37.81.81v.41h.41c.45 0 .81.37.81.81s-.37.81-.81.81m3.65-.82c-.45 0-.81-.36-.81-.81s.36-.81.81-.81.81.36.81.81-.36.81-.81.81m1.63 1.63c-.45 0-.81-.36-.81-.81s.36-.81.81-.81.81.36.81.81-.36.81-.81.81"/></svg>