<svg xmlns="http://www.w3.org/2000/svg" viewBox="0 0 16 16"><path fill="#40ff40" d="m8.15 14.56-.44.44h3.58l-.44-.44zM14 3H8L6.59 1.59A2 2 0 0 0 5.18 1H2.01A2 2 0 0 0 0 3v10c0 1.1.9 2 2 2h.08q-.11-.46-.06-.96l.81-6.5a2.6 2.6 0 0 1 2.6-2.3h8.12c1.1 0 2.05.69 2.44 1.68V4.99a2 2 0 0 0-2-2Z"/><path fill="#40ff40" d="m15.99 14.17-.81-6.5a1.6 1.6 0 0 0-1.61-1.42H5.44c-.82 0-1.51.61-1.61 1.42l-.81 6.5a1.63 1.63 0 0 0 2.76 1.35L7.5 13.8a.8.8 0 0 1 .57-.24h2.85a.8.8 0 0 1 .57.24l1.72 1.72a1.63 1.63 0 0 0 2.76-1.35Zm-8.11-3.45h-.41v.41c0 .45-.37.81-.81.81s-.81-.37-.81-.81v-.41h-.41c-.45 0-.81-.37-.81-.81s.37-.81.81-.81h.41v-.41c0-.45.37-.81.81-.81s.81.37.81.81v.41h.41c.45 0 .81.37.81.81s-.37.81-.81.81m3.65-.82c-.45 0-.81-.36-.81-.81s.36-.81.81-.81.81.36.81.81-.36.81-.81.81m1.63 1.63c-.45 0-.81-.36-.81-.81s.36-.81.81-.81.81.36.81.81-.36.81-.81.81"/></svg>