<svg xmlns="http://www.w3.org/2000/svg" viewBox="0 0 16 16"><path fill="#40ff40" d="M14 3H8L6.59 1.59A2 2 0 0 0 5.18 1H2.01A2 2 0 0 0 0 3v10c0 1.1.9 2 2 2h4.53a5.9 5.9 0 0 1-.71-6.97A1.62 1.62 0 0 1 6.62 5h2.5c.51 0 .95.24 1.25.6l.19-.2c.35-.31.82-.45 1.29-.38A6 6 0 0 1 16 7.69V5.01a2 2 0 0 0-2-2Z"/><path fill="#40ff40" d="M6 11.04c0-1.52.69-2.88 1.77-3.79H6.62A.6.6 0 0 1 6 6.63c0-.35.28-.62.62-.62h2.5c.35 0 .62.28.62.62v2.5c0 .35-.28.62-.62.62s-.62-.28-.62-.62v-.85a3.72 3.72 0 0 0 1.97 6.48c.31.04.53.3.53.61 0 .38-.34.68-.71.62A5 5 0 0 1 6 11.04m10-.08c0 1.52-.69 2.88-1.77 3.79h1.15c.35 0 .62.28.62.62s-.28.62-.62.62h-2.5a.6.6 0 0 1-.62-.62v-2.5c0-.35.28-.62.62-.62s.62.28.62.62v.85c.76-.68 1.25-1.67 1.25-2.77s-1.4-3.45-3.22-3.71a.6.6 0 0 1-.53-.61c0-.38.34-.68.71-.62A5 5 0 0 1 16 10.96"/></svg>