<svg xmlns="http://www.w3.org/2000/svg" viewBox="0 0 16 16"><path fill="#40a0ff" d="M5 11c0-1.54.59-2.94 1.54-4h-1.1a2 2 0 0 0-1.9 1.37L2 13V7c0-1.1.9-2 2-2h11c.55 0 1-.45 1-1s-.45-1-1-1H8L6.59 1.59A2 2 0 0 0 5.18 1H2.01A2 2 0 0 0 0 3v10c0 1.1.9 2 2 2h4.54A6 6 0 0 1 5 11"/><path fill="#40a0ff" d="M11.98 6.09a5.01 5.01 0 0 0-1.96 9.82 5.01 5.01 0 0 0 1.96-9.82m-1.6 8.61a3.76 3.76 0 0 1-3.08-4.28l1.83 1.83c0 .69.56 1.25 1.25 1.25zm3.08-.88a1.24 1.24 0 0 0-1.21-.95v-.63c0-.69-.56-1.25-1.25-1.25H9.75a.63.63 0 0 1-.63-.63v-.63h.63c.69 0 1.25-.56 1.25-1.25.62 0 1.13-.45 1.23-1.04a3.76 3.76 0 0 1 1.23 6.36Z"/></svg>