<svg xmlns="http://www.w3.org/2000/svg" viewBox="0 0 16 16"><path fill="#40a0ff" d="M14 3H8L6.59 1.59A2 2 0 0 0 5.18 1H2.01A2 2 0 0 0 0 3v10c0 1.1.9 2 2 2a2 2 0 0 1 1.37-1.93l1.98-.66a3.03 3.03 0 0 1 1.7-5.54 3 3 0 0 1 2.44 1.25 3.03 3.03 0 1 1 4.14 4.29l1.98.66q.19.06.35.16l.02-.23V5a2 2 0 0 0-2-2Z"/><path fill="#40a0ff" d="m6.74 13.01-3.05 1.02c-1.09.36-.83 1.98.32 1.98h6.09c1.15 0 1.41-1.61.32-1.98l-3.05-1.02a1 1 0 0 0-.64 0Z"/><circle cx="7.06" cy="9.91" r="2.03" fill="#40a0ff"/><circle cx="11.94" cy="9.91" r="2.03" fill="#40a0ff"/><path fill="#40a0ff" d="M15.3 14.02 12.25 13a1 1 0 0 0-.64 0l-.85.28a1.8 1.8 0 0 1 1.14 1.99 2 2 0 0 1-.28.72h3.36c1.15 0 1.41-1.61.32-1.98Z"/></svg>