<svg xmlns="http://www.w3.org/2000/svg" viewBox="0 0 16 16"><path fill="#40a0ff" d="m3.38 13.07 1.98-.66a3.03 3.03 0 0 1 .89-5.42h-.81a2 2 0 0 0-1.9 1.37L2 12.99v-6c0-1.1.9-2 2-2h11c.55 0 1-.45 1-1s-.45-1-1-1H8L6.59 1.58A2 2 0 0 0 5.18.99H2.01A2 2 0 0 0 0 3v10c0 1.1.9 2 2 2a2 2 0 0 1 1.37-1.93Z"/><path fill="#40a0ff" d="M14 7h-1.25a3.04 3.04 0 0 1 2.22 2.91c0 1.04-.53 1.96-1.33 2.51l1.98.66q.19.06.35.16l.02-.23v-4a2 2 0 0 0-2-2ZM7.88 7c.65.19 1.22.58 1.62 1.12.39-.54.96-.93 1.62-1.12zm-1.14 6.01-3.05 1.02c-1.09.36-.83 1.98.32 1.98h6.09c1.15 0 1.41-1.61.32-1.98l-3.05-1.02a1 1 0 0 0-.64 0Z"/><circle cx="7.06" cy="9.91" r="2.03" fill="#40a0ff"/><circle cx="11.94" cy="9.91" r="2.03" fill="#40a0ff"/><path fill="#40a0ff" d="M15.3 14.02 12.25 13a1 1 0 0 0-.64 0l-.85.28a1.8 1.8 0 0 1 1.14 1.99 2 2 0 0 1-.28.72h3.36c1.15 0 1.41-1.61.32-1.98Z"/></svg>