<svg xmlns="http://www.w3.org/2000/svg" viewBox="0 0 16 16"><g fill="#40a0ff"><path d="M4.6 9.31.85 10.56c-1.34.45-1.02 2.44.4 2.44h7.5c1.42 0 1.74-1.99.4-2.44L5.4 9.31a1.2 1.2 0 0 0-.79 0Z"/><circle cx="5" cy="5.5" r="2.5"/><circle cx="11" cy="5.5" r="2.5"/><path d="m15.14 10.56-3.75-1.25a1.2 1.2 0 0 0-.79 0l-1.04.35A2.22 2.22 0 0 1 10.62 13h4.13c1.42 0 1.74-1.99.4-2.44Z"/></g><g fill="#40a0ff"><path d="M4.6 9.31.85 10.56c-1.34.45-1.02 2.44.4 2.44h7.5c1.42 0 1.74-1.99.4-2.44L5.4 9.31a1.2 1.2 0 0 0-.79 0Z"/><circle cx="5" cy="5.5" r="2.5"/><circle cx="11" cy="5.5" r="2.5"/><path d="m15.14 10.56-3.75-1.25a1.2 1.2 0 0 0-.79 0l-1.04.35A2.22 2.22 0 0 1 10.62 13h4.13c1.42 0 1.74-1.99.4-2.44Z"/></g></svg>