<svg xmlns="http://www.w3.org/2000/svg" viewBox="0 0 16 16"><path fill="#40a0ff" d="M15 3H8L6.59 1.59A2 2 0 0 0 5.18 1H2.01A2 2 0 0 0 0 3v10c0 1.1.9 2 2 2h5.52a5.6 5.6 0 0 1-1.27-3.56V8.93c0-.8.43-1.53 1.12-1.93H5.44a2 2 0 0 0-1.9 1.37L2 13V7c0-1.1.9-2 2-2h11c.55 0 1-.45 1-1s-.45-1-1-1"/><path fill="#40a0ff" d="m15.34 7.83-3.13-1.69a1.3 1.3 0 0 0-1.17 0L7.91 7.83c-.4.22-.66.64-.66 1.1v2.51A4.5 4.5 0 0 0 11.49 16 4.37 4.37 0 0 0 16 11.63V8.94c0-.46-.25-.88-.66-1.1Zm-.59 3.8c0 1.72-1.4 3.12-3.13 3.12V11H8.49V9.68c0-.46.25-.88.66-1.1l1.87-1.01q.29-.15.6-.15V11h3.13z"/></svg>