<svg xmlns="http://www.w3.org/2000/svg" viewBox="0 0 16 16"><path fill="#40ffff" d="M14 3H8L6.59 1.59A2 2 0 0 0 5.18 1H2.01A2 2 0 0 0 0 3v10c0 1.1.9 2 2 2h6.88a5.4 5.4 0 0 1-2.63-4.69A5.43 5.43 0 0 1 11.55 5 5.4 5.4 0 0 1 16 7.27V5a2 2 0 0 0-2-2"/><path fill="#40ffff" d="M11.56 6a4.38 4.38 0 0 0-.09 8.76q.13.02.15.15v.77c0 .18.15.33.33.31 2.26-.22 4.05-2.65 4.05-5.62a4.4 4.4 0 0 0-4.44-4.38Zm.69 7.19c0 .17-.14.31-.31.31h-.63a.3.3 0 0 1-.31-.31v-.63c0-.17.14-.31.31-.31h.63c.17 0 .31.14.31.31zm-.62-1.56h-.31a.3.3 0 0 1-.31-.31v-.63c0-.17.14-.31.31-.31h.31a.94.94 0 1 0-.91-1.17.3.3 0 0 1-.3.23h-.64a.32.32 0 0 1-.31-.37 2.19 2.19 0 1 1 2.15 2.56Z"/></svg>