<svg xmlns="http://www.w3.org/2000/svg" viewBox="0 0 16 16"><path fill="#40a0ff" d="M9.86 13.43h.86V15h-.86zM14 3H8L6.59 1.59A2 2 0 0 0 5.18 1H2.01A2 2 0 0 0 0 3v10c0 1.1.9 2 2 2h3v-3.02a1.71 1.71 0 0 1-.71-3.09l5-3.57c.6-.42 1.4-.42 1.99 0L16 8.69V5a2 2 0 0 0-2-2m1.57 11.22A2 2 0 0 0 16 13v-1.16q-.2.1-.43.13z"/><path fill="#40a0ff" d="m15.7 9.7-5-3.57a.7.7 0 0 0-.83 0l-5 3.57c-.57.4-.28 1.3.42 1.3H6v4.29c0 .39.32.71.71.71h1.43c.39 0 .71-.32.71-.71v-2.86h2.86v2.86c0 .39.32.71.71.71h1.43c.39 0 .71-.32.71-.71V11h.71c.69 0 .98-.89.42-1.3Z"/></svg>