<svg xmlns="http://www.w3.org/2000/svg" viewBox="0 0 16 16"><path fill="#6060ff" d="M12 10.5H7c-.53 0-1.01.42-1 .95A2 2 0 1 1 3.37 9.6c.39-.13.63-.54.63-.95 0-.66-.64-1.15-1.26-.95a4.02 4.02 0 0 0 .31 7.69 4 4 0 0 0 4.81-2.89H12c.55 0 1-.45 1-1s-.45-1-1-1"/><path fill="#6060ff" d="m7.12 5.07 2.5 4.33c.27.46.87.67 1.32.39a2 2 0 0 1 2.77.71 2 2 0 0 1-3.06 2.49c-.31-.28-.78-.28-1.14-.07-.57.33-.68 1.13-.19 1.56a4 4 0 0 0 6.5-4.11 4 4 0 0 0-4.91-2.72L8.84 4.06c-.27-.48-.89-.64-1.37-.37s-.64.89-.37 1.37Z"/><path fill="#6060ff" d="m4.87 11.94 2.5-4.33c.27-.46.14-1.09-.32-1.34-.99-.54-1.33-1.79-.78-2.76S8.05 2.23 9 2.78a2 2 0 0 1 .96 2.13c-.08.41.15.82.51 1.02.57.33 1.32.02 1.45-.62a4 4 0 0 0-6.81-3.57 4 4 0 0 0 .1 5.61l-2.07 3.59a1 1 0 1 0 1.74 1Z"/></svg>