<svg xmlns="http://www.w3.org/2000/svg" viewBox="0 0 16 16"><path fill="#a0ff40" d="M15 3H8L6.59 1.59A2 2 0 0 0 5.18 1H2.01A2 2 0 0 0 0 3v10c0 1.1.9 2 2 2h3.04c0-.08-.04-.16-.04-.25v-7.5l.02-.18c-.68.15-1.25.62-1.47 1.3L2.01 13V7c0-1.1.9-2 2-2h11c.55 0 1-.45 1-1s-.45-1-1-1Z"/><path fill="#a0ff40" d="M14.75 6h-7.5C6.56 6 6 6.56 6 7.25v7.5c0 .69.56 1.25 1.25 1.25h7.5c.69 0 1.25-.56 1.25-1.25v-7.5C16 6.56 15.44 6 14.75 6m-.63 8.75H7.87c-.5 0-.8-.56-.52-.97l1.25-1.87a.63.63 0 0 1 .96-.1l.74.74 1.44-1.92a.63.63 0 0 1 1.04.05l1.88 3.13a.63.63 0 0 1-.54.95Z"/></svg>