<svg xmlns="http://www.w3.org/2000/svg" viewBox="0 0 16 16"><path fill="#ff40ff" d="M5 11c0-1.54.59-2.94 1.54-4h-1.1a2 2 0 0 0-1.9 1.37L2 13V7c0-1.1.9-2 2-2h11c.55 0 1-.45 1-1s-.45-1-1-1H8L6.59 1.59A2 2 0 0 0 5.18 1H2.01A2 2 0 0 0 0 3v10c0 1.1.9 2 2 2h4.54A6 6 0 0 1 5 11"/><path fill="#ff40ff" d="M11 6a5 5 0 1 0 0 10 5 5 0 0 0 0-10m2.5 5.63h-1.87v1.87c0 .35-.28.62-.62.62s-.62-.28-.62-.62v-1.87H8.52c-.35 0-.62-.28-.62-.62s.28-.62.62-.62h1.87V8.52c0-.35.28-.62.62-.62s.62.28.62.62v1.87h1.87c.35 0 .62.28.62.62s-.28.62-.62.62"/></svg>