<svg xmlns="http://www.w3.org/2000/svg" viewBox="0 0 16 16"><path fill="#a040ff" d="M6.25 7.25q0-.13.03-.25h-.83a2 2 0 0 0-1.9 1.37L2.01 13V7c0-1.1.9-2 2-2h11c.55 0 1-.45 1-1s-.45-1-1-1h-7L6.6 1.59A2 2 0 0 0 5.19 1H2.02C.9 1 0 1.9 0 3v10c0 1.1.9 2 2 2h4.25zm8.5 6.63h-1.73c-.86 0-1.63-.48-2.01-1.24s-1.51 0-1.51 0v2.38H14a2 2 0 0 0 1.92-1.47q-.52.33-1.17.34Z"/><path fill="#a040ff" d="M14.75 7.25h-1.88l-.28-.56A1.3 1.3 0 0 0 11.47 6H8.49c-.69 0-1.25.56-1.25 1.25v8.12c0 .35.28.63.62.63s.62-.28.62-.63v-3.75h3.12l.28.56c.21.42.64.69 1.12.69h1.73c.69 0 1.25-.56 1.25-1.25V8.49c0-.69-.56-1.25-1.25-1.25Z"/></svg>