<svg xmlns="http://www.w3.org/2000/svg" viewBox="0 0 32 32"><path d="m14.5 27.4-2.9-2.3 1.3-2.3-1.5-.4 3.9-10.6 8 1 .9 1 2-2.3 5.8 4.7V9.6c0-1.8-1.5-3.2-3.2-3.2H16l-3.2-3.2H3.2A3.2 3.2 0 0 0 0 6.4v19.2c0 1.8 1.4 3.2 3.2 3.2h11l.3-1.4Z" fill="#ff66b4"/><path fill="#ffb466" d="m18.6 28-4.4-3.4 2.2-4 6.2 2.4-4 5z"/><path fill="#66b4ff" d="m32 18.8-.3 10.4-6.9 2.8-4.2-2.7 6.1-6.3-2.7-5.8 2.4-2.9 5.6 4.5z"/><path fill="#66f" d="m32 18.8-5.5 6.5-2.5-8.1 2.4-2.9 5.6 4.5z"/><path fill="#ff66b4" d="m22.7 28.9-7.3 2.7 1.2-4.1 1.5-5-4.1-1.4 2.6-7.1 5.7.7 5.5 6.4-5.1 7.8z"/><path d="M18.5 18.5h9.1v9.1h-9.1z"/></svg>