<svg xmlns="http://www.w3.org/2000/svg" viewBox="0 0 32 32"><path d="M3 20.6a3.7 3.7 0 0 1 .2-2.4V9.6H32c0-1.8-1.4-3.2-3.2-3.2H16l-3.2-3.2H3.2A3.2 3.2 0 0 0 0 6.4v19.2c0 1.7 1.3 3 3 3.2v-8.2Z" fill="#e2e2e4"/><path d="M5.6 16.2a3.7 3.7 0 0 1 4.1 1.4c1.4-1 3.2-1.6 5.2-1.6 2.4 0 4.5.9 6 2.4a7.5 7.5 0 0 1 5.7-2.4c2.2 0 4.1.8 5.4 2v-5.2H6.4l-.8 3.4ZM5 21.5h3.2v10.3H5zM6.6 18c-1 0-1.7.8-1.7 1.7s.8 1.7 1.7 1.7 1.8-.7 1.8-1.7S7.6 18 6.6 18Z" fill="#e2e2e4"/><path d="m28 23.6-1.4-.3c-1.8-.4-1.8-1-1.8-1.2 0-.9 1-1.2 1.8-1.2 1.2 0 2 .5 2 1.4v.5h3.2v-.6c0-2.5-2.1-4.2-5.2-4.2s-5.2 1.8-5.2 4.3c0 2 1.3 3.3 3.9 3.9l1.6.4c1.6.4 1.8.8 1.8 1.2 0 .8-.9 1.3-2 1.3-1.3 0-2.2-.6-2.3-1.4v-.5H21v.5c.1 2.6 2.3 4.3 5.4 4.3s5.5-1.7 5.5-4.4c0-2.2-1.3-3.4-4-4Z" fill="#e2e2e4"/><path d="M14.9 18c-4 0-6.5 2.8-6.5 7s2.5 7 6.5 7 6.4-2.7 6.4-7-2.5-7-6.4-7Zm3 7c0 2.5-1.1 4-3 4s-3.1-1.5-3.1-4 1.2-4 3-4 3.2 1.5 3.2 4Z" fill="#e2e2e4"/></svg>