<svg xmlns="http://www.w3.org/2000/svg" viewBox="0 0 32 32"><path d="M27.1 14c-.7 0-1.4.6-1.4 1.4v5.5c0 .8.7 1.4 1.4 1.4h3.5c.8 0 1.4-.6 1.4-1.4v-5.5c0-.8-.6-1.4-1.4-1.4h-3.5Zm2.8 6.3h-2V16h2v4.2ZM24.4 22.4V14h-4.2v2.1h2.1v6.3h2.1zM21.6 23.6c-.8 0-1.4.7-1.4 1.4v5.6c0 .8.6 1.4 1.4 1.4H25c.8 0 1.4-.6 1.4-1.4V25c0-.7-.6-1.4-1.3-1.4h-3.5Zm2.7 6.3h-2v-4.2h2V30ZM32 32v-8.3h-4.2v2h2.1V32H32zM18.2 30.6v-2c-4 .3-8.4.1-10.5-.5l1.2-.4.9-.1 1.8.1-1.5-1c-1-.7-3.7.1-4.8.8-.6.4-.9.9-.8 1.3.2.8 1.2 1 2 1.1l1 .2 1.1 1c.2 0 1 .6 4.6.8l3 .1h2.3l-.3-1.4Z" fill="#66b4ff"/><path d="M19 18h-.8v-6h.1c.4-1 1.8-2.1 4.7-3.8L26 6.4l-3.5.9c-.2 0-5.9 1.5-6.9 4.7-.4 1.4 0 2.8 1.3 4.3.3.3.5.7.4 1 0 .6-.4 1-.6 1.2l-.3-.7-1-1.7c-1.4-1.9-2.5-3.5.9-6.2 2.5-2 3.8-3.9 3.9-5.8.1-1.7-.9-2.8-1-2.8L18 0l.5 1.8c.8 3-1.3 4.5-3.4 6.2-1.1.9-2.3 1.8-3 2.9-1.6 2.5.8 5 3.6 7.5l.6.6-2 1.7h.7l2-1 .5.3-.2-.5s1-.6 1.8-1.4Z" fill="#ffb466"/><path d="M18.2 25a16 16 0 0 1-5.6 0l1.2-.6h1l3.5-.3c.3-1 1-1.8 2-2.2v-.1l-.1-.1h-.3a23.5 23.5 0 0 1-8.3.3V22l1-.7h.6c2.4 0 5.1-.2 7-.6V19a45.8 45.8 0 0 1-9.4.3h-.3c.5-.3 1.4-.5 2.2-.7l3.3-.8-3.3-.2c-.1 0-2.3-.2-5 1.1-.9.4-.9 1-.8 1.2.3.7 1.8 1 4 1.2-1.3.5-1.8 1-1.6 1.7.2.7 1.3 1.1 2.8 1.4h-.2c-1 .3-1.6.7-1.8 1.3 0 .2 0 .7.5 1 .8.7 2.6 1.2 4.8 1.2.9 0 1.8 0 2.8-.3V25Z" fill="#66b4ff"/></svg>