<svg xmlns="http://www.w3.org/2000/svg" viewBox="0 0 32 32"><path d="M12 16a4 4 0 0 1 1.7-3.2V4.9H9v15.5c0 2.3-1 2.9-2.4 2.9s-2.3-1.1-3-2.4L0 23.2a7 7 0 0 0 6.8 4.2c2.2 0 4-.7 5.2-2V16ZM22.5 12a2 2 0 0 1-.5-1.4c0-1.1.8-2 2.2-2s2.1.6 3 2l3.5-2.3c-1.5-2.6-3.6-3.7-6.5-3.7-4.1 0-6.7 2.7-6.7 6l.1 1.4h5ZM23 21c-1.1 0-2 .9-2 2s.9 2 2 2 2-.9 2-2-.9-2-2-2Zm7-7H16a2 2 0 0 0-2 2v14c0 1.1.9 2 2 2h14a2 2 0 0 0 2-2V16a2 2 0 0 0-2-2Zm-1.8 9v.7l1.5 1.1c.1.1.2.3 0 .5l-1.3 2.4c-.1.2-.3.2-.5.2l-1.7-.7-1.2.7-.2 1.8c0 .2-.2.3-.4.3h-2.8a.4.4 0 0 1-.4-.3L21 28l-1.2-.7-1.7.7c-.2 0-.4 0-.5-.2l-1.4-2.4.1-.4 1.5-1.2v-1.4l-1.5-1.1a.4.4 0 0 1 0-.5l1.3-2.4c.1-.2.3-.2.5-.2l1.7.7 1.2-.6.2-1.9c0-.2.2-.3.4-.3h2.8c.2 0 .3.1.3.3L25 18l1.2.7 1.7-.7c.2 0 .4 0 .5.2l1.4 2.4-.1.5-1.5 1.1v.7Z" fill="#ff6"/></svg>