<svg xmlns="http://www.w3.org/2000/svg" viewBox="0 0 32 32"><path d="M11 25.7a4 4 0 0 1-1-2.7v-3a4 4 0 0 1 3.7-4V5H9v15.5c0 2.3-1 2.9-2.4 2.9s-2.3-1.1-3-2.4L0 23.2a7 7 0 0 0 6.8 4.2c1.7 0 3-.4 4.2-1.1v-.6ZM29.8 16c-.7-.6-1.6-1-2.5-1.6l.7.8v.8h1.7ZM19.2 12h3.3a2 2 0 0 1-.5-1.4c0-1.1.8-2 2.2-2s2.1.6 2.9 2l3.5-2.3c-1.4-2.6-3.5-3.7-6.4-3.7-4.1 0-6.7 2.7-6.7 6 0 1 .1 1.9.4 2.6l1.3-1.2Z" fill="#ff6"/><path d="M20 27v-1h-7v4c0 1.1.9 2 2 2h14a2 2 0 0 0 2-2v-4h-7v1h-4Zm10-9h-4v-2l-2-2h-4l-2 2v2h-4a2 2 0 0 0-2 2v3c0 1.1.9 2 2 2h6v-2h4v2h6a2 2 0 0 0 2-2v-3a2 2 0 0 0-2-2Zm-6 0h-4v-2h4v2Z" fill="#ff6"/></svg>