<svg xmlns="http://www.w3.org/2000/svg" viewBox="0 0 16 16"><path fill="#6060ff" d="M5 14.75v-5A2.25 2.25 0 0 1 7.25 7.5h.25v-.25q0-.13.03-.25H5.45a2 2 0 0 0-1.9 1.37L2.01 13V7c0-1.1.9-2 2-2h11c.55 0 1-.45 1-1s-.45-1-1-1h-7L6.6 1.59A2 2 0 0 0 5.19 1H2.02C.9 1 0 1.9 0 3v10c0 1.1.9 2 2 2h3.04c0-.08-.04-.16-.04-.25"/><path fill="#6060ff" d="M14.75 8.5H13.5V7.25c0-.69-.56-1.25-1.25-1.25h-2.5c-.69 0-1.25.56-1.25 1.25V8.5H7.25C6.56 8.5 6 9.06 6 9.75v5c0 .69.56 1.25 1.25 1.25h7.5c.69 0 1.25-.56 1.25-1.25v-5c0-.69-.56-1.25-1.25-1.25m-4.37-1.25h1.25c.35 0 .63.28.63.63v.62h-2.5v-.62c0-.35.28-.63.63-.63Z"/></svg>