<svg xmlns="http://www.w3.org/2000/svg" viewBox="0 0 16 16"><path fill="#e0e0e0" d="M14 3H8L6.59 1.59A2 2 0 0 0 5.18 1H2.01A2 2 0 0 0 0 3v10c0 1.1.9 2 2 2h.66a4.26 4.26 0 0 1 3.59-6.5c1.66 0 3.14.97 3.83 2.44h5.1q.43.02.81.21V5a2 2 0 0 0-2-2Z"/><path fill="#e0e0e0" d="M15.19 11.94h-5.8a3.24 3.24 0 0 0-6.38.81 3.24 3.24 0 0 0 6.38.81h.59l.57.57a.8.8 0 0 0 1.15 0l.24-.24.24.24a.8.8 0 0 0 1.15 0l.24-.24.24.24a.8.8 0 0 0 1.15 0l.81-.81a.81.81 0 0 0-.57-1.39Zm-8.94 2.44a1.62 1.62 0 1 1 0-3.24 1.62 1.62 0 0 1 0 3.24"/></svg>