<svg xmlns="http://www.w3.org/2000/svg" viewBox="0 0 16 16"><path fill="#e0e0e0" d="M2.01 12.96V13L2 7c0-1.1.9-2 2-2h11c.55 0 1-.45 1-1s-.45-1-1-1H8L6.59 1.59A2 2 0 0 0 5.18 1H2.01A2 2 0 0 0 0 3v10c0 1.1.9 2 2 2h.66a4 4 0 0 1-.65-2.04"/><path fill="#e0e0e0" d="M14 7H5.44a2 2 0 0 0-1.9 1.37l-.57 1.71a4.23 4.23 0 0 1 7.1.87h5.1q.43.01.81.21V9.01a2 2 0 0 0-2-2Z"/><path fill="#e0e0e0" d="M15.19 11.94h-5.8a3.24 3.24 0 0 0-6.38.81 3.24 3.24 0 0 0 6.38.81h.59l.57.57a.8.8 0 0 0 1.15 0l.24-.24.24.24a.8.8 0 0 0 1.15 0l.24-.24.24.24a.8.8 0 0 0 1.15 0l.81-.81a.81.81 0 0 0-.57-1.39Zm-8.94 2.44a1.62 1.62 0 1 1 0-3.24 1.62 1.62 0 0 1 0 3.24"/></svg>