<svg xmlns="http://www.w3.org/2000/svg" viewBox="0 0 16 16"><path d="M4.82 14.02a1.7 1.7 0 01-.63-2.31c.19-.33.47-.56.79-.7l-.17-.09a1.7 1.7 0 010-2.94L6.53 7H5.44a2 2 0 00-1.9 1.37L2 13V7c0-1.1.9-2 2-2h11c.55 0 1-.45 1-1s-.45-1-1-1H8L6.59 1.59A1.98 1.98 0 005.18 1H2.01A2 2 0 000 3v10c0 1.1.9 2 2 2h4.53l-1.72-.98z" fill="#ff40a0"/><path d="M10.14 6.09L5.31 8.85a.7.7 0 000 1.2l4.83 2.76c.21.12.47.12.68 0l4.83-2.76a.7.7 0 000-1.2l-4.83-2.76a.69.69 0 00-.68 0z" fill="#ff40a0"/><path d="M15.91 12.21a.7.7 0 00-.94-.26l-4.31 2.47a.34.34 0 01-.34 0l-4.31-2.47a.69.69 0 00-.68 1.2l4.83 2.76c.21.12.47.12.68 0l4.83-2.76a.7.7 0 00.26-.94z" fill="#ff40a0"/></svg>