<svg xmlns="http://www.w3.org/2000/svg" viewBox="0 0 16 16"><path fill="#ff40a0" d="M14 3H8L6.59 1.59A2 2 0 0 0 5.18 1H2.01A2 2 0 0 0 0 3v10c0 1.1.9 2 2 2h3v-1.5c0-.51.24-.95.6-1.25-.36-.3-.6-.74-.6-1.25V6.62C5 5.72 5.73 5 6.62 5h3.12c.51 0 .95.24 1.25.6.3-.36.74-.6 1.25-.6h3.12q.33 0 .62.13V5a2 2 0 0 0-2-2Z"/><rect width="4.38" height="5.63" x="6" y="6" fill="#ff40a0" rx=".62" ry=".62"/><rect width="4.38" height="3.12" x="11.63" y="6" fill="#ff40a0" rx=".62" ry=".62"/><rect width="4.38" height="5.63" x="11.63" y="10.38" fill="#ff40a0" rx=".62" ry=".62"/><rect width="4.38" height="3.13" x="6" y="12.88" fill="#ff40a0" rx=".62" ry=".62"/></svg>