<svg xmlns="http://www.w3.org/2000/svg" viewBox="0 0 16 16"><path fill="#ff40a0" d="M15 3H8L6.59 1.59A2 2 0 0 0 5.18 1H2.01A2 2 0 0 0 0 3v10c0 1.1.9 2 2 2h3v-1.5c0-.51.24-.95.6-1.25-.36-.3-.6-.74-.6-1.25V7.07a2 2 0 0 0-1.46 1.3L2 13V7c0-1.1.9-2 2-2h11c.55 0 1-.45 1-1s-.45-1-1-1"/><rect width="4.38" height="5.63" x="6" y="6" fill="#ff40a0" rx=".62" ry=".62"/><rect width="4.38" height="3.12" x="11.63" y="6" fill="#ff40a0" rx=".62" ry=".62"/><rect width="4.38" height="5.63" x="11.63" y="10.38" fill="#ff40a0" rx=".62" ry=".62"/><rect width="4.38" height="3.13" x="6" y="12.88" fill="#ff40a0" rx=".62" ry=".62"/></svg>