<svg xmlns="http://www.w3.org/2000/svg" viewBox="0 0 32 32"><path d="M31.9 14.7c-1-.3-1.6-.7-2.1-1.2-.8-.7-1.2-1.9-1.2-3.3V5.7c0-.6 0-1.2-.3-1.9-.3-1-1-2-1.8-2.6A4.4 4.4 0 0 0 24 0h-2.6v2.8h.1c.9.2 1.3.4 1.6.8.3.3.9 1 .9 2.5V10c0 1.2 0 2.2.3 3a6.4 6.4 0 0 0 3.1 3 6 6 0 0 0-2.8 2c-.5.8-.6 2-.6 3.5v4.2c0 1-.4 2-1 2.5a3 3 0 0 1-1.5.8h-.1v3h1.1c1.7 0 3.1-.5 4.3-1.4 1.3-1 1.9-2.3 1.9-4.2v-5.2c0-1.3.4-2.3 1.2-3 .6-.6 1.2-.9 2-1.1h.2v-2.4h-.1ZM8.1 13c.3-.7.5-1.7.5-3V6c0-1.2.3-2 .7-2.5a3 3 0 0 1 1.4-.7H12V0H8.4c-1 0-2 .6-2.7 1.2C4.8 2 4.2 2.8 4 3.9l-.1 1.5v4.7c0 1.8-.7 2.8-1.4 3.4a7 7 0 0 1-2.4 1.2H0v2.4h.1c1.1.3 2 .7 2.4 1a4 4 0 0 1 1.4 3.1v5.2c0 2 .5 3.3 1.7 4.2 1.2.9 2.6 1.3 4.3 1.4h1.3v-3H11c-.7-.2-1.2-.4-1.5-.8-.6-.5-1-1.4-1-2.5v-4.2c0-1.6-.2-2.7-.7-3.5A6 6 0 0 0 5 16a6.4 6.4 0 0 0 3.1-3Z" fill="#66f"/></svg>