<svg xmlns="http://www.w3.org/2000/svg" viewBox="0 0 16 16"><path fill="#6060ff" d="M6.25 14.13V9.76A1.63 1.63 0 0 1 8 8.13q.6.06 1.19.2A2.4 2.4 0 0 1 9.13 7H5.44a2 2 0 0 0-1.9 1.37L2 13V7c0-1.1.9-2 2-2h11c.55 0 1-.45 1-1s-.45-1-1-1H8L6.59 1.59A2 2 0 0 0 5.18 1H2.01A2 2 0 0 0 0 3v10c0 1.1.9 2 2 2h4.5a1.6 1.6 0 0 1-.25-.88Zm7.87-7.12a2.5 2.5 0 0 1-.07 1.32 8 8 0 0 1 1.19-.2q.3-.02.59.08a2 2 0 0 0-1.71-1.2"/><circle cx="11.63" cy="7.56" r="1.56" fill="#6060ff"/><path fill="#6060ff" d="M15.33 9.13q-.54.04-1.21.21c-1.02.27-1.8.72-2.32 1.09a.3.3 0 0 1-.36 0 7.4 7.4 0 0 0-3.53-1.3.62.62 0 0 0-.67.62v4.37c0 .33.25.59.58.62.39.03.82.05 1.29.17.92.25 1.65.64 2.17.98q.34.21.67 0a8 8 0 0 1 2.17-.98c.47-.13.91-.14 1.29-.17a.6.6 0 0 0 .58-.62V9.75a.62.62 0 0 0-.67-.62Z"/></svg>