<svg xmlns="http://www.w3.org/2000/svg" viewBox="0 0 16 16"><path d="M14 3H8L6.59 1.59A1.98 1.98 0 005.18 1H2.01A2 2 0 000 3v10c0 1.1.9 2 2 2h2.37c.15-.76.83-1.33 1.63-1.33h2.21l-2.05-2.05a1.66 1.66 0 010-2.36l.47-.47c.27-.27.6-.42.95-.46.05-.36.21-.69.46-.95.26-.26.6-.41.95-.45.05-.36.2-.7.47-.96l.47-.47a1.67 1.67 0 012.36 0l2.23 2.23a1.66 1.66 0 010 2.36l-.47.47a1.7 1.7 0 01-.26.21l2.22 2.22V5.01a2 2 0 00-2-2z" fill="#e0e0e0"/><path d="M12 15.33c0 .37-.3.67-.67.67H6a.67.67 0 010-1.34h5.33c.37 0 .67.3.67.67zm3.81-1.13L9.69 8.08a.66.66 0 10-.94.94l6.12 6.12a.66.66 0 10.94-.94z" fill="#e0e0e0"/><rect x="7.68" y="9.07" width="2" height="4.49" rx=".67" ry=".67" transform="rotate(-45 8.68 11.32)" fill="#e0e0e0"/><rect x="10.98" y="5.77" width="2" height="4.49" rx=".67" ry=".67" transform="rotate(-45 11.98 8.02)" fill="#e0e0e0"/></svg>