<svg xmlns="http://www.w3.org/2000/svg" viewBox="0 0 16 16"><path d="M6 13.67h2.21l-2.05-2.05a1.66 1.66 0 010-2.36l.47-.47c.27-.27.6-.42.95-.46.05-.36.21-.69.46-.95.19-.19.43-.3.68-.37H5.45a2 2 0 00-1.9 1.37l-1.54 4.63v-6c0-1.1.9-2 2-2h11c.55 0 1-.45 1-1s-.45-1-1-1h-7L6.6 1.6a1.98 1.98 0 00-1.41-.59H2.02A2 2 0 000 3v10c0 1.1.9 2 2 2h2.37c.15-.76.83-1.33 1.63-1.33z" fill="#e0e0e0"/><path d="M14 7h-.2l.72.72a1.66 1.66 0 010 2.36l-.47.47a1.7 1.7 0 01-.26.21l2.22 2.22V9a2 2 0 00-2-2zm-2 8.33c0 .37-.3.67-.67.67H6a.67.67 0 010-1.34h5.33c.37 0 .67.3.67.67zm3.81-1.13L9.69 8.08a.66.66 0 10-.94.94l6.12 6.12a.66.66 0 10.94-.94z" fill="#e0e0e0"/><rect x="7.68" y="9.07" width="2" height="4.49" rx=".67" ry=".67" transform="rotate(-45 8.68 11.32)" fill="#e0e0e0"/><rect x="10.98" y="5.77" width="2" height="4.49" rx=".67" ry=".67" transform="rotate(-45 11.98 8.02)" fill="#e0e0e0"/></svg>