<svg xmlns="http://www.w3.org/2000/svg" viewBox="0 0 16 16"><path d="M3.57 9.36v-.18c0-.47.1-.92.25-1.34-.11.16-.21.34-.28.53L2 13V7c0-1.1.9-2 2-2h11c.55 0 1-.45 1-1s-.45-1-1-1H8L6.59 1.59A1.98 1.98 0 005.18 1H2.01A2 2 0 000 3v10c0 1.1.9 2 2 2h4.9c-2.1-1.75-3.25-3.67-3.33-5.64zM13.67 15H14a2 2 0 002-2v-.59c-.55.89-1.34 1.76-2.33 2.59z" fill="#ff4040"/><path d="M12.79 6c-.94 0-1.78.41-2.37 1.06a.17.17 0 01-.26 0 3.21 3.21 0 00-5.58 2.15v.11c.11 3.04 3.22 5.33 5.36 6.58.22.13.48.13.7 0 2.14-1.25 5.24-3.54 5.36-6.58v-.11A3.21 3.21 0 0012.79 6z" fill="#ff4040"/></svg>