<svg xmlns="http://www.w3.org/2000/svg" viewBox="0 0 16 16"><path d="M13.67 15H14a2 2 0 002-2v-.59c-.55.89-1.34 1.76-2.33 2.59zM14 3H8L6.59 1.59A1.98 1.98 0 005.18 1H2.01A2 2 0 000 3v10c0 1.1.9 2 2 2h4.9c-2.1-1.75-3.25-3.67-3.33-5.64v-.18a4.21 4.21 0 016.72-3.34 4.19 4.19 0 015.71.68V5a2 2 0 00-2-2z" fill="#ff4040"/><path d="M12.79 6c-.94 0-1.78.41-2.37 1.06a.17.17 0 01-.26 0 3.21 3.21 0 00-5.58 2.15v.11c.11 3.04 3.22 5.33 5.36 6.58.22.13.48.13.7 0 2.14-1.25 5.24-3.54 5.36-6.58v-.11A3.21 3.21 0 0012.79 6z" fill="#ff4040"/></svg>