<svg xmlns="http://www.w3.org/2000/svg" viewBox="0 0 32 32"><path d="M10.4 19.4c0-3 1.6-5.4 4-6.6h-8L3.2 25.6v-16H32c0-1.8-1.4-3.2-3.2-3.2H16l-3.2-3.2H3.2A3.2 3.2 0 0 0 0 6.4v19.2c0 1.8 1.4 3.2 3.2 3.2h12.6c-3.3-3.2-5.4-6-5.4-9.4ZM32 14.3v-1.5h-2a7 7 0 0 1 2 1.5ZM28.6 28.8h.2c1.8 0 3.2-1.4 3.2-3.2V25c-.9 1.2-2 2.5-3.4 3.8Z" fill="#f66"/><path d="M23.2 12.8h-2l1 .6 1-.6ZM22.2 32l-1.4-1.3c-5-4.6-8.4-7.6-8.4-11.3 0-3 2.4-5.4 5.4-5.4 1.7 0 3.3.8 4.4 2 1-1.2 2.7-2 4.4-2 3 0 5.4 2.4 5.4 5.4 0 3.7-3.3 6.7-8.4 11.3L22.2 32Z" fill="#f66"/></svg>