<svg xmlns="http://www.w3.org/2000/svg" viewBox="0 0 16 16"><path fill="#40a0ff" d="M3.6 8.27A5 5 0 0 1 5.98 7h-.53A2 2 0 0 0 3.6 8.27"/><path fill="#40a0ff" d="M2.08 12.77 2 13V7c0-1.1.9-2 2-2h11c.55 0 1-.45 1-1s-.45-1-1-1H8L6.59 1.59A2 2 0 0 0 5.18 1H2.01A2 2 0 0 0 0 3v10c0 1.1.9 2 2 2h1.06q-.76-.97-.98-2.23M14 7h-.98c1.21.27 2.25.97 2.97 1.94A2 2 0 0 0 14 7"/><path fill="#40a0ff" d="M10.5 7H8.49c.44.16.8.48 1 .9.2-.42.57-.74 1-.9Zm-2.62 7.38h-.81a2.44 2.44 0 1 1 0-4.88h.81c.45 0 .81-.36.81-.81s-.36-.81-.81-.81h-.81a4.06 4.06 0 0 0 0 8.12h.81c.45 0 .81-.36.81-.81s-.36-.81-.81-.81m3.25 0h.81a2.44 2.44 0 1 0 0-4.88h-.81c-.45 0-.81-.36-.81-.81s.36-.81.81-.81h.81a4.06 4.06 0 0 1 0 8.12h-.81c-.45 0-.81-.36-.81-.81s.36-.81.81-.81"/><path fill="#40a0ff" d="M11.94 11.13H7.07c-.45 0-.81.36-.81.81s.36.81.81.81h4.87c.45 0 .81-.36.81-.81s-.36-.81-.81-.81"/></svg>