<svg xmlns="http://www.w3.org/2000/svg" viewBox="0 0 16 16"><path fill="#40a0ff" d="M14 3H8L6.59 1.59A2 2 0 0 0 5.18 1H2.01A2 2 0 0 0 0 3v10c0 1.1.9 2 2 2h1.06A5 5 0 0 1 2 11.94a5.07 5.07 0 0 1 5.06-5.06h.81c.72 0 1.33.42 1.62 1.03.29-.6.91-1.03 1.62-1.03h.81c1.67 0 3.14.82 4.06 2.07V5a2 2 0 0 0-2-2Z"/><path fill="#40a0ff" d="M7.88 14.38h-.81a2.44 2.44 0 1 1 0-4.88h.81c.45 0 .81-.36.81-.81s-.36-.81-.81-.81h-.81a4.06 4.06 0 0 0 0 8.12h.81c.45 0 .81-.36.81-.81s-.36-.81-.81-.81m3.25 0h.81a2.44 2.44 0 1 0 0-4.88h-.81c-.45 0-.81-.36-.81-.81s.36-.81.81-.81h.81a4.06 4.06 0 0 1 0 8.12h-.81c-.45 0-.81-.36-.81-.81s.36-.81.81-.81"/><path fill="#40a0ff" d="M11.94 11.13H7.07c-.45 0-.81.36-.81.81s.36.81.81.81h4.87c.45 0 .81-.36.81-.81s-.36-.81-.81-.81"/></svg>