<svg xmlns="http://www.w3.org/2000/svg" viewBox="0 0 16 16"><path fill="#40ff40" d="M2.53 12.34a1 1 0 0 1-.22-.27L2 13V7c0-1.1.9-2 2-2h11c.55 0 1-.45 1-1s-.45-1-1-1H8L6.59 1.59A2 2 0 0 0 5.18 1H2.01A2 2 0 0 0 0 3v10c0 1.1.9 2 2 2h3.19zM14 15a2 2 0 0 0 2-2V9.56L10.56 15z"/><path fill="#40ff40" d="m3.54 8.37-.33 1a1.9 1.9 0 0 1 1.88.41l2.78 2.78L13.43 7h-8a2 2 0 0 0-1.9 1.37Z"/><path fill="#40ff40" d="M15.76 7.3a.8.8 0 0 0-1.15 0l-6.45 6.45a.4.4 0 0 1-.57 0l-3.2-3.2a.8.8 0 0 0-1.15 0 .8.8 0 0 0 0 1.15l4.07 4.07a.8.8 0 0 0 1.15 0l7.31-7.31a.8.8 0 0 0 0-1.15Z"/></svg>