<svg xmlns="http://www.w3.org/2000/svg" viewBox="0 0 16 16"><path fill="#40ff40" d="M14 15a2 2 0 0 0 2-2V9.56L10.56 15zm0-12H8L6.59 1.59A2 2 0 0 0 5.18 1H2.01A2 2 0 0 0 0 3v10c0 1.1.9 2 2 2h3.19l-2.66-2.66a1.8 1.8 0 0 1 0-2.56 1.86 1.86 0 0 1 2.56 0l2.78 2.78 6.03-6.03a1.8 1.8 0 0 1 2.09-.32V5a2 2 0 0 0-2-2Z"/><path fill="#40ff40" d="M15.76 7.3a.8.8 0 0 0-1.15 0l-6.45 6.45a.4.4 0 0 1-.57 0l-3.2-3.2a.8.8 0 0 0-1.15 0 .8.8 0 0 0 0 1.15l4.07 4.07a.8.8 0 0 0 1.15 0l7.31-7.31a.8.8 0 0 0 0-1.15Z"/></svg>