<svg xmlns="http://www.w3.org/2000/svg" viewBox="0 0 16 16"><path fill="#40ffa0" d="M8.13 9.78v-.36c0-.89.27-1.72.73-2.41H5.44a2 2 0 0 0-1.9 1.37L2 13.01v-6c0-1.1.9-2 2-2h11c.55 0 1-.45 1-1s-.45-1-1-1H8L6.59 1.6a2 2 0 0 0-1.41-.59H2.01A2 2 0 0 0 0 3v10c0 1.1.9 2 2 2h8.24a8.6 8.6 0 0 1-2.11-5.22"/><path fill="#40ffa0" d="M12.56 6a3.44 3.44 0 0 0-3.44 3.44v.31c.06 2.58 1.72 4.71 3.44 6.25 1.72-1.54 3.37-3.67 3.44-6.25v-.31C16 7.54 14.46 6 12.56 6m0 4.69a1.25 1.25 0 1 1 0-2.5 1.25 1.25 0 0 1 0 2.5"/></svg>