<svg xmlns="http://www.w3.org/2000/svg" viewBox="0 0 16 16"><path fill="#40a0ff" d="m15.94 14.64-3-8A1 1 0 0 0 12 6c-.4 0-.79.25-.94.65l-3 8c-.19.51.07 1.09.59 1.29.51.19 1.09-.07 1.29-.58l.51-1.35h3.12l.5 1.34a1 1 0 0 0 1.29.58c.51-.19.78-.77.59-1.29ZM11.19 12 12 9.85l.81 2.15zM11 2H7V1c0-.55-.45-1-1-1S5 .45 5 1v1H1c-.55 0-1 .45-1 1s.45 1 1 1h5.96L4.97 6.55 3.71 5.29A1 1 0 1 0 2.3 6.7l1.44 1.44-2.52 3.24a1 1 0 0 0 .18 1.4 1 1 0 0 0 1.4-.17l2.37-3.04 1.14 1.14A1 1 0 1 0 7.72 9.3L6.41 7.99l3.1-3.98h1.51c.55 0 1-.45 1-1s-.45-1-1-1Z"/></svg>