<svg xmlns="http://www.w3.org/2000/svg" viewBox="0 0 16 16"><path fill="#40a0ff" d="M14 3H8L6.59 1.59A2 2 0 0 0 5.18 1H2.01A2 2 0 0 0 0 3v10c0 1.1.9 2 2 2h4.65q-.21-.08-.4-.22a1.63 1.63 0 0 1-.29-2.28l1.03-1.33-.28-.28a1.6 1.6 0 0 1-.45-1.44 1.62 1.62 0 0 1 .34-3.21h1.54a1.62 1.62 0 0 1 3.16 0h1.54a1.62 1.62 0 0 1 1.25 2.64c.4.17.73.48.89.9l.98 2.61V4.98a2 2 0 0 0-2-2Z"/><path fill="#40a0ff" d="M10.38 13.88a1.6 1.6 0 0 1-1.05-.39l-.79 1.01q-.28.36-.68.5h2.2l.05-.2.35-.94h-.08Zm5.58 1.27-1.88-5a.6.6 0 0 0-.59-.4.7.7 0 0 0-.59.41l-1.88 5c-.12.32.04.68.37.8.32.12.68-.04.8-.37l.32-.84h1.95l.32.84c.12.32.48.49.8.37a.63.63 0 0 0 .37-.81ZM13 13.5l.5-1.34.51 1.34zm-.12-6.25h-2.5v-.62c0-.35-.28-.62-.62-.62s-.62.28-.62.62v.62h-2.5c-.34 0-.62.28-.62.62s.28.62.62.62h3.72l-1.24 1.6-.79-.79c-.24-.24-.64-.24-.88 0s-.24.64 0 .88l.9.9-1.58 2.03a.63.63 0 0 0 .11.88c.27.21.67.16.88-.11l1.48-1.9.71.71c.24.24.64.24.88 0s.24-.64 0-.88l-.82-.82 1.93-2.49h.94c.34 0 .62-.28.62-.62s-.28-.62-.62-.62Z"/></svg>