<svg xmlns="http://www.w3.org/2000/svg" viewBox="0 0 16 16"><path fill="#a0a0a0" d="M14 3H8L6.59 1.59A2 2 0 0 0 5.18 1H2.01A2 2 0 0 0 0 3v10c0 1.1.9 2 2 2h5.54c0-.08-.04-.16-.04-.25V11c0-.88.51-1.65 1.25-2.02V8.5a3.5 3.5 0 0 1 7 0v.48l.25.17V4.99a2 2 0 0 0-2-2Z"/><path fill="#a0a0a0" d="M14.75 9.75V8.5a2.5 2.5 0 0 0-5 0v1.25c-.69 0-1.25.56-1.25 1.25v3.75c0 .69.56 1.25 1.25 1.25h5c.69 0 1.25-.56 1.25-1.25V11c0-.69-.56-1.25-1.25-1.25m-2.5 4.06a.94.94 0 1 1 0-1.88.94.94 0 0 1 0 1.88m1.25-4.06H11V8.5a1.25 1.25 0 0 1 2.5 0z"/></svg>