<svg xmlns="http://www.w3.org/2000/svg" viewBox="0 0 16 16"><path fill="#e0e0e0" d="M15.29 14.14h-3.02q.32.36.42.86H14a2 2 0 0 0 1.67-.9zM14 3H8L6.59 1.59A2 2 0 0 0 5.18 1H2.01A2 2 0 0 0 0 3v10c0 1.1.9 2 2 2h1.61c.08-.47.35-.89.73-1.14a1.72 1.72 0 0 1 0-2.86 1.72 1.72 0 0 1 0-2.86A1.7 1.7 0 0 1 5.28 5h10q.4 0 .71.16V5a2 2 0 0 0-2-2Z"/><path fill="#e0e0e0" d="M16 6.71c0 .39-.32.71-.71.71h-10a.7.7 0 0 1-.71-.71c0-.39.32-.71.71-.71h10c.39 0 .71.32.71.71m0 2.86c0 .39-.32.71-.71.71h-10a.7.7 0 0 1-.71-.71c0-.39.32-.71.71-.71h10c.39 0 .71.32.71.71m0 2.86c0 .39-.32.71-.71.71h-10a.7.7 0 0 1-.71-.71c0-.39.32-.71.71-.71h10c.39 0 .71.32.71.71m-4.29 2.86c0 .39-.32.71-.71.71H5.29a.7.7 0 0 1-.71-.71c0-.39.32-.71.71-.71H11c.39 0 .71.32.71.71"/></svg>