<svg xmlns="http://www.w3.org/2000/svg" viewBox="0 0 16 16"><path fill="#e0e0e0" d="M4.34 13.86a1.72 1.72 0 0 1 0-2.86 1.72 1.72 0 0 1 0-2.86q-.25-.17-.42-.42-.25.28-.37.64l-1.54 4.63v-6c0-1.1.9-2 2-2h11c.55 0 1-.45 1-1s-.45-1-1-1h-7L6.6 1.58A2 2 0 0 0 5.19.99H2.02A2.03 2.03 0 0 0 0 3v10c0 1.1.9 2 2 2h1.61c.08-.47.35-.89.73-1.14m10.95.28h-3.02q.32.36.42.86H14a2 2 0 0 0 1.67-.9z"/><path fill="#e0e0e0" d="M16 6.71c0 .39-.32.71-.71.71h-10a.7.7 0 0 1-.71-.71c0-.39.32-.71.71-.71h10c.39 0 .71.32.71.71m0 2.86c0 .39-.32.71-.71.71h-10a.7.7 0 0 1-.71-.71c0-.39.32-.71.71-.71h10c.39 0 .71.32.71.71m0 2.86c0 .39-.32.71-.71.71h-10a.7.7 0 0 1-.71-.71c0-.39.32-.71.71-.71h10c.39 0 .71.32.71.71m-4.29 2.86c0 .39-.32.71-.71.71H5.29a.7.7 0 0 1-.71-.71c0-.39.32-.71.71-.71H11c.39 0 .71.32.71.71"/></svg>