<svg xmlns="http://www.w3.org/2000/svg" viewBox="0 0 16 16"><path fill="#ff40ff" d="M15 3H8L6.59 1.59A2 2 0 0 0 5.18 1H2.01A2 2 0 0 0 0 3v10c0 1.1.9 2 2 2h8.07q.09-.35.29-.63-.29-.12-.51-.34c-.38-.38-.53-.9-.46-1.4H6.62a1.62 1.62 0 1 1 0-3.24h2.77a1.6 1.6 0 0 1 .96-1.74q-.2-.28-.29-.63H5.43a2 2 0 0 0-1.9 1.37l-1.54 4.63v-6c0-1.1.9-2 2-2h11c.55 0 1-.45 1-1s-.45-1-1-1Z"/><path fill="#ff40ff" d="m13.32 10.56-1.87-1.87c-.24-.24-.64-.24-.88 0s-.24.64 0 .88l.81.81H6.64c-.34 0-.62.28-.62.62s.28.62.62.62h4.74l-.81.81c-.24.24-.24.64 0 .88s.64.24.88 0l1.87-1.87a.6.6 0 0 0 .18-.44.6.6 0 0 0-.18-.44"/><path fill="#ff40ff" d="M11 6.63c0 .35.28.63.62.63h2.5c.35 0 .62.28.62.62v6.25c0 .35-.28.62-.62.62h-2.5a.6.6 0 0 0-.62.62c0 .35.28.62.62.62h3.13c.69 0 1.25-.56 1.25-1.25v-7.5c0-.69-.56-1.25-1.25-1.25h-3.13a.6.6 0 0 0-.62.62Z"/></svg>