<svg xmlns="http://www.w3.org/2000/svg" viewBox="0 0 16 16"><path fill="#ff40ff" d="M12.6 12.63a1.6 1.6 0 0 1-.96 1.74q.2.28.29.63H14a2 2 0 0 0 2-2v-.5q-.29.13-.62.13h-2.77ZM14 3H8L6.59 1.59A2 2 0 0 0 5.18 1H2.01A2 2 0 0 0 0 3v10c0 1.1.9 2 2 2h3.04c0-.08-.04-.16-.04-.25v-7.5A2.25 2.25 0 0 1 7.25 5h3.12a1.62 1.62 0 0 1 1.26 2.63q.29.13.51.34c.38.38.53.9.46 1.4h2.77q.33 0 .62.13V5a2 2 0 0 0-2-2Z"/><path fill="#ff40ff" d="M10.38 14.75h-2.5a.6.6 0 0 1-.62-.62V7.88c0-.35.28-.62.62-.62h2.5c.35 0 .62-.28.62-.62s-.28-.62-.62-.62H7.26c-.69 0-1.25.56-1.25 1.25v7.5c0 .69.56 1.25 1.25 1.25h3.12c.35 0 .62-.28.62-.62s-.28-.62-.62-.62Z"/><path fill="#ff40ff" d="M15.38 10.38h-4.74l.81-.81c.24-.24.24-.64 0-.88s-.64-.24-.88 0L8.7 10.56a.6.6 0 0 0-.18.44q0 .25.18.44l1.87 1.87c.24.24.64.24.88 0s.24-.64 0-.88l-.81-.81h4.74c.34 0 .62-.28.62-.62s-.28-.62-.62-.62"/></svg>