<svg xmlns="http://www.w3.org/2000/svg" viewBox="0 0 16 16"><path fill="#40a0ff" d="M14 3H8L6.59 1.59A2 2 0 0 0 5.18 1H2.01A2 2 0 0 0 0 3v10c0 1.1.9 2 2 2h.09q-.08-.3-.09-.62v-6.5a2.6 2.6 0 0 1 2.62-2.62h9.75c.62 0 1.18.22 1.62.58v-.83a2 2 0 0 0-2-2Z"/><path fill="#40a0ff" d="M14.38 6.25H4.63c-.89 0-1.62.73-1.62 1.62v6.5c0 .89.73 1.62 1.62 1.62h9.75c.89 0 1.62-.73 1.62-1.62v-6.5c0-.89-.73-1.62-1.62-1.62m-.52 3.19L9.8 11.07a.8.8 0 0 1-.6 0L5.14 9.44a.8.8 0 0 1-.45-1.06.8.8 0 0 1 1.06-.45l3.61 1.44q.15.06.3 0l3.61-1.44a.8.8 0 0 1 1.06.45.8.8 0 0 1-.45 1.06Z"/></svg>