<svg xmlns="http://www.w3.org/2000/svg" viewBox="0 0 16 16"><path fill="#a0ff40" d="M15 3H8L6.59 1.59A2 2 0 0 0 5.18 1H2.01A2 2 0 0 0 0 3v10c0 1.1.9 2 2 2h3.04l.2-1.4q.08-.53.46-.92l5.44-5.44q.16-.14.34-.24H5.45a2 2 0 0 0-1.9 1.37L2.01 13V7c0-1.1.9-2 2-2h11c.55 0 1-.45 1-1s-.45-1-1-1Zm-.24 7.87L10.63 15h3.38a2 2 0 0 0 2-2V9.6q-.35.3-.79.39-.09.5-.45.88Z"/><rect width="1.88" height="3.13" x="13.55" y="5.95" fill="#a0ff40" rx=".63" ry=".63" transform="rotate(-45 14.5 7.5)"/><path fill="#a0ff40" d="m14.05 9.28-1.33-1.33a.63.63 0 0 0-.88 0L6.4 13.39q-.15.15-.18.35L6 15.29c-.06.41.29.77.71.71l1.55-.22a.6.6 0 0 0 .35-.18l5.44-5.44a.63.63 0 0 0 0-.88"/></svg>