<svg xmlns="http://www.w3.org/2000/svg" viewBox="0 0 16 16"><path fill="#40ffa0" d="M14 3H8L6.59 1.59A2 2 0 0 0 5.18 1H2.01A2 2 0 0 0 0 3v10c0 1.1.9 2 2 2h3.04c0-.08-.04-.16-.04-.25v-.62c0-1.04.71-1.92 1.68-2.18l1.91-2.72a2.3 2.3 0 0 1-.46-1.35v-.62a2.25 2.25 0 0 1 2.25-2.25h1.25a2.25 2.25 0 0 1 2.25 2.25v.62q-.01.76-.46 1.35l1.91 2.72q.36.1.68.31V5a2 2 0 0 0-2-2Z"/><path fill="#40ffa0" d="m14.75 12.88-2.69-3.83c.47-.18.81-.63.81-1.17v-.62c0-.69-.56-1.25-1.25-1.25h-1.25c-.69 0-1.25.56-1.25 1.25v.62c0 .53.34.99.81 1.17l-2.69 3.83c-.69 0-1.25.56-1.25 1.25v.62c0 .69.56 1.25 1.25 1.25h1.25c.69 0 1.25-.56 1.25-1.25v-.62c0-.6-.43-1.1-.99-1.22l2.24-3.2 2.24 3.2c-.56.12-.99.62-.99 1.22v.62c0 .69.56 1.25 1.25 1.25h1.25c.69 0 1.25-.56 1.25-1.25v-.62c0-.69-.56-1.25-1.25-1.25Z"/></svg>