<svg xmlns="http://www.w3.org/2000/svg" viewBox="0 0 16 16"><path fill="#40ffa0" d="M14 3H8L6.59 1.59A2 2 0 0 0 5.18 1H2.01A2 2 0 0 0 0 3v10c0 1.1.9 2 2 2h5.65l-.06-.15a1.6 1.6 0 0 1-.69-1.08l-.62-3.75c-.07-.42.04-.85.28-1.19a1.5 1.5 0 0 1-.3-.86q-.03-.86.5-1.65a2.9 2.9 0 0 1 2.75-1.28c.8.1 1.53.57 2 1.29l.11.2a2.9 2.9 0 0 1 2.51-1.51c.72 0 1.37.28 1.88.71v-.71a2 2 0 0 0-2-2Z"/><path fill="#40ffa0" d="M7.87 8.5h2.5c.32 0 .61-.25.62-.57q.03-.49-.33-1.07a1.9 1.9 0 0 0-1.8-.84c-.53.07-1 .4-1.3.84q-.36.57-.33 1.07c.01.32.3.57.62.57Z"/><path fill="#40ffa0" d="M14.13 6c-1.03 0-1.87.84-1.87 1.87v6.25c0 .34-.28.62-.62.62h-1.25a.6.6 0 0 1-.62-.62c.31 0 .57-.22.62-.52l.63-3.75a.63.63 0 0 0-.62-.73H7.9a.63.63 0 0 0-.62.73l.63 3.75c.05.3.31.52.62.52 0 1.03.84 1.87 1.87 1.87h1.25c1.03 0 1.87-.84 1.87-1.87V7.87c0-.34.28-.62.62-.62s.62.28.62.62v7.5c0 .34.28.62.62.62s.62-.28.62-.62v-7.5C16 6.84 15.16 6 14.13 6"/></svg>