<svg xmlns="http://www.w3.org/2000/svg" viewBox="0 0 32 32"><path d="M6.6 25.6v-8.5c0-2.2 1.9-4 4.2-4h14.8c2 0 3.6 1.3 4 3.1H32v-3.4H6.4L3.2 25.6v-16H32c0-1.8-1.4-3.2-3.2-3.2H16l-3.2-3.2H3.2A3.2 3.2 0 0 0 0 6.4v19.2c0 1.8 1.4 3.2 3.2 3.2h5c-1-.8-1.6-1.9-1.6-3.2Z" fill="#6f6"/><path d="M27.8 25.6v-8.5c0-1.1-1-2-2.2-2H10.7c-1.1 0-2 .9-2 2v8.5c0 1.2.9 2.1 2 2.1h15c1.1 0 2-1 2-2Zm-9.6-1a3.2 3.2 0 1 1 0-6.4 3.2 3.2 0 0 1 0 6.4ZM32 18.2v11.7c0 1.2-1 2.1-2.1 2.1h-18v-2.1h18V18.2h2Z" fill="#6f6"/></svg>