<svg xmlns="http://www.w3.org/2000/svg" viewBox="0 0 16 16"><path fill="#40ff40" d="M14 3H8L6.59 1.59A2 2 0 0 0 5.18 1H2.01A2 2 0 0 0 0 3v10c0 1.1.9 2 2 2h1.65q.03-.31.16-.58a2.6 2.6 0 0 1-1.8-2.48V7.88a2.6 2.6 0 0 1 2.62-2.62h7.31c1.16 0 2.13.76 2.48 1.8q.35-.17.77-.18.44.01.81.2V5a2 2 0 0 0-2-2m.38 5.69v5.28c0 .22-.18.41-.41.41H5.44a.8.8 0 0 0-.81.81c0 .45.36.81.81.81h9.75a.8.8 0 0 0 .81-.81v-6.5a.8.8 0 0 0-.81-.81.8.8 0 0 0-.81.81"/><path fill="#40ff40" d="M11.94 6.25H4.63c-.9 0-1.62.73-1.62 1.62v4.06c0 .9.73 1.62 1.62 1.62h7.31c.9 0 1.62-.73 1.62-1.62V7.87c0-.9-.73-1.62-1.62-1.62m-3.15 5.63A2.04 2.04 0 0 1 6.31 9.4a2.04 2.04 0 1 1 2.49 2.49Z"/></svg>