<svg xmlns="http://www.w3.org/2000/svg" viewBox="0 0 16 16"><path fill="#40ff40" d="M3.8 14.42a2.6 2.6 0 0 1-1.69-1.75L2 13V7c0-1.1.9-2 2-2h11c.55 0 1-.45 1-1s-.45-1-1-1H8L6.59 1.59A2 2 0 0 0 5.18 1H2.01A2 2 0 0 0 0 3v10c0 1.1.9 2 2 2h1.65q.03-.31.16-.58Zm10.58-5.73v5.28c0 .22-.18.41-.41.41H5.44a.8.8 0 0 0-.81.81c0 .45.36.81.81.81h9.75a.8.8 0 0 0 .81-.81v-6.5a.8.8 0 0 0-.81-.81.8.8 0 0 0-.81.81"/><path fill="#40ff40" d="M11.94 6.25H4.63c-.9 0-1.62.73-1.62 1.62v4.06c0 .9.73 1.62 1.62 1.62h7.31c.9 0 1.62-.73 1.62-1.62V7.87c0-.9-.73-1.62-1.62-1.62m-3.15 5.63A2.04 2.04 0 0 1 6.31 9.4a2.04 2.04 0 1 1 2.49 2.49Z"/></svg>