<svg xmlns="http://www.w3.org/2000/svg" viewBox="0 0 16 16"><path d="M15.85 13.31l.09.14c.03-.15.06-.3.06-.45v-1.38c-.36.24-.78.38-1.24.38l1.09 1.31zM14 3H8L6.59 1.59A1.98 1.98 0 005.18 1H2.01A2 2 0 000 3v10c0 1.1.9 2 2 2h3.65c-.07-.6.1-1.21.5-1.69L7.24 12a2.24 2.24 0 01-.03-4.5l-.03-.25A2.25 2.25 0 019.43 5c.61 0 1.16.24 1.56.64.41-.39.96-.64 1.56-.64a2.25 2.25 0 012.25 2.25c0 .09-.02.17-.03.25.45 0 .86.15 1.21.38V4.99a2 2 0 00-2-2z" fill="#ffa040"/><path d="M15.09 13.95l-3.13-3.75c-.5-.6-1.42-.6-1.92 0l-3.12 3.75c-.68.81-.1 2.05.96 2.05h6.25c1.06 0 1.64-1.24.96-2.05z" fill="#ffa040"/><circle cx="7.25" cy="9.75" r="1.25" fill="#ffa040"/><circle cx="14.75" cy="9.75" r="1.25" fill="#ffa040"/><circle cx="12.56" cy="7.25" r="1.25" fill="#ffa040"/><circle cx="9.44" cy="7.25" r="1.25" fill="#ffa040"/></svg>