<svg xmlns="http://www.w3.org/2000/svg" viewBox="0 0 16 16"><path fill="#ffa040" d="M6.15 13.31 7.24 12a2.24 2.24 0 0 1-.03-4.5l-.03-.25.03-.25H5.44a2 2 0 0 0-1.9 1.37L2 13V7c0-1.1.9-2 2-2h11c.55 0 1-.45 1-1s-.45-1-1-1H8L6.59 1.59A2 2 0 0 0 5.18 1H2.01A2 2 0 0 0 0 3v10c0 1.1.9 2 2 2h3.65c-.07-.6.1-1.21.5-1.69m9.7 0 .09.14q.05-.22.06-.45v-1.38q-.54.37-1.24.38z"/><path fill="#ffa040" d="m15.09 13.95-3.13-3.75c-.5-.6-1.42-.6-1.92 0l-3.12 3.75c-.68.81-.1 2.05.96 2.05h6.25c1.06 0 1.64-1.24.96-2.05"/><circle cx="7.25" cy="9.75" r="1.25" fill="#ffa040"/><circle cx="14.75" cy="9.75" r="1.25" fill="#ffa040"/><circle cx="12.56" cy="7.25" r="1.25" fill="#ffa040"/><circle cx="9.44" cy="7.25" r="1.25" fill="#ffa040"/></svg>