<svg xmlns="http://www.w3.org/2000/svg" viewBox="0 0 16 16"><path fill="#6060ff" d="M15.19 14.56a1.8 1.8 0 0 1-1.8-1.62h-3.7v.45c.85.09 1.52.77 1.61 1.62h2.71a2 2 0 0 0 1.24-.44h-.06ZM2.02 15c.09-.85.76-1.53 1.61-1.62V9.5c0-1.18.79-2.17 1.87-2.5h-.05a2 2 0 0 0-1.9 1.37L2.01 13V7c0-1.1.9-2 2-2h11c.55 0 1-.45 1-1s-.45-1-1-1h-7L6.6 1.59A2 2 0 0 0 5.19 1H2.02C.9 1 0 1.9 0 3v10c0 1.1.9 2 2 2z"/><path fill="#6060ff" d="M15.19 6.25a.8.8 0 0 0-.81.81v.81H6.25c-.9 0-1.62.73-1.62 1.62v4.88h-.81c-.45 0-.81.37-.81.81s.37.81.81.81h5.69c.45 0 .81-.37.81-.81s-.37-.81-.81-.81H8.7v-2.44h5.69v.81c0 .45.37.81.81.81s.81-.37.81-.81V7.05a.8.8 0 0 0-.81-.81Z"/></svg>