<svg xmlns="http://www.w3.org/2000/svg" viewBox="0 0 32 32"><path fill="#f6f" d="M19 17a15 15 0 0 1 13 7.5V12.9H6.4L3.2 25.6v-16H32c0-1.8-1.4-3.2-3.2-3.2H16l-3.2-3.2H3.2A3.2 3.2 0 0 0 0 6.4v19.2c0 1.8 1.4 3.2 3.2 3.2h1.1A15 15 0 0 1 19 17Z"/><path fill="#f6f" d="M19 19A13 13 0 0 0 6 32h2.6a10.4 10.4 0 0 1 20.8 0H32a13 13 0 0 0-13-13Z"/><path fill="#f6f" d="M19 22.9A9 9 0 0 0 9.9 32h2.6a6.5 6.5 0 1 1 13 0h2.6c0-5-4-9.1-9.1-9.1Z"/><path fill="#f6f" d="M19 26.8a5.2 5.2 0 0 0-5.2 5.2h2.6a2.6 2.6 0 0 1 5.2 0h2.6c0-2.9-2.3-5.2-5.2-5.2Z"/></svg>