<svg xmlns="http://www.w3.org/2000/svg" viewBox="0 0 16 16"><path fill="#ff40ff" d="M15.13 14.16v.5q.4-.28.64-.73-.3.16-.64.23M5 14.75v-2.56h1.62q.23-.02.25-.25c.02-.23-.11-.25-.25-.25H5V9.13c0-.99.65-1.83 1.54-2.12h-1.1a2 2 0 0 0-1.9 1.37L2 13.01v-6c0-1.1.9-2 2-2h11c.55 0 1-.45 1-1s-.45-1-1-1H8L6.59 1.6a2 2 0 0 0-1.41-.59H2.01A2 2 0 0 0 0 3v10c0 1.1.9 2 2 2h3.04c0-.08-.04-.16-.04-.25M14 7h-.42c.89.3 1.54 1.13 1.54 2.12v.59q.48.08.88.36V8.99a2 2 0 0 0-2-2Z"/><path fill="#ff40ff" d="M14.75 10.69h-.62V9.13c0-.69-.56-1.25-1.25-1.25h-1.56v-.62a1.25 1.25 0 0 0-2.5 0v.62H7.26c-.69 0-1.25.56-1.25 1.25v1.56h.62a1.25 1.25 0 0 1 0 2.5h-.62v1.56c0 .69.56 1.25 1.25 1.25h1.56v-.63a1.25 1.25 0 0 1 2.5 0V16h1.56c.69 0 1.25-.56 1.25-1.25v-1.56h.62a1.25 1.25 0 0 0 0-2.5"/></svg>