<svg xmlns="http://www.w3.org/2000/svg" viewBox="0 0 16 16"><path fill="#6060ff" d="M15 3H8L6.59 1.59A2 2 0 0 0 5.18 1H2.01A2 2 0 0 0 0 3v10c0 1.1.9 2 2 2h1.61a2 2 0 0 1-.04-.43V8.31l-.03.05L2 12.99v-6c0-1.1.9-2 2-2h11c.55 0 1-.45 1-1s-.45-1-1-1Z"/><path fill="#6060ff" d="M14.57 7.43h-4.29L9.27 6.42A1.4 1.4 0 0 0 8.26 6H5.99c-.79 0-1.43.64-1.43 1.43v7.14c0 .79.64 1.43 1.43 1.43h8.57c.79 0 1.43-.64 1.43-1.43V8.86c0-.79-.64-1.43-1.43-1.43ZM11 13.86H7.43c-.39 0-.71-.32-.71-.71s.32-.71.71-.71H11c.39 0 .71.32.71.71s-.32.71-.71.71M13.14 11H7.43c-.39 0-.71-.32-.71-.71s.32-.71.71-.71h5.71c.39 0 .71.32.71.71s-.32.71-.71.71"/></svg>