<svg xmlns="http://www.w3.org/2000/svg" viewBox="0 0 16 16"><path fill="#6060ff" d="M14 3H8L6.59 1.59A2 2 0 0 0 5.18 1H2.01A2 2 0 0 0 0 3v10c0 1.1.9 2 2 2h1.61a2 2 0 0 1-.04-.43V7.43A2.43 2.43 0 0 1 6 5h2.27c.65 0 1.26.25 1.72.71l.72.72h3.87q.82.02 1.43.47V5a2 2 0 0 0-2-2Z"/><path fill="#6060ff" d="M14.57 7.43h-4.29L9.27 6.42A1.4 1.4 0 0 0 8.26 6H5.99c-.79 0-1.43.64-1.43 1.43v7.14c0 .79.64 1.43 1.43 1.43h8.57c.79 0 1.43-.64 1.43-1.43V8.86c0-.79-.64-1.43-1.43-1.43ZM11 13.86H7.43c-.39 0-.71-.32-.71-.71s.32-.71.71-.71H11c.39 0 .71.32.71.71s-.32.71-.71.71M13.14 11H7.43c-.39 0-.71-.32-.71-.71s.32-.71.71-.71h5.71c.39 0 .71.32.71.71s-.32.71-.71.71"/></svg>