<svg xmlns="http://www.w3.org/2000/svg" viewBox="0 0 32 32"><path d="M14.5 28.6a4.4 4.4 0 0 1 0-8c0-2 1.6-3.7 3.6-3.7h1a4.4 4.4 0 0 1 7.9 0h1c2 0 3.6 1.6 3.6 3.7l.4.3V9.6c0-1.8-1.4-3.2-3.2-3.2H16l-3.2-3.2H3.2A3.2 3.2 0 0 0 0 6.4v19.2c0 1.8 1.4 3.2 3.2 3.2h11.3v-.2Z" fill="#66ffb4"/><path d="M29.6 22.2v-1.7c0-.9-.8-1.6-1.7-1.6h-2.4a2.4 2.4 0 1 0-5 0h-2.4c-.9 0-1.6.7-1.6 1.6v1.7a2.4 2.4 0 1 0 0 4.9v3.2c0 1 .7 1.7 1.6 1.7H28c1 0 1.7-.8 1.7-1.7v-3.2a2.4 2.4 0 1 0 0-5Zm-10.3 2a1.2 1.2 0 1 1 2.5 0 1.2 1.2 0 0 1-2.5 0Zm7 4.5h-6.6v-1.6h6.6v1.6Zm-.8-3.3a1.2 1.2 0 1 1 0-2.4 1.2 1.2 0 0 1 0 2.4Z" fill="#66ffb4"/></svg>