<svg xmlns="http://www.w3.org/2000/svg" viewBox="0 0 16 16"><path fill="#40ffa0" d="M15.57 14.22q.17-.22.28-.48-.13.1-.28.18zM14 3H8L6.59 1.59A2 2 0 0 0 5.18 1H2.01A2 2 0 0 0 0 3v10c0 1.1.9 2 2 2h3.04a2 2 0 0 1-.04-.43v-.64a2.43 2.43 0 0 1 0-4.42v-.64a2.43 2.43 0 0 1 2.43-2.43h.64a2.43 2.43 0 0 1 4.42 0h.64a2.43 2.43 0 0 1 2.43 2.43v.64q.23.11.43.27V5.01a2 2 0 0 0-2-2Z"/><path fill="#40ffa0" d="M14.57 10.29V8.86c0-.79-.64-1.43-1.43-1.43h-1.43a1.43 1.43 0 1 0-2.86 0H7.42c-.79 0-1.43.64-1.43 1.43v1.43a1.43 1.43 0 1 0 0 2.86v1.43c0 .79.64 1.43 1.43 1.43h5.71c.79 0 1.43-.64 1.43-1.43v-1.43a1.43 1.43 0 1 0 0-2.86Zm-7.14.35a1.07 1.07 0 1 1 2.14 0 1.07 1.07 0 0 1-2.14 0m4.28 3.93H8.85c-.39 0-.71-.32-.71-.71s.32-.71.71-.71h2.86c.39 0 .71.32.71.71s-.32.71-.71.71m.36-2.86a1.07 1.07 0 1 1 0-2.14 1.07 1.07 0 0 1 0 2.14"/></svg>