<svg xmlns="http://www.w3.org/2000/svg" viewBox="0 0 16 16"><path fill="#40ffa0" d="M14.95 7.25c.38.43.62.99.62 1.61v.64q.23.11.43.27V9a2 2 0 0 0-1.05-1.75M5 14.57v-.64a2.43 2.43 0 0 1 0-4.42v-.64c0-.75.35-1.41.88-1.86h-.44a2 2 0 0 0-1.9 1.37L2 13.01v-6c0-1.1.9-2 2-2h11c.55 0 1-.45 1-1s-.45-1-1-1H8L6.59 1.6a2 2 0 0 0-1.41-.59H2.01A2 2 0 0 0 0 3v10c0 1.1.9 2 2 2h3.04a2 2 0 0 1-.04-.43m10.57-.35q.17-.22.28-.48-.13.1-.28.18z"/><path fill="#40ffa0" d="M14.57 10.29V8.86c0-.79-.64-1.43-1.43-1.43h-1.43a1.43 1.43 0 1 0-2.86 0H7.42c-.79 0-1.43.64-1.43 1.43v1.43a1.43 1.43 0 1 0 0 2.86v1.43c0 .79.64 1.43 1.43 1.43h5.71c.79 0 1.43-.64 1.43-1.43v-1.43a1.43 1.43 0 1 0 0-2.86Zm-7.14.35a1.07 1.07 0 1 1 2.14 0 1.07 1.07 0 0 1-2.14 0m4.28 3.93H8.85c-.39 0-.71-.32-.71-.71s.32-.71.71-.71h2.86c.39 0 .71.32.71.71s-.32.71-.71.71m.36-2.86a1.07 1.07 0 1 1 0-2.14 1.07 1.07 0 0 1 0 2.14"/></svg>