<svg xmlns="http://www.w3.org/2000/svg" viewBox="0 0 32 32"><path d="M13.8 17.6c0-2.1 1.7-3.8 3.8-3.8h2.6c.9-1.1 2.3-1.8 3.7-1.8s2.8.7 3.7 1.8h2.6c.7 0 1.3.2 1.8.5V9.6c0-1.8-1.4-3.2-3.2-3.2H16l-3.2-3.2H3.2A3.2 3.2 0 0 0 0 6.4v19.2c0 1.8 1.4 3.2 3.2 3.2h10.6V17.6Z" fill="#66f"/><path d="M30.2 15.8h-3.8c-.3-1-1.3-1.8-2.5-1.8s-2.2.8-2.5 1.8h-3.8c-1 0-1.8.8-1.8 1.8v12.6c0 1 .8 1.8 1.8 1.8h12.6c1 0 1.8-.8 1.8-1.8V17.6c0-1-.8-1.8-1.8-1.8Zm-6.3 0c.5 0 .9.4.9.9s-.4.9-.9.9-.9-.4-.9-.9.4-.9.9-.9Zm0 3.6a2.7 2.7 0 1 1 0 5.4 2.7 2.7 0 0 1 0-5.4Zm5.4 10.8H18.5v-1.3c0-1.8 3.6-2.7 5.4-2.7s5.4 1 5.4 2.7v1.3Z" fill="#66f"/></svg>