<svg xmlns="http://www.w3.org/2000/svg" viewBox="0 0 16 16"><path fill="#6060ff" d="M14 3H8L6.59 1.59A2 2 0 0 0 5.18 1H2.01A2 2 0 0 0 0 3v10c0 1.1.9 2 2 2h4.91c0-.08-.04-.16-.04-.25V9.13a2.25 2.25 0 0 1 2.25-2.25h.12a2.88 2.88 0 0 1 5.4 0h.12q.7.01 1.25.38V5a2 2 0 0 0-2-2Z"/><path fill="#6060ff" d="M14.75 7.88h-.94a1.88 1.88 0 0 0-3.76 0h-.94c-.69 0-1.25.56-1.25 1.25v5.62c0 .69.56 1.25 1.25 1.25h5.62c.69 0 1.25-.56 1.25-1.25V9.13c0-.69-.56-1.25-1.25-1.25Zm-2.81-.63c.34 0 .62.28.62.62s-.28.62-.62.62-.62-.28-.62-.62.28-.62.62-.62m0 1.88a1.4 1.4 0 1 1 0 2.82 1.4 1.4 0 0 1 0-2.82m2.11 5.62H9.83c-.8 0-.98-1.12-.22-1.37l2.11-.7q.22-.07.44 0l2.11.7c.76.25.58 1.37-.22 1.37"/></svg>