<svg xmlns="http://www.w3.org/2000/svg" viewBox="0 0 16 16"><path d="M11.03 15h.95v-1.19a.25.25 0 00-.25-.25h-.04v.13a1.62 1.62 0 01-.67 1.31zM14 3H8L6.59 1.59A1.98 1.98 0 005.18 1H2.01A2 2 0 000 3v10c0 1.1.9 2 2 2h7.11l-.19-.16-1.77-1.77a1.64 1.64 0 010-2.3L8.92 9c.35-.35.83-.5 1.3-.47-.04-.46.11-.94.47-1.3l1.77-1.77a1.64 1.64 0 012.3 0l1.25 1.25V4.99a2 2 0 00-2-2zm1.23 11.56c.46-.37.77-.93.77-1.56V9.88c-.24.1-.51.15-.77.13v4.55z" fill="#6060ff"/><path d="M15.82 7.95l-1.77-1.77a.63.63 0 00-.88 0L11.4 7.95a.63.63 0 000 .88c.24.24.64.24.88 0l.7-.7v3.53a2.52 2.52 0 00-1.25-.35H9.81l.7-.71a.63.63 0 000-.88.63.63 0 00-.88 0l-1.77 1.77a.63.63 0 000 .88l1.77 1.77c.24.24.64.24.88 0a.63.63 0 000-.88l-.7-.69h1.92c.69 0 1.25.56 1.25 1.25v1.56c0 .35.28.63.63.63s.63-.28.63-.63V8.14l.7.7c.24.24.64.24.88 0a.63.63 0 000-.88z" fill="#6060ff"/></svg>