<svg xmlns="http://www.w3.org/2000/svg" viewBox="0 0 32 32"><path fill="#f66" d="M15.2 30.8 13.6 29 6 20.7h6.2a11 11 0 0 1 19-4.9l.8-9.3c0-.7 0-1.5-.2-2.2-.6-2.3-2.2-3.7-5-4.1h-8.7L18 0l-7 2.7-6.6 6.1c-.2 0-2.8 5.1-4 7.5v.3l-.4 9c.2 6.1 4.5 6.3 6.5 6.3l9.3-.6a16 16 0 0 1-.6-.5ZM6.5 32Z"/><path fill="#66b4ff" d="M23 14a9 9 0 0 0-9 8.7h-3.3l4.5 4.7 4.7-4.7h-3.3c.1-3.4 3-6.1 6.4-6.1s6.4 2.8 6.4 6.4a6.4 6.4 0 0 1-11 4.6l-.2-.3-1.8 1.8.2.3A9 9 0 1 0 23 14Z"/><path fill="#66b4ff" d="M21.7 18.8v5.4l4.6 2.7 1-1.8-3.5-2v-4.3h-2.1z"/></svg>