<svg xmlns="http://www.w3.org/2000/svg" viewBox="0 0 16 16"><path fill="#40ff40" d="M6.25 7.25q0-.13.03-.25h-.84a2 2 0 0 0-1.9 1.37L2 13V7c0-1.1.9-2 2-2h11c.55 0 1-.45 1-1s-.45-1-1-1H8L6.59 1.59A2 2 0 0 0 5.18 1H2.01A2 2 0 0 0 0 3v10c0 1.1.9 2 2 2h4.29q-.03-.12-.04-.25z"/><path fill="#40ff40" d="M14 7h-1.55l3.45 2.07.09.07V9a2 2 0 0 0-2-2Zm-1.55 8H14a2 2 0 0 0 2-2v-.14l-.09.07L12.46 15Zm-5.2-7.75v7.5c0 .97 1.06 1.57 1.89 1.07l6.25-3.75c.81-.49.81-1.66 0-2.14L9.14 6.18c-.83-.5-1.89.1-1.89 1.07"/></svg>