<svg xmlns="http://www.w3.org/2000/svg" viewBox="0 0 16 16"><path fill="#40a0ff" d="M11.76 14.05A4.76 4.76 0 0 1 5 9.75c0-1.03.34-1.97.89-2.75h-.45a2 2 0 0 0-1.9 1.37L2 13V7c0-1.1.9-2 2-2h11c.55 0 1-.45 1-1s-.45-1-1-1H8L6.59 1.59A2 2 0 0 0 5.18 1H2.01A2 2 0 0 0 0 3v10c0 1.1.9 2 2 2h10.7z"/><path fill="#40a0ff" d="M14 7h-.39a4.7 4.7 0 0 1 .44 4.76l1.84 1.84q.1-.29.1-.6V9a2 2 0 0 0-2-2Z"/><path fill="#40a0ff" d="m15.82 14.93-3.01-3.01a3.75 3.75 0 1 0-.88.88l3.01 3.01c.24.24.64.24.88 0a.63.63 0 0 0 0-.88M7.25 9.75a2.5 2.5 0 1 1 5 0 2.5 2.5 0 0 1-5 0"/></svg>