<svg xmlns="http://www.w3.org/2000/svg" viewBox="0 0 16 16"><path fill="#a0a0a0" d="M10.77 14.08q.04-.15.11-.27l-.08-.19q-.35.24-.8.25H8.71c-.63 0-1.16-.41-1.35-.97a1.4 1.4 0 0 1-1.52-.69l-.65-1.12a1.4 1.4 0 0 1-.14-1.08q.09-.33.31-.58a2 2 0 0 1-.31-.58 1.4 1.4 0 0 1 .14-1.08l.45-.78h-.2a2 2 0 0 0-1.9 1.37L2 12.99v-6c0-1.1.9-2 2-2h11c.55 0 1-.45 1-1s-.45-1-1-1H8L6.59 1.58A2 2 0 0 0 5.18.99H2.01A2 2 0 0 0 0 3v10c0 1.1.9 2 2 2h8.88q-.23-.43-.11-.92"/><path fill="#a0a0a0" d="M14 7h-.93l.45.78q.29.51.14 1.08-.09.33-.31.58.21.24.31.58.07.3.02.61h.59c.46 0 .86.24 1.08.6q.35.01.64.2V9a2 2 0 0 0-2-2Zm1.86 7.18-.4-.23c-.13-.08-.13-.2 0-.27l.4-.23c.13-.08.18-.24.1-.37l-.41-.71c-.08-.13-.24-.18-.37-.1l-.4.23c-.13.08-.24.01-.24-.14v-.46a.27.27 0 0 0-.27-.27h-.82a.27.27 0 0 0-.27.27v.46c0 .15-.11.21-.24.14l-.4-.23a.27.27 0 0 0-.37.1l-.41.71c-.08.13-.03.3.1.37l.4.23c.13.08.13.2 0 .27l-.4.23c-.13.08-.18.24-.1.37l.41.71c.08.13.24.18.37.1l.4-.23c.13-.08.24-.01.24.14v.46c0 .15.12.27.27.27h.82c.15 0 .27-.12.27-.27v-.46c0-.15.11-.21.24-.14l.4.23c.13.08.3.03.37-.1l.41-.71a.27.27 0 0 0-.1-.37m-1.65.22a.67.67 0 0 1-.93-.25.67.67 0 0 1 .25-.93.67.67 0 0 1 .93.25c.19.33.08.75-.25.93m-1.71-4.39-.62-.36c-.2-.12-.2-.31 0-.43l.62-.36c.2-.12.28-.38.16-.59l-.64-1.12a.44.44 0 0 0-.59-.16l-.62.36c-.2.12-.37.02-.37-.21v-.72a.43.43 0 0 0-.43-.43H8.72a.43.43 0 0 0-.43.43v.72c0 .24-.17.33-.37.21l-.62-.36a.43.43 0 0 0-.59.16l-.64 1.12c-.12.2-.05.47.16.59l.62.36c.2.12.2.31 0 .43l-.62.36a.44.44 0 0 0-.16.59l.64 1.12c.12.2.38.28.59.16l.62-.36c.2-.12.37-.02.37.21v.72c0 .24.19.43.43.43h1.29c.24 0 .43-.19.43-.43v-.72c0-.24.17-.33.37-.21l.62.36c.2.12.47.05.59-.16l.64-1.12a.43.43 0 0 0-.16-.59m-2.61.36c-.51.3-1.17.12-1.47-.39s-.12-1.17.39-1.47 1.17-.12 1.47.39.12 1.17-.39 1.47"/></svg>