<svg xmlns="http://www.w3.org/2000/svg" viewBox="0 0 16 16"><path fill="#a0a0a0" d="m15.78 13.08-.63-.37c-.21-.12-.21-.32 0-.44l.63-.37a.44.44 0 0 0 .16-.6l-.66-1.14a.44.44 0 0 0-.6-.16l-.63.37c-.21.12-.38.02-.38-.22v-.73c0-.24-.2-.44-.44-.44h-1.31c-.24 0-.44.2-.44.44v.73c0 .24-.17.34-.38.22l-.63-.37a.44.44 0 0 0-.6.16l-.66 1.14a.44.44 0 0 0 .16.6l.63.37c.21.12.21.32 0 .44l-.63.37a.44.44 0 0 0-.16.6l.66 1.14c.12.21.39.28.6.16l.63-.37c.21-.12.38-.02.38.22v.73c0 .24.2.44.44.44h1.31c.24 0 .44-.2.44-.44v-.73c0-.24.17-.34.38-.22l.63.37c.21.12.48.05.6-.16l.66-1.14a.44.44 0 0 0-.16-.6m-2.65.37a1.1 1.1 0 0 1-1.49-.4 1.1 1.1 0 0 1 .4-1.49 1.1 1.1 0 0 1 1.49.4c.3.52.12 1.19-.4 1.49M10.4 6.42l-.99-.57c-.33-.19-.33-.5 0-.69l.99-.57a.7.7 0 0 0 .25-.94L9.62 1.86a.7.7 0 0 0-.94-.25l-.99.57c-.33.19-.6.03-.6-.34V.69A.7.7 0 0 0 6.4 0H4.34a.7.7 0 0 0-.69.69v1.15c0 .38-.27.53-.6.34l-.99-.57a.7.7 0 0 0-.94.25L.09 3.64a.7.7 0 0 0 .25.94l.99.57c.33.19.33.5 0 .69l-.99.57a.7.7 0 0 0-.25.94l1.03 1.79c.19.33.61.44.94.25l.99-.57c.33-.19.6-.03.6.34v1.15c0 .38.31.69.69.69H6.4a.7.7 0 0 0 .69-.69V9.16c0-.38.27-.53.6-.34l.99.57c.33.19.75.08.94-.25l1.03-1.79a.7.7 0 0 0-.25-.94Zm-4.17.57c-.82.47-1.87.19-2.35-.63a1.73 1.73 0 0 1 .63-2.35 1.73 1.73 0 0 1 2.35.63c.47.82.19 1.87-.63 2.35"/></svg>