<svg xmlns="http://www.w3.org/2000/svg" viewBox="0 0 16 16"><path fill="#a0a0a0" d="M14 3H8L6.59 1.59A2 2 0 0 0 5.18 1H2.01A2 2 0 0 0 0 3v10c0 1.1.9 2 2 2h3.04c0-.08-.04-.16-.04-.25v-1.88c0-.78.4-1.47 1.01-1.88A2.2 2.2 0 0 1 5 9.11V7.23a2.25 2.25 0 0 1 2.25-2.25h7.5q.7.01 1.25.38v-.38a2 2 0 0 0-2-2Z"/><path fill="#a0a0a0" d="M14.75 11.63h-7.5c-.69 0-1.25.56-1.25 1.25v1.88c0 .69.56 1.25 1.25 1.25h7.5c.69 0 1.25-.56 1.25-1.25v-1.88c0-.69-.56-1.25-1.25-1.25m-6.56 3.12a.94.94 0 1 1 0-1.88.94.94 0 0 1 0 1.88M14.75 6h-7.5C6.56 6 6 6.56 6 7.25v1.88c0 .69.56 1.25 1.25 1.25h7.5c.69 0 1.25-.56 1.25-1.25V7.25C16 6.56 15.44 6 14.75 6M8.19 9.13a.94.94 0 1 1 0-1.88.94.94 0 0 1 0 1.88"/></svg>