<svg xmlns="http://www.w3.org/2000/svg" viewBox="0 0 16 16"><path fill="#ff40a0" d="M15 3H8L6.59 1.59A2 2 0 0 0 5.18 1H2.01A2 2 0 0 0 0 3v10c0 1.1.9 2 2 2h3.04c0-.08-.04-.16-.04-.25v-7.5l.02-.18c-.68.15-1.25.62-1.47 1.3L2.01 13V7c0-1.1.9-2 2-2h11c.55 0 1-.45 1-1s-.45-1-1-1Z"/><rect width="1.25" height="1.25" x="11" y="9.75" fill="#ff40a0" rx=".31" ry=".31"/><rect width="1.25" height="1.25" x="8.5" y="9.75" fill="#ff40a0" rx=".31" ry=".31"/><rect width="1.25" height="1.25" x="8.5" y="9.75" fill="#ff40a0" rx=".31" ry=".31"/><rect width="1.25" height="1.25" x="8.5" y="12.25" fill="#ff40a0" rx=".31" ry=".31"/><rect width="1.25" height="1.25" x="9.75" y="11" fill="#ff40a0" rx=".31" ry=".31"/><rect width="1.25" height="1.25" x="11" y="12.25" fill="#ff40a0" rx=".31" ry=".31"/><rect width="1.25" height="1.25" x="12.25" y="11" fill="#ff40a0" rx=".31" ry=".31"/><path fill="#ff40a0" d="M14.75 6h-7.5C6.56 6 6 6.56 6 7.25v7.5c0 .69.56 1.25 1.25 1.25h7.5c.69 0 1.25-.56 1.25-1.25v-7.5C16 6.56 15.44 6 14.75 6m-1.25 8.75v-.94a.3.3 0 0 0-.31-.31h-.62a.3.3 0 0 0-.31.31v.94h-1.25v-.94a.3.3 0 0 0-.31-.31h-.62a.3.3 0 0 0-.31.31v.94H8.52v-.94a.3.3 0 0 0-.31-.31h-.94v-1.25h.94c.17 0 .31-.14.31-.31v-.62a.3.3 0 0 0-.31-.31h-.94V7.89c0-.35.28-.63.63-.63h6.25c.35 0 .63.28.63.63v1.87h-.94a.3.3 0 0 0-.31.31v.62c0 .17.14.31.31.31h.94v1.25h-.94a.3.3 0 0 0-.31.31v.62c0 .17.14.31.31.31h.94v.62c0 .35-.28.63-.63.63h-.62Z"/></svg>