<svg xmlns="http://www.w3.org/2000/svg" viewBox="0 0 16 16"><path fill="#ff40ff" d="M14 3H8L6.59 1.59A2 2 0 0 0 5.18 1H2.01A2 2 0 0 0 0 3v10c0 1.1.9 2 2 2h4.39l-2.42-2.9a1.7 1.7 0 0 1 0-2.2l3.57-4.28a1.7 1.7 0 0 1 1.9-.51 1.7 1.7 0 0 1 1.13 1.61v1.22q1.26.18 2.33.76a7.4 7.4 0 0 1 3.1 3.36V5.01a2 2 0 0 0-2-2Zm-3.43 11.3v.7h1.89l-.43-.23a7 7 0 0 0-1.46-.47"/><path fill="#ff40ff" d="M12.43 9.57a6 6 0 0 0-2.86-.71V6.72c0-.67-.84-.97-1.26-.46l-3.57 4.28a.7.7 0 0 0 0 .91l3.57 4.28a.71.71 0 0 0 1.26-.46v-2.14a9.2 9.2 0 0 1 5.82 2.74c.23.25.65.05.61-.29-.19-1.63-.97-4.62-3.57-6.03Z"/></svg>