<svg xmlns="http://www.w3.org/2000/svg" viewBox="0 0 16 16"><path fill="#ff40ff" d="M3.97 12.1a1.7 1.7 0 0 1 0-2.2L6.39 7h-.95a2 2 0 0 0-1.9 1.37L2 13V7c0-1.1.9-2 2-2h11c.55 0 1-.45 1-1s-.45-1-1-1H8L6.59 1.59A2 2 0 0 0 5.18 1H2.01A2 2 0 0 0 0 3v10c0 1.1.9 2 2 2h4.39zm8.06 2.67a7 7 0 0 0-1.46-.47v.7h1.89z"/><path fill="#ff40ff" d="M14 7h-3.43v.93q1.26.18 2.33.76a7.4 7.4 0 0 1 3.1 3.36V9a2 2 0 0 0-2-2"/><path fill="#ff40ff" d="M12.43 9.57a6 6 0 0 0-2.86-.71V6.72c0-.67-.84-.97-1.26-.46l-3.57 4.28a.7.7 0 0 0 0 .91l3.57 4.28a.71.71 0 0 0 1.26-.46v-2.14a9.2 9.2 0 0 1 5.82 2.74c.23.25.65.05.61-.29-.19-1.63-.97-4.62-3.57-6.03Z"/></svg>