<svg xmlns="http://www.w3.org/2000/svg" viewBox="0 0 16 16"><path fill="#40ff40" d="M3.57 13.86c0-.6.31-1.12.77-1.43a1.72 1.72 0 0 1 0-2.86 1.7 1.7 0 0 1-.75-1.29l-.04.09L2.01 13V7c0-1.1.9-2 2-2h11c.55 0 1-.45 1-1s-.45-1-1-1h-7L6.6 1.59A2 2 0 0 0 5.19 1H2.02C.9 1 0 1.9 0 3v10c0 1.1.9 2 2 2h2.01a1.7 1.7 0 0 1-.44-1.14"/><path fill="#40ff40" d="M15.29 11.71c.39 0 .71-.32.71-.71s-.32-.71-.71-.71h-.71V8.86h.71c.39 0 .71-.32.71-.71s-.32-.71-.71-.71h-.71v-.8c0-.34-.32-.62-.71-.62s-.71.28-.71.62v.8h-2.14v-.8c0-.34-.32-.62-.71-.62s-.71.28-.71.62v.8H7.46v-.8c0-.34-.32-.62-.71-.62s-.71.28-.71.62v.8h-.71c-.39 0-.71.32-.71.71s.32.71.71.71h.71v1.43h-.71c-.39 0-.71.32-.71.71s.32.71.71.71h.71v1.43h-.71c-.39 0-.71.32-.71.71s.32.71.71.71h.71v.8c0 .34.32.62.71.62s.71-.28.71-.62v-.8H9.6v.8c0 .34.32.62.71.62s.71-.28.71-.62v-.8h2.14v.8c0 .34.32.62.71.62s.71-.28.71-.62v-.8h.71c.39 0 .71-.32.71-.71s-.32-.71-.71-.71h-.71v-1.43zm-2.15-2.85v1.43H11V8.86zm-5.71 0h2.14v1.43H7.43zm0 4.28v-1.43h2.14v1.43zm5.71 0H11v-1.43h2.14z"/></svg>