<svg xmlns="http://www.w3.org/2000/svg" viewBox="0 0 16 16"><path fill="#ffff40" d="M15.16 14.62c.51-.36.84-.95.84-1.62v-1.35l-1.16 1.13zM14 3H8L6.59 1.59A2 2 0 0 0 5.18 1H2.01A2 2 0 0 0 0 3v10c0 1.1.9 2 2 2h4.33l.38-2.22-1.65-1.61a1.7 1.7 0 0 1-.42-1.71c.2-.61.71-1.04 1.34-1.13L8.26 8l1.02-2.07a1.65 1.65 0 0 1 2.98 0L13.28 8l2.28.33q.22.04.43.12V5a2 2 0 0 0-2-2Z"/><path fill="#ffff40" d="m10.93 14.69 2.35 1.24a.67.67 0 0 0 .97-.7l-.45-2.62a.3.3 0 0 1 .1-.29l1.9-1.85c.39-.38.18-1.06-.37-1.13l-2.63-.38a.3.3 0 0 1-.25-.18L11.37 6.4a.67.67 0 0 0-1.19 0L9 8.78a.3.3 0 0 1-.25.18l-2.63.38a.66.66 0 0 0-.37 1.13l1.9 1.85q.12.13.1.29l-.45 2.62c-.09.54.48.96.97.7l2.35-1.24q.16-.08.31 0"/></svg>