<svg xmlns="http://www.w3.org/2000/svg" viewBox="0 0 16 16"><path fill="#40ffa0" d="M14 3H8L6.59 1.59A2 2 0 0 0 5.18 1H2.01A2 2 0 0 0 0 3v10c0 1.1.9 2 2 2h3V9.12c0-.9.73-1.62 1.62-1.62h1.25q.49.01.88.26V6.63c0-.9.73-1.62 1.62-1.62h1.25c.9 0 1.62.73 1.62 1.62v3.63q.38-.25.88-.26h1.25q.33 0 .62.13V5a2 2 0 0 0-2-2Z"/><rect width="2.5" height="5" x="13.5" y="11" fill="#40ffa0" rx=".63" ry=".63"/><rect width="2.5" height="10" x="9.75" y="6" fill="#40ffa0" rx=".62" ry=".62"/><rect width="2.5" height="7.5" x="6" y="8.5" fill="#40ffa0" rx=".62" ry=".62"/></svg>