<svg xmlns="http://www.w3.org/2000/svg" viewBox="0 0 16 16"><path fill="#a0a0a0" d="M15 3H8L6.59 1.59A2 2 0 0 0 5.18 1H2.01A2 2 0 0 0 0 3v10c0 1.1.9 2 2 2h3.04c0-.08-.04-.16-.04-.25v-7.5l.02-.18c-.68.15-1.25.62-1.47 1.3L2.01 13V7c0-1.1.9-2 2-2h11c.55 0 1-.45 1-1s-.45-1-1-1Z"/><path fill="#a0a0a0" d="M12.98 6H7.25C6.56 6 6 6.56 6 7.25v7.5c0 .69.56 1.25 1.25 1.25h7.5c.69 0 1.25-.56 1.25-1.25V9.02c0-.33-.13-.65-.37-.88l-1.77-1.77a1.3 1.3 0 0 0-.88-.37M7.25 8.5v-.62c0-.34.28-.62.62-.62h3.75c.34 0 .62.28.62.62v.62c0 .34-.28.62-.62.62H7.87a.6.6 0 0 1-.62-.62m4.14 6.2a1.56 1.56 0 1 1-.77-3.03 1.56 1.56 0 0 1 .77 3.03"/></svg>