<svg xmlns="http://www.w3.org/2000/svg" viewBox="0 0 32 32"><path d="M16.2 31.2c3.5-12.5 3.4-12.6 6-21.5l.6.4c.3.1.6 0 .6-.4V5.4L24.7.7h2.8L32 5l-3 2.5 2.3 2.5-15 21.2c0 .1-.1 0 0 0Zm1.6-27c.2 0 .3 0 .3.2v2.2l-.3.1h-3.6l-.3-.1V4.4c0-.1.1-.2.3-.2h3.6Z" fill="#66f" fill-rule="evenodd"/><path d="m22.4 1.8-4 2.3v2.5l-.1.3 4 2.3c.4.2.6 0 .6-.3V2.1c0-.3-.2-.5-.5-.3Zm-8.8 4.8V4l-4-2.3c-.2-.2-.5 0-.5.3v6.8c0 .3.3.5.5.3L13.7 7l-.1-.3Z" fill="#66f" fill-rule="evenodd"/><path d="M15.6 31.2h.2c-3.5-12.5-3.4-12.6-6-21.5l-.6.4c-.3.1-.6 0-.6-.4V5.4L7.3.7H4.6L0 5l3 2.5L.7 10l15 21.2Z" fill="#66f" fill-rule="evenodd"/><circle cx="15.9" cy="10.2" r="1.1" fill="#66f"/><circle cx="15.9" cy="16.8" r="1.1" fill="#66f"/><circle cx="15.9" cy="23.3" r="1.1" fill="#66f"/></svg>