<svg xmlns="http://www.w3.org/2000/svg" viewBox="0 0 32 32"><path d="M10.2 26.6V24h2.9a9.2 9.2 0 0 0 6.2 2.1 63.8 63.8 0 0 1-7.2-8.3l-.2-2.8 2.6-.3.3-.4 1.5-1.4 1.4 1.4c2.6 2.7 5.2 4.7 7 6a9.8 9.8 0 0 0-2-5l-.2-2.9h2.8c3.3 2 5.6 5 6.7 8.2v-11c0-1.7-1.4-3.1-3.2-3.1H16l-3.2-3.2H3.2A3.2 3.2 0 0 0 0 6.4v19.2c0 1.8 1.4 3.2 3.2 3.2h8.6l-1.6-2.2Z" fill="#f66"/><path d="m30.3 26.7.1-.3c1.1-4.4-1.6-9.7-6.1-12.4 2 2.7 2.8 6 2 8.9l-.2.7-.4-.2s-4.5-2.8-9.5-7.8c-.1-.1 2.7 4 5.8 7.2-1.5-.8-5.6-3.8-8.2-6.2l1.1 1.6c2.2 2.7 5 6.1 8.4 8.7-2.4 1.5-5.7 1.6-9 0a14 14 0 0 1-2.4-1.3 14 14 0 0 0 6.2 5.3 10 10 0 0 0 8.7 0l.3-.1c1.2-.6 3.4-1.2 4.6 1.1.3.6 1-2.4-1.4-5.3Z" fill="#f66"/></svg>