<svg xmlns="http://www.w3.org/2000/svg" viewBox="0 0 16 16"><path fill="#ff40a0" d="M5.09 9.78 7.31 12h1.12l3.96-3.96L9.38.92A1.5 1.5 0 0 0 8 0a1.5 1.5 0 0 0-1.38.92L3.01 9.46a1.9 1.9 0 0 1 2.09.33ZM8 5.35 9.54 9H6.45zm5.92 6.29-2.29 2.29.49 1.15a1.5 1.5 0 0 0 1.97.8 1.5 1.5 0 0 0 .8-1.97zm-11.39.7a2 2 0 0 1-.44-.73l-.98 2.31c-.32.76.04 1.64.8 1.97.76.32 1.64-.04 1.97-.8l.41-.98z"/><path fill="#ff40a0" d="M15.76 7.3a.8.8 0 0 0-1.15 0l-6.45 6.45a.4.4 0 0 1-.57 0l-3.2-3.2a.8.8 0 0 0-1.15 0 .8.8 0 0 0 0 1.15l4.07 4.07a.8.8 0 0 0 1.15 0l7.31-7.31a.8.8 0 0 0 0-1.15Z"/></svg>