<svg xmlns="http://www.w3.org/2000/svg" viewBox="0 0 16 16"><path fill="#ff40a0" d="M15.91 13.57q.08-.27.09-.57v-.45l-.37.37zM14 3H8L6.59 1.59A2 2 0 0 0 5.18 1H2.01A2 2 0 0 0 0 3v10c0 1.1.9 2 2 2h3.64q0-.35.14-.69l.16-.37 3.28-7.75a1.93 1.93 0 0 1 3.57 0l1.58 3.73.06-.06A1.5 1.5 0 0 1 16 9.53V5.01a2 2 0 0 0-2-2Z"/><path fill="#ff40a0" d="m9.18 12.11 1.39 1.39h.7l2.47-2.47-1.88-4.45a.9.9 0 0 0-.86-.57 1 1 0 0 0-.86.57l-2.26 5.34c.42-.2.96-.14 1.3.2ZM11 9.34l.97 2.28h-1.93l.97-2.28Zm3.7 3.94-1.43 1.43.3.72c.2.47.75.7 1.23.5.47-.2.7-.75.5-1.23zm-7.12.43a1 1 0 0 1-.27-.46l-.61 1.44a.94.94 0 0 0 1.73.73l.26-.61z"/><path fill="#ff40a0" d="M15.85 10.56a.5.5 0 0 0-.72 0l-4.03 4.03c-.1.1-.26.1-.36 0l-2-2a.5.5 0 0 0-.72 0 .5.5 0 0 0 0 .72l2.54 2.54c.2.2.52.2.72 0l4.57-4.57a.5.5 0 0 0 0-.72"/></svg>