<svg xmlns="http://www.w3.org/2000/svg" viewBox="0 0 16 16"><path fill="#ff4040" d="M14 3H8L6.59 1.59A2 2 0 0 0 5.18 1H2.01A2 2 0 0 0 0 3v10c0 1.1.9 2 2 2h4.54A5.98 5.98 0 0 1 11 5a6 6 0 0 1 5 2.69V5a2 2 0 0 0-2-2"/><circle cx="11" cy="11" r=".62" fill="#ff4040"/><path fill="#ff4040" d="M11 13.81a2.81 2.81 0 1 1 0-5.62 2.81 2.81 0 0 1 0 5.62m0-4.37a1.56 1.56 0 1 0 0 3.12 1.56 1.56 0 0 0 0-3.12"/><path fill="#ff4040" d="M11 16a5 5 0 1 1 0-10 5 5 0 0 1 0 10m0-8.75a3.75 3.75 0 1 0 0 7.5 3.75 3.75 0 0 0 0-7.5"/></svg>