<svg xmlns="http://www.w3.org/2000/svg" viewBox="0 0 16 16"><path fill="#ff40a0" d="M1 13c0 1.1.9 2 2 2v-1.5a.5.5 0 0 0-.5-.5zM3 1a2 2 0 0 0-2 2h1.5a.5.5 0 0 0 .5-.5z"/><rect width="2" height="2" x="1" y="10" fill="#ff40a0" rx=".5" ry=".5"/><rect width="2" height="2" x="4" y="13" fill="#ff40a0" rx=".5" ry=".5"/><rect width="2" height="2" x="7" y="13" fill="#ff40a0" rx=".5" ry=".5"/><rect width="2" height="2" x="10" y="13" fill="#ff40a0" rx=".5" ry=".5"/><rect width="2" height="2" x="4" y="1" fill="#ff40a0" rx=".5" ry=".5"/><rect width="2" height="2" x="7" y="1" fill="#ff40a0" rx=".5" ry=".5"/><rect width="2" height="2" x="10" y="1" fill="#ff40a0" rx=".5" ry=".5"/><rect width="2" height="2" x="1" y="7" fill="#ff40a0" rx=".5" ry=".5"/><rect width="2" height="2" x="1" y="4" fill="#ff40a0" rx=".5" ry=".5"/><path fill="#ff40a0" d="M15 13a2 2 0 0 1-2 2v-1.5c0-.28.22-.5.5-.5zM13 1a2 2 0 0 1 2 2h-1.5a.5.5 0 0 1-.5-.5z"/><rect width="2" height="2" x="13" y="10" fill="#ff40a0" rx=".5" ry=".5"/><rect width="2" height="2" x="13" y="7" fill="#ff40a0" rx=".5" ry=".5"/><rect width="2" height="2" x="13" y="4" fill="#ff40a0" rx=".5" ry=".5"/><rect width="8" height="8" x="4" y="4" fill="#ff40a0" rx="1" ry="1"/></svg>