<svg xmlns="http://www.w3.org/2000/svg" viewBox="0 0 32 32"><path d="M12 24.2v-7.8c0-1.5.7-2.8 1.9-3.6H6.4L3.2 25.6v-16H32c0-1.8-1.4-3.2-3.2-3.2H16l-3.2-3.2H3.2A3.2 3.2 0 0 0 0 6.4v19.2c0 1.8 1.4 3.2 3.2 3.2H12v-4.6Z" fill="#f6f"/><path d="M16.4 14C15 14 14 15 14 16.4v3l5.4-5.4h-3ZM22.7 14 14 22.7v4L26.7 14h-4zM29.6 32c.7 0 1.3-.3 1.7-.7.4-.4.7-1 .7-1.7v-3L26.6 32h3ZM19.3 32h4l8.7-8.7v-4L19.3 32zM32 15.8c-.3-.9-1-1.5-1.8-1.7H30L14 30l.1.2c.1.4.3.8.6 1.1.3.3.7.5 1 .6h.3L32 16v-.2Z" fill="#f6f"/></svg>