<svg xmlns="http://www.w3.org/2000/svg" viewBox="0 0 16 16"><path fill="#ff40ff" d="m15.79 13.81.03.01.03-.08zM14 3H8L6.59 1.59A2 2 0 0 0 5.18 1H2.01A2 2 0 0 0 0 3v10c0 1.1.9 2 2 2h3.8a2 2 0 0 1-.32-.24 1.64 1.64 0 0 1 0-2.3l.8-.8a1.62 1.62 0 0 1-.8-2.73l.73-.73a1.62 1.62 0 0 1 .41-3.18c.75 0 1.38.52 1.56 1.21l.73-.73a1.62 1.62 0 0 1 2.73.8l.8-.8a1.62 1.62 0 0 1 2.76 1.31l.16-.02q.33 0 .62.12V5.02a2 2 0 0 0-2-2Z"/><circle cx="6.63" cy="6.63" r=".62" fill="#ff40ff"/><path fill="#ff40ff" d="M13.17 6.18a.63.63 0 0 1 .88 0c.24.24.24.64 0 .88l-6.98 6.98a.63.63 0 0 1-.88 0 .63.63 0 0 1 0-.88zm-3.54 0a.63.63 0 0 1 .88 0c.24.24.24.64 0 .88l-3.45 3.45a.63.63 0 0 1-.88 0 .63.63 0 0 1 0-.88z"/><circle cx="15.38" cy="15.37" r=".62" fill="#ff40ff"/><path fill="#ff40ff" d="M8.83 15.82a.63.63 0 0 1-.88 0 .63.63 0 0 1 0-.88l6.98-6.98a.63.63 0 0 1 .88 0c.24.24.24.64 0 .88zm3.54 0a.63.63 0 0 1-.88 0 .63.63 0 0 1 0-.88l3.45-3.45a.63.63 0 0 1 .88 0c.24.24.24.64 0 .88z"/></svg>