<svg xmlns="http://www.w3.org/2000/svg" viewBox="0 0 16 16"><path fill="#ffa040" d="M13.25 14.5q.02.24 0 .5h.76a2 2 0 0 0 1.98-1.78 4 4 0 0 1-2.73 1.27ZM14 3H8L6.59 1.59A2 2 0 0 0 5.18 1H2.01A2 2 0 0 0 0 3v10c0 1.1.9 2 2 2h4.55a5.96 5.96 0 0 1 .95-8.87 6.1 6.1 0 0 1 5.56-.79A5.8 5.8 0 0 1 16 7.64V5a2 2 0 0 0-2-2"/><path fill="#ffa040" d="M15.97 10.27v-.02a4.9 4.9 0 0 0-3.23-3.96 5 5 0 1 0-1.8 9.71c.64 0 1.23-.44 1.31-1.07.06-.47-.13-.89-.46-1.15a.15.15 0 0 1 .1-.27h1.19a2.87 2.87 0 0 0 2.88-3.23Zm-7.62 1.36a.78.78 0 1 1 0-1.56.78.78 0 0 1 0 1.56M9.6 9.44a.78.78 0 1 1 0-1.56.78.78 0 0 1 0 1.56m2.51 0a.78.78 0 1 1 0-1.56.78.78 0 0 1 0 1.56m1.56 2.19a.78.78 0 1 1 0-1.56.78.78 0 0 1 0 1.56"/></svg>