<svg xmlns="http://www.w3.org/2000/svg" viewBox="0 0 16 16"><path fill="#ff40ff" d="M14.13 3.45 8.88.42a2 2 0 0 0-1.75 0L1.88 3.45C1.4 3.73 1 4.41 1 4.97v6.06c0 .56.39 1.24.87 1.52l5.25 3.03c.48.28 1.27.28 1.75 0l5.25-3.03c.48-.28.87-.96.87-1.52V4.97c0-.56-.39-1.24-.87-1.52ZM8.5 2.52l2.75 1.59a.5.5 0 0 1 0 .86l-2.76 1.6a1 1 0 0 1-.98 0L4.75 4.98a.5.5 0 0 1 0-.87L7.5 2.52a1 1 0 0 1 1 0M3.75 6.7l2.76 1.6c.3.17.49.5.49.85v3.19c0 .38-.42.63-.75.43L3.5 11.18a1 1 0 0 1-.5-.87V7.13a.5.5 0 0 1 .75-.43M9 12.33V9.15a1 1 0 0 1 .5-.87l2.75-1.59a.5.5 0 0 1 .75.43v3.18a1 1 0 0 1-.5.87l-2.75 1.59a.5.5 0 0 1-.75-.43"/></svg>