<svg xmlns="http://www.w3.org/2000/svg" viewBox="0 0 16 16"><path d="M14 7h-1.36a4.06 4.06 0 01.52 2.97L16 12.81V8.99a2 2 0 00-2-2z" fill="#a0a0a0"/><path d="M9.98 13.16a4.13 4.13 0 01-4.97-4.03c0-.78.23-1.5.61-2.12h-.17a2 2 0 00-1.9 1.37l-1.54 4.63v-6c0-1.1.9-2 2-2h11c.55 0 1-.45 1-1s-.45-1-1-1h-7L6.6 1.6a1.98 1.98 0 00-1.41-.59H2.02A2 2 0 000 3v10c0 1.1.9 2 2 2h9.82l-1.84-1.84z" fill="#a0a0a0"/><path d="M15.82 14.05l-3.79-3.79a3.12 3.12 0 00-4.04-4.04L9.57 7.8c.24.24.24.64 0 .88l-.88.88a.63.63 0 01-.88 0L6.23 7.98a3.12 3.12 0 004.04 4.04l3.79 3.79c.24.24.64.24.88 0l.88-.88a.63.63 0 000-.88z" fill="#a0a0a0"/></svg>