<svg xmlns="http://www.w3.org/2000/svg" viewBox="0 0 16 16"><path fill="#a0a0a0" d="M14 3H8L6.59 1.59A2 2 0 0 0 5.18 1H2.01A2 2 0 0 0 0 3v10c0 1.1.9 2 2 2h4.91c0-.08-.04-.16-.04-.25V9.13q0-.28.09-.53a1.62 1.62 0 0 1 .9-2.97h.87l.91-.45q.34-.17.73-.17h2.5q.39 0 .73.17l.9.45h.87q.33 0 .62.13v-.75a2 2 0 0 0-2-2Z"/><path fill="#a0a0a0" d="M15.38 6.63h-1.03s-.1-.01-.14-.03l-1.05-.53a1 1 0 0 0-.28-.07h-2.5q-.15 0-.28.07l-1.05.53s-.09.03-.14.03H7.88c-.35 0-.62.28-.62.62s.28.62.62.62h7.5c.35 0 .62-.28.62-.62s-.28-.62-.62-.62m-.63 1.87H8.5a.6.6 0 0 0-.62.62v5.62c0 .69.56 1.25 1.25 1.25h5c.69 0 1.25-.56 1.25-1.25V9.12a.6.6 0 0 0-.62-.62Zm-3.75 5c0 .34-.28.62-.62.62s-.62-.28-.62-.62V11c0-.34.28-.62.62-.62s.62.28.62.62zm2.5 0c0 .34-.28.62-.62.62s-.62-.28-.62-.62V11c0-.34.28-.62.62-.62s.62.28.62.62z"/></svg>