<svg xmlns="http://www.w3.org/2000/svg" viewBox="0 0 32 32"><path d="M0 7.5v2h6v16.9h4.2v-17h6V7.6l-.1-2H0v2H0ZM27.3 24.8v1.5c2.1-.5 3.7-1.7 4.3-3.4.4-1.2.5-2.6.2-3.9l-4.5 5.8ZM23 12l-.1-.1c-.2-.4-.2-.6-.2-1 0-1.1.9-1.8 2.3-1.8 1 .1 1.5.5 2.1 1.3l.4.5a39 39 0 0 0 3.2-2.2c0-.2-.7-1-1.1-1.4a5.5 5.5 0 0 0-2.9-1.7 11 11 0 0 0-3.4-.1c-2.5.5-4.2 2-4.7 4.4V12H23Z" fill="#66b4ff"/><path d="m14.3 15.8 6.5 8.3V31c0 .6.5 1 1.1 1h2.3c.6 0 1.1-.4 1.1-1V24l6.5-8.3c.5-.7 0-1.8-1-1.8H15.3c-1 0-1.4 1-.9 1.8Z" fill="#66b4ff"/></svg>