<svg xmlns="http://www.w3.org/2000/svg" viewBox="0 0 32 32"><path d="M29.9 16c-.6-.5-1.5-1-2.7-1.6l.8.8v.8h1.9ZM19.2 12H23l-.1-.1c-.2-.4-.2-.6-.2-1 0-1.1.9-1.8 2.3-1.8 1 .1 1.5.5 2.1 1.3l.4.5a39 39 0 0 0 3.2-2.2c0-.2-.7-1-1.1-1.4a5.5 5.5 0 0 0-2.9-1.7 11 11 0 0 0-3.4-.1c-2.5.5-4.2 2-4.7 4.4a9 9 0 0 0 0 2.7l.5-.6ZM20 27v-1h-7v4c0 1.1.9 2 2 2h14a2 2 0 0 0 2-2v-4h-7v1h-4Zm10-9h-4v-2l-2-2h-4l-2 2v2h-4a2 2 0 0 0-2 2v3c0 1.1.9 2 2 2h6v-2h4v2h6a2 2 0 0 0 2-2v-3a2 2 0 0 0-2-2Zm-6 0h-4v-2h4v2Z" fill="#66b4ff"/><path d="M10 23v-3c0-.4 0-.8.2-1.1V9.4h6V7.6l-.1-2H0v2H0v1.8h6v17h4.2V24L10 23Z" fill="#66b4ff"/></svg>