<svg xmlns="http://www.w3.org/2000/svg" viewBox="0 0 16 16"><path fill="#40ff40" d="M7.88 13.75h1.14a1.6 1.6 0 0 1-.26-.88v-2.12h-.87a1.62 1.62 0 0 1-.91-2.97l1.16-.77H5.45a2 2 0 0 0-1.9 1.37l-1.54 4.63v-6c0-1.1.9-2 2-2h11c.55 0 1-.45 1-1s-.45-1-1-1h-7L6.6 1.6a2 2 0 0 0-1.41-.59H2.02A2 2 0 0 0 0 3v10c0 1.1.9 2 2 2h4.3c.17-.72.81-1.25 1.58-1.25m6.62-3v2.12q-.01.48-.26.88h1.14q.23 0 .45.07.17-.38.18-.82v-2.39q-.3.13-.63.14h-.87Zm.88 4h-7.5c-.34 0-.63.28-.63.63s.28.63.63.63h7.5c.34 0 .63-.28.63-.63s-.28-.63-.63-.63"/><path fill="#40ff40" d="M15.37 9.75H13.5v3.12c0 .34-.28.62-.62.62h-2.5a.6.6 0 0 1-.62-.62V9.75H7.89c-.62 0-.86-.8-.35-1.14l3.75-2.5a.6.6 0 0 1 .69 0l3.75 2.5c.51.34.27 1.14-.35 1.14Z"/></svg>