<svg xmlns="http://www.w3.org/2000/svg" viewBox="0 0 16 16"><path fill="#40ffa0" d="M15.96 2.5c-.08-.35-.17-.6-.17-.6q-.07-.17-.18-.09L14.42 3A1 1 0 0 1 13 3a1 1 0 0 1 0-1.42L14.19.39q.08-.1-.09-.18s-.25-.09-.6-.17a2.98 2.98 0 0 0-3.2 4.23L8 6.57 6.15 4.72a1 1 0 0 0 0-1.42l-.53-.53a.24.24 0 0 1 0-.35l1.06-1.06c.1-.1.1-.26 0-.35a1.75 1.75 0 0 0-2.47 0l-.18.18-2.12 2.12a1 1 0 0 0 0 1.41l.21.21H.5a.5.5 0 0 0-.35.85L2.27 7.9a.5.5 0 0 0 .85-.35V5.93l.21.21a1 1 0 0 0 1.4 0l1.85 1.85-6.29 6.3A1 1 0 1 0 1.7 15.7l10.02-10a2.98 2.98 0 0 0 4.23-3.2Z"/><path fill="#40ffa0" d="m15.71 14.29-5.23-5.23a.5.5 0 0 0-.71 0l-.71.71a.5.5 0 0 0 0 .71l5.23 5.23a1 1 0 1 0 1.41-1.41Z"/></svg>