<svg xmlns="http://www.w3.org/2000/svg" viewBox="0 0 32 32"><path d="m19.4 25-1-.1c-2.9-.2-4.1-1.5-4.6-2.6-.8-1.7-.3-3.9 1.3-5.9 1.1-1.4 2.8-2.8 4.8-3.6H6.4L3.2 25.6v-16H32c0-1.7-1.4-3.2-3.2-3.2H16l-3.2-3.2H3.2A3.2 3.2 0 0 0 0 6.4v19.2c0 1.8 1.4 3.2 3.2 3.2h16.3l-.1-3.9ZM28.7 28.8h.1c1.8 0 3.2-1.4 3.2-3.2v-5.7l-3.3 8.9Z" fill="#b466ff"/><path fill="#b466ff" d="M28.1 12.8h-1l.1 2.8.9-2.8z"/><path d="M29.8 14.2 25.4 27l-.2-13c-7-1.3-14 8.4-6.6 8.8-.9-2.6 0-5.6 2.6-6.6l.4 15.7h3.7L32 14.2h-2.2Z" fill="#b466ff"/></svg>