<svg xmlns="http://www.w3.org/2000/svg" viewBox="0 0 16 16"><path fill="#a040ff" d="m5.63 12.91-.26-.25a1.6 1.6 0 0 1-.34-1.35l.63-3.13q.08-.34.28-.61-.18-.26-.25-.57h-.24a2 2 0 0 0-1.9 1.37L2.01 13V7c0-1.1.9-2 2-2h11c.55 0 1-.45 1-1s-.45-1-1-1h-7L6.6 1.59A2 2 0 0 0 5.19 1H2.02C.9 1 0 1.9 0 3v10c0 1.1.9 2 2 2h3.62z"/><path fill="#a040ff" d="M15.38 6.63c0 .34-.28.62-.62.62h-7.5a.6.6 0 0 1-.62-.62c0-.34.28-.62.62-.62h7.5c.34 0 .62.28.62.62m.61 4.87-.62-3.12a.6.6 0 0 0-.61-.5h-7.5c-.3 0-.55.21-.61.5l-.62 3.12c-.08.39.22.75.61.75v3.12c0 .35.28.62.62.62h4.37c.35 0 .62-.28.62-.62v-3.12h1.87v3.12c0 .34.28.62.62.62s.62-.28.62-.62v-3.12c.39 0 .69-.36.61-.75ZM11 14.44c0 .17-.14.31-.31.31h-2.5a.3.3 0 0 1-.31-.31v-2.19H11z"/></svg>