<svg xmlns="http://www.w3.org/2000/svg" viewBox="0 0 16 16"><path fill="#40a0ff" d="M5.06 11.85a1.6 1.6 0 0 1 .55-1.46c-.37-.3-.61-.76-.61-1.27V7.07a2 2 0 0 0-1.46 1.3L2 13V7c0-1.1.9-2 2-2h11c.55 0 1-.45 1-1s-.45-1-1-1H8L6.59 1.59A2 2 0 0 0 5.18 1H2.01A2 2 0 0 0 0 3v10c0 1.1.9 2 2 2h4.57a6 6 0 0 1-1.51-3.15"/><path fill="#40a0ff" d="M15.9 9.98A5 5 0 0 0 7.25 7.7V6.62c0-.34-.28-.62-.62-.62s-.62.28-.62.62v2.5c0 .34.28.62.62.62h2.5c.35 0 .62-.28.62-.62s-.28-.62-.62-.62h-.9a3.73 3.73 0 0 1 6.5 2.05 3.75 3.75 0 0 1-7.43.98.6.6 0 0 0-.61-.53.62.62 0 0 0-.62.71 5.01 5.01 0 1 0 9.85-1.73Z"/><path fill="#40a0ff" d="M11.63 10.74V9.12a.6.6 0 0 0-.62-.62.6.6 0 0 0-.62.62v1.87q0 .26.18.44l1.33 1.33c.24.24.64.24.88 0a.63.63 0 0 0 0-.88l-1.14-1.14Z"/></svg>