<svg xmlns="http://www.w3.org/2000/svg" viewBox="0 0 16 16"><path fill="#40ffa0" d="M14 3H8L6.59 1.59A2 2 0 0 0 5.18 1H2.01A2 2 0 0 0 0 3v10c0 1.1.9 2 2 2h.09q-.08-.3-.09-.62V9.5a2.6 2.6 0 0 1 2.62-2.62h6.5c1.11 0 2.06.69 2.44 1.67l.34-.33a1.8 1.8 0 0 1 1.97-.38l.12.07v-2.9a2 2 0 0 0-2-2Z"/><path fill="#40ffa0" d="m14.61 8.93-1.86 1.79V9.5c0-.89-.73-1.62-1.62-1.62h-6.5c-.89 0-1.62.73-1.62 1.62v4.88c0 .89.73 1.62 1.62 1.62h6.5c.89 0 1.62-.73 1.62-1.62v-1.22l1.86 1.79a.81.81 0 0 0 1.39-.57V9.51a.81.81 0 0 0-1.39-.57Z"/></svg>