<svg xmlns="http://www.w3.org/2000/svg" viewBox="0 0 16 16"><path fill="#6060ff" d="M15 3H8L6.59 1.59A2 2 0 0 0 5.18 1H2.01A2 2 0 0 0 0 3v10c0 1.1.9 2 2 2h2.74a3.66 3.66 0 0 1 2.1-5.14q.17-.06.35-.07a3.7 3.7 0 0 1 .22-2.78H5.44a2 2 0 0 0-1.9 1.37L2 13.01v-6c0-1.1.9-2 2-2h11c.55 0 1-.45 1-1s-.45-1-1-1Zm-1 4h-.09c.37.72.52 1.56.34 2.41l-.12.36c.71.16 1.36.53 1.86 1.07V9a2 2 0 0 0-2-2Z"/><path fill="#6060ff" d="M13.33 12.67H10c-.36 0-.68.28-.67.63a1.33 1.33 0 1 1-2.66.04c0-.59.38-1.09.91-1.27.26-.09.42-.36.42-.64 0-.44-.43-.77-.84-.63a2.67 2.67 0 1 0 3.42 3.2h2.76a.67.67 0 0 0 0-1.34Z"/><path fill="#6060ff" d="m10.08 9.05 1.67 2.89c.18.31.58.45.88.26a1.33 1.33 0 1 1-.19 2.13.7.7 0 0 0-.76-.05c-.38.22-.45.75-.13 1.04a2.68 2.68 0 0 0 4.34-2.74 2.66 2.66 0 0 0-3.27-1.81l-1.38-2.39c-.18-.32-.59-.43-.91-.24s-.43.59-.24.91Z"/><path fill="#6060ff" d="m8.58 13.63 1.67-2.89c.18-.31.1-.72-.22-.89-.66-.36-.89-1.19-.52-1.84s1.18-.86 1.82-.49c.51.29.75.88.64 1.42-.06.27.1.54.34.68.38.22.88.02.97-.41a2.67 2.67 0 0 0-4.54-2.38 2.66 2.66 0 0 0 .07 3.74l-1.38 2.39c-.18.32-.07.73.24.91s.73.07.91-.24"/></svg>