<svg xmlns="http://www.w3.org/2000/svg" viewBox="0 0 16 16"><path fill="#6060ff" d="M15 3H8L6.59 1.59A2 2 0 0 0 5.18 1H2.01A2 2 0 0 0 0 3v10c0 1.1.9 2 2 2h3v-2.75c0-.51.24-.95.6-1.25-.36-.3-.6-.74-.6-1.25V7.07a2 2 0 0 0-1.46 1.3L2 13V7c0-1.1.9-2 2-2h11c.55 0 1-.45 1-1s-.45-1-1-1"/><rect width="4.38" height="4.38" x="6" y="11.63" fill="#6060ff" rx=".62" ry=".62"/><path fill="#6060ff" d="M15.38 11.63h-1.99l.22-.14 2.21-2.21a.63.63 0 0 0 0-.88l-2.21-2.21a.63.63 0 0 0-.88 0L10.52 8.4l-.14.22V6.63a.6.6 0 0 0-.62-.62H6.64a.6.6 0 0 0-.62.62v3.12c0 .34.28.62.62.62h3.12c.34 0 .62-.28.62-.62v-.69q.05.13.14.22l2.21 2.21q.1.1.22.14h-.69a.6.6 0 0 0-.62.62v3.12c0 .34.28.62.62.62h3.12c.34 0 .62-.28.62-.62v-3.12a.6.6 0 0 0-.62-.62"/></svg>