<svg xmlns="http://www.w3.org/2000/svg" viewBox="0 0 16 16"><path fill="#ffff40" d="m5.48 14.23 3.21-3.21a1.3 1.3 0 0 1-.26-.62c-.07-.46.09-.92.45-1.26l.51-.48c.08-.08.22-.34.23-.45l.09-.69q.04-.28.17-.51h-1.3q.19.36.12.77l-.02.11.05.1c.18.34.19.74.02 1.08-.17.33-.5.56-.88.61h-.11l-.07.09c-.22.24-.53.37-.84.37l-.17-.01c-.37-.06-.69-.3-.86-.65l-.05-.1-.1-.05a1.2 1.2 0 0 1-.65-.86c-.06-.37.07-.75.35-1.02l.08-.08v-.11L5.53 7h-.09a2 2 0 0 0-1.9 1.37L2 13V7c0-1.1.9-2 2-2h11c.55 0 1-.45 1-1s-.45-1-1-1H8L6.59 1.59A2 2 0 0 0 5.18 1H2.01A2 2 0 0 0 0 3v10c0 1.1.9 2 2 2h3.05q.1-.43.42-.77Zm9.75-4.65.33.61c.24.44.25.93.04 1.35s-.62.69-1.11.75l-.69.09a1 1 0 0 0-.45.23l-.48.51-.15.12.06.02.1.05.11-.02c.38-.07.76.04 1.03.31s.38.65.31 1.03l-.02.11.05.1.04.11a2 2 0 0 0 1.6-1.96v-4q0-.3-.09-.58h-.02l-.07.08q-.27.26-.62.32l-.05.25c-.02.11.03.4.08.5M9.3 15h1.34q.05-.4.35-.68l.08-.08v-.11q.07-.36.3-.62a1 1 0 0 1-.39-.2z"/><path fill="#ffff40" d="M14.35 10.06c-.16-.3-.25-.83-.18-1.16l.13-.69c.06-.34-.16-.56-.5-.5l-.69.13a2 2 0 0 1-1.16-.18l-.61-.33c-.3-.16-.59-.02-.63.32l-.09.69a2 2 0 0 1-.53 1.05l-.51.48c-.25.24-.2.55.11.7l.6.28-4.09 4.09c-.24.24-.24.64 0 .88s.64.24.88 0l4.09-4.09.28.6c.15.31.46.36.7.11l.48-.51c.24-.25.71-.49 1.05-.53l.69-.09c.34-.04.49-.33.32-.63l-.33-.61Zm1.63-2.86-.12-.22c-.06-.11-.09-.29-.06-.41l.05-.24q.01-.2-.18-.18l-.24.05c-.12.02-.3 0-.41-.06l-.22-.12c-.11-.06-.21 0-.22.11l-.03.24a1 1 0 0 1-.19.37l-.18.17c-.09.08-.07.19.04.24l.22.11c.11.05.24.18.29.29l.11.22c.05.11.16.13.24.04l.17-.18a1 1 0 0 1 .37-.19l.24-.03q.19-.04.11-.22ZM6.09 8.41l.22.11c.11.05.24.18.29.29l.11.22c.05.11.16.13.24.04l.17-.18a1 1 0 0 1 .37-.19l.24-.03q.19-.04.11-.22l-.12-.22c-.06-.11-.09-.29-.06-.41l.05-.24q.01-.2-.18-.18l-.24.05c-.12.02-.3 0-.41-.06l-.22-.12c-.11-.06-.21 0-.22.11l-.03.24a1 1 0 0 1-.19.37l-.18.17c-.09.08-.07.19.04.24Zm7.27 6.7c-.06-.11-.09-.29-.06-.41l.05-.24q.01-.2-.18-.18l-.24.05c-.12.02-.3 0-.41-.06l-.22-.12c-.11-.06-.21 0-.22.11l-.03.24a1 1 0 0 1-.19.37l-.18.17c-.09.08-.07.19.04.24l.22.11c.11.05.24.18.29.29l.11.22c.05.11.16.13.24.04l.17-.18a1 1 0 0 1 .37-.19l.24-.03q.19-.04.11-.22l-.12-.22Z"/></svg>