<svg xmlns="http://www.w3.org/2000/svg" viewBox="0 0 16 16"><path fill="#ffff40" d="M13.36 6.49a3 3 0 0 1-.29-1.86l.21-1.1c.1-.54-.26-.9-.8-.8l-1.1.21a3.3 3.3 0 0 1-1.86-.29l-.98-.54c-.48-.26-.94-.03-1.01.51l-.14 1.11c-.07.55-.46 1.3-.86 1.68l-.81.77c-.4.38-.32.88.18 1.12l.96.45-6.57 6.54A1 1 0 1 0 1.7 15.7l6.54-6.54.45.96c.24.5.74.58 1.12.18l.77-.81c.38-.4 1.13-.78 1.68-.86l1.11-.14c.55-.07.78-.52.51-1.01l-.54-.98Zm2.6-4.57-.19-.34a1 1 0 0 1-.1-.65l.07-.39c.04-.19-.09-.32-.28-.28l-.39.07c-.19.04-.48-.01-.65-.1l-.34-.19c-.17-.09-.33-.01-.35.18l-.05.39c-.02.19-.16.46-.3.59l-.29.27c-.14.13-.11.31.06.39l.35.17c.17.08.38.29.47.47l.17.35c.08.17.26.2.39.06l.27-.29c.13-.14.4-.28.59-.3l.39-.05c.19-.02.27-.18.18-.35M.15 3.86l.35.17c.17.08.38.29.47.47l.17.35c.08.17.26.2.39.06l.27-.29c.13-.14.4-.28.59-.3l.39-.05c.19-.02.27-.18.18-.35l-.19-.34a1 1 0 0 1-.1-.65l.07-.39c.04-.19-.09-.32-.28-.28l-.39.07c-.19.04-.48-.01-.65-.1l-.34-.19c-.17-.09-.33-.01-.35.18l-.05.39c-.02.19-.16.46-.3.59l-.29.27c-.14.13-.11.31.06.39m11.62 10.72a1 1 0 0 1-.1-.65l.07-.39c.04-.19-.09-.32-.28-.28l-.39.07c-.19.04-.48-.01-.65-.1l-.34-.19c-.17-.09-.33-.01-.35.18l-.05.39c-.02.19-.16.46-.3.59l-.29.27c-.14.13-.11.31.06.39l.35.17c.17.08.38.29.47.47l.17.35c.08.17.26.2.39.06l.27-.29c.13-.14.4-.28.59-.3l.39-.05c.19-.02.27-.18.18-.35z"/></svg>