<svg xmlns="http://www.w3.org/2000/svg" viewBox="0 0 16 16"><path d="M14 7h-.28a3.3 3.3 0 01-.44 3.37c.13-.01.25-.04.38-.04.91 0 1.73.37 2.33.96V9a2 2 0 00-2-2zm-9.67 6.67c0-1.84 1.5-3.33 3.33-3.33.13 0 .26.02.38.04a3.33 3.33 0 01-.44-3.37H5.43a2 2 0 00-1.9 1.37l-1.54 4.63v-6c0-1.1.9-2 2-2h11c.55 0 1-.45 1-1s-.45-1-1-1h-7L6.58 1.6a1.98 1.98 0 00-1.41-.59H2A2 2 0 000 3v10c0 1.1.9 2 2 2h2.62a3.3 3.3 0 01-.29-1.33z" fill="#a040ff"/><circle cx="13.67" cy="13.67" r="2.33" fill="#a040ff"/><circle cx="7.67" cy="13.67" r="2.33" fill="#a040ff"/><circle cx="10.67" cy="8.33" r="2.33" fill="#a040ff"/></svg>