<svg xmlns="http://www.w3.org/2000/svg" viewBox="0 0 16 16"><path d="M14 3H8L6.59 1.59A1.98 1.98 0 005.18 1H2.01A2 2 0 000 3v10c0 1.1.9 2 2 2h2.62a3.3 3.3 0 013.04-4.66c.13 0 .26.02.38.04a3.33 3.33 0 01-.72-2.04 3.34 3.34 0 016.66 0c0 .77-.27 1.47-.72 2.04.13-.01.25-.04.38-.04.91 0 1.73.37 2.33.96V5.01a2 2 0 00-2-2z" fill="#a040ff"/><circle cx="13.67" cy="13.67" r="2.33" fill="#a040ff"/><circle cx="7.67" cy="13.67" r="2.33" fill="#a040ff"/><circle cx="10.67" cy="8.33" r="2.33" fill="#a040ff"/></svg>