<svg xmlns="http://www.w3.org/2000/svg" viewBox="0 0 16 16"><path fill="#a040ff" d="M15 3H8L6.59 1.59A2 2 0 0 0 5.18 1H2.01A2 2 0 0 0 0 3v10c0 1.1.9 2 2 2h2.33a2 2 0 0 1-.04-.43v-1.43q0-.36.14-.67A1.7 1.7 0 0 1 3.58 11V9.57a2.43 2.43 0 0 1 2.43-2.43h1.24L7.32 7H5.45a2 2 0 0 0-1.9 1.37L2.01 13V7c0-1.1.9-2 2-2h11c.55 0 1-.45 1-1s-.45-1-1-1Z"/><path fill="#a040ff" d="m13.26 7 .07.14h1.24l.21.02Q14.41 7 14 7zm-2.8 1.14h-.35zm4.11 4.29h-3.21c0 .39-.32.71-.71.71h-.71a.7.7 0 0 1-.71-.71H6.02a.7.7 0 0 0-.71.71v1.43c0 .79.64 1.43 1.43 1.43h7.14c.79 0 1.43-.64 1.43-1.43v-1.43a.7.7 0 0 0-.71-.71Zm0-4.29h-2.14v-.42a.8.8 0 0 0-.21-.51L11.21 6.2a.7.7 0 0 0-.51-.21h-.84a.8.8 0 0 0-.51.21L8.34 7.21a.7.7 0 0 0-.21.51v.42H5.99c-.79 0-1.43.64-1.43 1.43V11c0 .39.32.71.71.71H9.2c0-.39.32-.71.71-.71h.71c.39 0 .71.32.71.71h3.93c.39 0 .71-.32.71-.71V9.57c0-.79-.64-1.43-1.43-1.43Zm-4.64-.71h.71c.2 0 .36.16.36.36v.36H9.57v-.36c0-.2.16-.36.36-.36"/></svg>