<svg xmlns="http://www.w3.org/2000/svg" viewBox="0 0 16 16"><path d="M14 3H8L6.59 1.59A1.98 1.98 0 005.18 1H2.01A2 2 0 000 3v10c0 1.1.9 2 2 2h.84c.06-.59.4-1.11.9-1.39l-1.2-1.2a1.8 1.8 0 010-2.56l2.44-2.44a1.8 1.8 0 012.56 0c.51.51.65 1.26.42 1.91h5.21c1.13 0 2.14.5 2.84 1.28V5.01a2 2 0 00-2-2z" fill="#40ffff"/><path d="M13.16 10.31H5.78l1.05-1.05c.32-.32.32-.83 0-1.15s-.83-.32-1.15 0l-2.44 2.44a.8.8 0 000 1.15l2.44 2.44a.8.8 0 001.14 0 .8.8 0 000-1.15l-1.05-1.05h7.38c.67 0 1.22.55 1.22 1.22s-.55 1.22-1.22 1.22H4.62c-.45 0-.81.36-.81.81s.36.81.81.81h8.53a2.84 2.84 0 000-5.68z" fill="#40ffff"/></svg>