<svg xmlns="http://www.w3.org/2000/svg" viewBox="0 0 32 32"><path d="M26.4 13.2c-1.6.8-3 .1-3.8-.6 0 .8-.6 1.7-1.9 2.1 1.4-.3 2.7-.2 4.4 1.2 0-.7.5-2.1 1.3-2.7Z" fill="#66f"/><g fill="#66f"><path d="M22.2 12.3c-1.4-1.8-1.6.1-3.1-.2-.5 1.3 2.1 2 1.5 2.5.6.2 2.3-1.6 1.6-2.3Z"/><path d="M21 11.1c1.4 1 3.5 3.2 5.3 1.9-.9-1.8-5.5-5-7.2-1.6.1-.4 1.4-.7 2-.3Z"/><path d="M20.5 11.2c-.4-.2-1 0-1.3.6.5.5 1 0 1.3-.6Z"/><path d="m19.5 11.7.3-.1c-.1-.2-.4-.1-.3 0ZM29.8 13.3c-2.6-6.6-5.2-3-6.7-13.3-1.8 4.3 1.6 10 4.5 13 2 1.4 2 3.5 1.9 6.4.4-2 .8-4.3.3-6.1Z"/><path d="M26.3 11.7c-2.3-2.5-3.9-5-4.7-8.3-.5.3.2 4.8 1.2 5.6 1.2 1.7 3 2.5 3.8 4h.7l-1-1.3Z"/><path d="M23.4 10s-1.6-1.8-1.7-2.3l-.4-.8c-.3.5 0 1.7.5 2.5.2.5 1.6.5 1.6.6ZM27.8 22.4c-1.3-.2-5.2-1.3-6.6-2.7-.6.5-1.1.3-1.2.3.5 2.6 5.6 2.8 5.2 4.5 0 0 1.8-.9 2.6-2ZM29.4 19.5s-.8 2.3-1.5 2.9c.4.1.5.5.7 1 .4-1 .9-3.8.9-3.9Z"/><path d="M27.9 22.6c-1 4.6-8.1 7.2-12.3 5.9 3.1 5.4 13.2-.7 12.3-5.9Z"/><path d="M27.5 23c-.9 2-8.1 4.7-9.9 4.2 2.5 3.2 9-1 10-4.2Z"/><path d="M28.5 24c0-.6-.1-1-.4-1.2.4 4.9-5.9 8.6-10.3 8.3 4.7 3.1 11.2-2.2 10.7-7.1ZM21 19.6c-1.5-1-2.1-3.5-.6-4.7-2-3.5-6.7-1.1-9.6-.7C6.7 14 3.6 11 2.6 6.6c-1-3.9-1.3 4.7 1.8 7.3l-.1-.1.4.4-.2-.2.4.5-.2-.2c.7.7 1.5 1.4 2.4 2l-.5-.4.7.5.4.2-.4-.2c2.9 2 6.2 1 9.3 1.1h-.2c1.7 0 3 3 4.6 2.1Z"/><path d="M19.4 19.6c-2.5-2.8-5-1.5-7.8-1.1-2.8 0-6.3-1.5-8.2-4.2-.6 2.5 3.4 5.4 5.9 6.2 3.4 1.5 7.4.4 10-1Z"/><path d="M19.6 19.9c-3 1.8-8.6 2.9-12.3.7C9 24.5 19 25 19.6 20Z"/><path d="m20.4 21-.5-.8c.2 1.4-2 2.8-3.4 3.6 1.2.3 4.4-.9 3.9-2.8ZM16.3 11.5c1 0 2 .3 2.7.6-.6-.7-.1-.3 0-.7-2.7-.8-5.7-.5-8.4.6a18 18 0 0 1 5.7-.5Z"/></g><path d="M25 16c-6.8-4.6-8 4.7 2.5 6.1-.7 0-8.1-7.4-2.5-6ZM25.2 16c2.1-7.7 6.3 2.5 2.8 6 .1 0-.2-11.2-2.8-6Z" fill="#e2e2e4"/><path d="M25.3 16.4c-2.4-.9-3.2 1 2.6 5.9-.1-2.7-.6-10-2.6-6Z" fill="#e2e2e4"/></svg>