<svg xmlns="http://www.w3.org/2000/svg" viewBox="0 0 32 32"><path d="M6.9 9.1a1 1 0 1 0 0 2.1 1 1 0 0 0 0-2ZM9.4 9.1a1 1 0 1 0 0 2.1 1 1 0 0 0 0-2ZM15.2 13.5a.8.8 0 0 0 .8.8l.6-.2L26.7 3.9c.2-.1.2-.3.2-.6s0-.4-.2-.5a.8.8 0 0 0-1.2 0l-10 10c-.2.2-.3.4-.3.7ZM30.6 5.3l-5 5-.3.6c0 .2 0 .5.2.6l.6.3.6-.3 5-5 .3-.6c0-.2 0-.5-.2-.6a.8.8 0 0 0-1.2 0ZM25.3 8.4a.8.8 0 0 0 .8.8c.2 0 .4 0 .6-.2l5-5 .3-.6c0-.2 0-.5-.2-.6a.8.8 0 0 0-1.2 0l-5 5-.3.6ZM7.6 8.4a.8.8 0 0 0 .8.8c.2 0 .4 0 .6-.2l5-5 .3-.6-.2-.6a.8.8 0 0 0-1.2 0l-5 5-.3.6ZM10.4 9c.1.2.3.2.5.2l.6-.2 5-5c.4-.4.4-1 0-1.2s-.8-.3-1 0l-5.1 5c-.4.4-.4.9 0 1.2Z" fill="#e2e2e4"/><path d="m30.6 7.8-5 5c-.2.2-.3.4-.3.7v5a9.3 9.3 0 0 1-18.6 0v-5c0-.5-.4-.8-.8-.8H2.8l8.7-8.8a.8.8 0 0 0-1.1-1.1L.2 12.8c-.2.3-.3.7-.1 1 0 .3.4.5.7.5h4.3v4.2a10.9 10.9 0 0 0 6.7 10.1 10.9 10.9 0 0 0 12-2.3 11 11 0 0 0 3.1-7.8v-4.7L31.8 9l.2-.6c0-.2 0-.4-.2-.6a.8.8 0 0 0-1.2 0Z" fill="#e2e2e4"/></svg>