<svg xmlns="http://www.w3.org/2000/svg" viewBox="0 0 32 32"><path d="m15.3 16.3-.5 1.1-1.6 4.4a6.8 6.8 0 0 0-.1 2.1 8.5 8.5 0 0 0 5.6.1l-.6-.6a21.2 21.2 0 0 1-2.8-7.1M11.1 9a8.5 8.5 0 0 0 0 13.9c.5-2.2 1.8-4.2 3.7-8.2l-.4-1c-.5-1.3-1.3-3-2-3.6L11 9" fill="#b4ff66"/><path d="M23.4 25.7c-1.1-.1-2-.3-2.9-.6A10.2 10.2 0 0 1 9.3 8.4C8.7 8.2 8.2 8 7.5 8c-3 0-6 1.7-7.4 6.2L0 16a16 16 0 0 0 29 9.2 18.4 18.4 0 0 1-5.6.5" fill="#6f6"/><path d="m20.4 22.6.6.2A8.5 8.5 0 0 0 13.3 8a19 19 0 0 1 3.4 7.9 33.2 33.2 0 0 0 2.4 5.5c.4.7 1 1.2 1.2 1.3" fill="#66b4ff"/><path d="M16 0A16 16 0 0 0 3 6.7a8.4 8.4 0 0 1 9 0c1.2-.6 2.5-.9 4-.9 5.6 0 10.2 4.6 10.2 10.2 0 2.8-1.2 5.4-3 7.2l1.4.1c1.8 0 3.7-.4 5.1-1.6 1-.8 1.7-2 2.2-3.7l.1-2A16 16 0 0 0 16 0" fill="#66b4ff"/></svg>