<svg xmlns="http://www.w3.org/2000/svg" viewBox="0 0 32 32"><path d="M27.9 17.6 28 16l-.1-1.6 3.4-2.6c.3-.2.3-.7.2-1l-3.2-5.5c-.2-.4-.7-.5-1-.4l-4 1.6a12 12 0 0 0-2.7-1.6L20 .7c0-.4-.4-.7-.8-.7h-6.4c-.4 0-.7.3-.8.7l-.6 4.2c-1 .4-1.9 1-2.7 1.6l-4-1.6a.8.8 0 0 0-1 .4L.7 10.8c-.2.3-.2.8.2 1L4 14.4a10.2 10.2 0 0 0 0 3.2L.7 20.2c-.3.2-.3.7-.2 1l3.2 5.5c.2.4.7.5 1 .4l4-1.6a12 12 0 0 0 2.7 1.6l.6 4.2c0 .4.4.7.8.7h6.4c.4 0 .7-.3.8-.7l.6-4.2c1-.4 1.9-1 2.7-1.6l4 1.6c.3.1.7 0 1-.4l3.1-5.5c.2-.4.2-.8-.2-1L28 17.6ZM16 22c-3.3 0-6-2.7-6-6s2.7-6 6-6 6 2.7 6 6-2.7 6-6 6Z" fill="#9c9c9e"/></svg>