<svg xmlns="http://www.w3.org/2000/svg" viewBox="0 0 32 32"><defs><linearGradient id="a" x1="-685.4" y1="-352.4" x2="-662.8" y2="-374.9" gradientTransform="matrix(1 0 0 -1 689 -346.9)" gradientUnits="userSpaceOnUse"><stop offset="0" stop-color="#66f"/><stop offset="1" stop-color="#fff"/></linearGradient><linearGradient id="b" x1="-661.8" y1="-373.9" x2="-684.4" y2="-351.3" gradientTransform="matrix(1 0 0 -1 689 -346.9)" gradientUnits="userSpaceOnUse"><stop offset="0" stop-color="#66f"/><stop offset="1" stop-color="#fff"/></linearGradient></defs><path d="M16 23.8c7 9.7 14-2.7 14-10.1C30 4.9 21 0 16 0 7.8 0 0 6.8 0 16c0 10.3 9 16 16 16-1.6-.2-7-1.4-7-13.6 0-8.3 2.7-11.6 7-10.1 0 0 4.7 1.8 4.7 7.8S16 23.8 16 23.8Z" fill="url(#a)" fill-rule="evenodd"/><path d="M16 8.3c-4.7-1.6-10.4 2.2-10.4 10C5.6 30.9 14.9 32 16 32c8.2 0 16-6.8 16-16C32 5.7 23 0 16 0c2-.3 10.5 2.1 10.5 13.8 0 7.7-6.4 11.8-10.5 10-.1 0-4.7-1.8-4.7-7.8S16 8.4 16 8.4Z" fill="url(#b)" fill-rule="evenodd"/></svg>