<svg xmlns="http://www.w3.org/2000/svg" viewBox="0 0 32 32"><path d="M4.7 32C2.8 32 0 28.7 0 27.3V4.7C0 2.7 3.3 0 4.7 0h22.7c2 0 4.6 3.2 4.6 4.7v22.6c0 2.3-3 4.7-4.7 4.7H4.7Z" fill="#b466ff"/><path d="M4.3 25.8h1.3c2.5-.2 2.4-.2 2.6-2.2 0-1.8 0-16.4-.2-16.7-.1-.4-.6-.7-2.1-.7H4.3V3.4h23.4V14h-2.8l-.1-1.5c-.3-3.2-1-5-2.4-5.8-.8-.3-1.9-.4-5.5-.4h-3.4V14h.6c1 0 2.3-.3 2.7-.5.5-.4 1-1.4 1.2-2.5l.2-1.5h2.7v12.4H18v-.5c0-.8-.4-2.7-.6-3.3-.5-.8-1.1-1.1-3.1-1.3l-1-.1.1 4c0 3.9 0 4 .3 4.4.3.4.6.5 2.6.6h1.4v2.8H4.3v-2.7Z" fill="#fff"/></svg>