<svg xmlns="http://www.w3.org/2000/svg" viewBox="0 0 32 32"><path d="M32 14c-.4-2-1.4-3.5-3-4.7a7.9 7.9 0 0 0-6.1-1 9 9 0 0 0-6 3.5c-.6.8-1.1 1.8-1.4 2.7H8.6c-.3 0-.4.2-.5.4l-1 2.3c-.2.3-.1.6.3.6h4.1l-.5.8A4 4 0 0 1 7.3 20a3.3 3.3 0 0 1-2.8-3.3c0-1.7.7-3.1 2.2-4 1.2-.8 2.5-1 3.8-.4l1 .8c.3.4.3.3.6.2l3.6-.9c.2 0 .3-.2.2-.3a6.7 6.7 0 0 0-2.5-3 7.3 7.3 0 0 0-5.6-1 9.5 9.5 0 0 0-6 3.6 8.3 8.3 0 0 0-1.7 6.2c.2 2 1 3.5 2.6 4.7A7.5 7.5 0 0 0 8.6 24a8.8 8.8 0 0 0 6.9-5c.3 1.2 1 2.4 2.1 3.3a8 8 0 0 0 5.2 1.8c.5 0 1.1 0 1.7-.2 2-.3 3.7-1.2 5-2.7 2-2 2.9-4.3 2.5-7.2Zm-7 5.6c-1 .6-2.2.7-3.4.1a3.5 3.5 0 0 1-2-4c.5-2 1.8-3.2 3.7-3.7 2-.4 4 .8 4.4 2.9v.7c0 1.8-1 3.1-2.7 4Z" fill="#6ff"/></svg>