<svg xmlns="http://www.w3.org/2000/svg" viewBox="0 0 32 32"><path d="M32 11.1c0-1.6-1-3.1-2.3-4-.7-.8-2-1.3-2.3-.9l-.7.7c-.2.2-.2.4-.2.5 0 0 0 .2.2.3l.4.3c1.7.7 3.4 4.9.2 5.1-.8.2-3.8-2-5.4-3.7-3.6-3.4-8.2-3.2-11.2-2.6C4 8.4 5 9.2 7.9 14c1.4 2.7 5-.4 5.7-1.2-2.1 3-4.5 4.2-6.4 1.7l-1.5-3C-1.8 14 .2 25.9.2 25.9H4c.9-4.2 4.2-4.2 4.8 0h2.9c2-7.2 6.4-2.1 7.8 0h3.1c0-4.5-.5-6.2 1.9-6.5A8.1 8.1 0 0 0 32 11ZM19.9 15c-2-.6-1.3-2.6-1.3-2.6l1.3.4c-.7.6-.4 2 .7 1.8.8 0 1-.7 1-1.2l1 .3c-.1.6-1.3 1.8-2.8 1.3Z" fill="#66ffb4"/></svg>