<svg xmlns="http://www.w3.org/2000/svg" viewBox="0 0 32 32"><path d="M12.7 27c2-.7 6.3-1 8.5-.7-.3-6.7-.4-10.7 0-15.8V9.3L12.7 27Z" fill="#66f"/><path d="M21.3 4.2c-1.8 4.6-2.3 12-3 19.7-2.4-.2-6.4.3-9.4 1.5L21.3 4.2Z" fill="#66b4ff"/><path d="M16.6 18c-3.2-1-6.7 1-9.8 2.9C8.9 17.6 15.4 7.6 21 0a34 34 0 0 0-4.5 18ZM8.8 32c.5-.8 1.5-1.5 3-1.4 2.7.1 5 .3 9.2 0-4.1 0-9.1-.6-15.2-1.7 1.5 1.1 2.8 2.8 3 3.1" fill="#66f"/><path d="M32 28.4c-5 1.3-15.7.8-28.5-1.4.8.4 1.5 1 2.2 1.6a63.4 63.4 0 0 0 25.7.8c.4-.3.5-.5.6-1" fill="#66b4ff"/><path d="M31.9 28.1c-4.5 1.1-13.8.7-25.4-1l-6.3-1c-.2-.2-.2-.6-.2-1 7.2 1 25.5 4 31.8 2.4v.6" fill="#66f"/></svg>