<svg xmlns="http://www.w3.org/2000/svg" viewBox="0 0 32 32"><path d="M13 0c-1.6 0-3.3.5-4.7 1.5-1 1.2-3 1.3-3.5 3 1.1 1.3.2 3-1.2 3.8-1.9 1 .2 2.3.2 3.5-1.5 1.4-.8 3.4.8 4.4.2 1.5 1.5 2.7 2.9 3.2.2.5-.3.7-.7 1-3.5 2.3 1.5 5.4 1.1 8-.1.9-1.8 1-2.2.6-.5-.3-.3-1.9-.2-2.1-1.1-1.1-1.8.5-1.8 2.2.1 2.2 3.3 3.1 5 2.9 3.7-.7 4.4-5.9 2.5-8.4C12.6 25 13 28.3 14 30c2.4 3.1 5-.6 3.9-3.4.7 2.6 3.9 3.3 6.2 2.5 2.2-.8 2.5-3.4 3-5.2-.2-1.7 3-1.2 1.8-2.7-1-1-2.8-.6-3.7.3-1.7 1-1 4-2.9 4.6-1.7-.7-.8-3.5-1.4-5-.1-.8-1-1.4-1.5-1.8-.2-.4.7-1 1-1.4 1.2-.7 1.6-2.2 2.5-3.3.9-1.6-1.7-3 0-4.2 1.3-2-2-2.6-2.2-4.2.5-.8 1-2.1-.2-2.9C18.1 2.1 16 0 13 0Z" fill="#66f"/><path d="M28 21.2c-4.6-1.3-3.6 7.9-6.7 4.8-1.3-1.7.3-4.7-1.8-5.9-2.2-1.2 1.9-2.1.6-3.7 2-5.1-.1-10.3-4-14A4.1 4.1 0 0 0 12.4 1c-5.8 1-8.4 8.7-6.8 14 .8 1.3-.3 3.8 2 4.2.9 1.5-2.2 1.8-1.8 3.6.4 2.2 2.7 3.6 2.4 5.9-.3 1.1-2.2 1.4-3 .7-.7-.7-.2-2.4-.2-2.4s-1-.3-1 2.2C4 31 7 32 8.6 31.6c2.6-.4 3.7-3.7 3-6-.4-1.5-1.5-2-.3-2.5 2 2 1.9 7.8 4.5 7.8 2.8 0 1.8-5 .7-7 1.5.3 1.3 2 1.9 3.1.8 2.1 3.5 2.6 5.5 1.9 2-.7 2.2-3.1 2.8-5 .2-2.4 3.5-1.2 1.3-2.7ZM7 18.4c-1.3-1 .1-2.7 1-2.7 1.5.2.7 3.6-1 2.7Zm11 0c-1.4-.8-.2-2.8.7-2.8 1.4 0 1.1 3.5-.7 2.8Z" fill="#ffb466"/></svg>