<svg xmlns="http://www.w3.org/2000/svg" viewBox="0 0 32 32"><path d="M0 17.8 9.1 14c1-1.2 2-2.4 3.1-3.4.8-.4 2.2-.2 4.8-3.4s3.3-5.8 4.5-5.8c1.8 0 3.2 4 5.3 10.1 1.5 4.6 3.2 9.2 5.2 13.7-2.2-2-4-4.2-6.1-4.2-2 0-4.2 2.4-6.6 5.4-1.9 2.4-4.4 4-5.4 4 0 0-2.5-7.2-4.6-8.3a3 3 0 0 0-2.8.2L0 17.8Z" fill="#66b4ff"/><path d="M20.3 2.3c-.7 1-1.7 3-3.3 5-2.6 3.2-4 3-4.8 3.4a22 22 0 0 0-3 3.4l3.7 2.8C16 12.5 17.8 7.8 19 4.7l1.2-2.4Z" fill="#66f"/><path d="M21.5 1.5C19 1.5 17.3 14.6 8 21.9c2.6-.4 4.8 6 5.8 8.6 4.6-.8 8.3-9.5 12-9.4 2 .1 4 2.2 6.1 4.2-5-10.4-7.3-23.8-10.5-23.8Z" fill="#ffb466"/></svg>