<svg xmlns="http://www.w3.org/2000/svg" viewBox="0 0 32 32"><path d="M19.6 24v-1l-.4-.5c-.4-.5-.7-1.3-.7-2 0-.6-.3-1.1-.3-1.7v-1.4l-.1-.2V17h2l2-.1c1.6-.2 2.3-.9 2.7-1.1 1.4-1 2-2.8 2-2.8.3-.5.3-1.4.8-1.8.6-.5 1.6-.5 2.3-.8.4-.2.7-.3 1-.2.4 0 1 .4 1 0l-.1-.3c.5 0 0-1.4-.3-1.6-.3-.4-.9-.6-1.5-.8-.7-.2-1.4-.4-2-.3-1.2.3-1.2-.4-1.9-.4-.8 0-2.3 0-2.6.8 0 .4-.2.4-.4.7-.2.3 0 .5 0 .8-.2.3-.3 1.3-.4 1.7-.3.6-.6 1.4-1.1 1.4l-2-.1-1.2-.5c-1.4-.6-1.6-1.2-1.6-1.2-.2-.2-.6-.6-.7-1.2L15.6 8 15 6.6A4 4 0 0 0 14 5c-.4-.4-.8-1-1.7-.8-.1 0-.7 0-1.2.4L10.5 6l-.7 1.6-.5.9c-.1 0-.3.2-.5.1-.2 0-.3 0-.5-.2l-.9-1.5-1-1.7c-.5-.6-.8-.7-1.4-.7-1.4 0-1.5.7-2 1.9-.3.5-.4 1.3-1 1.9-.3.3-1.3 1.7-2 2v10.3l.1-.4c.3-.6 1-1.1 1.3-1.7l.5-1 .3-.9c.1-.3.4-.4.7-.4.5-.1.9.6 1.5 1l1.8.5L8 18l1 .1c.2 0 1.3 0 1.4.2-.6.3-.9 1-1.1 1.6l-.6 1.8c-.3.7-1 1-.9 1.7v.9l-.2 1c-.2.4-.3 1.8-.5 2.2l1.2-.2.3-1.7c.2-.7.5-1.3 1-1.8.4-.5.4-1.1.7-1.7l1-1.8c.7-1 1.1-2.4 2.5-2.7l1.4 1 1.2 1.4c.5 1.1 1 2.8 1.2 3.7 0 .5.1.5.5.9l.6 1c0 .2.2.8.4 1l.4 1.1h1.1c-.5-1.1-.9-2.5-1-3.7Z" fill="#ffb466"/></svg>