<svg xmlns="http://www.w3.org/2000/svg" viewBox="0 0 32 32"><path d="M30.6 15.7c-.3-.3-1-2-.3-1.9-1.6-3.3-3.5-6.4-5-9.9-.4-4.5-4.9-4.7-8.1-2.7-1 .7-1.9 2.6-3 3.4-2.2 1-4.2 3.3-4.1 6-1.3.1-.6-1.7-.4-2.4l.2.3s.5-1.1.2-1.8l.3.1c.1-1.1.5-2.7-.6-3.5.7-1-1-2.5-1.9-2.6L8 .5s-.3 0-.5.2a.6.6 0 0 1-.2-.4s-.4.1-.4.4a1 1 0 0 0-1.2.6l.1.1c-.6.8-3.3-.1-3.7 1 0 0-.3.1-.4.6 0 0-.6.8-.1.7 0 0-.2.6.5.7.2.4 1.9.1 2.2.8-.2.6-.6 1.1-1 1.5h.3c-.5.4-.8 1-1 1.6 0 0 .3-.3.5-.3a7 7 0 0 0 .3 5.1l.2-.3c0 .6.2 1.1.5 1.6 0 0 0-.4.2-.5.6 1.7 3 2.6 4 3.7 0 0 .5-.5.5-.8v.6c3.2-2 .7 1.6 1.7 4-.4.6 0 1.4.1 1.8-.3 1 .3 2.4-.1 3.5a6 6 0 0 1-.7 2.1c-.2.3-1 .7-.8 1.4-4.8 1 1.1 2.7 1.6 1.1 0-.4-.3-.5 0-.7.7-.4.3-2.6 1-3.4-.2-1.6 1.4-2.8.7-4.4h.3c-.4-1.7 1-3.3 1-5h1.9c-.7 1.4-1 2.9-1.1 4.4-1.1 2 2.7 3 3.1 5-.2.1-.4.5-.3.8 0 0-.6.2-.5.6-4.8 1.2 3 2.7 1.6 0 .2 0 .3 0 .4-.2-.1-.1.8 2.5 1.4 1.6 1 .4 1.1-2.7-.4-2.8 0-.2 0-.4-.2-.5-.3-.1 2.5-3.7 2.8-4-.3-2.1 0-4.6 1.9-7.2 0 2.1.7 4.2 1.7 6 0 .3 0 .6.2.9-.6 1.7.2 3.6-.3 5.4 0 .3-1 1.4-.6 2.2-.9.3-1.1 2.3.3 1.4.8.8 2.8-.1 1.5-1.1.7-.8-.2-1.3-.2-2.4-.3-1.4 1.5-4.5.6-5.4.4-3.2-.8-5.4.9-9.6 2 3.6-1.3 4.8-.2 7.6l.8-.9c.1-1 1.2-1.7 1-2.8l.2.2v-1.3h.5Zm-10.8 8L18.5 26c-1.1-.5-1.5-1.6-2.2-2.5l.5-1.2s.2 0 .3.4c.7-.8 1-1.7 1.2-2.7l.3.3c0-1.2 1-2 1-3.2h.4c-.5 1.8.6 5.4-.2 6.6Z" fill="#ffb466"/></svg>