<svg xmlns="http://www.w3.org/2000/svg" viewBox="0 0 32 32"><path d="M0 27.2V4.4c0-.1 0-.2.2-.2h1.3c3.1 0 7.3-.6 10.1.5 5 1.5 6.5 8 3.8 12C13.1 20 8.6 20.3 4.8 20v7c0 .2 0 .4-.2.4H.3c-.2 0-.3 0-.3-.3ZM4.8 8.4V16c1.6 0 3.2.1 4.6-.4.7-.2 1.3-.6 1.8-1.1.5-.6.7-1.3.7-2.3 0-.7-.1-1.4-.5-2-.4-.6-.9-1-1.5-1.2-.9-.4-1.7-.5-2.6-.5H4.8ZM30.6 14.5c-1.4-.7-3-1-4.6-1-.5 0-1 0-1.4.2-.3 0-.5.2-.7.4a1 1 0 0 0 0 1.2c.7.6 1.6 1 2.4 1.3 2 .7 4.1 1.6 5.2 3.5a5.2 5.2 0 0 1-.3 5.2c-.7.9-1.5 1.6-2.5 2a12.8 12.8 0 0 1-9.3-.3c-.2-.1-.3-.3-.3-.4v-4s.2-.2.3 0c.9.4 1.8.8 2.8 1 1.2.3 3.3.5 4.4 0 .4-.1.6-.5.6-1-.2-1-1.2-1.2-2.7-1.8-1.1-.4-2.1-1-3.1-1.6a5.7 5.7 0 0 1-1.7-2c-.4-.6-.5-1.4-.5-2.2 0-1 .3-1.8.7-2.7.6-.8 1.4-1.6 2.4-2 2.3-1.1 6-1 8.5 0l.3.1v4l-.1.1h-.4Z" fill="#66b4ff"/></svg>