<svg xmlns="http://www.w3.org/2000/svg" viewBox="0 0 32 32"><path fill="#b466ff" d="M21.1 13.4 14.5 17v.1l8.4 5.1 6.5-3.6.1-.1-8.4-5.1z"/><path fill="#ffb466" d="M13.8 13.4 7.3 17l-.1.1 8.4 5.1 6.6-3.6v-.1l-8.4-5.1z"/><path fill="#f66" d="M6.6 13.4.1 17l-.1.1 8.4 5.1 6.5-3.6.1-.1-8.4-5.1z"/><path fill="#e2e2e4" d="M29.4 9.8v8.7l-6.5 3.6-.7-3.6-6.5 3.6-.8-3.6-6.5 3.6v3.7H32V8.3l-2.6 1.5z"/><path d="M20.5 22.1h-1l-.2.2v1c0 .2 0 .2.2.3h1l.2-.2v-1l-.2-.3ZM13.3 22.1h-1c-.2 0-.2.1-.3.2v1c0 .2.1.2.2.3h1c.2 0 .2-.1.3-.2v-1l-.2-.3ZM27.8 22.1h-1.1l-.2.2V23.4l.2.2h1l.3-.2v-1c0-.2-.2-.2-.3-.3Z" fill="#9c9c9e"/><path fill="#0074bd" d="m29.4 9.8-3.6-2.1-.1-.1v8.8h.1l3.5 2.1h.1v.1-8.8zM8.4 22.1l-8.3-5V17H0v3.7h.1l8.2 5.1h.1v-3.7z"/><rect x="12" y="22.1" width="1.4" height="1.4" rx=".4" ry=".4" fill="none"/><rect x="26.5" y="22.1" width="1.4" height="1.4" rx=".4" ry=".4" fill="none"/><rect x="19.3" y="22.1" width="1.4" height="1.4" rx=".4" ry=".4" fill="none"/><path fill="#9c9c9e" d="m31.9 8.3-3.5-2.1h-.2l-2.4 1.4-.1.1h.1l3.5 2.1.1.1.1-.1 2.4-1.4h.1l-.1-.1z"/></svg>