<svg xmlns="http://www.w3.org/2000/svg" viewBox="0 0 32 32"><path d="m31.5 13.7-.1-.1h-.1v-.1l-.2-.1-.2-.3-.3-.2h-.1l-.3-.3-.4-.3-.4-.3a16 16 0 0 0-1-.7h-.1a23.5 23.5 0 0 0-1.8-1.2h-.1l-.6-.4-1.5-.7.7-1.3-3.2-1V8l-.6-.2h-.1l-.6-.2-.6-.1h-.1l-.6-.1h-.7l-.8-1.7-3 1 .7.8c-.9.2-1.7.5-2.6 1L12 7.2l-3 1 1.6 1.7-3 2.4-1.7-.9-1.8 1.8 1.4 1.5-1 1.4-1.2 2-2.5-.5-.9 2.7 2.2.7c-.9 2.4-1 4.3-1 4.4l-.2.8h12l-.1-.9 2.6.7-.9-3.4-2-.7.2-1.8 2 2V18l-1.3-.6c.2-.7.5-1.3 1-1.8l.8 1.7 2.1-2.2-1.4-1.3a8 8 0 0 1 1.2-.8l.4-.2v1.4l3.4-1.1-1-1 1.8-.2v1.6H24l.6-1.2a17 17 0 0 1 5.6 3l.5.3 1.4-1.4-.5-.5Z" fill="#f66"/></svg>