<svg xmlns="http://www.w3.org/2000/svg" viewBox="0 0 32 32"><path d="M31 19a5 5 0 0 0-3.6-1.5c-1 0-1.9.2-2.8.6l-.5-1.2v-1.2l.3-1v-.4s0-.5-.9-.5c-.3 0-1.3 0-1.5.4l-.2 1c-.1.5-1 2-1.7 3.2l-.2-.6v-1.2l.2-1 .1-.3c0-.1 0-.6-1-.6-.2 0-1.2 0-1.4.5l-.1.3-.2.6a192 192 0 0 1-2.5 5.6l.6-2.5.2-.7c0-.3-.2-.6-.6-.7a1 1 0 0 0-.4 0c0-.5 0-1.1-.4-1.5-.2-.3-.5-.4-1-.4-.9 0-2.2 1-2.9 2l-2 1-.9.5c-.5-.6-1.2-1-1.9-1.6-1.5-1.2-3-2.3-2.8-3.9 0-2 2.1-4 6-6C12.6 6 15.5 6 17 6.6c.5.2 1 .5 1.1.9.3.6.2 1.4-.3 2.3a8.6 8.6 0 0 1-6.6 3.9c-2 .2-2.9-.7-3-.7-.2-.3-.3-.5-.6-.3-.4.1-.2.6-.1.8.1.4.8 1.2 2 1.5.8.3 3.1.5 6-.6 3.3-1.3 5.5-4.7 4.8-7.4-.2-1-.9-1.7-1.9-2.3-2-1-5.1-1-8 0-1.8.6-5 2-7.6 4.3C.4 11.2-.2 13.2 0 14.3c.5 2.2 2.8 3.8 4.7 5.1l1.3 1c-1 .5-3.9 2-4.6 3.7a3.3 3.3 0 0 0-.1 2.7c.2.6.6 1 1 1 .5.2.9.2 1.3.2 1.6 0 3.3-.8 4.3-2.4 1.2-1.7 1-3.8.6-5l.4-.2.6-.3-.2 1.5c-.1 1.2.4 2.7 1 3.3.3.3.7.3 1 .3.8 0 1.2-.8 1.5-1.4l.2-.5c0 .4.2.8.4 1.1.2.2.4.3.7.3.4 0 .7-.2 1-.4s.4-.6.4-.6l.1-.2a63.1 63.1 0 0 0 2.5-5l.1.5.5 1 .1.3a2 2 0 0 1-.2.3v.2l-.4.4-.4.4-1.2 1.5c-.1.5 0 .8.3 1 .1.2.4.2.9.2.6 0 1-.2 1.2-.3l1-.5c.8-.6 1.2-1.3 1.1-2.2 0-.4 0-.8-.3-1.4h.1l1.4-2.5.2.6.5 1.1c-.9.8-1.4 1.7-1.6 2.2-.2.6-.3 1.1 0 1.5 0 .2.3.4.6.5.3 0 .6 0 1-.2l1.1-.6c1-.7 1.3-1.4 1.3-2.2 0-.3 0-.6-.2-1a6 6 0 0 1 2.7-.2c1.5.2 2.2.7 2.5 1.2.4.5.5 1 .5 1.3-.1.5-.5.8-.8 1-.2.2-.4.3-.3.5 0 .4.4.3.5.3.3 0 1.6-.6 1.7-2.1 0-.8-.3-1.7-1-2.4Zm-7.4 1.3c0 .6-.3 1-.8 1.4l.2-.6.6-.8Zm-10.2-2.7c0 .4-.5 2-.8 2.7 0 .1 0 .3-.2.5-.2.5-.6 1.7-.9 2-.1-.3-.3-1.5.1-2.8l1-1.9.8-.5Zm-7.3 7.1c-1 1-2 1.2-2.5 1l-.1-.4c-.1-.5.2-1.3 1-2 .6-.7 1.6-1.3 2-1.6l.5-.3c.2 1.2 0 2.4-1 3.3Z" fill="#ff66b4"/></svg>