<svg xmlns="http://www.w3.org/2000/svg" viewBox="0 0 32 32"><path d="m28 6.5-10-6a3.8 3.8 0 0 0-4 0l-10 6A4 4 0 0 0 2 10v12a4 4 0 0 0 2 3.5l10 6a3.8 3.8 0 0 0 4 0l10-6a4 4 0 0 0 2-3.5V10a4 4 0 0 0-2-3.5Z" fill="#6f6" fill-rule="evenodd"/><path d="m14.4 30.9-10.1-6c-1-.6-1.6-1.7-1.6-3V10c0-1.2.6-2.3 1.6-2.9l10.1-6a3.1 3.1 0 0 1 3.2 0l10.1 6c.8.5 1.4 1.4 1.6 2.4-.4-.8-1.1-1-2-.4L17.7 15c-1.2.7-2 1.4-2 2.9v11.8c0 .8.3 1.4.8 1.5H16c-.6 0-1.1 0-1.6-.3M28.1 6.5 17.9.5a3.8 3.8 0 0 0-3.8 0l-10.2 6A4 4 0 0 0 2 10v12a4 4 0 0 0 2 3.5l10 6a3.8 3.8 0 0 0 4 0l10-6a4 4 0 0 0 2-3.5V10a4 4 0 0 0-2-3.5" fill="#9c9c9e" fill-rule="evenodd"/><path d="m25.4 23.2-2.5 1.5-.1.1v.7s0 .1 0 0l2.6-1.5.1-.2v-.6h-.1" fill="#6f6" fill-rule="evenodd"/><path d="m20 17.6.2.1v1c.4-.2.7-.3 1-.2v.2l-.2.8v.1h-.2l-.9.2c-.5.3-.7.7-.7 1 0 .4.2.6 1 .6s1.3.4 1.3 1.3c0 1-.5 2-1.3 2.6v.8l-.1.3-.5.3-.2-.1v-.9c-.4.2-.8.2-1.1.1 0 0-.1 0 0-.2v-.8l.2-.1h.1c.3 0 .7 0 1-.2.6-.2.9-.7.9-1.2 0-.4-.3-.6-.8-.6-.8 0-1.5-.2-1.5-1.2s.5-1.8 1.2-2.4v-.9c0-.1 0-.2.2-.3l.4-.3Z" fill="#fff" fill-rule="evenodd"/></svg>