<svg xmlns="http://www.w3.org/2000/svg" viewBox="0 0 32 32"><path d="M24.8 1.3H3.2A2.6 2.6 0 0 0 .6 3.9v23.8c0 1.5 1.2 2.6 2.6 2.6h14.3c0-2 0-4.7.5-7.6" fill="#66b4ff"/><path d="M24.8 1.3H3.2A2.6 2.6 0 0 0 .6 3.9v23.8c0 1.5 1.2 2.6 2.6 2.6h14.3c0-2 0-4.7.5-7.6" fill="#66b4ff"/><path d="M29.9.5c-6.6-3.2-11.3 10.2-12.5 15.2l1 3.3c-.2-.7-.9-2-1.3-2.6l-.5 1.7c.7 1.2 1.1 3.4 1.1 3.4 0-.5-1-2.3-1.3-2.7-.7 2.3-.2 2 .3 3.8 1.2 4.2.4 5.7 1 9.4h.3A39.7 39.7 0 0 1 29.3 2.2 54.6 54.6 0 0 0 18.6 26c1-3 4-4.2 4-4.2s1.6-1.9 3.3-4.6c-1.4.3-3.7 1-4.4 1.4 0 0 2.7-1.7 5.1-2.4C30 11 33.5 3.7 30 .5Z" fill="#66f"/></svg>