<svg xmlns="http://www.w3.org/2000/svg" viewBox="0 0 32 32"><path d="m13 31.3 13.2.4-.8-16.1L26.6.8l-6 .3L17.6 0 5.4.7 6 15.2 5.4 32l7.7-.7" fill="#f66"/><path d="m17.6 21.8-1.4.4.8-1.8.7-5-1-.2 1.2-1.6 1.4-5.2-2.5.5s1.3-2.3 2.7-3.9l-1.8-1.3s-5.8 2.5-4.2 10.8l-1.2-.3 1.1 8.7-1 .3s1 2 2.4 3c.2 0-1.7-6.8.3-13.7l.2.5s-1.6 7.2 0 13.1c0 0 0 .2.8 0 0 0 1.5-2.6 1.5-4.3" fill="#66f"/><path d="M15.7 12s-.8 3.7-.6 9.7c0 1.8.3 3.5.5 5l.7 3.2v1s-3.3-10.5-.6-19M17.7 8.7s.8-.4 1.8-.5c0 0 1.2 2.1-1.7 5.7 0 0 1.7-3.8 1.3-5 0 0-.4-.3-1.4-.2M17.4 15s.6.2 1 0c0 0-.7 2.4-.5 3.8s-1 2.2-1 2.2 1-1.3.7-2.3c-.3-.8 0-2.6.3-3.2 0 0-.3 0-.5-.4M16.7 21.5s1.1 0 1.2-.7c0 0 .2 3.4-1.4 4.7 0 0 1.2-1.8 1-3.7l-.8-.3" fill="#fff"/><path d="M13.6 23s-.3.3-1.4-.6c0 0 .4 2.3 2.5 3.3 0 0-1.5-1-1.9-2.3 0 0 .5-.1.8-.5M13.3 22s-1.5-3.6-1.1-8.5c0 0 .3.9 1.4 1.2h-.8s-.8 2.1.5 7.4M19.3 5s-.5-3.9-3.9.1c-2.7 3.2-2.4 6-2.2 7.4 0 .4-.5-4 2.5-7s3.6-.6 3.6-.4" fill="#fff"/><path d="M14.6 1.6s-.3-.8-1-.9c-.6 0-1.2.8-2 2.4-1.6 3.8-1 6.6-1 6.7l.4 1.4.1-1.5c.6-5.4 1.8-7 2.5-7.5.4-.3.7-.3.7-.3l.5.2-.2-.5ZM11.3 1.2l.3-.4H11c-.5 0-.9.2-1.1.6-.9 1.2-.2 3.8-.2 4l.5-.2c-.3-2 1-4 1-4ZM20.9 6.5l.2.5c.2.1.6.9-1 5l-.8 2 1.2-1.7c0-.1 1.2-1.8 2-4.6.1-.6 0-1-.2-1.2-.5-.4-1.3 0-1.4 0ZM25 6.8c-.2-.4-.7-.7-1.4-.7L23 6l.5.5s1 .9.3 2l-1.1 2L24 8.9c.1-.2 1.1-1.2.8-2Z" fill="#ff6"/></svg>