<svg xmlns="http://www.w3.org/2000/svg" viewBox="0 0 32 32"><path d="M30.6 8.4h-6.2c0-.4-.2-.7-.4-1l-6.2-6.2c-.6-.6-1.5-.6-2 0L9.6 7.4l-.2.2-.2.8h6.2c.8 0 1.4.6 1.4 1.4V16a9.4 9.4 0 0 1 1.5.1c3.6.8 6.1 3.9 6.1 7.5h6.2c.8 0 1.4-.6 1.4-1.4V9.8c0-.8-.6-1.4-1.4-1.4Z" fill="#66b4ff"/><path d="M18.3 16.1h-.8l-.7-.1V9.8c0-.8-.7-1.4-1.4-1.4h-14C.6 8.4 0 9 0 9.8v14c0 .7.6 1.3 1.4 1.3h7.9a7.1 7.1 0 0 0 .9 2.3 7.6 7.6 0 1 0 8-11.3Zm-9 5.2h-2l-3.3-9h1.9l2 6 .5 1.4L9 18l2-5.9h1.9l-3.5 9.1Z" fill="#66f"/></svg>