<svg xmlns="http://www.w3.org/2000/svg" viewBox="0 0 32 32"><path d="m17.2 7-5.7 9.4 6 9.8c.2.3 0 .3-.1.3H13c-.3 0-.6 0-.7-.2-1.2-2.5-2.5-4.8-3.8-7.2L6 23.9l-1.3 2.4c0 .2-.2.2-.4.2H0v-.3l5.8-9.5L.2 7v-.2h4.7L5 7l1.2 2.4 1.3 2.4L9 14.2c1.2-2.5 2.5-4.8 3.8-7.2v-.2H17l.2.1V7ZM25.9 26.9c-2.7 0-5.5-1-7-3.4a8.7 8.7 0 0 1 0-8.3c1.8-3 5.2-4.3 8.8-4V5.4c0-.1 0-.2.2-.2h3.8l.2.1v19.1l.1 1.1c0 .1 0 .3-.2.3-1.8.8-3.9 1.2-6 1.2Zm1.8-3.8v-8.3a3 3 0 0 0-.5 0c-2.6-.4-5.1 1.4-5 4.2 0 1.1.3 2.4 1.2 3.2.3.4.8.6 1.3.8.7.3 1.6.3 2.3.2h.7Z" fill="#f6f"/></svg>