<svg xmlns="http://www.w3.org/2000/svg" viewBox="0 0 32 32"><path d="M25 6.8c-4-2.2-6-3.8-7.7-4.4l-.6-.1H16c-1.1 0-2.3.5-3.8 1.3l-1.6 1L7 6.8l-.2.1-1.2.8-.2.1-1.2 1C1.4 11.1 0 14 0 17.3v.5c.3 6.7 7.4 12 16 12s16-5.6 16-12.5c0-4.3-2.7-8.1-7-10.4Z" fill="#e2e2e4"/><path d="M14.7 3.4c0 2.2-1 4.3-2.6 5.7-.1.1 0 .3.1.3 1.6-.6 3.7-2.4 2.8-6 0-.3-.3-.2-.3 0Zm1 0a7.5 7.5 0 0 1 .8 6.2c0 .1.1.3.2.1 1-1.3 1.9-3.8-.7-6.5-.2-.2-.4 0-.3.2Zm1.3 0c1.8 1.2 2.9 3.1 3.1 5.3l.1.2c.1 0 .2 0 .2-.2.4-1.6.2-4.3-3.3-5.7-.2 0-.3.2-.1.3ZM8.5 8A7.8 7.8 0 0 0 13.3 4c.1-.2.4-.1.3 0-.8 3.7-3.4 4.5-5 4.4-.2 0-.2-.3 0-.3Z" fill="#ffb466" fill-rule="evenodd"/><path d="M19.2 20.4c0-.1-.2-.3-.3-.2h-5.7c-.2 0-.4.1-.3.3.1.7.5 1.4 1 1.9l.3.3c.5.5 1.2.8 1.9.9.7 0 1.3-.4 1.8-.9l.5-.5c.4-.5.7-1 .8-1.7Z" fill="#f66"/><path d="M19.4 20.1a.6.6 0 0 0-.5-.2h-5.7c-.2 0-.4 0-.5.2l-.1.5c.2.9.7 1.7 1.4 2.3.6.5 1.3.8 2 .9.8 0 1.5-.4 2-1 .8-.5 1.3-1.3 1.5-2.2l-.1-.5Zm-1.7 2.4c-.4.4-1 .7-1.7.8-.6-.1-1.2-.4-1.6-.8l-.2-.2c.5-.6 1.2-.9 2-1 .6.1 1.3.4 1.8.9l.3-.4c-.6-.5-1.4-.9-2.2-.9-.8 0-1.6.4-2.2 1.1-.4-.4-.6-1-.8-1.5H19c-.1.8-.6 1.5-1.2 2Z"/><ellipse cx="23" cy="19.2" rx="2.7" ry="1.6" fill="#ff66b4"/><ellipse cx="9.1" cy="19.2" rx="2.7" ry="1.6" fill="#ff66b4"/><path d="M10.4 18.6a2.5 2.5 0 1 0-2.5-2.5c0 1.4 1 2.5 2.5 2.5Zm11.3 0a2.5 2.5 0 1 0-2.5-2.5c0 1.4 1.1 2.5 2.5 2.5Z" fill-rule="evenodd"/><path d="M9.6 16.2c.5 0 1-.4 1-.9s-.5-1-1-1a1 1 0 0 0-1 1c0 .5.5 1 1 1Zm11.3 0c.5 0 1-.4 1-.9s-.4-1-1-1-1 .5-1 1 .5 1 1 1Z" fill="#fff" fill-rule="evenodd"/></svg>