<svg xmlns="http://www.w3.org/2000/svg" viewBox="0 0 32 32"><path d="M31.4 13.3c-.8-.5-2.4-.7-3.7-.5a5 5 0 0 0-2-3.3L25 9l-.5.7c-.6 1.1-1 2.3-.8 3.5 0 .7.2 1.4.6 2a5 5 0 0 1-2.4.5H0v.3C-.1 17.2-.1 21 2.3 24c1.9 2.3 4.7 3.5 8.3 3.5 7.9 0 13.7-3.8 16.4-10.7 1 0 3.4 0 4.6-2.3l.3-.7.1-.2-.7-.4ZM14.2 4.5h3.3v3.1h-3.3z" fill="#66b4ff"/><path fill="#66b4ff" d="M14.2 8.2h3.3v3.1h-3.3zM13.6 8.2h-3.3v3.1h3.3V8.2zM9.7 8.2H6.4v3.1h3.3V8.2zM5.8 12H2.5v3.1h3.3V12zM9.7 12H6.4v3.1h3.3V12zM13.6 12h-3.3v3.1h3.3V12zM17.5 12h-3.3v3.1h3.3V12zM21.4 12h-3.3v3.1h3.3V12z"/></svg>