<svg xmlns="http://www.w3.org/2000/svg" viewBox="0 0 32 32"><path d="M16 25.3a17.5 17.5 0 0 1-5.2-.9l.9 1.6.4 5c0 .6 1.7 1 3.9 1s4-.5 4-1l.2-5 1-1.6-1.2.4c-.7.2-2.2.4-4 .4ZM19 7.2l.6-2.6L23.2.8s0-.3-.3-.5c-.3-.3-.5-.4-.6-.3l-3.9 4-.8 3.1H16c-4 0-7.2.4-7.2 1S12 9 16 9s7.2-.5 7.2-1c0-.4-1.7-.8-4.2-1Zm-1 1.4c-.5 0-.8-.1-.8-.2l.1-.2c0 .2.3.2.7.2l.7-.1h.2c0 .2-.4.3-.9.3Z" fill="#f66" fill-rule="evenodd"/><path d="M21.1 9.1a39.5 39.5 0 0 1-10.2 0c-1-.1-1.4-.2-2-.5.1 1.8 1 8.6 1 10.3h.1l.4 5c.1.2 2.5 1 5.5 1s5.4-.8 5.5-1l1.7-15.3c-.6.3-1 .4-2 .5Z" fill="#f66" fill-rule="evenodd"/></svg>