<svg xmlns="http://www.w3.org/2000/svg" viewBox="0 0 32 32"><circle cx="3.4" cy="6.8" r="1.4" fill="#ff66b4"/><circle cx="25.2" cy="5.6" r="1.4" fill="#ff66b4"/><circle cx="26.3" cy="23.9" r="1.4" fill="#ffb466"/><circle cx="9.2" cy="1.4" r="1.4" fill="#ffb466"/><path d="M17.6 12.7c-.6 0-1-.5-1.1-1.1v-.3l.2-.5-1.1.2c-.6 0-1.2 0-1.7-.3-.5-.2-1-.6-1.2-1a3 3 0 0 1 .1-3.1c.6-1 1.6-1.4 2.6-1.4.8.1 1.5.4 2.1 1l.3-1c.6-2 .8-4.1.8-4.1.1-.6.7-1 1.3-1 .5.2.9.6.9 1.2 0 0-.2 2.2-.9 4.5-.3 1.1-.7 2-1.1 2.8v.6c.2.8.1 1.8-.1 2.7-.2.4-.6.8-1 .8Zm-2.4-5.3c-.1 0-.3 0-.5.3-.1.3-.2.6 0 .8.1.3.6.3.8.3.3 0 .6-.2.9-.5l-.2-.3c-.2-.3-.5-.5-1-.5Z" fill="#66b4ff"/><path d="m14.7 16-.3-.3C9.8 12.1 5 10.5 3.7 12.2l-.1.2v.1l-.2.3v.5l-2.6 15A3.2 3.2 0 0 0 5 31.8L19.2 26c.2 0 .9-.4 1-.6l.2-.2c1.3-1.7-1.3-5.8-5.7-9.4Z" fill="#ffb466"/><path d="M9.8 29.9c-1.7 0-3-.9-4.8-2.2-2-1.6-3.2-3.4-3.4-4.5l-.5 3.3c.2 1 1.1 2.1 2.4 3.1a6 6 0 0 0 3.3 1.5l3-1.2Zm-1.7-6c-3.3-2.6-5.4-5.5-5.3-7.2l-.6 3.2c0 1.5 1.8 4 4.4 6 2.2 1.7 4.6 3 6.4 2.7l3-1.2c-2.4.2-5-1.2-7.9-3.5Z" fill="#66f"/><circle cx="14.9" cy="16" r="1.4" fill="#66b4ff"/><path d="M22.5 14.5 20.7 13c0-.1 1-1.1 2.5-2a10 10 0 0 1 7.1-.7 1.2 1.2 0 1 1-.5 2.3c-2-.4-3.8-.2-5.4.6-1.2.6-2 1.3-2 1.3ZM9.5 5.2A1.4 1.4 0 1 0 7 6.7s1.1 1.8 1.3 4.1c.2 2.4-.5 4.5-2 6.5a18 18 0 0 0 1.9 2c2.2-2.3 3.3-5.6 3-9a13 13 0 0 0-1.8-5.1Z" fill="#ff66b4"/><path d="M27.1 18.8a9 9 0 0 1 1.5.4c.7.4 1.5 0 1.8-.6.4-.7 0-1.6-.6-1.9a15 15 0 0 0-13.1.8c-2 1.1-3.9 2.6-5.4 4.4.8.6 1.6 1 2.5 1.5A12.7 12.7 0 0 1 27 18.7Z" fill="#66b4ff"/></svg>