<svg xmlns="http://www.w3.org/2000/svg" viewBox="0 0 32 32"><path d="M16 0C10.4 0 5.6 4.3 4.9 10h22.6C26.7 4.2 21.9 0 16 0ZM24.2 27.1c0 1.2-1 2.2-2.1 2.2h-1.2a.8.8 0 0 1-.6-.3l-1.5-1.8a.8.8 0 0 0-.6-.3H14c-.3 0-.5 0-.6.3L12 29c-.1.2-.4.3-.6.3h-1.2c-1.2 0-2.2-1-2.2-2.1v-4.4H5.4v4.4c0 2.6 2.1 4.8 4.8 4.8h12c2.6 0 4.8-2.2 4.8-4.8v-4.4h-2.7v4.4Z" fill="#f66"/><path fill="#f66" d="M12.6 25.2h6.7l.7.8 1-.9-1-1.2h-8l-1.1 1.2 1 .9.7-.8zM28.8 13.7v-1c0-1.2-1-2.1-2-2.1H5.2a2 2 0 0 0-2 2v1c-.5.4-.8.9-.8 1.5v2.7c0 .6.3 1.2.8 1.5v1c0 1.1 1 2 2 2h21.6c1 0 2-.8 2-2v-1c.5-.3.8-.9.8-1.5v-2.7c0-.6-.3-1.1-.8-1.4Zm-4 4.1H7.2c-.8 0-1.5-.7-1.5-1.5s.7-1.5 1.5-1.5h17.6c.8 0 1.5.7 1.5 1.5s-.7 1.5-1.5 1.5Z"/></svg>