<svg xmlns="http://www.w3.org/2000/svg" viewBox="0 0 32 32"><path d="m32 11.9-.2-1.5a8 8 0 0 0-2.3-1.2c-3.8-12-20.7-12-24.6 0a8 8 0 0 0-2.2 1.2c-.5 1.9-.3 4 .7 5.7l.6.3c-1.4 1.1-3 3.4-4 5.1C2 20 1.5 20 5.1 17.7v.2c-1.8.6-1.3 2.4-.8 4.2.5 2.2 1.2 1.6 2.5 1.4A13 13 0 0 0 8.6 27h-.1L5 25.4c1.8 3 4 7.2 9 5.8 3.7 1.8 7.8-.7 11.3-1.6 2.4 0 3.8-4.5 4.5-5.6l-2.7 1.3.8-2.1c1.4 0 1.9.7 2.4-1.5.4-1.8 1-3.6-.8-4.2h.2l.2-1c.4 0 .8-.2 1.2-.4.7-1.3 1-2.8.9-4.2Z" fill="#292c2d" fill-rule="evenodd"/><path d="M7.6 14s-5 3.5-5.1 4.8h.3s6-4 10.7-4.5l.1-.6-6 .3m7.9-.5-4 2.8.2.1c1.4-.6 7.6-2 8.5-3h-4.7m3.4 3.4c2.8 0 7-2.7 7-2.7l-1.4-.2c-.8 0-2.5-.1-3.2-.4-.2.3-2.7 2.9-2.6 3.2l.2.1M7 27.2l-.4-.3.4.3Zm20.8-1.7c-.5.4-4.1.2-4.8.2l-2.5-2-3 .8-3.5-.3-2 2.2-3.6 1-1.8-.5v-.1a6.2 6.2 0 0 0 3.6 4.2c2.2.3 7.3 0 7.8-2.8 2 3.2 4.7 1.9 7.1 1.2 2.7-.5 3-2.6 3.8-4.4l-1 .6Z" fill="#f66" fill-rule="evenodd"/><path d="M20.6 14 19 15.8h-4.8c1.8-.7 4.2-1.4 6.3-1.6m-7.8.6-1.5 1.2a57 57 0 0 0-3.5.5c1.5-.7 3.2-1.3 5-1.7M29 17.4l-.6 3.8L26 23l-6.7-.8-1-3.3c-.2-.3-.7-.2-.9-.2-.2 0-.7 0-.8.2l-1 3.3-6.8 1.5-2.6-1.9-.6-4.3 1-.3.4 4 .1.2 2 1.3 5.6-1.2.1-.2 1-3.2a6 6 0 0 1 3.2 0s.9 3.6 1.1 3.4l5.6.6c0 .2 1.9-1.3 2-1.3v-.1l.5-3.5 1 .2m.6-2.4-.4 1.8a52 52 0 0 0-6-.9l2.7-1.5 3.7.6" fill="#9c9c9e" fill-rule="evenodd"/><path d="M18.5 16.2c-3.6 2.7-2.7-.5-4.1 4.9L9 22.3 7.4 21l-.5-4 3.7-.5-1.3 2c2.6-2.4 5.5-2.5 9.2-2.4Zm-8.3 4.5c.9-.6 3.2.6 3.2-1.2 0-3.3-3.2-1.8-2.4.6-.6.2-.8.5-.8.6ZM27.7 17l-.5 3.4-1.7 1.2-5.3-.6-1-3.3c-.2-.3-.6-.2-1.5-.4 3-.8 6.5-1.2 10-.3Zm-3.4 3.1s-.2-.4-.8-.3c.7-2.5-2.5-3.9-2.4-.6 0 2 2.4.5 3.2 1Z" fill="#e0c59b" fill-rule="evenodd"/><path d="M18.5 16.2c-3.6 2.7-2.7-.5-4.1 4.9L9 22.3 7.4 21l-.5-4 3.7-.5-1.3 2c2.6-2.4 5.5-2.5 9.2-2.4Zm-8.3 4.5c.9-.6 3.2.6 3.2-1.2 0-3.3-3.2-1.8-2.4.6-.6.2-.8.5-.8.6ZM27.7 17l-.5 3.4-1.7 1.2-5.3-.6-1-3.3c-.2-.3-.6-.2-1.5-.4 3-.8 6.5-1.2 10-.3Zm-3.4 3.1s-.2-.4-.8-.3c.7-2.5-2.5-3.9-2.4-.6 0 2 2.4.5 3.2 1Z" fill="#e2e2e4" fill-rule="evenodd"/><path d="M22.1 18.7c.5 0 .5-.8 0-.7-.4 0-.4.7 0 .7Zm2.2 1.5c-.8-.4-3.2 1-3.2-1-.1-3.2 3-1.8 2.4.7.6-.1.8.3.8.3Z" fill="#292c2d" fill-rule="evenodd"/><path d="M22.5 18.3c0 .5-.7.5-.7 0 0-.4.7-.5.7 0" fill="#eef7f8" fill-rule="evenodd"/><path d="M12.3 19c.5 0 .4-.8 0-.8-.5 0-.5.8 0 .7Zm1 .5c0 1.8-2.2.6-3 1.2 0 0 0-.4.7-.6-.8-2.4 2.4-3.9 2.4-.6Z" fill="#292c2d" fill-rule="evenodd"/><path d="M12.6 18.6c0 .4-.6.4-.7 0 0-.5.7-.5.7 0" fill="#eef7f8" fill-rule="evenodd"/><path d="M31.3 11.3v-.5c-1.4-1-3-1.6-4.5-2.2l2 .5C25-2 9.5-2 5.7 9a15 15 0 0 1 2.1-.5c-1.5.6-3.2 1.2-4.5 2.2-.2 1.6 0 3.4.7 4.8l.6.4-.3-1.4 2-.4c-.7-.2-1.4-.3-1.8-.8 3.2.8 9-.6 12.8-.4 3.8-.2 9.5 1.2 12.8.4-.5.4-1 .6-1.6.7l2 .5-.3 1.3.5-.3c.7-1.3.9-2.8.8-4.3Z" fill="#ff6" fill-rule="evenodd"/><path fill="#f66" fill-rule="evenodd" d="M20.7 5.9V3.2h-6.8v2.7h1.9v-.8h.5v3.7h-.7v2H19v-2h-.7V5.1h.5v.8h1.9z"/><path d="m5 15 1-.2-1 .7V15" fill="#5f655d" fill-rule="evenodd"/><g fill="#e2e2e4"><path d="m30 18.6-.6-.4c-.1.2-.4 3.2-.6 3.3 0 .1-.7.4-.6.6l-.5.2v-.1c-1.4 1.8-6.6.3-8.4.2v.3c-1.4.2-.7-4.4-2.5-3.6-.3.5-.7 3.9-1.6 3.6v-.2l-6.5 1.3-1.8-1c-.1-.3-1-.4-1.2-.7-.2 0-.4-3.3-.5-3.4-1.4.3-.6 2-.4 3.3l-.3-.5c.2.4.3 1.8.8 1.8.1 0 1.7 0 1.5-.4.6 1.4 1.4 2.2 2.3 4 3.6-.3 3.6-3.8 6.6-3l-.3-.7c.3.8 3.8.5 4-.3 0 0 0 .5-.5.9 2.3-1 2.7.4 4.3 1.4 2.7.8 4 0 4.5-2.9-.2.8 1.1.6 1.6.7.5 0 .6-1.5.7-1.8l-.3.3c.2-.7.6-2.5.3-2.9ZM18.7 29.4l-.6-.7-.3.7h.9ZM20.2 30.4c-.9-.5-1.5-.9-2.6-.6-.8 1.3-2.1.9-3.3 1.2 0 0 3.7 1.9 7.8-.7-.6 0-1.2-.2-2 .1Z"/></g></svg>