<svg xmlns="http://www.w3.org/2000/svg" viewBox="0 0 32 32"><path d="M30.8 22a16 16 0 0 1-29.6 0l5.1-5c3 2.9 6.4 5.7 9.7 5.7s6.8-2.7 9.8-5.7l5 5Zm-4-5.8 4.4 4.6c1-3 1-6.3.2-9.4l-4.7 4.7Zm-13.5-2v3.7l2.4 1.3h.8l2.2-1.2v-3.8l-2.4-1.1a1 1 0 0 0-.7 0l-2.3 1Zm-7 1.1c3-2.9 6.4-5.8 9.7-5.8s6.7 2.8 9.8 5.8l5.1-5.2a16 16 0 0 0-29.8 0c1.1 1 3 3.2 5.2 5.2Zm9.7-4.6c2.9 0 5.8 2.5 9 5.4-3 2.9-5.9 5.3-9 5.3s-6-2.6-8.8-5.2c2.7-2.7 5.8-5.5 8.8-5.5Zm.6 1.1h-1.3l-2.7 1.4c-.5.3-.5 1-.5 1V18c0 .4.1.6.5.8l2.8 1.4c.4.2 1 .2 1.3 0l2.7-1.3c.4-.3.5-.5.5-.7v-4.1c0-.4-.1-.7-.6-1l-2.7-1.4ZM5.4 16.2.7 11.4c-1 3.3-.9 6.5 0 9.4l4.7-4.6Z" fill="#66f"/></svg>