<svg xmlns="http://www.w3.org/2000/svg" viewBox="0 0 32 32"><path d="M29.4 23.2c-1.8 0-3.5 1-4.9 1.8-2.6 1.6-3.8 1.5-3.8 1.5-.3-.3.7-3-.4-6-1.2-3.4-3.1-4.2-3-4.5.7-1 2.3-2.8 3-6.1.4-2 .3-5.3-.6-7-.2-.4-1.6.5-1.6.5S16.7.4 16.3.1c-1.2-.8-2.6 3.3-2.6 3.3s-2.8-.5-5 2c-.5.4-1 .7-1.7.9-.2 0-.4 0-.9 1.5-.8 2.2 1.4 4.6 1.4 4.6s-2.7 2-3.6 4.2c-1.1 2.6-.8 5-.8 5s-1.9 1.7-2 3.4c0 1.4.3 2.6.8 3.3.5.8 1.1.4 1.1.4s-1.2 1.5 0 2.1c1 .6 2.8.9 3.7 0 .7-.8.8-2.3 1.1-3l.5.5.6.4s-1.7.8-1 2.4c.2.6 1 1 2.3.9.5 0 6-.3 7.4-.7.8-.2 1.1-.6 1.1-.6s3.5-1 6.7-3a12 12 0 0 1 4.5-2c1.4-.4 1.3-2.5-.5-2.5Z" fill="#66b4ff"/></svg>